<svg xmlns="http://www.w3.org/2000/svg" width="42" height="42" viewBox="0 0 42 42">
    <g fill="none" fill-rule="evenodd" transform="translate(3)">
        <path fill="#DFE8FF" fill-rule="nonzero" d="M25.375 42H1.75C.787 42 0 41.212 0 40.25V7c0-.963.787-1.75 1.75-1.75h23.625c.962 0 1.75.787 1.75 1.75v33.25c0 .962-.788 1.75-1.75 1.75z"/>
        <path fill="#B3C8FE" fill-rule="nonzero" d="M4 9.625h19.25V17.5H4z"/>
        <path fill="#CAD9FF" fill-rule="nonzero" d="M8.444 25.125H4.556c-.334 0-.556-.222-.556-.556v-3.888c0-.334.222-.556.556-.556h3.888c.334 0 .556.222.556.556v3.888c0 .334-.222.556-.556.556zM15.444 25.125h-3.888c-.334 0-.556-.222-.556-.556v-3.888c0-.334.222-.556.556-.556h3.888c.334 0 .556.222.556.556v3.888c0 .334-.222.556-.556.556zM22.444 25.125h-3.888c-.334 0-.556-.222-.556-.556v-3.888c0-.334.222-.556.556-.556h3.888c.334 0 .556.222.556.556v3.888c0 .334-.222.556-.556.556zM8.444 32.125H4.556c-.334 0-.556-.222-.556-.556v-3.888c0-.334.222-.556.556-.556h3.888c.334 0 .556.222.556.556v3.888c0 .334-.222.556-.556.556zM15.444 32.125h-3.888c-.334 0-.556-.222-.556-.556v-3.888c0-.334.222-.556.556-.556h3.888c.334 0 .556.222.556.556v3.888c0 .334-.222.556-.556.556zM22.444 32.125h-3.888c-.334 0-.556-.222-.556-.556v-3.888c0-.334.222-.556.556-.556h3.888c.334 0 .556.222.556.556v3.888c0 .334-.222.556-.556.556zM8.444 39.125H4.556c-.334 0-.556-.222-.556-.556v-3.888c0-.334.222-.556.556-.556h3.888c.334 0 .556.222.556.556v3.888c0 .334-.222.556-.556.556zM15.444 39.125h-3.888c-.334 0-.556-.222-.556-.556v-3.888c0-.334.222-.556.556-.556h3.888c.334 0 .556.222.556.556v3.888c0 .334-.222.556-.556.556zM22.444 39.125h-3.888c-.334 0-.556-.222-.556-.556v-3.888c0-.334.222-.556.556-.556h3.888c.334 0 .556.222.556.556v3.888c0 .334-.222.556-.556.556z"/>
        <path fill="#1F5AF6" fill-rule="nonzero" d="M14.875 20.825L18.2 17.5h15.75a1.98 1.98 0 0 0 2.012-2.012V2.011C35.875.875 35 0 33.862 0H16.887a1.98 1.98 0 0 0-2.012 2.013v18.812z"/>
        <circle cx="22.663" cy="6.037" r="1.575" fill="#FFF" fill-rule="nonzero"/>
        <circle cx="28.087" cy="11.463" r="1.575" fill="#FFF" fill-rule="nonzero"/>
        <path stroke="#FFF" stroke-width="2" d="M28.613 5.513l-6.476 6.475"/>
    </g>
</svg>
