<svg xmlns="http://www.w3.org/2000/svg" width="42" height="42" viewBox="0 0 42 42">
    <g fill="none" fill-rule="nonzero">
        <path fill="#1F5AF6" d="M38.528 8.034L31.259 1.91a1.746 1.746 0 0 0-2.246 2.675l3.604 3.062H15.354c-5.472.006-9.907 4.441-9.913 9.913v3.134a1.746 1.746 0 0 0 3.492 0v-3.165a6.432 6.432 0 0 1 6.421-6.42h17.273l-3.603 3.062a1.746 1.746 0 0 0 2.245 2.674l7.27-6.125a1.746 1.746 0 0 0 0-2.674l-.011-.01z"/>
        <path fill="#DFE8FF" d="M33.924 19.449c-.964 0-1.746.782-1.746 1.746v3.164a6.432 6.432 0 0 1-6.421 6.422H8.484l3.603-3.063a1.745 1.745 0 1 0-2.195-2.634L2.624 31.21a1.746 1.746 0 0 0 0 2.675l7.268 6.125a1.746 1.746 0 0 0 2.246-2.674l-3.604-3.063h17.223c5.471-.006 9.906-4.44 9.912-9.913v-3.164c0-.965-.782-1.746-1.745-1.746z"/>
    </g>
</svg>
