<svg xmlns="http://www.w3.org/2000/svg" xmlns:xlink="http://www.w3.org/1999/xlink" width="42" height="42" viewBox="0 0 42 42">
    <defs>
        <path id="a" d="M2.09 37.09l13.614-18.97V1a1 1 0 0 0-1-1H1a1 1 0 0 0-1 1v32.09c0 1.95.948 4.775 2.09 4z"/>
    </defs>
    <g fill="none" fill-rule="evenodd">
        <g transform="translate(.41 .41)">
            <mask id="b" fill="#fff">
                <use xlink:href="#a"/>
            </mask>
            <use fill="#3E73FF" fill-rule="nonzero" xlink:href="#a"/>
            <path fill="#094DFF" fill-opacity=".3" fill-rule="nonzero" d="M32.217 3.172l-28.656 21.9c-3.607 2.465-4.52 7.35-2.054 10.91 2.465 3.561 7.35 4.52 10.91 2.055l28.657-21.9c.41-.274.502-.822.228-1.233L33.404 3.4c-.228-.41-.776-.502-1.187-.228z" mask="url(#b)"/>
        </g>
        <path fill="#094DFF" d="M4.25 4.996h8v19h-8z"/>
        <path d="M8.263 41.68a7.886 7.886 0 0 1-5.98-2.739c2.556 3.15 7.121 3.835 10.5 1.552l21.09-14.334c.412-.274.503-.822.23-1.233l-7.853-11.55c-.274-.41-.822-.502-1.233-.228l-8.856 6.026v14.654c0 4.337-3.561 7.852-7.898 7.852z"/>
        <path fill="#DFE8FF" fill-rule="nonzero" d="M32.628 5.583l-28.656 21.9c-3.607 2.465-4.52 7.35-2.055 10.91 2.466 3.561 7.35 4.52 10.911 2.055l28.657-21.9c.41-.274.502-.822.228-1.233L33.815 5.811c-.228-.411-.776-.502-1.187-.228z"/>
        <path fill="#CAD9FF" d="M33.453 19.287l-.985-1.308 1.306-.984.985 1.308-1.306.984zm-1.666 1.102c-.258.058-.52.023-.756-.101-.164-.086-.234-.153-.43-.414l-.235-.31 1.274-.96.961 1.275-.31.234c-.244.182-.354.242-.504.276zm3.296-3.38l-.481-.637 1.314-.99.219.322c.252.373.314.565.278.871-.041.354-.176.564-.54.838l-.31.234-.48-.638zm-5.342 1.725l-.985-1.308 1.305-.984.986 1.308-1.306.984zm.803-3.308l-1.3-1.724 1.385-1.029c1.333-.99 1.392-1.03 1.582-1.07.251-.054.475-.029.676.038.201.067.3.17.3.17l1.05 1.372 1.049 1.373-3.443 2.594-1.299-1.724zm-2.675.876c-.254-.372-.323-.609-.274-.929.05-.325.174-.516.515-.8l.303-.252.992 1.316-1.315.99-.221-.325z"/>
        <circle cx="8.533" cy="33.867" r="4.656" fill="#CAD9FF" fill-rule="nonzero" transform="rotate(-34.237 8.533 33.867)"/>
    </g>
</svg>
