<svg xmlns="http://www.w3.org/2000/svg" width="42" height="42" viewBox="0 0 42 42">
    <g fill="none" fill-rule="nonzero">
        <path fill="#1F5AF6" d="M21.894 41.289a32.571 32.571 0 0 0 2.51-1.44 42.245 42.245 0 0 0 5.413-4C34.896 31.405 38 26.36 38 20.75V7.625a2 2 0 0 0-1.298-1.873l-15-5.625a2 2 0 0 0-1.404 0l-15 5.625A2 2 0 0 0 4 7.625V20.75c0 5.61 3.104 10.655 8.183 15.099a42.245 42.245 0 0 0 5.413 4 32.571 32.571 0 0 0 2.51 1.44 2 2 0 0 0 1.788 0z"/>
        <path fill="#EEF5FE" d="M19.716 36.456a38.295 38.295 0 0 1-4.899-3.617C10.521 29.079 8 24.983 8 20.75V9.011l13-4.875 13 4.875V20.75c0 4.233-2.521 8.33-6.817 12.089a38.295 38.295 0 0 1-4.9 3.617 36.68 36.68 0 0 1-1.283.768 36.68 36.68 0 0 1-1.284-.768z"/>
        <path fill="#FFF" d="M19.716 36.456a38.295 38.295 0 0 1-4.899-3.617C10.521 29.079 8 24.983 8 20.75V9.011l13-4.875v33.088c-.551-.321-.98-.577-1.284-.768z"/>
    </g>
</svg>
