<svg xmlns="http://www.w3.org/2000/svg" width="42" height="42" viewBox="0 0 42 42">
    <g fill="none" fill-rule="evenodd">
        <path fill="#FFF" fill-rule="nonzero" d="M1 4.742a4.762 4.762 0 0 0 4.764 4.762h30.622a3.855 3.855 0 0 1 3.856 3.854v20.818a3.855 3.855 0 0 1-3.856 3.854H4.856A3.855 3.855 0 0 1 1 34.176V4.742z"/>
        <path fill="#EEF5FE" fill-rule="nonzero" d="M0 5.742a4.762 4.762 0 0 0 4.764 4.762h30.622a3.855 3.855 0 0 1 3.856 3.854v20.818a3.855 3.855 0 0 1-3.856 3.854H3.856A3.855 3.855 0 0 1 0 35.176V5.742z"/>
        <path fill="#1F5AF6" fill-rule="nonzero" d="M5.423 2.5h28.695c3.382 0 6.124 2.732 6.124 6.103v5.685-.34a4.415 4.415 0 0 0-4.423-4.407H5.423C2.98 9.541 1 8.568 1 6.134 1 3.699 2.98 2.5 5.423 2.5zM23.832 19h13.32c2.62 0 4.742 2.137 4.742 4.773 0 2.636-2.123 4.772-4.741 4.772h-13.32c-2.62 0-4.742-2.136-4.742-4.772S21.214 19 23.832 19zm.677 2.273a2.492 2.492 0 0 0-2.483 2.5c0 1.38 1.112 2.5 2.483 2.5a2.492 2.492 0 0 0 2.484-2.5c0-1.381-1.112-2.5-2.484-2.5z"/>
        <path fill="#FFF" d="M24.51 21.273a2.492 2.492 0 0 0-2.484 2.5c0 1.38 1.112 2.5 2.483 2.5a2.492 2.492 0 0 0 2.484-2.5c0-1.381-1.112-2.5-2.484-2.5z"/>
    </g>
</svg>
