<svg xmlns="http://www.w3.org/2000/svg" width="30" height="30" viewBox="0 0 30 30">
  <path fill="#00AEF9" d="M15.0009404,4.80000805 C12.0186027,4.80000805 9.60094039,7.2176704 9.60094039,10.2000081 C9.60094039,13.1823457 12.0186027,15.6000081 15.0009404,15.6000081 C17.983278,15.6000081 20.4009404,13.1823457 20.4009404,10.2000081 C20.4009404,7.2176704 17.983278,4.80000805 15.0009404,4.80000805 Z M15.0009404,14.4000081 C12.6813444,14.4000081 10.8009404,12.519604 10.8009404,10.2000081 C10.8009404,7.8804121 12.6813444,6.00000805 15.0009404,6.00000805 C17.3205363,6.00000805 19.2009404,7.8804121 19.2009404,10.2000081 C19.1982952,12.5185074 17.3194398,14.3973629 15.0009404,14.4000081 L15.0009404,14.4000081 Z M15.0009404,8.05108552e-06 C8.54641734,-0.00587166973 2.81321914,4.12157515 0.77093429,10.2444809 C-1.27135056,16.3673867 0.836131145,23.110079 6.00178039,26.9800881 L6.00178039,26.9800881 C11.3256026,31.0062662 18.6759182,31.0062662 23.9997404,26.9800881 L23.9997404,26.9800881 C24.3997404,26.6792081 24.7834604,26.3596881 25.1509004,26.0215281 L25.1509004,26.0215281 C29.7028751,21.8418699 31.2220073,15.296411 28.9763026,9.53908294 C26.7305979,3.78175485 21.1807442,-0.00637377813 15.0009404,8.05108552e-06 Z M15.0009404,28.8000081 C11.7530075,28.8016009 8.60964627,27.6518852 6.12922039,25.5550881 C6.83155887,21.2006494 10.5902844,17.9996 15.0010004,17.9996 C19.4117164,17.9996 23.1704419,21.2006494 23.8727804,25.5550881 C21.392323,27.6519118 18.2489146,28.8016292 15.0009404,28.8000081 Z M24.9009404,24.5926881 C23.7968421,20.020166 19.704874,16.7986591 15.0009404,16.7986591 C10.2970068,16.7986591 6.20503869,20.020166 5.10094039,24.5926881 C-0.172115911,19.1627969 -0.0874817207,10.4988636 5.29064267,5.17301916 C10.6687671,-0.152825273 19.3331137,-0.152825273 24.7112381,5.17301916 C30.0893625,10.4988636 30.1739967,19.1627969 24.9009404,24.5926881 L24.9009404,24.5926881 Z"/>
</svg>
