<svg xmlns="http://www.w3.org/2000/svg" width="30" height="30" viewBox="0 0 30 30">
  <g fill="none" fill-rule="evenodd">
    <path fill="#F37962" fill-rule="nonzero" d="M8.75,15 C8.75,18.44625 11.55375,21.25 15,21.25 C18.44625,21.25 21.25,18.44625 21.25,15 C21.25,11.55375 18.44625,8.75 15,8.75 C11.55375,8.75 8.75,11.55375 8.75,15 Z M20,15 C20,17.7575 17.7575,20 15,20 C12.2425,20 10,17.7575 10,15 C10,12.2425 12.2425,10 15,10 C17.7575,10 20,12.2425 20,15 Z M23.75,10.625 C23.75,10.97 24.03,11.25 24.375,11.25 L29.375,11.25 C29.72,11.25 30,10.97 30,10.625 L30,5.6775 C30,5.3325 29.72,5.0525 29.375,5.0525 C29.03,5.0525 28.75,5.3325 28.75,5.6775 L28.75,9.365 C25.41875,3.2375 20.685,0 15,0 C6.72875,0 0,6.72875 0,15 C0,23.27125 6.72875,30 15,30 C23.27125,30 30,23.27125 30,15 C30,14.655 29.72,14.375 29.375,14.375 C29.03,14.375 28.75,14.655 28.75,15 C28.75,22.58125 22.58125,28.75 15,28.75 C7.41875,28.75 1.25,22.58125 1.25,15 C1.25,7.41875 7.41875,1.25 15,1.25 C21.4575,1.25 25.41125,5.8225 27.67875,10 L24.375,10 C24.03,10 23.75,10.28 23.75,10.625 Z"/>
  </g>
</svg>
