<svg xmlns="http://www.w3.org/2000/svg" width="30" height="30" viewBox="0 0 30 30">
  <path fill="#AB7DF6" d="M15,0 C6.71572875,-5.07265313e-16 1.01453063e-15,6.71572875 0,15 C-1.01453063e-15,23.2842712 6.71572875,30 15,30 C23.2842712,30 30,23.2842712 30,15 C30,11.0217527 28.4196474,7.20644396 25.6066017,4.39339828 C22.793556,1.58035261 18.9782473,2.43597394e-16 15,0 Z M15,28.8 C7.37847045,28.8 1.2,22.6215295 1.2,15 C1.2,7.37847045 7.37847045,1.2 15,1.2 C22.6215295,1.2 28.8,7.37847045 28.8,15 C28.7914689,22.6179931 22.6179931,28.7914689 15,28.8 Z M19.2,18.6 C19.2,18.9313708 18.9313708,19.2 18.6,19.2 L6.8484,19.2 L9.4242,21.7758 C9.58017395,21.9264447 9.64272756,22.1495267 9.58781829,22.3593044 C9.53290903,22.5690821 9.36908205,22.732909 9.15930439,22.7878183 C8.94952674,22.8427276 8.72644468,22.780174 8.5758,22.6242 L4.9758,19.0242 C4.74157084,18.7899001 4.74157084,18.4100999 4.9758,18.1758 L8.5758,14.5758 C8.81122733,14.3484167 9.18545087,14.3516686 9.41689115,14.5831089 C9.64833142,14.8145491 9.65158333,15.1887727 9.4242,15.4242 L6.8484,18 L18.6,18 C18.9313708,18 19.2,18.2686292 19.2,18.6 Z M25.2,11.4 C25.2001777,11.559159 25.136909,11.7118243 25.0242,11.8242 L21.4242,15.4242 C21.1887727,15.6515833 20.8145491,15.6483314 20.5831089,15.4168911 C20.3516686,15.1854509 20.3484167,14.8112273 20.5758,14.5758 L23.1516,12 L11.4,12 C11.0686292,12 10.8,11.7313708 10.8,11.4 C10.8,11.0686292 11.0686292,10.8 11.4,10.8 L23.1516,10.8 L20.5758,8.2242 C20.3484167,7.98877267 20.3516686,7.61454913 20.5831089,7.38310885 C20.8145491,7.15166858 21.1887727,7.14841667 21.4242,7.3758 L25.0242,10.9758 C25.136909,11.0881757 25.2001777,11.240841 25.2,11.4 Z"/>
</svg>
