<svg xmlns="http://www.w3.org/2000/svg" width="25" height="19" viewBox="0 0 25 19">
  <g fill="#7995B9">
    <path d="M23.5,3 L23,3 L23,16 C23,16.5522847 22.5522847,17 22,17 L3,17 L3,17.5 C3.00088186,18.3280616 3.67193843,18.9991181 4.5,19 L23.5,19 C24.3280616,18.9991181 24.9991181,18.3280616 25,17.5 L25,4.5 C24.9991181,3.67193843 24.3280616,3.00088186 23.5,3 Z"/>
    <path d="M22,14.5 L22,1.5 C21.9991181,0.671938427 21.3280616,0.00088185546 20.5,0 L1.5,0 C0.671938427,0.00088185546 0.00088185546,0.671938427 0,1.5 L0,14.5 C0.00088185546,15.3280616 0.671938427,15.9991181 1.5,16 L20.5,16 C21.3280616,15.9991181 21.9991181,15.3280616 22,14.5 Z M4.5,14 L2.5,14 C2.22385763,14 2,13.7761424 2,13.5 C2,13.2238576 2.22385763,13 2.5,13 L4.5,13 C4.77614237,13 5,13.2238576 5,13.5 C5,13.7761424 4.77614237,14 4.5,14 Z M11,12 C9.3457,12 8,10.2056 8,8 C8,5.7944 9.3457,4 11,4 C12.6543,4 14,5.7944 14,8 C14,10.2056 12.6543,12 11,12 Z M19.5,3 L17.5,3 C17.2238576,3 17,2.77614237 17,2.5 C17,2.22385763 17.2238576,2 17.5,2 L19.5,2 C19.7761424,2 20,2.22385763 20,2.5 C20,2.77614237 19.7761424,3 19.5,3 Z"/>
  </g>
</svg>
