<svg xmlns="http://www.w3.org/2000/svg" width="24" height="16" viewBox="0 0 24 16">
  <g fill="#7995B9">
    <path d="M23.5 6L.5 6C.2 6 0 6.2 0 6.5L0 13.5C0 14.9 1.1 16 2.5 16L21.5 16C22.9 16 24 14.9 24 13.5L24 6.5C24 6.2 23.8 6 23.5 6zM3.5 10L7.5 10C7.8 10 8 10.2 8 10.5 8 10.8 7.8 11 7.5 11L3.5 11C3.2 11 3 10.8 3 10.5 3 10.2 3.2 10 3.5 10zM10.5 13L3.5 13C3.2 13 3 12.8 3 12.5 3 12.2 3.2 12 3.5 12L10.5 12C10.8 12 11 12.2 11 12.5 11 12.8 10.8 13 10.5 13zM19 13C18.6 13 18.3 12.9 18 12.7 17.7 12.9 17.4 13 17 13 15.9 13 15 12.1 15 11 15 9.9 15.9 9 17 9 17.4 9 17.7 9.1 18 9.3 18.3 9.1 18.6 9 19 9 20.1 9 21 9.9 21 11 21 12.1 20.1 13 19 13zM21.5 0L2.5 0C1.1 0 0 1.1 0 2.5L0 3.5C0 3.8.2 4 .5 4L23.5 4C23.8 4 24 3.8 24 3.5L24 2.5C24 1.1 22.9 0 21.5 0z"/>
  </g>
</svg>
