<svg xmlns="http://www.w3.org/2000/svg" width="22" height="22" viewBox="0 0 22 22">
  <path fill="#7995B9" d="M11,0 C4.92486775,-3.71994563e-16 7.43989126e-16,4.92486775 0,11 C-7.43989126e-16,17.0751322 4.92486775,22 11,22 C17.0751322,22 22,17.0751322 22,11 C22,8.08261861 20.8410748,5.28472557 18.7781746,3.22182541 C16.7152744,1.15892524 13.9173814,1.78638089e-16 11,0 Z M15.64,14.08 L7.02216,14.08 L8.91108,15.96892 C9.0254609,16.0793928 9.07133354,16.2429863 9.03106675,16.3968232 C8.99079996,16.5506602 8.87066017,16.6708 8.71682322,16.7110667 C8.56298627,16.7513335 8.39939277,16.7054609 8.28892,16.59108 L5.64892,13.95108 C5.47715195,13.7792601 5.47715195,13.5007399 5.64892,13.32892 L8.28892,10.68892 C8.46156671,10.5221722 8.7359973,10.524557 8.90572017,10.6942798 C9.07544304,10.8640027 9.07782777,11.1384333 8.91108,11.31108 L7.02216,13.2 L15.64,13.2 C15.8830053,13.2 16.08,13.3969947 16.08,13.64 C16.08,13.8830053 15.8830053,14.08 15.64,14.08 Z M16.35108,8.67108 L13.71108,11.31108 C13.5384333,11.4778278 13.2640027,11.475443 13.0942798,11.3057202 C12.924557,11.1359973 12.9221722,10.8615667 13.08892,10.68892 L14.97784,8.8 L6.36,8.8 C6.11699471,8.8 5.92,8.60300529 5.92,8.36 C5.92,8.11699471 6.11699471,7.92 6.36,7.92 L14.97784,7.92 L13.08892,6.03108 C12.9221722,5.85843329 12.924557,5.5840027 13.0942798,5.41427983 C13.2640027,5.24455696 13.5384333,5.24217223 13.71108,5.40892 L16.35108,8.04892 C16.5228481,8.22073993 16.5228481,8.49926007 16.35108,8.67108 L16.35108,8.67108 Z" transform="rotate(-90 11 11)"/>
</svg>
