<svg xmlns="http://www.w3.org/2000/svg" width="22" height="22" viewBox="0 0 22 22">
  <path fill="#0065D7" d="M11,0 C4.92486775,-3.71994563e-16 7.43989126e-16,4.92486775 0,11 C-7.43989126e-16,17.0751322 4.92486775,22 11,22 C17.0751322,22 22,17.0751322 22,11 C22,8.08261861 20.8410748,5.28472557 18.7781746,3.22182541 C16.7152744,1.15892524 13.9173814,1.78638089e-16 11,0 Z M13.64,14.08 L5.02216,14.08 L6.91108,15.96892 C7.0254609,16.0793928 7.07133354,16.2429863 7.03106675,16.3968232 C6.99079996,16.5506602 6.87066017,16.6708 6.71682322,16.7110667 C6.56298627,16.7513335 6.39939277,16.7054609 6.28892,16.59108 L3.64892,13.95108 C3.47715195,13.7792601 3.47715195,13.5007399 3.64892,13.32892 L6.28892,10.68892 C6.46156671,10.5221722 6.7359973,10.524557 6.90572017,10.6942798 C7.07544304,10.8640027 7.07782777,11.1384333 6.91108,11.31108 L5.02216,13.2 L13.64,13.2 C13.8830053,13.2 14.08,13.3969947 14.08,13.64 C14.08,13.8830053 13.8830053,14.08 13.64,14.08 Z M18.35108,8.67108 L15.71108,11.31108 C15.5384333,11.4778278 15.2640027,11.475443 15.0942798,11.3057202 C14.924557,11.1359973 14.9221722,10.8615667 15.08892,10.68892 L16.97784,8.8 L8.36,8.8 C8.11699471,8.8 7.92,8.60300529 7.92,8.36 C7.92,8.11699471 8.11699471,7.92 8.36,7.92 L16.97784,7.92 L15.08892,6.03108 C14.9221722,5.85843329 14.924557,5.5840027 15.0942798,5.41427983 C15.2640027,5.24455696 15.5384333,5.24217223 15.71108,5.40892 L18.35108,8.04892 C18.5228481,8.22073993 18.5228481,8.49926007 18.35108,8.67108 L18.35108,8.67108 Z"/>
</svg>
