<svg xmlns="http://www.w3.org/2000/svg" width="24" height="24" viewBox="0 0 24 24">
    <g fill="none" fill-rule="evenodd">
        <path fill="#CAD9FF" d="M19.373 16.162c.5.215.708.632.8 1.114.1.514.254.995.642 1.37.052.05.09.117.13.179.478.727.369 1.24-.38 1.674-.335.195-.69.357-1.036.53a4.35 4.35 0 0 0-1.366 1.044c-.492.566-1.094.973-1.852 1.114-.906.17-1.703-.226-2.09-1.073-.083-.182-.177-.236-.372-.247a16.61 16.61 0 0 1-1.438-.147c-.84-.124-1.647.082-2.465.202-.324.048-.55.154-.764.43-.422.543-1.062.682-1.706.597-.523-.07-1.06-.201-1.533-.425-.69-.324-1.405-.473-2.148-.554a8.248 8.248 0 0 1-.84-.127c-.745-.161-1.099-.645-.9-1.377a4.507 4.507 0 0 0 .108-1.793c-.111-.879.155-1.291 1.028-1.539.698-.198.964-.803 1.391-1.26.033-.036.027-.12.022-.18-.122-1.194.234-2.282.734-3.335.549-1.154 1.283-2.187 2.08-3.18.866-1.08 1.217-2.323 1.129-3.699-.066-1.036-.154-2.073.095-3.101C8.967 1.032 9.893.177 11.27.047c.587-.056 1.204-.08 1.776.035 1.337.268 1.97 1.248 2.27 2.495.234.978.264 1.976.22 2.973-.042.961.18 1.83.759 2.6.416.554.873 1.077 1.263 1.649.49.718.987 1.44 1.375 2.214.645 1.287.891 2.572.44 4.15z"/>
        <path fill="#1F5AF6" fill-rule="nonzero" d="M19.373 16.162c.5.215.708.632.8 1.114.1.514.254.995.642 1.37.052.05.09.117.13.179.478.727.369 1.24-.38 1.674-.335.195-.69.357-1.036.53a4.35 4.35 0 0 0-1.366 1.044c-.492.566-1.094.973-1.852 1.114-.906.17-1.703-.226-2.09-1.073-.083-.182-.177-.236-.372-.247a16.61 16.61 0 0 1-1.438-.147c-.84-.124-1.647.082-2.465.202-.324.048-.55.154-.764.43-.422.543-1.062.682-1.706.597-.523-.07-1.06-.201-1.533-.425-.69-.324-1.405-.473-2.148-.554a8.248 8.248 0 0 1-.84-.127c-.745-.161-1.099-.645-.9-1.377a4.507 4.507 0 0 0 .108-1.793c-.111-.879.155-1.291 1.028-1.539.698-.198.964-.803 1.391-1.26.033-.036.027-.12.022-.18-.122-1.194.234-2.282.734-3.335.549-1.154 1.283-2.187 2.08-3.18.866-1.08 1.217-2.323 1.129-3.699-.066-1.036-.154-2.073.095-3.101C8.967 1.032 9.893.177 11.27.047c.587-.056 1.204-.08 1.776.035 1.337.268 1.97 1.248 2.27 2.495.234.978.264 1.976.22 2.973-.042.961.18 1.83.759 2.6.416.554.873 1.077 1.263 1.649.49.718.987 1.44 1.375 2.214.645 1.287.891 2.572.44 4.15zM8.775 19.07c.337.567.722 1.025 1.36 1.244 1.422.49 2.717.194 3.945-.572.137-.085.279-.258.306-.408.13-.73.223-1.468.327-2.205.098-.692.239-1.358.947-1.718.061-.032.091-.144.115-.224.13-.425.34-.63.768-.563.854.133 1.703.324 1.995 1.366.175-.29.086-.54-.096-.726-.208-.213-.45-.418-.715-.543-.337-.157-.457-.311-.426-.729.106-1.426-.559-2.56-1.51-3.556-.021-.02-.058-.027-.088-.039.968 1.145 1.608 2.363 1.156 3.913-.508-.038-.515-.037-.56-.259-.19-.925-.568-1.777-.983-2.619-.344-.704-.65-1.43-.937-2.158-.252-.638-.454-1.3-.672-1.933-.239.157-.462.324-.703.462-.305.174-.628.314-.933.488-.772.438-1.4.38-2.074-.201-.185-.16-.39-.297-.629-.475-.115 1.222-.526 2.276-.986 3.315-.208.47-.42.938-.637 1.402-.412.88-.633 1.809-.718 2.843-.37-.536-.474-1.066-.437-1.63.046-.728.31-1.387.647-2.024.128-.242.24-.49.361-.737-.023-.01-.047-.02-.07-.032-.534.843-1.016 1.712-1.21 2.704-.252 1.291.177 2.141 1.3 2.808.706.417 1.35.928 1.73 1.688.305.607.108.985-.573 1.118zM7.29 22.23c.653-.049 1.12-.136 1.388-.614.268-.476.18-.939-.108-1.373-.181-.274-.393-.53-.575-.806a85.31 85.31 0 0 1-1.008-1.564c-.239-.38-.433-.79-.702-1.144-.4-.526-1.093-.766-1.62.056-.287.448-.666.73-1.177.885-.531.16-.676.475-.632 1.034.033.424.096.874-.006 1.274-.236.923-.079 1.218.868 1.315.86.09 1.698.226 2.487.63.373.19.82.236 1.085.307zm8.732-6.003c-.127.16-.287.296-.356.47-.109.27-.198.563-.221.85-.075.895-.161 1.783-.465 2.635a3.473 3.473 0 0 0-.13.538c-.104.557-.05 1.076.424 1.461.467.383 1.002.395 1.512.148.375-.18.755-.416 1.034-.718.495-.537 1.071-.926 1.723-1.23.25-.116.497-.248.724-.402.263-.178.314-.389.174-.676a2.29 2.29 0 0 0-.346-.53c-.247-.27-.374-.587-.45-.934a3.21 3.21 0 0 0-.19-.635c-.214-.48-.836-.587-1.26-.278-.269.197-.582.355-.9.461-.402.137-.756-.022-.965-.391-.124-.22-.192-.471-.308-.77zm-4.864-8.114c.12-.031.334-.052.516-.14.474-.223.936-.472 1.399-.717.086-.046.165-.11.24-.175.497-.442.417-.934-.19-1.202-.434-.19-.866-.384-1.295-.585-.565-.262-1.112-.277-1.625.116-.33.252-.654.515-.976.779-.193.155-.238.354-.14.585.156.365 1.404 1.276 1.807 1.317.058.008.117.01.264.022zm1.67-2.608c.115.05.204.08.283.127.261.156.437.051.485-.207.07-.386.165-.789.115-1.168-.083-.633-.557-1.064-1.052-1.09-.594-.029-1.09.463-1.197 1.185-.083.555-.068.576.473.703.058-.231.08-.48.188-.685.07-.133.266-.28.4-.276.135.003.317.163.386.3.181.362.12.733-.081 1.111zm3.63 10.335c.018.31.084.65.42.809.32.152.608-.018.868-.208.064-.047.124-.104.175-.165.185-.212.183-.467-.05-.627a2.878 2.878 0 0 0-.71-.36c-.47-.157-.707.03-.704.55zM10.19 5.146c.155-.123.396-.22.41-.343.052-.46-.067-.898-.424-1.23-.312-.289-.684-.244-.954.094-.435.541-.364 1.585.151 2.093l.274-.205c-.255-.28-.306-.603-.23-.928.032-.138.187-.245.286-.366.112.095.263.17.326.292.084.16.101.356.161.593z"/>
    </g>
</svg>
