<svg xmlns="http://www.w3.org/2000/svg" width="152" height="32" viewBox="0 0 152 32">
    <g fill="none" fill-rule="evenodd">
        <path fill="none" d="M0 0h152v32H0z"/>
        <path fill="#FFF" fill-rule="nonzero" d="M114.38 9.287c5.124 0 8.718 1.859 8.718 8.012 0 6.175-3.594 8.034-8.718 8.034h-3.903V9.287h3.903zm-.044 1.35h-2.373v13.346h2.373c3.66 0 7.187-.752 7.187-6.684s-3.527-6.662-7.187-6.662zm11.556-1.35h10.315v1.372h-8.829v5.666h8.296v1.394h-8.296v6.242h8.829v1.372h-10.315V9.287zm17.28 7.79l-5.546-7.79h1.841l4.636 6.485 4.702-6.485h1.775l-5.59 7.724 5.967 8.322h-1.863l-5.035-7.016-5.08 7.016h-1.774l5.966-8.255z"/>
        <path fill="none" d="M1.672 4.267h103.155V25.6H1.672z"/>
        <path fill="#05F" d="M104.818 9.708l-5.377 5.364-5.376-5.364 5.376-5.363z"/>
        <path fill="#FFF" fill-rule="nonzero" d="M86.939 16.168c-3.267-.711-1.703-.356-3.109-.672-1.287-.296-1.94-.671-1.94-1.58 0-.968.93-1.778 2.93-1.778 1.96 0 3.05.87 3.05 1.64 0 .197.111.296.336.296h2.851c.145 0 .218-.092.218-.276 0-2.035-1.762-4.465-6.376-4.465-4.81 0-6.316 2.825-6.316 4.642 0 1.521.555 3.319 4.237 4.168l3.168.711c1.604.356 2.277.909 2.277 1.837 0 .85-.851 1.877-3.069 1.877-2.059 0-3.306-.988-3.366-2.153 0-.198-.118-.296-.356-.296h-2.91c-.058 0-.218 0-.218.296.257 2.607 2.198 5.057 6.83 5.057 5.247 0 6.317-3.2 6.317-4.88 0-2.251-1.287-3.713-4.554-4.424zM75.95 18.262c.18 0 .28-.092.297-.276v-.455c0-2.43-.693-4.524-2.06-5.985-1.365-1.462-3.207-2.213-5.464-2.213-2.178 0-4 .81-5.405 2.39-1.406 1.58-2.099 3.497-2.099 5.67 0 2.31.733 4.247 2.178 5.767 1.446 1.521 3.346 2.292 5.643 2.292 1.663 0 3.089-.395 4.237-1.205 1.148-.79 2.356-2.094 2.772-3.872.013-.197-.06-.296-.218-.296h-2.85c-.162 0-.294.099-.397.296-.713 1.423-1.802 2.094-3.603 2.094-1.169 0-2.218-.415-3.09-1.225-.83-.77-1.306-1.698-1.425-3.022l11.484.04zm-11.286-2.766c.495-1.837 2.04-3.2 4.06-3.2 2.672 0 3.78 1.897 4.098 3.2h-8.158zM60.496 9.333h-3.049c-.141.012-.253.107-.336.285l-4.287 11.715-4.227-11.715c-.069-.19-.18-.285-.337-.285h-3.108c-.189 0-.255.095-.198.285l6.078 15.41c.054.204.173.305.357.305H54.2c.145 0 .264-.101.357-.304l6.137-15.411c.057-.184-.01-.279-.198-.285zM39.44 9.65v1.817c0 .079-.052.07-.06.059-.396-.514-.93-.968-1.564-1.343a9.606 9.606 0 0 0-.455-.237c-.851-.415-1.822-.613-2.871-.613-1.96 0-3.683.79-5.108 2.331-1.426 1.54-2.139 3.477-2.139 5.748 0 2.272.713 4.208 2.139 5.748 1.425 1.541 3.148 2.331 5.108 2.331 1.05 0 2-.197 2.851-.612.158-.079.337-.158.495-.257.614-.375 1.129-.79 1.525-1.284.02-.02.086-.054.099 0v1.6c-.014.198.085.297.297.297h2.593c.198 0 .297-.1.297-.297V9.63c0-.198-.099-.297-.297-.297h-2.613c-.198 0-.297.106-.297.316zm-1.307 11.476c-.871.928-1.42 1.265-2.92 1.383-1.501.118-2.94-.455-3.831-1.403-.891-.928-1.327-2.173-1.327-3.733 0-1.54.455-2.785 1.327-3.733.89-.929 2.316-1.403 3.563-1.403 1.248 0 2.297.454 3.188 1.383.574.612.95 1.343 1.168 2.232.218.889.198 2.074 0 3.002-.198.929-.594 1.68-1.168 2.272zM25.956 9.333h-3.029c-.167 0-.272.095-.317.285L19.515 21.6 15.997 9.618c-.05-.19-.155-.285-.317-.285h-3.167c-.146 0-.252.095-.317.285L8.512 21.6 5.543 9.618c-.04-.19-.145-.285-.317-.285H2.138c-.162 0-.228.095-.198.285l4.85 15.41c.048.204.16.305.337.305h3.05c.16 0 .272-.101.336-.304L14.05 13.8l3.492 11.228c.047.203.16.304.336.304h3.089c.146 0 .258-.101.337-.304l4.85-15.411c.043-.19-.023-.285-.198-.285z"/>
    </g>
</svg>
