<svg xmlns="http://www.w3.org/2000/svg" xmlns:xlink="http://www.w3.org/1999/xlink" width="132" height="112" viewBox="0 0 132 112">
  <defs>
    <polygon id="2_wallet-a" points="32.011 14.667 110.234 14.667 110.234 92.889 95.084 108.038 32.011 92.889"/>
    <rect id="2_wallet-b" width="78.222" height="78.222" x="27.47" y="16.885"/>
    <rect id="2_wallet-c" width="78.222" height="78.222" x="16.877" y="16.885"/>
    <rect id="2_wallet-d" width="19.556" height="19.556" x="65.838" y="25.105"/>
  </defs>
  <g fill="none" fill-rule="evenodd">
    <g transform="rotate(45 71.123 61.353)">
      <use fill="#2D2D2D" xlink:href="#2_wallet-a"/>
      <path stroke="#5A81EA" stroke-width="3" d="M33.5114204,16.1666667 L33.5114204,91.7065144 L94.6175072,106.383704 L108.733643,92.2675685 L108.733643,16.1666667 L33.5114204,16.1666667 Z"/>
    </g>
    <g transform="rotate(45 66.581 55.996)">
      <use fill="#2D2D2D" xlink:href="#2_wallet-b"/>
      <rect width="75.222" height="75.222" x="28.97" y="18.385" stroke="#5A81EA" stroke-width="3"/>
    </g>
    <g transform="rotate(45 55.989 55.996)">
      <use fill="#2D2D2D" xlink:href="#2_wallet-c"/>
      <rect width="75.222" height="75.222" x="18.377" y="18.385" stroke="#5A81EA" stroke-width="3"/>
    </g>
    <g transform="rotate(45 75.616 34.883)">
      <use fill="#2D2D2D" xlink:href="#2_wallet-d"/>
      <rect width="16.556" height="16.556" x="67.338" y="26.605" stroke="#5A81EA" stroke-width="3"/>
    </g>
  </g>
</svg>
