<?xml version="1.0" encoding="UTF-8"?>
<svg xmlns:xlink="http://www.w3.org/1999/xlink" width="132px" height="112px" viewBox="0 0 132 112" version="1.1"
     xmlns="http://www.w3.org/2000/svg">
    <!-- Generator: Sketch 48 (47235) - http://www.bohemiancoding.com/sketch -->
    <title>Group</title>
    <desc>Created with Sketch.</desc>
    <defs>
        <rect id="path-1" x="36.8774685" y="16.8852666" width="78.2222222" height="78.2222222"></rect>
        <rect id="path-2" x="26.8774685" y="16.8852666" width="78.2222222" height="78.2222222"></rect>
        <rect id="path-3" x="17" y="17" width="78.2222222" height="78.2222222"></rect>
    </defs>
    <g id="Welcome_step_2_4" stroke="none" stroke-width="1" fill="none" fill-rule="evenodd"
       transform="translate(-654.000000, -140.000000)">
        <g id="Group" transform="translate(654.000000, 140.000000)">
            <g id="Rectangle-Copy-5"
               transform="translate(75.988580, 55.996378) rotate(45.000000) translate(-75.988580, -55.996378) ">
                <use fill="#2D2D2D" fill-rule="evenodd" xlink:href="#path-1"></use>
                <rect stroke="#5A81EA" stroke-width="3" x="38.3774685" y="18.3852666" width="75.2222222"
                      height="75.2222222"></rect>
            </g>
            <g id="Rectangle-Copy-4"
               transform="translate(65.988580, 55.996378) rotate(45.000000) translate(-65.988580, -55.996378) ">
                <use fill="#2D2D2D" fill-rule="evenodd" xlink:href="#path-2"></use>
                <rect stroke="#5A81EA" stroke-width="3" x="28.3774685" y="18.3852666" width="75.2222222"
                      height="75.2222222"></rect>
            </g>
            <g id="Rectangle"
               transform="translate(56.111111, 56.111111) rotate(45.000000) translate(-56.111111, -56.111111) ">
                <use fill="#2D2D2D" fill-rule="evenodd" xlink:href="#path-3"></use>
                <rect stroke="#5A81EA" stroke-width="3" x="18.5" y="18.5" width="75.2222222" height="75.2222222"></rect>
            </g>
            <rect id="Rectangle-3-Copy-6" fill="#5A81EA"
                  transform="translate(62.828427, 36.828427) rotate(45.000000) translate(-62.828427, -36.828427) "
                  x="60.8284271" y="34.8284271" width="4" height="4"></rect>
            <rect id="Rectangle-3-Copy-7" fill="#5A81EA"
                  transform="translate(68.828427, 42.828427) rotate(45.000000) translate(-68.828427, -42.828427) "
                  x="66.8284271" y="40.8284271" width="4" height="4"></rect>
            <rect id="Rectangle-3-Copy-8" fill="#5A81EA"
                  transform="translate(74.828427, 48.828427) rotate(45.000000) translate(-74.828427, -48.828427) "
                  x="72.8284271" y="46.8284271" width="4" height="4"></rect>
            <rect id="Rectangle-3-Copy-9" fill="#5A81EA"
                  transform="translate(62.828427, 48.828427) rotate(45.000000) translate(-62.828427, -48.828427) "
                  x="60.8284271" y="46.8284271" width="4" height="4"></rect>
            <rect id="Rectangle-3-Copy-10" fill="#5A81EA"
                  transform="translate(68.828427, 54.828427) rotate(45.000000) translate(-68.828427, -54.828427) "
                  x="66.8284271" y="52.8284271" width="4" height="4"></rect>
            <rect id="Rectangle-3-Copy-11" fill="#5A81EA"
                  transform="translate(41.828427, 69.828427) rotate(45.000000) translate(-41.828427, -69.828427) "
                  x="39.8284271" y="67.8284271" width="4" height="4"></rect>
            <rect id="Rectangle-3-Copy-12" fill="#5A81EA"
                  transform="translate(47.828427, 75.828427) rotate(45.000000) translate(-47.828427, -75.828427) "
                  x="45.8284271" y="73.8284271" width="4" height="4"></rect>
        </g>
    </g>
</svg>
