<svg xmlns="http://www.w3.org/2000/svg" width="172" height="121" viewBox="0 0 172 121">
  <g fill="none" fill-rule="evenodd">
    <polygon fill="#2D2D2D" points="115.963 .001 60.652 55.312 115.963 110.623 171.273 55.312"/>
    <path fill="#5A81EA" d="M115.9632,0.0005 L60.6522,55.3115 L115.9632,110.6225 L171.2732,55.3115 L115.9632,0.0005 Z M64.8932,55.3115 L115.9632,4.2425 L167.0322,55.3115 L115.9632,106.3805 L64.8932,55.3115 Z"/>
    <polygon fill="#2D2D2D" points="60.652 65.312 115.963 120.622 171.274 65.312 115.963 10.001"/>
    <path fill="#5A81EA" d="M60.6519 65.3117L115.9629 120.6217 171.2739 65.3117 115.9629 10.0007 60.6519 65.3117zM64.8939 65.3117L115.9629 14.2427 167.0319 65.3117 115.9629 116.3807 64.8939 65.3117zM27 51.888L47.04 51.888 47.04 48.888 27 48.888 27 51.888zM0 60.888L40.04 60.888 40.04 57.888 0 57.888 0 60.888zM37 70.889L47.04 70.889 47.04 67.889 37 67.889 37 70.889z"/>
    <path fill="#5A81EA" d="M110.0952,57.0991 L115.7522,62.7561 L121.4082,57.0991 L115.7522,51.4421 L110.0952,57.0991 Z M115.7522,66.9981 L105.8532,57.0991 L115.7522,47.2001 L125.6512,57.0991 L115.7522,66.9981 Z"/>
    <polygon fill="#2D2D2D" points="119.509 55.201 125.165 60.858 119.509 66.514 113.852 60.858"/>
    <polygon fill="#2D2D2D" points="126.509 52.686 132.165 58.343 126.509 63.999 120.852 58.343"/>
    <path fill="#5A81EA" d="M110.0952,72.6499 L115.7522,78.3069 L121.4082,72.6499 L115.7522,66.9929 L110.0952,72.6499 Z M115.7522,82.5489 L105.8532,72.6499 L115.7522,62.7509 L125.6512,72.6499 L115.7522,82.5489 Z"/>
    <polygon fill="#2D2D2D" points="110.509 61.751 116.165 67.407 110.509 73.064 104.852 67.407"/>
    <path fill="#5A81EA" d="M114.352,50.3 L117.352,50.3 L117.352,45.201 L114.352,45.201 L114.352,50.3 Z M114.352,84.299 L117.352,84.299 L117.352,79.2 L114.352,79.2 L114.352,84.299 Z"/>
  </g>
</svg>
