<svg xmlns="http://www.w3.org/2000/svg" width="16" height="16" viewBox="0 0 16 16">
  <path fill="#8c8c8c" d="M15.8122929,1.05803775 L8.86933046,8.00756952 L15.8122929,14.9571013 C16.0452859,15.198565 16.0419537,15.5823836 15.8048037,15.8197581 C15.5676537,16.0571325 15.1841979,16.0604678 14.9429624,15.8272543 L8,8.87772253 L1.05703759,15.8272543 C0.815802145,16.0604678 0.432346327,16.0571325 0.195196299,15.8197581 C-0.0419537283,15.5823836 -0.0452858558,15.198565 0.187707132,14.9571013 L7.13066954,8.00756952 L0.187707132,1.05803775 C0.0278852247,0.90353053 -0.0362116121,0.674728644 0.0200522916,0.459572278 C0.0763161952,0.244415911 0.244184866,0.0763884049 0.459137846,0.0200712649 C0.674090826,-0.0362458752 0.902676426,0.0279116094 1.05703759,0.187884738 L8,7.13741651 L14.9429624,0.187884738 C15.0973236,0.0279116094 15.3259092,-0.0362458752 15.5408622,0.0200712649 C15.7558151,0.0763884049 15.9236838,0.244415911 15.9799477,0.459572278 C16.0362116,0.674728644 15.9721148,0.90353053 15.8122929,1.05803775 Z"/>
</svg>
