<?xml version="1.0" encoding="UTF-8"?>
<svg width="24px" height="24px" viewBox="0 0 24 24" version="1.1" xmlns="http://www.w3.org/2000/svg" xmlns:xlink="http://www.w3.org/1999/xlink">
    <!-- Generator: Sketch 51.2 (57519) - http://www.bohemiancoding.com/sketch -->
    <title>Icon/close-24-disabled600</title>
    <desc>Created with Sketch.</desc>
    <defs></defs>
    <g id="Icon/close-24-disabled600" stroke="none" stroke-width="1" fill="none" fill-rule="evenodd">
        <g id="Icon/close-24-basic500">
            <rect id="Rectangle-3" fill-opacity="0" fill="#FFFFFF" x="0" y="0" width="24" height="24"></rect>
            <path d="M11.8388348,-0.161165235 L11.8388348,-0.161165235 C12.1149771,-0.161165235 12.3388348,0.0626923899 12.3388348,0.338834765 L12.3388348,23.3388348 C12.3388348,23.6149771 12.1149771,23.8388348 11.8388348,23.8388348 L11.8388348,23.8388348 C11.5626924,23.8388348 11.3388348,23.6149771 11.3388348,23.3388348 L11.3388348,0.338834765 C11.3388348,0.0626923899 11.5626924,-0.161165235 11.8388348,-0.161165235 Z" id="Line" fill="#8C8C8C" fill-rule="nonzero" transform="translate(11.838835, 11.838835) rotate(45.000000) translate(-11.838835, -11.838835) "></path>
            <path d="M11.8388348,-0.161165235 L11.8388348,-0.161165235 C12.1149771,-0.161165235 12.3388348,0.0626923899 12.3388348,0.338834765 L12.3388348,23.3388348 C12.3388348,23.6149771 12.1149771,23.8388348 11.8388348,23.8388348 L11.8388348,23.8388348 C11.5626924,23.8388348 11.3388348,23.6149771 11.3388348,23.3388348 L11.3388348,0.338834765 C11.3388348,0.0626923899 11.5626924,-0.161165235 11.8388348,-0.161165235 Z" id="Line" fill="#8C8C8C" fill-rule="nonzero" transform="translate(11.838835, 11.838835) rotate(-45.000000) translate(-11.838835, -11.838835) "></path>
        </g>
    </g>
</svg>