<svg xmlns="http://www.w3.org/2000/svg" xmlns:xlink="http://www.w3.org/1999/xlink" width="20" height="20" viewBox="0 0 20 20">
  <defs>
    <polygon id="close_history_arrow-a" points="6 9 10 13 14 9 6 9"/>
  </defs>
  <g fill="none" fill-rule="evenodd">
    <path fill="#8c8c8c" fill-rule="nonzero" d="M1,1.99079514 L1,18.0092049 C1,18.5524218 1.44650875,19 1.99079514,19 L18.0092049,19 C18.5524218,19 19,18.5534913 19,18.0092049 L19,1.99079514 C19,1.4475782 18.5534913,1 18.0092049,1 L1.99079514,1 C1.4475782,1 1,1.44650875 1,1.99079514 Z M0,1.99079514 C0,0.891309342 0.898212381,3.55271368e-15 1.99079514,3.55271368e-15 L18.0092049,3.55271368e-15 C19.1086907,3.55271368e-15 20,0.898212381 20,1.99079514 L20,18.0092049 C20,19.1086907 19.1017876,20 18.0092049,20 L1.99079514,20 C0.891309342,20 0,19.1017876 0,18.0092049 L0,1.99079514 Z"/>
    <use fill="#8c8c8c" xlink:href="#close_history_arrow-a"/>
  </g>
</svg>
