<?xml version="1.0" encoding="UTF-8"?>
<svg width="14px" height="14px" viewBox="0 0 14 14" version="1.1" xmlns="http://www.w3.org/2000/svg" xmlns:xlink="http://www.w3.org/1999/xlink">
    <!-- Generator: Sketch 55.1 (78136) - https://sketchapp.com -->
    <title>Icon/14/Contest-White</title>
    <desc>Created with Sketch.</desc>
    <g id="Icon/14/Contest-White" stroke="none" stroke-width="1" fill="none" fill-rule="evenodd">
        <g id="Icon/14/Contest-Basic700" transform="translate(1.000000, 1.000000)" fill="#FFFFFF" fill-rule="nonzero">
            <path d="M2.25060977,4.90909091 L2.08078521,4.90909091 C1.29032425,4.90909091 0.609078034,4.31014836 0.486046302,3.51278919 L0,0 L11.8949037,0 L11.8088574,0.621880095 L11.4075921,3.52143413 C11.2858257,4.31014836 10.6045795,4.90909091 9.81411854,4.90909091 L9.64429398,4.90909091 L9.62745187,5.18181818 C9.52078521,7.17272727 7.89411854,8.72727273 5.94745187,8.72727273 C4.00078521,8.72727273 2.37411854,7.17272727 2.26745187,5.18181818 L2.25060977,4.90909091 Z M2.18324135,3.81818182 L2.0148203,1.09090909 L1.22822216,1.09090909 L1.54092546,3.35129314 C1.58103939,3.61112203 1.81655229,3.81818182 2.08078521,3.81818182 L2.18324135,3.81818182 Z M9.88008345,1.09090909 L9.7116624,3.81818182 L9.81411854,3.81818182 C10.0783515,3.81818182 10.3138644,3.61112203 10.352713,3.35993809 L10.6666667,1.09090909 L9.88008345,1.09090909 Z M5.94745187,5.12727273 L6.88078521,5.61818182 C7.04078521,5.7 7.22745187,5.56363636 7.17411854,5.4 L7.01411854,4.33636364 L7.76078521,3.6 C7.89411854,3.46363636 7.81411854,3.24545455 7.65411854,3.24545455 L6.61411854,3.08181818 L6.16078521,2.12727273 C6.08078521,1.96363636 5.86745187,1.96363636 5.78745187,2.12727273 L5.33411854,3.08181818 L4.29411854,3.24545455 C4.13411854,3.27272727 4.05411854,3.49090909 4.18745187,3.6 L4.93411854,4.33636364 L4.74745187,5.4 C4.72078521,5.56363636 4.90745187,5.7 5.04078521,5.61818182 L5.94745187,5.12727273 Z" id="Path-2"></path>
            <path d="M9.14745187,10.6363636 L2.74745187,10.6363636 C2.45411854,10.6363636 2.21411854,10.8818182 2.21411854,11.1818182 L2.21411854,12 L9.68078521,12 L9.68078521,11.1818182 C9.68078521,10.8818182 9.44078521,10.6363636 9.14745187,10.6363636 Z" id="Path"></path>
            <rect id="Rectangle" x="5.14745187" y="8.18181818" width="1.6" height="3"></rect>
        </g>
    </g>
</svg>