<svg xmlns="http://www.w3.org/2000/svg" width="14" height="14" viewBox="0 0 14 14">
    <path fill="#8c8c8c" fill-rule="evenodd" d="M6.65 5.05h3.85a1.6 1.6 0 0 1 1.6 1.6v3.85a1.6 1.6 0 0 1-1.6 1.6H6.65a1.6 1.6 0 0 1-1.6-1.6V6.65a1.6 1.6 0 0 1 1.6-1.6zm0 1.2a.4.4 0 0 0-.4.4v3.85c0 .22.18.4.4.4h3.85a.4.4 0 0 0 .4-.4V6.65a.4.4 0 0 0-.4-.4H6.65zm-2.8 1.5a.6.6 0 1 1 0 1.2H3.4a1.5 1.5 0 0 1-1.5-1.5V3.4a1.5 1.5 0 0 1 1.5-1.5h4.05a1.5 1.5 0 0 1 1.5 1.5v.45a.6.6 0 1 1-1.2 0V3.4a.3.3 0 0 0-.3-.3H3.4a.3.3 0 0 0-.3.3v4.05a.3.3 0 0 0 .3.3h.45z"/>
</svg>
