<svg xmlns="http://www.w3.org/2000/svg" width="13" height="13" viewBox="0 0 13 13">
    <g fill="none" fill-rule="evenodd">
        <path fill="none" d="M0 0h13v13H0z"/>
        <path fill="#777" d="M11.607 5.351c0 .095-.053.198-.16.31L9.22 7.937l.528 3.219c.004.03.006.073.006.128 0 .09-.021.167-.064.229a.213.213 0 0 1-.187.093.48.48 0 0 1-.246-.077L6.5 10.01 3.744 11.53a.504.504 0 0 1-.246.077c-.086 0-.15-.031-.193-.093a.392.392 0 0 1-.064-.229c0-.025.004-.068.012-.128l.528-3.219L1.546 5.66c-.102-.116-.153-.219-.153-.309 0-.159.114-.257.344-.296l3.081-.47L6.2 1.657c.078-.176.178-.264.301-.264s.223.088.3.264l1.382 2.928 3.081.47c.23.039.344.137.344.296z"/>
    </g>
</svg>
