<svg xmlns="http://www.w3.org/2000/svg" width="25" height="11" viewBox="0 0 25 11">
  <path fill="#8c8c8c" d="M1.5,5.999 L23.293,5.999 L19.146,10.146 C18.951,10.341 18.951,10.658 19.146,10.853 C19.244,10.95 19.372,10.999 19.5,10.999 C19.628,10.999 19.756,10.95 19.853,10.854 L24.853,5.854 C24.867,5.84 24.872,5.822 24.884,5.808 C24.913,5.772 24.943,5.735 24.961,5.691 C24.979,5.648 24.983,5.602 24.988,5.557 C24.991,5.537 25,5.52 25,5.499 C25,5.452 24.985,5.41 24.973,5.367 C24.968,5.349 24.969,5.329 24.962,5.311 C24.936,5.246 24.897,5.189 24.847,5.141 L19.853,0.147 C19.658,-0.048 19.341,-0.048 19.146,0.147 C18.951,0.342 18.951,0.659 19.146,0.854 L23.291,4.999 L1.5,4.999 C1.224,4.999 1,5.223 1,5.499 C1,5.775 1.224,5.999 1.5,5.999 Z M23.5,4.999 L1.707,4.999 L5.853,0.853 C6.048,0.658 6.048,0.341 5.853,0.146 C5.658,-0.049 5.341,-0.049 5.146,0.146 L0.146,5.146 C0.142,5.15 0.141,5.156 0.136,5.16 C0.096,5.203 0.061,5.252 0.038,5.307 C-0.013,5.43 -0.013,5.568 0.038,5.691 C0.052,5.724 0.076,5.749 0.096,5.778 C0.113,5.803 0.123,5.83 0.145,5.852 L5.145,10.852 C5.243,10.949 5.371,10.998 5.499,10.998 C5.627,10.998 5.755,10.949 5.852,10.851 C6.047,10.656 6.047,10.339 5.852,10.144 L1.706,5.998 L23.5,5.998 C23.776,5.998 24,5.774 24,5.498 C24,5.222 23.776,4.999 23.5,4.999 Z"/>
</svg>
