<?xml version="1.0" encoding="UTF-8"?>
<svg width="14px" height="14px" viewBox="0 0 14 14" version="1.1" xmlns="http://www.w3.org/2000/svg" xmlns:xlink="http://www.w3.org/1999/xlink">
    <!-- Generator: Sketch 51 (57462) - http://www.bohemiancoding.com/sketch -->
    <title>fullscreenclose</title>
    <desc>Created with Sketch.</desc>
    <defs></defs>
    <g id="Page-1" stroke="none" stroke-width="1" fill="none" fill-rule="evenodd">
        <g id="fullscreenclose" transform="translate(-3.000000, -3.000000)" fill="#8c8c8c" fill-rule="nonzero">
            <path d="M12.8772001,13.0552038 L12.8779072,16.0540437 L11.8773511,16.0547508 L11.8773511,12.0539406 L12.7499209,12.0553548 L15.8859394,12.0546477 L15.8852323,13.0552038 L12.8772001,13.0552038 Z M7.12563453,6.24370307 L7.12509253,3.94506403 L8.12564863,3.94435692 L8.12564863,7.94516709 L7.25307886,7.94375288 L4.11706028,7.94445998 L4.11776739,6.94390389 L6.41162179,6.94390389 L3.5245048,4.0567869 L4.23161158,3.34968012 L7.12563453,6.24370307 Z M6.42064907,13.0504192 L4.12201003,13.0509612 L4.12130292,12.0504051 L8.12211309,12.0504051 L8.12069888,12.9229749 L8.12140598,16.0589934 L7.12084989,16.0582863 L7.12084989,13.7644319 L4.2337329,16.6515489 L3.52662612,15.9444421 L6.42064907,13.0504192 Z M13.5823506,6.94868853 L15.8809897,6.94814653 L15.8816968,7.94870263 L11.8808866,7.94870263 L11.8823008,7.07613286 L11.8815937,3.94011428 L12.8821498,3.94082139 L12.8821498,6.23467579 L15.7692668,3.3475588 L16.4763736,4.05466558 L13.5823506,6.94868853 Z M15.7713881,16.6494276 L12.2358542,13.1138937 L12.942961,12.4067869 L16.4784949,15.9423208 L15.7713881,16.6494276 Z" id="Combined-Shape"></path>
        </g>
    </g>
</svg>