<svg xmlns="http://www.w3.org/2000/svg" width="100" height="100" viewBox="0 0 100 100">
    <g fill="none" fill-rule="evenodd">
        <path fill="#D8D8D8" fill-opacity="0" d="M0 1h100v100H0z"/>
        <circle cx="50" cy="51" r="45" fill="#424242"/>
        <g stroke-width="2">
            <path fill="#777" stroke="#E9F4FF" d="M25.5 74.148V41.213l25.062-8.655L75.5 41.211v32.933l-24.859-7.69L25.5 74.148z"/>
            <path stroke="#2D2D2D" stroke-linecap="square" d="M50.5 34.5v32" opacity=".2"/>
            <path fill="#8C8C8C" stroke="#2D2D2D" d="M25.5 41.852v32.935l25.062 8.655L75.5 74.789V41.856l-24.859 7.69L25.5 41.852z"/>
            <path stroke="#2D2D2D" stroke-linecap="square" d="M50.5 49.5v32"/>
            <path fill="#8C8C8C" stroke="#2D2D2D" stroke-linecap="square" d="M24.935 41.68L18 52l24 8.5 7.09-11.424zM76.154 41.68L83.09 52l-24 8.5L52 49.076z M25.73 41.11l-8.387-12.864 24.809-8.592L50.5 32.576z M75.113 41.11L83.5 28.246l-24.81-8.592-8.347 12.922z "/>
        </g>
        <path stroke="#2D2D2D" stroke-dasharray="1,3,1,2" stroke-linecap="square" d="M59.657 7.703c.03 2.533-.28 4.864-.93 6.993-.974 3.195-10.184 15.167-12.929 7.098-2.745-8.07 10.733-4.045 10.733.769 0 2.88 3.99 15.106-1.213 17.49-2.088.956-3.483 2.487-4.185 4.592"/>
        <g fill="#777" transform="translate(54)">
            <path fill-rule="nonzero" d="M6.276 3.947a.5.5 0 0 1-.223-.67l1-2a.5.5 0 0 1 .894.447l-1 2a.5.5 0 0 1-.67.223zM3.276 1.053a.5.5 0 0 0-.223.67l1 2a.5.5 0 0 0 .894-.447l-1-2a.5.5 0 0 0-.67-.223z"/>
            <path stroke="#2D2D2D" d="M1.25 9.918c-1.305 0 0-1.824 0-3.026 0-1.202-1.552-2.905-.171-2.905 1.38 0 3.927 1.219 3.927 2.6 0 1.38-2.452 3.331-3.757 3.331zM9.872 9.918c1.305 0 0-1.824 0-3.026 0-1.202 1.552-2.905.17-2.905-1.38 0-4.04 1.265-4.04 2.645 0 1.381 2.566 3.286 3.87 3.286z"/>
            <rect width="2" height="7" x="4.5" y="3.5" stroke="#2D2D2D" rx="1"/>
        </g>
    </g>
</svg>
