<svg xmlns="http://www.w3.org/2000/svg" width="100" height="100" viewBox="0 0 100 100">
    <g fill="none" fill-rule="evenodd">
        <path fill="#D8D8D8" fill-opacity="0" d="M0 0h100v100H0z"/>
        <circle cx="50" cy="50" r="45" fill="#424242"/>
        <path fill="#2D2D2D" fill-rule="nonzero" d="M62 28h30a2 2 0 0 1 2 2v47a2 2 0 0 1-2 2H62a2 2 0 0 1-2-2V30a2 2 0 0 1 2-2z"/>
        <path fill="#777" d="M62 30v47h30V30z"/>
        <path fill="#2D2D2D" fill-rule="nonzero" d="M58 36h38a2 2 0 0 1 2 2v9a2 2 0 0 1-2 2H58a2 2 0 0 1-2-2v-9a2 2 0 0 1 2-2z"/>
        <path fill="#8C8C8C" d="M58 38v9h38v-9z"/>
        <path fill="#2D2D2D" fill-rule="nonzero" d="M64 43.5a1 1 0 1 0 0-2 1 1 0 0 0 0 2zm0 2a3 3 0 1 1 0-6 3 3 0 0 1 0 6zM58 21h38a2 2 0 0 1 2 2v9a2 2 0 0 1-2 2H58a2 2 0 0 1-2-2v-9a2 2 0 0 1 2-2z"/>
        <path fill="#8C8C8C" d="M58 23v9h38v-9z"/>
        <path fill="#2D2D2D" fill-rule="nonzero" d="M64 28.5a1 1 0 1 0 0-2 1 1 0 0 0 0 2zm0 2a3 3 0 1 1 0-6 3 3 0 0 1 0 6zM58 51h38a2 2 0 0 1 2 2v9a2 2 0 0 1-2 2H58a2 2 0 0 1-2-2v-9a2 2 0 0 1 2-2z"/>
        <path fill="#8C8C8C" d="M58 53v9h38v-9z"/>
        <path fill="#2D2D2D" fill-rule="nonzero" d="M64 58.5a1 1 0 1 0 0-2 1 1 0 0 0 0 2zm0 2a3 3 0 1 1 0-6 3 3 0 0 1 0 6zM58 66h38a2 2 0 0 1 2 2v9a2 2 0 0 1-2 2H58a2 2 0 0 1-2-2v-9a2 2 0 0 1 2-2z"/>
        <path fill="#8C8C8C" d="M58 68v9h38v-9z"/>
        <path fill="#2D2D2D" fill-rule="nonzero" d="M64 73.5a1 1 0 1 0 0-2 1 1 0 0 0 0 2zm0 2a3 3 0 1 1 0-6 3 3 0 0 1 0 6zM8 49h37a2 2 0 0 1 2 2v23a2 2 0 0 1-2 2H8a2 2 0 0 1-2-2V51a2 2 0 0 1 2-2z"/>
        <path fill="#8C8C8C" d="M8 51v23h37V51z"/>
        <path fill="#2D2D2D" fill-rule="nonzero" d="M11 54v16h31V54H11zm0-2h31a2 2 0 0 1 2 2v16a2 2 0 0 1-2 2H11a2 2 0 0 1-2-2V54a2 2 0 0 1 2-2zM4 73h45a2 2 0 0 1 2 2v1a3 3 0 0 1-3 3H5a3 3 0 0 1-3-3v-1a2 2 0 0 1 2-2z"/>
        <path fill="#8C8C8C" d="M4 75v1a1 1 0 0 0 1 1h43a1 1 0 0 0 1-1v-1H4z"/>
        <path fill="#2D2D2D" d="M47.5 27.5a1 1 0 0 1-1 1h-3a1 1 0 0 1 0-2h3a1 1 0 0 1 1 1zm7 0a1 1 0 0 1-1 1h-3a1 1 0 0 1 0-2h3a1 1 0 0 1 1 1zm-14 0a1 1 0 0 1-1 1h-3a1 1 0 0 1 0-2h3a1 1 0 0 1 1 1zM25.5 43a1 1 0 0 1 1 1v3a1 1 0 0 1-2 0v-3a1 1 0 0 1 1-1zm0-7a1 1 0 0 1 1 1v3a1 1 0 0 1-2 0v-3a1 1 0 0 1 1-1z"/>
        <rect width="2" height="5" x="24.5" y="28" fill="#E9F4FF" rx="1"/>
        <path fill="#2D2D2D" fill-rule="nonzero" d="M25.5 35.5a8.5 8.5 0 1 1 0-17 8.5 8.5 0 0 1 0 17z"/>
        <path fill="#8C8C8C" d="M25.5 33.5a6.5 6.5 0 1 0 0-13 6.5 6.5 0 0 0 0 13z"/>
        <path fill="#2D2D2D" d="M26.916 27.001l1.414 1.415a1 1 0 0 1-1.414 1.414L25.5 28.416l-1.414 1.414a1 1 0 0 1-1.414-1.414L24.087 27l-1.414-1.414a1 1 0 0 1 1.414-1.414l1.414 1.414 1.415-1.414a1 1 0 0 1 1.414 1.414l-1.414 1.414z"/>
    </g>
</svg>
