<svg xmlns="http://www.w3.org/2000/svg" width="51" height="48" viewBox="0 0 51 48">
  <g fill="none" fill-rule="evenodd" transform="translate(.594)">
    <rect width="49.5" height="48" fill="#353535" rx="24"/>
    <path fill="#8c8c8c" fill-rule="nonzero" d="M15.46875,0 C6.92559528,-5.07265313e-16 1.04623471e-15,6.71572875 0,15 C-1.04623471e-15,23.2842712 6.92559528,30 15.46875,30 C15.8104762,30 16.0875,29.7313708 16.0875,29.4 L16.0875,20.96952 C19.5913407,20.6602104 22.2741963,17.8117137 22.275,14.4 L22.275,12.6 C22.275,11.9372583 21.7209524,11.4 21.0375,11.4 L19.8,11.4 L19.8,8.4 C19.8,8.06862915 19.5229762,7.8 19.18125,7.8 C18.8395238,7.8 18.5625,8.06862915 18.5625,8.4 L18.5625,11.4 L12.375,11.4 L12.375,8.4 C12.375,8.06862915 12.0979762,7.8 11.75625,7.8 C11.4145238,7.8 11.1375,8.06862915 11.1375,8.4 L11.1375,11.4 L9.9,11.4 C9.21654762,11.4 8.6625,11.9372583 8.6625,12.6 L8.6625,14.4 C8.66330375,17.8117137 11.3461593,20.6602104 14.85,20.96952 L14.85,28.76952 C7.49890219,28.4280271 1.64064796,22.6870536 1.36604537,15.5555107 C1.09144278,8.42396783 6.49188409,2.27535016 13.7962512,1.40322601 C21.1006182,0.531101861 27.8778977,5.22572849 29.3955278,12.2088568 C30.913158,19.1919852 26.6660467,26.1395154 19.6199438,28.2 C19.4083912,28.2623786 19.247227,28.4294607 19.1971603,28.638308 C19.1470936,28.8471554 19.2157307,29.0660392 19.3772166,29.212508 C19.5387025,29.3589768 19.7685037,29.4107786 19.9800563,29.3484 C27.3101736,27.182062 31.8998304,20.1381563 30.7700843,12.788569 C29.6403382,5.43898162 23.1317479,-0.000776412666 15.46875,0 Z M9.9,14.4 L9.9,12.6 L21.0375,12.6 L21.0375,14.4 C21.0375,17.3823376 18.5442857,19.8 15.46875,19.8 C12.3932143,19.8 9.9,17.3823376 9.9,14.4 Z" transform="translate(9.281 9)"/>
    <polygon fill="#8c8c8c" fill-rule="nonzero" points="34.561 13.581 13.939 33.578 14.844 34.511 35.466 14.514"/>
  </g>
</svg>
