<?xml version="1.0" encoding="UTF-8"?>
<svg width="249px" height="54px" viewBox="0 0 249 54" version="1.1" xmlns="http://www.w3.org/2000/svg" xmlns:xlink="http://www.w3.org/1999/xlink">
    <!-- Generator: Sketch 50.2 (55047) - http://www.bohemiancoding.com/sketch -->
    <title>menu-icons-black</title>
    <desc>Created with Sketch.</desc>
    <defs></defs>
    <g id="Page-1" stroke="none" stroke-width="1" fill="none" fill-rule="evenodd">
        <g id="menu-icons-black">
            <g id="blue" transform="translate(0.000000, 27.000000)">
                <g id="Icon/wallet-26-white" transform="translate(0.000000, 1.000000)" fill-rule="nonzero">
                    <rect id="ico-zone" fill-opacity="0" fill="#D8D8D8" x="0" y="0" width="26" height="26"></rect>
                    <path d="M24.48,12.4208582 L20.8,12.4208582 C18.7928,12.4208582 17.16,14.0650764 17.16,16.0863127 C17.16,18.1075491 18.7928,19.7517673 20.8,19.7517673 L24.48,19.7517673 L24.48,21.3226764 C24.48,22.7931819 23.2933493,23.9881309 21.84,23.9881309 L4.16,23.9881309 C2.70665072,23.9881309 1.52,22.7931819 1.52,21.3226764 L1.52,10.8499491 C1.52,9.37944353 2.70665072,8.18449455 4.16,8.18449455 L21.84,8.18449455 C23.2933493,8.18449455 24.48,9.37944353 24.48,10.8499491 L24.48,12.4208582 Z" id="Path" fill="#FFFFFF"></path>
                    <path d="M20.8,13.4681309 L24.4800034,13.4681309 L24.4800034,18.7044945 L20.8,18.7044945 C19.36584,18.7044945 18.2,17.5294545 18.2,16.0863127 C18.2,14.6431709 19.36584,13.4681309 20.8,13.4681309 Z M20.8,17.6572218 C21.66008,17.6572218 22.36,16.9524073 22.36,16.0863127 C22.36,15.2202182 21.66008,14.5154036 20.8,14.5154036 C19.93992,14.5154036 19.24,15.2202182 19.24,16.0863127 C19.24,16.9524073 19.93992,17.6572218 20.8,17.6572218 Z" id="Path" fill="#FFFFFF"></path>
                    <path d="M20.8,16.9572218 C21.2723845,16.9572218 21.66,16.5668957 21.66,16.0863127 C21.66,15.6057297 21.2723845,15.2154036 20.8,15.2154036 C20.3276155,15.2154036 19.94,15.6057297 19.94,16.0863127 C19.94,16.5668957 20.3276155,16.9572218 20.8,16.9572218 Z" id="Path" fill="#FFFFFF"></path>
                    <path d="M24.0516357,7.94029236 C23.5111542,6.60586548 22.2370911,5.49383545 20.6493073,5.17478943 L21.6411743,7.18545532 C22.249054,7.15452576 23.1761475,7.25575256 24.0516357,7.94029236 Z M4.03004456,7.18353271 L7.89134216,5.08964539 L6.55434216,5.08964539 C4.43136597,5.01347351 2.76882935,6.11051941 1.94178772,7.94192505 C2.69689941,7.38912964 3.06135559,7.31968689 4.03004456,7.18353271 Z M11.3969472,7.18286819 L18.5364818,3.29023354 C18.0974818,2.66239354 17.6766133,2.37447943 17.0385854,2.17396244 C16.1405961,1.89174578 15.3694151,2.17396244 14.6799931,2.60821102 L6.23709812,7.18286819 L11.3969472,7.18286819 Z" id="Shape" fill="#FFFFFF"></path>
                    <polygon id="Shape" fill="#FFFFFF" points="20.4746552 7.18612671 19.0185852 4.24154663 13.5778656 7.18612671"></polygon>
                </g>
                <g id="Group" transform="translate(55.000000, 0.000000)" fill-rule="nonzero">
                    <rect id="ico-zone" fill-opacity="0" fill="#D8D8D8" x="1" y="1" width="26" height="26"></rect>
                    <path d="M6.28080899,4.72080915 L21.8137123,4.72080915 C22.6752765,4.72080915 23.3737123,5.41924494 23.3737123,6.28080915 L23.3737123,21.8137124 C23.3737123,22.6752766 22.6752765,23.3737124 21.8137123,23.3737124 L6.28080899,23.3737124 C5.41924478,23.3737124 4.72080899,22.6752766 4.72080899,21.8137124 L4.72080899,6.28080915 C4.72080899,5.41924494 5.41924478,4.72080915 6.28080899,4.72080915 Z" id="box" fill="#FFFFFF" transform="translate(14.047261, 14.047261) rotate(45.000000) translate(-14.047261, -14.047261) "></path>
                    <path d="M9.63564769,9.11564786 C9.34845962,9.11564786 9.11564769,9.34845979 9.11564769,9.63564786 L9.11564769,18.4588737 C9.11564769,18.7460618 9.34845962,18.9788737 9.63564769,18.9788737 L18.4588736,18.9788737 C18.7460616,18.9788737 18.9788736,18.7460618 18.9788736,18.4588737 L18.9788736,9.63564786 C18.9788736,9.34845979 18.7460616,9.11564786 18.4588736,9.11564786 L9.63564769,9.11564786 Z M9.63564769,8.07564786 L18.4588736,8.07564786 C19.3204378,8.07564786 20.0188736,8.77408365 20.0188736,9.63564786 L20.0188736,18.4588737 C20.0188736,19.3204379 19.3204378,20.0188737 18.4588736,20.0188737 L9.63564769,20.0188737 C8.77408348,20.0188737 8.07564769,19.3204379 8.07564769,18.4588737 L8.07564769,9.63564786 C8.07564769,8.77408365 8.77408348,8.07564786 9.63564769,8.07564786 Z" id="box" fill="#5A81EA" transform="translate(14.047261, 14.047261) rotate(45.000000) translate(-14.047261, -14.047261) "></path>
                    <path d="M14.4193548,11.9032258 C13.9561483,11.9032258 13.5806452,11.5277227 13.5806452,11.0645161 C13.5806452,10.6013096 13.9561483,10.2258065 14.4193548,10.2258065 C14.8825614,10.2258065 15.2580645,10.6013096 15.2580645,11.0645161 C15.2580645,11.5277227 14.8825614,11.9032258 14.4193548,11.9032258 Z M16.9354839,14.4193548 C16.4722773,14.4193548 16.0967742,14.0438517 16.0967742,13.5806452 C16.0967742,13.1174386 16.4722773,12.7419355 16.9354839,12.7419355 C17.3986904,12.7419355 17.7741935,13.1174386 17.7741935,13.5806452 C17.7741935,14.0438517 17.3986904,14.4193548 16.9354839,14.4193548 Z M14.4193548,14.4193548 C13.9561483,14.4193548 13.5806452,14.0438517 13.5806452,13.5806452 C13.5806452,13.1174386 13.9561483,12.7419355 14.4193548,12.7419355 C14.8825614,12.7419355 15.2580645,13.1174386 15.2580645,13.5806452 C15.2580645,14.0438517 14.8825614,14.4193548 14.4193548,14.4193548 Z" id="dots" fill="#5A81EA"></path>
                </g>
                <g id="Icon/dex-26-white" transform="translate(28.000000, 1.000000)">
                    <rect id="ico-zone" fill-opacity="0" fill="#D8D8D8" fill-rule="nonzero" x="0" y="0" width="26" height="26"></rect>
                    <path d="M2.9,1.47826087 C2.9,1.21412468 3.11490332,1 3.38,1 C3.64509668,1 3.86,1.21412468 3.86,1.47826087 L3.86,24.5217391 C3.86,24.7858753 3.64509668,25 3.38,25 C3.11490332,25 2.9,24.7858753 2.9,24.5217391 L2.9,1.47826087 Z M12.4,1.47826087 C12.4,1.21412468 12.6149033,1 12.88,1 C13.1450967,1 13.36,1.21412468 13.36,1.47826087 L13.36,17.8695652 C13.36,18.1337014 13.1450967,18.3478261 12.88,18.3478261 C12.6149033,18.3478261 12.4,18.1337014 12.4,17.8695652 L12.4,1.47826087 Z M21.9,1.47826087 C21.9,1.21412468 22.1149033,1 22.38,1 C22.6450967,1 22.86,1.21412468 22.86,1.47826087 L22.86,24.5217391 C22.86,24.7858753 22.6450967,25 22.38,25 C22.1149033,25 21.9,24.7858753 21.9,24.5217391 L21.9,1.47826087 Z" id="Combined-Shape" fill="#FFFFFF" fill-rule="nonzero"></path>
                    <g id="Rectangle-2" transform="translate(0.000000, 9.000000)">
                        <g id="path-1-link" transform="translate(1.000000, 0.000000)" fill="#FFFFFF" fill-rule="nonzero">
                            <path d="M0.30000001,0.67096606 L4.45864508,0.67096606 C4.62433052,0.67096606 4.7586451,0.80528064 4.7586451,0.97096607 L4.7586451,9.8894171 C4.7586451,10.0551025 4.62433052,10.1894171 4.45864508,10.1894171 L0.30000001,10.1894171 C0.13431458,10.1894171 0,10.0551025 0,9.8894171 L0,0.97096607 C0,0.80528064 0.13431458,0.67096606 0.30000001,0.67096606 Z" id="path-1"></path>
                        </g>
                        <path d="M1.30000001,0.47096606 L5.45864508,0.47096606 C5.73478747,0.47096606 5.9586451,0.69482369 5.9586451,0.97096607 L5.9586451,9.8894171 C5.9586451,10.1655595 5.73478747,10.3894171 5.45864508,10.3894171 L1.30000001,10.3894171 C1.02385763,10.3894171 0.8,10.1655595 0.8,9.8894171 L0.8,0.97096607 C0.8,0.69482369 1.02385763,0.47096606 1.30000001,0.47096606 Z" id="Shape" stroke="#FFFFFF" stroke-width="0.4"></path>
                    </g>
                    <g id="Rectangle-2" transform="translate(10.000000, 6.000000)">
                        <g id="path-2-link" fill="#FFFFFF" fill-rule="nonzero">
                            <path d="M0.8087294,0.81047605 L4.9673744,0.81047605 C5.1330599,0.81047605 5.2673744,0.94479063 5.2673744,1.11047606 L5.2673744,7.1977392 C5.2673744,7.3634246 5.1330599,7.4977392 4.9673744,7.4977392 L0.8087294,7.4977392 C0.6430439,7.4977392 0.5087293,7.3634246 0.5087293,7.1977392 L0.5087293,1.11047606 C0.5087293,0.94479063 0.6430439,0.81047605 0.8087294,0.81047605 Z" id="path-2"></path>
                        </g>
                        <path d="M0.8087294,0.61047605 L4.9673744,0.61047605 C5.2435168,0.61047605 5.4673744,0.83433368 5.4673744,1.11047606 L5.4673744,7.1977392 C5.4673744,7.4738816 5.2435168,7.6977392 4.9673744,7.6977392 L0.8087294,7.6977392 C0.532587,7.6977392 0.3087293,7.4738816 0.3087293,7.1977392 L0.3087293,1.11047606 C0.3087293,0.83433368 0.532587,0.61047605 0.8087294,0.61047605 Z" id="Shape" stroke="#FFFFFF" stroke-width="0.4"></path>
                    </g>
                    <g id="Rectangle-2" transform="translate(19.000000, 6.000000)">
                        <g id="path-3-link" transform="translate(1.000000, 0.000000)" fill="#FFFFFF" fill-rule="nonzero">
                            <path d="M0.3,0.80799672 L4.4586451,0.80799672 C4.6243305,0.80799672 4.7586451,0.9423113 4.7586451,1.10799673 L4.7586451,10.9779782 C4.7586451,11.1436637 4.6243305,11.2779782 4.4586451,11.2779782 L0.3,11.2779782 C0.1343146,11.2779782 0,11.1436637 0,10.9779782 L0,1.10799673 C0,0.9423113 0.1343146,0.80799672 0.3,0.80799672 Z" id="path-3"></path>
                        </g>
                        <path d="M1.3,0.60799672 L5.4586451,0.60799672 C5.7347875,0.60799672 5.9586451,0.83185435 5.9586451,1.10799673 L5.9586451,10.9779782 C5.9586451,11.2541206 5.7347875,11.4779782 5.4586451,11.4779782 L1.3,11.4779782 C1.0238576,11.4779782 0.8,11.2541206 0.8,10.9779782 L0.8,1.10799673 C0.8,0.83185435 1.0238576,0.60799672 1.3,0.60799672 Z" id="Shape" stroke="#FFFFFF" stroke-width="0.4"></path>
                    </g>
                </g>
            </g>
            <g id="Icon/assets-26-info500" transform="translate(140.000000, 0.000000)" fill-rule="nonzero">
                <rect id="ico-zone" fill-opacity="0" fill="#D8D8D8" x="0" y="0" width="26" height="26"></rect>
                <path d="M24,6.5 L23.5,6.5 L23.5,19.5 C23.5,20.0522847 23.0522847,20.5 22.5,20.5 L3.5,20.5 L3.5,21 C3.50088186,21.8280616 4.17193843,22.4991181 5,22.5 L24,22.5 C24.8280616,22.4991181 25.4991181,21.8280616 25.5,21 L25.5,8 C25.4991181,7.17193843 24.8280616,6.50088186 24,6.5 Z" id="Shape" fill="#777777"></path>
                <path d="M22.5,18 L22.5,5 C22.4991181,4.17193843 21.8280616,3.50088186 21,3.5 L2,3.5 C1.17193843,3.50088186 0.500881855,4.17193843 0.5,5 L0.5,18 C0.500881855,18.8280616 1.17193843,19.4991181 2,19.5 L21,19.5 C21.8280616,19.4991181 22.4991181,18.8280616 22.5,18 Z M5,17.5 L3,17.5 C2.72385763,17.5 2.5,17.2761424 2.5,17 C2.5,16.7238576 2.72385763,16.5 3,16.5 L5,16.5 C5.27614237,16.5 5.5,16.7238576 5.5,17 C5.5,17.2761424 5.27614237,17.5 5,17.5 Z M11.5,15.5 C9.8457,15.5 8.5,13.7056 8.5,11.5 C8.5,9.2944 9.8457,7.5 11.5,7.5 C13.1543,7.5 14.5,9.2944 14.5,11.5 C14.5,13.7056 13.1543,15.5 11.5,15.5 Z M20,6.5 L18,6.5 C17.7238576,6.5 17.5,6.27614237 17.5,6 C17.5,5.72385763 17.7238576,5.5 18,5.5 L20,5.5 C20.2761424,5.5 20.5,5.72385763 20.5,6 C20.5,6.27614237 20.2761424,6.5 20,6.5 Z" id="Shape" fill="#777777"></path>
            </g>
            <g id="Icon/assets-26-submit400" transform="translate(140.000000, 28.000000)" fill-rule="nonzero">
                <rect id="ico-zone" fill-opacity="0" fill="#D8D8D8" x="0" y="0" width="26" height="26"></rect>
                <path d="M24,6.5 L23.5,6.5 L23.5,19.5 C23.5,20.0522847 23.0522847,20.5 22.5,20.5 L3.5,20.5 L3.5,21 C3.50088186,21.8280616 4.17193843,22.4991181 5,22.5 L24,22.5 C24.8280616,22.4991181 25.4991181,21.8280616 25.5,21 L25.5,8 C25.4991181,7.17193843 24.8280616,6.50088186 24,6.5 Z" id="Shape" fill="#5A81EA"></path>
                <path d="M22.5,18 L22.5,5 C22.4991181,4.17193843 21.8280616,3.50088186 21,3.5 L2,3.5 C1.17193843,3.50088186 0.500881855,4.17193843 0.5,5 L0.5,18 C0.500881855,18.8280616 1.17193843,19.4991181 2,19.5 L21,19.5 C21.8280616,19.4991181 22.4991181,18.8280616 22.5,18 Z M5,17.5 L3,17.5 C2.72385763,17.5 2.5,17.2761424 2.5,17 C2.5,16.7238576 2.72385763,16.5 3,16.5 L5,16.5 C5.27614237,16.5 5.5,16.7238576 5.5,17 C5.5,17.2761424 5.27614237,17.5 5,17.5 Z M11.5,15.5 C9.8457,15.5 8.5,13.7056 8.5,11.5 C8.5,9.2944 9.8457,7.5 11.5,7.5 C13.1543,7.5 14.5,9.2944 14.5,11.5 C14.5,13.7056 13.1543,15.5 11.5,15.5 Z M20,6.5 L18,6.5 C17.7238576,6.5 17.5,6.27614237 17.5,6 C17.5,5.72385763 17.7238576,5.5 18,5.5 L20,5.5 C20.2761424,5.5 20.5,5.72385763 20.5,6 C20.5,6.27614237 20.2761424,6.5 20,6.5 Z" id="Shape" fill="#5A81EA"></path>
            </g>
            <g id="Icon/transaction-26-info500" transform="translate(168.000000, 0.000000)" fill="#777777" fill-rule="nonzero">
                <rect id="ico-zone" fill-opacity="0" x="0" y="0" width="26" height="26"></rect>
                <path d="M13,2 C6.92486775,2 2,6.92486775 2,13 C2,19.0751322 6.92486775,24 13,24 C19.0751322,24 24,19.0751322 24,13 C24,10.0826186 22.8410748,7.28472557 20.7781746,5.22182541 C18.7152744,3.15892524 15.9173814,2 13,2 Z M17.64,16.08 L9.02216,16.08 L10.91108,17.96892 C11.0254609,18.0793928 11.0713335,18.2429863 11.0310667,18.3968232 C10.9908,18.5506602 10.8706602,18.6708 10.7168232,18.7110667 C10.5629863,18.7513335 10.3993928,18.7054609 10.28892,18.59108 L7.64892,15.95108 C7.47715195,15.7792601 7.47715195,15.5007399 7.64892,15.32892 L10.28892,12.68892 C10.4615667,12.5221722 10.7359973,12.524557 10.9057202,12.6942798 C11.075443,12.8640027 11.0778278,13.1384333 10.91108,13.31108 L9.02216,15.2 L17.64,15.2 C17.8830053,15.2 18.08,15.3969947 18.08,15.64 C18.08,15.8830053 17.8830053,16.08 17.64,16.08 Z M18.35108,10.67108 L15.71108,13.31108 C15.5384333,13.4778278 15.2640027,13.475443 15.0942798,13.3057202 C14.924557,13.1359973 14.9221722,12.8615667 15.08892,12.68892 L16.97784,10.8 L8.36,10.8 C8.11699471,10.8 7.92,10.6030053 7.92,10.36 C7.92,10.1169947 8.11699471,9.92 8.36,9.92 L16.97784,9.92 L15.08892,8.03108 C14.9221722,7.85843329 14.924557,7.5840027 15.0942798,7.41427983 C15.2640027,7.24455696 15.5384333,7.24217223 15.71108,7.40892 L18.35108,10.04892 C18.5228481,10.2207399 18.5228481,10.4992601 18.35108,10.67108 Z" id="Shape" transform="translate(13.000000, 13.000000) rotate(-90.000000) translate(-13.000000, -13.000000) "></path>
            </g>
            <g id="Icon/transaction-26-submit400" transform="translate(168.000000, 28.000000)" fill-rule="nonzero">
                <rect id="ico-zone" fill-opacity="0" fill="#D8D8D8" x="0" y="0" width="26" height="26"></rect>
                <path d="M13,2 C6.92486775,2 2,6.92486775 2,13 C2,19.0751322 6.92486775,24 13,24 C19.0751322,24 24,19.0751322 24,13 C24,10.0826186 22.8410748,7.28472557 20.7781746,5.22182541 C18.7152744,3.15892524 15.9173814,2 13,2 Z M17.64,16.08 L9.02216,16.08 L10.91108,17.96892 C11.0254609,18.0793928 11.0713335,18.2429863 11.0310667,18.3968232 C10.9908,18.5506602 10.8706602,18.6708 10.7168232,18.7110667 C10.5629863,18.7513335 10.3993928,18.7054609 10.28892,18.59108 L7.64892,15.95108 C7.47715195,15.7792601 7.47715195,15.5007399 7.64892,15.32892 L10.28892,12.68892 C10.4615667,12.5221722 10.7359973,12.524557 10.9057202,12.6942798 C11.075443,12.8640027 11.0778278,13.1384333 10.91108,13.31108 L9.02216,15.2 L17.64,15.2 C17.8830053,15.2 18.08,15.3969947 18.08,15.64 C18.08,15.8830053 17.8830053,16.08 17.64,16.08 Z M18.35108,10.67108 L15.71108,13.31108 C15.5384333,13.4778278 15.2640027,13.475443 15.0942798,13.3057202 C14.924557,13.1359973 14.9221722,12.8615667 15.08892,12.68892 L16.97784,10.8 L8.36,10.8 C8.11699471,10.8 7.92,10.6030053 7.92,10.36 C7.92,10.1169947 8.11699471,9.92 8.36,9.92 L16.97784,9.92 L15.08892,8.03108 C14.9221722,7.85843329 14.924557,7.5840027 15.0942798,7.41427983 C15.2640027,7.24455696 15.5384333,7.24217223 15.71108,7.40892 L18.35108,10.04892 C18.5228481,10.2207399 18.5228481,10.4992601 18.35108,10.67108 Z" id="Shape" fill="#5A81EA" transform="translate(13.000000, 13.000000) rotate(-90.000000) translate(-13.000000, -13.000000) "></path>
            </g>
            <g id="Icon/portfolio-26-info500" transform="translate(196.000000, 0.000000)" fill-rule="nonzero">
                <rect id="ico-zone" fill-opacity="0" fill="#D8D8D8" x="0" y="0" width="26" height="26"></rect>
                <path d="M22.68,6.47826087 L17.84,6.47826087 L17.84,5.17391304 C17.8385937,3.9738701 16.8544435,3.00138963 15.64,3 L10.36,3 C9.14555654,3.00138963 8.16140631,3.9738701 8.16,5.17391304 L8.16,6.47826087 L3.32,6.47826087 C2.59130582,6.4790277 2.00077603,7.06255515 2,7.7826087 L2,21.6956522 C2.00077603,22.4157057 2.59130582,22.9992332 3.32,23 L22.68,23 C23.4086942,22.9992332 23.999224,22.4157057 24,21.6956522 L24,7.7826087 C23.999224,7.06255515 23.4086942,6.4790277 22.68,6.47826087 Z M9.04,5.17391304 C9.04077603,4.4538595 9.63130582,3.87033205 10.36,3.86956522 L15.64,3.86956522 C16.3686942,3.87033205 16.959224,4.4538595 16.96,5.17391304 L16.96,6.47826087 L9.04,6.47826087 L9.04,5.17391304 Z M20.04,18.6521739 L5.96,18.6521739 C5.71699471,18.6521739 5.52,18.4575151 5.52,18.2173913 C5.52,17.9772675 5.71699471,17.7826087 5.96,17.7826087 L20.04,17.7826087 C20.2830053,17.7826087 20.48,17.9772675 20.48,18.2173913 C20.48,18.4575151 20.2830053,18.6521739 20.04,18.6521739 Z M20.04,15.173913 L5.96,15.173913 C5.71699471,15.173913 5.52,14.9792542 5.52,14.7391304 C5.52,14.4990066 5.71699471,14.3043478 5.96,14.3043478 L20.04,14.3043478 C20.2830053,14.3043478 20.48,14.4990066 20.48,14.7391304 C20.48,14.9792542 20.2830053,15.173913 20.04,15.173913 Z M20.04,11.6956522 L5.96,11.6956522 C5.71699471,11.6956522 5.52,11.5009934 5.52,11.2608696 C5.52,11.0207458 5.71699471,10.826087 5.96,10.826087 L20.04,10.826087 C20.2830053,10.826087 20.48,11.0207458 20.48,11.2608696 C20.48,11.5009934 20.2830053,11.6956522 20.04,11.6956522 Z" id="portfolio" fill="#777777"></path>
            </g>
            <g id="Icon/portfolio-26-submit400" transform="translate(196.000000, 28.000000)" fill-rule="nonzero">
                <rect id="ico-zone" fill-opacity="0" fill="#D8D8D8" x="0" y="0" width="26" height="26"></rect>
                <path d="M22.68,6.47826087 L17.84,6.47826087 L17.84,5.17391304 C17.8385937,3.9738701 16.8544435,3.00138963 15.64,3 L10.36,3 C9.14555654,3.00138963 8.16140631,3.9738701 8.16,5.17391304 L8.16,6.47826087 L3.32,6.47826087 C2.59130582,6.4790277 2.00077603,7.06255515 2,7.7826087 L2,21.6956522 C2.00077603,22.4157057 2.59130582,22.9992332 3.32,23 L22.68,23 C23.4086942,22.9992332 23.999224,22.4157057 24,21.6956522 L24,7.7826087 C23.999224,7.06255515 23.4086942,6.4790277 22.68,6.47826087 Z M9.04,5.17391304 C9.04077603,4.4538595 9.63130582,3.87033205 10.36,3.86956522 L15.64,3.86956522 C16.3686942,3.87033205 16.959224,4.4538595 16.96,5.17391304 L16.96,6.47826087 L9.04,6.47826087 L9.04,5.17391304 Z M20.04,18.6521739 L5.96,18.6521739 C5.71699471,18.6521739 5.52,18.4575151 5.52,18.2173913 C5.52,17.9772675 5.71699471,17.7826087 5.96,17.7826087 L20.04,17.7826087 C20.2830053,17.7826087 20.48,17.9772675 20.48,18.2173913 C20.48,18.4575151 20.2830053,18.6521739 20.04,18.6521739 Z M20.04,15.173913 L5.96,15.173913 C5.71699471,15.173913 5.52,14.9792542 5.52,14.7391304 C5.52,14.4990066 5.71699471,14.3043478 5.96,14.3043478 L20.04,14.3043478 C20.2830053,14.3043478 20.48,14.4990066 20.48,14.7391304 C20.48,14.9792542 20.2830053,15.173913 20.04,15.173913 Z M20.04,11.6956522 L5.96,11.6956522 C5.71699471,11.6956522 5.52,11.5009934 5.52,11.2608696 C5.52,11.0207458 5.71699471,10.826087 5.96,10.826087 L20.04,10.826087 C20.2830053,10.826087 20.48,11.0207458 20.48,11.2608696 C20.48,11.5009934 20.2830053,11.6956522 20.04,11.6956522 Z" id="portfolio" fill="#5A81EA"></path>
            </g>
            <g id="Icon/leasing-26-info500" transform="translate(224.000000, 0.000000)" fill-rule="nonzero">
                <rect id="ico-zone" fill-opacity="0" fill="#D8D8D8" x="0" y="0" width="26" height="26"></rect>
                <path d="M24.5,11 L1.5,11 C1.2,11 1,11.2 1,11.5 L1,18.5 C1,19.9 2.1,21 3.5,21 L22.5,21 C23.9,21 25,19.9 25,18.5 L25,11.5 C25,11.2 24.8,11 24.5,11 Z M4.5,15 L8.5,15 C8.8,15 9,15.2 9,15.5 C9,15.8 8.8,16 8.5,16 L4.5,16 C4.2,16 4,15.8 4,15.5 C4,15.2 4.2,15 4.5,15 Z M11.5,18 L4.5,18 C4.2,18 4,17.8 4,17.5 C4,17.2 4.2,17 4.5,17 L11.5,17 C11.8,17 12,17.2 12,17.5 C12,17.8 11.8,18 11.5,18 Z M20,18 C19.6,18 19.3,17.9 19,17.7 C18.7,17.9 18.4,18 18,18 C16.9,18 16,17.1 16,16 C16,14.9 16.9,14 18,14 C18.4,14 18.7,14.1 19,14.3 C19.3,14.1 19.6,14 20,14 C21.1,14 22,14.9 22,16 C22,17.1 21.1,18 20,18 Z" id="Shape" fill="#777777"></path>
                <path d="M22.5,5 L3.5,5 C2.1,5 1,6.1 1,7.5 L1,8.5 C1,8.8 1.2,9 1.5,9 L24.5,9 C24.8,9 25,8.8 25,8.5 L25,7.5 C25,6.1 23.9,5 22.5,5 Z" id="Shape" fill="#777777"></path>
            </g>
            <g id="Icon/leasing-26-submit400" transform="translate(224.000000, 28.000000)" fill-rule="nonzero">
                <rect id="ico-zone" fill-opacity="0" fill="#D8D8D8" x="0" y="0" width="26" height="26"></rect>
                <path d="M24.5,11 L1.5,11 C1.2,11 1,11.2 1,11.5 L1,18.5 C1,19.9 2.1,21 3.5,21 L22.5,21 C23.9,21 25,19.9 25,18.5 L25,11.5 C25,11.2 24.8,11 24.5,11 Z M4.5,15 L8.5,15 C8.8,15 9,15.2 9,15.5 C9,15.8 8.8,16 8.5,16 L4.5,16 C4.2,16 4,15.8 4,15.5 C4,15.2 4.2,15 4.5,15 Z M11.5,18 L4.5,18 C4.2,18 4,17.8 4,17.5 C4,17.2 4.2,17 4.5,17 L11.5,17 C11.8,17 12,17.2 12,17.5 C12,17.8 11.8,18 11.5,18 Z M20,18 C19.6,18 19.3,17.9 19,17.7 C18.7,17.9 18.4,18 18,18 C16.9,18 16,17.1 16,16 C16,14.9 16.9,14 18,14 C18.4,14 18.7,14.1 19,14.3 C19.3,14.1 19.6,14 20,14 C21.1,14 22,14.9 22,16 C22,17.1 21.1,18 20,18 Z" id="Shape" fill="#5A81EA"></path>
                <path d="M22.5,5 L3.5,5 C2.1,5 1,6.1 1,7.5 L1,8.5 C1,8.8 1.2,9 1.5,9 L24.5,9 C24.8,9 25,8.8 25,8.5 L25,7.5 C25,6.1 23.9,5 22.5,5 Z" id="Shape" fill="#5A81EA"></path>
            </g>
            <g id="Icon/setting-26-white" transform="translate(84.000000, 0.000000)">
                <rect id="ico-zone" fill-opacity="0" fill="#D8D8D8" x="0" y="0" width="26" height="26"></rect>
                <path d="M24.4816,13.9847219 L22.4301875,14.5726797 C21.9448091,14.7120094 21.5637225,15.088807 21.4189081,15.5725773 C21.2548793,16.1136233 21.0388841,16.6375287 20.7739417,17.1369702 C20.5352438,17.5810999 20.5387419,18.1161239 20.7832269,18.5570944 L21.8131763,20.4135194 L20.4134195,21.8131763 L18.5569946,20.783127 C18.3376434,20.6617138 18.0910542,20.5979881 17.840343,20.5979238 C17.5950161,20.5984262 17.3535257,20.6588502 17.1368704,20.7739418 C16.6376316,21.0391676 16.1137644,21.2551747 15.5726771,21.4189082 C15.0887868,21.5637705 14.7119093,21.9449747 14.5725798,22.430487 L13.9847219,24.4816 L12.0152781,24.4816 L11.4271206,22.4296883 C11.287597,21.9441136 10.910547,21.5629251 10.4265242,21.4181094 C9.88568893,21.2545097 9.36205666,21.0386702 8.86302977,20.7736422 C8.64641748,20.6585323 8.40495463,20.5981066 8.15965697,20.5976243 C7.9088669,20.5975651 7.66220688,20.6614809 7.44300545,20.7833267 L5.58648066,21.8129766 L4.1868237,20.4134195 L5.2166733,18.5569946 C5.46054363,18.1167782 5.46430352,17.5828739 5.2266573,17.1392666 C4.96174585,16.639637 4.74575255,16.115569 4.5816909,15.5743744 C4.43735892,15.0899151 4.05602078,14.7124535 3.57011202,14.573079 L1.51840002,13.9847219 L1.51840002,12.0152781 L3.56951298,11.4273203 C4.05498684,11.2880454 4.43618789,10.9112463 4.58109186,10.4274227 C4.74492263,9.88668682 4.96078791,9.36310651 5.2256589,8.86402816 C5.46496661,8.419929 5.46169313,7.88454448 5.21697282,7.4434048 L4.18662402,5.5863808 L5.5865805,4.18702336 L7.44270593,5.21657344 C7.6620813,5.33816474 7.90873857,5.40206203 8.15955713,5.40227584 C8.40485479,5.40179351 8.64631764,5.34136782 8.86292993,5.22625792 C9.36203828,4.96127153 9.88564998,4.74527335 10.4264243,4.58129152 C10.9105547,4.43662007 11.2876939,4.05537941 11.4271206,3.56971264 L12.0150784,1.5184 L13.9848218,1.5184 L14.5725798,3.56981248 C14.711897,4.05508543 15.088613,4.43609044 15.5722778,4.58089216 C16.1132229,4.74484433 16.6370031,4.96084304 17.1362714,5.22585856 C17.3529816,5.34133195 17.5946882,5.40193856 17.8402432,5.40237568 C18.0909272,5.40234689 18.3374929,5.3386184 18.5567949,5.21717248 L20.4138189,4.1871232 L21.8134758,5.58678016 L20.7834265,7.44250624 C20.5392854,7.8829717 20.5355251,8.41727471 20.7734425,8.8611328 C21.0383674,9.36076848 21.2543934,9.88483449 21.4185088,10.426025 C21.5630222,10.9103755 21.9442858,11.2877633 22.4300877,11.4273203 L24.4816,12.0152781 L24.4816,13.9847219 Z M13,17.4928 C14.1915646,17.4928 15.3343259,17.0194528 16.1768893,16.1768893 C17.0194528,15.3343259 17.4928,14.1915646 17.4928,13 C17.4928,10.5186951 15.4813049,8.5072 13,8.5072 C10.5186951,8.5072 8.5072,10.5186951 8.5072,13 C8.5072,15.4813049 10.5186951,17.4928 13,17.4928 Z" id="Path"></path>
                <path d="M24.7566592,11.0553165 L22.704448,10.4674586 C22.5448596,10.4207612 22.4200205,10.2960351 22.3731789,10.136489 C22.1904507,9.53352627 21.9497091,8.94969446 21.6543309,8.39318272 C21.5753296,8.24756203 21.5758939,8.07174092 21.6558285,7.9266304 L22.6861773,6.071104 C22.902444,5.68148692 22.8343294,5.19572208 22.5192448,4.88061184 L21.1195878,3.48055552 C20.8045876,3.16521975 20.3186047,3.09715605 19.9290957,3.31382272 L18.072471,4.343872 C18.0014266,4.38311006 17.9216028,4.40371861 17.8404429,4.403776 C17.7586278,4.40351282 17.678117,4.38325659 17.6059187,4.34477056 C17.0497238,4.04916169 16.4660678,3.80840987 15.8632115,3.62592256 C15.7039603,3.57886977 15.57945,3.45424669 15.5325414,3.29495296 L14.9446835,1.24344064 C14.8219946,0.81517434 14.4304153,0.520013242 13.9849216,0.52 L12.0150784,0.52 C11.5695847,0.520013242 11.1780054,0.81517434 11.0553165,1.24344064 L10.4674586,3.29485312 C10.4205814,3.45448333 10.2957914,3.57934857 10.1361894,3.62632192 C9.53353499,3.80892593 8.95005578,4.0496738 8.39398145,4.34516992 C8.32185014,4.38364338 8.24140694,4.40389985 8.15965697,4.40417536 C8.07839668,4.40415988 7.99846579,4.38355028 7.92732929,4.34427136 L6.07110402,3.31382272 C5.68159494,3.09715605 5.19561204,3.16521975 4.88061186,3.48055552 L3.48085506,4.88021248 C3.16554372,5.19536479 3.09737771,5.68136849 3.31382274,6.071104 L4.34387202,7.92752896 C4.42381397,8.07288699 4.42407747,8.24898386 4.3445709,8.39458048 C4.04905062,8.95050454 3.80830123,9.53385368 3.6257229,10.1363891 C3.57889532,10.2959791 3.45400026,10.4207236 3.29435394,10.4673587 L1.24324098,11.0553165 C0.814982684,11.1780995 0.519898634,11.5697662 0.520000026,12.0152781 L0.520000026,13.9848218 C0.519968717,14.4303524 0.815138788,14.8219844 1.24344066,14.9446835 L3.29505282,15.5326413 C3.45476874,15.5791232 3.57969555,15.7039371 3.62632194,15.8636109 C3.80910329,16.4665546 4.04984281,17.0503814 4.34516994,17.6069171 C4.42410089,17.7523786 4.42353649,17.9280191 4.34367234,18.0729702 L3.31382274,19.928896 C3.09781054,20.3183919 3.16591232,20.8038615 3.48075522,21.118889 L4.88041218,22.5185459 C5.1954501,22.8337302 5.68122265,22.9019681 6.07090434,22.6857779 L7.92732929,21.656128 C7.99846579,21.6168491 8.07839668,21.5962395 8.15965697,21.596224 C8.24140694,21.5964995 8.32185014,21.616756 8.39398145,21.6552294 C8.95004611,21.9507461 9.53352735,22.1914948 10.1361894,22.3740774 C10.2957914,22.4210508 10.4205814,22.545916 10.4674586,22.7055462 L11.0555162,24.7569587 C11.1783526,25.1850667 11.569896,25.4800378 12.0152781,25.48 L13.9848218,25.48 C14.4303154,25.4799868 14.8218947,25.1848257 14.9445837,24.7565594 L15.5323418,22.7051469 C15.579044,22.5456245 15.7037889,22.4208796 15.8633114,22.3741773 C16.4661315,22.1914987 17.0498024,21.9507545 17.6061184,21.6553293 C17.6782081,21.6168412 17.7586228,21.5965833 17.840343,21.5963238 C17.9216288,21.5961373 18.0016096,21.6167597 18.0726707,21.6562278 L19.928896,22.6861773 C20.3185534,22.9023165 20.8042669,22.8340812 21.1192883,22.5189453 L22.5190451,21.1192883 C22.833888,20.8042609 22.9019898,20.3187913 22.6859776,19.9292954 L21.656128,18.0722714 C21.5762189,17.9271094 21.5758425,17.7512217 21.6551296,17.605719 C21.9505531,17.0494022 22.1912972,16.4657315 22.3739776,15.862912 C22.4211012,15.7034979 22.5458758,15.5788737 22.7053465,15.5319424 L24.7566592,14.9444838 C25.1848859,14.821758 25.4799995,14.4301877 25.48,13.9847219 L25.48,12.0152781 C25.4800886,11.5697383 25.1849571,11.1780627 24.7566592,11.0553165 Z M24.4816,13.9847219 L22.4301875,14.5726797 C21.9448091,14.7120094 21.5637225,15.088807 21.4189081,15.5725773 C21.2548793,16.1136233 21.0388841,16.6375287 20.7739417,17.1369702 C20.5352438,17.5810999 20.5387419,18.1161239 20.7832269,18.5570944 L21.8131763,20.4135194 L20.4134195,21.8131763 L18.5569946,20.783127 C18.3376434,20.6617138 18.0910542,20.5979881 17.840343,20.5979238 C17.5950161,20.5984262 17.3535257,20.6588502 17.1368704,20.7739418 C16.6376316,21.0391676 16.1137644,21.2551747 15.5726771,21.4189082 C15.0887868,21.5637705 14.7119093,21.9449747 14.5725798,22.430487 L13.9847219,24.4816 L12.0152781,24.4816 L11.4271206,22.4296883 C11.287597,21.9441136 10.910547,21.5629251 10.4265242,21.4181094 C9.88568893,21.2545097 9.36205666,21.0386702 8.86302977,20.7736422 C8.64641748,20.6585323 8.40495463,20.5981066 8.15965697,20.5976243 C7.9088669,20.5975651 7.66220688,20.6614809 7.44300545,20.7833267 L5.58648066,21.8129766 L4.1868237,20.4134195 L5.2166733,18.5569946 C5.46054363,18.1167782 5.46430352,17.5828739 5.2266573,17.1392666 C4.96174585,16.639637 4.74575255,16.115569 4.5816909,15.5743744 C4.43735892,15.0899151 4.05602078,14.7124535 3.57011202,14.573079 L1.51840002,13.9847219 L1.51840002,12.0152781 L3.56951298,11.4273203 C4.05498684,11.2880454 4.43618789,10.9112463 4.58109186,10.4274227 C4.74492263,9.88668682 4.96078791,9.36310651 5.2256589,8.86402816 C5.46496661,8.419929 5.46169313,7.88454448 5.21697282,7.4434048 L4.18662402,5.5863808 L5.5865805,4.18702336 L7.44270593,5.21657344 C7.6620813,5.33816474 7.90873857,5.40206203 8.15955713,5.40227584 C8.40485479,5.40179351 8.64631764,5.34136782 8.86292993,5.22625792 C9.36203828,4.96127153 9.88564998,4.74527335 10.4264243,4.58129152 C10.9105547,4.43662007 11.2876939,4.05537941 11.4271206,3.56971264 L12.0150784,1.5184 L13.9848218,1.5184 L14.5725798,3.56981248 C14.711897,4.05508543 15.088613,4.43609044 15.5722778,4.58089216 C16.1132229,4.74484433 16.6370031,4.96084304 17.1362714,5.22585856 C17.3529816,5.34133195 17.5946882,5.40193856 17.8402432,5.40237568 C18.0909272,5.40234689 18.3374929,5.3386184 18.5567949,5.21717248 L20.4138189,4.1871232 L21.8134758,5.58678016 L20.7834265,7.44250624 C20.5392854,7.8829717 20.5355251,8.41727471 20.7734425,8.8611328 C21.0383674,9.36076848 21.2543934,9.88483449 21.4185088,10.426025 C21.5630222,10.9103755 21.9442858,11.2877633 22.4300877,11.4273203 L24.4816,12.0152781 L24.4816,13.9847219 Z" id="Shape" fill="#FFFFFF" fill-rule="nonzero"></path>
                <path d="M13,7.5088 C9.96729398,7.5088 7.5088,9.96729398 7.5088,13 C7.5088,16.032706 9.96729398,18.4912 13,18.4912 C16.032706,18.4912 18.4912,16.032706 18.4912,13 C18.4877887,9.96870812 16.0312919,7.51221133 13,7.5088 Z M13,17.4928 C10.5186951,17.4928 8.5072,15.4813049 8.5072,13 C8.5072,10.5186951 10.5186951,8.5072 13,8.5072 C15.4813049,8.5072 17.4928,10.5186951 17.4928,13 C17.4928,14.1915646 17.0194528,15.3343259 16.1768893,16.1768893 C15.3343259,17.0194528 14.1915646,17.4928 13,17.4928 Z" id="Shape" fill="#FFFFFF" fill-rule="nonzero"></path>
            </g>
            <g id="Icon/wallet-linear-26-white">
                <rect id="ico-zone" fill-opacity="0" fill="#D8D8D8" x="0" y="0" width="26" height="26"></rect>
                <path d="M21.84,23.9881309 L4.16,23.9881309 C2.1528,23.9881309 0.52,22.3439127 0.52,20.3226764 L0.52,9.84994909 C0.52,7.82871273 2.1528,6.18449455 4.16,6.18449455 L21.84,6.18449455 C23.8472,6.18449455 25.48,7.82871273 25.48,9.84994909 L25.48,20.3226764 C25.48,22.3439127 23.8472,23.9881309 21.84,23.9881309 Z M4.16,7.23176727 C2.72584,7.23176727 1.56,8.40680727 1.56,9.84994909 L1.56,20.3226764 C1.56,21.7658182 2.72584,22.9408582 4.16,22.9408582 L21.84,22.9408582 C23.27416,22.9408582 24.44,21.7658182 24.44,20.3226764 L24.44,9.84994909 C24.44,8.40680727 23.27416,7.23176727 21.84,7.23176727 L4.16,7.23176727 Z" id="Shape" fill="#FFFFFF" fill-rule="nonzero"></path>
                <path d="M4.16,7.23176727 C2.72584,7.23176727 1.56,8.40680727 1.56,9.84994909 L1.56,20.3226764 C1.56,21.7658182 2.72584,22.9408582 4.16,22.9408582 L21.84,22.9408582 C23.27416,22.9408582 24.44,21.7658182 24.44,20.3226764 L24.44,9.84994909 C24.44,8.40680727 23.27416,7.23176727 21.84,7.23176727 L4.16,7.23176727 Z" id="Path"></path>
                <path d="M20.8,16.6572218 C19.93992,16.6572218 19.24,15.9524073 19.24,15.0863127 C19.24,14.2202182 19.93992,13.5154036 20.8,13.5154036 C21.66008,13.5154036 22.36,14.2202182 22.36,15.0863127 C22.36,15.9524073 21.66008,16.6572218 20.8,16.6572218 Z M20.8,14.5626764 C20.514,14.5626764 20.28,14.7972655 20.28,15.0863127 C20.28,15.37536 20.514,15.6099491 20.8,15.6099491 C21.086,15.6099491 21.32,15.37536 21.32,15.0863127 C21.32,14.7972655 21.086,14.5626764 20.8,14.5626764 Z" id="Shape" fill="#FFFFFF" fill-rule="nonzero"></path>
                <path d="M24.96,18.7517673 L20.8,18.7517673 C18.7928,18.7517673 17.16,17.1075491 17.16,15.0863127 C17.16,13.0650764 18.7928,11.4208582 20.8,11.4208582 L24.96,11.4208582 C25.24704,11.4208582 25.48,11.6554473 25.48,11.9444945 L25.48,18.2281309 C25.48,18.5171782 25.24704,18.7517673 24.96,18.7517673 Z M20.8,12.4681309 C19.36584,12.4681309 18.2,13.6431709 18.2,15.0863127 C18.2,16.5294545 19.36584,17.7044945 20.8,17.7044945 L24.44,17.7044945 L24.44,12.4681309 L20.8,12.4681309 Z M21.32,7.23176727 C21.12968,7.23176727 20.94664,7.12599273 20.85512,6.94272 L18.65344,2.50856727 C18.33624,1.86973091 17.7892,1.39845818 17.1132,1.18376727 C16.43928,0.968029091 15.72064,1.03610182 15.09664,1.37541818 L4.40648,7.16893091 C4.1548,7.30612364 3.83864,7.21082182 3.7024,6.95633455 C3.56616,6.70184727 3.6608,6.38347636 3.91352,6.24733091 L14.6016,0.451723636 C15.47728,-0.0216436364 16.47984,-0.115898182 17.42624,0.184669091 C18.37264,0.486283636 19.13912,1.14501818 19.5832,2.03938909 L21.78488,6.47354182 C21.9128,6.73221818 21.8088,7.0464 21.55192,7.17626182 C21.47704,7.21396364 21.398,7.23176727 21.32,7.23176727 Z" id="Shape" fill="#FFFFFF" fill-rule="nonzero"></path>
                <path d="M11.51384,7.23176727 C11.32872,7.23176727 11.14984,7.13227636 11.05624,6.95633455 C10.92,6.70184727 11.01464,6.38452364 11.26736,6.24733091 L18.99352,2.05824 C19.2452,1.92209455 19.56136,2.01634909 19.69864,2.27188364 C19.83488,2.52637091 19.74024,2.84369455 19.48752,2.98088727 L11.76136,7.16997818 C11.68232,7.21186909 11.59704,7.23176727 11.51384,7.23176727 Z M1.04,10.3735855 C0.75296,10.3735855 0.52,10.1389964 0.52,9.84994909 L0.52,8.80267636 C0.52,5.62629818 3.08672,3.04267636 6.24,3.04267636 L9.88,3.04267636 C10.16704,3.04267636 10.4,3.27726545 10.4,3.56631273 C10.4,3.85536 10.16704,4.08994909 9.88,4.08994909 L6.24,4.08994909 C3.65976,4.08994909 1.56,6.20439273 1.56,8.80267636 L1.56,9.84994909 C1.56,10.1389964 1.32704,10.3735855 1.04,10.3735855 Z M24.96,10.3735855 C24.67296,10.3735855 24.44,10.1389964 24.44,9.84994909 L24.44,8.80267636 C24.44,6.20439273 22.34024,4.08994909 19.76,4.08994909 C19.47296,4.08994909 19.24,3.85536 19.24,3.56631273 C19.24,3.27726545 19.47296,3.04267636 19.76,3.04267636 C22.91328,3.04267636 25.48,5.62629818 25.48,8.80267636 L25.48,9.84994909 C25.48,10.1389964 25.24704,10.3735855 24.96,10.3735855 Z" id="Shape" fill="#FFFFFF" fill-rule="nonzero"></path>
            </g>
            <g id="Icon/token-linear-26-basic700" transform="translate(56.000000, 0.000000)">
                <rect id="ico-zone" fill-opacity="0" fill="#D8D8D8" x="0.928571429" y="0.928571429" width="24.1428571" height="24.1428571"></rect>
                <path d="M5.83319873,5.34830358 C5.56652409,5.34830358 5.35034158,5.56448609 5.35034158,5.83116072 L5.35034158,20.2545708 C5.35034158,20.5212455 5.56652409,20.737428 5.83319873,20.737428 L20.2566089,20.737428 C20.5232836,20.737428 20.7394661,20.5212455 20.7394661,20.2545708 L20.7394661,5.83116072 C20.7394661,5.56448609 20.5232836,5.34830358 20.2566089,5.34830358 L5.83319873,5.34830358 Z M5.83217979,4.38360824 L20.25559,4.38360824 C21.0556139,4.38360824 21.7041614,5.03215576 21.7041614,5.83217967 L21.7041614,20.2555898 C21.7041614,21.0556137 21.0556139,21.7041612 20.25559,21.7041612 L5.83217979,21.7041612 C5.03215588,21.7041612 4.38360836,21.0556137 4.38360836,20.2555898 L4.38360836,5.83217967 C4.38360836,5.03215576 5.03215588,4.38360824 5.83217979,4.38360824 Z" id="box" fill="#FFFFFF" fill-rule="nonzero" transform="translate(13.043885, 13.043885) rotate(45.000000) translate(-13.043885, -13.043885) "></path>
                <path d="M8.94738718,8.46452989 C8.68071254,8.46452989 8.46453004,8.68071239 8.46453004,8.94738703 L8.46453004,17.1403824 C8.46453004,17.407057 8.68071254,17.6232396 8.94738718,17.6232396 L17.1403826,17.6232396 C17.4070572,17.6232396 17.6232397,17.407057 17.6232397,17.1403824 L17.6232397,8.94738703 C17.6232397,8.68071239 17.4070572,8.46452989 17.1403826,8.46452989 L8.94738718,8.46452989 Z M8.94738718,7.4988156 L17.1403826,7.4988156 C17.9404065,7.4988156 18.588954,8.14736312 18.588954,8.94738703 L18.588954,17.1403824 C18.588954,17.9404063 17.9404065,18.5889538 17.1403826,18.5889538 L8.94738718,18.5889538 C8.14736327,18.5889538 7.49881575,17.9404063 7.49881575,17.1403824 L7.49881575,8.94738703 C7.49881575,8.14736312 8.14736327,7.4988156 8.94738718,7.4988156 Z" id="box" fill="#FFFFFF" fill-rule="nonzero" transform="translate(13.043885, 13.043885) rotate(45.000000) translate(-13.043885, -13.043885) "></path>
                <path d="M13.3894009,11.0529954 C12.9592805,11.0529954 12.6105991,10.7043139 12.6105991,10.2741935 C12.6105991,9.84407317 12.9592805,9.49539171 13.3894009,9.49539171 C13.8195213,9.49539171 14.1682028,9.84407317 14.1682028,10.2741935 C14.1682028,10.7043139 13.8195213,11.0529954 13.3894009,11.0529954 Z M15.7258065,13.3894009 C15.2956861,13.3894009 14.9470046,13.0407195 14.9470046,12.6105991 C14.9470046,12.1804787 15.2956861,11.8317972 15.7258065,11.8317972 C16.1559268,11.8317972 16.5046083,12.1804787 16.5046083,12.6105991 C16.5046083,13.0407195 16.1559268,13.3894009 15.7258065,13.3894009 Z M13.3894009,13.3894009 C12.9592805,13.3894009 12.6105991,13.0407195 12.6105991,12.6105991 C12.6105991,12.1804787 12.9592805,11.8317972 13.3894009,11.8317972 C13.8195213,11.8317972 14.1682028,12.1804787 14.1682028,12.6105991 C14.1682028,13.0407195 13.8195213,13.3894009 13.3894009,13.3894009 Z" id="dots" fill="#FFFFFF" fill-rule="nonzero"></path>
            </g>
            <g id="Icon/dex-linear-26-white" transform="translate(28.000000, 0.000000)">
                <rect id="ico-zone" fill-opacity="0" fill="#D8D8D8" x="0" y="0" width="26" height="26"></rect>
                <path d="M2.9,8.77096606 L2.9,1.47826087 C2.9,1.21412468 3.11490332,1 3.38,1 C3.64509668,1 3.86,1.21412468 3.86,1.47826087 L3.86,8.77096606 L5.45864508,8.77096606 C6.12138679,8.77096606 6.6586451,9.30822436 6.6586451,9.97096607 L6.6586451,18.8894171 C6.6586451,19.5521588 6.1213868,20.0894171 5.45864508,20.0894171 L3.86,20.0894171 L3.86,24.5217391 C3.86,24.7858753 3.64509668,25 3.38,25 C3.11490332,25 2.9,24.7858753 2.9,24.5217391 L2.9,20.0894171 L1.30000001,20.0894171 C0.637258297,20.0894171 0.1,19.5521588 0.1,18.8894171 L0.1,9.97096607 C0.1,9.30822437 0.637258305,8.77096606 1.30000001,8.77096606 L2.9,8.77096606 Z M1.30000001,9.77096606 C1.18954305,9.77096606 1.1,9.86050911 1.1,9.97096607 L1.1,18.8894171 C1.1,18.9998741 1.18954304,19.0894171 1.30000001,19.0894171 L5.45864508,19.0894171 C5.56910206,19.0894171 5.6586451,18.9998741 5.6586451,18.8894171 L5.6586451,9.97096607 C5.6586451,9.86050911 5.56910204,9.77096606 5.45864508,9.77096606 L1.30000001,9.77096606 Z" id="Shape" fill="#FFFFFF" fill-rule="nonzero"></path>
                <path d="M12.4,6.41047605 L12.4,1.47826087 C12.4,1.21412468 12.6149033,1 12.88,1 C13.1450967,1 13.36,1.21412468 13.36,1.47826087 L13.36,6.41047605 L14.9673744,6.41047605 C15.3539737,6.41047605 15.6673744,6.72387672 15.6673744,7.11047606 L15.6673744,13.1977392 C15.6673744,13.5843385 15.3539737,13.8977392 14.9673744,13.8977392 L13.36,13.8977392 L13.36,17.8695652 C13.36,18.1337014 13.1450967,18.3478261 12.88,18.3478261 C12.6149033,18.3478261 12.4,18.1337014 12.4,17.8695652 L12.4,13.8977392 L10.8087294,13.8977392 C10.42213,13.8977392 10.1087293,13.5843385 10.1087293,13.1977392 L10.1087293,7.11047606 C10.1087293,6.72387673 10.42213,6.41047605 10.8087294,6.41047605 L12.4,6.41047605 Z M11.1087293,7.41047605 L11.1087293,12.8977392 L14.6673744,12.8977392 L14.6673744,7.41047605 L11.1087293,7.41047605 Z" id="Shape" fill="#FFFFFF" fill-rule="nonzero"></path>
                <path d="M20.6,7.40799672 L20.6,16.6779782 L24.1586451,16.6779782 L24.1586451,7.40799672 L20.6,7.40799672 Z M21.9,6.40799672 L21.9,1.47826087 C21.9,1.21412468 22.1149033,1 22.38,1 C22.6450967,1 22.86,1.21412468 22.86,1.47826087 L22.86,6.40799672 L24.4586451,6.40799672 C24.8452444,6.40799672 25.1586451,6.72139739 25.1586451,7.10799673 L25.1586451,16.9779782 C25.1586451,17.3645775 24.8452444,17.6779782 24.4586451,17.6779782 L22.86,17.6779782 L22.86,24.5217391 C22.86,24.7858753 22.6450967,25 22.38,25 C22.1149033,25 21.9,24.7858753 21.9,24.5217391 L21.9,17.6779782 L20.3,17.6779782 C19.9134007,17.6779782 19.6,17.3645775 19.6,16.9779782 L19.6,7.10799673 C19.6,6.72139739 19.9134007,6.40799672 20.3,6.40799672 L21.9,6.40799672 Z" id="Shape" fill="#FFFFFF" fill-rule="nonzero"></path>
            </g>
            <g id="Icon/exit-26-white" transform="translate(112.000000, 0.000000)">
                <rect id="ico-zone" fill-opacity="0" fill="#D8D8D8" x="0" y="0" width="26" height="26"></rect>
                <path d="M19.2456676,5.17101969 C21.6128435,7.15281426 22.98,10.1186755 22.98,13.2846154 C22.98,19.0281158 18.5116479,23.6846154 13,23.6846154 C7.48793472,23.6846154 3.02,19.0285271 3.02,13.2846154 C3.02,10.1187338 4.38698972,7.15313475 6.75342754,5.17278944 C7.00126417,4.96538821 7.04082265,4.58986723 6.84201383,4.33208834 C6.641308,4.07184976 6.2740571,4.03042246 6.02382785,4.23982594 C3.38534593,6.44783041 1.86,9.75607701 1.86,13.2846154 C1.86,19.6914141 6.84726988,24.8846154 13,24.8846154 C19.1523112,24.8846154 24.14,19.6910043 24.14,13.2846154 C24.14,9.75609877 22.6145611,6.44766728 19.9754524,4.23821108 C19.7252646,4.0287544 19.3580052,4.07010387 19.1572479,4.33030009 C18.9583882,4.5880367 18.9978723,4.96356589 19.2456676,5.17101969 Z" id="Shape" fill="#FFFFFF" fill-rule="nonzero"></path>
                <path d="M12.42,1.47966208 L12.42,12.3126456 C12.42,12.6327849 12.6796755,12.8923077 13,12.8923077 C13.3203245,12.8923077 13.58,12.6327849 13.58,12.3126456 L13.58,1.47966208 C13.58,1.1595228 13.3203245,0.9 13,0.9 C12.6796755,0.9 12.42,1.1595228 12.42,1.47966208 Z" id="Shape" fill="#FFFFFF" fill-rule="nonzero"></path>
            </g>
            <g id="login-26-basic-700" transform="translate(112.000000, 28.000000)">
                <polygon id="Shape" points="0 0 26 0 26 26 0 26"></polygon>
                <g id="Group" transform="translate(0.000000, 1.000000)" fill="#FFFFFF" fill-rule="nonzero">
                    <path d="M5.176,5.749 C7.158,3.382 10.124,2.015 13.29,2.015 C19.034,2.015 23.69,6.483 23.69,11.995 C23.69,17.507 19.034,21.975 13.29,21.975 C10.124,21.975 7.159,20.608 5.178,18.241 C4.96584406,17.9931634 4.59691359,17.9545136 4.338,18.153 C4.21358846,18.246624 4.13315281,18.3872903 4.11556385,18.5419975 C4.0979749,18.6967047 4.1447806,18.8518373 4.245,18.971 C6.453,21.609 9.761,23.135 13.29,23.135 C19.697,23.135 24.89,18.147 24.89,11.995 C24.89,5.842 19.696,0.855 13.29,0.855 C9.761,0.855 6.453,2.38 4.244,5.019 C4.14367228,5.13803443 4.09669973,5.29308341 4.11409877,5.44778351 C4.1314978,5.60248361 4.21173773,5.74322508 4.336,5.837 C4.593,6.037 4.969,5.997 5.176,5.749 Z" id="Shape"></path>
                    <path d="M14.46,12.174 C14.448743,12.2340397 14.4222261,12.2901727 14.383,12.337 L10.847,15.873 C10.734,15.986 10.31,16.043 10.084,15.816 C9.857,15.59 9.914,15.166 10.027,15.053 L12.511,12.569 L1.177,12.569 C0.803,12.569 0.5,12.309 0.5,11.989 C0.5,11.669 0.803,11.409 1.177,11.409 L12.513,11.409 L10.022,8.918 C9.909,8.805 9.855,8.384 10.081,8.157 C10.308,7.931 10.729,7.985 10.842,8.097 L14.292,11.547 C14.3142338,11.5657068 14.3346572,11.586465 14.353,11.609 L14.378,11.633 C14.408,11.664 14.435,11.718 14.453,11.784 C14.5076827,11.9077061 14.5105637,12.0481555 14.461,12.174 L14.46,12.174 Z" id="Shape"></path>
                </g>
            </g>
        </g>
    </g>
</svg>