<svg xmlns="http://www.w3.org/2000/svg" width="24" height="24" viewBox="0 0 24 24">
    <g fill="none" fill-rule="evenodd">
        <path fill="none" d="M0 0h24v24H0z"/>
        <path fill="#424242" fill-rule="nonzero" d="M2 3.99C2 2.892 2.898 2 3.99 2h16.02C21.108 2 22 2.898 22 3.99v16.02c0 1.099-.898 1.99-1.99 1.99H3.99C2.892 22 2 21.102 2 20.01V3.99z"/>
        <g fill="#8C8C8C" fill-rule="nonzero">
            <path d="M12.005 8.088l2.12-2.121.708.707-2.829 2.829-.616-.618L9.17 6.668l.708-.707 2.127 2.127zm-.006 7.827l-2.121 2.12-.708-.707L12 14.5l.616.617 2.218 2.217-.708.708L12 15.915zM6.5 11.5h11v1h-11v-1z"/>
        </g>
    </g>
</svg>
