<svg xmlns="http://www.w3.org/2000/svg" width="44" height="44" viewBox="0 0 44 44">
  <defs>
    <filter id="qr-code-a" width="106.3%" height="104.7%" x="-3.2%" y="-1.8%" filterUnits="objectBoundingBox">
      <feOffset dy="4" in="SourceAlpha" result="shadowOffsetOuter1"/>
      <feGaussianBlur in="shadowOffsetOuter1" result="shadowBlurOuter1" stdDeviation="5"/>
      <feColorMatrix in="shadowBlurOuter1" result="shadowMatrixOuter1" values="0 0 0 0 0   0 0 0 0 0   0 0 0 0 0  0 0 0 0.1 0"/>
      <feMerge>
        <feMergeNode in="shadowMatrixOuter1"/>
        <feMergeNode in="SourceGraphic"/>
      </feMerge>
    </filter>
  </defs>
  <g fill="#8c8c8c" filter="url(#qr-code-a)" transform="translate(10 6)">
    <path d="M7.5 8L.5 8C.224 8 0 7.776 0 7.5L0 .5C0 .224.224 0 .5 0L7.5 0C7.776 0 8 .224 8 .5L8 7.5C8 7.776 7.776 8 7.5 8zM1 7L7 7 7 1 1 1 1 7zM23.5 8L16.5 8C16.224 8 16 7.776 16 7.5L16 .5C16 .224 16.224 0 16.5 0L23.5 0C23.776 0 24 .224 24 .5L24 7.5C24 7.776 23.776 8 23.5 8zM17 7L23 7 23 1 17 1 17 7zM7.5 24L.5 24C.224 24 0 23.776 0 23.5L0 16.5C0 16.224.224 16 .5 16L7.5 16C7.776 16 8 16.224 8 16.5L8 23.5C8 23.776 7.776 24 7.5 24zM1 23L7 23 7 17 1 17 1 23zM7.5 11C7.224 11 7 10.776 7 10.5L7 10 1 10C.724 10 .5 9.776.5 9.5.5 9.224.724 9 1 9L7.5 9C7.776 9 8 9.224 8 9.5L8 10.5C8 10.776 7.776 11 7.5 11zM7 15L.5 15C.224 15 0 14.776 0 14.5L0 13.5C0 13.224.224 13 .5 13 .776 13 1 13.224 1 13.5L1 14 7 14C7.276 14 7.5 14.224 7.5 14.5 7.5 14.776 7.276 15 7 15zM23.5 24L21.5 24C21.224 24 21 23.776 21 23.5 21 23.224 21.224 23 21.5 23L23 23 23 16.5C23 16.224 23.224 16 23.5 16 23.776 16 24 16.224 24 16.5L24 23.5C24 23.776 23.776 24 23.5 24zM9.5 23.5C9.224 23.5 9 23.276 9 23L9 16.5C9 16.224 9.224 16 9.5 16L10.5 16C10.776 16 11 16.224 11 16.5 11 16.776 10.776 17 10.5 17L10 17 10 23C10 23.276 9.776 23.5 9.5 23.5zM18.5 24L12.5 24C12.224 24 12 23.776 12 23.5 12 23.224 12.224 23 12.5 23L18.5 23C18.776 23 19 23.224 19 23.5 19 23.776 18.776 24 18.5 24zM14.5 22L11.5 22C11.224 22 11 21.776 11 21.5 11 21.224 11.224 21 11.5 21L14.5 21C14.776 21 15 21.224 15 21.5 15 21.776 14.776 22 14.5 22z"/>
    <path d="M21.5 22L18.5 22C18.224 22 18 21.776 18 21.5 18 21.224 18.224 21 18.5 21L21.5 21C21.776 21 22 21.224 22 21.5 22 21.776 21.776 22 21.5 22zM20.5 17L18.5 17C18.224 17 18 16.776 18 16.5 18 16.224 18.224 16 18.5 16L20.5 16C20.776 16 21 16.224 21 16.5 21 16.776 20.776 17 20.5 17zM16.5 17L15.5 17C15.224 17 15 16.776 15 16.5 15 16.224 15.224 16 15.5 16L16.5 16C16.776 16 17 16.224 17 16.5 17 16.776 16.776 17 16.5 17zM13.5 17L12.5 17C12.224 17 12 16.776 12 16.5 12 16.224 12.224 16 12.5 16L13.5 16C13.776 16 14 16.224 14 16.5 14 16.776 13.776 17 13.5 17zM18.5 20C18.224 20 18 19.776 18 19.5L18 18.5C18 18.224 18.224 18 18.5 18 18.776 18 19 18.224 19 18.5L19 19.5C19 19.776 18.776 20 18.5 20zM21.5 20C21.224 20 21 19.776 21 19.5L21 18.5C21 18.224 21.224 18 21.5 18 21.776 18 22 18.224 22 18.5L22 19.5C22 19.776 21.776 20 21.5 20zM11.5 20C11.224 20 11 19.776 11 19.5L11 18.5C11 18.224 11.224 18 11.5 18 11.776 18 12 18.224 12 18.5L12 19.5C12 19.776 11.776 20 11.5 20zM14.5 20C14.224 20 14 19.776 14 19.5L14 18.5C14 18.224 14.224 18 14.5 18 14.776 18 15 18.224 15 18.5L15 19.5C15 19.776 14.776 20 14.5 20zM2.5 12L1.5 12C1.224 12 1 11.776 1 11.5 1 11.224 1.224 11 1.5 11L2.5 11C2.776 11 3 11.224 3 11.5 3 11.776 2.776 12 2.5 12zM5.5 13L4.5 13C4.224 13 4 12.776 4 12.5 4 12.224 4.224 12 4.5 12L5.5 12C5.776 12 6 12.224 6 12.5 6 12.776 5.776 13 5.5 13zM23.5 15L15.5 15C15.224 15 15 14.776 15 14.5 15 14.224 15.224 14 15.5 14L23.5 14C23.776 14 24 14.224 24 14.5 24 14.776 23.776 15 23.5 15zM23.5 10L15.5 10C15.224 10 15 9.776 15 9.5 15 9.224 15.224 9 15.5 9L23.5 9C23.776 9 24 9.224 24 9.5 24 9.776 23.776 10 23.5 10zM14.5 1L9.5 1C9.224 1 9 .776 9 .5 9 .224 9.224 0 9.5 0L14.5 0C14.776 0 15 .224 15 .5 15 .776 14.776 1 14.5 1zM9.5 8C9.224 8 9 7.776 9 7.5L9 2.5C9 2.224 9.224 2 9.5 2 9.776 2 10 2.224 10 2.5L10 7.5C10 7.776 9.776 8 9.5 8zM11.5 4C11.224 4 11 3.776 11 3.5L11 2.5C11 2.224 11.224 2 11.5 2 11.776 2 12 2.224 12 2.5L12 3.5C12 3.776 11.776 4 11.5 4zM12.5 7C12.224 7 12 6.776 12 6.5L12 5.5C12 5.224 12.224 5 12.5 5 12.776 5 13 5.224 13 5.5L13 6.5C13 6.776 12.776 7 12.5 7z"/>
    <path d="M14.5 7C14.224 7 14 6.776 14 6.5L14 .5C14 .224 14.224 0 14.5 0 14.776 0 15 .224 15 .5L15 6.5C15 6.776 14.776 7 14.5 7zM19.5 14.5C19.224 14.5 19 14.276 19 14L19 12.5C19 12.224 19.224 12 19.5 12 19.776 12 20 12.224 20 12.5L20 14C20 14.276 19.776 14.5 19.5 14.5zM23.5 13C23.224 13 23 12.776 23 12.5L23 11.5C23 11.224 23.224 11 23.5 11 23.776 11 24 11.224 24 11.5L24 12.5C24 12.776 23.776 13 23.5 13zM15.5 13C15.224 13 15 12.776 15 12.5L15 11.5C15 11.224 15.224 11 15.5 11 15.776 11 16 11.224 16 11.5L16 12.5C16 12.776 15.776 13 15.5 13zM17.5 13C17.224 13 17 12.776 17 12.5L17 11.5C17 11.224 17.224 11 17.5 11 17.776 11 18 11.224 18 11.5L18 12.5C18 12.776 17.776 13 17.5 13zM9.5 15C9.224 15 9 14.776 9 14.5L9 9.5C9 9.224 9.224 9 9.5 9 9.776 9 10 9.224 10 9.5L10 14.5C10 14.776 9.776 15 9.5 15z"/>
    <path d="M11.5 11L10 11C9.724 11 9.5 10.776 9.5 10.5 9.5 10.224 9.724 10 10 10L11.5 10C11.776 10 12 10.224 12 10.5 12 10.776 11.776 11 11.5 11zM13.5 14C13.224 14 13 13.776 13 13.5L13 8.5C13 8.224 13.224 8 13.5 8 13.776 8 14 8.224 14 8.5L14 13.5C14 13.776 13.776 14 13.5 14z"/>
    <path d="M13 13L11.5 13C11.224 13 11 12.776 11 12.5 11 12.224 11.224 12 11.5 12L13 12C13.276 12 13.5 12.224 13.5 12.5 13.5 12.776 13.276 13 13 13zM5.5 6L2.5 6C2.224 6 2 5.776 2 5.5L2 2.5C2 2.224 2.224 2 2.5 2L5.5 2C5.776 2 6 2.224 6 2.5L6 5.5C6 5.776 5.776 6 5.5 6zM3 5L5 5 5 3 3 3 3 5zM21.5 6L18.5 6C18.224 6 18 5.776 18 5.5L18 2.5C18 2.224 18.224 2 18.5 2L21.5 2C21.776 2 22 2.224 22 2.5L22 5.5C22 5.776 21.776 6 21.5 6zM19 5L21 5 21 3 19 3 19 5zM5.5 22L2.5 22C2.224 22 2 21.776 2 21.5L2 18.5C2 18.224 2.224 18 2.5 18L5.5 18C5.776 18 6 18.224 6 18.5L6 21.5C6 21.776 5.776 22 5.5 22zM3 21L5 21 5 19 3 19 3 21z"/>
  </g>
</svg>
