<svg xmlns="http://www.w3.org/2000/svg" width="106" height="106" viewBox="0 0 106 106">
  <g fill="#5A81EA" transform="translate(2 2)">
    <path d="M85.5,83.5 L85.5,39.7582097 C85.5,39.6159881 85.3839061,39.5 85.2401873,39.5 L58.5318689,39.5 C57.7034418,39.5 57.0318689,38.8284271 57.0318689,38 C57.0318689,37.1715729 57.7034418,36.5 58.5318689,36.5 L85.2401873,36.5 C87.0401486,36.5 88.5,37.9585216 88.5,39.7582097 L88.5,85 C88.5,85.8284271 87.8284271,86.5 87,86.5 L15,86.5 C14.1715729,86.5 13.5,85.8284271 13.5,85 L13.5,39.7582097 C13.5,37.9585216 14.9598514,36.5 16.7598127,36.5 L44.7746489,36.5 C45.603076,36.5 46.2746489,37.1715729 46.2746489,38 C46.2746489,38.8284271 45.603076,39.5 44.7746489,39.5 L16.7598127,39.5 C16.6160939,39.5 16.5,39.6159881 16.5,39.7582097 L16.5,83.5 L85.5,83.5 Z"/>
    <path d="M85.7986301 86.1468503C85.1652422 85.6128922 85.0846384 84.6665713 85.6185965 84.0331833 86.1525546 83.3997954 87.0988756 83.3191916 87.7322635 83.8531497L101.966817 95.8531497C103.03622 96.7546774 102.398705 98.5 101 98.5L0 98.5C-1.42166618 98.5-2.04573975 96.7065999-.931190244 95.8240388L14.2231076 83.8240388C14.8725731 83.3097566 15.8159769 83.4193443 16.3302591 84.0688098 16.8445412 84.7182752 16.7349535 85.661679 16.0854881 86.1759612L4.31054966 95.5 96.8934558 95.5 85.7986301 86.1468503zM0 103.5C-.828427125 103.5-1.5 102.828427-1.5 102-1.5 101.171573-.828427125 100.5 0 100.5L102 100.5C102.828427 100.5 103.5 101.171573 103.5 102 103.5 102.828427 102.828427 103.5 102 103.5L0 103.5zM50 60.5C50 62.4330395 47.9251031 64 45.8169906 64 43.7088782 64 42 62.4330395 42 60.5 42 58.5669605 43.7088782 57 45.8169906 57 47.9251031 57 50 58.5669605 50 60.5zM62 60.5C62 62.4330395 60.2911218 64 58.1830094 64 56.0748969 64 54 62.4330395 54 60.5 54 58.5669605 56.0748969 57 58.1830094 57 60.2911218 57 62 58.5669605 62 60.5zM50.0965841 68.6442472L51.6242892 65.5375383C51.9766632 64.8208206 53.0233368 64.8208206 53.3757108 65.5375383L54.9034159 68.6442472C55.2123577 69.2726982 54.742594 70 54.0276026 70L50.9723974 70C50.257406 70.0001997 49.7876423 69.2726982 50.0965841 68.6442472z"/>
    <path d="M61.2862093 77C61.2862093 77.8284271 60.6146364 78.5 59.7862093 78.5 58.9577822 78.5 58.2862093 77.8284271 58.2862093 77L58.2862093 74.3166748C58.2862093 73.4882476 58.9577822 72.8166748 59.7862093 72.8166748L59.8609966 72.8166748C60.2755807 72.8166748 60.970373 72.6504591 61.8098829 72.3483448 62.2411255 72.1931564 62.3858291 71.6471236 62.1069107 71.3180467 61.8618631 71.0416704 61.72752 70.6876525 61.72752 70.3209299 61.72752 68.8479072 62.1785603 67.4125703 63.0233717 66.2159446 64.6263447 63.9447429 65.5 61.2366293 65.5 58.3930611L65.5 57.1987131C65.5 51.4095043 61.8493185 46.3162868 56.4974642 44.4133145 55.7169122 44.1357716 55.3091427 43.2780162 55.5866855 42.4974642 55.8642284 41.7169122 56.7219838 41.3091427 57.5025358 41.5866855 64.0422199 43.9120175 68.5 50.1312519 68.5 57.1987131L68.5 58.3930611C68.5 61.8611783 67.4317361 65.1725299 65.4742684 67.9460039 65.0716078 68.5163491 64.8234233 69.1844548 64.7502679 69.8840975 65.8752291 71.8083485 65.0201144 74.3814411 62.8257077 75.1711271 62.2772792 75.36849 61.7644333 75.5254776 61.2862093 75.6352047L61.2862093 77zM38.4545997 67.9575151C36.542729 65.1920921 35.5 61.8923502 35.5 58.4371371L35.5 57.2456324C35.5 50.1025376 39.9796088 43.8292137 46.5119719 41.5816106 47.2953268 41.3120801 48.148859 41.7286171 48.4183894 42.5119719 48.6879199 43.2953268 48.2713829 44.148859 47.4880281 44.4183894 42.1661919 46.2494842 38.5 51.3836846 38.5 57.2456324L38.5 58.4371371C38.5 61.2789634 39.3549175 63.9843709 40.9222943 66.2515014 41.7468828 67.4442583 42.1865342 68.8723339 42.1865342 70.33683 42.1865342 70.6904828 42.061589 71.0324996 41.8341859 71.3026955 41.5434557 71.6590397 41.6883667 72.2108808 42.0928084 72.359463 42.9072288 72.6586672 43.5803592 72.8230626 43.9763604 72.8230626L44.0494438 72.8230626C44.877871 72.8230626 45.5494438 73.4946355 45.5494438 74.3230626L45.5494438 77C45.5494438 77.8284271 44.877871 78.5 44.0494438 78.5 43.2210167 78.5 42.5494438 77.8284271 42.5494438 77L42.5494438 75.6357568C42.0852639 75.5259303 41.5886274 75.370285 41.0582751 75.1754425 38.9089039 74.385815 38.0727358 71.845481 39.1657503 69.914184 39.0959496 69.2070739 38.851751 68.5319895 38.4545997 67.9575151zM27.5 13.5L20 13.5C19.1715729 13.5 18.5 12.8284271 18.5 12 18.5 11.1715729 19.1715729 10.5 20 10.5L29 10.5C29.8284271 10.5 30.5 11.1715729 30.5 12L30.5 28C30.5 28.8284271 29.8284271 29.5 29 29.5 28.1715729 29.5 27.5 28.8284271 27.5 28L27.5 13.5zM87.5 9.5L87.5 0C87.5-.828427125 88.1715729-1.5 89-1.5 89.8284271-1.5 90.5-.828427125 90.5 0L90.5 11C90.5 11.8284271 89.8284271 12.5 89 12.5L81 12.5C80.1715729 12.5 79.5 11.8284271 79.5 11 79.5 10.1715729 80.1715729 9.5 81 9.5L87.5 9.5zM74.5 25.5L74.5 19C74.5 18.1715729 75.1715729 17.5 76 17.5 76.8284271 17.5 77.5 18.1715729 77.5 19L77.5 27C77.5 27.8284271 76.8284271 28.5 76 28.5L69 28.5C68.1715729 28.5 67.5 27.8284271 67.5 27 67.5 26.1715729 68.1715729 25.5 69 25.5L74.5 25.5zM30.5 6C30.5 6.82842712 29.8284271 7.5 29 7.5 28.1715729 7.5 27.5 6.82842712 27.5 6L27.5 0C27.5-.828427125 28.1715729-1.5 29-1.5 29.8284271-1.5 30.5-.828427125 30.5 0L30.5 6zM53.5 29C53.5 29.8284271 52.8284271 30.5 52 30.5 51.1715729 30.5 50.5 29.8284271 50.5 29L50.5 28C50.5 27.1715729 51.1715729 26.5 52 26.5 52.8284271 26.5 53.5 27.1715729 53.5 28L53.5 29zM53.5 23C53.5 23.8284271 52.8284271 24.5 52 24.5 51.1715729 24.5 50.5 23.8284271 50.5 23L50.5 22C50.5 21.1715729 51.1715729 20.5 52 20.5 52.8284271 20.5 53.5 21.1715729 53.5 22L53.5 23zM41.5 23C41.5 23.8284271 40.8284271 24.5 40 24.5 39.1715729 24.5 38.5 23.8284271 38.5 23L38.5 19C38.5 18.1715729 39.1715729 17.5 40 17.5 40.8284271 17.5 41.5 18.1715729 41.5 19L41.5 23zM41.5 14C41.5 14.8284271 40.8284271 15.5 40 15.5 39.1715729 15.5 38.5 14.8284271 38.5 14L38.5 13C38.5 12.1715729 39.1715729 11.5 40 11.5 40.8284271 11.5 41.5 12.1715729 41.5 13L41.5 14zM65.5 14C65.5 14.8284271 64.8284271 15.5 64 15.5 63.1715729 15.5 62.5 14.8284271 62.5 14L62.5 13C62.5 12.1715729 63.1715729 11.5 64 11.5 64.8284271 11.5 65.5 12.1715729 65.5 13L65.5 14zM65.5 8C65.5 8.82842712 64.8284271 9.5 64 9.5 63.1715729 9.5 62.5 8.82842712 62.5 8L62.5 0C62.5-.828427125 63.1715729-1.5 64-1.5 64.8284271-1.5 65.5-.828427125 65.5 0L65.5 8zM65.5 30C65.5 30.8284271 64.8284271 31.5 64 31.5 63.1715729 31.5 62.5 30.8284271 62.5 30L62.5 20C62.5 19.1715729 63.1715729 18.5 64 18.5 64.8284271 18.5 65.5 19.1715729 65.5 20L65.5 30zM77.5 13C77.5 13.8284271 76.8284271 14.5 76 14.5 75.1715729 14.5 74.5 13.8284271 74.5 13L74.5 5C74.5 4.17157288 75.1715729 3.5 76 3.5 76.8284271 3.5 77.5 4.17157288 77.5 5L77.5 13z"/>
  </g>
</svg>
