<svg xmlns="http://www.w3.org/2000/svg" width="26" height="26" viewBox="0 0 26 26">
    <g fill="none" fill-rule="evenodd">
        <path fill="#D8D8D8" fill-opacity="0" d="M0 0h26v26H0z"/>
        <path d="M24.482 13.985l-2.052.588c-.485.139-.866.516-1.011 1a8.764 8.764 0 0 1-.645 1.564c-.239.444-.235.98.01 1.42l1.03 1.857-1.4 1.4-1.857-1.03a1.48 1.48 0 0 0-1.42-.01c-.5.265-1.023.481-1.564.645-.484.145-.861.526-1 1.011l-.588 2.052h-1.97l-.588-2.052a1.484 1.484 0 0 0-1-1.012 8.71 8.71 0 0 1-1.564-.644 1.474 1.474 0 0 0-1.42.01l-1.857 1.029-1.4-1.4 1.03-1.856c.245-.44.248-.974.01-1.418a8.775 8.775 0 0 1-.644-1.565 1.482 1.482 0 0 0-1.012-1l-2.052-.59v-1.969l2.052-.588c.485-.139.866-.516 1.011-1 .164-.54.38-1.064.645-1.563a1.48 1.48 0 0 0-.009-1.42l-1.03-1.858 1.4-1.399 1.856 1.03a1.481 1.481 0 0 0 1.42.01 8.747 8.747 0 0 1 1.563-.646 1.483 1.483 0 0 0 1.001-1.011l.588-2.052h1.97l.588 2.052c.139.485.516.866 1 1.01.54.165 1.064.38 1.563.646a1.48 1.48 0 0 0 1.42-.009l1.858-1.03 1.4 1.4-1.03 1.856c-.245.44-.248.974-.01 1.418.264.5.48 1.024.645 1.565.144.484.525.862 1.011 1.001l2.052.588v1.97zM13 17.493a4.493 4.493 0 1 0 0-8.986 4.493 4.493 0 0 0 0 8.986z"/>
        <path fill="#FFF" fill-rule="nonzero" d="M24.757 11.055l-2.053-.588a.488.488 0 0 1-.33-.33 9.75 9.75 0 0 0-.72-1.744.486.486 0 0 1 .002-.466l1.03-1.856a.998.998 0 0 0-.167-1.19l-1.4-1.4a.997.997 0 0 0-1.19-.167l-1.857 1.03a.48.48 0 0 1-.466 0 9.704 9.704 0 0 0-1.743-.718.49.49 0 0 1-.33-.331l-.588-2.052a.998.998 0 0 0-.96-.723h-1.97a.998.998 0 0 0-.96.723l-.588 2.052a.49.49 0 0 1-.33.331 9.718 9.718 0 0 0-1.743.72.48.48 0 0 1-.467 0L6.071 3.312a.997.997 0 0 0-1.19.167l-1.4 1.4a.998.998 0 0 0-.167 1.19l1.03 1.857c.08.145.08.321 0 .467a9.71 9.71 0 0 0-.718 1.741.488.488 0 0 1-.332.331l-2.05.588a.998.998 0 0 0-.724.96v1.97c0 .445.295.837.723.96l2.052.588c.16.046.285.17.331.33a9.76 9.76 0 0 0 .72 1.744.486.486 0 0 1-.002.466l-1.03 1.856a.998.998 0 0 0 .167 1.19l1.4 1.4c.314.315.8.383 1.19.167l1.856-1.03a.48.48 0 0 1 .467 0c.556.295 1.14.535 1.742.718a.49.49 0 0 1 .331.332l.589 2.051a.998.998 0 0 0 .96.723h1.969a.998.998 0 0 0 .96-.723l.587-2.052a.488.488 0 0 1 .331-.33 9.737 9.737 0 0 0 1.743-.72.5.5 0 0 1 .234-.059c.082 0 .162.02.233.06l1.856 1.03a.998.998 0 0 0 1.19-.167l1.4-1.4a.998.998 0 0 0 .167-1.19l-1.03-1.857a.486.486 0 0 1 0-.466c.295-.557.535-1.14.718-1.743a.49.49 0 0 1 .331-.331l2.052-.588a.998.998 0 0 0 .723-.96v-1.969a.998.998 0 0 0-.723-.96zm-.275 2.93l-2.052.588c-.485.139-.866.516-1.011 1a8.764 8.764 0 0 1-.645 1.564c-.239.444-.235.98.01 1.42l1.03 1.857-1.4 1.4-1.857-1.03a1.48 1.48 0 0 0-1.42-.01c-.5.265-1.023.481-1.564.645-.484.145-.861.526-1 1.011l-.588 2.052h-1.97l-.588-2.052a1.484 1.484 0 0 0-1-1.012 8.71 8.71 0 0 1-1.564-.644 1.474 1.474 0 0 0-1.42.01l-1.857 1.029-1.4-1.4 1.03-1.856c.245-.44.248-.974.01-1.418a8.775 8.775 0 0 1-.644-1.565 1.482 1.482 0 0 0-1.012-1l-2.052-.59v-1.969l2.052-.588c.485-.139.866-.516 1.011-1 .164-.54.38-1.064.645-1.563a1.48 1.48 0 0 0-.009-1.42l-1.03-1.858 1.4-1.399 1.856 1.03a1.481 1.481 0 0 0 1.42.01 8.747 8.747 0 0 1 1.563-.646 1.483 1.483 0 0 0 1.001-1.011l.588-2.052h1.97l.588 2.052c.139.485.516.866 1 1.01.54.165 1.064.38 1.563.646a1.48 1.48 0 0 0 1.42-.009l1.858-1.03 1.4 1.4-1.03 1.856c-.245.44-.248.974-.01 1.418.264.5.48 1.024.645 1.565.144.484.525.862 1.011 1.001l2.052.588v1.97z"/>
        <path fill="#FFF" fill-rule="nonzero" d="M13 7.509A5.491 5.491 0 1 0 18.491 13 5.497 5.497 0 0 0 13 7.509zm0 9.984a4.493 4.493 0 1 1 0-8.986 4.493 4.493 0 0 1 0 8.986z"/>
    </g>
</svg>
