<?xml version="1.0" encoding="UTF-8"?>
<svg width="80px" height="40px" viewBox="0 0 80 40" version="1.1" xmlns="http://www.w3.org/2000/svg" xmlns:xlink="http://www.w3.org/1999/xlink">
    <!-- Generator: Sketch 50.2 (55047) - http://www.bohemiancoding.com/sketch -->
    <title>settings-menu-icons</title>
    <desc>Created with Sketch.</desc>
    <defs></defs>
    <g id="settings-menu-icons" stroke="none" stroke-width="1" fill="none" fill-rule="evenodd">
        <g transform="translate(1.000000, 1.000000)">
            <g id="blue" transform="translate(0.000000, 20.000000)">
                <g id="Icon/setting-info-18-white" transform="translate(60.000000, 0.000000)">
                    <rect id="ico-zone" fill-opacity="0" fill="#D8D8D8" x="0" y="0" width="18" height="18"></rect>
                    <path d="M9,18 C4.02943725,18 0,13.9705627 0,9 C0,4.02943725 4.02943725,0 9,0 C13.9705627,0 18,4.02943725 18,9 C18,13.9705627 13.9705627,18 9,18 Z" id="Oval-4" fill="#FFFFFF" fill-rule="nonzero"></path>
                    <path d="M9,5.29625031 C9.14771312,5.29625031 9.27815867,5.16928972 9.27815867,4.99975168 C9.27815867,4.83060352 9.14807687,4.70374969 9,4.70374969 C8.85192313,4.70374969 8.72184133,4.83060352 8.72184133,4.99975168 C8.72184133,5.16928972 8.85228688,5.29625031 9,5.29625031 Z M9,4 C9.54669963,4 10,4.44119005 10,4.99975168 C10,5.55811285 9.54686842,6 9,6 C8.45313158,6 8,5.55811285 8,4.99975168 C8,4.44119005 8.45330037,4 9,4 Z" id="Stroke-11" fill="#5981EA" fill-rule="nonzero"></path>
                    <path d="M8.5,7.5 C8.5,7.22385763 8.72385763,7 9,7 C9.27614237,7 9.5,7.22385763 9.5,7.5 L9.5,12.5 C9.5,12.7761424 9.27614237,13 9,13 C8.72385763,13 8.5,12.7761424 8.5,12.5 L8.5,7.5 Z" id="Line-3" fill="#5981EA" fill-rule="nonzero"></path>
                </g>
                <g id="Icon/setting-network-18-white" transform="translate(40.000000, 0.000000)" fill-rule="nonzero">
                    <rect id="ico-zone" fill-opacity="0" fill="#D8D8D8" x="0" y="0" width="18" height="18"></rect>
                    <g id="network">
                        <path d="M1.56463685,0.5 C0.96883819,0.5 0.5,0.926456662 0.5,1.42320819 L0.5,4.5767918 C0.5,5.07324554 0.969106588,5.5 1.56463685,5.5 L16.4353632,5.5 C17.0308935,5.5 17.5,5.07324556 17.5,4.5767918 L17.5,1.42320819 C17.5,0.926456671 17.0311618,0.5 16.4353632,0.5 L1.56463685,0.5 Z" id="Path" fill="#FFFFFF"></path>
                        <path d="M14.1266207,3.44 C14.2934471,3.44 14.44,3.29907851 14.44,3.11117241 C14.44,2.92326631 14.2934471,2.78234482 14.1266207,2.78234482 C13.9597942,2.78234482 13.8132414,2.92326631 13.8132414,3.11117241 C13.8132414,3.29907851 13.9597942,3.44 14.1266207,3.44 Z M14.1266207,2 C14.742734,2 15.2532414,2.49089091 15.2532414,3.11117241 C15.2532414,3.73145391 14.742734,4.22234482 14.1266207,4.22234482 C13.5105074,4.22234482 13,3.73145391 13,3.11117241 C13,2.49089091 13.5105074,2 14.1266207,2 Z" id="Stroke-3" fill="#5981EA"></path>
                        <path d="M1.56463685,6.5 C0.968838192,6.5 0.5,6.92645666 0.5,7.42320819 L0.5,10.5767918 C0.5,11.0735433 0.968838182,11.5 1.56463685,11.5 L16.4353632,11.5 C17.0311618,11.5 17.5,11.0735433 17.5,10.5767918 L17.5,7.42320819 C17.5,6.92645667 17.0311618,6.5 16.4353632,6.5 L1.56463685,6.5 Z" id="Path" fill="#FFFFFF"></path>
                        <path d="M14.1266207,9.44 C14.2934471,9.44 14.44,9.29907852 14.44,9.11117241 C14.44,8.92326631 14.2934471,8.78234483 14.1266207,8.78234483 C13.9597942,8.78234483 13.8132414,8.92326631 13.8132414,9.11117241 C13.8132414,9.29907852 13.9597942,9.44 14.1266207,9.44 Z M14.1266207,8 C14.742734,8 15.2532414,8.49089091 15.2532414,9.11117241 C15.2532414,9.73145392 14.742734,10.2223448 14.1266207,10.2223448 C13.5105074,10.2223448 13,9.73145392 13,9.11117241 C13,8.49089091 13.5105074,8 14.1266207,8 Z" id="Stroke-7" fill="#5981EA"></path>
                        <path d="M1.56463685,12.5 C0.968999006,12.5 0.5,12.9267843 0.5,13.4236247 L0.5,16.5763753 C0.5,17.0732157 0.968999006,17.5 1.56463685,17.5 L16.4353632,17.5 C17.031001,17.5 17.5,17.0732157 17.5,16.5763753 L17.5,13.4236247 C17.5,12.9267843 17.031001,12.5 16.4353632,12.5 L1.56463685,12.5 Z" id="Path" fill="#FFFFFF"></path>
                        <path d="M14.1266207,15.44 C14.2930373,15.44 14.44,15.2989599 14.44,15.1106207 C14.44,14.9227146 14.2934471,14.7817931 14.1266207,14.7817931 C13.9597942,14.7817931 13.8132414,14.9227146 13.8132414,15.1106207 C13.8132414,15.2989599 13.960204,15.44 14.1266207,15.44 Z M14.1266207,14 C14.7425438,14 15.2532414,14.4901165 15.2532414,15.1106207 C15.2532414,15.7309022 14.742734,16.2217931 14.1266207,16.2217931 C13.5105074,16.2217931 13,15.7309022 13,15.1106207 C13,14.4901165 13.5106976,14 14.1266207,14 Z" id="Stroke-11" fill="#5981EA"></path>
                    </g>
                </g>
                <g id="Icon/setting-security-18-white" transform="translate(20.000000, 0.000000)">
                    <rect id="ico-zone" fill-opacity="0" fill="#D8D8D8" x="0" y="0" width="18" height="18"></rect>
                    <path d="M8.80293175,17.9609953 C4.03469165,15.9915154 1,11.273965 1,7.13941349 C1,6.27844006 1.00324665,5.58985878 1.01299078,4.03929032 C1.01523748,3.68177159 1.01523748,3.68177159 1.0174038,3.3243436 C1.0232001,2.35006513 1.0259637,1.64230117 1.0259637,0.943714123 C1.0259637,0.502641912 1.60193771,0.300664996 1.9012589,0.636774187 C2.4859623,1.29334042 3.71775669,1.73878 5.10464961,1.73878 C6.76312401,1.73878 8.16817476,1.10216189 8.54552389,0.283222868 C8.71948754,-0.0943203929 9.28079038,-0.0944336556 9.45492135,0.283039365 C9.83281507,1.10221979 11.2374656,1.73878 12.8953504,1.73878 C14.2827005,1.73878 15.5145392,1.29337225 16.099271,0.636774187 C16.3985921,0.300664996 16.9745662,0.502641912 16.9745662,0.943714123 C16.9745662,1.64232303 16.9772734,2.35010331 16.9829515,3.32439851 C16.9850736,3.68182908 16.9850736,3.68182908 16.9872744,4.03934832 C16.9968197,5.58989743 17,6.27846584 17,7.13941349 C17,11.2740921 13.9656561,15.9915906 9.1975981,17.9609953 C9.07168757,18.0130016 8.92884227,18.0130016 8.80293175,17.9609953 Z M11.4681955,6.27376009 L8.89303968,9.86752846 L7.24736298,8.12624299 C7.06873109,7.93723313 6.75613009,7.91624701 6.5491491,8.07936919 C6.34216811,8.24249136 6.31918663,8.52795078 6.49781853,8.71696063 L8.57276418,10.9124543 C8.78779454,11.1399772 9.18157403,11.1161035 9.36177847,10.8646185 L12.2966797,6.76880619 C12.4463807,6.5598904 12.3822749,6.27971086 12.1534953,6.14300765 C11.9247157,6.00630445 11.6178966,6.06484431 11.4681955,6.27376009 Z" id="Stroke-1" fill="#FFFFFF" fill-rule="nonzero"></path>
                </g>
                <g id="Icon/setting-general-18-white" fill-rule="nonzero">
                    <rect id="ico-zone" fill-opacity="0" fill="#D8D8D8" x="0" y="0" width="18" height="18"></rect>
                    <g id="general">
                        <path d="M1.56463685,0.5 L16.4353632,0.5 C17.2972835,0.5 18,1.14344631 18,1.93270009 L18,16.0673 C18,16.8561484 17.297126,17.5 16.4353632,17.5 L1.56463685,17.5 C0.702874029,17.5 0,16.8561484 0,16.0673 L0,1.93270009 C0,1.14344631 0.702716462,0.5 1.56463685,0.5 Z" id="Stroke-1" fill="#FFFFFF"></path>
                        <path d="M5.54794521,6.5 C5.24532343,6.5 5,6.27614237 5,6 C5,5.72385763 5.24532343,5.5 5.54794521,5.5 L12.4520548,5.5 C12.7546766,5.5 13,5.72385763 13,6 C13,6.27614237 12.7546766,6.5 12.4520548,6.5 L5.54794521,6.5 Z M5.54794521,9.5 C5.24532343,9.5 5,9.27614237 5,9 C5,8.72385763 5.24532343,8.5 5.54794521,8.5 L12.4520548,8.5 C12.7546766,8.5 13,8.72385763 13,9 C13,9.27614237 12.7546766,9.5 12.4520548,9.5 L5.54794521,9.5 Z M5.54794521,12.5 C5.24532343,12.5 5,12.2761424 5,12 C5,11.7238576 5.24532343,11.5 5.54794521,11.5 L12.4520548,11.5 C12.7546766,11.5 13,11.7238576 13,12 C13,12.2761424 12.7546766,12.5 12.4520548,12.5 L5.54794521,12.5 Z" id="lines" fill="#5981EA"></path>
                    </g>
                </g>
            </g>
            <g id="Group">
                <g id="Icon/setting-info-18-info500" transform="translate(60.000000, 0.000000)">
                    <rect id="ico-zone" fill-opacity="0" fill="#D8D8D8" x="0" y="0" width="18" height="18"></rect>
                    <path d="M9,18 C4.02943725,18 0,13.9705627 0,9 C0,4.02943725 4.02943725,0 9,0 C13.9705627,0 18,4.02943725 18,9 C18,13.9705627 13.9705627,18 9,18 Z M9,17 C13.418278,17 17,13.418278 17,9 C17,4.581722 13.418278,1 9,1 C4.581722,1 1,4.581722 1,9 C1,13.418278 4.581722,17 9,17 Z" id="Oval-4" fill="#8C8C8C" fill-rule="nonzero"></path>
                    <path d="M9,5.29625031 C9.14771312,5.29625031 9.27815867,5.16928972 9.27815867,4.99975168 C9.27815867,4.83060352 9.14807687,4.70374969 9,4.70374969 C8.85192313,4.70374969 8.72184133,4.83060352 8.72184133,4.99975168 C8.72184133,5.16928972 8.85228688,5.29625031 9,5.29625031 Z M9,4 C9.54669963,4 10,4.44119005 10,4.99975168 C10,5.55811285 9.54686842,6 9,6 C8.45313158,6 8,5.55811285 8,4.99975168 C8,4.44119005 8.45330037,4 9,4 Z" id="Stroke-11" fill="#8C8C8C" fill-rule="nonzero"></path>
                    <path d="M8.5,7.5 C8.5,7.22385763 8.72385763,7 9,7 C9.27614237,7 9.5,7.22385763 9.5,7.5 L9.5,12.5 C9.5,12.7761424 9.27614237,13 9,13 C8.72385763,13 8.5,12.7761424 8.5,12.5 L8.5,7.5 Z" id="Line-3" fill="#8C8C8C" fill-rule="nonzero"></path>
                </g>
                <g id="Icon/setting-network-18-info500" transform="translate(40.000000, 0.000000)">
                    <rect id="ico-zone" fill-opacity="0" fill="#D8D8D8" x="0" y="0" width="18" height="18"></rect>
                    <g id="network" fill="#8C8C8C" fill-rule="nonzero">
                        <path d="M1.56463685,0.989761092 C1.30333753,0.989761092 1.08769941,1.1859032 1.08769941,1.42320819 L1.08769941,4.5767918 C1.08769941,4.81378399 1.30359382,5.01023891 1.56463685,5.01023891 L16.4353632,5.01023891 C16.6964062,5.01023891 16.9123006,4.81378399 16.9123006,4.5767918 L16.9123006,1.42320819 C16.9123006,1.1859032 16.6966625,0.989761092 16.4353632,0.989761092 L1.56463685,0.989761092 Z M1.56463685,0 L16.4353632,0 C17.2972835,0 18,0.639183363 18,1.42320819 L18,4.5767918 C18,5.36041395 17.297126,6 16.4353632,6 L1.56463685,6 C0.702874029,6 0,5.36041395 0,4.5767918 L0,1.42320819 C0,0.639183363 0.702716462,0 1.56463685,0 Z" id="Stroke-1"></path>
                        <path d="M14.1266207,3.44 C14.2934471,3.44 14.44,3.29907851 14.44,3.11117241 C14.44,2.92326631 14.2934471,2.78234482 14.1266207,2.78234482 C13.9597942,2.78234482 13.8132414,2.92326631 13.8132414,3.11117241 C13.8132414,3.29907851 13.9597942,3.44 14.1266207,3.44 Z M14.1266207,2 C14.742734,2 15.2532414,2.49089091 15.2532414,3.11117241 C15.2532414,3.73145391 14.742734,4.22234482 14.1266207,4.22234482 C13.5105074,4.22234482 13,3.73145391 13,3.11117241 C13,2.49089091 13.5105074,2 14.1266207,2 Z" id="Stroke-3"></path>
                        <path d="M1.56463685,6.98976108 C1.30333753,6.98976108 1.08769941,7.1859032 1.08769941,7.42320819 L1.08769941,10.5767918 C1.08769941,10.8140968 1.30333753,11.0102389 1.56463685,11.0102389 L16.4353632,11.0102389 C16.6966625,11.0102389 16.9123006,10.8140968 16.9123006,10.5767918 L16.9123006,7.42320819 C16.9123006,7.1859032 16.6966625,6.98976108 16.4353632,6.98976108 L1.56463685,6.98976108 Z M1.56463685,6 L16.4353632,6 C17.2972835,6 18,6.63918336 18,7.42320819 L18,10.5767918 C18,11.3608166 17.2972835,12 16.4353632,12 L1.56463685,12 C0.702716462,12 0,11.3608166 0,10.5767918 L0,7.42320819 C0,6.63918336 0.702716462,6 1.56463685,6 Z" id="Stroke-5"></path>
                        <path d="M14.1266207,9.44 C14.2934471,9.44 14.44,9.29907852 14.44,9.11117241 C14.44,8.92326631 14.2934471,8.78234483 14.1266207,8.78234483 C13.9597942,8.78234483 13.8132414,8.92326631 13.8132414,9.11117241 C13.8132414,9.29907852 13.9597942,9.44 14.1266207,9.44 Z M14.1266207,8 C14.742734,8 15.2532414,8.49089091 15.2532414,9.11117241 C15.2532414,9.73145392 14.742734,10.2223448 14.1266207,10.2223448 C13.5105074,10.2223448 13,9.73145392 13,9.11117241 C13,8.49089091 13.5105074,8 14.1266207,8 Z" id="Stroke-7"></path>
                        <path d="M1.56463685,12.989671 C1.30355003,12.989671 1.08769941,13.1861478 1.08769941,13.4236247 L1.08769941,16.5763753 C1.08769941,16.8138522 1.30355003,17.010329 1.56463685,17.010329 L16.4353632,17.010329 C16.69645,17.010329 16.9123006,16.8138522 16.9123006,16.5763753 L16.9123006,13.4236247 C16.9123006,13.1861478 16.69645,12.989671 16.4353632,12.989671 L1.56463685,12.989671 Z M1.56463685,12 L16.4353632,12 C17.2972685,12 18,12.6396574 18,13.4236247 L18,16.5763753 C18,17.3603426 17.2972685,18 16.4353632,18 L1.56463685,18 C0.702731491,18 0,17.3603426 0,16.5763753 L0,13.4236247 C0,12.6396574 0.702731491,12 1.56463685,12 Z" id="Stroke-9"></path>
                        <path d="M14.1266207,15.44 C14.2930373,15.44 14.44,15.2989599 14.44,15.1106207 C14.44,14.9227146 14.2934471,14.7817931 14.1266207,14.7817931 C13.9597942,14.7817931 13.8132414,14.9227146 13.8132414,15.1106207 C13.8132414,15.2989599 13.960204,15.44 14.1266207,15.44 Z M14.1266207,14 C14.7425438,14 15.2532414,14.4901165 15.2532414,15.1106207 C15.2532414,15.7309022 14.742734,16.2217931 14.1266207,16.2217931 C13.5105074,16.2217931 13,15.7309022 13,15.1106207 C13,14.4901165 13.5106976,14 14.1266207,14 Z" id="Stroke-11"></path>
                    </g>
                </g>
                <g id="Icon/setting-security-18-info500" transform="translate(20.000000, 0.000000)">
                    <rect id="ico-zone" fill-opacity="0" fill="#D8D8D8" x="0" y="0" width="18" height="18"></rect>
                    <path d="M16.0064909,7.13941349 C16.0064909,6.28094163 16.0033163,5.59360877 15.9937826,4.04491691 C15.9915814,3.68734805 15.9915814,3.68734805 15.9894578,3.32967034 C15.9863906,2.8033746 15.9841884,2.35460254 15.9828102,1.94290159 C15.1603169,2.41513827 14.0643779,2.68679178 12.8953504,2.68679178 C11.2714512,2.68679178 9.80246094,2.16335326 9.00036012,1.32193514 C8.19839269,2.16335212 6.72901872,2.68679178 5.10464961,2.68679178 C3.9359433,2.68679178 2.84012215,2.41511856 2.01768315,1.94288758 C2.01627629,2.35460953 2.01402813,2.80340289 2.01089687,3.32972526 C2.00872901,3.68740554 2.00872901,3.68740554 2.00648199,4.04497492 C1.99674977,5.59364743 1.99350907,6.28096743 1.99350907,7.13941349 C1.99350907,10.8068996 4.68585737,15.159842 9.0002647,17.0079814 C13.3144717,15.15992 16.0064909,10.8070442 16.0064909,7.13941349 Z M8.80293175,17.9609953 C4.03469165,15.9915154 1,11.273965 1,7.13941349 C1,6.27844006 1.00324665,5.58985878 1.01299078,4.03929032 C1.01523748,3.68177159 1.01523748,3.68177159 1.0174038,3.3243436 C1.0232001,2.35006513 1.0259637,1.64230117 1.0259637,0.943714123 C1.0259637,0.502641912 1.60193771,0.300664996 1.9012589,0.636774187 C2.4859623,1.29334042 3.71775669,1.73878 5.10464961,1.73878 C6.76312401,1.73878 8.16817476,1.10216189 8.54552389,0.283222868 C8.71948754,-0.0943203929 9.28079038,-0.0944336556 9.45492135,0.283039365 C9.83281507,1.10221979 11.2374656,1.73878 12.8953504,1.73878 C14.2827005,1.73878 15.5145392,1.29337225 16.099271,0.636774187 C16.3985921,0.300664996 16.9745662,0.502641912 16.9745662,0.943714123 C16.9745662,1.64232303 16.9772734,2.35010331 16.9829515,3.32439851 C16.9850736,3.68182908 16.9850736,3.68182908 16.9872744,4.03934832 C16.9968197,5.58989743 17,6.27846584 17,7.13941349 C17,11.2740921 13.9656561,15.9915906 9.1975981,17.9609953 C9.07168757,18.0130016 8.92884227,18.0130016 8.80293175,17.9609953 Z M11.4681955,6.27376009 L8.89303968,9.86752846 L7.24736298,8.12624299 C7.06873109,7.93723313 6.75613009,7.91624701 6.5491491,8.07936919 C6.34216811,8.24249136 6.31918663,8.52795078 6.49781853,8.71696063 L8.57276418,10.9124543 C8.78779454,11.1399772 9.18157403,11.1161035 9.36177847,10.8646185 L12.2966797,6.76880619 C12.4463807,6.5598904 12.3822749,6.27971086 12.1534953,6.14300765 C11.9247157,6.00630445 11.6178966,6.06484431 11.4681955,6.27376009 Z" id="Stroke-1" fill="#8C8C8C" fill-rule="nonzero"></path>
                </g>
                <g id="Icon/setting-general-18-info500">
                    <rect id="ico-zone" fill-opacity="0" fill="#D8D8D8" x="0" y="0" width="18" height="18"></rect>
                    <g id="general" fill="#8C8C8C" fill-rule="nonzero">
                        <path d="M1.56463685,1.49636217 C1.30333753,1.49636217 1.08769941,1.69381242 1.08769941,1.93270009 L1.08769941,16.0673 C1.08769941,16.3058727 1.30359382,16.5036378 1.56463685,16.5036378 L16.4353632,16.5036378 C16.6964062,16.5036378 16.9123006,16.3058727 16.9123006,16.0673 L16.9123006,1.93270009 C16.9123006,1.69381242 16.6966625,1.49636217 16.4353632,1.49636217 L1.56463685,1.49636217 Z M1.56463685,0.5 L16.4353632,0.5 C17.2972835,0.5 18,1.14344631 18,1.93270009 L18,16.0673 C18,16.8561484 17.297126,17.5 16.4353632,17.5 L1.56463685,17.5 C0.702874029,17.5 0,16.8561484 0,16.0673 L0,1.93270009 C0,1.14344631 0.702716462,0.5 1.56463685,0.5 Z" id="Stroke-1"></path>
                        <path d="M5.54794521,6.5 C5.24532343,6.5 5,6.27614237 5,6 C5,5.72385763 5.24532343,5.5 5.54794521,5.5 L12.4520548,5.5 C12.7546766,5.5 13,5.72385763 13,6 C13,6.27614237 12.7546766,6.5 12.4520548,6.5 L5.54794521,6.5 Z M5.54794521,9.5 C5.24532343,9.5 5,9.27614237 5,9 C5,8.72385763 5.24532343,8.5 5.54794521,8.5 L12.4520548,8.5 C12.7546766,8.5 13,8.72385763 13,9 C13,9.27614237 12.7546766,9.5 12.4520548,9.5 L5.54794521,9.5 Z M5.54794521,12.5 C5.24532343,12.5 5,12.2761424 5,12 C5,11.7238576 5.24532343,11.5 5.54794521,11.5 L12.4520548,11.5 C12.7546766,11.5 13,11.7238576 13,12 C13,12.2761424 12.7546766,12.5 12.4520548,12.5 L5.54794521,12.5 Z" id="lines"></path>
                    </g>
                </g>
            </g>
        </g>
    </g>
</svg>