<svg xmlns="http://www.w3.org/2000/svg" width="28" height="28" viewBox="0 0 28 28">
    <g fill="none" fill-rule="evenodd">
        <path fill="none" d="M1 1h26v26H1z"/>
        <path fill="#FFF" fill-rule="nonzero" d="M14.417 2.696a.52.52 0 0 0-.736 0L2.698 13.68a.52.52 0 0 0 0 .735L13.68 25.398a.52.52 0 0 0 .736 0L25.4 14.415a.52.52 0 0 0 0-.735L14.417 2.696zm.733-.735l10.984 10.983c.609.61.609 1.597 0 2.206L15.15 26.134a1.56 1.56 0 0 1-2.206 0L1.961 15.15a1.56 1.56 0 0 1 0-2.206L12.944 1.961a1.56 1.56 0 0 1 2.206 0z"/>
        <path fill="#FFF" fill-rule="nonzero" d="M14.415 7.44a.52.52 0 0 0-.735 0l-6.24 6.24a.52.52 0 0 0 0 .735l6.24 6.239a.52.52 0 0 0 .735 0l6.239-6.239a.52.52 0 0 0 0-.735l-6.239-6.24zm.735-.735l6.24 6.24c.609.608.609 1.596 0 2.205l-6.24 6.24a1.56 1.56 0 0 1-2.206 0l-6.239-6.24a1.56 1.56 0 0 1 0-2.206l6.24-6.239a1.56 1.56 0 0 1 2.205 0z"/>
        <path fill="#FFF" fill-rule="nonzero" d="M14.42 11.903a.839.839 0 1 1 0-1.677.839.839 0 0 1 0 1.677zm2.515 2.516a.839.839 0 1 1 0-1.677.839.839 0 0 1 0 1.677zm-2.516 0a.839.839 0 1 1 0-1.677.839.839 0 0 1 0 1.677z"/>
    </g>
</svg>
