<svg xmlns="http://www.w3.org/2000/svg" width="36" height="18" viewBox="0 0 36 18">
  <g fill="none" fill-rule="evenodd">
    <path fill="#424242" fill-rule="nonzero" d="M7.423,6.46 L8.13,7.167 L7.461,7.837 L6.707,7.082 L6.802,7.082 L7.423,6.46 Z M8.13,5.753 L9.793,4.09 L9.273,3.571 C9.07780903,3.37575007 9.07780903,3.05924993 9.273,2.864 L10.728,1.409 C10.8218043,1.3149583 10.9491727,1.26210622 11.082,1.26210622 C11.2148273,1.26210622 11.3421957,1.3149583 11.436,1.409 L16.673,6.646 C16.868191,6.84124993 16.868191,7.15775007 16.673,7.353 L15.218,8.808 C15.0227501,9.00319097 14.7062499,9.00319097 14.511,8.808 L13.991,8.288 L12.329,9.951 L11.622,9.244 L13.638,7.228 C13.8332499,7.03280903 14.1497501,7.03280903 14.345,7.228 L14.865,7.748 L15.612,7 L11.082,2.47 L10.334,3.217 L10.854,3.737 C11.049191,3.93224993 11.049191,4.24875007 10.854,4.444 L8.838,6.46 L8.13,5.753 Z M11.622,10.658 L11,11.28 L11,11.375 L10.246,10.621 L10.915,9.951 L11.622,10.658 Z M5.292,7.082 L6.292,8.082 L4.015,8.082 L3.352,8.746 L9.336,14.73 L10,14.066 L10,11.79 L11,12.79 L11,14.275 C10.9999719,14.4073525 10.947469,14.5342945 10.854,14.628 L9.69,15.791 C9.49475007,15.986191 9.17824993,15.986191 8.983,15.791 L5.99,12.799 L1.704,17.085 C1.57770661,17.211472 1.39353469,17.2609603 1.22086002,17.214823 C1.04818535,17.1686857 0.913241308,17.0339323 0.86686002,16.861323 C0.820478732,16.6887137 0.869706614,16.504472 0.996,16.378 L5.283,12.091 L2.291,9.1 C2.09580903,8.90475007 2.09580903,8.58824993 2.291,8.393 L3.455,7.229 C3.54870554,7.13553105 3.67564755,7.08302812 3.808,7.083 L5.292,7.083 L5.292,7.082 Z M16.548,15.545 C16.6742934,15.671472 16.7235213,15.8557137 16.67714,16.028323 C16.6307587,16.2009323 16.4958147,16.3356857 16.32314,16.381823 C16.1504653,16.4279603 15.9662934,16.378472 15.84,16.252 L1.698,2.11 C1.5085139,1.91381056 1.51122381,1.60195761 1.70409071,1.40909071 C1.89695761,1.21622381 2.20881056,1.2135139 2.405,1.403 L16.548,15.545 Z"/>
    <path fill="#999999" fill-rule="nonzero" d="M25.423,6.46 L26.13,7.167 L25.461,7.837 L24.707,7.082 L24.802,7.082 L25.423,6.46 Z M26.13,5.753 L27.793,4.09 L27.273,3.571 C27.077809,3.37575007 27.077809,3.05924993 27.273,2.864 L28.728,1.409 C28.8218043,1.3149583 28.9491727,1.26210622 29.082,1.26210622 C29.2148273,1.26210622 29.3421957,1.3149583 29.436,1.409 L34.673,6.646 C34.868191,6.84124993 34.868191,7.15775007 34.673,7.353 L33.218,8.808 C33.0227501,9.00319097 32.7062499,9.00319097 32.511,8.808 L31.991,8.288 L30.329,9.951 L29.622,9.244 L31.638,7.228 C31.8332499,7.03280903 32.1497501,7.03280903 32.345,7.228 L32.865,7.748 L33.612,7 L29.082,2.47 L28.334,3.217 L28.854,3.737 C29.049191,3.93224993 29.049191,4.24875007 28.854,4.444 L26.838,6.46 L26.13,5.753 Z M29.622,10.658 L29,11.28 L29,11.375 L28.246,10.621 L28.915,9.951 L29.622,10.658 Z M23.292,7.082 L24.292,8.082 L22.015,8.082 L21.352,8.746 L27.336,14.73 L28,14.066 L28,11.79 L29,12.79 L29,14.275 C28.9999719,14.4073525 28.947469,14.5342945 28.854,14.628 L27.69,15.791 C27.4947501,15.986191 27.1782499,15.986191 26.983,15.791 L23.99,12.799 L19.704,17.085 C19.5777066,17.211472 19.3935347,17.2609603 19.22086,17.214823 C19.0481853,17.1686857 18.9132413,17.0339323 18.86686,16.861323 C18.8204787,16.6887137 18.8697066,16.504472 18.996,16.378 L23.283,12.091 L20.291,9.1 C20.095809,8.90475007 20.095809,8.58824993 20.291,8.393 L21.455,7.229 C21.5487055,7.13553105 21.6756475,7.08302812 21.808,7.083 L23.292,7.083 L23.292,7.082 Z M34.548,15.545 C34.6742934,15.671472 34.7235213,15.8557137 34.67714,16.028323 C34.6307587,16.2009323 34.4958147,16.3356857 34.32314,16.381823 C34.1504653,16.4279603 33.9662934,16.378472 33.84,16.252 L19.698,2.11 C19.5085139,1.91381056 19.5112238,1.60195761 19.7040907,1.40909071 C19.8969576,1.21622381 20.2088106,1.2135139 20.405,1.403 L34.548,15.545 Z"/>
  </g>
</svg>
