<svg xmlns="http://www.w3.org/2000/svg" width="26" height="26" viewBox="0 0 26 26">
    <g fill="none" fill-rule="evenodd">
        <path fill="none" d="M0 0h26v26H0z"/>
        <path fill="#FFF" fill-rule="nonzero" d="M21.84 23.988H4.16c-2.007 0-3.64-1.644-3.64-3.665V9.85c0-2.021 1.633-3.666 3.64-3.666h17.68c2.007 0 3.64 1.645 3.64 3.666v10.473c0 2.02-1.633 3.665-3.64 3.665zM4.16 7.232a2.612 2.612 0 0 0-2.6 2.618v10.473a2.612 2.612 0 0 0 2.6 2.618h17.68c1.434 0 2.6-1.175 2.6-2.618V9.85a2.612 2.612 0 0 0-2.6-2.618H4.16z"/>
        <path d="M4.16 7.232a2.612 2.612 0 0 0-2.6 2.618v10.473a2.612 2.612 0 0 0 2.6 2.618h17.68c1.434 0 2.6-1.175 2.6-2.618V9.85a2.612 2.612 0 0 0-2.6-2.618H4.16z"/>
        <path fill="#FFF" fill-rule="nonzero" d="M20.8 16.657c-.86 0-1.56-.705-1.56-1.57 0-.867.7-1.572 1.56-1.572.86 0 1.56.705 1.56 1.571s-.7 1.571-1.56 1.571zm0-2.094a.523.523 0 0 0 0 1.047.523.523 0 0 0 0-1.047z"/>
        <path fill="#FFF" fill-rule="nonzero" d="M24.96 18.752H20.8c-2.007 0-3.64-1.644-3.64-3.666 0-2.02 1.633-3.665 3.64-3.665h4.16c.287 0 .52.234.52.523v6.284a.522.522 0 0 1-.52.524zm-4.16-6.284a2.612 2.612 0 0 0-2.6 2.618 2.612 2.612 0 0 0 2.6 2.618h3.64v-5.236H20.8zm.52-5.236a.52.52 0 0 1-.465-.29L18.653 2.51a2.58 2.58 0 0 0-1.54-1.325 2.559 2.559 0 0 0-2.016.191L4.407 7.17a.518.518 0 0 1-.705-.213.525.525 0 0 1 .212-.709L14.602.452a3.598 3.598 0 0 1 2.824-.267c.947.301 1.713.96 2.157 1.854l2.202 4.435a.526.526 0 0 1-.465.758z"/>
        <path fill="#FFF" fill-rule="nonzero" d="M11.514 7.232a.525.525 0 0 1-.246-.984l7.726-4.19a.52.52 0 0 1 .705.214.525.525 0 0 1-.211.709L11.76 7.17a.529.529 0 0 1-.247.062zM1.04 10.374a.522.522 0 0 1-.52-.524V8.803c0-3.177 2.567-5.76 5.72-5.76h3.64c.287 0 .52.234.52.523a.522.522 0 0 1-.52.524H6.24c-2.58 0-4.68 2.114-4.68 4.713V9.85a.522.522 0 0 1-.52.524zm23.92 0a.522.522 0 0 1-.52-.524V8.803c0-2.599-2.1-4.713-4.68-4.713a.522.522 0 0 1-.52-.524c0-.289.233-.523.52-.523 3.153 0 5.72 2.583 5.72 5.76V9.85a.522.522 0 0 1-.52.524z"/>
    </g>
</svg>
