<?xml version="1.0" encoding="UTF-8"?>
<svg xmlns:xlink="http://www.w3.org/1999/xlink" width="100px" height="21px" viewBox="0 0 100 21" version="1.1"
     xmlns="http://www.w3.org/2000/svg">
    <!-- Generator: Sketch 48 (47235) - http://www.bohemiancoding.com/sketch -->
    <title>waves_logo</title>
    <desc>Created with Sketch.</desc>
    <defs></defs>
    <g id="Welcome_step_2_1" stroke="none" stroke-width="1" fill="none" fill-rule="evenodd"
       transform="translate(-670.000000, -40.000000)">
        <g id="waves_logo" transform="translate(670.000000, 40.000000)">
            <rect id="Rectangle-path" fill="#5a81ea"
                  transform="translate(94.778647, 5.287702) rotate(135.000000) translate(-94.778647, -5.287702) "
                  x="91.0934614" y="1.60251711" width="7.37037078" height="7.37037078"></rect>
            <g id="Group" transform="translate(0.000000, 4.990403)" fill="#FFF" fill-rule="nonzero">
                <polygon id="Shape"
                         points="23.2821497 0.307101727 20.3454894 0.307101727 20.0383877 0.575815739 17.024952 10.9213052 17.0057582 10.9213052 13.6276392 0.575815739 13.3205374 0.307101727 10.2495202 0.307101727 9.94241843 0.575815739 6.58349328 10.8637236 6.52591171 10.8253359 6.50671785 10.806142 3.49328215 0.575815739 3.18618042 0.307101727 0.19193858 0.307101727 0 0.575815739 4.7024952 15.1439539 5.02879079 15.4318618 7.98464491 15.4318618 8.3109405 15.1439539 11.6698656 4.72168906 11.7466411 4.72168906 15.1247601 15.1439539 15.4510557 15.4318618 18.4452975 15.4318618 18.7715931 15.1439539 23.4740883 0.575815739"></polygon>
                <polygon id="Shape"
                         points="56.5067179 0.307101727 53.5508637 0.307101727 53.2245681 0.575815739 49.0978887 11.3435701 49.059501 11.3627639 44.9712092 0.575815739 44.6449136 0.307101727 41.6314779 0.307101727 41.4395393 0.575815739 47.3320537 15.1439539 47.6775432 15.4318618 50.403071 15.4318618 50.7485605 15.1439539 56.6986564 0.575815739"></polygon>
                <path d="M71.7466411,8.6756238 L72.0345489,8.40690979 L72.0345489,7.96545106 C72.0345489,5.60460653 71.3627639,3.57005758 70.0383877,2.14971209 C68.7140115,0.729366603 66.9289827,0 64.7408829,0 C62.6295585,0 60.8637236,0.786948177 59.5009597,2.32245681 C58.1381958,3.85796545 57.4664107,5.71976967 57.4664107,7.83109405 C57.4664107,10.0767754 58.1765835,11.9577735 59.5777351,13.4357006 C60.9788868,14.9136276 62.8214971,15.6621881 65.0479846,15.6621881 C66.6602687,15.6621881 68.0422265,15.2783109 69.1554702,14.4913628 C70.268714,13.7236084 71.4395393,12.4568138 71.8426104,10.7293666 L71.6314779,10.4414587 L68.8675624,10.4414587 L68.4836852,10.7293666 C67.7927063,12.1113244 66.7370441,12.7639155 64.9904031,12.7639155 C63.8579655,12.7639155 62.840691,12.3608445 61.9961612,11.5738964 C61.1900192,10.8253359 60.7293666,9.92322457 60.6142035,8.63723608 L71.7466411,8.6756238 Z M60.806142,5.98848369 C61.2859885,4.20345489 62.7831094,2.87907869 64.7408829,2.87907869 C67.3320537,2.87907869 68.4069098,4.72168906 68.7140115,5.98848369 L60.806142,5.98848369 Z"
                      id="Shape"></path>
                <path d="M36.6410749,0.307101727 L36.353167,0.595009597 L36.353167,2.09213052 L36.2955854,2.14971209 C35.9117083,1.65067179 35.3934741,1.20921305 34.7792706,0.84452975 C34.6449136,0.767754319 34.4913628,0.690978887 34.3378119,0.614203455 C33.512476,0.211132438 32.571977,0.019193858 31.5547025,0.019193858 C29.6545106,0.019193858 27.9846449,0.786948177 26.6026871,2.2840691 C25.2207294,3.78119002 24.5297505,5.6621881 24.5297505,7.86948177 C24.5297505,10.0767754 25.2207294,11.9577735 26.6026871,13.4548944 C27.9846449,14.9520154 29.6545106,15.7197697 31.5547025,15.7197697 C32.571977,15.7197697 33.4932821,15.5278311 34.318618,15.1247601 C34.4721689,15.0479846 34.6449136,14.9712092 34.7984645,14.8752399 C35.3934741,14.5105566 35.8925144,14.1074856 36.2763916,13.6276392 C36.2955854,13.6084453 36.353167,13.646833 36.3723608,13.6276392 L36.3723608,15.1823417 L36.6602687,15.4702495 L39.1746641,15.4702495 L39.462572,15.1823417 L39.462572,0.575815739 L39.1746641,0.287907869 L36.6410749,0.287907869 L36.6410749,0.307101727 Z M35.0863724,11.4779271 C34.2418426,12.3800384 33.2245681,12.8214971 31.9961612,12.8214971 C30.806142,12.8214971 29.9232246,12.3800384 29.059501,11.4587332 C28.1957774,10.5566219 27.7735125,9.34740883 27.7735125,7.83109405 C27.7735125,6.33397313 28.2149712,5.12476008 29.059501,4.20345489 C29.9232246,3.30134357 30.7869482,2.84069098 31.9961612,2.84069098 C33.2053743,2.84069098 34.2226488,3.28214971 35.0863724,4.18426104 C35.6429942,4.77927063 36.0076775,5.48944338 36.21881,6.35316699 L36.21881,9.2706334 C36.0268714,10.1727447 35.6429942,10.9021113 35.0863724,11.4779271 Z"
                      id="Shape"></path>
                <path d="M82.3992322,6.67946257 C82.3992322,6.67946257 80.7485605,6.33397313 79.3857965,6.0268714 C78.1381958,5.73896353 77.5047985,5.37428023 77.5047985,4.49136276 C77.5047985,3.55086372 78.4069098,2.76391555 80.3454894,2.76391555 C82.2456814,2.76391555 83.3013436,3.6084453 83.3013436,4.35700576 L83.6276392,4.64491363 L86.3915547,4.64491363 L86.6026871,4.37619962 C86.6026871,2.39923225 84.8944338,0.0383877159 80.4222649,0.0383877159 C75.7581574,0.0383877159 74.2994242,2.7831094 74.2994242,4.54894434 C74.2994242,6.0268714 74.8368522,7.77351248 78.4069098,8.59884837 C78.4069098,8.59884837 80.1151631,8.98272553 81.4779271,9.28982726 C83.0326296,9.6353167 83.6852207,10.1727447 83.6852207,11.074856 C83.6852207,11.9001919 82.8598848,12.8982726 80.7101727,12.8982726 C78.7140115,12.8982726 77.5047985,11.9385797 77.4472169,10.806142 L77.1017274,10.5182342 L74.2802303,10.5182342 L74.0690979,10.806142 C74.318618,13.3397313 76.1996161,15.7197697 80.6909789,15.7197697 C85.7773512,15.7197697 86.8138196,12.6103647 86.8138196,10.9788868 C86.8138196,8.79078695 85.5662188,7.37044146 82.3992322,6.67946257 Z"
                      id="Shape"></path>
            </g>
        </g>
    </g>
</svg>
