<?xml version="1.0" encoding="UTF-8"?>
<svg xmlns:xlink="http://www.w3.org/1999/xlink" width="16px" height="17px" viewBox="0 0 16 17" version="1.1"
     xmlns="http://www.w3.org/2000/svg">
    <!-- Generator: Sketch 48 (47235) - http://www.bohemiancoding.com/sketch -->
    <title>Group 2 Copy</title>
    <desc>Created with Sketch.</desc>
    <defs></defs>
    <g id="Artboard" stroke="none" stroke-width="1" fill="none" fill-rule="evenodd"
       transform="translate(-768.000000, -302.000000)">
        <g id="Group-2-Copy" transform="translate(768.000000, 302.000000)" fill="#FFFFFF">
            <path d="M1.33555862,0.397517241 L15.0072828,0.397517241 C15.5236966,0.397517241 15.9457655,0.819586207 15.9457655,1.33544828 L15.9457655,15.5216552 C15.9457655,16.0369655 15.5236966,16.4595862 15.0072828,16.4595862 L1.33555862,16.4595862 C0.819144828,16.4595862 0.397075862,16.0369655 0.397075862,15.5216552 L0.397075862,1.33544828 C0.397075862,0.819586207 0.819144828,0.397517241 1.33555862,0.397517241 Z M5,5.5 L11.3,5.5 C11.5761424,5.5 11.8,5.27614237 11.8,5 C11.8,4.72385763 11.5761424,4.5 11.3,4.5 L5,4.5 C4.72385763,4.5 4.5,4.72385763 4.5,5 C4.5,5.27614237 4.72385763,5.5 5,5.5 Z M5,8.5 L11.3,8.5 C11.5761424,8.5 11.8,8.27614237 11.8,8 C11.8,7.72385763 11.5761424,7.5 11.3,7.5 L5,7.5 C4.72385763,7.5 4.5,7.72385763 4.5,8 C4.5,8.27614237 4.72385763,8.5 5,8.5 Z M5,11.5 L11.3,11.5 C11.5761424,11.5 11.8,11.2761424 11.8,11 C11.8,10.7238576 11.5761424,10.5 11.3,10.5 L5,10.5 C4.72385763,10.5 4.5,10.7238576 4.5,11 C4.5,11.2761424 4.72385763,11.5 5,11.5 Z"
                  id="Combined-Shape"></path>
        </g>
    </g>
</svg>