<?xml version="1.0" encoding="UTF-8"?>
<svg xmlns:xlink="http://www.w3.org/1999/xlink" width="18px" height="18px" viewBox="0 0 18 18" version="1.1"
     xmlns="http://www.w3.org/2000/svg">
    <!-- Generator: Sketch 48 (47235) - http://www.bohemiancoding.com/sketch -->
    <title>Group 2</title>
    <desc>Created with Sketch.</desc>
    <defs></defs>
    <g id="Artboard" stroke="none" stroke-width="1" fill="none" fill-rule="evenodd"
       transform="translate(-942.000000, -238.000000)">
        <g id="Group-2" transform="translate(943.000000, 239.000000)" fill="#7995B9" fill-rule="nonzero">
            <path d="M1.33555862,0.897517241 C1.09532743,0.897517241 0.897075862,1.09568841 0.897075862,1.33544828 L0.897075862,15.5216552 C0.897075862,15.761099 1.09556306,15.9595862 1.33555862,15.9595862 L15.0072828,15.9595862 C15.2472783,15.9595862 15.4457655,15.761099 15.4457655,15.5216552 L15.4457655,1.33544828 C15.4457655,1.09568841 15.247514,0.897517241 15.0072828,0.897517241 L1.33555862,0.897517241 Z M1.33555862,-0.102482759 L15.0072828,-0.102482759 C15.7997079,-0.102482759 16.4457655,0.543312846 16.4457655,1.33544828 L16.4457655,15.5216552 C16.4457655,16.3133838 15.7995631,16.9595862 15.0072828,16.9595862 L1.33555862,16.9595862 C0.543278315,16.9595862 -0.102924138,16.3133838 -0.102924138,15.5216552 L-0.102924138,1.33544828 C-0.102924138,0.543312846 0.543133453,-0.102482759 1.33555862,-0.102482759 Z"
                  id="Stroke-1"></path>
            <path d="M5,5.5 C4.72385763,5.5 4.5,5.27614237 4.5,5 C4.5,4.72385763 4.72385763,4.5 5,4.5 L11.3,4.5 C11.5761424,4.5 11.8,4.72385763 11.8,5 C11.8,5.27614237 11.5761424,5.5 11.3,5.5 L5,5.5 Z"
                  id="Line-2"></path>
            <path d="M5,8.5 C4.72385763,8.5 4.5,8.27614237 4.5,8 C4.5,7.72385763 4.72385763,7.5 5,7.5 L11.3,7.5 C11.5761424,7.5 11.8,7.72385763 11.8,8 C11.8,8.27614237 11.5761424,8.5 11.3,8.5 L5,8.5 Z"
                  id="Line-2-Copy"></path>
            <path d="M5,11.5 C4.72385763,11.5 4.5,11.2761424 4.5,11 C4.5,10.7238576 4.72385763,10.5 5,10.5 L11.3,10.5 C11.5761424,10.5 11.8,10.7238576 11.8,11 C11.8,11.2761424 11.5761424,11.5 11.3,11.5 L5,11.5 Z"
                  id="Line-2-Copy-2"></path>
        </g>
    </g>
</svg>