<?xml version="1.0" encoding="UTF-8"?>
<svg xmlns:xlink="http://www.w3.org/1999/xlink" width="17px" height="17px" viewBox="0 0 17 17" version="1.1"
     xmlns="http://www.w3.org/2000/svg">
    <!-- Generator: Sketch 48 (47235) - http://www.bohemiancoding.com/sketch -->
    <title>Group 3</title>
    <desc>Created with Sketch.</desc>
    <defs></defs>
    <g id="Artboard" stroke="none" stroke-width="1" fill="none" fill-rule="evenodd"
       transform="translate(-812.000000, -305.000000)">
        <g id="Group-3" transform="translate(812.000000, 305.000000)" fill="#FFFFFF">
            <path d="M8.5,17 C3.80557963,17 0,13.1944204 0,8.5 C0,3.80557963 3.80557963,0 8.5,0 C13.1944204,0 17,3.80557963 17,8.5 C17,13.1944204 13.1944204,17 8.5,17 Z M8.42444138,4.65522759 C8.25802472,4.65522759 8.11106207,4.51418751 8.11106207,4.32584828 C8.11106207,4.13794217 8.25761492,3.99702069 8.42444138,3.99702069 C8.59126784,3.99702069 8.73782069,4.13794217 8.73782069,4.32584828 C8.73782069,4.51418751 8.59085804,4.65522759 8.42444138,4.65522759 Z M8.42444138,3.21522759 C7.80851826,3.21522759 7.29782069,3.70534409 7.29782069,4.32584828 C7.29782069,4.94612978 7.8083281,5.43702069 8.42444138,5.43702069 C9.04055466,5.43702069 9.55106207,4.94612978 9.55106207,4.32584828 C9.55106207,3.70534409 9.0403645,3.21522759 8.42444138,3.21522759 Z M8,7.5 L8,12.5 C8,12.7761424 8.22385763,13 8.5,13 C8.77614237,13 9,12.7761424 9,12.5 L9,7.5 C9,7.22385763 8.77614237,7 8.5,7 C8.22385763,7 8,7.22385763 8,7.5 Z"
                  id="Combined-Shape"></path>
        </g>
    </g>
</svg>