<?xml version="1.0" encoding="UTF-8"?>
<svg xmlns:xlink="http://www.w3.org/1999/xlink" width="19px" height="19px" viewBox="0 0 19 19" version="1.1"
     xmlns="http://www.w3.org/2000/svg">
    <!-- Generator: Sketch 48 (47235) - http://www.bohemiancoding.com/sketch -->
    <title>Group 3</title>
    <desc>Created with Sketch.</desc>
    <defs></defs>
    <g id="Artboard" stroke="none" stroke-width="1" fill="none" fill-rule="evenodd"
       transform="translate(-941.000000, -387.000000)">
        <g id="Group-3" transform="translate(942.000000, 388.000000)" fill="#7995B9" fill-rule="nonzero">
            <path d="M8.5,17.5 C3.52943725,17.5 -0.5,13.4705627 -0.5,8.5 C-0.5,3.52943725 3.52943725,-0.5 8.5,-0.5 C13.4705627,-0.5 17.5,3.52943725 17.5,8.5 C17.5,13.4705627 13.4705627,17.5 8.5,17.5 Z M8.5,16.5 C12.918278,16.5 16.5,12.918278 16.5,8.5 C16.5,4.081722 12.918278,0.5 8.5,0.5 C4.081722,0.5 0.5,4.081722 0.5,8.5 C0.5,12.918278 4.081722,16.5 8.5,16.5 Z"
                  id="Oval-4"></path>
            <path d="M8.42444138,4.65522759 C8.59085804,4.65522759 8.73782069,4.51418751 8.73782069,4.32584828 C8.73782069,4.13794217 8.59126784,3.99702069 8.42444138,3.99702069 C8.25761492,3.99702069 8.11106207,4.13794217 8.11106207,4.32584828 C8.11106207,4.51418751 8.25802472,4.65522759 8.42444138,4.65522759 Z M8.42444138,3.21522759 C9.0403645,3.21522759 9.55106207,3.70534409 9.55106207,4.32584828 C9.55106207,4.94612978 9.04055466,5.43702069 8.42444138,5.43702069 C7.8083281,5.43702069 7.29782069,4.94612978 7.29782069,4.32584828 C7.29782069,3.70534409 7.80851826,3.21522759 8.42444138,3.21522759 Z"
                  id="Stroke-11"></path>
            <path d="M8,7.5 C8,7.22385763 8.22385763,7 8.5,7 C8.77614237,7 9,7.22385763 9,7.5 L9,12.5 C9,12.7761424 8.77614237,13 8.5,13 C8.22385763,13 8,12.7761424 8,12.5 L8,7.5 Z"
                  id="Line-3"></path>
        </g>
    </g>
</svg>