<?xml version="1.0" encoding="UTF-8"?>
<svg xmlns:xlink="http://www.w3.org/1999/xlink" width="16px" height="17px" viewBox="0 0 16 17" version="1.1"
     xmlns="http://www.w3.org/2000/svg">
    <!-- Generator: Sketch 48 (47235) - http://www.bohemiancoding.com/sketch -->
    <title>Page 1 Copy 3</title>
    <desc>Created with Sketch.</desc>
    <defs></defs>
    <g id="Artboard" stroke="none" stroke-width="1" fill="none" fill-rule="evenodd"
       transform="translate(-845.000000, -300.000000)">
        <g id="Page-1-Copy-3" transform="translate(845.000000, 300.000000)" fill="#FFFFFF">
            <path d="M1.33555862,0.397517241 L15.0072828,0.397517241 C15.5236966,0.397517241 15.9457655,0.819586207 15.9457655,1.33544828 L15.9457655,4.52165517 C15.9457655,5.03696552 15.5236966,5.45958621 15.0072828,5.45958621 L1.33555862,5.45958621 C0.819144828,5.45958621 0.397075862,5.03696552 0.397075862,4.52165517 L0.397075862,1.33544828 C0.397075862,0.819586207 0.819144828,0.397517241 1.33555862,0.397517241 Z M13.4244414,2.81522759 C13.2576149,2.81522759 13.1110621,2.6743061 13.1110621,2.4864 C13.1110621,2.2984939 13.2576149,2.15757241 13.4244414,2.15757241 C13.5912678,2.15757241 13.7378207,2.2984939 13.7378207,2.4864 C13.7378207,2.6743061 13.5912678,2.81522759 13.4244414,2.81522759 Z M13.4244414,1.37522759 C12.8083281,1.37522759 12.2978207,1.8661185 12.2978207,2.4864 C12.2978207,3.1066815 12.8083281,3.59757241 13.4244414,3.59757241 C14.0405547,3.59757241 14.5510621,3.1066815 14.5510621,2.4864 C14.5510621,1.8661185 14.0405547,1.37522759 13.4244414,1.37522759 Z"
                  id="Combined-Shape"></path>
            <path d="M1.33555862,5.81721379 L15.0072828,5.81721379 C15.5236966,5.81721379 15.9457655,6.23928276 15.9457655,6.75514483 L15.9457655,9.94135172 C15.9457655,10.4572138 15.5236966,10.8792828 15.0072828,10.8792828 L1.33555862,10.8792828 C0.819144828,10.8792828 0.397075862,10.4572138 0.397075862,9.94135172 L0.397075862,6.75514483 C0.397075862,6.23928276 0.819144828,5.81721379 1.33555862,5.81721379 Z M13.4244414,8.23497931 C13.2576149,8.23497931 13.1110621,8.09405783 13.1110621,7.90615172 C13.1110621,7.71824562 13.2576149,7.57732414 13.4244414,7.57732414 C13.5912678,7.57732414 13.7378207,7.71824562 13.7378207,7.90615172 C13.7378207,8.09405783 13.5912678,8.23497931 13.4244414,8.23497931 Z M13.4244414,6.79497931 C12.8083281,6.79497931 12.2978207,7.28587022 12.2978207,7.90615172 C12.2978207,8.52643323 12.8083281,9.01732414 13.4244414,9.01732414 C14.0405547,9.01732414 14.5510621,8.52643323 14.5510621,7.90615172 C14.5510621,7.28587022 14.0405547,6.79497931 13.4244414,6.79497931 Z"
                  id="Combined-Shape"></path>
            <path d="M1.33555862,11.2369655 L15.0072828,11.2369655 C15.5236966,11.2369655 15.9457655,11.6595862 15.9457655,12.1754483 L15.9457655,15.3611034 C15.9457655,15.8769655 15.5236966,16.2995862 15.0072828,16.2995862 L1.33555862,16.2995862 C0.819144828,16.2995862 0.397075862,15.8769655 0.397075862,15.3611034 L0.397075862,12.1754483 C0.397075862,11.6595862 0.819144828,11.2369655 1.33555862,11.2369655 Z M13.4244414,13.6552276 C13.2580247,13.6552276 13.1110621,13.5141875 13.1110621,13.3258483 C13.1110621,13.1379422 13.2576149,12.9970207 13.4244414,12.9970207 C13.5912678,12.9970207 13.7378207,13.1379422 13.7378207,13.3258483 C13.7378207,13.5141875 13.590858,13.6552276 13.4244414,13.6552276 Z M13.4244414,12.2152276 C12.8085183,12.2152276 12.2978207,12.7053441 12.2978207,13.3258483 C12.2978207,13.9461298 12.8083281,14.4370207 13.4244414,14.4370207 C14.0405547,14.4370207 14.5510621,13.9461298 14.5510621,13.3258483 C14.5510621,12.7053441 14.0403645,12.2152276 13.4244414,12.2152276 Z"
                  id="Combined-Shape"></path>
        </g>
    </g>
</svg>