<?xml version="1.0" encoding="UTF-8"?>
<svg xmlns:xlink="http://www.w3.org/1999/xlink" width="18px" height="18px" viewBox="0 0 18 18" version="1.1"
     xmlns="http://www.w3.org/2000/svg">
    <!-- Generator: Sketch 48 (47235) - http://www.bohemiancoding.com/sketch -->
    <title>Page 1</title>
    <desc>Created with Sketch.</desc>
    <defs></defs>
    <g id="Artboard" stroke="none" stroke-width="1" fill="none" fill-rule="evenodd"
       transform="translate(-942.000000, -338.000000)">
        <g id="Page-1" transform="translate(943.000000, 339.000000)" fill="#7995B9" fill-rule="nonzero">
            <path d="M1.33555862,0.897517241 C1.09532743,0.897517241 0.897075862,1.09568841 0.897075862,1.33544828 L0.897075862,4.52165517 C0.897075862,4.761099 1.09556306,4.95958621 1.33555862,4.95958621 L15.0072828,4.95958621 C15.2472783,4.95958621 15.4457655,4.761099 15.4457655,4.52165517 L15.4457655,1.33544828 C15.4457655,1.09568841 15.247514,0.897517241 15.0072828,0.897517241 L1.33555862,0.897517241 Z M1.33555862,-0.102482759 L15.0072828,-0.102482759 C15.7997079,-0.102482759 16.4457655,0.543312846 16.4457655,1.33544828 L16.4457655,4.52165517 C16.4457655,5.31338375 15.7995631,5.95958621 15.0072828,5.95958621 L1.33555862,5.95958621 C0.543278315,5.95958621 -0.102924138,5.31338375 -0.102924138,4.52165517 L-0.102924138,1.33544828 C-0.102924138,0.543312846 0.543133453,-0.102482759 1.33555862,-0.102482759 Z"
                  id="Stroke-1"></path>
            <path d="M13.4244414,2.81522759 C13.5912678,2.81522759 13.7378207,2.6743061 13.7378207,2.4864 C13.7378207,2.2984939 13.5912678,2.15757241 13.4244414,2.15757241 C13.2576149,2.15757241 13.1110621,2.2984939 13.1110621,2.4864 C13.1110621,2.6743061 13.2576149,2.81522759 13.4244414,2.81522759 Z M13.4244414,1.37522759 C14.0405547,1.37522759 14.5510621,1.8661185 14.5510621,2.4864 C14.5510621,3.1066815 14.0405547,3.59757241 13.4244414,3.59757241 C12.8083281,3.59757241 12.2978207,3.1066815 12.2978207,2.4864 C12.2978207,1.8661185 12.8083281,1.37522759 13.4244414,1.37522759 Z"
                  id="Stroke-3"></path>
            <path d="M1.33555862,6.31721379 C1.09532743,6.31721379 0.897075862,6.51538496 0.897075862,6.75514483 L0.897075862,9.94135172 C0.897075862,10.1811116 1.09532743,10.3792828 1.33555862,10.3792828 L15.0072828,10.3792828 C15.247514,10.3792828 15.4457655,10.1811116 15.4457655,9.94135172 L15.4457655,6.75514483 C15.4457655,6.51538496 15.247514,6.31721379 15.0072828,6.31721379 L1.33555862,6.31721379 Z M1.33555862,5.31721379 L15.0072828,5.31721379 C15.7997079,5.31721379 16.4457655,5.9630094 16.4457655,6.75514483 L16.4457655,9.94135172 C16.4457655,10.7334872 15.7997079,11.3792828 15.0072828,11.3792828 L1.33555862,11.3792828 C0.543133453,11.3792828 -0.102924138,10.7334872 -0.102924138,9.94135172 L-0.102924138,6.75514483 C-0.102924138,5.9630094 0.543133453,5.31721379 1.33555862,5.31721379 Z"
                  id="Stroke-5"></path>
            <path d="M13.4244414,8.23497931 C13.5912678,8.23497931 13.7378207,8.09405783 13.7378207,7.90615172 C13.7378207,7.71824562 13.5912678,7.57732414 13.4244414,7.57732414 C13.2576149,7.57732414 13.1110621,7.71824562 13.1110621,7.90615172 C13.1110621,8.09405783 13.2576149,8.23497931 13.4244414,8.23497931 Z M13.4244414,6.79497931 C14.0405547,6.79497931 14.5510621,7.28587022 14.5510621,7.90615172 C14.5510621,8.52643323 14.0405547,9.01732414 13.4244414,9.01732414 C12.8083281,9.01732414 12.2978207,8.52643323 12.2978207,7.90615172 C12.2978207,7.28587022 12.8083281,6.79497931 13.4244414,6.79497931 Z"
                  id="Stroke-7"></path>
            <path d="M1.33555862,11.7369655 C1.0955228,11.7369655 0.897075862,11.9354929 0.897075862,12.1754483 L0.897075862,15.3611034 C0.897075862,15.6010588 1.0955228,15.7995862 1.33555862,15.7995862 L15.0072828,15.7995862 C15.2473186,15.7995862 15.4457655,15.6010588 15.4457655,15.3611034 L15.4457655,12.1754483 C15.4457655,11.9354929 15.2473186,11.7369655 15.0072828,11.7369655 L1.33555862,11.7369655 Z M1.33555862,10.7369655 L15.0072828,10.7369655 C15.7996941,10.7369655 16.4457655,11.3832989 16.4457655,12.1754483 L16.4457655,15.3611034 C16.4457655,16.1532528 15.7996941,16.7995862 15.0072828,16.7995862 L1.33555862,16.7995862 C0.54314727,16.7995862 -0.102924138,16.1532528 -0.102924138,15.3611034 L-0.102924138,12.1754483 C-0.102924138,11.3832989 0.54314727,10.7369655 1.33555862,10.7369655 Z"
                  id="Stroke-9"></path>
            <path d="M13.4244414,13.6552276 C13.590858,13.6552276 13.7378207,13.5141875 13.7378207,13.3258483 C13.7378207,13.1379422 13.5912678,12.9970207 13.4244414,12.9970207 C13.2576149,12.9970207 13.1110621,13.1379422 13.1110621,13.3258483 C13.1110621,13.5141875 13.2580247,13.6552276 13.4244414,13.6552276 Z M13.4244414,12.2152276 C14.0403645,12.2152276 14.5510621,12.7053441 14.5510621,13.3258483 C14.5510621,13.9461298 14.0405547,14.4370207 13.4244414,14.4370207 C12.8083281,14.4370207 12.2978207,13.9461298 12.2978207,13.3258483 C12.2978207,12.7053441 12.8085183,12.2152276 13.4244414,12.2152276 Z"
                  id="Stroke-11"></path>
        </g>
    </g>
</svg>