<?xml version="1.0" encoding="UTF-8"?>
<svg xmlns:xlink="http://www.w3.org/1999/xlink" width="16px" height="18px" viewBox="0 0 16 18" version="1.1"
     xmlns="http://www.w3.org/2000/svg">
    <!-- Generator: Sketch 48 (47235) - http://www.bohemiancoding.com/sketch -->
    <title>Combined Shape</title>
    <desc>Created with Sketch.</desc>
    <defs></defs>
    <g id="Artboard" stroke="none" stroke-width="1" fill="none" fill-rule="evenodd"
       transform="translate(-734.000000, -303.000000)">
        <path d="M741.936427,320.316373 C737.42816,318.364907 734.383893,314.661973 734.383893,310.41504 C734.383893,308.238507 734.410027,306.057707 734.410027,303.879573 C735.08576,304.674773 736.446827,305.21824 738.01536,305.21824 C739.892693,305.21824 741.471893,304.44064 741.936427,303.384107 C742.401493,304.44064 743.98016,305.21824 745.85696,305.21824 C747.426027,305.21824 748.787093,304.674773 749.462827,303.879573 C749.462827,306.057707 749.488427,308.238507 749.488427,310.41504 C749.488427,314.661973 746.444693,318.364907 741.936427,320.316373 Z M744.403051,309.179562 L741.802115,313.154425 L740.139964,311.228488 C739.959544,311.019435 739.643813,310.996224 739.43476,311.176644 C739.225707,311.357064 739.202496,311.672794 739.382916,311.881847 L741.478634,314.310158 C741.695817,314.561808 742.093538,314.535403 742.275547,314.25725 L745.239829,309.727104 C745.391029,309.496035 745.326281,309.186144 745.095211,309.034944 C744.864141,308.883745 744.554251,308.948492 744.403051,309.179562 Z"
              id="Combined-Shape" fill="#FFFFFF"></path>
    </g>
</svg>