<?xml version="1.0" encoding="UTF-8"?>
<svg xmlns:xlink="http://www.w3.org/1999/xlink" width="17px" height="19px" viewBox="0 0 17 19" version="1.1"
     xmlns="http://www.w3.org/2000/svg">
    <!-- Generator: Sketch 48 (47235) - http://www.bohemiancoding.com/sketch -->
    <title>Page 1 Copy</title>
    <desc>Created with Sketch.</desc>
    <defs></defs>
    <g id="Artboard" stroke="none" stroke-width="1" fill="none" fill-rule="evenodd"
       transform="translate(-941.000000, -298.000000)">
        <g id="Page-1-Copy" transform="translate(942.000000, 299.000000)" fill="#7995B9" fill-rule="nonzero">
            <path d="M14.9884267,7.41504 C14.9884267,6.50949022 14.9852313,5.78446456 14.9756353,4.15084365 C14.9734198,3.773666 14.9734198,3.773666 14.9712823,3.39637352 C14.968195,2.84121613 14.9659785,2.36783376 14.9645913,1.93355546 C14.1367243,2.43168923 13.0336252,2.71824 11.85696,2.71824 C10.2224514,2.71824 8.7438637,2.16609652 7.93652249,1.27853569 C7.12931554,2.16609532 5.65034165,2.71824 4.01536,2.71824 C2.83901814,2.71824 1.73603762,2.43166844 0.908225345,1.93354068 C0.906809301,2.36784114 0.904546446,2.84124598 0.901394729,3.39643145 C0.899212712,3.77372664 0.899212712,3.77372664 0.896951011,4.15090484 C0.887155205,5.78450534 0.883893333,6.50951743 0.883893333,7.41504 C0.883893333,11.2836482 3.59383165,14.8204633 7.93642645,16.7699532 C12.2788196,14.8205456 14.9884267,11.2838007 14.9884267,7.41504 Z M7.73780425,17.7752297 C2.93841164,15.697745 -0.116106667,11.7763271 -0.116106667,7.41504 C-0.116106667,6.50685146 -0.112838809,5.78050892 -0.103031011,4.1449085 C-0.100769635,3.76778373 -0.100769635,3.76778373 -0.0985891579,3.39075467 C-0.092754995,2.36304753 -0.0899733333,1.61647035 -0.0899733333,0.879573333 C-0.0899733333,0.414313067 0.489763701,0.201259895 0.791040458,0.555801051 C1.37956392,1.24837286 2.61940604,1.71824 4.01536,1.71824 C5.68466977,1.71824 7.09890018,1.04671025 7.47871466,0.182861255 C7.65381487,-0.215386183 8.21878489,-0.215505657 8.39405352,0.182667688 C8.77441615,1.04677133 10.1882437,1.71824 11.85696,1.71824 C13.2533742,1.71824 14.4932609,1.24840644 15.0818129,0.555801051 C15.3830896,0.201259895 15.9628267,0.414313067 15.9628267,0.879573333 C15.9628267,1.6164934 15.9655516,2.3630878 15.9712668,3.39081259 C15.9734028,3.76784437 15.9734028,3.76784437 15.975618,4.14496968 C15.9852256,5.78054969 15.9884267,6.50687866 15.9884267,7.41504 C15.9884267,11.7764611 12.9342584,15.6978244 8.13504909,17.7752297 C8.00831595,17.8300879 7.86453739,17.8300879 7.73780425,17.7752297 Z"
                  id="Stroke-1"></path>
            <path d="M10.4030509,6.17956217 C10.5542506,5.94849231 10.8641412,5.8837447 11.0952111,6.03494434 C11.326281,6.18614398 11.3910286,6.49603463 11.2398289,6.7271045 L8.27554671,11.2572495 C8.09353826,11.5354027 7.69581669,11.5618081 7.47863368,11.3101579 L5.38291597,8.88184729 C5.20249581,8.67279424 5.22570736,8.35706382 5.43476041,8.17664367 C5.64381346,7.99622351 5.95954388,8.01943506 6.13996403,8.22848811 L7.80211543,10.1544249 L10.4030509,6.17956217 Z"
                  id="Stroke-3"></path>
        </g>
    </g>
</svg>