<svg xmlns="http://www.w3.org/2000/svg" width="18" height="18" viewBox="0 0 18 18">
    <g fill="none" fill-rule="evenodd">
        <path fill="none" d="M0 0h18v18H0z"/>
        <path fill="8c8c8c" d="M3.553 15.473c1.141 1.643 1.916 2.348 3.138 2.348l.089-.001c.502-.02.847-.121 1.396-.353l.038-.017c.49-.208.706-.267 1.095-.267.353 0 .564.057.989.24l.035.015.032.014c.596.256.973.36 1.543.349 1.195-.022 1.965-.67 2.894-1.99l.21-.303a9.22 9.22 0 0 0 1.192-2.432l.004-.011a.877.877 0 0 0-.472-1.07l-.026-.01-.004-.002c-.808-.329-1.545-1.068-1.556-2.343-.01-1.037.576-1.779 1.26-2.2l.015-.01a.879.879 0 0 0 .26-1.244c-.911-1.326-2.23-1.866-3.546-1.923a2.815 2.815 0 0 0-.29-.013c-.684 0-1.195.146-2.131.513-.403.158-.573.213-.616.213-.067 0-.231-.052-.645-.215-.849-.336-1.289-.463-1.897-.463h-.056c-1.621.025-3.144.942-3.982 2.391-1.398 2.414-.795 6.163 1.03 8.784zm9.958-8.307a3.877 3.877 0 0 0-.86 2.488c.01 1.155.441 2.095 1.156 2.812.263.265.537.474.798.634a7.868 7.868 0 0 1-.83 1.557l-.2.291c-.673.957-1.132 1.343-1.695 1.353-.31.006-.506-.048-.922-.227l-.032-.014-.036-.015c-.596-.256-.984-.362-1.581-.362-.635 0-1.02.106-1.68.386l-.038.016c-.396.168-.59.225-.87.236h-.03c-.535 0-1.045-.464-1.907-1.704-1.523-2.188-2.03-5.336-.964-7.176.577-.999 1.62-1.626 2.71-1.642h.03c.357 0 .671.09 1.346.357.63.248.856.32 1.196.32.32 0 .53-.068 1.164-.316.764-.3 1.148-.41 1.583-.41.063 0 .125.003.184.009.75.033 1.467.273 2.031.82a4.535 4.535 0 0 0-.553.587zM12.608 0c-.904.037-1.99.594-2.637 1.353-.552.638-1.09 1.703-.948 2.776a.143.143 0 0 0 .131.124c.061.005.123.007.185.007.885 0 1.839-.49 2.49-1.277.686-.832 1.032-1.9.928-2.855A.144.144 0 0 0 12.608 0z"/>
    </g>
</svg>
