<svg xmlns="http://www.w3.org/2000/svg" width="30" height="30" viewBox="0 0 30 30">
  <path fill="#FF8E00" d="M244.122405,305.358489 C242.147815,313.277637 234.126103,318.097125 226.205107,316.122303 C218.287345,314.147944 213.467296,306.126706 215.442809,298.20802 C217.416475,290.287948 225.438187,285.467999 233.356873,287.442358 C241.277406,289.416717 246.096994,297.438879 244.122405,305.358489 C244.122405,305.358489 246.096994,297.438879 244.122405,305.358489 Z M236.298429,299.676548 C236.592723,297.70958 235.094918,296.652184 233.04687,295.946792 L233.711227,293.282285 L232.089144,292.878082 L231.442343,295.472373 C231.015917,295.366125 230.57794,295.265883 230.142736,295.166565 L230.794157,292.555181 L229.172997,292.150978 L228.508179,294.814561 C228.155211,294.734183 227.80871,294.654728 227.472374,294.571116 L227.474222,294.562801 L225.237216,294.004307 L224.805708,295.736606 C224.805708,295.736606 226.009219,296.012388 225.983809,296.029481 C226.640773,296.193472 226.759508,296.628163 226.739642,296.972775 L225.982885,300.008225 C226.028161,300.019774 226.086835,300.036404 226.151515,300.062273 C226.097461,300.048877 226.039711,300.034094 225.980113,300.019774 L224.91936,304.271991 C224.838972,304.471552 224.63523,304.770893 224.176002,304.657254 C224.192172,304.680814 222.996977,304.362995 222.996977,304.362995 L222.19171,306.219557 L224.30259,306.745714 C224.69529,306.844109 225.080136,306.947123 225.458977,307.044132 L224.78769,309.739127 L226.407925,310.14333 L227.072744,307.476976 C227.51534,307.597082 227.945,307.707949 228.365421,307.812349 L227.702912,310.466231 L229.324996,310.870434 L229.996282,308.18052 C232.762278,308.703905 234.842204,308.492796 235.717694,305.991356 C236.423169,303.977269 235.682582,302.815474 234.227281,302.057882 C235.28711,301.813512 236.085447,301.116435 236.298429,299.676548 C236.298429,299.676548 236.085447,301.116435 236.298429,299.676548 L236.298429,299.676548 Z M232.592262,304.872983 C232.090992,306.88707 228.699447,305.798262 227.599886,305.525252 L228.490623,301.954868 C229.590184,302.229264 233.11617,302.772513 232.592262,304.872983 C232.592262,304.872983 233.11617,302.772513 232.592262,304.872983 L232.592262,304.872983 Z M233.093994,299.647445 C232.636614,301.479525 229.813792,300.548703 228.898107,300.320501 L229.705684,297.082256 C230.621368,297.310458 233.570317,297.736373 233.093994,299.647445 C233.093994,299.647445 233.570317,297.736373 233.093994,299.647445 L233.093994,299.647445 Z" transform="rotate(-30 -413.05 559.478)"/>
</svg>
