<svg xmlns="http://www.w3.org/2000/svg" width="30" height="30" viewBox="0 0 30 30">
  <path fill="#FF8E00" d="M248.122405,305.358489 C246.147815,313.277637 238.126103,318.097125 230.205107,316.122303 C222.287345,314.147944 217.467296,306.126706 219.442809,298.20802 C221.416475,290.287948 229.438187,285.467999 237.356873,287.442358 C245.277406,289.416717 250.096994,297.438879 248.122405,305.358489 C248.122405,305.358489 250.096994,297.438879 248.122405,305.358489 Z M240.298429,299.676548 C240.592723,297.70958 239.094918,296.652184 237.04687,295.946792 L237.711227,293.282285 L236.089144,292.878082 L235.442343,295.472373 C235.015917,295.366125 234.57794,295.265883 234.142736,295.166565 L234.794157,292.555181 L233.172997,292.150978 L232.508179,294.814561 C232.155211,294.734183 231.80871,294.654728 231.472374,294.571116 L231.474222,294.562801 L229.237216,294.004307 L228.805708,295.736606 C228.805708,295.736606 230.009219,296.012388 229.983809,296.029481 C230.640773,296.193472 230.759508,296.628163 230.739642,296.972775 L229.982885,300.008225 C230.028161,300.019774 230.086835,300.036404 230.151515,300.062273 C230.097461,300.048877 230.039711,300.034094 229.980113,300.019774 L228.91936,304.271991 C228.838972,304.471552 228.63523,304.770893 228.176002,304.657254 C228.192172,304.680814 226.996977,304.362995 226.996977,304.362995 L226.19171,306.219557 L228.30259,306.745714 C228.69529,306.844109 229.080136,306.947123 229.458977,307.044132 L228.78769,309.739127 L230.407925,310.14333 L231.072744,307.476976 C231.51534,307.597082 231.945,307.707949 232.365421,307.812349 L231.702912,310.466231 L233.324996,310.870434 L233.996282,308.18052 C236.762278,308.703905 238.842204,308.492796 239.717694,305.991356 C240.423169,303.977269 239.682582,302.815474 238.227281,302.057882 C239.28711,301.813512 240.085447,301.116435 240.298429,299.676548 C240.298429,299.676548 240.085447,301.116435 240.298429,299.676548 L240.298429,299.676548 Z M236.592262,304.872983 C236.090992,306.88707 232.699447,305.798262 231.599886,305.525252 L232.490623,301.954868 C233.590184,302.229264 237.11617,302.772513 236.592262,304.872983 C236.592262,304.872983 237.11617,302.772513 236.592262,304.872983 L236.592262,304.872983 Z M237.093994,299.647445 C236.636614,301.479525 233.813792,300.548703 232.898107,300.320501 L233.705684,297.082256 C234.621368,297.310458 237.570317,297.736373 237.093994,299.647445 C237.093994,299.647445 237.570317,297.736373 237.093994,299.647445 L237.093994,299.647445 Z" transform="translate(-219 -287)"/>
</svg>
