<svg xmlns="http://www.w3.org/2000/svg" width="30" height="30" viewBox="0 0 30 30">
  <g fill="none" fill-rule="evenodd">
    <path fill="#E6E6E6" d="M1.0006875,17.1885 L12.58725,28.7750625 C13.864125,30.0519375 15.9538125,30.0519375 17.2306875,28.7750625 L28.81725,17.1885 C30.8263125,15.1794375 29.411625,14.584125 27.937875,13.1881875 L26.1200625,11.466 C25.6831875,11.0525625 25.0025625,11.05725 24.5600625,11.466 L21.5806875,14.2231875 C20.76225,14.981625 19.5031875,14.981625 18.68475,14.2231875 L15.7044375,11.466 C15.262875,11.05725 14.5869375,11.05725 14.145375,11.466 L11.1650625,14.2231875 C10.3456875,14.981625 9.0875625,14.981625 8.2681875,14.2231875 L5.2888125,11.466 C4.84725,11.05725 4.1713125,11.05725 3.72975,11.466 L2.0600625,13.0100625 C0.51975,14.4350625 -1.0974375,15.090375 1.0006875,17.1885"/>
    <path fill="#0096DC" d="M24.6254063,8.35134375 L17.2313438,0.95821875 C15.9544688,-0.31959375 13.8647813,-0.31959375 12.5879063,0.95821875 L5.20884375,8.33634375 C4.78228125,8.76196875 4.78228125,9.45853125 5.20884375,9.88415625 L7.44759375,12.1219688 L8.93728125,13.5010313 C9.37884375,13.9097813 10.0547813,13.9097813 10.4963438,13.5010313 L13.4766563,10.7438438 C14.2950938,9.98634375 15.5541563,9.98634375 16.3725938,10.7438438 L19.3529063,13.5010313 C19.7944688,13.9097813 20.4704063,13.9097813 20.9119688,13.5010313 L22.4016563,12.1229063 L24.6254063,9.89915625 C25.0519688,9.47353125 25.0519688,8.77790625 24.6254063,8.35134375"/>
  </g>
</svg>
