<svg xmlns="http://www.w3.org/2000/svg" width="144" height="144" viewBox="0 0 144 144">
    <g fill="none" fill-rule="nonzero">
        <path fill="#F7931A" d="M141.846 89.417c-9.62 38.57-48.69 62.046-87.27 52.428C16.012 132.228-7.466 93.16 2.157 54.59 11.771 16.016 50.843-7.462 89.41 2.155c38.575 9.617 62.052 48.688 52.436 87.262z"/>
        <path fill="#FFF" d="M95.33 46.26c-3.862-8.885-12.778-9.385-23.058-7.013l-4.134-12.72-7.742 2.516 4.024 12.385a322.75 322.75 0 0 0-6.158 2.092L54.21 31.053l-7.738 2.513 4.13 12.72c-1.666.58-3.301 1.146-4.907 1.669l-.015-.039L35 51.383l2.689 8.269s5.682-1.967 5.621-1.83c3.137-1.019 4.748.471 5.556 1.945l4.71 14.491c.217-.068.5-.152.836-.211-.259.084-.535.172-.817.266l6.594 20.3c.182 1.033.114 2.796-2.076 3.512.127.054-5.632 1.829-5.632 1.829l1.467 9.744 10.076-3.274c1.875-.606 3.731-1.177 5.546-1.752l4.186 12.863 7.735-2.511-4.137-12.73c2.14-.648 4.2-1.297 6.207-1.951l4.114 12.671 7.743-2.516-4.17-12.844c12.776-4.979 20.823-11.22 17.981-23.81-2.283-10.14-8.341-13.028-16.308-12.402 3.746-3.744 5.246-8.686 2.41-15.182zm-1.893 31.03c3.126 9.615-13.691 13.87-18.94 15.58L68.96 75.824c5.249-1.705 21.216-8.563 24.476 1.466zM82.018 54.412C84.86 63.16 70.797 66.6 66.425 68.02l-5.023-15.459c4.37-1.42 17.652-7.272 20.616 1.851z"/>
    </g>
</svg>
