<svg xmlns="http://www.w3.org/2000/svg" width="30" height="30" viewBox="0 0 30 30">
    <g fill="none" fill-rule="evenodd">
        <path fill="none" d="M0 0h30v30H0z"/>
        <path fill="#F1B200" fill-rule="nonzero" d="M29.551 18.628c-2.004 8.036-10.143 12.927-18.181 10.923C3.336 27.547-1.555 19.408.45 11.373 2.451 3.337 10.591-1.555 18.626.45c8.037 2.003 12.928 10.143 10.924 18.18z"/>
        <path fill="#FFF" fill-rule="nonzero" d="M16.526 8.591c2.19.192 3.924.865 4.117 2.875.144 1.47-.471 2.352-1.454 2.853 1.619.388 2.633 1.35 2.433 3.507-.248 2.677-2.244 3.396-5.096 3.56v2.813h-1.697v-2.775c-.439 0-.889-.004-1.355-.013v2.788H11.78l-.001-2.818c-.397-.003-.801-.01-1.212-.01H8.36l.337-2.025s1.255.019 1.233 0c.48 0 .607-.346.638-.562V11.15c-.066-.344-.289-.742-.976-.743.02-.023-1.232.001-1.232.001V8.597c2.035.001 3.174 0 3.42-.006V5.805h1.695v2.731c.453-.009.909-.018 1.355-.018V5.805h1.696v2.786zm1.745 8.9c0-2.196-3.606-1.865-4.756-1.865v3.733c1.15 0 4.756.24 4.756-1.867zm-.79-5.267c0-1.999-3.008-1.694-3.966-1.694v3.386c.958 0 3.966.224 3.966-1.692z"/>
    </g>
</svg>
