<?xml version="1.0" standalone="no"?>
<!DOCTYPE svg PUBLIC "-//W3C//DTD SVG 20010904//EN"
 "http://www.w3.org/TR/2001/REC-SVG-20010904/DTD/svg10.dtd">
<svg version="1.0" xmlns="http://www.w3.org/2000/svg"
 width="30px" height="30px" viewBox="0 0 30 30"
 preserveAspectRatio="xMidYMid meet">
<metadata>
Created by potrace 1.15, written by Peter Selinger 2001-2017
</metadata>
<g transform="translate(0.000000,300.000000) scale(0.100000,-0.100000)"
fill="#000000" stroke="none">
<path d="M1400 2987 c-3 -3 -30 -8 -60 -11 -70 -6 -168 -24 -200 -35 -14 -5
-63 -21 -110 -35 -193 -58 -402 -188 -571 -356 -175 -172 -284 -346 -357 -565
-111 -332 -107 -679 14 -1000 36 -97 93 -214 140 -285 32 -50 28 -45 85 -117
l41 -53 -34 0 c-36 0 -112 -43 -158 -90 -14 -14 -62 -59 -108 -99 l-82 -73 0
-134 0 -134 178 0 177 0 26 33 c140 177 163 213 172 276 8 46 12 47 49 17 47
-37 47 -38 103 -73 89 -56 228 -121 325 -151 145 -46 167 -51 279 -67 370 -53
773 51 1081 279 30 23 57 43 60 46 3 3 32 27 64 55 102 85 228 257 317 432 41
81 62 137 108 288 41 131 54 457 25 612 -31 168 -66 277 -134 416 -86 176
-132 239 -275 382 -97 97 -116 114 -185 160 -25 16 -47 33 -50 36 -9 11 -130
79 -188 105 -130 59 -312 114 -382 114 -20 0 -41 5 -47 11 -11 11 -294 26
-303 16z m305 -43 c320 -45 598 -185 830 -419 503 -506 563 -1308 139 -1881
-216 -293 -516 -486 -879 -566 -136 -30 -436 -32 -565 -5 -590 126 -1030 559
-1155 1137 -22 105 -31 354 -16 476 72 576 490 1061 1052 1220 169 48 413 63
594 38z"/>
<path d="M1353 2655 c-35 -25 -59 -74 -96 -199 -35 -117 -36 -120 -17 -143 24
-31 15 -62 -24 -78 -25 -11 -35 -24 -48 -64 -15 -47 -15 -51 1 -56 10 -3 30
-18 45 -34 39 -41 30 -76 -27 -101 -23 -11 -50 -20 -59 -20 -18 0 -35 -41 -24
-59 13 -20 242 74 444 182 115 62 131 74 126 92 -14 45 -135 300 -176 371 -69
122 -97 143 -145 109z"/>
<path d="M2050 2274 c-123 -32 -217 -73 -500 -221 -251 -132 -461 -208 -690
-252 -195 -38 -242 -34 -379 29 -83 39 -111 40 -111 2 0 -39 42 -117 94 -177
44 -49 45 -49 65 -31 30 27 114 18 188 -20 66 -34 77 -58 44 -100 -12 -15 -21
-30 -21 -34 0 -19 188 -67 285 -72 l60 -3 6 44 c6 49 31 75 67 68 20 -4 22 0
22 38 0 23 6 47 13 53 41 34 349 103 469 105 63 1 82 -2 104 -19 30 -22 52
-75 61 -144 3 -25 6 -46 7 -47 3 -3 101 29 211 69 139 51 271 119 384 200 l89
63 -29 33 c-69 78 -97 191 -66 264 l16 38 -37 -25 c-66 -43 -215 -125 -239
-131 -57 -15 -113 40 -121 116 -4 43 -1 50 30 82 21 20 63 45 104 60 l69 26
-70 1 c-38 0 -95 -7 -125 -15z"/>
<path d="M2209 2244 c-98 -31 -139 -66 -139 -121 1 -62 52 -109 99 -92 33 13
239 137 246 149 13 20 -17 8 -122 -50 -130 -73 -147 -78 -173 -55 -49 45 -6
105 107 151 40 16 73 32 73 37 0 10 -4 9 -91 -19z"/>
<path d="M2451 2119 c-27 -77 -6 -164 58 -239 l29 -35 41 39 c48 47 75 99 67
131 -10 39 -57 86 -111 111 -65 31 -71 30 -84 -7z"/>
<path d="M1050 2084 c-16 -40 -12 -82 8 -93 19 -10 99 1 132 19 38 20 23 51
-40 79 -62 28 -88 27 -100 -5z"/>
<path d="M716 1878 c-64 -84 -62 -86 49 -66 51 10 71 18 73 30 5 25 -35 108
-51 108 -8 0 -40 -33 -71 -72z"/>
<path d="M1605 1674 c-93 -10 -266 -49 -351 -80 -69 -25 -68 -80 2 -113 24
-12 51 -33 61 -47 15 -23 15 -29 2 -53 -8 -14 -29 -32 -47 -40 -24 -11 -32
-21 -32 -40 0 -54 10 -68 50 -75 25 -4 43 -14 54 -32 16 -24 16 -27 0 -51 -9
-14 -28 -36 -42 -48 l-26 -22 29 -118 c33 -138 74 -230 108 -246 36 -17 89 11
131 68 93 124 211 416 242 596 22 127 6 266 -35 291 -14 9 -97 15 -146 10z"/>
<path d="M530 1590 c-40 -43 -72 -114 -78 -171 -8 -83 -3 -86 85 -39 106 55
213 135 213 159 0 19 -32 39 -111 66 -60 21 -77 19 -109 -15z"/>
<path d="M1130 1459 c-14 -25 -15 -108 -2 -121 26 -26 177 36 170 70 -4 21
-71 58 -120 65 -31 5 -40 2 -48 -14z"/>
<path d="M1167 1203 c-22 -22 11 -123 40 -123 42 0 126 70 116 97 -9 24 -137
45 -156 26z"/>
<path d="M2008 1074 c-82 -41 -148 -78 -148 -82 0 -5 6 -17 14 -28 14 -18 19
-17 153 50 l139 68 109 -54 c166 -83 175 -85 191 -63 8 10 14 22 14 27 0 10
-295 158 -312 157 -7 0 -79 -34 -160 -75z"/>
<path d="M2001 845 c1 -79 6 -114 19 -141 17 -32 19 -33 30 -17 10 16 11 16 6
1 -3 -11 0 -18 7 -18 8 0 6 -4 -3 -10 -8 -5 -10 -10 -5 -10 6 0 4 -4 -3 -9
-10 -6 -7 -10 12 -13 25 -5 26 -3 26 38 l0 44 80 0 80 0 0 -91 0 -90 43 3 42
3 3 208 2 207 -45 0 -45 0 0 -80 0 -80 -80 0 -80 0 0 80 0 80 -45 0 -46 0 2
-105z"/>
<path d="M855 793 c-11 -3 -31 -13 -45 -23 -14 -9 -42 -23 -62 -29 -21 -7 -38
-18 -38 -26 0 -7 -9 -19 -21 -26 -13 -9 -18 -20 -14 -31 10 -24 21 -22 30 5 8
21 8 21 12 -6 6 -39 45 -56 80 -35 33 20 37 40 12 67 -22 23 -40 26 -72 10
-21 -10 -21 -10 -3 5 25 20 60 20 76 1 7 -8 17 -15 23 -15 6 0 1 9 -11 20 -12
12 -22 23 -22 25 0 3 35 5 78 5 l77 -1 -30 -25 c-16 -15 -22 -24 -13 -21 14 5
16 1 12 -22 -5 -22 0 -32 21 -49 20 -16 32 -19 44 -12 31 16 42 37 35 64 -7
29 -38 42 -76 31 -22 -6 -22 -6 -4 9 11 9 25 16 32 16 19 0 74 -50 74 -67 0
-8 6 -13 13 -10 11 4 13 46 3 74 -3 7 -18 13 -34 13 -16 0 -35 7 -43 16 -30
36 -81 50 -134 37z"/>
<path d="M1035 608 c-41 -22 -85 -53 -85 -60 0 -5 73 -8 162 -8 l161 0 -19 21
c-47 52 -164 77 -219 47z"/>
<path d="M848 528 c-26 -7 -38 -16 -40 -31 -2 -12 -15 -28 -30 -35 -45 -21
-34 -92 14 -92 13 0 18 8 18 25 0 14 5 25 10 25 6 0 10 -11 10 -25 0 -33 46
-74 81 -75 32 0 89 47 89 72 0 16 10 18 80 18 69 0 80 -2 80 -17 0 -9 12 -30
27 -45 36 -38 73 -37 114 3 25 25 30 36 25 60 -4 22 -2 29 9 29 10 0 15 -10
15 -30 0 -32 16 -38 51 -20 23 13 26 68 4 76 -9 4 -15 19 -15 35 l0 29 -85 0
c-71 0 -91 -4 -119 -22 -36 -23 -63 -58 -46 -58 5 0 14 9 20 21 15 27 73 51
104 43 13 -3 35 -17 48 -31 l23 -26 -25 8 c-14 4 -43 10 -66 12 -36 4 -44 1
-66 -26 -14 -16 -28 -27 -31 -24 -8 7 -123 7 -135 -1 -6 -3 -24 7 -40 24 -33
32 -56 37 -97 18 -31 -14 -48 -1 -20 15 53 32 120 22 143 -19 6 -11 13 -17 15
-14 3 3 -9 21 -26 41 -36 40 -79 52 -139 37z"/>
</g>
</svg>
