<svg xmlns="http://www.w3.org/2000/svg" width="30" height="30" viewBox="0 0 30 30">
    <g fill="none" fill-rule="evenodd">
        <path d="M0 0h30v30H0z"/>
        <path fill="#1D75BC" fill-rule="nonzero" d="M15 0C6.716 0 0 6.716 0 15c0 8.284 6.716 15 15 15 8.284 0 15-6.716 15-15A15 15 0 0 0 15 0z"/>
        <path fill="#FFF" d="M5.99 13.615h7.203l-.923 2.824H5.04z"/>
        <path fill="#FFF" d="M24.844 11.887l-2.02 6.16a4.153 4.153 0 0 1-3.945 2.85H5.475l1.141-3.07 11.984.107 1.957-5.897H8.409l.952-2.934h13.476a2.11 2.11 0 0 1 2.007 2.784z"/>
    </g>
</svg>
