<?xml version="1.0" encoding="UTF-8"?>
<svg width="30px" height="30px" viewBox="0 0 30 30" version="1.1" xmlns="http://www.w3.org/2000/svg" xmlns:xlink="http://www.w3.org/1999/xlink">
    <!-- Generator: Sketch 48 (47235) - http://www.bohemiancoding.com/sketch -->
    <title>Page 1</title>
    <desc>Created with Sketch.</desc>
    <defs></defs>
    <g id="Artboard" stroke="none" stroke-width="1" fill="none" fill-rule="evenodd" transform="translate(-671.000000, -352.000000)">
        <g id="Page-1" transform="translate(671.000000, 352.000000)">
            <polygon id="Fill-1" fill="#000000" points="5.00778409 24.7346932 0.922670455 14.8711705 5.00778409 5.00798864 14.8716477 0.922534091 24.7348295 5.00798864 28.8202841 14.8711705 24.7348295 24.7346932 14.8716477 28.8201477"></polygon>
            <path d="M14.8714773,-0.000136363636 L4.35545455,4.35565909 L0,14.8713409 L4.35545455,25.3870227 L14.8714773,29.7428182 L25.3871591,25.3870227 L29.7426136,14.8713409 L25.3871591,4.35565909 L14.8714773,-0.000136363636 Z M5.66011364,24.0827045 L1.84534091,14.8713409 L5.66011364,5.66031818 L14.8714773,1.84520455 L24.0825,5.66031818 L27.8979545,14.8713409 L24.0825,24.0827045 L14.8714773,27.8978182 L5.66011364,24.0827045 Z" id="Fill-2" fill="#A8A8A8"></path>
            <polygon id="Fill-3" fill="#A8A8A8" points="11.775375 8.06744318 10.7062841 7.78107955 10.7062841 9.55892045 14.1068523 14.8678977 10.7062841 20.176875 10.7062841 21.9547159 11.775375 21.6683523 16.1311705 14.8678977"></polygon>
            <polygon id="Fill-4" fill="#FFFFFF" points="10.7063523 9.31540909 15.0246477 7.52665909 19.797375 9.50359091 19.797375 7.65893182 15.0246477 5.68165909 10.7063523 7.47040909"></polygon>
            <polygon id="Fill-5" fill="#FFFFFF" points="19.797375 20.3526477 15.0246477 22.3295795 10.7063523 20.5408295 10.7063523 22.3858295 15.0246477 24.1745795 19.797375 22.1976477"></polygon>
        </g>
    </g>
</svg>