<?xml version="1.0" encoding="UTF-8"?>
<svg viewBox="0 0 48 48" version="1.1" xmlns="http://www.w3.org/2000/svg" xmlns:xlink="http://www.w3.org/1999/xlink">
    <g id="04---Dashboard" stroke="none" stroke-width="1" fill="none" fill-rule="evenodd">
        <g id="Artboard" transform="translate(-155.000000, -41.000000)">
            <g id="Style/Icons/Tokens/Oracle-pack/Ergo" transform="translate(155.000000, 41.000000)">
                <rect id="ico-zone" fill-opacity="0" fill="#F9FBFD" fill-rule="evenodd" x="0" y="0" width="48" height="48"></rect>
                <circle id="circle" fill="#FFFFFF" fill-rule="evenodd" cx="24" cy="24" r="24"></circle>
                <path d="M24,48 C37.254834,48 48,37.254834 48,24 C48,10.745166 37.254834,0 24,0 C10.745166,0 0,10.745166 0,24 C0,37.254834 10.745166,48 24,48 Z M24,47 C11.2974508,47 1,36.7025492 1,24 C1,11.2974508 11.2974508,1 24,1 C36.7025492,1 47,11.2974508 47,24 C47,36.7025492 36.7025492,47 24,47 Z" id="border" fill="#F0F0F0" fill-rule="nonzero"></path>
                <path d="M15.3495876,32.8435281 L24.1348437,36.3703087 L32.8407462,32.6520365 L36.3685343,23.8664251 L32.6504124,15.1601707 L23.8651563,11.632815 L15.1569538,15.3522374 L11.6303157,24.1372736 L15.3495876,32.8435281 Z M24.1434691,38 C24.0445646,38 23.9445099,37.9810233 23.8519306,37.9436451 L14.4640467,34.1747685 C14.2714128,34.0977118 14.1167306,33.9470488 14.0368019,33.7555572 L10.0633683,24.4518259 C9.98113947,24.2603343 9.97883937,24.0458407 10.057043,23.8520489 L13.8257672,14.4637853 C13.9028208,14.2711437 14.0534777,14.1170303 14.2449615,14.0359483 L23.5483166,10.062929 C23.7398004,9.98069684 23.9554354,9.97954674 24.1486444,10.0566034 L33.5359533,13.82548 C33.7285873,13.9025367 33.8826944,14.0531998 33.9637731,14.2446913 L37.9366317,23.5466975 C38.0188605,23.7387641 38.0211606,23.9532577 37.942957,24.1470495 L34.1742329,33.5353131 C34.0977543,33.7279548 33.9470973,33.8820682 33.7550385,33.9625751 L24.4528334,37.9361695 C24.3527789,37.9798733 24.248699,38 24.1434691,38 Z M26.0201259,23.8527965 L22.257727,27.9966056 L28.1874011,27.9966056 L28.1874011,29.7821353 L19.813289,29.7821353 L19.813289,27.9966056 L23.5406112,23.870048 L19.8299648,20.0034129 L19.8299648,18.2178832 L28.1874011,18.2178832 L28.1874011,20.0034129 L22.343981,20.0034129 L26.0201259,23.8527965 Z" id="ergo" fill="#000000" fill-rule="nonzero"></path>
            </g>
        </g>
    </g>
</svg>
