<svg xmlns="http://www.w3.org/2000/svg" width="30" height="30" viewBox="0 0 30 30">
    <path fill="#000" fill-rule="nonzero" d="M5.732 24.475l9.412 3.779 9.328-3.984 3.78-9.413-3.984-9.328-9.412-3.78-9.33 3.986-3.78 9.412 3.986 9.328zM15.154 30a.838.838 0 0 1-.313-.06L4.783 25.902a.829.829 0 0 1-.458-.45L.068 15.484a.833.833 0 0 1-.007-.643L4.1 4.783a.834.834 0 0 1 .45-.459L14.515.067a.84.84 0 0 1 .643-.006l10.058 4.038a.834.834 0 0 1 .458.449l4.257 9.966c.088.206.09.436.007.644L25.9 25.216a.827.827 0 0 1-.45.458l-9.966 4.258a.821.821 0 0 1-.331.068zm2.01-15.158l-4.03 4.44h6.353v1.913h-8.973v-1.913l3.994-4.421-3.976-4.143V8.805h8.955v1.913h-6.261l3.938 4.124z"/>
</svg>
