<?xml version="1.0" encoding="UTF-8"?>
<svg viewBox="0 0 48 48" version="1.1" xmlns="http://www.w3.org/2000/svg" xmlns:xlink="http://www.w3.org/1999/xlink">
    <g id="ergo" stroke="none" stroke-width="1" fill="none" fill-rule="evenodd">
        <rect id="ico-zone" fill-opacity="0" fill="#F9FBFD" x="0" y="0" width="48" height="48"></rect>
        <circle id="circle" fill="#FFFFFF" cx="24" cy="24" r="24"></circle>
        <path d="M24,48 C37.254834,48 48,37.254834 48,24 C48,10.745166 37.254834,0 24,0 C10.745166,0 0,10.745166 0,24 C0,37.254834 10.745166,48 24,48 Z M24,47 C11.2974508,47 1,36.7025492 1,24 C1,11.2974508 11.2974508,1 24,1 C36.7025492,1 47,11.2974508 47,24 C47,36.7025492 36.7025492,47 24,47 Z" id="border" fill="#F0F0F0" fill-rule="nonzero"></path>
        <path d="M12.8780412,35.3690628 L24.1733705,39.9033117 L35.3666736,35.1228693 L39.9024012,23.82754 L35.1219588,12.6342369 L23.8266295,8.0992487 L12.6303691,12.8811698 L8.0961202,24.1757597 L12.8780412,35.3690628 Z M24.1844603,41.9985443 C24.0572973,41.9985443 23.9286556,41.9741467 23.8096251,41.9260909 L11.7394886,37.0805884 C11.4918164,36.9815195 11.2929394,36.7878177 11.1901739,36.5416242 L6.0814735,24.5801677 C5.97575075,24.3339742 5.97279347,24.0582078 6.07334098,23.809057 L10.9188435,11.7389205 C11.0179124,11.4912484 11.2116142,11.2931106 11.4578077,11.1888665 L23.4192642,6.08090541 C23.6654577,5.97518266 23.9427027,5.97370402 24.1911142,6.07277289 L36.2605114,10.9182754 C36.5081836,11.0173443 36.7063213,11.2110461 36.8105654,11.4572396 L41.9185265,23.4164782 C42.0242492,23.663411 42.0272065,23.9391773 41.926659,24.1883281 L37.0811565,36.2584647 C36.9828269,36.5061368 36.7891251,36.7042746 36.5421923,36.8077793 L24.5822144,41.9164798 C24.4535728,41.9726681 24.3197559,41.9985443 24.1844603,41.9985443 Z M26.5973047,23.8100182 L21.7599347,29.1375573 L29.3838014,29.1375573 L29.3838014,31.4331455 L18.6170858,31.4331455 L18.6170858,29.1375573 L23.4093573,23.8321978 L18.6385261,18.8610108 L18.6385261,16.5654226 L29.3838014,16.5654226 L29.3838014,18.8610108 L21.8708327,18.8610108 L26.5973047,23.8100182 Z" fill="#000000" fill-rule="nonzero"></path>
    </g>
</svg>
