<svg xmlns="http://www.w3.org/2000/svg" width="30" height="30" viewBox="0 0 30 30">
  <g fill="none">
    <path fill="#029FE4" d="M15,0 C6.71554687,0 0,6.71578125 0,15 C0,23.2842188 6.71578125,30 15,30 C23.2839844,30 30,23.2842188 30,15 C30,6.71578125 23.2842188,0 15,0 Z"/>
    <path fill="#FFF" d="M9.13365546,12.708489 C8.99861678,12.708489 7.64834099,12.708489 7.64834099,12.708489 C7.5994075,12.708489 7.55613298,12.7406675 7.54204103,12.7876037 L7.00466033,14.5788357 C7.00155344,14.589266 7,14.6000291 7,14.6106813 C7,14.6342049 7.0075453,14.6575066 7.02197014,14.6769246 C7.04283067,14.7049976 7.07589684,14.7216416 7.11096029,14.7216416 C7.11096029,14.7216416 8.49408033,14.7216416 8.69547326,14.7216416 C8.68271283,14.8984014 8.67183872,15.0752721 8.67183872,15.2463728 C8.67183872,15.4727318 8.68870469,15.7031964 8.7104529,15.9327732 C8.52037792,15.9327732 7.64834099,15.9327732 7.64834099,15.9327732 C7.5994075,15.9327732 7.55613298,15.9649517 7.54204103,16.0118879 L7.00466033,17.8031199 C7.00155344,17.8135502 7,17.8242023 7,17.8349655 C7,17.8586 7.0075453,17.8817907 7.02197014,17.9012088 C7.04283067,17.9293927 7.07589684,17.9459258 7.11096029,17.9459258 C7.11096029,17.9459258 9.0608655,17.9459258 9.19645898,17.9459258 C10.2939672,20.6677817 12.9838666,22.4925237 15.9181006,22.4925237 C17.5654171,22.4925237 19.1778921,21.9247399 20.4585957,20.8936969 C20.5064196,20.8551937 20.513854,20.7852887 20.4754617,20.7376867 L19.3522107,19.3423611 C19.3336803,19.3193923 19.3069389,19.3047455 19.2776454,19.3016386 C19.2483518,19.2985317 19.2190583,19.3070757 19.1962005,19.3254951 C18.2584751,20.0804689 17.1249047,20.4794821 15.9181006,20.4794821 C14.0864791,20.4794821 12.3962209,19.5100221 11.4480652,17.9460367 C11.8261069,17.9460367 16.7837018,17.9460367 16.7837018,17.9460367 C16.8303052,17.9460367 16.8718043,17.9169651 16.8877826,17.8733577 L17.5446675,16.0820148 C17.5492169,16.0695872 17.5515471,16.0566049 17.5515471,16.0437335 C17.5515471,16.0213195 17.5446675,15.9991275 17.5315742,15.9802642 C17.5107137,15.9504159 17.4768708,15.9327732 17.4405868,15.9327732 C17.4405868,15.9327732 10.9252203,15.9327732 10.7325933,15.9327732 C10.702634,15.7054156 10.6848803,15.4753949 10.6848803,15.2463728 C10.6848803,15.0730529 10.6986394,14.8969589 10.7162821,14.7216416 C10.917897,14.7216416 16.7837018,14.7216416 16.7837018,14.7216416 C16.8303052,14.7216416 16.8718043,14.69257 16.8877826,14.6488517 L17.5446675,12.8576197 C17.5492169,12.8451921 17.5515471,12.8323207 17.5515471,12.8194493 C17.5515471,12.7970353 17.5446675,12.7748433 17.5315742,12.7558691 C17.5107137,12.7261317 17.4768708,12.708489 17.4405868,12.708489 C17.4405868,12.708489 11.7214714,12.708489 11.353638,12.708489 C12.2809332,11.0449723 14.0080301,10.0133745 15.9181006,10.0133745 C17.1247938,10.0133745 18.2583641,10.4122767 19.1959786,11.1669177 C19.2189474,11.1854481 19.2482409,11.193992 19.2774234,11.1907742 C19.306717,11.1876673 19.3334584,11.1729096 19.3519888,11.1500517 L20.4750179,9.75450414 C20.5134101,9.70679121 20.5057539,9.63688623 20.4581519,9.59849397 C19.1774482,8.56767285 17.5650842,8 15.9181006,8 C12.9063054,8.00022192 10.1914399,9.88965377 9.13365546,12.708489 Z"/>
  </g>
</svg>
