<?xml version="1.0" encoding="UTF-8"?>
<svg width="30px" height="30px" viewBox="0 0 30 30" version="1.1" xmlns="http://www.w3.org/2000/svg" xmlns:xlink="http://www.w3.org/1999/xlink">
    <!-- Generator: Sketch 48 (47235) - http://www.bohemiancoding.com/sketch -->
    <title>if_currency-litecoin_2389818</title>
    <desc>Created with Sketch.</desc>
    <defs></defs>
    <g id="wallet_assets" stroke="none" stroke-width="1" fill="none" fill-rule="evenodd" transform="translate(-780.000000, -728.000000)">
        <g id="if_currency-litecoin_2389818" transform="translate(780.000000, 728.000000)" fill-rule="nonzero">
            <path d="M15,0 C6.71554687,0 0,6.71578125 0,15 C0,23.2842188 6.71578125,30 15,30 C23.2839844,30 30,23.2842188 30,15 C30,6.71578125 23.2842188,0 15,0 Z" id="Shape" fill="#909BA7"></path>
            <polygon id="Shape" fill="#FFFFFF" points="20.305032 21.1747484 9.45983532 21.1747484 10.5674291 17.0135407 9 17.5862763 9.51802379 15.6338518 11.0869167 15.0607502 12.9659652 8 17.0413541 8 15.6042086 13.41043 17.5983532 12.6819762 17.6155535 12.7288198 17.1116194 14.6228728 15.0856359 15.3628545 14.2298262 18.5849954 21 18.5849954"></polygon>
        </g>
    </g>
</svg>