<svg xmlns="http://www.w3.org/2000/svg" width="30" height="30" viewBox="0 0 30 30">
  <g fill="none" fill-rule="evenodd">
    <path fill="#48B04C" fill-rule="nonzero" d="M15,0 C6.71554687,0 0,6.71578125 0,15 C0,23.2842188 6.71578125,30 15,30 C23.2839844,30 30,23.2842188 30,15 C30,6.71578125 23.2842188,0 15,0 Z"/>
    <path fill="#FFF" d="M10.0094388,18.2326531 L10.0094388,18.1571429 L12.7278061,18.1571429 C12.7278061,18.9877551 12.9543367,19.5918367 13.3318878,19.9693878 C13.7094388,20.3469388 14.2380102,20.4979592 14.917602,20.4979592 C15.5216837,20.4979592 16.0502551,20.3469388 16.3522959,20.044898 C16.6543367,19.7428571 16.8053571,19.2897959 16.8053571,18.7612245 C16.8053571,18.2326531 16.6543367,17.7795918 16.3522959,17.477551 C16.0502551,17.1755102 15.5216837,16.8734694 14.6910714,16.5714286 C13.2563776,16.0428571 12.1237245,15.5142857 11.4441327,14.8346939 C10.7645408,14.155102 10.3869898,13.2489796 10.3869898,12.0408163 C10.3869898,10.9081633 10.7645408,10.077551 11.4441327,9.32244898 C12.1237245,8.64285714 13.1053571,8.18979592 14.3135204,8.11428571 L14.3135204,6 L15.8237245,6 L15.8237245,8.11428571 C17.0318878,8.26530612 17.9380102,8.71836735 18.617602,9.47346939 C19.2971939,10.2285714 19.5992347,11.2102041 19.5992347,12.4183673 L19.5992347,12.4938776 L16.8053571,12.4938776 C16.8053571,11.8142857 16.6543367,11.2102041 16.3522959,10.8326531 C16.0502551,10.455102 15.5971939,10.2285714 14.9931122,10.2285714 C14.3890306,10.2285714 13.9359694,10.3795918 13.7094388,10.6816327 C13.407398,10.9836735 13.3318878,11.4367347 13.3318878,11.9653061 C13.3318878,12.4938776 13.4829082,12.8714286 13.784949,13.1734694 C14.0869898,13.4755102 14.6155612,13.777551 15.4461735,14.155102 C16.8808673,14.6081633 18.0135204,15.2122449 18.6931122,15.8918367 C19.4482143,16.5714286 19.7502551,17.477551 19.7502551,18.6857143 C19.7502551,19.8183673 19.3727041,20.7244898 18.6931122,21.4040816 C18.0135204,22.0836735 17.0318878,22.4612245 15.7482143,22.6122449 L15.7482143,24.5 L14.2380102,24.5 L14.2380102,22.6122449 C12.9543367,22.5367347 11.9727041,22.0836735 11.1420918,21.3285714 C10.3114796,20.5734694 9.93392857,19.5163265 10.0094388,18.1571429 L10.0094388,18.2326531 Z"/>
  </g>
</svg>
