<svg id="Laag_1" xmlns="http://www.w3.org/2000/svg" viewBox="0 0 610.8 609.2" width="2000" height="1995"><style>.st0,.st1{fill-rule:evenodd;clip-rule:evenodd;fill:#3db6d3}.st1{fill:#e2e1e1}</style><path class="st0" d="M504.5 171.1L353.1 19.6c-26.2-26.2-69-26.2-95.1 0L106.7 170.8c-8.7 8.7-8.7 23 0 31.7l45.9 45.9 30.5 28.2c9.1 8.4 22.9 8.4 32 0l61.1-56.5c16.8-15.5 42.6-15.5 59.3 0l61.1 56.5c9 8.4 22.9 8.4 31.9 0l30.5-28.2 45.5-45.5c8.8-8.8 8.8-23 0-31.8"/><path class="st1" d="M20.5 352.2l237.4 237.4c26.2 26.2 69 26.2 95.1 0l237.4-237.4c41.2-41.2 12.2-53.3-18-81.9L535.2 235c-9-8.5-22.9-8.4-32 0l-61.1 56.5c-16.8 15.5-42.6 15.5-59.3 0L321.7 235c-9-8.4-22.9-8.4-31.9 0l-61.1 56.5c-16.8 15.5-42.6 15.5-59.3 0L108.3 235c-9.1-8.4-22.9-8.4-32 0l-34.2 31.6c-31.4 29.2-64.6 42.6-21.6 85.6"/></svg>