<?xml version="1.0" encoding="UTF-8"?>
<svg width="30px" height="30px" viewBox="0 0 30 30" version="1.1" xmlns="http://www.w3.org/2000/svg" xmlns:xlink="http://www.w3.org/1999/xlink">
    <!-- Generator: Sketch 48 (47235) - http://www.bohemiancoding.com/sketch -->
    <title>Group 13</title>
    <desc>Created with Sketch.</desc>
    <defs></defs>
    <g id="Artboard" stroke="none" stroke-width="1" fill="none" fill-rule="evenodd" transform="translate(-388.000000, -427.000000)">
        <g id="Group-13" transform="translate(388.000000, 427.000000)">
            <path d="M15,30 C23.2842712,30 30,23.2842712 30,15 C30,12.3216933 29.2980517,9.80733545 28.0680904,7.63086175 C25.6072998,12.1352539 20.2241286,18.5526123 14.6181641,18.5526123 C9.06945642,18.5526123 5.8572998,13.5831299 2.01151428,7.49174055 C0.732281664,9.69990634 0,12.2644364 0,15 C0,23.2842712 6.71572875,30 15,30 Z" id="Oval-5" fill="#0096DC"></path>
            <path d="M0.0740182825,16.4995509 C0.0250639466,16.006337 0,15.5060955 0,15 C0,12.244094 0.743213068,9.66177465 2.04014315,7.44253809 C2.06315668,7.43607898 2.08630114,7.43023286 2.10955167,7.42499974 C2.53764147,7.32864735 3.00169198,7.44010369 3.34658612,7.75936875 L6.92183612,11.0679937 C7.90508612,11.9781187 9.41483612,11.9781187 10.3980861,11.0679937 L13.9744611,7.75936875 C14.5043361,7.26886875 15.3154611,7.26886875 15.8453361,7.75936875 L19.4217111,11.0679937 C20.4038361,11.9781187 21.9147111,11.9781187 22.8968361,11.0679937 L26.4720861,7.75936875 C26.7017029,7.54726515 26.984752,7.42582826 27.2744768,7.39642257 C27.5113332,7.37238277 27.7526514,7.40985129 27.9728841,7.50957367 C27.9808626,7.51318635 27.9949776,7.52269343 28.0152292,7.53809491 C29.2779192,9.73576447 30,12.2835567 30,15 C30,15.4240678 29.9824023,15.8440254 29.9478974,16.2591825 C28.8804115,17.3266683 28.029379,18.1777009 27.3947997,18.8122802 C25.2352522,20.9718276 21.995931,24.2111488 17.6768361,28.5302437 C16.1445861,30.0624937 13.6369611,30.0624937 12.1047111,28.5302437 C7.73010309,24.1556357 4.44914707,20.8746797 2.26184306,18.6873757 C1.70460716,18.1301398 0.975332231,17.4008649 0.0740182823,16.4995509 Z" id="Combined-Shape" fill="#0096DC"></path>
            <path d="M26.7321153,5.65256595 C26.6811911,5.73307167 26.6206522,5.80915686 26.5504986,5.87915625 L23.8819986,8.54765625 L22.0943736,10.2014063 C21.5644986,10.6919062 20.7533736,10.6919062 20.2234986,10.2014063 L16.6471236,6.89278125 C15.6649986,5.98378125 14.1541236,5.98378125 13.1719986,6.89278125 L9.59562362,10.2014063 C9.06574862,10.6919062 8.25462362,10.6919062 7.72474862,10.2014063 L5.93712362,8.54653125 L3.25062362,5.86115625 C3.2226992,5.83329321 3.19629815,5.80446257 3.17142047,5.77476992 C5.91665815,2.25982875 10.1944234,0 15,0 C19.7496516,0 23.9837053,2.20753724 26.7321153,5.65256595 Z" id="Combined-Shape" fill="#E6E6E6"></path>
            <path d="M7.4921875,20.4453125 C7.4921875,20.2656241 7.55273377,20.1197922 7.67382812,20.0078125 C7.79492248,19.8958328 7.94661367,19.8398438 8.12890625,19.8398438 C8.31380301,19.8398438 8.46679627,19.8958328 8.58789062,20.0078125 C8.70898498,20.1197922 8.76953125,20.2656241 8.76953125,20.4453125 C8.76953125,20.6223967 8.70963602,20.7662755 8.58984375,20.8769531 C8.47005148,20.9876308 8.31640719,21.0429688 8.12890625,21.0429688 C7.94400949,21.0429688 7.79166727,20.9876308 7.671875,20.8769531 C7.55208273,20.7662755 7.4921875,20.6223967 7.4921875,20.4453125 Z M11.036875,16.7734375 L11.0720313,17.2617188 C11.3741161,16.8841127 11.77906,16.6953125 12.286875,16.6953125 C12.7347939,16.6953125 13.0681239,16.8268216 13.286875,17.0898438 C13.5056261,17.3528659 13.6176042,17.7460911 13.6228125,18.2695312 L13.6228125,21 L12.4939063,21 L12.4939063,18.296875 C12.4939063,18.0572905 12.4418234,17.8834641 12.3376563,17.7753906 C12.2334891,17.6673172 12.0603137,17.6132812 11.818125,17.6132812 C11.5004151,17.6132812 11.2621362,17.7486966 11.1032813,18.0195312 L11.1032813,21 L9.97437501,21 L9.97437501,16.7734375 L11.036875,16.7734375 Z M16.6635938,21.078125 C16.043799,21.078125 15.5392468,20.8880227 15.1499219,20.5078125 C14.760597,20.1276023 14.5659375,19.6210969 14.5659375,18.9882812 L14.5659375,18.8789062 C14.5659375,18.454425 14.6479679,18.0748715 14.8120313,17.7402344 C14.9760946,17.4055973 15.2085141,17.1477874 15.5092969,16.9667969 C15.8100796,16.7858064 16.1531752,16.6953125 16.5385938,16.6953125 C17.1167217,16.6953125 17.5717952,16.8776023 17.9038281,17.2421875 C18.2358611,17.6067727 18.401875,18.1236946 18.401875,18.7929688 L18.401875,19.2539062 L15.7104688,19.2539062 C15.7469273,19.5299493 15.8569522,19.7513012 16.0405469,19.9179688 C16.2241416,20.0846363 16.4565611,20.1679688 16.7378125,20.1679688 C17.1727105,20.1679688 17.5125509,20.0104182 17.7573438,19.6953125 L18.3120313,20.3164062 C18.1427596,20.5559908 17.9135952,20.7428379 17.6245313,20.8769531 C17.3354673,21.0110684 17.015158,21.078125 16.6635938,21.078125 Z M16.5346875,17.609375 C16.3107281,17.609375 16.1290893,17.6848951 15.9897656,17.8359375 C15.850442,17.9869799 15.7612502,18.2031236 15.7221875,18.484375 L17.2925,18.484375 L17.2925,18.3945312 C17.2872917,18.14453 17.219584,17.9511726 17.089375,17.8144531 C16.959166,17.6777337 16.7742721,17.609375 16.5346875,17.609375 Z M20.6340625,15.734375 L20.6340625,16.7734375 L21.3567188,16.7734375 L21.3567188,17.6015625 L20.6340625,17.6015625 L20.6340625,19.7109375 C20.6340625,19.8671883 20.6640101,19.9791663 20.7239063,20.046875 C20.7838024,20.1145837 20.8983846,20.1484375 21.0676563,20.1484375 C21.1926569,20.1484375 21.3033329,20.139323 21.3996875,20.1210938 L21.3996875,20.9765625 C21.1783323,21.0442712 20.95047,21.078125 20.7160938,21.078125 C19.9244232,21.078125 19.5207814,20.6783894 19.5051563,19.8789062 L19.5051563,17.6015625 L18.8879688,17.6015625 L18.8879688,16.7734375 L19.5051563,16.7734375 L19.5051563,15.734375 L20.6340625,15.734375 Z" id=".net" fill="#FFFFFF"></path>
        </g>
    </g>
</svg>