<svg xmlns="http://www.w3.org/2000/svg" width="30" height="30" viewBox="0 0 30 30">
    <g fill="none" fill-rule="evenodd">
        <path fill="none" d="M0 0h30v30H0z"/>
        <circle cx="15" cy="15" r="15" fill="#FFF"/>
        <path fill="#4C4C4C" d="M14.995 30c-5.317 0-9.96-2.763-12.655-6.942h6.203v-7.863l6.452 6.446 6.452-6.446v7.863h6.203A14.973 14.973 0 0 1 14.995 30z"/>
        <path fill="#F60" d="M30 14.982a14.9 14.9 0 0 1-.823 4.924h-4.49V7.332l-9.705 9.67-9.67-9.67v12.574H.816A14.953 14.953 0 0 1 0 14.982C0 6.73 6.73 0 14.982 0 23.27 0 30 6.73 30 14.982z"/>
    </g>
</svg>
