<svg xmlns="http://www.w3.org/2000/svg" width="60" height="30" viewBox="0 0 60 30">
  <g fill="none" fill-rule="evenodd">
    <path fill="#DAE1E9" fill-rule="nonzero" d="M16.5,16.5 L16.5,28.5 C16.5,29.3284271 15.8284271,30 15,30 C14.1715729,30 13.5,29.3284271 13.5,28.5 L13.5,16.5 L1.5,16.5 C0.671572875,16.5 8.32667268e-17,15.8284271 0,15 C-8.32667268e-17,14.1715729 0.671572875,13.5 1.5,13.5 L13.5,13.5 L13.5,1.5 C13.5,0.671572875 14.1715729,1.52179594e-16 15,0 C15.8284271,-1.52179594e-16 16.5,0.671572875 16.5,1.5 L16.5,13.5 L28.5,13.5 C29.3284271,13.5 30,14.1715729 30,15 C30,15.8284271 29.3284271,16.5 28.5,16.5 L16.5,16.5 Z"/>
    <path fill="#9BA6B2" fill-rule="nonzero" d="M46.5,16.5 L46.5,28.5 C46.5,29.3284271 45.8284271,30 45,30 C44.1715729,30 43.5,29.3284271 43.5,28.5 L43.5,16.5 L31.5,16.5 C30.6715729,16.5 30,15.8284271 30,15 C30,14.1715729 30.6715729,13.5 31.5,13.5 L43.5,13.5 L43.5,1.5 C43.5,0.671572875 44.1715729,1.52179594e-16 45,0 C45.8284271,-1.52179594e-16 46.5,0.671572875 46.5,1.5 L46.5,13.5 L58.5,13.5 C59.3284271,13.5 60,14.1715729 60,15 C60,15.8284271 59.3284271,16.5 58.5,16.5 L46.5,16.5 Z"/>
  </g>
</svg>
