<svg xmlns="http://www.w3.org/2000/svg" width="60" height="60" viewBox="0 0 60 60">
  <path fill="#9BA6B2" d="M1292.66667,688.666667 L1269.33333,688.666667 L1269.33333,665.333333 C1269.33333,663.493333 1267.84,662 1266,662 C1264.16,662 1262.66667,663.493333 1262.66667,665.333333 L1262.66667,688.666667 L1239.33333,688.666667 C1237.49333,688.666667 1236,690.16 1236,692 C1236,693.84 1237.49333,695.333333 1239.33333,695.333333 L1262.66667,695.333333 L1262.66667,718.666667 C1262.66667,720.506667 1264.16,722 1266,722 C1267.84,722 1269.33333,720.506667 1269.33333,718.666667 L1269.33333,695.333333 L1292.66667,695.333333 C1294.50667,695.333333 1296,693.84 1296,692 C1296,690.16 1294.50667,688.666667 1292.66667,688.666667 Z" transform="translate(-1236 -662)"/>
</svg>
