<svg xmlns="http://www.w3.org/2000/svg" width="42" height="38" viewBox="0 0 42 38">
  <defs>
    <filter id="amount-modal-icon-a" width="106.3%" height="104.7%" x="-3.2%" y="-1.8%" filterUnits="objectBoundingBox">
      <feOffset dy="4" in="SourceAlpha" result="shadowOffsetOuter1"/>
      <feGaussianBlur in="shadowOffsetOuter1" result="shadowBlurOuter1" stdDeviation="5"/>
      <feColorMatrix in="shadowBlurOuter1" result="shadowMatrixOuter1" values="0 0 0 0 0   0 0 0 0 0   0 0 0 0 0  0 0 0 0.1 0"/>
      <feMerge>
        <feMergeNode in="shadowMatrixOuter1"/>
        <feMergeNode in="SourceGraphic"/>
      </feMerge>
    </filter>
  </defs>
  <path fill="#9BA6B2" d="M0.5,5.999 L22.293,5.999 L18.146,10.146 C17.951,10.341 17.951,10.658 18.146,10.853 C18.244,10.95 18.372,10.999 18.5,10.999 C18.628,10.999 18.756,10.95 18.853,10.854 L23.853,5.854 C23.867,5.84 23.872,5.822 23.884,5.808 C23.913,5.772 23.943,5.735 23.961,5.691 C23.979,5.648 23.983,5.602 23.988,5.557 C23.991,5.537 24,5.52 24,5.499 C24,5.452 23.985,5.41 23.973,5.367 C23.968,5.349 23.969,5.329 23.962,5.311 C23.936,5.246 23.897,5.189 23.847,5.141 L18.853,0.147 C18.658,-0.048 18.341,-0.048 18.146,0.147 C17.951,0.342 17.951,0.659 18.146,0.854 L22.291,4.999 L0.5,4.999 C0.224,4.999 -5.42101086e-20,5.223 -5.42101086e-20,5.499 C-5.42101086e-20,5.775 0.224,5.999 0.5,5.999 Z M23.5,13.999 L1.707,13.999 L5.853,9.853 C6.048,9.658 6.048,9.341 5.853,9.146 C5.658,8.951 5.341,8.951 5.146,9.146 L0.146,14.146 C0.142,14.15 0.141,14.156 0.136,14.16 C0.096,14.203 0.061,14.252 0.038,14.307 C-0.013,14.43 -0.013,14.568 0.038,14.691 C0.052,14.724 0.076,14.749 0.096,14.778 C0.113,14.803 0.123,14.83 0.145,14.852 L5.145,19.852 C5.243,19.949 5.371,19.998 5.499,19.998 C5.627,19.998 5.755,19.949 5.852,19.851 C6.047,19.656 6.047,19.339 5.852,19.144 L1.706,14.998 L23.5,14.998 C23.776,14.998 24,14.774 24,14.498 C24,14.222 23.776,13.999 23.5,13.999 Z" filter="url(#amount-modal-icon-a)" transform="translate(9 5)"/>
</svg>
