<svg xmlns="http://www.w3.org/2000/svg" width="8" height="9" viewBox="0 0 8 9">
  <path fill="#FF5962" d="M7.71161711,3.57264797 L4.13331528,0.0541661024 C4.05986592,-0.0180553675 3.94046364,-0.0180553675 3.86701429,0.0541661024 L0.288712458,3.57264797 C-0.096237486,3.95116255 -0.096237486,4.56708206 0.288712458,4.94559663 C0.673662402,5.32411121 1.30005355,5.32411121 1.6850035,4.94559663 L3.05831807,3.59524033 L3.05831807,7.96297261 C3.05831807,8.47333766 3.48093435,8.88888889 3.99997645,8.88888889 C4.51901855,8.88888889 4.94163483,8.47333766 4.94163483,7.96297261 L4.94163483,3.59524033 L6.3149494,4.94559663 C6.69989935,5.32411121 7.3262905,5.32411121 7.71124044,4.94559663 C8.09619039,4.56745242 8.09619039,3.95116255 7.71161711,3.57264797 Z" transform="translate(0 .111)"/>
</svg>
