<svg width="8" height="9" xmlns="http://www.w3.org/2000/svg">

 <g>
  <title>background</title>
  <rect fill="none" id="canvas_background" height="402" width="582" y="-1" x="-1"/>
 </g>
 <g>
  <title>Layer 1</title>
  <path id="svg_1" d="m7.71162,5.31635l-3.5783,3.51848c-0.07345,0.072229 -0.19286,0.072229 -0.26631,0l-3.5783,-3.51848c-0.38495,-0.37851 -0.38495,-0.99443 0,-1.37295c0.38495,-0.37851 1.01134,-0.37851 1.39629,0l1.37332,1.35036l0,-4.36773c0,-0.51037 0.42261,-0.92592 0.94166,-0.92592c0.51904,0 0.94165,0.41555 0.94165,0.92592l0,4.36773l1.37332,-1.35036c0.38495,-0.37851 1.01134,-0.37851 1.39629,0c0.384951,0.37815 0.384951,0.99444 0.00038,1.37295z" fill="#ff5962"/>
 </g>
</svg>