<svg xmlns="http://www.w3.org/2000/svg" width="18" height="18" viewBox="0 0 18 18">
    <g fill="none" fill-rule="evenodd">
        <path fill="none" d="M18 0v18H0V0z"/>
        <path fill="#1F5AF6" fill-rule="nonzero" d="M8.649.53v15.663l-4.391-4.391a.53.53 0 0 0-.75.748l5.294 5.294c.015.015.034.02.05.033.037.03.076.063.123.082.046.019.094.023.142.028.021.003.04.013.061.013.05 0 .095-.016.14-.029.02-.005.04-.004.06-.011a.511.511 0 0 0 .18-.122l5.287-5.288a.53.53 0 0 0-.748-.748l-4.39 4.388V.53a.53.53 0 0 0-1.058 0z"/>
    </g>
</svg>
