<svg width="8" height="9" xmlns="http://www.w3.org/2000/svg">

 <g>
  <title>background</title>
  <rect fill="none" id="canvas_background" height="402" width="582" y="-1" x="-1"/>
 </g>
 <g>
  <title>Layer 1</title>
  <path id="svg_1" d="m7.711617,3.683648l-3.578302,-3.518482c-0.073449,-0.072221 -0.192851,-0.072221 -0.266301,0l-3.578302,3.518482c-0.384949,0.378515 -0.384949,0.994434 0,1.372949c0.38495,0.378514 1.011342,0.378514 1.396292,0l1.373314,-1.350357l0,4.367733c0,0.510365 0.422616,0.925917 0.941658,0.925917c0.519043,0 0.941659,-0.415551 0.941659,-0.925917l0,-4.367733l1.373315,1.350357c0.384949,0.378514 1.011341,0.378514 1.39629,0c0.384951,-0.378145 0.384951,-0.994434 0.000377,-1.372949z" fill="#008b55"/>
 </g>
</svg>