<svg xmlns="http://www.w3.org/2000/svg" width="80" height="80" viewBox="0 0 80 80">
    <path fill="#EF4829" fill-rule="evenodd" d="M40 80C17.945 80 0 62.055 0 40S17.945 0 40 0s40 17.945 40 40-17.945 40-40 40zm-.003-77c-20.4 0-37 16.6-37 37s16.6 37 37 37 37-16.6 37-37-16.6-37-37-37zm1.472 42.612A1.54 1.54 0 0 1 40 46.692a1.535 1.535 0 0 1-1.468-1.08L33.134 26.34a7.123 7.123 0 0 1 1.07-6.408A7.123 7.123 0 0 1 40 17a7.128 7.128 0 0 1 5.797 2.932 7.132 7.132 0 0 1 1.07 6.408l-5.398 19.272zm1.848-23.857A4.074 4.074 0 0 0 40 20.077c-1.323 0-2.532.61-3.317 1.678a4.074 4.074 0 0 0-.612 3.667L40 39.995l3.93-14.573a4.074 4.074 0 0 0-.613-3.667zM39.997 51c3.033 0 5.5 2.467 5.5 5.5s-2.467 5.5-5.5 5.5a5.506 5.506 0 0 1-5.5-5.5c0-3.033 2.467-5.5 5.5-5.5zm0 8c1.379 0 2.5-1.121 2.5-2.5s-1.121-2.5-2.5-2.5a2.503 2.503 0 0 0-2.5 2.5c0 1.379 1.121 2.5 2.5 2.5z"/>
</svg>
