<svg xmlns="http://www.w3.org/2000/svg" width="80" height="80" viewBox="0 0 80 80">
    <g fill="none" fill-rule="nonzero">
        <path fill="#DAE1E9" d="M40 79.5c14.636 0 26.5-11.864 26.5-26.5S54.636 26.5 40 26.5 13.5 38.364 13.5 53 25.364 79.5 40 79.5zm0-3c-12.979 0-23.5-10.521-23.5-23.5S27.021 29.5 40 29.5 63.5 40.021 63.5 53 52.979 76.5 40 76.5z"/>
        <path fill="#5A81EA" d="M40 67.5c8.008 0 14.5-6.492 14.5-14.5S48.008 38.5 40 38.5 25.5 44.992 25.5 53 31.992 67.5 40 67.5zm0-3c-6.351 0-11.5-5.149-11.5-11.5S33.649 41.5 40 41.5 51.5 46.649 51.5 53 46.351 64.5 40 64.5z"/>
        <path fill="#DAE1E9" d="M41.5 35.25v-2.5a1.5 1.5 0 0 0-3 0v2.5a1.5 1.5 0 0 0 3 0zM41.5 73.25v-2.5a1.5 1.5 0 0 0-3 0v2.5a1.5 1.5 0 0 0 3 0zM58 54.75a1.5 1.5 0 0 1 0-3h2.5a1.5 1.5 0 0 1 0 3H58zM20 54.75a1.5 1.5 0 0 1 0-3h2.5a1.5 1.5 0 0 1 0 3H20zM53.789 41.583a1.5 1.5 0 0 1-2.122-2.122l1.768-1.767a1.5 1.5 0 0 1 2.121 2.121l-1.767 1.768zM26.919 68.453a1.5 1.5 0 0 1-2.122-2.122l1.768-1.767a1.5 1.5 0 0 1 2.121 2.121l-1.767 1.768zM28.333 39.461a1.5 1.5 0 0 1-2.122 2.122l-1.767-1.768a1.5 1.5 0 0 1 2.121-2.121l1.768 1.767zM55.203 66.331a1.5 1.5 0 0 1-2.122 2.122l-1.767-1.768a1.5 1.5 0 0 1 2.121-2.121l1.768 1.767z"/>
        <path fill="#5A81EA" d="M40 47a5 5 0 0 1 1.5 9.771v2.146c0 .736-.597 1.333-1.333 1.333h-.334a1.333 1.333 0 0 1-1.333-1.333V56.77A5.002 5.002 0 0 1 40 47zm0 3a2 2 0 1 0 0 4 2 2 0 0 0 0-4z"/>
        <path fill="#DAE1E9" d="M39.678 4.167h.644v-3h-3.31c-8.838 0-15.845 8.835-15.845 19.587v14.08h3v-14.08c0-9.227 5.837-16.587 12.844-16.587h5.978c7.007 0 12.844 7.36 12.844 16.587v14.079h3v-14.08c0-10.75-7.007-19.586-15.844-19.586h-3.31v3h.643v-3h-.644v3z"/>
    </g>
</svg>
