<svg xmlns="http://www.w3.org/2000/svg" width="260" height="216" viewBox="0 0 260 216">
    <defs>
        <linearGradient id="a" x1="50%" x2="50%" y1="100%" y2="0%">
            <stop offset="0%" stop-color="#0080FF"/>
            <stop offset="100%" stop-color="#00AEFF" stop-opacity=".5"/>
        </linearGradient>
        <linearGradient id="b" x1="26.147%" x2="73.853%" y1="11.227%" y2="94.482%">
            <stop offset="0%" stop-color="#0037FF"/>
            <stop offset="22.37%" stop-color="#003BFF"/>
            <stop offset="42.41%" stop-color="#0045FF"/>
            <stop offset="61.55%" stop-color="#0058FF"/>
            <stop offset="80.13%" stop-color="#0071FF"/>
            <stop offset="98.17%" stop-color="#0092FF"/>
            <stop offset="100%" stop-color="#0096FF"/>
        </linearGradient>
        <linearGradient id="c" x1="27.981%" x2="71.994%" y1="-21.741%" y2="91.14%">
            <stop offset="0%" stop-color="#0019D2"/>
            <stop offset="100%" stop-color="#0019D2" stop-opacity=".1"/>
        </linearGradient>
        <linearGradient id="d" x1="0%" y1="50%" y2="50%">
            <stop offset="0%" stop-color="#FF9600"/>
            <stop offset="35.59%" stop-color="#FFAD00"/>
            <stop offset="72.45%" stop-color="#FFBE00"/>
            <stop offset="100%" stop-color="#FFC400"/>
        </linearGradient>
        <linearGradient id="e" x1="46.744%" x2="53.254%" y1="40.324%" y2="67.201%">
            <stop offset="55.72%" stop-color="#0021D7"/>
            <stop offset="64.79%" stop-color="#0124D8"/>
            <stop offset="72.6%" stop-color="#052FDB"/>
            <stop offset="79.93%" stop-color="#0C41E1"/>
            <stop offset="86.98%" stop-color="#155AE9"/>
            <stop offset="93.76%" stop-color="#217AF3"/>
            <stop offset="100%" stop-color="#2F9EFF"/>
        </linearGradient>
        <linearGradient id="f" x1="52.891%" x2="44.826%" y1="63.022%" y2="36.999%">
            <stop offset="0%" stop-color="#0075FF"/>
            <stop offset="28.3%" stop-color="#007BFF"/>
            <stop offset="65.06%" stop-color="#008BFF"/>
            <stop offset="100%" stop-color="#00A1FF"/>
        </linearGradient>
        <linearGradient id="g" x1="-4.649%" x2="102.474%" y1="1.744%" y2="98.992%">
            <stop offset="0%" stop-color="#08F"/>
            <stop offset="5.131%" stop-color="#0077FA"/>
            <stop offset="16.49%" stop-color="#0057F1"/>
            <stop offset="27.47%" stop-color="#0040EB"/>
            <stop offset="37.83%" stop-color="#0033E7"/>
            <stop offset="46.91%" stop-color="#002EE6"/>
            <stop offset="59.44%" stop-color="#0132E7"/>
            <stop offset="71.46%" stop-color="#043DEB"/>
            <stop offset="83.28%" stop-color="#0A51F1"/>
            <stop offset="94.9%" stop-color="#116CFA"/>
            <stop offset="100%" stop-color="#157AFF"/>
        </linearGradient>
        <linearGradient id="h" x1="42.062%" x2="54.276%" y1="34.858%" y2="67.119%">
            <stop offset="0%" stop-color="#009AFF"/>
            <stop offset="74.99%" stop-color="#009DFF" stop-opacity="0"/>
        </linearGradient>
    </defs>
    <g fill="none" fill-rule="evenodd">
        <path fill="none" d="M0 0h260v216H0z"/>
        <path fill="url(#a)" d="M136.956 215.841l102.845-53.61-17.13-8.96 34.23-17.86-102.754-53.61L.03 162.231l50.725 26.365 17.1-8.93z" opacity=".2"/>
        <path fill="url(#b)" d="M197.521 184.192l-60.565 31.65-33.23-17.375-60.048-94.948 77.27-40.367z"/>
        <path fill="url(#c)" d="M31.194 36.388L.274 1.002 1.64.182l52.243 24.33z" opacity=".4" transform="translate(132.734 165.36)"/>
        <g fill="url(#d)" fill-rule="nonzero" transform="translate(68.037 86.388)">
            <path d="M20.107 55.098l-1.397-2.156 16.676-8.748 1.397 2.156-16.676 8.748zm22.629-11.846l-1.397-2.156 8.17-4.253L50.907 39l-8.171 4.252zm14.063-7.35l-1.397-2.157 6.135-3.22 1.398 2.157-6.136 3.22zM1.64 26.547L.243 24.39l7.624-3.979 1.397 2.157-7.624 3.979zm13.942-7.29L14.185 17.1l18.072-9.446 1.397 2.157-18.072 9.446zM39.759 6.591l-1.397-2.156L46.29.273l1.397 2.157-7.928 4.161zM13.972 45.591l-1.397-2.156 7.958-4.162 1.397 2.157-7.958 4.161zm13.972-7.32l-1.397-2.157 15.278-8.018 1.397 2.156-15.278 8.019zm21.11-11.056l-1.397-2.157 11.36-5.953 1.397 2.157-11.36 5.953zM32.409 74.112l-1.397-2.156 6.135-3.22 1.397 2.157-6.135 3.22zm11.967-6.257L42.98 65.7l17.1-8.96 1.398 2.156-17.1 8.96zM7.806 36.054L6.41 33.897l11.36-5.953 1.397 2.156-11.36 5.954zm17.374-9.112l-1.397-2.157 19.864-10.418 1.397 2.156L25.18 26.942zM26.273 64.605l-1.397-2.156 11.36-5.954 1.397 2.157-11.36 5.953zm17.192-8.99l-1.397-2.157L61.689 43.16l1.397 2.157-19.621 10.296z"/>
        </g>
        <path fill="#0053FF" d="M162.621 157.341h-22.264l-.334-.152h-6.712l-.638-1.063 3.614-5.558.061-.395 12.21-19.773 97.227-50.968 14.063 26.972z"/>
        <path fill="url(#e)" d="M30.192 78.243H7.928l-.335-.152H.881l-.03-.06 25.848-5.377 95.86-49.722 4.86 4.374z" transform="translate(132.43 79.098)"/>
        <path fill="url(#f)" d="M19.864 60.535L.456 77.393l-.213-.365 3.614-5.558.061-.395L16.128 51.3 113.356.334l2.825 9.872z" transform="translate(132.43 79.098)"/>
        <path fill="#0064FF" d="M133.31 157.19l-.242-.426 18.346-9.234 7.715 4.222.668 4.253z"/>
        <path fill="#003DFF" d="M162.621 157.341h-22.264l-.334-.152h-6.712l-.03-.06 26.516-1.124z"/>
        <path fill="#0096FF" d="M151.414 147.53l-18.346 9.234-.334-.547 15.52-21.353 4.04 4.77z"/>
        <path fill="url(#g)" d="M122.558 22.932l-6.378-12.726-2.825-9.872.182-.091 5.042 5.528 5.954 11.572 3.007 9.872-.122.091z" transform="translate(132.43 79.098)"/>
        <path fill="#00B4FF" d="M132.734 156.217l-.061-.09 3.614-5.56.061-.394 12.21-19.773-.303 4.464z"/>
        <path fill="#FFAF00" d="M140.023 157.19h-6.712l-.638-1.064 3.645-5.558s.06 2.46.972 4.07c1.184 1.853 2.733 2.551 2.733 2.551z"/>
        <path fill="#FF7900" d="M140.023 157.19h-6.712l-.243-.426s3.068-1.61 4.222-2.126c1.184 1.853 2.733 2.551 2.733 2.551z"/>
        <path fill="#E05A00" d="M140.023 157.19h-6.712l-.03-.061s4.616-.426 5.862-.517c.394.304.88.577.88.577z"/>
        <path fill="url(#h)" d="M16.129 51.301l-.304 4.465 4.04 4.769 45.105-23.57-4.92-8.657z" opacity=".5" transform="translate(132.43 79.098)"/>
    </g>
</svg>
