<svg xmlns="http://www.w3.org/2000/svg" width="80" height="80" viewBox="0 0 80 80">
    <g fill="none" fill-rule="evenodd">
        <path fill="none" d="M0 0h80v80H0z"/>
        <path fill="#FFAF00" fill-rule="nonzero" d="M4 16.5a1 1 0 0 0-1 1v45a1 1 0 0 0 1 1h72a1 1 0 0 0 1-1v-45a1 1 0 0 0-1-1H4zm0-3h72a4 4 0 0 1 4 4v45a4 4 0 0 1-4 4H4a4 4 0 0 1-4-4v-45a4 4 0 0 1 4-4z"/>
        <path fill="#FFAF00" fill-rule="nonzero" d="M14.077 51.5h15.88c.413 0-2.098-10-7.89-10-5.79 0-8.577 10-7.99 10zm0 3a3.03 3.03 0 0 1-2.592-1.444 3.096 3.096 0 0 1-.449-1.245 4.103 4.103 0 0 1-.002-1.082 10.28 10.28 0 0 1 .346-1.62 20.96 20.96 0 0 1 1.66-4.032c2.13-3.953 5.115-6.577 9.028-6.577 3.931 0 6.862 2.633 8.933 6.616a21.94 21.94 0 0 1 1.597 3.998c.161.565.28 1.086.344 1.519.045.304.067.581.055.876a3.111 3.111 0 0 1-.208 1.032C32.385 53.6 31.44 54.5 29.956 54.5h-15.88zM22 37.5a6 6 0 1 1 0-12 6 6 0 0 1 0 12zm0-3a3 3 0 1 0 0-6 3 3 0 0 0 0 6z"/>
        <rect width="15" height="3" x="39" y="28.5" fill="#FFAF00" rx="1.5"/>
        <rect width="30" height="3" x="39" y="38.5" fill="#FFAF00" rx="1.5"/>
        <rect width="8" height="3" x="39" y="48.5" fill="#FFAF00" rx="1.5"/>
        <rect width="8" height="3" x="50" y="48.5" fill="#FFAF00" rx="1.5"/>
        <rect width="8" height="3" x="61" y="48.5" fill="#FFAF00" rx="1.5"/>
    </g>
</svg>
