<svg xmlns="http://www.w3.org/2000/svg" width="48" height="48" viewBox="0 0 48 48">
  <g fill="none" fill-rule="evenodd">
    <rect width="48" height="48" fill="#FFF7E5" rx="24"/>
    <path fill="#FFAF00" fill-rule="nonzero" d="M12,24 C5.271,24 0,21.804 0,19 C0,17.642 1.193,16.402 3.373,15.482 C1.646,7.471 6.89,2.351 9.151,0.143 C9.294,0.001 9.51,-0.039 9.694,0.039 C9.879,0.117 10,0.299 10,0.5 C10,1.382 10.676,2.789 10.937,3.257 C10.996,3.337 13,6.244 13,8.5 C13,9.365 12.82,10.159 12.452,10.903 C13.269,10.733 13.981,10.345 14.448,9.797 C14.959,9.197 15.147,8.451 15.007,7.58 C14.977,7.394 15.053,7.209 15.204,7.098 C15.355,6.987 15.554,6.969 15.723,7.052 C20.223,9.28 20.948,12.77 20.998,15.651 C22.963,16.561 24,17.715 24,19 C24,21.804 18.729,24 12,24 Z M9.157,1.542 C6.764,3.957 2.747,8.7 4.441,15.669 C4.501,15.913 4.369,16.164 4.134,16.254 C2.143,17.018 1,18.019 1,19 C1,20.892 5.518,23 12,23 C18.482,23 23,20.892 23,19 C23,18.107 22.017,17.173 20.302,16.436 C20.119,16.358 20,16.177 20,15.978 C19.997,13.344 19.504,10.414 16.044,8.363 C15.996,9.146 15.713,9.854 15.21,10.446 C14.38,11.419 12.994,12 11.5,12 C11.311,12 11.138,11.894 11.053,11.725 C10.968,11.557 10.986,11.355 11.098,11.203 C11.907,10.112 12,9.138 12,8.5 C12,6.559 10.108,3.812 10.089,3.785 C10.037,3.696 9.446,2.628 9.157,1.542 Z M12,20 C8.691,20 6,17.421 6,14.25 C6,13.036 6.395,11.871 7.143,10.883 C7.268,10.718 7.481,10.645 7.68,10.704 C7.879,10.762 8.022,10.934 8.04,11.141 C8.231,13.341 9.934,15 12,15 C14.066,15 15.769,13.341 15.96,11.141 C15.978,10.935 16.121,10.762 16.32,10.704 C16.516,10.644 16.732,10.718 16.857,10.883 C17.605,11.871 18,13.036 18,14.25 C18,17.421 15.309,20 12,20 Z M7.327,12.566 C7.111,13.1 7,13.668 7,14.25 C7,16.869 9.243,19 12,19 C14.757,19 17,16.869 17,14.25 C17,13.668 16.889,13.1 16.673,12.565 C15.973,14.594 14.143,16 12,16 C9.857,16 8.027,14.594 7.327,12.566 Z" transform="translate(12 12)"/>
  </g>
</svg>
