<svg xmlns="http://www.w3.org/2000/svg" width="48" height="48" viewBox="0 0 48 48">
  <g fill="none" fill-rule="evenodd">
    <rect width="48" height="48" fill="#EF4829" opacity=".1" rx="24"/>
    <path fill="#EF4829" fill-rule="nonzero" d="M14.9985752,0 C6.71509085,-5.07265313e-16 1.01443426e-15,6.71572875 0,15 C-1.01443426e-15,23.2842712 6.71509085,30 14.9985752,30 C15.3299146,30 15.5985182,29.7313708 15.5985182,29.4 L15.5985182,20.96952 C18.9958592,20.6602104 21.597169,17.8117137 21.5979483,14.4 L21.5979483,12.6 C21.5979483,11.9372583 21.060741,11.4 20.3980623,11.4 L19.1981763,11.4 L19.1981763,8.4 C19.1981763,8.06862915 18.9295726,7.8 18.5982333,7.8 C18.2668939,7.8 17.9982903,8.06862915 17.9982903,8.4 L17.9982903,11.4 L11.9988602,11.4 L11.9988602,8.4 C11.9988602,8.06862915 11.7302565,7.8 11.3989172,7.8 C11.0675778,7.8 10.7989742,8.06862915 10.7989742,8.4 L10.7989742,11.4 L9.59908814,11.4 C8.93640939,11.4 8.39920212,11.9372583 8.39920212,12.6 L8.39920212,14.4 C8.39998144,17.8117137 11.0012913,20.6602104 14.3986322,20.96952 L14.3986322,28.76952 C7.27097202,28.4280271 1.59078024,22.6870536 1.32452423,15.5555107 C1.05826823,8.42396783 6.29456238,2.27535016 13.3769122,1.40322601 C20.459262,0.531101861 27.0305451,5.22572849 28.5020467,12.2088568 C29.9735483,19.1919852 25.8555285,26.1395154 19.0235929,28.2 C18.8184704,28.2623786 18.6622049,28.4294607 18.61366,28.638308 C18.5651151,28.8471554 18.6316659,29.0660392 18.7882434,29.212508 C18.9448209,29.3589768 19.1676373,29.4107786 19.3727597,29.3484 C26.4800771,27.182062 30.9302306,20.1381563 29.8348234,12.788569 C28.7394161,5.43898162 22.4286553,-0.000776412666 14.9985752,0 Z M9.59908814,14.4 L9.59908814,12.6 L20.3980623,12.6 L20.3980623,14.4 C20.3980623,17.3823376 17.9806296,19.8 14.9985752,19.8 C12.0165208,19.8 9.59908814,17.3823376 9.59908814,14.4 Z" opacity=".7" transform="translate(9 9)"/>
    <path stroke="#F37962" stroke-linecap="square" stroke-width="1.3" d="M33.0918831,14 L14,33.0918831"/>
  </g>
</svg>
