<svg xmlns="http://www.w3.org/2000/svg" width="80" height="80" viewBox="0 0 80 80">
    <g fill="none" fill-rule="evenodd">
        <path fill="#D8D8D8" fill-opacity="0" d="M0 0h80v80H0z"/>
        <path fill="#4AAD02" fill-rule="nonzero" d="M75.185 8.5H4.66A4.664 4.664 0 0 0 0 13.16v43.704a4.664 4.664 0 0 0 4.659 4.659h70.526a4.664 4.664 0 0 0 4.66-4.659V13.16a4.664 4.664 0 0 0-4.66-4.659zm1.54 48.363c0 .849-.69 1.54-1.54 1.54H4.66c-.85 0-1.54-.691-1.54-1.54v-26.53h73.606v26.53zm0-29.65H3.12v-6.237h73.606v6.237zm0-9.356H3.12v-4.698c0-.85.69-1.54 1.54-1.54h70.526c.85 0 1.54.69 1.54 1.54v4.698z"/>
        <circle cx="55" cy="56.5" r="15" fill="#FFF" stroke="#4AAD02" stroke-width="3"/>
        <path fill="#4AAD02" fill-rule="nonzero" d="M18.713 41.249c-.94 0-1.869.19-2.728.553a6.98 6.98 0 0 0-2.73-.553c-3.869 0-7.017 3.148-7.017 7.017a7.026 7.026 0 0 0 7.018 7.018c.967 0 1.89-.197 2.729-.553.86.363 1.788.553 2.728.553a7.026 7.026 0 0 0 7.018-7.018c0-3.87-3.148-7.017-7.018-7.017zm-5.457 10.916a3.903 3.903 0 0 1-3.9-3.899 3.903 3.903 0 0 1 3.9-3.898 3.903 3.903 0 0 1 3.898 3.898 3.903 3.903 0 0 1-3.898 3.899zm5.844-.02a6.976 6.976 0 0 0 1.173-3.879 6.976 6.976 0 0 0-1.173-3.879 3.904 3.904 0 0 1 3.512 3.88 3.904 3.904 0 0 1-3.512 3.879zM15.818 34.231h-8.02a1.56 1.56 0 1 0 0 3.12h8.02a1.56 1.56 0 0 0 0-3.12zM20.428 34.231h-.074a1.56 1.56 0 1 0 0 3.12h.074a1.56 1.56 0 0 0 0-3.12zM63.544 50.954a1.56 1.56 0 0 0-2.2 0l-8.325 8.299-4.362-4.35a1.56 1.56 0 0 0-2.201 0 1.549 1.549 0 0 0 0 2.196l5.463 5.446c.304.303.702.455 1.1.455.399 0 .797-.152 1.1-.455l9.425-9.396a1.549 1.549 0 0 0 0-2.195z"/>
    </g>
</svg>
