<svg xmlns="http://www.w3.org/2000/svg" width="100" height="100" viewBox="0 0 100 100">
    <g fill="none" fill-rule="evenodd" transform="translate(6 11)">
        <rect width="80" height="70" fill="#DFE8FF" rx="4"/>
        <rect width="58" height="20" x="11" y="20" fill="#CAD9FF" rx="2"/>
        <rect width="17" height="14" x="11" y="43" fill="#CAD9FF" rx="2"/>
        <rect width="17" height="14" x="31.5" y="43" fill="#CAD9FF" rx="2"/>
        <rect width="17" height="14" x="52" y="43" fill="#CAD9FF" rx="2"/>
        <path fill="#1F5AF6" d="M4 0h72a4 4 0 0 1 4 4v8H0V4a4 4 0 0 1 4-4z"/>
        <circle cx="6" cy="6" r="2" fill="#DFE8FF"/>
        <circle cx="12" cy="6" r="2" fill="#DFE8FF" opacity=".497"/>
        <circle cx="18" cy="6" r="2" fill="#DFE8FF" opacity=".204"/>
        <g transform="translate(62 52)">
            <circle cx="13" cy="13" r="13" fill="#E5494D"/>
            <path fill="#FFF" d="M17.243 8.757a1 1 0 0 1 0 1.415L14.414 13l2.829 2.828a1 1 0 0 1-1.415 1.415L13 14.414l-2.828 2.829a1 1 0 1 1-1.415-1.415L11.586 13l-2.829-2.828a1 1 0 0 1 1.415-1.415L13 11.586l2.828-2.829a1 1 0 0 1 1.415 0z"/>
        </g>
    </g>
</svg>
