<?xml version="1.0" encoding="UTF-8"?>
<svg width="100px" height="100px" viewBox="0 0 100 100" version="1.1" xmlns="http://www.w3.org/2000/svg" xmlns:xlink="http://www.w3.org/1999/xlink">
    <!-- Generator: Sketch 59.1 (86144) - https://sketch.com -->
    <title>Icons/100/Closed-Dark</title>
    <desc>Created with Sketch.</desc>
    <g id="Icons/100/Closed-Dark" stroke="none" stroke-width="1" fill="none" fill-rule="evenodd">
        <g id="Group" transform="translate(6.000000, 11.000000)">
            <rect id="Rectangle" fill="#BCBCBC" x="0" y="0" width="80" height="70" rx="4"></rect>
            <rect id="Rectangle" fill="#999999" x="11" y="20" width="58" height="20" rx="2"></rect>
            <rect id="Rectangle" fill="#999999" x="11" y="43" width="17" height="14" rx="2"></rect>
            <rect id="Rectangle" fill="#999999" x="31.5" y="43" width="17" height="14" rx="2"></rect>
            <rect id="Rectangle" fill="#999999" x="52" y="43" width="17" height="14" rx="2"></rect>
            <path d="M4,0 L76,0 C78.209139,-4.05812251e-16 80,1.790861 80,4 L80,12 L80,12 L0,12 L0,4 C-2.705415e-16,1.790861 1.790861,4.05812251e-16 4,0 Z" id="Rectangle" fill="#5A81EA"></path>
            <circle id="Oval" fill="#DFE8FF" cx="6" cy="6" r="2"></circle>
            <circle id="Oval" fill="#DFE8FF" opacity="0.497093564" cx="12" cy="6" r="2"></circle>
            <circle id="Oval" fill="#DFE8FF" opacity="0.204194568" cx="18" cy="6" r="2"></circle>
        </g>
        <g id="Group" transform="translate(68.000000, 63.000000)">
            <circle id="Oval" fill="#E5494D" cx="13" cy="13" r="13"></circle>
            <path d="M17.2426407,8.75735931 C17.633165,9.1478836 17.633165,9.78104858 17.2426407,10.1715729 L14.4142136,13 L17.2426407,15.8284271 C17.633165,16.2189514 17.633165,16.8521164 17.2426407,17.2426407 C16.8521164,17.633165 16.2189514,17.633165 15.8284271,17.2426407 L13,14.4142136 L10.1715729,17.2426407 C9.78104858,17.633165 9.1478836,17.633165 8.75735931,17.2426407 C8.36683502,16.8521164 8.36683502,16.2189514 8.75735931,15.8284271 L11.5857864,13 L8.75735931,10.1715729 C8.36683502,9.78104858 8.36683502,9.1478836 8.75735931,8.75735931 C9.1478836,8.36683502 9.78104858,8.36683502 10.1715729,8.75735931 L13,11.5857864 L15.8284271,8.75735931 C16.2189514,8.36683502 16.8521164,8.36683502 17.2426407,8.75735931 Z" id="Path" fill="#FFFFFF"></path>
        </g>
    </g>
</svg>