<svg xmlns="http://www.w3.org/2000/svg" width="14" height="14" viewBox="0 0 14 14">
    <g fill="#4E5C6E" fill-rule="nonzero">
        <path d="M3.25 5.91h-.17c-.79 0-1.47-.6-1.594-1.397L1 1h11.895l-.086.622-.401 2.9c-.122.788-.803 1.387-1.594 1.387h-.17l-.017.273c-.106 1.99-1.733 3.545-3.68 3.545-1.946 0-3.573-1.554-3.68-3.545l-.016-.273zm-.067-1.092l-.168-2.727h-.787l.313 2.26a.56.56 0 0 0 .54.467h.102zm7.697-2.727l-.168 2.727h.102c.264 0 .5-.207.539-.458l.314-2.27h-.787zM6.947 6.127l.934.491c.16.082.346-.054.293-.218l-.16-1.064.747-.736c.133-.136.053-.355-.107-.355l-1.04-.163-.453-.955a.203.203 0 0 0-.374 0l-.453.955-1.04.163c-.16.028-.24.246-.107.355l.747.736L5.747 6.4c-.026.164.16.3.294.218l.906-.49zM10.147 11.636h-6.4a.541.541 0 0 0-.533.546V13h7.467v-.818c0-.3-.24-.546-.534-.546z"/>
        <path d="M6.147 9.182h1.6v3h-1.6z"/>
    </g>
</svg>
