<svg xmlns="http://www.w3.org/2000/svg" width="16" height="16" viewBox="0 0 16 16">
  <g fill="#5A81EA">
    <path d="M10.1419355,10.6580645 C10.4258065,10.6580645 10.6580645,10.4258065 10.6580645,10.1419355 L10.6580645,0.696774194 C10.6580645,0.412903226 10.4258065,0.180645161 10.1419355,0.180645161 L0.696774194,0.180645161 C0.412903226,0.180645161 0.180645161,0.412903226 0.180645161,0.696774194 L0.180645161,10.1419355 C0.180645161,10.4258065 0.412903226,10.6580645 0.696774194,10.6580645 L10.1419355,10.6580645 Z M1.21290323,1.21290323 L9.62580645,1.21290323 L9.62580645,9.62580645 L1.21290323,9.62580645 L1.21290323,1.21290323 Z"/>
    <path d="M15.8193548,15.3032258 L15.8193548,5.85806452 C15.8193548,5.57419355 15.5870968,5.34193548 15.3032258,5.34193548 L12.2064516,5.34193548 L12.2064516,6.37419355 L14.7870968,6.37419355 L14.7870968,14.7870968 L6.37419355,14.7870968 L6.37419355,12.2064516 L5.34193548,12.2064516 L5.34193548,15.3032258 C5.34193548,15.5870968 5.57419355,15.8193548 5.85806452,15.8193548 L15.3032258,15.8193548 C15.5870968,15.8193548 15.8193548,15.5870968 15.8193548,15.3032258 Z"/>
  </g>
</svg>
