<svg xmlns="http://www.w3.org/2000/svg" width="14" height="14" viewBox="0 0 14 14">
    <g fill="none" fill-rule="evenodd">
        <path fill="none" d="M0 0h14v14H0z"/>
        <path fill="#9BA6B2" fill-rule="nonzero" d="M8.172 5.81l-.166-.353L7 3.323 5.828 5.81l-.372.057-2.25.343 1.9 1.938-.064.388-.386 2.348L7 9.592l.333.183 2.01 1.109-.448-2.737.268-.274 1.628-1.664-2.619-.4zm1.88 5.465a.081.081 0 0 0-.004-.003l.005.003zm-.581.405c0-.02 0-.02.004.006l-.003-.022-.001.016zm0 0v-.008.008zM12 5.875c0 .093-.052.193-.156.303l-2.182 2.23.517 3.15c.004.03.006.072.006.127a.384.384 0 0 1-.063.224.209.209 0 0 1-.183.091.47.47 0 0 1-.24-.076L7 10.437l-2.698 1.487a.493.493 0 0 1-.24.076c-.085 0-.148-.03-.19-.091a.384.384 0 0 1-.063-.224c0-.025.004-.067.012-.126l.517-3.15L2.15 6.177c-.1-.114-.15-.215-.15-.303 0-.155.112-.252.337-.29l3.016-.46 1.353-2.867C6.782 2.086 6.88 2 7 2s.218.086.294.258l1.353 2.867 3.016.46c.225.038.337.135.337.29z"/>
    </g>
</svg>
