<svg xmlns="http://www.w3.org/2000/svg" width="14" height="14" viewBox="0 0 14 14">
    <g fill="none" fill-rule="evenodd">
        <path fill="#D8D8D8" fill-opacity="0" d="M0 0h14v14H0z"/>
        <path fill="#5A81EA" fill-rule="nonzero" d="M12 5.875c0 .093-.052.193-.156.303l-2.182 2.23.517 3.15c.004.03.006.072.006.127a.384.384 0 0 1-.063.224.209.209 0 0 1-.183.091.47.47 0 0 1-.24-.076L7 10.437l-2.698 1.487a.493.493 0 0 1-.24.076c-.085 0-.148-.03-.19-.091a.384.384 0 0 1-.063-.224c0-.025.004-.067.012-.126l.517-3.15L2.15 6.177c-.1-.114-.15-.215-.15-.303 0-.155.112-.252.337-.29l3.016-.46 1.353-2.867C6.782 2.086 6.88 2 7 2s.218.086.294.258l1.353 2.867 3.016.46c.225.038.337.135.337.29z"/>
    </g>
</svg>
