<svg xmlns="http://www.w3.org/2000/svg" width="80" height="80" viewBox="0 0 80 80">
    <g fill="none" fill-rule="evenodd">
        <path fill="none" d="M0 0h80v80H0z"/>
        <path fill="#FFF" d="M4.178 21.728l3.435-5.489 5.451-3.813 7.206-1.2h10.079L37.976 6.9l5.353-2.745 3.939-1.695h6.84l1.732 1.695 1.6 2.745 2.205 2.987 8.786 3.99 5.55 4.38 1.434 3.47H10.328z"/>
        <path fill="#5A81EA" fill-rule="nonzero" d="M67.2 73.81H12.8c-6.176 0-11.2-5.06-11.2-11.279V30.308c0-6.22 5.024-11.279 11.2-11.279h54.4c6.176 0 11.2 5.06 11.2 11.279V62.53c0 6.22-5.024 11.279-11.2 11.279zM12.8 22.252c-4.413 0-8 3.615-8 8.056V62.53c0 4.44 3.587 8.056 8 8.056h54.4c4.413 0 8-3.615 8-8.056V30.308c0-4.44-3.587-8.056-8-8.056H12.8z"/>
        <path fill="#FFF" d="M12.8 22.252c-4.413 0-8 3.615-8 8.056V62.53c0 4.44 3.587 8.056 8 8.056h54.4c4.413 0 8-3.615 8-8.056V30.308c0-4.44-3.587-8.056-8-8.056H12.8z"/>
        <path fill="#5A81EA" fill-rule="nonzero" d="M64 51.253c-2.646 0-4.8-2.169-4.8-4.834 0-2.664 2.154-4.833 4.8-4.833s4.8 2.169 4.8 4.833c0 2.665-2.154 4.834-4.8 4.834zm0-6.445c-.88 0-1.6.722-1.6 1.611 0 .89.72 1.612 1.6 1.612.88 0 1.6-.722 1.6-1.612 0-.889-.72-1.61-1.6-1.61z"/>
        <path fill="#5A81EA" fill-rule="nonzero" d="M76.8 57.698H64c-6.176 0-11.2-5.06-11.2-11.279S57.824 35.141 64 35.141h12.8c.883 0 1.6.722 1.6 1.611v19.335c0 .889-.717 1.61-1.6 1.61zM64 38.363c-4.413 0-8 3.616-8 8.056 0 4.44 3.587 8.056 8 8.056h11.2V38.363H64zm1.6-16.111a1.598 1.598 0 0 1-1.43-.89L57.395 7.72a7.94 7.94 0 0 0-4.739-4.077 7.873 7.873 0 0 0-6.205.59L13.558 22.058a1.594 1.594 0 0 1-2.166-.654 1.615 1.615 0 0 1 .65-2.181L44.928 1.39a11.072 11.072 0 0 1 8.691-.822 11.13 11.13 0 0 1 6.637 5.707l6.774 13.644a1.62 1.62 0 0 1-.716 2.162 1.58 1.58 0 0 1-.714.17z"/>
        <path fill="#5A81EA" fill-rule="nonzero" d="M35.427 22.252c-.57 0-1.12-.307-1.408-.848a1.616 1.616 0 0 1 .65-2.181l23.773-12.89a1.6 1.6 0 0 1 2.17.657c.418.783.127 1.76-.65 2.182l-23.773 12.89c-.243.128-.506.19-.762.19zM3.2 31.919c-.883 0-1.6-.722-1.6-1.611v-3.223c0-9.773 7.898-17.723 17.6-17.723h11.2c.883 0 1.6.722 1.6 1.611 0 .89-.717 1.611-1.6 1.611H19.2c-7.94 0-14.4 6.506-14.4 14.501v3.223c0 .889-.717 1.61-1.6 1.61zm73.6 0c-.883 0-1.6-.722-1.6-1.611v-3.223c0-7.995-6.46-14.5-14.4-14.5-.883 0-1.6-.722-1.6-1.612 0-.89.717-1.61 1.6-1.61 9.702 0 17.6 7.949 17.6 17.722v3.223c0 .889-.717 1.61-1.6 1.61z"/>
    </g>
</svg>
