<svg xmlns="http://www.w3.org/2000/svg" width="80" height="80" viewBox="0 0 80 80">
    <g fill="none" fill-rule="evenodd">
        <path fill="none" d="M.902.902h78.195v78.195H.902z"/>
        <path fill="#FFF" d="M41.253 6.008a1.564 1.564 0 0 0-2.212 0L6.008 39.041c-.61.61-.61 1.6 0 2.212l33.033 33.033c.61.61 1.6.61 2.212 0l33.033-33.033c.61-.611.61-1.601 0-2.212L41.253 6.008z"/>
        <path fill="#5A81EA" fill-rule="nonzero" d="M41.253 6.003a1.564 1.564 0 0 0-2.212 0L6.008 39.036c-.61.611-.61 1.601 0 2.212l33.033 33.033c.61.61 1.6.61 2.212 0l33.033-33.033c.61-.61.61-1.601 0-2.212L41.253 6.003zm2.207-2.211l33.033 33.033a4.692 4.692 0 0 1 0 6.635L43.46 76.493a4.692 4.692 0 0 1-6.635 0L3.792 43.46a4.692 4.692 0 0 1 0-6.635L36.825 3.792a4.692 4.692 0 0 1 6.635 0z"/>
        <path fill="#FFF" d="M41.18 20.204a1.564 1.564 0 0 0-2.213 0L20.204 38.967c-.611.611-.611 1.601 0 2.212l18.763 18.764c.611.61 1.601.61 2.212 0l18.764-18.764c.61-.61.61-1.6 0-2.212L41.179 20.204z"/>
        <path fill="#5A81EA" fill-rule="nonzero" d="M41.248 20.272a1.564 1.564 0 0 0-2.212 0L20.272 39.036c-.61.611-.61 1.601 0 2.212l18.764 18.764c.611.61 1.601.61 2.212 0l18.764-18.764c.61-.61.61-1.601 0-2.212L41.248 20.272zm2.212-2.211l18.763 18.764a4.692 4.692 0 0 1 0 6.635L43.46 62.223a4.692 4.692 0 0 1-6.635 0L18.06 43.46a4.692 4.692 0 0 1 0-6.635L36.825 18.06a4.692 4.692 0 0 1 6.635 0z"/>
        <path fill="#5A81EA" fill-rule="nonzero" d="M41.261 33.694a2.522 2.522 0 1 1 0-5.045 2.522 2.522 0 0 1 0 5.045zm7.568 7.567a2.522 2.522 0 1 1 0-5.045 2.522 2.522 0 0 1 0 5.045zm-7.568 0a2.522 2.522 0 1 1 0-5.045 2.522 2.522 0 0 1 0 5.045z"/>
    </g>
</svg>
