<svg xmlns="http://www.w3.org/2000/svg" width="80" height="80" viewBox="0 0 80 80">
    <g fill="none" fill-rule="evenodd">
        <path fill="#D8D8D8" fill-opacity="0" d="M0 0h80v80H0z"/>
        <path fill="#5A81EA" fill-rule="nonzero" d="M40 12.8c-7.952 0-14.399 6.447-14.399 14.4s6.447 14.4 14.4 14.4c7.952 0 14.4-6.447 14.4-14.4S47.952 12.8 40 12.8zm0 25.6c-6.185 0-11.199-5.014-11.199-11.2 0-6.185 5.014-11.2 11.2-11.2 6.185 0 11.2 5.015 11.2 11.2-.008 6.183-5.018 11.193-11.2 11.2zM40 0C22.79-.016 7.503 10.991 2.057 27.319c-5.446 16.328.174 34.308 13.948 44.629 14.196 10.736 33.796 10.736 47.993 0a40.334 40.334 0 0 0 3.07-2.557A39.96 39.96 0 0 0 40 0zm0 76.8a36.616 36.616 0 0 1-23.656-8.652C18.217 56.536 28.24 47.999 40 47.999s21.784 8.537 23.657 20.149A36.616 36.616 0 0 1 40.001 76.8zm26.4-11.219C63.456 53.388 52.544 44.797 40 44.797c-12.542 0-23.454 8.59-26.398 20.784-14.061-14.48-13.835-37.584.506-51.786 14.34-14.203 37.445-14.203 51.786 0C80.234 27.997 80.46 51.1 66.4 65.58z"/>
    </g>
</svg>
