<svg xmlns="http://www.w3.org/2000/svg" width="24" height="16" viewBox="0 0 24 16">
    <path fill="#fff" d="M23.9730003,12.3678297 C23.9680003,12.3498289 23.9690003,12.329828 23.9620004,12.3118271 C23.9360007,12.2468241 23.8970011,12.1898214 23.8470016,12.1418191 L20.8530328,9.1476788 C20.6580348,8.95266966 20.3410381,8.95266966 20.1460401,9.1476788 C19.9510422,9.34268794 19.9510422,9.6597028 20.1460401,9.85471194 L22.2910178,11.9998125 L21.2010292,11.9998125 C18.4830575,11.9998125 15.8540849,10.9937653 13.7991063,9.16567964 C13.5911084,8.98067097 13.2761117,9.00067191 13.0931136,9.20668156 C12.9091155,9.41269122 12.9281153,9.72870603 13.1341132,9.91271466 C15.3720899,11.9028079 18.23706,12.9998594 21.2010292,12.9998594 L22.2930178,12.9998594 L20.1460401,15.14696 C19.9510422,15.3419692 19.9510422,15.658984 20.1460401,15.8539932 C20.2440391,15.9509977 20.3720378,16 20.5000365,16 C20.6280351,16 20.7560338,15.9509977 20.8530328,15.8549932 L23.8530015,12.8548526 C23.8670014,12.8408519 23.8720013,12.8228511 23.8840012,12.8088504 C23.9130009,12.7728487 23.9430006,12.735847 23.9610004,12.6918449 C23.9790002,12.6488429 23.9830002,12.6028408 23.9880001,12.5578386 C23.9900001,12.5368377 24,12.5198369 24,12.4998359 C24,12.4528337 23.9850002,12.4108318 23.9730003,12.3678297 Z M21.2000292,3.99943747 L22.2930178,3.99943747 L20.1460401,6.14653812 C19.9510422,6.34154726 19.9510422,6.65856212 20.1460401,6.85357126 C20.2440391,6.95057581 20.3720378,6.99957811 20.5000365,6.99957811 C20.6280351,6.99957811 20.7560338,6.95057581 20.8530328,6.85457131 L23.8530015,3.85443068 C23.8930011,3.8144288 23.9200008,3.76642655 23.9440006,3.71742425 C23.9480005,3.70842383 23.9560005,3.70242355 23.9600004,3.69342313 C23.9860001,3.63142022 23.999,3.56541713 23.999,3.49941404 C23.999,3.49941404 23.999,3.49941404 23.999,3.49941404 C23.999,3.49741394 23.998,3.49641389 23.998,3.4944138 C23.997,3.43141085 23.9850002,3.36840789 23.9610004,3.30940513 C23.9350007,3.24640218 23.8970011,3.19039955 23.8500016,3.14339735 L20.8540328,0.147256903 C20.6590348,-0.0477522384 20.3420381,-0.0477522384 20.1470401,0.147256903 C19.9520422,0.342266044 19.9520422,0.659280904 20.1470401,0.854290045 L22.2910178,2.9993906 L21.2000292,2.9993906 C17.6240664,2.9993906 14.3121009,4.54746316 12.000125,7.2405894 C9.68714909,4.54646312 6.37518359,2.9993906 2.79922084,2.9993906 L1.70723222,2.9993906 L3.85320986,0.853289998 C4.04820783,0.658280857 4.04820783,0.341265997 3.85320986,0.146256856 C3.65821189,-0.0487522853 3.3412152,-0.0487522853 3.14621723,0.146256856 L0.146248477,3.14639749 C0.142248518,3.15039767 0.141248529,3.15639796 0.136248581,3.16039814 C0.0962489974,3.20340016 0.061249362,3.25240246 0.0382496016,3.30740503 C-0.0127498672,3.4304108 -0.0127498672,3.56841727 0.0382496016,3.69142304 C0.0522494557,3.72442458 0.0762492057,3.74942575 0.0962489974,3.77842711 C0.11324882,3.80342829 0.123248716,3.83042955 0.145248487,3.85243058 L3.14521724,6.85257121 C3.24421621,6.95057581 3.37221487,6.99957811 3.50021354,6.99957811 C3.62821221,6.99957811 3.75621087,6.95057581 3.85320986,6.85257121 C4.04820783,6.65756207 4.04820783,6.34054721 3.85320986,6.14553807 L1.70723222,3.99943747 L2.79922084,3.99943747 C6.12918615,3.99943747 9.21115405,5.45950591 11.3371319,7.99962498 C9.21115405,10.5397441 6.12918615,11.9998125 2.79922084,11.9998125 L1.70723222,11.9998125 L3.85320986,9.85371189 C4.04820783,9.65870275 4.04820783,9.34168789 3.85320986,9.14667875 C3.65821189,8.95166961 3.3412152,8.95166961 3.14621723,9.14667875 L0.146248477,12.1468194 C0.142248518,12.1508196 0.141248529,12.1568199 0.136248581,12.16082 C0.0962489974,12.2038221 0.061249362,12.2528244 0.0382496016,12.3078269 C-0.0127498672,12.4308327 -0.0127498672,12.5688392 0.0382496016,12.6918449 C0.0522494557,12.7248465 0.0762492057,12.7498476 0.0962489974,12.778849 C0.11324882,12.8038502 0.123248716,12.8308514 0.145248487,12.8528525 L3.14521724,15.8529931 C3.24421621,15.9509977 3.37221487,16 3.50021354,16 C3.62821221,16 3.75621087,15.9509977 3.85320986,15.8529931 C4.04820783,15.657984 4.04820783,15.3409691 3.85320986,15.14596 L1.70723222,12.9998594 L2.79922084,12.9998594 C6.57818148,12.9998594 10.0751451,11.2897792 12.3941209,8.30663937 C14.5230987,5.56951107 17.7330653,3.99943747 21.2000292,3.99943747 Z"/>
</svg>
