<svg xmlns="http://www.w3.org/2000/svg" width="18" height="18" viewBox="0 0 18 18">
    <g fill="none" fill-rule="evenodd">
        <path fill="none" d="M0 0h18v18H0z"/>
        <g fill="#9BA6B2" fill-rule="nonzero">
            <path d="M2 6.48v5.68h2.48V6.48H2zm.75-1V2a.5.5 0 0 1 1 0v3.48h.73a1 1 0 0 1 1 1v5.68a1 1 0 0 1-1 1h-.73V16a.5.5 0 1 1-1 0v-2.84H2a1 1 0 0 1-1-1V6.48a1 1 0 0 1 1-1h.75zM7.76 4.56v3.12h2.48V4.56H7.76zm.74-1V1.5a.5.5 0 0 1 1 0v2.06h.74a1 1 0 0 1 1 1v3.12a1 1 0 0 1-1 1H9.5v1.82a.5.5 0 0 1-1 0V8.68h-.74a1 1 0 0 1-1-1V4.56a1 1 0 0 1 1-1h.74zM13.52 4.56v6.32H16V4.56h-2.48zm.73-1V1.5a.5.5 0 1 1 1 0v2.06H16a1 1 0 0 1 1 1v6.32a1 1 0 0 1-1 1h-.75v3.62a.5.5 0 1 1-1 0v-3.62h-.73a1 1 0 0 1-1-1V4.56a1 1 0 0 1 1-1h.73z"/>
        </g>
    </g>
</svg>
