<svg xmlns="http://www.w3.org/2000/svg" width="80" height="80" viewBox="0 0 80 80">
    <g fill="none" fill-rule="evenodd">
        <path fill="none" d="M0 0h80v80H0z"/>
        <path fill="#FFF" d="M75.328 43.03l-6.312 1.809a4.562 4.562 0 0 0-3.112 3.077 26.968 26.968 0 0 1-1.984 4.813 4.56 4.56 0 0 0 .028 4.37l3.17 5.712-4.307 4.306-5.713-3.169a4.556 4.556 0 0 0-2.205-.57 4.634 4.634 0 0 0-2.164.542 26.808 26.808 0 0 1-4.813 1.984 4.563 4.563 0 0 0-3.077 3.113l-1.81 6.311H36.97l-1.81-6.314a4.565 4.565 0 0 0-3.078-3.112 26.8 26.8 0 0 1-4.811-1.983 4.631 4.631 0 0 0-2.164-.542c-.772 0-1.531.197-2.205.572l-5.713 3.168-4.306-4.306 3.168-5.713a4.56 4.56 0 0 0 .031-4.362 27 27 0 0 1-1.984-4.815 4.56 4.56 0 0 0-3.113-3.08L4.672 43.03v-6.06l6.311-1.809a4.563 4.563 0 0 0 3.113-3.077 26.9 26.9 0 0 1 1.983-4.81 4.556 4.556 0 0 0-.027-4.371l-3.17-5.714 4.307-4.306 5.712 3.168c.675.374 1.434.57 2.205.571a4.631 4.631 0 0 0 2.165-.541 26.915 26.915 0 0 1 4.81-1.985 4.563 4.563 0 0 0 3.08-3.112l1.808-6.312h6.061l1.809 6.312a4.561 4.561 0 0 0 3.076 3.111 26.915 26.915 0 0 1 4.812 1.985c.667.355 1.41.541 2.166.543.771 0 1.53-.196 2.205-.57l5.714-3.17 4.306 4.307-3.169 5.71a4.56 4.56 0 0 0-.03 4.365 27.012 27.012 0 0 1 1.984 4.815 4.563 4.563 0 0 0 3.113 3.081l6.312 1.81v6.059zM40 53.824A13.824 13.824 0 0 0 53.824 40c0-7.635-6.19-13.824-13.824-13.824-7.635 0-13.824 6.19-13.824 13.824 0 7.635 6.19 13.824 13.824 13.824z"/>
        <path fill="#5A81EA" fill-rule="nonzero" d="M76.174 34.016l-6.314-1.808a1.502 1.502 0 0 1-1.02-1.019 30 30 0 0 0-2.211-5.364 1.496 1.496 0 0 1 .004-1.435l3.17-5.71a3.072 3.072 0 0 0-.513-3.663l-4.307-4.308a3.069 3.069 0 0 0-3.663-.513l-5.712 3.17c-.219.12-.465.184-.714.184-.252 0-.5-.063-.722-.181a29.857 29.857 0 0 0-5.362-2.212 1.505 1.505 0 0 1-1.018-1.019l-1.808-6.312A3.072 3.072 0 0 0 43.03 1.6h-6.062c-1.37 0-2.575.908-2.953 2.226l-1.808 6.312a1.505 1.505 0 0 1-1.02 1.02 29.902 29.902 0 0 0-5.36 2.212c-.222.118-.47.18-.721.181a1.48 1.48 0 0 1-.715-.184l-5.712-3.17a3.069 3.069 0 0 0-3.663.512l-4.307 4.307a3.072 3.072 0 0 0-.514 3.664l3.17 5.712c.246.448.247.99.002 1.437a29.876 29.876 0 0 0-2.212 5.36 1.501 1.501 0 0 1-1.02 1.018l-6.31 1.81A3.072 3.072 0 0 0 1.6 36.97v6.06c0 1.371.908 2.576 2.226 2.954l6.313 1.809c.491.143.875.527 1.019 1.018a30.028 30.028 0 0 0 2.212 5.364c.243.448.24.988-.005 1.434l-3.169 5.71a3.072 3.072 0 0 0 .514 3.662l4.307 4.307c.969.97 2.464 1.18 3.663.514l5.712-3.168a1.48 1.48 0 0 1 .715-.184c.251 0 .499.063.72.181a29.89 29.89 0 0 0 5.361 2.212c.491.145.875.529 1.02 1.02l1.809 6.312A3.072 3.072 0 0 0 36.97 78.4h6.06c1.371 0 2.576-.908 2.953-2.226l1.809-6.312a1.5 1.5 0 0 1 1.018-1.018 29.96 29.96 0 0 0 5.363-2.212c.221-.119.469-.181.72-.182.25 0 .497.063.715.185l5.712 3.169a3.072 3.072 0 0 0 3.662-.515l4.307-4.307a3.072 3.072 0 0 0 .514-3.661l-3.169-5.714a1.494 1.494 0 0 1-.003-1.436 29.96 29.96 0 0 0 2.212-5.362c.145-.49.529-.874 1.02-1.018l6.311-1.808A3.072 3.072 0 0 0 78.4 43.03v-6.06c0-1.37-.908-2.576-2.226-2.954zm-.846 9.014l-6.312 1.809a4.562 4.562 0 0 0-3.112 3.077 26.968 26.968 0 0 1-1.984 4.813 4.56 4.56 0 0 0 .028 4.37l3.17 5.712-4.307 4.306-5.713-3.169a4.556 4.556 0 0 0-2.205-.57 4.634 4.634 0 0 0-2.164.542 26.808 26.808 0 0 1-4.813 1.984 4.563 4.563 0 0 0-3.077 3.113l-1.81 6.311H36.97l-1.81-6.314a4.565 4.565 0 0 0-3.078-3.112 26.8 26.8 0 0 1-4.811-1.983 4.631 4.631 0 0 0-2.164-.542c-.772 0-1.531.197-2.205.572l-5.713 3.168-4.306-4.306 3.168-5.713a4.56 4.56 0 0 0 .031-4.362 27 27 0 0 1-1.984-4.815 4.56 4.56 0 0 0-3.113-3.08L4.672 43.03v-6.06l6.311-1.809a4.563 4.563 0 0 0 3.113-3.077 26.9 26.9 0 0 1 1.983-4.81 4.556 4.556 0 0 0-.027-4.371l-3.17-5.714 4.307-4.306 5.712 3.168c.675.374 1.434.57 2.205.571a4.631 4.631 0 0 0 2.165-.541 26.915 26.915 0 0 1 4.81-1.985 4.563 4.563 0 0 0 3.08-3.112l1.808-6.312h6.061l1.809 6.312a4.561 4.561 0 0 0 3.076 3.111 26.915 26.915 0 0 1 4.812 1.985c.667.355 1.41.541 2.166.543.771 0 1.53-.196 2.205-.57l5.714-3.17 4.306 4.307-3.169 5.71a4.56 4.56 0 0 0-.03 4.365 27.012 27.012 0 0 1 1.984 4.815 4.563 4.563 0 0 0 3.113 3.081l6.312 1.81v6.059z"/>
        <path fill="#5A81EA" fill-rule="nonzero" d="M40 23.104c-9.331 0-16.896 7.565-16.896 16.896S30.669 56.896 40 56.896 56.896 49.331 56.896 40c-.01-9.327-7.569-16.886-16.896-16.896zm0 30.72c-7.635 0-13.824-6.19-13.824-13.824 0-7.635 6.19-13.824 13.824-13.824 7.635 0 13.824 6.19 13.824 13.824A13.824 13.824 0 0 1 40 53.824z"/>
    </g>
</svg>
