<svg xmlns="http://www.w3.org/2000/svg" width="390" height="30" viewBox="0 0 390 30">
    <g fill="none" fill-rule="evenodd">
        <g transform="translate(80)">
            <path fill="none" d="M0 0h30v30H0z"/>
            <circle cx="15" cy="15" r="15" fill="#FFF"/>
            <path fill="#4C4C4C" d="M14.995 30c-5.317 0-9.96-2.763-12.655-6.942h6.203v-7.863l6.452 6.446 6.452-6.446v7.863h6.203A14.973 14.973 0 0 1 14.995 30z"/>
            <path fill="#F60" d="M30 14.982a14.9 14.9 0 0 1-.823 4.924h-4.49V7.332l-9.705 9.67-9.67-9.67v12.574H.816A14.953 14.953 0 0 1 0 14.982C0 6.73 6.73 0 14.982 0 23.27 0 30 6.73 30 14.982z"/>
        </g>
        <path d="M120 0h30v30h-30z"/>
        <path fill="#1D75BC" fill-rule="nonzero" d="M135 0c-8.284 0-15 6.716-15 15 0 8.284 6.716 15 15 15 8.284 0 15-6.716 15-15a15 15 0 0 0-15-15z"/>
        <path fill="#FFF" d="M125.99 13.615h7.203l-.923 2.824h-7.229z"/>
        <path fill="#FFF" d="M144.844 11.887l-2.02 6.16a4.153 4.153 0 0 1-3.945 2.85h-13.404l1.141-3.07 11.984.107 1.957-5.897h-12.148l.952-2.934h13.477a2.11 2.11 0 0 1 2.006 2.784z"/>
        <g fill-rule="nonzero">
            <path fill="#909BA7" d="M175 0c-8.284 0-15 6.716-15 15 0 8.284 6.716 15 15 15 8.284 0 15-6.716 15-15 0-8.284-6.716-15-15-15z"/>
            <path fill="#FFF" d="M180.305 21.175H169.46l1.107-4.161-1.567.572.518-1.952 1.569-.573L172.966 8h4.075l-1.437 5.41 1.994-.728.018.047-.504 1.894-2.026.74-.856 3.222H181z"/>
        </g>
        <path fill="none" d="M200 0h30v30h-30z"/>
        <g fill-rule="nonzero">
            <path fill="#343434" d="M214.706 0l-.201.683v19.833l.2.2 9.207-5.441z"/>
            <path fill="#8C8C8C" d="M214.706 0L205.5 15.275l9.206 5.441v-9.625z"/>
            <path fill="#3C3C3B" d="M214.706 22.46l-.113.138v7.064l.113.331 9.211-12.972z"/>
            <path fill="#8C8C8C" d="M214.706 29.993V22.46l-9.206-5.438z"/>
            <path fill="#141414" d="M214.706 20.716l9.206-5.441-9.206-4.184z"/>
            <path fill="#393939" d="M205.5 15.275l9.206 5.441v-9.625z"/>
        </g>
        <path fill="none" d="M0 0h30v30H0z"/>
        <path fill="#F7931A" fill-rule="nonzero" d="M29.551 18.628c-2.004 8.036-10.143 12.927-18.181 10.923C3.336 27.547-1.555 19.408.45 11.373 2.451 3.337 10.591-1.555 18.626.45c8.037 2.003 12.928 10.143 10.924 18.18z"/>
        <path fill="#FFF" fill-rule="nonzero" d="M21.612 12.863c.298-1.996-1.222-3.069-3.3-3.785l.674-2.703-1.646-.41-.656 2.632a67.24 67.24 0 0 0-1.319-.31l.66-2.65-1.644-.41-.675 2.703c-.358-.082-.71-.162-1.05-.247v-.009l-2.269-.566-.438 1.757s1.221.28 1.196.298c.666.166.786.607.766.957l-.767 3.08c.046.012.105.028.17.055l-.173-.043-1.076 4.314c-.082.203-.289.507-.755.391.017.024-1.196-.298-1.196-.298l-.817 1.883 2.142.534c.398.1.789.204 1.173.303l-.68 2.735 1.643.41.675-2.706c.45.122.885.235 1.312.34l-.672 2.694 1.645.41.682-2.73c2.807.531 4.917.317 5.805-2.221.716-2.044-.035-3.223-1.512-3.992 1.075-.248 1.886-.955 2.102-2.416zm-3.76 5.273c-.51 2.044-3.95.94-5.067.662l.904-3.623c1.116.278 4.694.83 4.162 2.961zm.508-5.302c-.464 1.859-3.328.914-4.257.682l.819-3.285c.929.231 3.921.664 3.438 2.603z"/>
        <g>
            <path fill="none" d="M40 0h30v30H40z"/>
            <path fill="#F7931A" fill-rule="nonzero" d="M69.551 18.628c-2.004 8.036-10.143 12.927-18.181 10.923-8.034-2.004-12.925-10.143-10.92-18.178C42.451 3.337 50.591-1.555 58.626.45c8.037 2.003 12.928 10.143 10.924 18.18z"/>
            <path fill="#FFF" fill-rule="nonzero" d="M58.745 8.71c-1.054-1.721-2.908-1.566-4.96-.779l-1.222-2.504-1.524.744 1.19 2.438a67.24 67.24 0 0 0-1.21.61L49.82 6.765l-1.524.743 1.221 2.504c-.327.168-.648.332-.964.487l-.004-.008-2.103 1.025.795 1.628s1.115-.57 1.106-.54c.618-.302.994-.041 1.203.24l1.392 2.853a1.34 1.34 0 0 1 .166-.068c-.05.025-.105.05-.16.078l1.948 3.997c.068.208.105.574-.326.785.028.007-1.109.54-1.109.54l.585 1.968 1.984-.967c.37-.18.736-.351 1.093-.523l1.237 2.533 1.523-.743-1.223-2.506c.423-.196.83-.39 1.224-.582l1.216 2.495 1.525-.744-1.233-2.529c2.492-1.398 3.97-2.918 3.02-5.433-.766-2.026-2.1-2.446-3.725-2.086.665-.881.83-1.944.057-3.202zm.51 6.456c.923 1.893-2.423 3.259-3.456 3.764l-1.637-3.356c1.034-.504 4.129-2.382 5.092-.408zm-3.02-4.388c.84 1.722-1.961 2.84-2.822 3.26l-1.485-3.045c.86-.42 3.431-2.012 4.307-.215z"/>
        </g>
        <g transform="translate(360)">
            <path fill="none" d="M0 0h30v30H0z"/>
            <circle cx="15" cy="15" r="15" fill="#EF4829"/>
            <path fill="#FFF" fill-rule="nonzero" d="M12 15.095v-1.793L10 14v-2.207l2-.698V7h1.984v3.402L18 9v2.207l-4.016 1.402v1.793L18 13v2.207l-4.016 1.402v4.365c3.043-.173 4.032-1.263 4.032-4.5H20C20 21.259 17.825 23 12.992 23H12v-5.698L10 18v-2.207l2-.698z"/>
        </g>
        <g transform="translate(240)">
            <path fill="none" d="M0 0h30v30H0z"/>
            <circle cx="15" cy="15" r="15" fill="#F5A623" fill-rule="nonzero"/>
            <path fill="#FFF" fill-rule="nonzero" d="M9.33 19.198l3.8-5.086a59.776 59.776 0 0 1 1.923-2.291v-.053H9.748V8.6h9.868v2.396l-3.627 4.876c-.664.846-1.285 1.66-1.971 2.37v.053h5.8v3.19H9.329v-2.287z"/>
            <path fill="#FFF" fill-rule="nonzero" d="M13.016 6.251h3.011v2.837h-3.011zM13.016 20.932h3.011v2.837h-3.011z"/>
        </g>
        <g fill-rule="nonzero">
            <path fill="#48B04C" d="M295 0c-8.284 0-15 6.716-15 15 0 8.284 6.716 15 15 15 8.284 0 15-6.716 15-15 0-8.284-6.716-15-15-15z"/>
            <path fill="#FFF" d="M290.01 18.233v-.076h2.718c0 .83.226 1.435.604 1.812.377.378.906.529 1.586.529.604 0 1.132-.151 1.434-.453.302-.302.453-.755.453-1.284 0-.528-.15-.981-.453-1.283-.302-.302-.83-.605-1.66-.907-1.436-.528-2.568-1.057-3.248-1.736-.68-.68-1.057-1.586-1.057-2.794 0-1.133.378-1.963 1.057-2.719.68-.68 1.661-1.132 2.87-1.208V6h1.51v2.114c1.208.151 2.114.604 2.794 1.36.68.755.981 1.736.981 2.944v.076h-2.794c0-.68-.15-1.284-.453-1.661-.302-.378-.755-.604-1.359-.604s-1.057.15-1.284.453c-.302.302-.377.755-.377 1.283 0 .529.15.906.453 1.208.302.303.83.605 1.661.982 1.435.453 2.568 1.057 3.247 1.737.755.68 1.057 1.586 1.057 2.794 0 1.132-.377 2.038-1.057 2.718-.68.68-1.661 1.057-2.945 1.208V24.5h-1.51v-1.888c-1.284-.075-2.265-.528-3.096-1.283-.83-.756-1.208-1.813-1.133-3.172v.076z"/>
        </g>
        <g fill-rule="nonzero">
            <path fill="#029FE4" d="M335 0c-8.284 0-15 6.716-15 15 0 8.284 6.716 15 15 15 8.284 0 15-6.716 15-15 0-8.284-6.716-15-15-15z"/>
            <path fill="#FFF" d="M329.134 12.708h-1.486a.111.111 0 0 0-.106.08l-.537 1.79a.112.112 0 0 0 .017.099c.02.028.054.045.089.045h1.584a7.363 7.363 0 0 0-.023.524c0 .227.017.457.038.687h-1.062a.111.111 0 0 0-.106.079l-.537 1.791a.111.111 0 0 0 .106.143h2.085c1.098 2.722 3.788 4.547 6.722 4.547 1.647 0 3.26-.568 4.54-1.6a.11.11 0 0 0 .017-.155l-1.123-1.396a.11.11 0 0 0-.156-.017 5.173 5.173 0 0 1-3.278 1.154 5.236 5.236 0 0 1-4.47-2.533h5.336a.11.11 0 0 0 .104-.073l.657-1.791a.112.112 0 0 0-.013-.102.11.11 0 0 0-.091-.047h-6.708a5.265 5.265 0 0 1-.048-.687c0-.173.014-.349.031-.524h6.068a.11.11 0 0 0 .104-.073l.657-1.791a.11.11 0 0 0-.104-.15h-6.087a5.21 5.21 0 0 1 4.564-2.695c1.207 0 2.34.4 3.278 1.154a.11.11 0 0 0 .156-.017l1.123-1.395a.111.111 0 0 0-.017-.157A7.264 7.264 0 0 0 335.918 8a7.271 7.271 0 0 0-6.784 4.708z"/>
        </g>
    </g>
</svg>
