<?xml version="1.0" encoding="UTF-8"?>
<svg xmlns:xlink="http://www.w3.org/1999/xlink" width="25px" height="23px" viewBox="0 0 25 23" version="1.1"
     xmlns="http://www.w3.org/2000/svg">
    <!-- Generator: Sketch 48 (47235) - http://www.bohemiancoding.com/sketch -->
    <title>Group 9</title>
    <desc>Created with Sketch.</desc>
    <defs>
        <path d="M1,7 L6,7 C6.55228475,7 7,7.44771525 7,8 L7,18 C7,18.5522847 6.55228475,19 6,19 L1,19 C0.44771525,19 6.76353751e-17,18.5522847 0,18 L0,8 C-6.76353751e-17,7.44771525 0.44771525,7 1,7 Z"
              id="path-1"></path>
        <path d="M10,4 L15,4 C15.5522847,4 16,4.44771525 16,5 L16,11 C16,11.5522847 15.5522847,12 15,12 L10,12 C9.44771525,12 9,11.5522847 9,11 L9,5 C9,4.44771525 9.44771525,4 10,4 Z"
              id="path-2"></path>
        <rect id="path-3" x="18" y="4" width="7" height="13" rx="1"></rect>
    </defs>
    <g id="wallet_assets" stroke="none" stroke-width="1" fill="none" fill-rule="evenodd"
       transform="translate(-22.000000, -156.000000)">
        <g id="Group-9" transform="translate(22.000000, 156.000000)">
            <path d="M3,0.5 L3,22.5 C3,22.7761424 3.22385763,23 3.5,23 L3.5,23 C3.77614237,23 4,22.7761424 4,22.5 L4,0.5 C4,0.223857625 3.77614237,-5.07265313e-17 3.5,0 L3.5,0 C3.22385763,5.07265313e-17 3,0.223857625 3,0.5 Z"
                  id="Line-5" fill="#4E5C6E" fill-rule="nonzero"></path>
            <g id="Rectangle-6">
                <use fill="#FFFFFF" fill-rule="evenodd" xlink:href="#path-1"></use>
                <path stroke="#4E5C6E" stroke-width="1"
                      d="M1,7.5 C0.723857625,7.5 0.5,7.72385763 0.5,8 L0.5,18 C0.5,18.2761424 0.723857625,18.5 1,18.5 L6,18.5 C6.27614237,18.5 6.5,18.2761424 6.5,18 L6.5,8 C6.5,7.72385763 6.27614237,7.5 6,7.5 L1,7.5 Z"></path>
            </g>
            <path d="M12,0.5 L12,14.5 C12,14.7761424 12.2238576,15 12.5,15 L12.5,15 C12.7761424,15 13,14.7761424 13,14.5 L13,0.5 C13,0.223857625 12.7761424,-5.07265313e-17 12.5,0 L12.5,0 C12.2238576,5.07265313e-17 12,0.223857625 12,0.5 Z"
                  id="Line-5-Copy-2" fill="#4E5C6E" fill-rule="nonzero"></path>
            <g id="Rectangle-6-Copy-2">
                <use fill="#FFFFFF" fill-rule="evenodd" xlink:href="#path-2"></use>
                <path stroke="#4E5C6E" stroke-width="1"
                      d="M10,4.5 C9.72385763,4.5 9.5,4.72385763 9.5,5 L9.5,11 C9.5,11.2761424 9.72385763,11.5 10,11.5 L15,11.5 C15.2761424,11.5 15.5,11.2761424 15.5,11 L15.5,5 C15.5,4.72385763 15.2761424,4.5 15,4.5 L10,4.5 Z"></path>
            </g>
            <path d="M21,0.5 L21,22.5 C21,22.7761424 21.2238576,23 21.5,23 L21.5,23 C21.7761424,23 22,22.7761424 22,22.5 L22,0.5 C22,0.223857625 21.7761424,-5.07265313e-17 21.5,0 L21.5,0 C21.2238576,5.07265313e-17 21,0.223857625 21,0.5 Z"
                  id="Line-5-Copy" fill="#4E5C6E" fill-rule="nonzero"></path>
            <g id="Rectangle-6-Copy">
                <use fill="#FFFFFF" fill-rule="evenodd" xlink:href="#path-3"></use>
                <rect stroke="#4E5C6E" stroke-width="1" x="18.5" y="4.5" width="6" height="12" rx="1"></rect>
            </g>
        </g>
    </g>
</svg>