<?xml version="1.0" encoding="UTF-8"?>
<svg width="100px" height="100px" viewBox="0 0 100 100" version="1.1" xmlns="http://www.w3.org/2000/svg" xmlns:xlink="http://www.w3.org/1999/xlink">
    <!-- Generator: Sketch 59.1 (86144) - https://sketch.com -->
    <title>Icons/100/NewTab-Dark</title>
    <desc>Created with Sketch.</desc>
    <g id="Icons/100/NewTab-Dark" stroke="none" stroke-width="1" fill="none" fill-rule="evenodd">
        <g id="Group" transform="translate(6.000000, 11.000000)">
            <rect id="Rectangle" fill="#BCBCBC" x="0" y="0" width="80" height="70" rx="4"></rect>
            <rect id="Rectangle" fill="#999999" x="11" y="20" width="58" height="20" rx="2"></rect>
            <rect id="Rectangle" fill="#999999" x="11" y="43" width="17" height="14" rx="2"></rect>
            <rect id="Rectangle" fill="#999999" x="31.5" y="43" width="17" height="14" rx="2"></rect>
            <rect id="Rectangle" fill="#999999" x="52" y="43" width="17" height="14" rx="2"></rect>
            <path d="M4,0 L76,0 C78.209139,-4.05812251e-16 80,1.790861 80,4 L80,12 L80,12 L0,12 L0,4 C-2.705415e-16,1.790861 1.790861,4.05812251e-16 4,0 Z" id="Rectangle" fill="#5A81EA"></path>
            <circle id="Oval" fill="#DFE8FF" cx="6" cy="6" r="2"></circle>
            <circle id="Oval" fill="#DFE8FF" opacity="0.497093564" cx="12" cy="6" r="2"></circle>
            <circle id="Oval" fill="#DFE8FF" opacity="0.204194568" cx="18" cy="6" r="2"></circle>
            <g id="Group-2" transform="translate(62.000000, 52.000000)">
                <circle id="Oval" fill="#5A81EA" cx="13" cy="13" r="13"></circle>
                <path d="M13,7 C13.5522847,7 14,7.44771525 14,8 L14,12 L18,12 C18.5522847,12 19,12.4477153 19,13 C19,13.5522847 18.5522847,14 18,14 L14,14 L14,18 C14,18.5522847 13.5522847,19 13,19 C12.4477153,19 12,18.5522847 12,18 L12,14 L8,14 C7.44771525,14 7,13.5522847 7,13 C7,12.4477153 7.44771525,12 8,12 L12,12 L12,8 C12,7.44771525 12.4477153,7 13,7 Z" id="Combined-Shape" fill="#FFFFFF"></path>
            </g>
        </g>
    </g>
</svg>