<svg xmlns="http://www.w3.org/2000/svg" width="5" height="12" viewBox="0 0 5 12">
  <path fill="#979797" d="M6,10.6451613 L5,9.83870968 L5,10.6451613 L6,9.83870968 L5,9.83870968 L6,10.6451613 L6,9.83870968 L5,10.6451613 L6,10.6451613 Z M6,9.83870968 L6,10.6451613 L5,10.6451613 L5,9.83870968 L6,9.83870968 Z M6,9.83870968 L6,10.6451613 L5,10.6451613 L5,9.83870968 L6,9.83870968 Z M6,13.0645161 L5,12.2580645 L5,13.0645161 L6,12.2580645 L5,12.2580645 L6,13.0645161 L6,12.2580645 L5,13.0645161 L6,13.0645161 Z M6,12.2580645 L6,13.0645161 L5,13.0645161 L5,12.2580645 L6,12.2580645 Z M6,12.2580645 L6,13.0645161 L5,13.0645161 L5,12.2580645 L6,12.2580645 Z M6,15.483871 L5,14.6774194 L5,15.483871 L6,14.6774194 L5,14.6774194 L6,15.483871 L6,14.6774194 L5,15.483871 L6,15.483871 Z M6,14.6774194 L6,15.483871 L5,15.483871 L5,14.6774194 L6,14.6774194 Z M6,14.6774194 L6,15.483871 L5,15.483871 L5,14.6774194 L6,14.6774194 Z M6,17.9032258 L5,17.0967742 L5,17.9032258 L6,17.0967742 L5,17.0967742 L6,17.9032258 L6,17.0967742 L5,17.9032258 L6,17.9032258 Z M6,17.0967742 L6,17.9032258 L5,17.9032258 L5,17.0967742 L6,17.0967742 Z M6,17.0967742 L6,17.9032258 L5,17.9032258 L5,17.0967742 L6,17.0967742 Z M6,20.3225806 L5,19.516129 L5,20.3225806 L6,19.516129 L5,19.516129 L6,20.3225806 L6,19.516129 L5,20.3225806 L6,20.3225806 Z M6,19.516129 L6,20.3225806 L5,20.3225806 L5,19.516129 L6,19.516129 Z M6,19.516129 L6,20.3225806 L5,20.3225806 L5,19.516129 L6,19.516129 Z M8,10.6451613 L7,9.83870968 L7,10.6451613 L8,9.83870968 L7,9.83870968 L8,10.6451613 L8,9.83870968 L7,10.6451613 L8,10.6451613 Z M8,9.83870968 L8,10.6451613 L7,10.6451613 L7,9.83870968 L8,9.83870968 Z M8,9.83870968 L8,10.6451613 L7,10.6451613 L7,9.83870968 L8,9.83870968 Z M8,13.0645161 L7,12.2580645 L7,13.0645161 L8,12.2580645 L7,12.2580645 L8,13.0645161 L8,12.2580645 L7,13.0645161 L8,13.0645161 Z M8,12.2580645 L8,13.0645161 L7,13.0645161 L7,12.2580645 L8,12.2580645 Z M8,12.2580645 L8,13.0645161 L7,13.0645161 L7,12.2580645 L8,12.2580645 Z M8,15.483871 L7,14.6774194 L7,15.483871 L8,14.6774194 L7,14.6774194 L8,15.483871 L8,14.6774194 L7,15.483871 L8,15.483871 Z M8,14.6774194 L8,15.483871 L7,15.483871 L7,14.6774194 L8,14.6774194 Z M8,14.6774194 L8,15.483871 L7,15.483871 L7,14.6774194 L8,14.6774194 Z M8,17.9032258 L7,17.0967742 L7,17.9032258 L8,17.0967742 L7,17.0967742 L8,17.9032258 L8,17.0967742 L7,17.9032258 L8,17.9032258 Z M8,17.0967742 L8,17.9032258 L7,17.9032258 L7,17.0967742 L8,17.0967742 Z M8,17.0967742 L8,17.9032258 L7,17.9032258 L7,17.0967742 L8,17.0967742 Z M8,20.3225806 L7,19.516129 L7,20.3225806 L8,19.516129 L7,19.516129 L8,20.3225806 L8,19.516129 L7,20.3225806 L8,20.3225806 Z M8,19.516129 L8,20.3225806 L7,20.3225806 L7,19.516129 L8,19.516129 Z M8,19.516129 L8,20.3225806 L7,20.3225806 L7,19.516129 L8,19.516129 Z M10,10.6451613 L9,9.83870968 L9,10.6451613 L10,9.83870968 L9,9.83870968 L10,10.6451613 L10,9.83870968 L9,10.6451613 L10,10.6451613 Z M10,9.83870968 L10,10.6451613 L9,10.6451613 L9,9.83870968 L10,9.83870968 Z M10,9.83870968 L10,10.6451613 L9,10.6451613 L9,9.83870968 L10,9.83870968 Z M10,13.0645161 L9,12.2580645 L9,13.0645161 L10,12.2580645 L9,12.2580645 L10,13.0645161 L10,12.2580645 L9,13.0645161 L10,13.0645161 Z M10,12.2580645 L10,13.0645161 L9,13.0645161 L9,12.2580645 L10,12.2580645 Z M10,12.2580645 L10,13.0645161 L9,13.0645161 L9,12.2580645 L10,12.2580645 Z M10,15.483871 L9,14.6774194 L9,15.483871 L10,14.6774194 L9,14.6774194 L10,15.483871 L10,14.6774194 L9,15.483871 L10,15.483871 Z M10,14.6774194 L10,15.483871 L9,15.483871 L9,14.6774194 L10,14.6774194 Z M10,14.6774194 L10,15.483871 L9,15.483871 L9,14.6774194 L10,14.6774194 Z M10,17.9032258 L9,17.0967742 L9,17.9032258 L10,17.0967742 L9,17.0967742 L10,17.9032258 L10,17.0967742 L9,17.9032258 L10,17.9032258 Z M10,17.0967742 L10,17.9032258 L9,17.9032258 L9,17.0967742 L10,17.0967742 Z M10,17.0967742 L10,17.9032258 L9,17.9032258 L9,17.0967742 L10,17.0967742 Z M10,20.3225806 L9,19.516129 L9,20.3225806 L10,19.516129 L9,19.516129 L10,20.3225806 L10,19.516129 L9,20.3225806 L10,20.3225806 Z M10,19.516129 L10,20.3225806 L9,20.3225806 L9,19.516129 L10,19.516129 Z M10,19.516129 L10,20.3225806 L9,20.3225806 L9,19.516129 L10,19.516129 Z" transform="translate(-5 -9)"/>
</svg>
