<svg xmlns="http://www.w3.org/2000/svg" width="14" height="14" viewBox="0 0 14 14">
    <path fill="#9BA6B2" fill-rule="nonzero" d="M6.393 1.712a.75.75 0 1 1 0 1.5h-4A.393.393 0 0 0 2 3.605v8c0 .217.176.393.393.393h8a.393.393 0 0 0 .393-.393v-4a.75.75 0 1 1 1.5 0v4a1.893 1.893 0 0 1-1.893 1.893h-8A1.893 1.893 0 0 1 .5 11.605v-8c0-1.045.847-1.893 1.893-1.893h4zm6.53-.637a1.962 1.962 0 0 1 0 2.775L7.495 9.278a.75.75 0 0 1-.349.198l-2.286.57a.75.75 0 0 1-.909-.909l.571-2.285a.75.75 0 0 1 .198-.349l5.428-5.428a1.962 1.962 0 0 1 2.775 0zM6.581 8.07l5.282-5.282a.462.462 0 0 0-.654-.654L5.927 7.417l-.218.872.872-.218z"/>
</svg>
