<svg xmlns="http://www.w3.org/2000/svg" width="80" height="80" viewBox="0 0 80 80">
    <g fill="#EF4829" fill-rule="evenodd">
        <path fill-rule="nonzero" d="M40 77c20.435 0 37-16.565 37-37S60.435 3 40 3 3 19.565 3 40s16.565 37 37 37zm0 3C17.909 80 0 62.091 0 40S17.909 0 40 0s40 17.909 40 40-17.909 40-40 40z"/>
        <path d="M42.121 40l13.435 13.435a1.5 1.5 0 0 1-2.121 2.121L40 42.121 26.565 55.556a1.5 1.5 0 0 1-2.121-2.121L37.879 40 24.444 26.565a1.5 1.5 0 0 1 2.121-2.121L40 37.879l13.435-13.435a1.5 1.5 0 0 1 2.121 2.121L42.121 40z"/>
    </g>
</svg>
