<svg xmlns="http://www.w3.org/2000/svg" width="80" height="80" viewBox="0 0 80 80">
    <g fill="none" fill-rule="evenodd">
        <path fill="none" d="M0 0h80v80H0z"/>
        <path fill="#EF4829" d="M77.306 54.46A16.423 16.423 0 0 1 80 63.5C80 72.613 72.613 80 63.5 80c-3.337 0-6.443-.99-9.04-2.694A39.902 39.902 0 0 1 40 80C17.909 80 0 62.091 0 40S17.909 0 40 0a40 40 0 0 1 40 40c0 5.1-.954 9.976-2.694 14.46zm-2.381-2.865A36.805 36.805 0 0 0 76.8 40C76.8 19.676 60.324 3.2 40 3.2 19.676 3.2 3.2 19.676 3.2 40c0 20.324 16.476 36.8 36.8 36.8a36.805 36.805 0 0 0 11.595-1.875A16.445 16.445 0 0 1 47 63.5C47 54.387 54.387 47 63.5 47c4.434 0 8.46 1.75 11.425 4.595zM63.5 77C70.956 77 77 70.956 77 63.5S70.956 50 63.5 50 50 56.044 50 63.5 56.044 77 63.5 77z"/>
        <path fill="#EF4829" d="M63.503 61.382l4.243-4.243a1.5 1.5 0 0 1 2.121 2.122l-4.242 4.242 4.242 4.243a1.5 1.5 0 0 1-2.121 2.121l-4.243-4.242-4.242 4.242a1.5 1.5 0 0 1-2.122-2.121l4.243-4.243-4.243-4.242a1.5 1.5 0 0 1 2.122-2.122l4.242 4.243zM51.2 49.58a1.6 1.6 0 0 1-1.6 1.6H18.262l6.87 6.87a1.6 1.6 0 1 1-2.263 2.262l-9.6-9.6a1.6 1.6 0 0 1 0-2.263l9.6-9.6a1.6 1.6 0 0 1 2.262 2.263l-6.869 6.868H49.6a1.6 1.6 0 0 1 1.6 1.6zm16-19.2c0 .425-.168.832-.469 1.132l-9.6 9.6a1.6 1.6 0 0 1-2.262-2.263l6.869-6.869H30.4a1.6 1.6 0 1 1 0-3.2h31.338l-6.87-6.868a1.6 1.6 0 0 1 2.263-2.263l9.6 9.6c.3.3.47.707.469 1.131z"/>
    </g>
</svg>
