<?xml version="1.0" encoding="UTF-8"?>
<svg width="14px" height="14px" viewBox="0 0 14 14" version="1.1" xmlns="http://www.w3.org/2000/svg" xmlns:xlink="http://www.w3.org/1999/xlink">
    <!-- Generator: Sketch 51 (57462) - http://www.bohemiancoding.com/sketch -->
    <title>fullscreen</title>
    <desc>Created with Sketch.</desc>
    <defs></defs>
    <g id="Page-1" stroke="none" stroke-width="1" fill="none" fill-rule="evenodd">
        <g id="fullscreen" transform="translate(-3.000000, -3.000000)" fill-rule="nonzero">
            <path d="M0,1.99 C0,0.892 0.898,0 1.99,0 L18.01,0 C19.108,0 20,0.898 20,1.99 L20,18.01 C20,19.109 19.102,20 18.01,20 L1.99,20 C0.892,20 0,19.102 0,18.01 L0,1.99 Z" id="Shape" fill-opacity="0" fill="#F8F9FB"></path>
            <path d="M15.1242059,12.2975052 L16.124762,12.2967981 L16.124762,16.2976083 L15.2521922,16.2961941 L12.1161737,16.2969012 L12.1168808,15.2963451 L15.124913,15.2963451 L15.1242059,12.2975052 Z M15.1234988,5.41402684 L12.2363818,8.30114383 L11.529275,7.59403704 L14.423298,4.70001409 L12.1246589,4.7005561 L12.1239518,3.7 L16.124762,3.7 L16.1233478,4.57256977 L16.1240549,7.70858834 L15.1234988,7.70788124 L15.1234988,5.41402684 Z M5.59402684,4.70479874 L8.48114383,7.59191572 L7.77403704,8.2990225 L4.88001409,5.40499955 L4.8805561,7.7036386 L3.88,7.7043457 L3.88,3.70353553 L4.75256977,3.70494975 L7.88858834,3.70424264 L7.88788124,4.70479874 L5.59402684,4.70479874 Z M4.8812632,14.587117 L7.76838019,11.7 L8.47548697,12.4071068 L5.58146402,15.3011297 L7.88010306,15.3005877 L7.88081017,16.3011438 L3.88,16.3011438 L3.88141421,15.4285741 L3.88070711,12.2925555 L4.8812632,12.2932626 L4.8812632,14.587117 Z M12.230725,11.7021213 L15.7662589,15.2376552 L15.0591521,15.944762 L11.5236182,12.4092281 L12.230725,11.7021213 Z" id="Combined-Shape" fill="#9BA6B2"></path>
        </g>
    </g>
</svg>