<?xml version="1.0" encoding="UTF-8"?>
<svg width="135px" height="42px" viewBox="0 0 135 42" version="1.1" xmlns="http://www.w3.org/2000/svg" xmlns:xlink="http://www.w3.org/1999/xlink">
    <!-- Generator: Sketch 52.3 (67297) - http://www.bohemiancoding.com/sketch -->
    <title>Button/Medium/Google Play/Default</title>
    <desc>Created with Sketch.</desc>
    <defs>
        <linearGradient x1="91.4895098%" y1="4.9604069%" x2="-38.3173161%" y2="71.909245%" id="linearGradient-1">
            <stop stop-color="#00A0FF" offset="0%"></stop>
            <stop stop-color="#00A1FF" offset="0.66%"></stop>
            <stop stop-color="#00BEFF" offset="26.01%"></stop>
            <stop stop-color="#00D2FF" offset="51.22%"></stop>
            <stop stop-color="#00DFFF" offset="76.04%"></stop>
            <stop stop-color="#00E3FF" offset="100%"></stop>
        </linearGradient>
        <linearGradient x1="107.585647%" y1="50.0163647%" x2="-130.492257%" y2="50.0163647%" id="linearGradient-2">
            <stop stop-color="#FFE000" offset="0%"></stop>
            <stop stop-color="#FFBD00" offset="40.87%"></stop>
            <stop stop-color="#FFA500" offset="77.54%"></stop>
            <stop stop-color="#FF9C00" offset="100%"></stop>
        </linearGradient>
        <linearGradient x1="86.237735%" y1="117.851014%" x2="-50.1313759%" y2="294.785269%" id="linearGradient-3">
            <stop stop-color="#FF3A44" offset="0%"></stop>
            <stop stop-color="#C31162" offset="100%"></stop>
        </linearGradient>
        <linearGradient x1="-18.8012883%" y1="-154.171052%" x2="42.0936259%" y2="-75.1365546%" id="linearGradient-4">
            <stop stop-color="#32A071" offset="0%"></stop>
            <stop stop-color="#2DA771" offset="6.85%"></stop>
            <stop stop-color="#15CF74" offset="47.62%"></stop>
            <stop stop-color="#06E775" offset="80.09%"></stop>
            <stop stop-color="#00F076" offset="100%"></stop>
        </linearGradient>
    </defs>
    <g id="Button/Medium/Google-Play/Default" stroke="none" stroke-width="1" fill="none" fill-rule="evenodd">
        <rect id="Rectangle" fill="#000000" fill-rule="nonzero" x="0" y="0" width="135" height="42" rx="4"></rect>
        <path d="M44.0795093,13.8474281 C44.0795093,14.6746875 43.8289112,15.337238 43.335233,15.8313645 C42.7676284,16.4171334 42.0283641,16.7118755 41.122452,16.7118755 C40.2566357,16.7118755 39.5173713,16.4121798 38.910924,15.8214572 C38.3032237,15.2220657 38,14.4864488 38,13.6059378 C38,12.7254267 38.3032237,11.9898099 38.910924,11.395372 C39.5173713,10.7996957 40.2566357,10.5 41.122452,10.5 C41.5534807,10.5 41.9644615,10.5879273 42.3566475,10.7513977 C42.7475805,10.9161065 43.0658401,11.1390207 43.2963903,11.4139482 L42.7726403,11.9365581 C42.3704304,11.4671999 41.8228736,11.2356168 41.122452,11.2356168 C40.4909449,11.2356168 39.9433881,11.4535774 39.4785286,11.8932137 C39.0186812,12.3340884 38.7881309,12.9049965 38.7881309,13.6059378 C38.7881309,14.3068791 39.0186812,14.8827407 39.4785286,15.3236155 C39.9433881,15.7582981 40.4909449,15.9812123 41.122452,15.9812123 C41.7928019,15.9812123 42.3566475,15.7582981 42.8014591,15.3186618 C43.0946589,15.027635 43.2613066,14.6263894 43.3051612,14.1136868 L41.122452,14.1136868 L41.122452,13.3978845 L44.0344016,13.3978845 C44.0694854,13.552686 44.0795093,13.7025339 44.0795093,13.8474281 Z M48.6992848,11.3656501 L45.9640068,11.3656501 L45.9640068,13.2480366 L48.4298919,13.2480366 L48.4298919,13.9638389 L45.9640068,13.9638389 L45.9640068,15.8462254 L48.6992848,15.8462254 L48.6992848,16.5756502 L45.1896588,16.5756502 L45.1896588,10.6362253 L48.6992848,10.6362253 L48.6992848,11.3656501 Z M51.9595658,16.5756502 L51.1852177,16.5756502 L51.1852177,11.3656501 L49.5074636,11.3656501 L49.5074636,10.6362253 L53.6385729,10.6362253 L53.6385729,11.3656501 L51.9595658,11.3656501 L51.9595658,16.5756502 Z M56.6282079,16.5756502 L56.6282079,10.6362253 L57.401303,10.6362253 L57.401303,16.5756502 L56.6282079,16.5756502 Z M60.8282316,16.5756502 L60.0601485,16.5756502 L60.0601485,11.3656501 L58.3761295,11.3656501 L58.3761295,10.6362253 L62.5122507,10.6362253 L62.5122507,11.3656501 L60.8282316,11.3656501 L60.8282316,16.5756502 Z M70.3334166,15.8115499 C69.7407522,16.4121798 69.0064998,16.7118755 68.1306595,16.7118755 C67.2498073,16.7118755 66.515555,16.4121798 65.9228905,15.8115499 C65.331479,15.2121584 65.0370263,14.4765415 65.0370263,13.6059378 C65.0370263,12.735334 65.331479,11.9997172 65.9228905,11.4003257 C66.515555,10.7996957 67.2498073,10.5 68.1306595,10.5 C69.0014879,10.5 69.7357402,10.7996957 70.3284047,11.4052793 C70.9248281,12.0096245 71.2192808,12.7402876 71.2192808,13.6059378 C71.2192808,14.4765415 70.9248281,15.2121584 70.3334166,15.8115499 Z M66.4955071,15.3137082 C66.9415717,15.7582981 67.4841165,15.9812123 68.1306595,15.9812123 C68.7721906,15.9812123 69.3197474,15.7582981 69.7608,15.3137082 C70.2056116,14.8691182 70.4311499,14.2982102 70.4311499,13.6059378 C70.4311499,12.9136654 70.2056116,12.3427573 69.7608,11.8981674 C69.3197474,11.4535774 68.7721906,11.2306632 68.1306595,11.2306632 C67.4841165,11.2306632 66.9415717,11.4535774 66.4955071,11.8981674 C66.0506955,12.3427573 65.8251573,12.9136654 65.8251573,13.6059378 C65.8251573,14.2982102 66.0506955,14.8691182 66.4955071,15.3137082 Z M72.3056235,16.5756502 L72.3056235,10.6362253 L73.2453663,10.6362253 L76.1673398,15.2555028 L76.2011706,15.2555028 L76.1673398,14.1136868 L76.1673398,10.6362253 L76.9404349,10.6362253 L76.9404349,16.5756502 L76.1335091,16.5756502 L73.0737066,11.7285049 L73.0398758,11.7285049 L73.0737066,12.8752746 L73.0737066,16.5756502 L72.3056235,16.5756502 Z" id="Combined-Shape" fill="#FFFFFF"></path>
        <path d="M65.1598194,30.6107442 C62.8054505,30.6107442 60.8821102,28.8398147 60.8821102,26.3964275 C60.8821102,23.9728548 62.8054505,22.1833492 65.1598194,22.1833492 C67.5192002,22.1833492 69.4425405,23.9728548 69.4425405,26.3964275 C69.4425405,28.8398147 67.5192002,30.6107442 65.1598194,30.6107442 Z M65.1598194,23.8428216 C63.8679863,23.8428216 62.7565838,24.8967103 62.7565838,26.3964275 C62.7565838,27.9159592 63.8679863,28.9512718 65.1598194,28.9512718 C66.4516524,28.9512718 67.5680669,27.9159592 67.5680669,26.3964275 C67.5680669,24.8967103 66.4516524,23.8428216 65.1598194,23.8428216 Z M55.8262941,30.6107442 C53.4669132,30.6107442 51.5485849,28.8398147 51.5485849,26.3964275 C51.5485849,23.9728548 53.4669132,22.1833492 55.8262941,22.1833492 C58.184422,22.1833492 60.1040032,23.9728548 60.1040032,26.3964275 C60.1040032,28.8398147 58.184422,30.6107442 55.8262941,30.6107442 Z M55.8262941,23.8428216 C54.533208,23.8428216 53.4180466,24.8967103 53.4180466,26.3964275 C53.4180466,27.9159592 54.533208,28.9512718 55.8262941,28.9512718 C57.1181271,28.9512718 58.2295296,27.9159592 58.2295296,26.3964275 C58.2295296,24.8967103 57.1181271,23.8428216 55.8262941,23.8428216 Z M44.7197874,29.3190803 L44.7197874,27.5283362 L49.0463631,27.5283362 C48.9198111,26.5276992 48.5815037,25.7920823 48.0627657,25.2793797 C47.4312586,24.6601736 46.4476611,23.9728548 44.7197874,23.9728548 C42.0571828,23.9728548 39.9722069,26.0967317 39.9722069,28.7283576 C39.9722069,31.3599835 42.0571828,33.4838604 44.7197874,33.4838604 C46.1594733,33.4838604 47.2069733,32.9278134 47.9800683,32.2070575 L49.2568655,33.4689995 C48.1755348,34.4894511 46.7371019,35.2733661 44.7197874,35.2733661 C41.0685734,35.2733661 38,32.3370908 38,28.7283576 C38,25.1196245 41.0685734,22.1833492 44.7197874,22.1833492 C46.6932472,22.1833492 48.1755348,22.8223699 49.3408159,24.0211529 C50.5349157,25.2013597 50.9070539,26.8608321 50.9070539,28.2007941 C50.9070539,28.6169005 50.8719701,28.9995699 50.8093206,29.3190803 L44.7197874,29.3190803 Z M90.1356765,27.9308202 C89.7835862,28.8732519 88.6972436,30.6107442 86.4844626,30.6107442 C84.2917294,30.6107442 82.4661224,28.9029738 82.4661224,26.3964275 C82.4661224,24.0360139 84.2729345,22.1833492 86.6949649,22.1833492 C88.6533889,22.1833492 89.7835862,23.363556 90.2484456,24.0508748 L88.7949768,25.0081674 C88.3100695,24.3072261 87.6497436,23.8428216 86.6949649,23.8428216 C85.7464512,23.8428216 85.0660775,24.2725506 84.6300368,25.1196245 L90.332396,27.4515547 L90.1356765,27.9308202 Z M84.3218012,26.5276992 C84.2729345,28.152496 85.5985984,28.984709 86.5483651,28.984709 C87.2926414,28.984709 87.9241485,28.6169005 88.1346509,28.0905754 L84.3218012,26.5276992 Z M79.6869898,22.4397006 L81.5614634,22.4397006 L81.5614634,34.8238224 L79.6869898,34.8238224 L79.6869898,22.4397006 Z M76.6171634,29.6720277 L76.5545138,29.6720277 C76.1335091,30.1649158 75.3303422,30.6107442 74.3129141,30.6107442 C72.1778185,30.6107442 70.2256595,28.7580795 70.2256595,26.382805 C70.2256595,24.0211529 72.1778185,22.1833492 74.3129141,22.1833492 C75.3303422,22.1833492 76.1335091,22.6328929 76.5545138,23.1406419 L76.6171634,23.1406419 L76.6171634,22.5362967 C76.6171634,20.9251225 75.746335,20.0594723 74.3417328,20.0594723 C73.1964996,20.0594723 72.4860541,20.8768244 72.1928543,21.5641431 L70.5627139,20.8916853 C71.0325853,19.7746375 72.2768047,18.4 74.3417328,18.4 C76.539478,18.4 78.3939037,19.6780414 78.3939037,22.7876944 L78.3939037,30.3543928 L76.6171634,30.3543928 L76.6171634,29.6720277 Z M74.4732968,23.8428216 C73.1814637,23.8428216 72.1001331,24.9115713 72.1001331,26.382805 C72.1001331,27.8676612 73.1814637,28.9512718 74.4732968,28.9512718 C75.746335,28.9512718 76.7499803,27.8676612 76.7499803,26.382805 C76.7499803,24.9115713 75.746335,23.8428216 74.4732968,23.8428216 Z M98.9116211,34.8238224 L94.4284215,34.8238224 L94.4284215,22.4397006 L96.2978832,22.4397006 L96.2978832,27.1320443 L98.9116211,27.1320443 C100.987826,27.1320443 103.023936,28.6169005 103.023936,30.9785526 C103.023936,33.3389662 100.982814,34.8238224 98.9116211,34.8238224 Z M98.9604877,28.8546757 L96.2978832,28.8546757 L96.2978832,33.1011911 L98.9604877,33.1011911 C100.356319,33.1011911 101.153221,31.9556598 101.153221,30.9785526 C101.153221,30.0200216 100.356319,28.8546757 98.9604877,28.8546757 Z M110.516818,30.634274 C109.166094,30.634274 107.761492,30.0447898 107.183864,28.7382649 L108.842823,28.0509462 C109.199925,28.7382649 109.856492,28.9611791 110.550649,28.9611791 C111.520463,28.9611791 112.504061,28.3853175 112.519097,27.3685811 L112.519097,27.2385478 C112.180789,27.4317401 111.456561,27.7178133 110.565685,27.7178133 C108.77892,27.7178133 106.958325,26.7456597 106.958325,24.9313859 C106.958325,23.2719135 108.421818,22.2031638 110.066994,22.2031638 C111.324997,22.2031638 112.019153,22.7641645 112.455194,23.4168078 L112.519097,23.4168078 L112.519097,22.4595152 L114.324656,22.4595152 L114.324656,27.2100643 C114.324656,29.4057691 112.665696,30.634274 110.516818,30.634274 Z M110.29128,23.8477752 C109.67982,23.8477752 108.827787,24.147471 108.827787,24.8967103 C108.827787,25.8552414 109.890323,26.2230498 110.810018,26.2230498 C111.633232,26.2230498 112.019153,26.04348 112.519097,25.8069433 C112.372497,24.6601736 111.373863,23.8477752 110.29128,23.8477752 Z M120.902855,30.3630617 L118.753977,24.9945449 L118.690074,24.9945449 L116.468522,30.3630617 L114.452461,30.3630617 L117.790427,22.8607607 L115.885882,18.6860732 L117.839294,18.6860732 L122.982819,30.3630617 L120.902855,30.3630617 Z M104.051388,22.4397006 L105.925861,22.4397006 L105.925861,34.8238224 L104.051388,34.8238224 L104.051388,22.4397006 Z" id="path46" fill="#FFFFFF" fill-rule="nonzero" transform="translate(80.491410, 26.836683) scale(-1, 1) rotate(-180.000000) translate(-80.491410, -26.836683) "></path>
        <g id="Icon/googleplay-24" transform="translate(10.000000, 9.000000)">
            <g>
                <rect id="ico-zone" fill-opacity="0" fill="#D8D8D8" fill-rule="nonzero" x="0" y="0" width="24" height="24"></rect>
                <path d="M2.10889321,23.0347707 C1.84841579,22.7652731 1.69767141,22.3456896 1.69767141,21.8023124 L1.69767141,2.42039957 C1.69767141,1.8770224 1.84841579,1.45743883 2.10889321,1.18794128 L2.17318125,1.12878328 L13.1620032,11.9853714 L13.1620032,12.2417227 L2.17318125,23.0983108 L2.10889321,23.0347707 Z" id="path64" fill="url(#linearGradient-1)" transform="translate(7.429837, 12.113547) scale(-1, 1) rotate(-180.000000) translate(-7.429837, -12.113547) "></path>
                <path d="M16.8208797,8.3646828 L13.1620032,11.9853714 L13.1620032,12.2417227 L16.8253134,15.8624112 L16.907336,15.8153039 L21.2456706,13.3755843 C22.4837697,12.6832166 22.4837697,11.5438774 21.2456706,10.8471277 L16.907336,8.4117901 L16.8208797,8.3646828 Z" id="path78" fill="url(#linearGradient-2)" transform="translate(17.668124, 12.113547) scale(-1, 1) rotate(-180.000000) translate(-17.668124, -12.113547) "></path>
                <path d="M16.907336,19.6847403 L13.1620032,23.3864973 L2.10889321,12.4608915 C2.52011501,12.0336393 3.19070582,11.9821499 3.95329504,12.4094021 L16.907336,19.6847403" id="path88" fill="url(#linearGradient-3)" transform="translate(9.508115, 17.750022) scale(-1, 1) rotate(-180.000000) translate(-9.508115, -17.750022) "></path>
                <path d="M16.907336,4.54608066 L3.95329504,11.8214188 C3.19070582,12.244289 2.52011501,12.1927996 2.10889321,11.7655474 L13.1620032,0.844323741 L16.907336,4.54608066 Z" id="path104" fill="url(#linearGradient-4)" transform="translate(9.508115, 6.478935) scale(-1, 1) rotate(-180.000000) translate(-9.508115, -6.478935) "></path>
            </g>
        </g>
    </g>
</svg>