<?xml version="1.0" encoding="UTF-8"?>
<svg width="14px" height="14px" viewBox="0 0 14 14" version="1.1" xmlns="http://www.w3.org/2000/svg" xmlns:xlink="http://www.w3.org/1999/xlink">
    <!-- Generator: Sketch 55.1 (78136) - https://sketchapp.com -->
    <title>vopros</title>
    <desc>Created with Sketch.</desc>
    <g id="vopros" stroke="none" stroke-width="1" fill="none" fill-rule="evenodd">
        <path d="M6.25369334,8.66298245 C6.26075331,8.24291432 6.3087801,7.90850557 6.39942081,7.6583372 C6.49091084,7.40582473 6.67388651,7.13136124 6.94963081,6.83061482 L7.62147094,6.1384296 C7.89309718,5.83123327 8.02696882,5.50611645 8.02696882,5.15948321 C8.02696882,4.82455548 7.9413737,4.56854826 7.7725887,4.3859536 C7.60603216,4.20576971 7.3605151,4.11446806 7.02834786,4.11446806 C6.70291658,4.11446806 6.44678648,4.19880357 6.25498128,4.36585971 C6.0665573,4.5299709 5.97302282,4.7487209 5.97302282,5.03061033 L5.97302282,5.14029621 L5.86333693,5.14029621 L4.90967754,5.14029621 L4.8,5.14029621 L4.8,5.02925628 C4.80724996,4.44200925 5.01881593,3.96300929 5.43276448,3.60012048 C5.84394382,3.23965932 6.37750495,3.06 7.02834786,3.06 C7.7045093,3.06 8.23790406,3.24383554 8.62251721,3.61386618 C9.00782405,3.98456421 9.2,4.49187225 9.2,5.12855372 C9.2,5.76072718 8.90948328,6.37942015 8.33241918,6.98491574 L7.77481082,7.53716192 C7.54398297,7.79328595 7.42670902,8.16759867 7.42670902,8.66482565 L7.42670902,8.77451153 L7.31702313,8.77451153 L6.36336374,8.77451153 L6.25498128,8.77451153 L6.25369334,8.66298245 Z M6.31641551,10.2989338 C6.31641551,10.1178075 6.37324414,9.96178713 6.48639914,9.83628796 C6.60351506,9.70639577 6.77337943,9.6428269 6.98798721,9.6428269 C7.20232703,9.6428269 7.37274746,9.70621498 7.4914907,9.83556028 C7.60674012,9.96109983 7.66471382,10.1174218 7.66471382,10.2989338 C7.66471382,10.4809335 7.60638794,10.636122 7.49024616,10.7584857 C7.37145488,10.8836407 7.20164497,10.9447309 6.98798721,10.9447309 C6.77406065,10.9447309 6.60480848,10.8834678 6.48762993,10.7577672 C6.37358788,10.6354312 6.31641551,10.4805461 6.31641551,10.2989338 Z" id="Combined-Shape" fill="#FFFFFF" fill-rule="nonzero"></path>
    </g>
</svg>