<svg xmlns="http://www.w3.org/2000/svg" width="18" height="18" viewBox="0 0 18 18">
    <g fill="none" fill-rule="evenodd">
        <path fill="none" d="M0 0h18v18H0z"/>
        <path fill="#9BA6B2" fill-rule="nonzero" d="M15.581 2.956L3.206 15.331a.544.544 0 0 1-.787 0 .544.544 0 0 1 0-.787L14.794 2.169a.544.544 0 0 1 .787 0 .544.544 0 0 1 0 .787zM5.625 8.75c0 .31.056.59.112.872L6.75 8.609a2.238 2.238 0 0 1 2.081-2.08l1.013-1.013a2.967 2.967 0 0 0-.872-.113c-1.828-.028-3.347 1.49-3.347 3.347zm3.516 2.222l-1.013 1.012c.281.085.563.113.872.113a3.385 3.385 0 0 0 3.375-3.375c0-.31-.056-.59-.113-.872L11.25 8.863c-.084 1.153-.984 2.053-2.11 2.109zm-5.232.478c-1.04-.703-1.968-1.603-2.671-2.7A9.214 9.214 0 0 1 9 4.531c.563 0 1.125.057 1.688.14l.956-.955a10.108 10.108 0 0 0-2.616-.338c-3.684 0-7.031 1.885-8.915 5.063a.558.558 0 0 0 0 .59c.787 1.322 1.828 2.39 3.009 3.235l.787-.816zm14.007-2.981c-.788-1.322-1.829-2.39-3.01-3.235l-.815.816c1.04.703 1.968 1.603 2.671 2.7A9.178 9.178 0 0 1 9 12.969c-.563 0-1.125-.056-1.688-.14l-.956.955c.844.225 1.716.338 2.616.338 3.684 0 7.031-1.884 8.915-5.063a.51.51 0 0 0 .029-.59z"/>
    </g>
</svg>
