<svg xmlns="http://www.w3.org/2000/svg" width="80" height="80" viewBox="0 0 80 80">
    <path fill="#5A81EA" fill-rule="evenodd" d="M52.992 5.229V17a3 3 0 0 0 3 3l11.726-.042-14.726-14.73zM69 23H55.992a6 6 0 0 1-6-6V3H14a3 3 0 0 0-3 3v68a3 3 0 0 0 3 3h52a3 3 0 0 0 3-3V23zM52.007 0L72 19.998V74a6 6 0 0 1-6 6H14a6 6 0 0 1-6-6V6a6 6 0 0 1 6-6h38.007zM19.5 20h24a1.5 1.5 0 0 1 0 3h-24a1.5 1.5 0 0 1 0-3zm0 11h41a1.5 1.5 0 0 1 0 3h-41a1.5 1.5 0 0 1 0-3zm0 11h41a1.5 1.5 0 0 1 0 3h-41a1.5 1.5 0 0 1 0-3zm0 11h34a1.5 1.5 0 0 1 0 3h-34a1.5 1.5 0 0 1 0-3zm0 11h17a1.5 1.5 0 0 1 0 3h-17a1.5 1.5 0 0 1 0-3z"/>
</svg>
