<?xml version="1.0" encoding="UTF-8"?>
<svg width="80px" height="80px" viewBox="0 0 80 80" version="1.1" xmlns="http://www.w3.org/2000/svg" xmlns:xlink="http://www.w3.org/1999/xlink">
    <!-- Generator: Sketch 51 (57462) - http://www.bohemiancoding.com/sketch -->
    <title>Icon/80/error-80-error500</title>
    <desc>Created with Sketch.</desc>
    <defs></defs>
    <g id="Icon/80/error-80-error500" stroke="none" stroke-width="1" fill="none" fill-rule="evenodd">
        <path d="M40,77 C60.4345357,77 77,60.4345357 77,40 C77,19.5654643 60.4345357,3 40,3 C19.5654643,3 3,19.5654643 3,40 C3,60.4345357 19.5654643,77 40,77 Z M40,80 C17.90861,80 0,62.09139 0,40 C0,17.90861 17.90861,0 40,0 C62.09139,0 80,17.90861 80,40 C80,62.09139 62.09139,80 40,80 Z" id="Oval" fill="#EF4829" fill-rule="nonzero"></path>
        <path d="M42.1213203,40 L55.5563492,53.4350288 C56.1421356,54.0208153 56.1421356,54.9705627 55.5563492,55.5563492 C54.9705627,56.1421356 54.0208153,56.1421356 53.4350288,55.5563492 L40,42.1213203 L26.5649712,55.5563492 C25.9791847,56.1421356 25.0294373,56.1421356 24.4436508,55.5563492 C23.8578644,54.9705627 23.8578644,54.0208153 24.4436508,53.4350288 L37.8786797,40 L24.4436508,26.5649712 C23.8578644,25.9791847 23.8578644,25.0294373 24.4436508,24.4436508 C25.0294373,23.8578644 25.9791847,23.8578644 26.5649712,24.4436508 L40,37.8786797 L53.4350288,24.4436508 C54.0208153,23.8578644 54.9705627,23.8578644 55.5563492,24.4436508 C56.1421356,25.0294373 56.1421356,25.9791847 55.5563492,26.5649712 L42.1213203,40 Z" id="Combined-Shape" fill="#EF4829"></path>
    </g>
</svg>