<?xml version="1.0" encoding="UTF-8"?>
<svg xmlns:xlink="http://www.w3.org/1999/xlink" width="24px" height="24px" viewBox="0 0 24 24" version="1.1"
     xmlns="http://www.w3.org/2000/svg">
    <!-- Generator: Sketch 48 (47235) - http://www.bohemiancoding.com/sketch -->
    <title>cog</title>
    <desc>Created with Sketch.</desc>
    <defs></defs>
    <g id="wallet_assets" stroke="none" stroke-width="1" fill="none" fill-rule="evenodd"
       transform="translate(-23.000000, -751.000000)">
        <g id="cog" transform="translate(23.000000, 751.000000)" fill="#4E5C6E" fill-rule="nonzero">
            <path d="M23.30448,10.130112 L21.3312,9.564864 C21.1777496,9.51996272 21.0577121,9.40003373 21.012672,9.246624 C20.8369718,8.66685219 20.6054895,8.10547544 20.321472,7.570368 C20.2455092,7.43034811 20.2460519,7.26128934 20.322912,7.12176 L21.313632,5.3376 C21.5215808,4.96296819 21.456086,4.49588662 21.15312,4.192896 L19.807296,2.846688 C19.5044112,2.54348052 19.0371199,2.47803467 18.662592,2.686368 L16.877376,3.6768 C16.809064,3.71452891 16.7323104,3.73434482 16.654272,3.7344 C16.5756037,3.73414695 16.4981894,3.7146698 16.428768,3.677664 C15.8939652,3.39342471 15.3327575,3.16193257 14.753088,2.986464 C14.5999618,2.94122093 14.4802404,2.82139105 14.435136,2.668224 L13.869888,0.695616 C13.7519179,0.28382148 13.3753993,1.27329966e-05 12.94704,0 L11.05296,0 C10.6246007,1.27329966e-05 10.2480822,0.28382148 10.130112,0.695616 L9.56486401,2.668128 C9.51978981,2.82161858 9.3997994,2.94168132 9.24633601,2.986848 C8.66686057,3.16242878 8.10582287,3.39391711 7.57113601,3.678048 C7.50177898,3.71504171 7.42442975,3.73451908 7.34582401,3.734784 C7.26768911,3.73476911 7.1908325,3.71495219 7.12243201,3.677184 L5.33760002,2.686368 C4.96307206,2.47803467 4.49578081,2.54348052 4.19289602,2.846688 L2.84697602,4.192512 C2.54379204,4.49554307 2.4782478,4.96285432 2.68636802,5.3376 L3.67680002,7.122624 C3.75366728,7.26239134 3.75392065,7.43171525 3.67747202,7.571712 C3.3933179,8.10625437 3.16182811,8.667167 2.98627202,9.246528 C2.9412455,9.39997989 2.8211541,9.51992656 2.66764802,9.564768 L0.695424024,10.130112 C0.283637196,10.2481726 -9.74673729e-05,10.6247752 2.51162983e-08,11.053152 L2.51162983e-08,12.946944 C-3.00800681e-05,13.3753389 0.283787296,13.7519081 0.695616024,13.869888 L2.66832002,14.435232 C2.82189302,14.4799262 2.94201496,14.5999395 2.98684802,14.753472 C3.16259932,15.3332256 3.39407962,15.8945975 3.67804802,16.429728 C3.75394316,16.5695948 3.75340048,16.7384799 3.67660802,16.877856 L2.68636802,18.6624 C2.47866398,19.0369153 2.54414647,19.503713 2.84688002,19.806624 L4.19270402,21.152448 C4.4956251,21.4555098 4.96271409,21.5211232 5.33740802,21.313248 L7.12243201,20.3232 C7.1908325,20.2854318 7.26768911,20.2656149 7.34582401,20.2656 C7.42442975,20.2658649 7.50177898,20.2853423 7.57113601,20.322336 C8.10581356,20.6064867 8.66685322,20.8379758 9.24633601,21.013536 C9.3997994,21.0587027 9.51978981,21.1787654 9.56486401,21.332256 L10.130304,23.304768 C10.2484159,23.7164103 10.6249,24.0000364 11.053152,24 L12.946944,24 C13.3753033,23.9999873 13.7518219,23.7161785 13.869792,23.304384 L14.434944,21.331872 C14.47985,21.1784851 14.5997971,21.058538 14.753184,21.013632 C15.3328187,20.8379795 15.8940407,20.6064947 16.42896,20.322432 C16.4982771,20.2854242 16.5755988,20.2659455 16.654176,20.265696 C16.7323354,20.2655166 16.80924,20.2853459 16.877568,20.323296 L18.6624,21.313632 C19.0370706,21.5214582 19.5041028,21.4558473 19.807008,21.152832 L21.152928,19.807008 C21.4556615,19.504097 21.521144,19.0372993 21.31344,18.662784 L20.3232,16.877184 C20.2463644,16.7376052 20.2460024,16.5684824 20.32224,16.428576 C20.6063011,15.893656 20.8377858,15.3324341 21.01344,14.7528 C21.0587511,14.5995172 21.1787267,14.4796862 21.332064,14.43456 L23.30448,13.869696 C23.7162364,13.7516904 23.9999995,13.3751805 24,12.946848 L24,11.053152 C24.0000852,10.6247484 23.7163049,10.2481372 23.30448,10.130112 Z M23.04,12.946848 L21.067488,13.512192 C20.600778,13.6461628 20.2343485,14.0084682 20.095104,14.473632 C19.9373839,14.9938686 19.7296962,15.4976238 19.474944,15.977856 C19.2454267,16.4049037 19.2487903,16.9193499 19.483872,17.34336 L20.474208,19.128384 L19.128288,20.474208 L17.343264,19.483776 C17.1323494,19.3670325 16.8952444,19.3057578 16.654176,19.305696 C16.4182847,19.3061791 16.1860824,19.3642791 15.97776,19.474944 C15.4977227,19.7299689 14.9940042,19.9376679 14.473728,20.095104 C14.0084488,20.2343947 13.6460666,20.6009372 13.512096,21.067776 L12.946848,23.04 L11.053152,23.04 L10.487616,21.067008 C10.3534587,20.6001092 9.99091059,20.2335819 9.52550401,20.094336 C9.00547012,19.9370285 8.50197756,19.7294906 8.02214401,19.474656 C7.81386296,19.3639734 7.58168714,19.3058718 7.34582401,19.305408 C7.10467971,19.3053511 6.86750661,19.3668086 6.65673601,19.483968 L4.87161602,20.474016 L3.52579202,19.128288 L4.51603202,17.343264 C4.75052272,16.919979 4.754138,16.4066095 4.52563202,15.980064 C4.27090947,15.4996509 4.06322361,14.9957394 3.90547202,14.47536 C3.76669127,14.0095337 3.40001998,13.6465899 2.93280002,13.512576 L0.960000023,12.946848 L0.960000023,11.053152 L2.93222402,10.487808 C3.39902581,10.3538898 3.76556527,9.99158295 3.90489602,9.526368 C4.06242561,9.00642963 4.26998838,8.50298703 4.52467202,8.023104 C4.75477559,7.59608558 4.75162801,7.08129277 4.51632002,6.65712 L3.52560002,4.87152 L4.87171202,3.525984 L6.65644801,4.515936 C6.86738586,4.63285071 7.10455632,4.69429042 7.34572801,4.694496 C7.58159114,4.69403223 7.81376696,4.6359306 8.02204801,4.525248 C8.50195989,4.2704534 9.00543268,4.06276283 9.52540801,3.905088 C9.99091795,3.76598084 10.3535519,3.39940328 10.487616,2.932416 L11.05296,0.96 L12.946944,0.96 L13.512096,2.932512 C13.6460548,3.39912061 14.0082818,3.76547157 14.473344,3.904704 C14.9934836,4.06235031 15.4971184,4.27004139 15.977184,4.524864 C16.1855593,4.63589611 16.4179694,4.6941717 16.65408,4.694592 C16.8951223,4.69456432 17.1322047,4.63328693 17.343072,4.516512 L19.128672,3.52608 L20.474496,4.871904 L19.484064,6.656256 C19.2493129,7.07978048 19.2456972,7.59353337 19.474464,8.02032 C19.7291994,8.50073893 19.9369167,9.00464854 20.09472,9.525024 C20.2336752,9.99074568 20.6002748,10.3536186 21.067392,10.487808 L23.04,11.053152 L23.04,12.946848 Z"
                  id="Shape"></path>
            <path d="M12,6.72 C9.08393652,6.72 6.72,9.08393652 6.72,12 C6.72,14.9160635 9.08393652,17.28 12,17.28 C14.9160635,17.28 17.28,14.9160635 17.28,12 C17.2767199,9.08529627 14.9147037,6.72328012 12,6.72 Z M12,16.32 C9.61412988,16.32 7.68,14.3858701 7.68,12 C7.68,9.61412988 9.61412988,7.68 12,7.68 C14.3858701,7.68 16.32,9.61412988 16.32,12 C16.32,13.1457352 15.8648584,14.2445441 15.0547013,15.0547013 C14.2445441,15.8648584 13.1457352,16.32 12,16.32 Z"
                  id="Shape"></path>
        </g>
    </g>
</svg>