<svg xmlns="http://www.w3.org/2000/svg" width="80" height="80" viewBox="0 0 80 80">
    <g fill="none" fill-rule="evenodd">
        <path fill="none" d="M0 0h80v80H0z"/>
        <path fill="#EF4829" d="M40 12.8c-7.952 0-14.399 6.447-14.399 14.4s6.447 14.4 14.4 14.4c7.952 0 14.4-6.447 14.4-14.4S47.952 12.8 40 12.8zm0 25.6c-6.185 0-11.199-5.014-11.199-11.2 0-6.185 5.014-11.2 11.2-11.2 6.185 0 11.2 5.015 11.2 11.2-.008 6.183-5.018 11.193-11.2 11.2H40zM40 0a39.96 39.96 0 0 1 37.286 54.432A16.416 16.416 0 0 1 80 63.5C80 72.613 72.613 80 63.5 80c-3.346 0-6.46-.996-9.06-2.708-12.632 4.919-27.22 3.138-38.435-5.344C2.231 61.627-3.389 43.647 2.057 27.319 7.503 10.991 22.79-.016 40 0zm0 47.999c-11.76 0-21.783 8.537-23.656 20.149a36.616 36.616 0 0 0 23.104 8.648L40 76.8c3.97.002 7.883-.641 11.593-1.877A16.446 16.446 0 0 1 47 63.5c0-4.785 2.037-9.095 5.291-12.109A23.88 23.88 0 0 0 40 48zM14.108 13.795C-.233 27.997-.459 51.101 13.602 65.581 16.546 53.387 27.458 44.797 40 44.797a27.1 27.1 0 0 1 15.032 4.54A16.417 16.417 0 0 1 63.5 47c4.43 0 8.452 1.746 11.416 4.587 4.282-12.87 1.253-27.616-9.022-37.792-14.341-14.203-37.446-14.203-51.786 0zM63.5 77C70.956 77 77 70.956 77 63.5S70.956 50 63.5 50 50 56.044 50 63.5 56.044 77 63.5 77zm2.115-13.5l4.23 4.23a1.496 1.496 0 1 1-2.114 2.115l-4.231-4.23-4.23 4.23a1.496 1.496 0 1 1-2.115-2.114l4.23-4.231-4.23-4.23a1.496 1.496 0 1 1 2.114-2.115l4.231 4.23 4.23-4.23a1.496 1.496 0 1 1 2.115 2.114l-4.23 4.231z"/>
    </g>
</svg>
