<svg xmlns="http://www.w3.org/2000/svg" width="16" height="16" viewBox="0 0 16 16">
    <path fill="#4E5C6E" fill-rule="nonzero" d="M12 6.524h-.35V4.65C11.65 2.65 10.023 1 8 1a3.654 3.654 0 0 0-3.65 3.65v1.874H4c-.55 0-1 .45-1 1.025v6.4c0 .575.45 1.025 1 1.025h8c.55 0 .999-.45.999-1.025V7.574a.999.999 0 0 0-1-1.05zM5.6 4.65a2.4 2.4 0 0 1 4.8 0v1.874H5.6V4.65zm3.15 6.774v.95c0 .4-.326.75-.75.75-.4 0-.75-.325-.75-.75v-.95c-.45-.25-.75-.725-.75-1.275 0-.825.675-1.475 1.475-1.475.824 0 1.474.675 1.474 1.475a1.409 1.409 0 0 1-.7 1.275z"/>
</svg>
