<?xml version="1.0" encoding="UTF-8"?>
<svg width="14px" height="14px" viewBox="0 0 14 14" version="1.1" xmlns="http://www.w3.org/2000/svg" xmlns:xlink="http://www.w3.org/1999/xlink">
    <!-- Generator: Sketch 50.2 (55047) - http://www.bohemiancoding.com/sketch -->
    <title>Icon/search-DEX-14-basic500</title>
    <desc>Created with Sketch.</desc>
    <defs></defs>
    <g id="Icon/search-DEX-14-basic500" stroke="none" stroke-width="1" fill="none" fill-rule="evenodd">
        <rect id="ico-zone" fill-opacity="0" fill="#D8D8D8" x="0" y="0" width="14" height="14"></rect>
        <path d="M8.53302005,8.53302005 L8.53302005,8.53302005 C8.69544991,8.3705902 8.95880073,8.3705902 9.12123058,8.53302005 L11.768178,11.1799674 C11.9306078,11.3423973 11.9306078,11.6057481 11.768178,11.768178 L11.768178,11.768178 C11.6057481,11.9306078 11.3423973,11.9306078 11.1799674,11.768178 L8.53302005,9.12123058 C8.3705902,8.95880073 8.3705902,8.69544991 8.53302005,8.53302005 Z M6.15927653,10.3185531 C3.86217153,10.3185531 2,8.45638152 2,6.15927653 C2,3.86217153 3.86217153,2 6.15927653,2 C8.45638152,2 10.3185531,3.86217153 10.3185531,6.15927653 C10.3185531,8.45638152 8.45638152,10.3185531 6.15927653,10.3185531 Z M6.15927653,9.48669775 C7.99696052,9.48669775 9.48669775,7.99696052 9.48669775,6.15927653 C9.48669775,4.32159253 7.99696052,2.83185531 6.15927653,2.83185531 C4.32159253,2.83185531 2.83185531,4.32159253 2.83185531,6.15927653 C2.83185531,7.99696052 4.32159253,9.48669775 6.15927653,9.48669775 Z" id="search-icon" fill="#9BA6B2" fill-rule="nonzero"></path>
    </g>
</svg>