<svg xmlns="http://www.w3.org/2000/svg" width="14" height="14" viewBox="0 0 14 14">
    <g fill="none" fill-rule="evenodd">
        <path fill="#D8D8D8" fill-opacity="0" d="M0 0h14v14H0z"/>
        <path fill="#9BA6B2" fill-rule="nonzero" d="M6.196 6.664A.5.5 0 0 1 6.325 7V12.7l1.294-.628V7a.5.5 0 0 1 .131-.338L12.94 1H1.066l5.13 5.664zM.184 1.517l-.099-.165a1.398 1.398 0 0 1-.044-.15 1.38 1.38 0 0 1-.04-.384C.022.356.331 0 .865 0h12.214c.54 0 .874.334.916.795a1.291 1.291 0 0 1-.074.557l-.101.167-5.201 5.675v5.253c0 .34-.258.506-.512.5L6.043 13.95a.5.5 0 0 1-.718-.45V7.193L.185 1.517z"/>
    </g>
</svg>
