<svg xmlns="http://www.w3.org/2000/svg" width="18" height="18" viewBox="0 0 18 18">
    <g fill="none" fill-rule="evenodd">
        <path fill="#D8D8D8" fill-opacity="0" d="M0 0h18v18H0z"/>
        <path fill="#F89300" fill-rule="nonzero" d="M10.132 3.172a1.25 1.25 0 0 0-2.236 0L2.632 13.699a1.25 1.25 0 0 0 1.118 1.81h10.528a1.25 1.25 0 0 0 1.118-1.81L10.132 3.172zm1.342-.671l5.264 10.528a2.75 2.75 0 0 1-2.46 3.98H3.75a2.75 2.75 0 0 1-2.46-3.98L6.554 2.5a2.75 2.75 0 0 1 4.92 0zm-2.41 2.757a.75.75 0 0 1 .75.75v4a.75.75 0 0 1-1.5 0v-4a.75.75 0 0 1 .75-.75zm0 6.5a.75.75 0 0 1 .75.75v.5a.75.75 0 0 1-1.5 0v-.5a.75.75 0 0 1 .75-.75z"/>
    </g>
</svg>
