<svg xmlns="http://www.w3.org/2000/svg" width="40" height="40" viewBox="0 0 40 40">
    <defs>
        <linearGradient id="a" x1="68.857%" x2="68.857%" y1="100%" y2="0%">
            <stop offset="0%" stop-color="#EAF3FF"/>
            <stop offset="100%" stop-color="#DEE7FF"/>
        </linearGradient>
        <linearGradient id="b" x1="50%" x2="50%" y1="0%" y2="100%">
            <stop offset="0%" stop-color="#1F5AF6"/>
            <stop offset="100%" stop-color="#477AFF"/>
        </linearGradient>
    </defs>
    <g fill="none" fill-rule="evenodd">
        <path fill="url(#a)" fill-rule="nonzero" d="M6.5 2.5h20.75l7.25 7.083V36.5a1 1 0 0 1-1 1h-27a1 1 0 0 1-1-1v-33a1 1 0 0 1 1-1z"/>
        <path fill="url(#b)" d="M21.72 15.03a.8.8 0 0 1 .572.883l-.023.107-3 10.5a.8.8 0 0 1-1.561-.333l.023-.107 3-10.5a.8.8 0 0 1 .989-.55zm3.256.877l.09.077 4.5 4.5a.8.8 0 0 1 .077 1.042l-.077.09-4.5 4.5a.8.8 0 0 1-1.21-1.042l.078-.09 3.935-3.934-3.935-3.934a.8.8 0 0 1 1.042-1.21zm-10.042.077a.8.8 0 0 1 1.132 1.132L12.13 21.05l3.935 3.934a.8.8 0 1 1-1.132 1.132l-4.5-4.5a.8.8 0 0 1 0-1.132z"/>
        <path fill="#F6FAFF" fill-rule="nonzero" d="M34.5 9.083h-6.25a1 1 0 0 1-1-1V2l7.25 7.083z"/>
    </g>
</svg>
