<?xml version="1.0" encoding="UTF-8"?>
<svg width="14px" height="14px" viewBox="0 0 14 14" version="1.1" xmlns="http://www.w3.org/2000/svg" xmlns:xlink="http://www.w3.org/1999/xlink">
    <!-- Generator: Sketch 55.1 (78136) - https://sketchapp.com -->
    <title>info</title>
    <desc>Created with Sketch.</desc>
    <g id="info" stroke="none" stroke-width="1" fill="none" fill-rule="evenodd">
        <path d="M6.2,4.15633523 C6.2,3.93373661 6.26743745,3.74199233 6.40171634,3.5877577 C6.54069558,3.42812419 6.74227041,3.35 6.99694138,3.35 C7.25129437,3.35 7.45352906,3.42790201 7.59443941,3.58686341 C7.73120371,3.74114765 7.8,3.93326251 7.8,4.15633523 C7.8,4.38000726 7.73078578,4.57072916 7.59296254,4.72111032 C7.45199518,4.87492209 7.25048499,4.95 6.99694138,4.95 C6.74307879,4.95 6.54223046,4.87470959 6.4031769,4.72022739 C6.26784536,4.5698802 6.2,4.37953113 6.2,4.15633523 Z M7,5.65 C7.38659932,5.65 7.7,5.96340068 7.7,6.35 L7.7,9.95 C7.7,10.3365993 7.38659932,10.65 7,10.65 C6.61340068,10.65 6.3,10.3365993 6.3,9.95 L6.3,6.35 C6.3,5.96340068 6.61340068,5.65 7,5.65 Z" id="Combined-Shape" fill="#FFFFFF" fill-rule="nonzero"></path>
    </g>
</svg>