<svg xmlns="http://www.w3.org/2000/svg" width="15" height="10" viewBox="0 0 15 10">
  <path fill="#C5D9E8" fill-rule="evenodd" d="M227.5,10 C224.090909,10 221.179545,12.0733333 220,15 C221.179545,17.9266667 224.090909,20 227.5,20 C230.909091,20 233.820455,17.9266667 235,15 C233.820455,12.0733333 230.909091,10 227.5,10 L227.5,10 Z M227.5,18.3333333 C225.618182,18.3333333 224.090909,16.84 224.090909,15 C224.090909,13.16 225.618182,11.6666667 227.5,11.6666667 C229.381818,11.6666667 230.909091,13.16 230.909091,15 C230.909091,16.84 229.381818,18.3333333 227.5,18.3333333 L227.5,18.3333333 Z M227.5,13 C226.368182,13 225.454545,13.8933333 225.454545,15 C225.454545,16.1066667 226.368182,17 227.5,17 C228.631818,17 229.545455,16.1066667 229.545455,15 C229.545455,13.8933333 228.631818,13 227.5,13 L227.5,13 Z" transform="translate(-220 -10)"/>
</svg>
