<?xml version="1.0" encoding="UTF-8"?>
<svg width="80px" height="80px" viewBox="0 0 80 80" version="1.1" xmlns="http://www.w3.org/2000/svg" xmlns:xlink="http://www.w3.org/1999/xlink">
    <!-- Generator: Sketch 52.3 (67297) - http://www.bohemiancoding.com/sketch -->
    <title>Icon/Asset Logo/keeperlogo-80</title>
    <desc>Created with Sketch.</desc>
    <defs>
        <linearGradient x1="50%" y1="50%" x2="2.20375723%" y2="97.7962428%" id="linearGradient-1">
            <stop stop-color="#0055FF" offset="0%"></stop>
            <stop stop-color="#0055FF" stop-opacity="0.8" offset="100%"></stop>
        </linearGradient>
        <polygon id="path-2" points="21.875 21.875 58.125 21.875 58.125 58.125 21.875 58.125"></polygon>
        <filter x="-62.1%" y="-95.2%" width="257.2%" height="257.2%" filterUnits="objectBoundingBox" id="filter-3">
            <feOffset dx="6" dy="-6" in="SourceAlpha" result="shadowOffsetOuter1"></feOffset>
            <feGaussianBlur stdDeviation="8.5" in="shadowOffsetOuter1" result="shadowBlurOuter1"></feGaussianBlur>
            <feColorMatrix values="0 0 0 0 0   0 0 0 0 0   0 0 0 0 0  0 0 0 0.2 0" type="matrix" in="shadowBlurOuter1"></feColorMatrix>
        </filter>
    </defs>
    <g id="Icon/Asset-Logo/keeperlogo-80" stroke="none" stroke-width="1" fill="none" fill-rule="evenodd">
        <rect id="ico-zone" fill-opacity="0" fill="#D8D8D8" fill-rule="nonzero" x="0" y="0" width="80" height="80"></rect>
        <path d="M23.4412361,2.60565968e-15 L56.5587639,9.47053996e-16 C64.7097924,-5.50265645e-16 67.6655523,0.848691302 70.6454464,2.44235615 C73.6253406,4.036021 75.963979,6.37465939 77.5576439,9.35455357 C79.1513087,12.3344477 80,15.2902076 80,23.4412361 L80,56.5587639 C80,64.7097924 79.1513087,67.6655523 77.5576439,70.6454464 C75.963979,73.6253406 73.6253406,75.963979 70.6454464,77.5576439 C67.6655523,79.1513087 64.7097924,80 56.5587639,80 L23.4412361,80 C15.2902076,80 12.3344477,79.1513087 9.35455357,77.5576439 C6.37465939,75.963979 4.036021,73.6253406 2.44235615,70.6454464 C0.848691302,67.6655523 3.91955744e-15,64.7097924 2.92134435e-15,56.5587639 L6.3136933e-16,23.4412361 C-3.66843763e-16,15.2902076 0.848691302,12.3344477 2.44235615,9.35455357 C4.036021,6.37465939 6.37465939,4.036021 9.35455357,2.44235615 C12.3344477,0.848691302 15.2902076,4.10297932e-15 23.4412361,2.60565968e-15 Z" id="white-block" fill="#F8F9FB"></path>
        <g id="waves-logo" fill-rule="nonzero" transform="translate(40.000000, 40.000000) rotate(135.000000) translate(-40.000000, -40.000000) ">
            <use fill="black" fill-opacity="1" filter="url(#filter-3)" xlink:href="#path-2"></use>
            <use fill="url(#linearGradient-1)" xlink:href="#path-2"></use>
        </g>
    </g>
</svg>