<svg xmlns="http://www.w3.org/2000/svg" width="10" height="10" viewBox="0 0 10 10">
    <path fill="#263241" fill-rule="evenodd" d="M8.548 4.31a.944.944 0 0 0-.572.194V2.786a.762.762 0 0 0-.762-.762H5.496a.944.944 0 0 0 .194-.572.952.952 0 1 0-1.904 0c0 .216.074.412.194.572H2.262a.762.762 0 0 0-.762.762v1.718a.944.944 0 0 1 .571-.194.952.952 0 1 1 0 1.904.944.944 0 0 1-.571-.194v1.718c0 .42.341.762.762.762H3.98a.944.944 0 0 1-.194-.571.952.952 0 1 1 1.904 0 .944.944 0 0 1-.194.571h1.718c.421 0 .762-.341.762-.762V6.02a.952.952 0 1 0 .571-1.71z"/>
</svg>
