<svg xmlns="http://www.w3.org/2000/svg" width="80" height="80" viewBox="0 0 80 80">
    <path fill="#5A81EA" fill-rule="evenodd" d="M45.757 0L65.75 19.998v26.604c7.205 1.972 12.5 8.567 12.5 16.398 0 9.389-7.611 17-17 17-.319 0-.635-.009-.95-.025l-.273.019-.277.006h-52a6 6 0 0 1-5.996-5.775L1.75 74V6A6 6 0 0 1 7.525.004L7.75 0h38.007zm-2.015 3H7.75a3 3 0 0 0-2.995 2.824L4.75 6v68a3 3 0 0 0 2.824 2.995L7.75 77h43.854c-4.442-3.066-7.354-8.193-7.354-14 0-9.389 7.611-17 17-17 .337 0 .671.01 1.003.03l.496.035L62.75 23 49.742 23a6 6 0 0 1-5.995-5.775L43.742 17V3zM61.25 49c-7.732 0-14 6.268-14 14s6.268 14 14 14 14-6.268 14-14-6.268-14-14-14zm0 6.5a1.513 1.513 0 0 1 .86.27 1.624 1.624 0 0 1 .087.066l.016.014c.026.022.052.045.078.07l.02.02 5 5a1.5 1.5 0 0 1-2.008 2.224l-.114-.103-2.439-2.44V70a1.5 1.5 0 0 1-1.356 1.493l-.144.007a1.5 1.5 0 0 1-1.5-1.5v-9.379l-2.44 2.44a1.5 1.5 0 0 1-2.224-2.008l.103-.114 5-5 .02-.02.078-.07-.098.09a1.516 1.516 0 0 1 .734-.403 1.577 1.577 0 0 1 .327-.036zm-44.5 1a4.5 4.5 0 1 1 0 9 4.5 4.5 0 0 1 0-9zm22.5 3a1.5 1.5 0 0 1 0 3h-13a1.5 1.5 0 0 1 0-3h13zm-22.5 0a1.5 1.5 0 1 0 0 3 1.5 1.5 0 0 0 0-3zm0-17a4.5 4.5 0 1 1 0 9 4.5 4.5 0 0 1 0-9zm32.5 3a1.5 1.5 0 0 1 0 3h-23a1.5 1.5 0 0 1 0-3h23zm-32.5 0a1.5 1.5 0 1 0 0 3 1.5 1.5 0 0 0 0-3zm0-17a4.5 4.5 0 1 1 0 9 4.5 4.5 0 0 1 0-9zm32.5 3a1.5 1.5 0 0 1 0 3h-23a1.5 1.5 0 0 1 0-3h23zm-32.5 0a1.5 1.5 0 1 0 0 3 1.5 1.5 0 0 0 0-3zm0-17a4.5 4.5 0 1 1 0 9 4.5 4.5 0 0 1 0-9zm22.5 3a1.5 1.5 0 0 1 0 3h-13a1.5 1.5 0 0 1 0-3h13zm-22.5 0a1.5 1.5 0 1 0 0 3 1.5 1.5 0 0 0 0-3zM46.742 5.228V17a3 3 0 0 0 2.824 2.995l.176.005 11.726-.042-14.726-14.73z"/>
</svg>
