<svg xmlns="http://www.w3.org/2000/svg" width="24" height="24" viewBox="0 0 24 24">
    <defs>
        <linearGradient id="a" x1="42.824%" x2="-41.088%" y1="43.922%" y2="-27.507%">
            <stop offset="0%" stop-color="#CAD9FF"/>
            <stop offset="100%" stop-color="#DFE8FF"/>
        </linearGradient>
        <linearGradient id="b" x1="48.206%" x2="27.228%" y1="43.922%" y2="-27.507%">
            <stop offset="0%" stop-color="#DFE8FF"/>
            <stop offset="100%" stop-color="#CAD9FF"/>
        </linearGradient>
        <linearGradient id="c" x1="50%" x2="50%" y1="354%" y2="750%">
            <stop offset="0%" stop-color="#CAD9FF"/>
            <stop offset="56%" stop-color="#202F65"/>
            <stop offset="100%" stop-color="#021E2F"/>
        </linearGradient>
    </defs>
    <g fill="none" fill-rule="nonzero" transform="translate(3)">
        <path fill="url(#a)" d="M16.5 18h-15V7.5a7.5 7.5 0 0 1 15 0V18zm-12-3h9V7.5a4.5 4.5 0 0 0-9 0V15z"/>
        <path fill="url(#b)" d="M9 18H1.5V7.5A7.5 7.5 0 0 1 9 0v18zm-4.5-3H9V3h-.023A4.5 4.5 0 0 0 4.5 7.5V15z"/>
        <rect width="18" height="13.5" y="10.5" fill="#EEF5FE" rx="2.19"/>
        <path fill="url(#c)" d="M2.19 10.5A2.18 2.18 0 0 0 .12 12h17.76a2.18 2.18 0 0 0-2.07-1.5H2.19z"/>
        <path fill="#1F5AF6" d="M11.16 17.16a2.16 2.16 0 0 0-4.26-.52 2.14 2.14 0 0 0 .42 1.87c.161.209.246.466.24.73v.32A1.44 1.44 0 0 0 9 21a1.44 1.44 0 0 0 1.44-1.44v-.32a1.18 1.18 0 0 1 .25-.74 2.13 2.13 0 0 0 .47-1.34z"/>
        <path fill="#2A65FF" d="M11 17.92a2.16 2.16 0 0 0-2.59-1.35A2.13 2.13 0 0 0 7 17.91c.077.216.189.419.33.6.161.209.246.466.24.73v.32a1.44 1.44 0 0 0 2.88 0v-.32a1.18 1.18 0 0 1 .25-.74 2.16 2.16 0 0 0 .3-.58z"/>
    </g>
</svg>
