<svg xmlns="http://www.w3.org/2000/svg" width="40" height="40" viewBox="0 0 40 40">
    <g fill="none" fill-rule="evenodd">
        <path fill="#DAE1E9" fill-rule="nonzero" d="M20 14c-7.18 0-13 5.82-13 13s5.82 13 13 13 13-5.82 13-13-5.82-13-13-13zm0 2c6.075 0 11 4.925 11 11s-4.925 11-11 11S9 33.075 9 27s4.925-11 11-11z"/>
        <path fill="#DAE1E9" fill-rule="nonzero" d="M18.506 2c-3.283 0-6.057 3.413-6.17 7.77l-.003.273v8.29h-2v-8.29c0-5.406 3.476-9.883 7.933-10.039l.24-.004h2.988c4.491 0 8.046 4.383 8.17 9.755l.003.288v8.29h-2v-8.29c0-4.395-2.707-7.897-5.968-8.039L21.494 2h-2.988z"/>
        <path fill="#5A81EA" fill-rule="nonzero" d="M20 19.5a7.5 7.5 0 1 0 0 15 7.5 7.5 0 0 0 0-15zm0 2a5.5 5.5 0 1 1 0 11 5.5 5.5 0 0 1 0-11z"/>
        <path fill="#5A81EA" fill-rule="nonzero" d="M20 24a2.25 2.25 0 0 1 .75 4.372v.828a.75.75 0 1 1-1.5 0v-.828A2.25 2.25 0 0 1 20 24zm0 1.5a.75.75 0 1 0 0 1.5.75.75 0 0 0 0-1.5z"/>
        <path fill="#DAE1E9" d="M20 35.25a.75.75 0 0 1 .75.75v.5a.75.75 0 1 1-1.5 0V36a.75.75 0 0 1 .75-.75zm-6.32-2.947a.75.75 0 0 1-.092 1.057l-.383.321a.75.75 0 1 1-.965-1.15l.384-.32a.75.75 0 0 1 1.056.092zm13.696-.092l.384.32a.75.75 0 1 1-.965 1.15l-.383-.321a.75.75 0 1 1 .964-1.15zM11 26.25a.75.75 0 0 1 0 1.5h-.5a.75.75 0 1 1 0-1.5h.5zm18.5 0a.75.75 0 1 1 0 1.5H29a.75.75 0 1 1 0-1.5h.5zm-1.648-5.839a.75.75 0 0 1-.092 1.057l-.384.321a.75.75 0 1 1-.964-1.149l.383-.321a.75.75 0 0 1 1.057.092zm-14.647-.092l.383.321a.75.75 0 1 1-.964 1.15l-.384-.322a.75.75 0 0 1 .965-1.149zM20 16.75a.75.75 0 0 1 .75.75v.5a.75.75 0 1 1-1.5 0v-.5a.75.75 0 0 1 .75-.75z"/>
    </g>
</svg>
