<?xml version="1.0" encoding="UTF-8"?>
<svg width="40px" height="40px" viewBox="0 0 40 40" version="1.1" xmlns="http://www.w3.org/2000/svg" xmlns:xlink="http://www.w3.org/1999/xlink">
    <!-- Generator: Sketch 60 (88103) - https://sketch.com -->
    <title>Icon/Lock-40-Disabled700</title>
    <desc>Created with Sketch.</desc>
    <g id="Icon/Lock-40-Disabled700" stroke="none" stroke-width="1" fill="none" fill-rule="evenodd">
        <path d="M20,14 C12.8202983,14 7,19.8202983 7,27 C7,34.1797017 12.8202983,40 20,40 C27.1797017,40 33,34.1797017 33,27 C33,19.8202983 27.1797017,14 20,14 Z M20,16 C26.0751322,16 31,20.9248678 31,27 C31,33.0751322 26.0751322,38 20,38 C13.9248678,38 9,33.0751322 9,27 C9,20.9248678 13.9248678,16 20,16 Z" id="Oval-3" fill="#777777" fill-rule="nonzero"></path>
        <path d="M18.5057471,2 C15.2227448,2 12.4486977,5.41323327 12.3368387,9.76997567 L12.3333333,10.0434783 L12.3333333,18.3333333 L10.3333333,18.3333333 L10.3333333,10.0434783 C10.3333333,4.63741043 13.8094599,0.159624903 18.2660761,0.0041735391 L18.5057471,0 L21.4942529,0 C25.9850907,0 29.5400039,4.38294223 29.6633555,9.75477484 L29.6666667,10.0434783 L29.6666667,18.3329654 L27.6666667,18.3329654 L27.6666667,10.0434783 C27.6666667,5.64849491 24.9596196,2.14556811 21.6987583,2.00442198 L21.4942529,2 L18.5057471,2 Z" id="Rectangle-3" fill="#777777" fill-rule="nonzero"></path>
        <path d="M20,19.5 C15.8578644,19.5 12.5,22.8578644 12.5,27 C12.5,31.1421356 15.8578644,34.5 20,34.5 C24.1421356,34.5 27.5,31.1421356 27.5,27 C27.5,22.8578644 24.1421356,19.5 20,19.5 Z M20,21.5 C23.0375661,21.5 25.5,23.9624339 25.5,27 C25.5,30.0375661 23.0375661,32.5 20,32.5 C16.9624339,32.5 14.5,30.0375661 14.5,27 C14.5,23.9624339 16.9624339,21.5 20,21.5 Z" id="Oval-3" fill="#5A81EA" fill-rule="nonzero"></path>
        <path d="M20,24 C21.2426407,24 22.25,25.0073593 22.25,26.25 C22.25,27.2295694 21.6240154,28.0629322 20.7502535,28.3718811 L20.75,29.2 C20.75,29.6142136 20.4142136,29.95 20,29.95 C19.5857864,29.95 19.25,29.6142136 19.25,29.2 L19.2507654,28.3722411 C18.3764713,28.06358 17.75,27.2299501 17.75,26.25 C17.75,25.0073593 18.7573593,24 20,24 Z M20,25.5 C19.5857864,25.5 19.25,25.8357864 19.25,26.25 C19.25,26.6642136 19.5857864,27 20,27 C20.4142136,27 20.75,26.6642136 20.75,26.25 C20.75,25.8357864 20.4142136,25.5 20,25.5 Z" id="Combined-Shape" fill="#5A81EA" fill-rule="nonzero"></path>
        <path d="M20,35.25 C20.4142136,35.25 20.75,35.5857864 20.75,36 L20.75,36.5 C20.75,36.9142136 20.4142136,37.25 20,37.25 C19.5857864,37.25 19.25,36.9142136 19.25,36.5 L19.25,36 C19.25,35.5857864 19.5857864,35.25 20,35.25 Z M13.6801333,32.3029978 C13.9463847,32.6203038 13.9049967,33.0933705 13.5876907,33.3596218 L13.2046685,33.6810156 C12.8873625,33.947267 12.4142958,33.905879 12.1480445,33.588573 C11.8817931,33.271267 11.9231811,32.7982003 12.2404871,32.531949 L12.6235093,32.2105552 C12.9408153,31.9443038 13.413882,31.9856918 13.6801333,32.3029978 Z M27.3764907,32.2105552 L27.7595129,32.531949 C28.0768189,32.7982003 28.1182069,33.271267 27.8519555,33.588573 C27.5857042,33.905879 27.1126375,33.947267 26.7953315,33.6810156 L26.4123093,33.3596218 C26.0950033,33.0933705 26.0536153,32.6203038 26.3198667,32.3029978 C26.586118,31.9856918 27.0591847,31.9443038 27.3764907,32.2105552 Z M11,26.25 C11.4142136,26.25 11.75,26.5857864 11.75,27 C11.75,27.4142136 11.4142136,27.75 11,27.75 L10.5,27.75 C10.0857864,27.75 9.75,27.4142136 9.75,27 C9.75,26.5857864 10.0857864,26.25 10.5,26.25 L11,26.25 Z M29.5,26.25 C29.9142136,26.25 30.25,26.5857864 30.25,27 C30.25,27.4142136 29.9142136,27.75 29.5,27.75 L29,27.75 C28.5857864,27.75 28.25,27.4142136 28.25,27 C28.25,26.5857864 28.5857864,26.25 29,26.25 L29.5,26.25 Z M27.8519555,20.411427 C28.1182069,20.728733 28.0768189,21.2017997 27.7595129,21.468051 L27.3764907,21.7894448 C27.0591847,22.0556962 26.586118,22.0143082 26.3198667,21.6970022 C26.0536153,21.3796962 26.0950033,20.9066295 26.4123093,20.6403782 L26.7953315,20.3189844 C27.1126375,20.052733 27.5857042,20.094121 27.8519555,20.411427 Z M13.2046685,20.3189844 L13.5876907,20.6403782 C13.9049967,20.9066295 13.9463847,21.3796962 13.6801333,21.6970022 C13.413882,22.0143082 12.9408153,22.0556962 12.6235093,21.7894448 L12.2404871,21.468051 C11.9231811,21.2017997 11.8817931,20.728733 12.1480445,20.411427 C12.4142958,20.094121 12.8873625,20.052733 13.2046685,20.3189844 Z M20,16.75 C20.4142136,16.75 20.75,17.0857864 20.75,17.5 L20.75,18 C20.75,18.4142136 20.4142136,18.75 20,18.75 C19.5857864,18.75 19.25,18.4142136 19.25,18 L19.25,17.5 C19.25,17.0857864 19.5857864,16.75 20,16.75 Z" id="Combined-Shape" fill="#777777"></path>
    </g>
</svg>