<svg xmlns="http://www.w3.org/2000/svg" width="14" height="14" viewBox="0 0 14 14">
    <path fill="#DAE1E9" fill-rule="evenodd" d="M11 5.535h-.35V3.657A3.657 3.657 0 0 0 7 0a3.657 3.657 0 0 0-3.65 3.657v1.878H3c-.55 0-1 .45-1 1.027v6.411C2 13.55 2.45 14 3 14h8c.55 0 .999-.45.999-1.027V6.587a1 1 0 0 0-1-1.052zM4.6 3.657A2.403 2.403 0 0 1 7 1.252c1.324 0 2.4 1.077 2.4 2.405v1.878H4.6V3.657zm3.15 6.787v.951c0 .401-.326.752-.75.752-.4 0-.75-.326-.75-.752v-.951c-.45-.25-.75-.727-.75-1.278 0-.826.675-1.477 1.475-1.477.824 0 1.474.676 1.474 1.477a1.412 1.412 0 0 1-.7 1.278z"/>
</svg>
