<svg width="184" height="40" viewBox="0 0 184 40" fill="none" xmlns="http://www.w3.org/2000/svg">
    <g>
        <path d="M59.2171 14.6893V28.5105H62.4625V14.6893H67.5462V12.0566H54.1561V14.6893H59.2171Z" fill="white"/>
        <path d="M65.8473 22.4283C65.8473 26.7176 68.8884 28.8056 71.9749 28.8056C75.0614 28.8056 78.1026 26.7176 78.1026 22.4283C78.1026 18.1389 75.0614 16.0283 71.9749 16.0283C68.8884 16.0283 65.8473 18.1389 65.8473 22.4283ZM69.0246 22.4283C69.0246 19.8637 70.2501 18.4793 71.9749 18.4793C73.6997 18.4793 74.9253 19.8637 74.9253 22.4283C74.9253 24.9701 73.6997 26.3545 71.9749 26.3545C70.2501 26.3545 69.0246 24.9701 69.0246 22.4283Z" fill="white"/>
        <path d="M83.227 12.0566H80.0951V28.5105H83.227V24.834L84.7249 23.2226L87.9249 28.5105H91.4426L86.8129 20.9758L91.193 16.3006H87.6753L83.227 21.2027V12.0566Z" fill="white"/>
        <path d="M94.777 23.268H103.787C103.923 18.9559 101.563 16.0283 97.7955 16.0283C94.187 16.0283 91.6678 18.729 91.6678 22.3602C91.6678 25.8779 93.96 28.8056 97.8863 28.8056C101.2 28.8056 102.993 26.7857 103.651 24.9701H100.428C99.7926 26.0368 98.8168 26.3772 97.8636 26.3772C96.3884 26.3772 94.9359 25.3559 94.777 23.268ZM94.8224 21.112C95.0721 19.0694 96.5926 18.3205 97.7728 18.3205C99.0891 18.3205 100.542 19.0467 100.61 21.112H94.8224Z" fill="white"/>
        <path d="M108.936 17.912V16.3006H105.804V28.5105H108.936V22.1559C108.936 20.2269 109.39 18.5474 111.455 18.5474C113.226 18.5474 113.566 19.9091 113.566 21.4978V28.5105H116.698V20.8169C116.698 17.8212 115.404 16.0283 112.477 16.0283C110.979 16.0283 109.64 16.6864 108.936 17.912Z" fill="white"/>
        <path d="M118.507 22.4283C118.507 26.7176 121.548 28.8056 124.634 28.8056C127.721 28.8056 130.762 26.7176 130.762 22.4283C130.762 18.1389 127.721 16.0283 124.634 16.0283C121.548 16.0283 118.507 18.1389 118.507 22.4283ZM121.684 22.4283C121.684 19.8637 122.91 18.4793 124.634 18.4793C126.359 18.4793 127.585 19.8637 127.585 22.4283C127.585 24.9701 126.359 26.3545 124.634 26.3545C122.91 26.3545 121.684 24.9701 121.684 22.4283Z" fill="white"/>
        <path d="M145.827 18.5474C147.665 18.5474 147.779 20.068 147.779 21.407V28.5105H150.911V20.8169C150.911 17.9347 149.844 16.0283 146.78 16.0283C144.942 16.0283 143.716 16.6637 142.763 18.0254C142.287 17.1403 141.379 16.0283 139.291 16.0283C137.816 16.0283 136.567 16.7091 135.887 17.912V16.3006H132.755V28.5105H135.887V22.1559C135.887 20.2949 136.227 18.5474 138.315 18.5474C140.153 18.5474 140.267 20.068 140.267 21.407V28.5105H143.399V22.1559C143.399 20.2949 143.739 18.5474 145.827 18.5474Z" fill="white"/>
        <path d="M156.676 12.0566H153.544V14.9616H156.676V12.0566ZM156.676 16.3006H153.544V28.5105H156.676V16.3006Z" fill="white"/>
        <path d="M170.354 20.4765C169.946 17.4354 167.359 16.0283 164.817 16.0283C161.163 16.0283 158.689 18.7063 158.689 22.4283C158.689 26.1049 161.027 28.8056 164.681 28.8056C167.2 28.8056 169.742 27.6935 170.468 24.3574H167.472C167.064 25.8325 165.906 26.3772 164.839 26.3772C163.115 26.3772 161.889 24.9474 161.889 22.3829C161.889 19.841 163.183 18.4566 164.817 18.4566C165.997 18.4566 167.132 19.3191 167.359 20.4765H170.354Z" fill="white"/>
        <path d="M176.197 28.8056C178.036 28.8056 179.329 28.2609 180.192 26.99C180.237 27.58 180.305 28.1247 180.396 28.5105H183.278C183.051 27.4893 182.915 26.3999 182.915 24.4708C182.915 23.3588 182.96 21.7474 182.96 21.3616C182.96 17.2311 180.6 15.9829 177.695 15.9829C174.563 15.9829 172.566 17.7531 172.339 20.1588H175.267C175.335 18.8198 176.333 18.1843 177.536 18.1843C178.807 18.1843 179.828 18.8425 179.828 20.7261V20.9304C175.04 21.4751 171.794 22.3375 171.794 25.2198C171.794 27.4439 173.86 28.8056 176.197 28.8056ZM179.919 22.9276V23.8354C179.919 25.6056 179.08 26.6722 177.128 26.6722C175.721 26.6722 175.017 25.946 175.017 25.0609C175.017 23.6992 176.424 23.2907 179.919 22.9276Z" fill="white"/>
        <path fill-rule="evenodd" clip-rule="evenodd" d="M15.5294 0C15.3957 0 15.2621 0.0556366 15.1929 0.189451L11.4782 6.55194H4.14055C4.01907 6.55194 3.88998 6.61271 3.82335 6.74131L0.0481559 13.1932L0.0439807 13.2016C-0.0145266 13.3186 -0.0147268 13.462 0.0437805 13.579L0.0482516 13.5869L5.66025 23.3922C7.06459 25.8456 8.47013 28.3007 9.527 30.1462C10.0554 31.0689 10.4967 31.8392 10.8071 32.3807L11.169 33.0117C11.2504 33.1534 11.3008 33.2411 11.3067 33.25C11.3318 33.2876 11.3688 33.3339 11.4251 33.3701C11.4832 33.4075 11.5536 33.4288 11.6367 33.4288H18.9739L22.6512 39.8139L22.6616 39.8276C22.6968 39.8746 22.7394 39.9199 22.7962 39.9524C22.8549 39.9859 22.9186 40 22.987 40H30.5025C30.6106 40 30.767 39.9488 30.8389 39.8107L42.188 20.3513L42.1943 20.337C42.2361 20.243 42.2674 20.1484 42.2737 20.0501C42.2803 19.9487 42.2601 19.8514 42.2111 19.7534L38.5863 13.4577L40.3521 10.3898C40.805 9.60334 41.259 8.81509 41.6023 8.21985C41.7739 7.92223 41.9178 7.6729 42.02 7.4962L42.1401 7.2888L42.1772 7.22518C42.1813 7.21822 42.1837 7.21629 42.1837 7.21629L42.1916 7.20044C42.2871 7.00932 42.2917 6.80435 42.1882 6.62324L42.1827 6.6151L42.1402 6.5414L42.0194 6.33096C41.9167 6.15162 41.7721 5.89854 41.5995 5.5964C41.2545 4.99213 40.7981 4.19184 40.3428 3.39333L38.5266 0.206506L38.525 0.20376C38.4853 0.137722 38.4332 0.0825159 38.3608 0.0462902C38.2906 0.0112164 38.2134 0 38.1336 0H15.5294ZM0.17084 13.5155L0.0482516 13.5869C0.0482516 13.5869 0.0477395 13.586 0.17084 13.5155ZM19.5233 6.5134L16.1984 0.726908H37.9547L41.2429 6.5134H34.3758C34.2664 6.5134 34.1078 6.56574 34.037 6.70743C33.9785 6.82444 33.9783 6.96791 34.0368 7.08492L41.2413 19.6359L34.5159 19.6175L27.1008 6.70336C27.0316 6.56917 26.8979 6.5134 26.764 6.5134H19.5233ZM7.91862 12.6348L4.84787 7.27884H11.0429L7.91862 12.6348ZM12.3658 19.6173L19.5804 7.27884H26.0765L19.0313 19.6173H12.3658ZM38.1532 12.6905L35.0634 7.27884H41.2609L38.1532 12.6905ZM19.8983 19.6173L23.0073 14.2032L26.17 19.6173H19.8983ZM32.7998 23.4493L34.6106 20.3834L41.2212 20.4013L30.3052 39.1767H23.6757L27.1184 33.2037L27.1221 33.1962C27.153 33.1344 27.166 33.0637 27.166 33.0003C27.166 32.9395 27.154 32.8646 27.1133 32.8036C27.0479 32.7055 26.9256 32.6248 26.7442 32.6248H12.3263L15.7074 26.7998H30.6566C30.8009 26.7998 30.9012 26.6995 30.9398 26.6023L30.9505 26.5841L30.9781 26.537L31.0984 26.3324L31.5222 25.6135C31.8718 25.021 32.3361 24.2345 32.7998 23.4493ZM15.7067 26.0343L12.3671 20.3827H26.625L29.9463 26.0343H15.7067Z" fill="white"/>
    </g>
</svg>
