<svg xmlns="http://www.w3.org/2000/svg" width="18" height="18" viewBox="0 0 18 18">
    <g fill="#7F8FA4" fill-rule="nonzero">
        <path d="M6.5 15.75H3.167a.917.917 0 0 1-.917-.917V3.167c0-.507.41-.917.917-.917H6.5a.75.75 0 0 0 0-1.5H3.167A2.417 2.417 0 0 0 .75 3.167v11.666a2.417 2.417 0 0 0 2.417 2.417H6.5a.75.75 0 1 0 0-1.5zM11.803 12.636a.75.75 0 0 0 1.06 1.061L17.03 9.53a.75.75 0 0 0 0-1.06l-4.166-4.167a.75.75 0 0 0-1.061 1.06L15.439 9l-3.636 3.636z"/>
        <path d="M16.5 8.25h-10a.75.75 0 0 0 0 1.5h10a.75.75 0 1 0 0-1.5z"/>
    </g>
</svg>
