<?xml version="1.0" encoding="UTF-8"?>
<svg width="60px" height="60px" viewBox="0 0 60 60" version="1.1" xmlns="http://www.w3.org/2000/svg" xmlns:xlink="http://www.w3.org/1999/xlink">
    <!-- Generator: Sketch 51 (57462) - http://www.bohemiancoding.com/sketch -->
    <title>if_cryptocurrency_blockchain_crypto-21_2742161</title>
    <desc>Created with Sketch.</desc>
    <defs></defs>
    <g id="Page-1" stroke="none" stroke-width="1" fill="none" fill-rule="evenodd">
        <g id="if_cryptocurrency_blockchain_crypto-21_2742161">
            <path d="M0.841452,29.884854 L7.43136,23.294928 C8.281668,22.373766 9.76971,22.373766 10.690884,23.294928 L15.721884,28.32594 C17.70594,30.309996 20.965464,30.309996 23.02038,28.32594 L28.33482,23.011524 C29.255994,22.090326 30.74403,22.090326 31.665204,23.011524 L36.979644,28.32594 C38.9637,30.309996 42.294084,30.309996 44.278134,28.32594 L49.30914,23.294928 C50.230308,22.373766 51.71835,22.373766 52.568658,23.294928 L59.158566,29.884854 C60.079734,30.806016 60.079734,32.294058 59.158566,33.144384 L34.074402,58.299378 C31.806906,60.56688 28.193088,60.56688 25.925598,58.299378 L0.841452,33.144384 C-0.079716,32.294058 -0.079716,30.806016 0.841452,29.884854 Z" id="Shape" fill="#E2E1E1"></path>
            <path d="M10.974318,16.49247 L25.713024,1.753776 C28.051374,-0.584592 31.948626,-0.584592 34.286982,1.753776 L48.954828,16.492464 C50.08857,17.555364 50.08857,19.32681 48.954828,20.38971 L42.43578,26.979636 C41.372892,28.042494 39.601416,28.042494 38.467668,26.979636 L33.294948,21.73605 C31.452612,19.893696 28.547382,19.893696 26.705046,21.73605 L21.461466,26.979636 C20.398578,28.042494 18.627096,28.042494 17.493354,26.979636 L10.974318,20.38971 C9.91143,19.326816 9.91143,17.555364 10.974318,16.49247 Z" id="Shape" fill="#3DB6D3"></path>
        </g>
    </g>
</svg>