<svg xmlns="http://www.w3.org/2000/svg" width="60" height="60" viewBox="0 0 60 60">
    <g fill="none" fill-rule="nonzero">
        <path fill="none" d="M0 0h60v60H0z"/>
        <path fill="#333745" d="M57.412 24.885L42.402 9.876 22.327 29.953l20.143 20.143 14.853-14.854c2.828-2.812 2.919-7.528.09-10.357zM37.794 5.267l-2.518-2.518c-2.83-2.83-7.546-2.952-10.48-.017l-2.51 2.51 7.766 7.766 7.742-7.741zM17.585 9.942l7.767 7.767-7.742 7.741-7.766-7.767 7.741-7.741zm4.683 44.837l2.518 2.518c2.83 2.83 7.546 2.952 10.48.017l2.502-2.502-7.766-7.766-7.734 7.733zm-4.65-20.118l7.766 7.767-7.741 7.742-7.767-7.767 7.741-7.742zM5.24 22.286l-2.51 2.51c-2.82 2.82-2.926 7.536.018 10.48l2.518 2.518 7.741-7.742-7.767-7.766z"/>
    </g>
</svg>
