<?xml version="1.0" encoding="UTF-8"?>
<svg width="252px" height="56px" viewBox="0 0 252 56" version="1.1" xmlns="http://www.w3.org/2000/svg" xmlns:xlink="http://www.w3.org/1999/xlink">
    <!-- Generator: Sketch 50.2 (55047) - http://www.bohemiancoding.com/sketch -->
    <title>menu_icons</title>
    <desc>Created with Sketch.</desc>
    <defs></defs>
    <g id="menu_icons" stroke="none" stroke-width="1" fill="none" fill-rule="evenodd">
        <g id="blue" transform="translate(0.000000, 28.000000)">
            <g id="Icon/wallet-26-white" transform="translate(1.000000, 1.000000)">
                <rect id="ico-zone" fill-opacity="0" fill="#D8D8D8" fill-rule="evenodd" x="0" y="0" width="26" height="26"></rect>
                <path d="M24.48,12.4208582 L20.8,12.4208582 C18.7928,12.4208582 17.16,14.0650764 17.16,16.0863127 C17.16,18.1075491 18.7928,19.7517673 20.8,19.7517673 L24.48,19.7517673 L24.48,21.3226764 C24.48,22.7931819 23.2933493,23.9881309 21.84,23.9881309 L4.16,23.9881309 C2.70665072,23.9881309 1.52,22.7931819 1.52,21.3226764 L1.52,10.8499491 C1.52,9.37944353 2.70665072,8.18449455 4.16,8.18449455 L21.84,8.18449455 C23.2933493,8.18449455 24.48,9.37944353 24.48,10.8499491 L24.48,12.4208582 Z" id="Path" fill="#FFFFFF" fill-rule="evenodd"></path>
                <path d="M20.8,13.4681309 L24.4800034,13.4681309 L24.4800034,18.7044945 L20.8,18.7044945 C19.36584,18.7044945 18.2,17.5294545 18.2,16.0863127 C18.2,14.6431709 19.36584,13.4681309 20.8,13.4681309 Z M20.8,17.6572218 C21.66008,17.6572218 22.36,16.9524073 22.36,16.0863127 C22.36,15.2202182 21.66008,14.5154036 20.8,14.5154036 C19.93992,14.5154036 19.24,15.2202182 19.24,16.0863127 C19.24,16.9524073 19.93992,17.6572218 20.8,17.6572218 Z" id="Path" fill="#FFFFFF" fill-rule="evenodd"></path>
                <path d="M20.8,16.9572218 C21.2723845,16.9572218 21.66,16.5668957 21.66,16.0863127 C21.66,15.6057297 21.2723845,15.2154036 20.8,15.2154036 C20.3276155,15.2154036 19.94,15.6057297 19.94,16.0863127 C19.94,16.5668957 20.3276155,16.9572218 20.8,16.9572218 Z" id="Path" fill="#FFFFFF" fill-rule="nonzero"></path>
                <path d="M24.0516357,7.94029236 C23.5111542,6.60586548 22.2370911,5.49383545 20.6493073,5.17478943 L21.6411743,7.18545532 C22.249054,7.15452576 23.1761475,7.25575256 24.0516357,7.94029236 Z M4.03004456,7.18353271 L7.89134216,5.08964539 L6.55434216,5.08964539 C4.43136597,5.01347351 2.76882935,6.11051941 1.94178772,7.94192505 C2.69689941,7.38912964 3.06135559,7.31968689 4.03004456,7.18353271 Z M11.3969472,7.18286819 L18.5364818,3.29023354 C18.0974818,2.66239354 17.6766133,2.37447943 17.0385854,2.17396244 C16.1405961,1.89174578 15.3694151,2.17396244 14.6799931,2.60821102 L6.23709812,7.18286819 L11.3969472,7.18286819 Z" id="Shape" fill="#FFFFFF" fill-rule="nonzero"></path>
                <polygon id="Shape" fill="#FFFFFF" fill-rule="nonzero" points="20.4746552 7.18612671 19.0185852 4.24154663 13.5778656 7.18612671"></polygon>
            </g>
            <g id="Icon/token-26-white" transform="translate(57.000000, 1.000000)">
                <rect id="ico-zone" fill-opacity="0" fill="#D8D8D8" fill-rule="evenodd" x="0" y="0" width="26" height="26"></rect>
                <path d="M5.28080884,3.72080906 L20.8137121,3.72080906 C21.6752763,3.72080906 22.3737121,4.41924485 22.3737121,5.28080906 L22.3737121,20.8137123 C22.3737121,21.6752765 21.6752763,22.3737123 20.8137121,22.3737123 L5.28080884,22.3737123 C4.41924463,22.3737123 3.72080884,21.6752765 3.72080884,20.8137123 L3.72080884,5.28080906 C3.72080884,4.41924485 4.41924463,3.72080906 5.28080884,3.72080906 Z" id="box" fill="#FFFFFF" fill-rule="nonzero" transform="translate(13.047260, 13.047261) rotate(45.000000) translate(-13.047260, -13.047261) "></path>
                <path d="M8.63564755,8.11564777 C8.34845948,8.11564777 8.11564755,8.3484597 8.11564755,8.63564777 L8.11564755,17.4588736 C8.11564755,17.7460617 8.34845948,17.9788736 8.63564755,17.9788736 L17.4588734,17.9788736 C17.7460614,17.9788736 17.9788734,17.7460617 17.9788734,17.4588736 L17.9788734,8.63564777 C17.9788734,8.3484597 17.7460614,8.11564777 17.4588734,8.11564777 L8.63564755,8.11564777 Z M8.63564755,7.07564777 L17.4588734,7.07564777 C18.3204376,7.07564777 19.0188734,7.77408356 19.0188734,8.63564777 L19.0188734,17.4588736 C19.0188734,18.3204378 18.3204376,19.0188736 17.4588734,19.0188736 L8.63564755,19.0188736 C7.77408334,19.0188736 7.07564755,18.3204378 7.07564755,17.4588736 L7.07564755,8.63564777 C7.07564755,7.77408356 7.77408334,7.07564777 8.63564755,7.07564777 Z" id="box" fill="#1F5AF6" fill-rule="nonzero" transform="translate(13.047260, 13.047261) rotate(45.000000) translate(-13.047260, -13.047261) "></path>
                <path d="M13.4193548,10.9032258 C12.9561483,10.9032258 12.5806452,10.5277227 12.5806452,10.0645161 C12.5806452,9.60130956 12.9561483,9.22580645 13.4193548,9.22580645 C13.8825614,9.22580645 14.2580645,9.60130956 14.2580645,10.0645161 C14.2580645,10.5277227 13.8825614,10.9032258 13.4193548,10.9032258 Z M15.9354839,13.4193548 C15.4722773,13.4193548 15.0967742,13.0438517 15.0967742,12.5806452 C15.0967742,12.1174386 15.4722773,11.7419355 15.9354839,11.7419355 C16.3986904,11.7419355 16.7741935,12.1174386 16.7741935,12.5806452 C16.7741935,13.0438517 16.3986904,13.4193548 15.9354839,13.4193548 Z M13.4193548,13.4193548 C12.9561483,13.4193548 12.5806452,13.0438517 12.5806452,12.5806452 C12.5806452,12.1174386 12.9561483,11.7419355 13.4193548,11.7419355 C13.8825614,11.7419355 14.2580645,12.1174386 14.2580645,12.5806452 C14.2580645,13.0438517 13.8825614,13.4193548 13.4193548,13.4193548 Z" id="dots" fill="#1F5AF6" fill-rule="nonzero"></path>
            </g>
            <g id="Icon/dex-26-white" transform="translate(29.000000, 1.000000)">
                <rect id="ico-zone" fill-opacity="0" fill="#D8D8D8" x="0" y="0" width="26" height="26"></rect>
                <g id="dex-26-white" stroke-width="1">
                    <polygon id="Shape" points="0 0 26 0 26 26 0 26"></polygon>
                    <path d="M2.9,1.478 C2.9,1.21290332 3.11490332,0.998 3.38,0.998 C3.64509668,0.998 3.86,1.21290332 3.86,1.478 L3.86,24.522 C3.86,24.7870967 3.64509668,25.002 3.38,25.002 C3.11490332,25.002 2.9,24.7870967 2.9,24.522 L2.9,1.478 Z M12.4,1.478 C12.4,1.21290332 12.6149033,0.998 12.88,0.998 C13.1450967,0.998 13.36,1.21290332 13.36,1.478 L13.36,17.87 C13.36,18.1350967 13.1450967,18.35 12.88,18.35 C12.6149033,18.35 12.4,18.1350967 12.4,17.87 L12.4,1.478 Z M21.9,1.478 C21.9,1.21290332 22.1149033,0.998 22.38,0.998 C22.6450967,0.998 22.86,1.21290332 22.86,1.478 L22.86,24.522 C22.86,24.7870967 22.6450967,25.002 22.38,25.002 C22.1149033,25.002 21.9,24.7870967 21.9,24.522 L21.9,1.478 Z" id="Shape" fill="#FFFFFF" fill-rule="nonzero"></path>
                    <path d="M1.3,9.271 L5.459,9.271 C5.84559932,9.271 6.159,9.58440068 6.159,9.971 L6.159,18.889 C6.159,19.2755993 5.84559932,19.589 5.459,19.589 L1.3,19.589 C0.913400675,19.589 0.6,19.2755993 0.6,18.889 L0.6,9.971 C0.6,9.58440068 0.913400675,9.271 1.3,9.271 Z M10.809,6.41 L14.967,6.41 C15.3535993,6.41 15.667,6.72340068 15.667,7.11 L15.667,13.198 C15.667,13.5845993 15.3535993,13.898 14.967,13.898 L10.81,13.898 C10.4234007,13.898 10.11,13.5845993 10.11,13.198 L10.11,7.11 C10.11,6.72340068 10.4234007,6.41 10.81,6.41 L10.809,6.41 Z M20.3,6.408 L24.459,6.408 C24.8455993,6.408 25.159,6.72140068 25.159,7.108 L25.159,16.978 C25.159,17.3645993 24.8455993,17.678 24.459,17.678 L20.3,17.678 C19.9134007,17.678 19.6,17.3645993 19.6,16.978 L19.6,7.108 C19.6,6.72140068 19.9134007,6.408 20.3,6.408 Z" id="Shape" fill="#FFFFFF" fill-rule="nonzero"></path>
                </g>
            </g>
        </g>
        <g id="Icon/wallet-26-basic700" transform="translate(1.000000, 1.000000)">
            <rect id="ico-zone" fill-opacity="0" fill="#D8D8D8" fill-rule="evenodd" x="0" y="0" width="26" height="26"></rect>
            <polygon id="Path-2" fill="#FFFFFF" fill-rule="evenodd" points="1.35791016 7.06152344 2.47412109 5.27783203 4.24584961 4.03857422 6.58764648 3.6484375 8.76586914 3.6484375 9.86352539 3.6484375 12.342041 2.24243164 14.0817871 1.3503418 15.3620605 0.799560547 16.6262207 0.799560547 17.5852051 0.799560547 18.1479492 1.3503418 18.6679687 2.24243164 19.3845215 3.21313477 22.2399902 4.50976563 24.0439453 5.93334961 24.5097656 7.06152344 3.35644531 7.06152344"></polygon>
            <path d="M21.84,23.9881309 L4.16,23.9881309 C2.1528,23.9881309 0.52,22.3439127 0.52,20.3226764 L0.52,9.84994909 C0.52,7.82871273 2.1528,6.18449455 4.16,6.18449455 L21.84,6.18449455 C23.8472,6.18449455 25.48,7.82871273 25.48,9.84994909 L25.48,20.3226764 C25.48,22.3439127 23.8472,23.9881309 21.84,23.9881309 Z M4.16,7.23176727 C2.72584,7.23176727 1.56,8.40680727 1.56,9.84994909 L1.56,20.3226764 C1.56,21.7658182 2.72584,22.9408582 4.16,22.9408582 L21.84,22.9408582 C23.27416,22.9408582 24.44,21.7658182 24.44,20.3226764 L24.44,9.84994909 C24.44,8.40680727 23.27416,7.23176727 21.84,7.23176727 L4.16,7.23176727 Z" id="Shape" fill="#4E5C6E" fill-rule="nonzero"></path>
            <path d="M4.16,7.23176727 C2.72584,7.23176727 1.56,8.40680727 1.56,9.84994909 L1.56,20.3226764 C1.56,21.7658182 2.72584,22.9408582 4.16,22.9408582 L21.84,22.9408582 C23.27416,22.9408582 24.44,21.7658182 24.44,20.3226764 L24.44,9.84994909 C24.44,8.40680727 23.27416,7.23176727 21.84,7.23176727 L4.16,7.23176727 Z" id="Path" fill="#FFFFFF" fill-rule="evenodd"></path>
            <path d="M20.8,16.6572218 C19.93992,16.6572218 19.24,15.9524073 19.24,15.0863127 C19.24,14.2202182 19.93992,13.5154036 20.8,13.5154036 C21.66008,13.5154036 22.36,14.2202182 22.36,15.0863127 C22.36,15.9524073 21.66008,16.6572218 20.8,16.6572218 Z M20.8,14.5626764 C20.514,14.5626764 20.28,14.7972655 20.28,15.0863127 C20.28,15.37536 20.514,15.6099491 20.8,15.6099491 C21.086,15.6099491 21.32,15.37536 21.32,15.0863127 C21.32,14.7972655 21.086,14.5626764 20.8,14.5626764 Z" id="Shape" fill="#4E5C6E" fill-rule="nonzero"></path>
            <path d="M24.96,18.7517673 L20.8,18.7517673 C18.7928,18.7517673 17.16,17.1075491 17.16,15.0863127 C17.16,13.0650764 18.7928,11.4208582 20.8,11.4208582 L24.96,11.4208582 C25.24704,11.4208582 25.48,11.6554473 25.48,11.9444945 L25.48,18.2281309 C25.48,18.5171782 25.24704,18.7517673 24.96,18.7517673 Z M20.8,12.4681309 C19.36584,12.4681309 18.2,13.6431709 18.2,15.0863127 C18.2,16.5294545 19.36584,17.7044945 20.8,17.7044945 L24.44,17.7044945 L24.44,12.4681309 L20.8,12.4681309 Z M21.32,7.23176727 C21.12968,7.23176727 20.94664,7.12599273 20.85512,6.94272 L18.65344,2.50856727 C18.33624,1.86973091 17.7892,1.39845818 17.1132,1.18376727 C16.43928,0.968029091 15.72064,1.03610182 15.09664,1.37541818 L4.40648,7.16893091 C4.1548,7.30612364 3.83864,7.21082182 3.7024,6.95633455 C3.56616,6.70184727 3.6608,6.38347636 3.91352,6.24733091 L14.6016,0.451723636 C15.47728,-0.0216436364 16.47984,-0.115898182 17.42624,0.184669091 C18.37264,0.486283636 19.13912,1.14501818 19.5832,2.03938909 L21.78488,6.47354182 C21.9128,6.73221818 21.8088,7.0464 21.55192,7.17626182 C21.47704,7.21396364 21.398,7.23176727 21.32,7.23176727 Z" id="Shape" fill="#4E5C6E" fill-rule="nonzero"></path>
            <path d="M11.51384,7.23176727 C11.32872,7.23176727 11.14984,7.13227636 11.05624,6.95633455 C10.92,6.70184727 11.01464,6.38452364 11.26736,6.24733091 L18.99352,2.05824 C19.2452,1.92209455 19.56136,2.01634909 19.69864,2.27188364 C19.83488,2.52637091 19.74024,2.84369455 19.48752,2.98088727 L11.76136,7.16997818 C11.68232,7.21186909 11.59704,7.23176727 11.51384,7.23176727 Z M1.04,10.3735855 C0.75296,10.3735855 0.52,10.1389964 0.52,9.84994909 L0.52,8.80267636 C0.52,5.62629818 3.08672,3.04267636 6.24,3.04267636 L9.88,3.04267636 C10.16704,3.04267636 10.4,3.27726545 10.4,3.56631273 C10.4,3.85536 10.16704,4.08994909 9.88,4.08994909 L6.24,4.08994909 C3.65976,4.08994909 1.56,6.20439273 1.56,8.80267636 L1.56,9.84994909 C1.56,10.1389964 1.32704,10.3735855 1.04,10.3735855 Z M24.96,10.3735855 C24.67296,10.3735855 24.44,10.1389964 24.44,9.84994909 L24.44,8.80267636 C24.44,6.20439273 22.34024,4.08994909 19.76,4.08994909 C19.47296,4.08994909 19.24,3.85536 19.24,3.56631273 C19.24,3.27726545 19.47296,3.04267636 19.76,3.04267636 C22.91328,3.04267636 25.48,5.62629818 25.48,8.80267636 L25.48,9.84994909 C25.48,10.1389964 25.24704,10.3735855 24.96,10.3735855 Z" id="Shape" fill="#4E5C6E" fill-rule="nonzero"></path>
        </g>
        <g id="Icon/token-26-basic700" transform="translate(57.000000, 1.000000)">
            <rect id="ico-zone" fill-opacity="0" fill="#D8D8D8" fill-rule="evenodd" x="0" y="0" width="26" height="26"></rect>
            <path d="M5.28236068,4.76236068 C4.99517262,4.76236068 4.76236068,4.99517262 4.76236068,5.28236068 L4.76236068,20.8152639 C4.76236068,21.102452 4.99517262,21.3352639 5.28236068,21.3352639 L20.8152639,21.3352639 C21.102452,21.3352639 21.3352639,21.102452 21.3352639,20.8152639 L21.3352639,5.28236068 C21.3352639,4.99517262 21.102452,4.76236068 20.8152639,4.76236068 L5.28236068,4.76236068 Z" id="Path" fill="#FFFFFF" fill-rule="evenodd" transform="translate(13.048812, 13.048812) rotate(45.000000) translate(-13.048812, -13.048812) "></path>
            <path d="M5.28190616,4.75971174 C4.99471809,4.75971174 4.76190616,4.99252367 4.76190616,5.27971174 L4.76190616,20.812615 C4.76190616,21.099803 4.99471809,21.332615 5.28190616,21.332615 L20.8148094,21.332615 C21.1019975,21.332615 21.3348094,21.099803 21.3348094,20.812615 L21.3348094,5.27971174 C21.3348094,4.99252367 21.1019975,4.75971174 20.8148094,4.75971174 L5.28190616,4.75971174 Z M5.28080884,3.72080906 L20.8137121,3.72080906 C21.6752763,3.72080906 22.3737121,4.41924485 22.3737121,5.28080906 L22.3737121,20.8137123 C22.3737121,21.6752765 21.6752763,22.3737123 20.8137121,22.3737123 L5.28080884,22.3737123 C4.41924463,22.3737123 3.72080884,21.6752765 3.72080884,20.8137123 L3.72080884,5.28080906 C3.72080884,4.41924485 4.41924463,3.72080906 5.28080884,3.72080906 Z" id="box" fill="#4E5C6E" fill-rule="nonzero" transform="translate(13.047260, 13.047261) rotate(45.000000) translate(-13.047260, -13.047261) "></path>
            <path d="M8.61274114,8.09274114 C8.32555307,8.09274114 8.09274114,8.32555307 8.09274114,8.61274114 L8.09274114,17.4359669 C8.09274114,17.723155 8.32555307,17.9559669 8.61274114,17.9559669 L17.4359669,17.9559669 C17.723155,17.9559669 17.9559669,17.723155 17.9559669,17.4359669 L17.9559669,8.61274114 C17.9559669,8.32555307 17.723155,8.09274114 17.4359669,8.09274114 L8.61274114,8.09274114 Z" id="Path" fill="#FFFFFF" fill-rule="evenodd" transform="translate(13.024354, 13.024354) rotate(45.000000) translate(-13.024354, -13.024354) "></path>
            <path d="M8.63564755,8.11564777 C8.34845948,8.11564777 8.11564755,8.3484597 8.11564755,8.63564777 L8.11564755,17.4588736 C8.11564755,17.7460617 8.34845948,17.9788736 8.63564755,17.9788736 L17.4588734,17.9788736 C17.7460614,17.9788736 17.9788734,17.7460617 17.9788734,17.4588736 L17.9788734,8.63564777 C17.9788734,8.3484597 17.7460614,8.11564777 17.4588734,8.11564777 L8.63564755,8.11564777 Z M8.63564755,7.07564777 L17.4588734,7.07564777 C18.3204376,7.07564777 19.0188734,7.77408356 19.0188734,8.63564777 L19.0188734,17.4588736 C19.0188734,18.3204378 18.3204376,19.0188736 17.4588734,19.0188736 L8.63564755,19.0188736 C7.77408334,19.0188736 7.07564755,18.3204378 7.07564755,17.4588736 L7.07564755,8.63564777 C7.07564755,7.77408356 7.77408334,7.07564777 8.63564755,7.07564777 Z" id="box" fill="#4E5C6E" fill-rule="nonzero" transform="translate(13.047260, 13.047261) rotate(45.000000) translate(-13.047260, -13.047261) "></path>
            <path d="M13.4193548,10.9032258 C12.9561483,10.9032258 12.5806452,10.5277227 12.5806452,10.0645161 C12.5806452,9.60130956 12.9561483,9.22580645 13.4193548,9.22580645 C13.8825614,9.22580645 14.2580645,9.60130956 14.2580645,10.0645161 C14.2580645,10.5277227 13.8825614,10.9032258 13.4193548,10.9032258 Z M15.9354839,13.4193548 C15.4722773,13.4193548 15.0967742,13.0438517 15.0967742,12.5806452 C15.0967742,12.1174386 15.4722773,11.7419355 15.9354839,11.7419355 C16.3986904,11.7419355 16.7741935,12.1174386 16.7741935,12.5806452 C16.7741935,13.0438517 16.3986904,13.4193548 15.9354839,13.4193548 Z M13.4193548,13.4193548 C12.9561483,13.4193548 12.5806452,13.0438517 12.5806452,12.5806452 C12.5806452,12.1174386 12.9561483,11.7419355 13.4193548,11.7419355 C13.8825614,11.7419355 14.2580645,12.1174386 14.2580645,12.5806452 C14.2580645,13.0438517 13.8825614,13.4193548 13.4193548,13.4193548 Z" id="dots" fill="#4E5C6E" fill-rule="nonzero"></path>
        </g>
        <g id="Icon/dex-26-basic700" transform="translate(29.000000, 1.000000)">
            <rect id="ico-zone" fill-opacity="0" fill="#D8D8D8" fill-rule="evenodd" x="0" y="0" width="26" height="26"></rect>
            <path d="M2.9,8.67391304 L2.9,1.47826087 C2.9,1.21412468 3.11490332,1 3.38,1 C3.64509668,1 3.86,1.21412468 3.86,1.47826087 L3.86,8.67391304 L5.78,8.67391304 C6.32083359,8.67391304 6.76,9.11148827 6.76,9.65217391 L6.76,19.2173913 C6.76,19.758077 6.3208336,20.1956522 5.78,20.1956522 L3.86,20.1956522 L3.86,24.5217391 C3.86,24.7858753 3.64509668,25 3.38,25 C3.11490332,25 2.9,24.7858753 2.9,24.5217391 L2.9,20.1956522 L0.98,20.1956522 C0.439166399,20.1956522 0,19.758077 0,19.2173913 L0,9.65217391 C0,9.11148827 0.439166404,8.67391304 0.98,8.67391304 L2.9,8.67391304 Z M1,9.67391304 L1,19.1956522 L5.76,19.1956522 L5.76,9.67391304 L1,9.67391304 Z" id="1" fill="#4E5C6E" fill-rule="nonzero"></path>
            <polygon id="Path" fill="#FFFFFF" fill-rule="evenodd" points="1 9.67391304 1 19.1956522 5.76 19.1956522 5.76 9.67391304"></polygon>
            <path d="M12.4,5.80434783 L12.4,1.47826087 C12.4,1.21412468 12.6149033,1 12.88,1 C13.1450967,1 13.36,1.21412468 13.36,1.47826087 L13.36,5.80434783 L15.28,5.80434783 C15.8208336,5.80434783 16.26,6.24192305 16.26,6.7826087 L16.26,13.5217391 C16.26,14.0624248 15.8208336,14.5 15.28,14.5 L13.36,14.5 L13.36,17.8695652 C13.36,18.1337014 13.1450967,18.3478261 12.88,18.3478261 C12.6149033,18.3478261 12.4,18.1337014 12.4,17.8695652 L12.4,14.5 L10.48,14.5 C9.9391664,14.5 9.5,14.0624248 9.5,13.5217391 L9.5,6.7826087 C9.5,6.24192305 9.93916641,5.80434783 10.48,5.80434783 L12.4,5.80434783 Z M10.5,6.80434783 L10.5,13.5 L15.26,13.5 L15.26,6.80434783 L10.5,6.80434783 Z" id="2" fill="#4E5C6E" fill-rule="nonzero"></path>
            <polygon id="Path" fill="#FFFFFF" fill-rule="evenodd" points="10.5 6.80434783 10.5 13.5 15.26 13.5 15.26 6.80434783"></polygon>
            <path d="M21.9,5.80434783 L21.9,1.47826087 C21.9,1.21412468 22.1149033,1 22.38,1 C22.6450967,1 22.86,1.21412468 22.86,1.47826087 L22.86,5.80434783 L24.26,5.80434783 C25.0884271,5.80434783 25.76,6.4759207 25.76,7.30434783 L25.76,16.7826087 C25.76,17.6110358 25.0884271,18.2826087 24.26,18.2826087 L22.86,18.2826087 L22.86,24.5217391 C22.86,24.7858753 22.6450967,25 22.38,25 C22.1149033,25 21.9,24.7858753 21.9,24.5217391 L21.9,18.2826087 L20.5,18.2826087 C19.6715729,18.2826087 19,17.6110358 19,16.7826087 L19,7.30434783 C19,6.4759207 19.6715729,5.80434783 20.5,5.80434783 L21.9,5.80434783 Z M20.5,6.80434783 C20.2238576,6.80434783 20,7.02820545 20,7.30434783 L20,16.7826087 C20,17.0587511 20.2238576,17.2826087 20.5,17.2826087 L24.26,17.2826087 C24.5361424,17.2826087 24.76,17.0587511 24.76,16.7826087 L24.76,7.30434783 C24.76,7.02820545 24.5361424,6.80434783 24.26,6.80434783 L20.5,6.80434783 Z" id="3" fill="#4E5C6E" fill-rule="nonzero"></path>
            <path d="M20.5,6.80434783 C20.2238576,6.80434783 20,7.02820545 20,7.30434783 L20,16.7826087 C20,17.0587511 20.2238576,17.2826087 20.5,17.2826087 L24.26,17.2826087 C24.5361424,17.2826087 24.76,17.0587511 24.76,16.7826087 L24.76,7.30434783 C24.76,7.02820545 24.5361424,6.80434783 24.26,6.80434783 L20.5,6.80434783 Z" id="Path" fill="#FFFFFF" fill-rule="evenodd"></path>
        </g>
        <g id="Icon/setting-26-basic700" transform="translate(85.000000, 1.000000)">
            <rect id="ico-zone" fill-opacity="0" fill="#D8D8D8" fill-rule="evenodd" x="0" y="0" width="26" height="26"></rect>
            <path d="M24.4816,13.9847219 L22.4301875,14.5726797 C21.9448091,14.7120094 21.5637225,15.088807 21.4189081,15.5725773 C21.2548793,16.1136233 21.0388841,16.6375287 20.7739417,17.1369702 C20.5352438,17.5810999 20.5387419,18.1161239 20.7832269,18.5570944 L21.8131763,20.4135194 L20.4134195,21.8131763 L18.5569946,20.783127 C18.3376434,20.6617138 18.0910542,20.5979881 17.840343,20.5979238 C17.5950161,20.5984262 17.3535257,20.6588502 17.1368704,20.7739418 C16.6376316,21.0391676 16.1137644,21.2551747 15.5726771,21.4189082 C15.0887868,21.5637705 14.7119093,21.9449747 14.5725798,22.430487 L13.9847219,24.4816 L12.0152781,24.4816 L11.4271206,22.4296883 C11.287597,21.9441136 10.910547,21.5629251 10.4265242,21.4181094 C9.88568893,21.2545097 9.36205666,21.0386702 8.86302977,20.7736422 C8.64641748,20.6585323 8.40495463,20.5981066 8.15965697,20.5976243 C7.9088669,20.5975651 7.66220688,20.6614809 7.44300545,20.7833267 L5.58648066,21.8129766 L4.1868237,20.4134195 L5.2166733,18.5569946 C5.46054363,18.1167782 5.46430352,17.5828739 5.2266573,17.1392666 C4.96174585,16.639637 4.74575255,16.115569 4.5816909,15.5743744 C4.43735892,15.0899151 4.05602078,14.7124535 3.57011202,14.573079 L1.51840002,13.9847219 L1.51840002,12.0152781 L3.56951298,11.4273203 C4.05498684,11.2880454 4.43618789,10.9112463 4.58109186,10.4274227 C4.74492263,9.88668682 4.96078791,9.36310651 5.2256589,8.86402816 C5.46496661,8.419929 5.46169313,7.88454448 5.21697282,7.4434048 L4.18662402,5.5863808 L5.5865805,4.18702336 L7.44270593,5.21657344 C7.6620813,5.33816474 7.90873857,5.40206203 8.15955713,5.40227584 C8.40485479,5.40179351 8.64631764,5.34136782 8.86292993,5.22625792 C9.36203828,4.96127153 9.88564998,4.74527335 10.4264243,4.58129152 C10.9105547,4.43662007 11.2876939,4.05537941 11.4271206,3.56971264 L12.0150784,1.5184 L13.9848218,1.5184 L14.5725798,3.56981248 C14.711897,4.05508543 15.088613,4.43609044 15.5722778,4.58089216 C16.1132229,4.74484433 16.6370031,4.96084304 17.1362714,5.22585856 C17.3529816,5.34133195 17.5946882,5.40193856 17.8402432,5.40237568 C18.0909272,5.40234689 18.3374929,5.3386184 18.5567949,5.21717248 L20.4138189,4.1871232 L21.8134758,5.58678016 L20.7834265,7.44250624 C20.5392854,7.8829717 20.5355251,8.41727471 20.7734425,8.8611328 C21.0383674,9.36076848 21.2543934,9.88483449 21.4185088,10.426025 C21.5630222,10.9103755 21.9442858,11.2877633 22.4300877,11.4273203 L24.4816,12.0152781 L24.4816,13.9847219 Z M13,17.4928 C14.1915646,17.4928 15.3343259,17.0194528 16.1768893,16.1768893 C17.0194528,15.3343259 17.4928,14.1915646 17.4928,13 C17.4928,10.5186951 15.4813049,8.5072 13,8.5072 C10.5186951,8.5072 8.5072,10.5186951 8.5072,13 C8.5072,15.4813049 10.5186951,17.4928 13,17.4928 Z" id="Path" fill="#FFFFFF" fill-rule="evenodd"></path>
            <path d="M24.7566592,11.0553165 L22.704448,10.4674586 C22.5448596,10.4207612 22.4200205,10.2960351 22.3731789,10.136489 C22.1904507,9.53352627 21.9497091,8.94969446 21.6543309,8.39318272 C21.5753296,8.24756203 21.5758939,8.07174092 21.6558285,7.9266304 L22.6861773,6.071104 C22.902444,5.68148692 22.8343294,5.19572208 22.5192448,4.88061184 L21.1195878,3.48055552 C20.8045876,3.16521975 20.3186047,3.09715605 19.9290957,3.31382272 L18.072471,4.343872 C18.0014266,4.38311006 17.9216028,4.40371861 17.8404429,4.403776 C17.7586278,4.40351282 17.678117,4.38325659 17.6059187,4.34477056 C17.0497238,4.04916169 16.4660678,3.80840987 15.8632115,3.62592256 C15.7039603,3.57886977 15.57945,3.45424669 15.5325414,3.29495296 L14.9446835,1.24344064 C14.8219946,0.81517434 14.4304153,0.520013242 13.9849216,0.52 L12.0150784,0.52 C11.5695847,0.520013242 11.1780054,0.81517434 11.0553165,1.24344064 L10.4674586,3.29485312 C10.4205814,3.45448333 10.2957914,3.57934857 10.1361894,3.62632192 C9.53353499,3.80892593 8.95005578,4.0496738 8.39398145,4.34516992 C8.32185014,4.38364338 8.24140694,4.40389985 8.15965697,4.40417536 C8.07839668,4.40415988 7.99846579,4.38355028 7.92732929,4.34427136 L6.07110402,3.31382272 C5.68159494,3.09715605 5.19561204,3.16521975 4.88061186,3.48055552 L3.48085506,4.88021248 C3.16554372,5.19536479 3.09737771,5.68136849 3.31382274,6.071104 L4.34387202,7.92752896 C4.42381397,8.07288699 4.42407747,8.24898386 4.3445709,8.39458048 C4.04905062,8.95050454 3.80830123,9.53385368 3.6257229,10.1363891 C3.57889532,10.2959791 3.45400026,10.4207236 3.29435394,10.4673587 L1.24324098,11.0553165 C0.814982684,11.1780995 0.519898634,11.5697662 0.520000026,12.0152781 L0.520000026,13.9848218 C0.519968717,14.4303524 0.815138788,14.8219844 1.24344066,14.9446835 L3.29505282,15.5326413 C3.45476874,15.5791232 3.57969555,15.7039371 3.62632194,15.8636109 C3.80910329,16.4665546 4.04984281,17.0503814 4.34516994,17.6069171 C4.42410089,17.7523786 4.42353649,17.9280191 4.34367234,18.0729702 L3.31382274,19.928896 C3.09781054,20.3183919 3.16591232,20.8038615 3.48075522,21.118889 L4.88041218,22.5185459 C5.1954501,22.8337302 5.68122265,22.9019681 6.07090434,22.6857779 L7.92732929,21.656128 C7.99846579,21.6168491 8.07839668,21.5962395 8.15965697,21.596224 C8.24140694,21.5964995 8.32185014,21.616756 8.39398145,21.6552294 C8.95004611,21.9507461 9.53352735,22.1914948 10.1361894,22.3740774 C10.2957914,22.4210508 10.4205814,22.545916 10.4674586,22.7055462 L11.0555162,24.7569587 C11.1783526,25.1850667 11.569896,25.4800378 12.0152781,25.48 L13.9848218,25.48 C14.4303154,25.4799868 14.8218947,25.1848257 14.9445837,24.7565594 L15.5323418,22.7051469 C15.579044,22.5456245 15.7037889,22.4208796 15.8633114,22.3741773 C16.4661315,22.1914987 17.0498024,21.9507545 17.6061184,21.6553293 C17.6782081,21.6168412 17.7586228,21.5965833 17.840343,21.5963238 C17.9216288,21.5961373 18.0016096,21.6167597 18.0726707,21.6562278 L19.928896,22.6861773 C20.3185534,22.9023165 20.8042669,22.8340812 21.1192883,22.5189453 L22.5190451,21.1192883 C22.833888,20.8042609 22.9019898,20.3187913 22.6859776,19.9292954 L21.656128,18.0722714 C21.5762189,17.9271094 21.5758425,17.7512217 21.6551296,17.605719 C21.9505531,17.0494022 22.1912972,16.4657315 22.3739776,15.862912 C22.4211012,15.7034979 22.5458758,15.5788737 22.7053465,15.5319424 L24.7566592,14.9444838 C25.1848859,14.821758 25.4799995,14.4301877 25.48,13.9847219 L25.48,12.0152781 C25.4800886,11.5697383 25.1849571,11.1780627 24.7566592,11.0553165 Z M24.4816,13.9847219 L22.4301875,14.5726797 C21.9448091,14.7120094 21.5637225,15.088807 21.4189081,15.5725773 C21.2548793,16.1136233 21.0388841,16.6375287 20.7739417,17.1369702 C20.5352438,17.5810999 20.5387419,18.1161239 20.7832269,18.5570944 L21.8131763,20.4135194 L20.4134195,21.8131763 L18.5569946,20.783127 C18.3376434,20.6617138 18.0910542,20.5979881 17.840343,20.5979238 C17.5950161,20.5984262 17.3535257,20.6588502 17.1368704,20.7739418 C16.6376316,21.0391676 16.1137644,21.2551747 15.5726771,21.4189082 C15.0887868,21.5637705 14.7119093,21.9449747 14.5725798,22.430487 L13.9847219,24.4816 L12.0152781,24.4816 L11.4271206,22.4296883 C11.287597,21.9441136 10.910547,21.5629251 10.4265242,21.4181094 C9.88568893,21.2545097 9.36205666,21.0386702 8.86302977,20.7736422 C8.64641748,20.6585323 8.40495463,20.5981066 8.15965697,20.5976243 C7.9088669,20.5975651 7.66220688,20.6614809 7.44300545,20.7833267 L5.58648066,21.8129766 L4.1868237,20.4134195 L5.2166733,18.5569946 C5.46054363,18.1167782 5.46430352,17.5828739 5.2266573,17.1392666 C4.96174585,16.639637 4.74575255,16.115569 4.5816909,15.5743744 C4.43735892,15.0899151 4.05602078,14.7124535 3.57011202,14.573079 L1.51840002,13.9847219 L1.51840002,12.0152781 L3.56951298,11.4273203 C4.05498684,11.2880454 4.43618789,10.9112463 4.58109186,10.4274227 C4.74492263,9.88668682 4.96078791,9.36310651 5.2256589,8.86402816 C5.46496661,8.419929 5.46169313,7.88454448 5.21697282,7.4434048 L4.18662402,5.5863808 L5.5865805,4.18702336 L7.44270593,5.21657344 C7.6620813,5.33816474 7.90873857,5.40206203 8.15955713,5.40227584 C8.40485479,5.40179351 8.64631764,5.34136782 8.86292993,5.22625792 C9.36203828,4.96127153 9.88564998,4.74527335 10.4264243,4.58129152 C10.9105547,4.43662007 11.2876939,4.05537941 11.4271206,3.56971264 L12.0150784,1.5184 L13.9848218,1.5184 L14.5725798,3.56981248 C14.711897,4.05508543 15.088613,4.43609044 15.5722778,4.58089216 C16.1132229,4.74484433 16.6370031,4.96084304 17.1362714,5.22585856 C17.3529816,5.34133195 17.5946882,5.40193856 17.8402432,5.40237568 C18.0909272,5.40234689 18.3374929,5.3386184 18.5567949,5.21717248 L20.4138189,4.1871232 L21.8134758,5.58678016 L20.7834265,7.44250624 C20.5392854,7.8829717 20.5355251,8.41727471 20.7734425,8.8611328 C21.0383674,9.36076848 21.2543934,9.88483449 21.4185088,10.426025 C21.5630222,10.9103755 21.9442858,11.2877633 22.4300877,11.4273203 L24.4816,12.0152781 L24.4816,13.9847219 Z" id="Shape" fill="#4E5C6E" fill-rule="nonzero"></path>
            <path d="M13,7.5088 C9.96729398,7.5088 7.5088,9.96729398 7.5088,13 C7.5088,16.032706 9.96729398,18.4912 13,18.4912 C16.032706,18.4912 18.4912,16.032706 18.4912,13 C18.4877887,9.96870812 16.0312919,7.51221133 13,7.5088 Z M13,17.4928 C10.5186951,17.4928 8.5072,15.4813049 8.5072,13 C8.5072,10.5186951 10.5186951,8.5072 13,8.5072 C15.4813049,8.5072 17.4928,10.5186951 17.4928,13 C17.4928,14.1915646 17.0194528,15.3343259 16.1768893,16.1768893 C15.3343259,17.0194528 14.1915646,17.4928 13,17.4928 Z" id="Shape" fill="#4E5C6E" fill-rule="nonzero"></path>
        </g>
        <g id="Icon/exit-26-basic700" transform="translate(113.000000, 1.000000)">
            <rect id="ico-zone" fill-opacity="0" fill="#D8D8D8" fill-rule="evenodd" x="0" y="0" width="26" height="26"></rect>
            <path d="M19.2456676,5.17101969 C21.6128435,7.15281426 22.98,10.1186755 22.98,13.2846154 C22.98,19.0281158 18.5116479,23.6846154 13,23.6846154 C7.48793472,23.6846154 3.02,19.0285271 3.02,13.2846154 C3.02,10.1187338 4.38698972,7.15313475 6.75342754,5.17278944 C7.00126417,4.96538821 7.04082265,4.58986723 6.84201383,4.33208834 C6.641308,4.07184976 6.2740571,4.03042246 6.02382785,4.23982594 C3.38534593,6.44783041 1.86,9.75607701 1.86,13.2846154 C1.86,19.6914141 6.84726988,24.8846154 13,24.8846154 C19.1523112,24.8846154 24.14,19.6910043 24.14,13.2846154 C24.14,9.75609877 22.6145611,6.44766728 19.9754524,4.23821108 C19.7252646,4.0287544 19.3580052,4.07010387 19.1572479,4.33030009 C18.9583882,4.5880367 18.9978723,4.96356589 19.2456676,5.17101969 Z" id="Shape" fill="#4E5C6E" fill-rule="nonzero"></path>
            <path d="M12.42,1.47966208 L12.42,12.3126456 C12.42,12.6327849 12.6796755,12.8923077 13,12.8923077 C13.3203245,12.8923077 13.58,12.6327849 13.58,12.3126456 L13.58,1.47966208 C13.58,1.1595228 13.3203245,0.9 13,0.9 C12.6796755,0.9 12.42,1.1595228 12.42,1.47966208 Z" id="Shape" fill="#4E5C6E" fill-rule="nonzero"></path>
        </g>
        <g id="login-26-basic-700" transform="translate(113.000000, 29.000000)">
            <g>
                <polygon id="Shape" points="0 0 26 0 26 26 0 26"></polygon>
                <g id="Group" transform="translate(0.000000, 1.000000)" fill="#4E5C6E" fill-rule="nonzero">
                    <path d="M5.176,5.749 C7.158,3.382 10.124,2.015 13.29,2.015 C19.034,2.015 23.69,6.483 23.69,11.995 C23.69,17.507 19.034,21.975 13.29,21.975 C10.124,21.975 7.159,20.608 5.178,18.241 C4.96584406,17.9931634 4.59691359,17.9545136 4.338,18.153 C4.21358846,18.246624 4.13315281,18.3872903 4.11556385,18.5419975 C4.0979749,18.6967047 4.1447806,18.8518373 4.245,18.971 C6.453,21.609 9.761,23.135 13.29,23.135 C19.697,23.135 24.89,18.147 24.89,11.995 C24.89,5.842 19.696,0.855 13.29,0.855 C9.761,0.855 6.453,2.38 4.244,5.019 C4.14367228,5.13803443 4.09669973,5.29308341 4.11409877,5.44778351 C4.1314978,5.60248361 4.21173773,5.74322508 4.336,5.837 C4.593,6.037 4.969,5.997 5.176,5.749 Z" id="Shape"></path>
                    <path d="M14.46,12.174 C14.448743,12.2340397 14.4222261,12.2901727 14.383,12.337 L10.847,15.873 C10.734,15.986 10.31,16.043 10.084,15.816 C9.857,15.59 9.914,15.166 10.027,15.053 L12.511,12.569 L1.177,12.569 C0.803,12.569 0.5,12.309 0.5,11.989 C0.5,11.669 0.803,11.409 1.177,11.409 L12.513,11.409 L10.022,8.918 C9.909,8.805 9.855,8.384 10.081,8.157 C10.308,7.931 10.729,7.985 10.842,8.097 L14.292,11.547 C14.3142338,11.5657068 14.3346572,11.586465 14.353,11.609 L14.378,11.633 C14.408,11.664 14.435,11.718 14.453,11.784 C14.5076827,11.9077061 14.5105637,12.0481555 14.461,12.174 L14.46,12.174 Z" id="Shape"></path>
                </g>
            </g>
        </g>
        <g id="Icon/assets-26-info500" transform="translate(141.000000, 1.000000)">
            <rect id="ico-zone" fill-opacity="0" fill="#D8D8D8" fill-rule="evenodd" x="0" y="0" width="26" height="26"></rect>
            <path d="M24,6.5 L23.5,6.5 L23.5,19.5 C23.5,20.0522847 23.0522847,20.5 22.5,20.5 L3.5,20.5 L3.5,21 C3.50088186,21.8280616 4.17193843,22.4991181 5,22.5 L24,22.5 C24.8280616,22.4991181 25.4991181,21.8280616 25.5,21 L25.5,8 C25.4991181,7.17193843 24.8280616,6.50088186 24,6.5 Z" id="Shape" fill="#7995B9" fill-rule="nonzero"></path>
            <path d="M22.5,18 L22.5,5 C22.4991181,4.17193843 21.8280616,3.50088186 21,3.5 L2,3.5 C1.17193843,3.50088186 0.500881855,4.17193843 0.5,5 L0.5,18 C0.500881855,18.8280616 1.17193843,19.4991181 2,19.5 L21,19.5 C21.8280616,19.4991181 22.4991181,18.8280616 22.5,18 Z M5,17.5 L3,17.5 C2.72385763,17.5 2.5,17.2761424 2.5,17 C2.5,16.7238576 2.72385763,16.5 3,16.5 L5,16.5 C5.27614237,16.5 5.5,16.7238576 5.5,17 C5.5,17.2761424 5.27614237,17.5 5,17.5 Z M11.5,15.5 C9.8457,15.5 8.5,13.7056 8.5,11.5 C8.5,9.2944 9.8457,7.5 11.5,7.5 C13.1543,7.5 14.5,9.2944 14.5,11.5 C14.5,13.7056 13.1543,15.5 11.5,15.5 Z M20,6.5 L18,6.5 C17.7238576,6.5 17.5,6.27614237 17.5,6 C17.5,5.72385763 17.7238576,5.5 18,5.5 L20,5.5 C20.2761424,5.5 20.5,5.72385763 20.5,6 C20.5,6.27614237 20.2761424,6.5 20,6.5 Z" id="Shape" fill="#7995B9" fill-rule="nonzero"></path>
        </g>
        <g id="Icon/assets-26-submit400" transform="translate(141.000000, 29.000000)">
            <rect id="ico-zone" fill-opacity="0" fill="#D8D8D8" fill-rule="evenodd" x="0" y="0" width="26" height="26"></rect>
            <path d="M24,6.5 L23.5,6.5 L23.5,19.5 C23.5,20.0522847 23.0522847,20.5 22.5,20.5 L3.5,20.5 L3.5,21 C3.50088186,21.8280616 4.17193843,22.4991181 5,22.5 L24,22.5 C24.8280616,22.4991181 25.4991181,21.8280616 25.5,21 L25.5,8 C25.4991181,7.17193843 24.8280616,6.50088186 24,6.5 Z" id="Shape" fill="#1F5AF6" fill-rule="nonzero"></path>
            <path d="M22.5,18 L22.5,5 C22.4991181,4.17193843 21.8280616,3.50088186 21,3.5 L2,3.5 C1.17193843,3.50088186 0.500881855,4.17193843 0.5,5 L0.5,18 C0.500881855,18.8280616 1.17193843,19.4991181 2,19.5 L21,19.5 C21.8280616,19.4991181 22.4991181,18.8280616 22.5,18 Z M5,17.5 L3,17.5 C2.72385763,17.5 2.5,17.2761424 2.5,17 C2.5,16.7238576 2.72385763,16.5 3,16.5 L5,16.5 C5.27614237,16.5 5.5,16.7238576 5.5,17 C5.5,17.2761424 5.27614237,17.5 5,17.5 Z M11.5,15.5 C9.8457,15.5 8.5,13.7056 8.5,11.5 C8.5,9.2944 9.8457,7.5 11.5,7.5 C13.1543,7.5 14.5,9.2944 14.5,11.5 C14.5,13.7056 13.1543,15.5 11.5,15.5 Z M20,6.5 L18,6.5 C17.7238576,6.5 17.5,6.27614237 17.5,6 C17.5,5.72385763 17.7238576,5.5 18,5.5 L20,5.5 C20.2761424,5.5 20.5,5.72385763 20.5,6 C20.5,6.27614237 20.2761424,6.5 20,6.5 Z" id="Shape" fill="#1F5AF6" fill-rule="nonzero"></path>
        </g>
        <g id="Icon/transaction-26-info500" transform="translate(169.000000, 1.000000)">
            <rect id="ico-zone" fill-opacity="0" fill="#D8D8D8" fill-rule="evenodd" x="0" y="0" width="26" height="26"></rect>
            <path d="M13,2 C6.92486775,2 2,6.92486775 2,13 C2,19.0751322 6.92486775,24 13,24 C19.0751322,24 24,19.0751322 24,13 C24,10.0826186 22.8410748,7.28472557 20.7781746,5.22182541 C18.7152744,3.15892524 15.9173814,2 13,2 Z M17.64,16.08 L9.02216,16.08 L10.91108,17.96892 C11.0254609,18.0793928 11.0713335,18.2429863 11.0310667,18.3968232 C10.9908,18.5506602 10.8706602,18.6708 10.7168232,18.7110667 C10.5629863,18.7513335 10.3993928,18.7054609 10.28892,18.59108 L7.64892,15.95108 C7.47715195,15.7792601 7.47715195,15.5007399 7.64892,15.32892 L10.28892,12.68892 C10.4615667,12.5221722 10.7359973,12.524557 10.9057202,12.6942798 C11.075443,12.8640027 11.0778278,13.1384333 10.91108,13.31108 L9.02216,15.2 L17.64,15.2 C17.8830053,15.2 18.08,15.3969947 18.08,15.64 C18.08,15.8830053 17.8830053,16.08 17.64,16.08 Z M18.35108,10.67108 L15.71108,13.31108 C15.5384333,13.4778278 15.2640027,13.475443 15.0942798,13.3057202 C14.924557,13.1359973 14.9221722,12.8615667 15.08892,12.68892 L16.97784,10.8 L8.36,10.8 C8.11699471,10.8 7.92,10.6030053 7.92,10.36 C7.92,10.1169947 8.11699471,9.92 8.36,9.92 L16.97784,9.92 L15.08892,8.03108 C14.9221722,7.85843329 14.924557,7.5840027 15.0942798,7.41427983 C15.2640027,7.24455696 15.5384333,7.24217223 15.71108,7.40892 L18.35108,10.04892 C18.5228481,10.2207399 18.5228481,10.4992601 18.35108,10.67108 Z" id="Shape" fill="#7995B9" fill-rule="nonzero" transform="translate(13.000000, 13.000000) scale(-1, -1) rotate(-270.000000) translate(-13.000000, -13.000000) "></path>
        </g>
        <g id="Icon/transaction-26-submit400" transform="translate(169.000000, 29.000000)">
            <rect id="ico-zone" fill-opacity="0" fill="#D8D8D8" fill-rule="evenodd" x="0" y="0" width="26" height="26"></rect>
            <path d="M13,2 C6.92486775,2 2,6.92486775 2,13 C2,19.0751322 6.92486775,24 13,24 C19.0751322,24 24,19.0751322 24,13 C24,10.0826186 22.8410748,7.28472557 20.7781746,5.22182541 C18.7152744,3.15892524 15.9173814,2 13,2 Z M17.64,16.08 L9.02216,16.08 L10.91108,17.96892 C11.0254609,18.0793928 11.0713335,18.2429863 11.0310667,18.3968232 C10.9908,18.5506602 10.8706602,18.6708 10.7168232,18.7110667 C10.5629863,18.7513335 10.3993928,18.7054609 10.28892,18.59108 L7.64892,15.95108 C7.47715195,15.7792601 7.47715195,15.5007399 7.64892,15.32892 L10.28892,12.68892 C10.4615667,12.5221722 10.7359973,12.524557 10.9057202,12.6942798 C11.075443,12.8640027 11.0778278,13.1384333 10.91108,13.31108 L9.02216,15.2 L17.64,15.2 C17.8830053,15.2 18.08,15.3969947 18.08,15.64 C18.08,15.8830053 17.8830053,16.08 17.64,16.08 Z M18.35108,10.67108 L15.71108,13.31108 C15.5384333,13.4778278 15.2640027,13.475443 15.0942798,13.3057202 C14.924557,13.1359973 14.9221722,12.8615667 15.08892,12.68892 L16.97784,10.8 L8.36,10.8 C8.11699471,10.8 7.92,10.6030053 7.92,10.36 C7.92,10.1169947 8.11699471,9.92 8.36,9.92 L16.97784,9.92 L15.08892,8.03108 C14.9221722,7.85843329 14.924557,7.5840027 15.0942798,7.41427983 C15.2640027,7.24455696 15.5384333,7.24217223 15.71108,7.40892 L18.35108,10.04892 C18.5228481,10.2207399 18.5228481,10.4992601 18.35108,10.67108 Z" id="Shape" fill="#1F5AF6" fill-rule="nonzero" transform="translate(13.000000, 13.000000) scale(-1, -1) rotate(-270.000000) translate(-13.000000, -13.000000) "></path>
        </g>
        <g id="Icon/portfolio-26-info500" transform="translate(197.000000, 1.000000)">
            <rect id="ico-zone" fill-opacity="0" fill="#D8D8D8" fill-rule="evenodd" x="0" y="0" width="26" height="26"></rect>
            <path d="M22.68,6.47826087 L17.84,6.47826087 L17.84,5.17391304 C17.8385937,3.9738701 16.8544435,3.00138963 15.64,3 L10.36,3 C9.14555654,3.00138963 8.16140631,3.9738701 8.16,5.17391304 L8.16,6.47826087 L3.32,6.47826087 C2.59130582,6.4790277 2.00077603,7.06255515 2,7.7826087 L2,21.6956522 C2.00077603,22.4157057 2.59130582,22.9992332 3.32,23 L22.68,23 C23.4086942,22.9992332 23.999224,22.4157057 24,21.6956522 L24,7.7826087 C23.999224,7.06255515 23.4086942,6.4790277 22.68,6.47826087 Z M9.04,5.17391304 C9.04077603,4.4538595 9.63130582,3.87033205 10.36,3.86956522 L15.64,3.86956522 C16.3686942,3.87033205 16.959224,4.4538595 16.96,5.17391304 L16.96,6.47826087 L9.04,6.47826087 L9.04,5.17391304 Z M20.04,18.6521739 L5.96,18.6521739 C5.71699471,18.6521739 5.52,18.4575151 5.52,18.2173913 C5.52,17.9772675 5.71699471,17.7826087 5.96,17.7826087 L20.04,17.7826087 C20.2830053,17.7826087 20.48,17.9772675 20.48,18.2173913 C20.48,18.4575151 20.2830053,18.6521739 20.04,18.6521739 Z M20.04,15.173913 L5.96,15.173913 C5.71699471,15.173913 5.52,14.9792542 5.52,14.7391304 C5.52,14.4990066 5.71699471,14.3043478 5.96,14.3043478 L20.04,14.3043478 C20.2830053,14.3043478 20.48,14.4990066 20.48,14.7391304 C20.48,14.9792542 20.2830053,15.173913 20.04,15.173913 Z M20.04,11.6956522 L5.96,11.6956522 C5.71699471,11.6956522 5.52,11.5009934 5.52,11.2608696 C5.52,11.0207458 5.71699471,10.826087 5.96,10.826087 L20.04,10.826087 C20.2830053,10.826087 20.48,11.0207458 20.48,11.2608696 C20.48,11.5009934 20.2830053,11.6956522 20.04,11.6956522 Z" id="portfolio" fill="#7995B9" fill-rule="nonzero"></path>
        </g>
        <g id="Icon/portfolio-26-submit400" transform="translate(197.000000, 29.000000)">
            <rect id="ico-zone" fill-opacity="0" fill="#D8D8D8" fill-rule="evenodd" x="0" y="0" width="26" height="26"></rect>
            <path d="M22.68,6.47826087 L17.84,6.47826087 L17.84,5.17391304 C17.8385937,3.9738701 16.8544435,3.00138963 15.64,3 L10.36,3 C9.14555654,3.00138963 8.16140631,3.9738701 8.16,5.17391304 L8.16,6.47826087 L3.32,6.47826087 C2.59130582,6.4790277 2.00077603,7.06255515 2,7.7826087 L2,21.6956522 C2.00077603,22.4157057 2.59130582,22.9992332 3.32,23 L22.68,23 C23.4086942,22.9992332 23.999224,22.4157057 24,21.6956522 L24,7.7826087 C23.999224,7.06255515 23.4086942,6.4790277 22.68,6.47826087 Z M9.04,5.17391304 C9.04077603,4.4538595 9.63130582,3.87033205 10.36,3.86956522 L15.64,3.86956522 C16.3686942,3.87033205 16.959224,4.4538595 16.96,5.17391304 L16.96,6.47826087 L9.04,6.47826087 L9.04,5.17391304 Z M20.04,18.6521739 L5.96,18.6521739 C5.71699471,18.6521739 5.52,18.4575151 5.52,18.2173913 C5.52,17.9772675 5.71699471,17.7826087 5.96,17.7826087 L20.04,17.7826087 C20.2830053,17.7826087 20.48,17.9772675 20.48,18.2173913 C20.48,18.4575151 20.2830053,18.6521739 20.04,18.6521739 Z M20.04,15.173913 L5.96,15.173913 C5.71699471,15.173913 5.52,14.9792542 5.52,14.7391304 C5.52,14.4990066 5.71699471,14.3043478 5.96,14.3043478 L20.04,14.3043478 C20.2830053,14.3043478 20.48,14.4990066 20.48,14.7391304 C20.48,14.9792542 20.2830053,15.173913 20.04,15.173913 Z M20.04,11.6956522 L5.96,11.6956522 C5.71699471,11.6956522 5.52,11.5009934 5.52,11.2608696 C5.52,11.0207458 5.71699471,10.826087 5.96,10.826087 L20.04,10.826087 C20.2830053,10.826087 20.48,11.0207458 20.48,11.2608696 C20.48,11.5009934 20.2830053,11.6956522 20.04,11.6956522 Z" id="portfolio" fill="#1F5AF6" fill-rule="nonzero"></path>
        </g>
        <g id="Icon/leasing-26-info500" transform="translate(225.000000, 1.000000)">
            <rect id="ico-zone" fill-opacity="0" fill="#D8D8D8" fill-rule="evenodd" x="0" y="0" width="26" height="26"></rect>
            <path d="M24.5,11 L1.5,11 C1.2,11 1,11.2 1,11.5 L1,18.5 C1,19.9 2.1,21 3.5,21 L22.5,21 C23.9,21 25,19.9 25,18.5 L25,11.5 C25,11.2 24.8,11 24.5,11 Z M4.5,15 L8.5,15 C8.8,15 9,15.2 9,15.5 C9,15.8 8.8,16 8.5,16 L4.5,16 C4.2,16 4,15.8 4,15.5 C4,15.2 4.2,15 4.5,15 Z M11.5,18 L4.5,18 C4.2,18 4,17.8 4,17.5 C4,17.2 4.2,17 4.5,17 L11.5,17 C11.8,17 12,17.2 12,17.5 C12,17.8 11.8,18 11.5,18 Z M20,18 C19.6,18 19.3,17.9 19,17.7 C18.7,17.9 18.4,18 18,18 C16.9,18 16,17.1 16,16 C16,14.9 16.9,14 18,14 C18.4,14 18.7,14.1 19,14.3 C19.3,14.1 19.6,14 20,14 C21.1,14 22,14.9 22,16 C22,17.1 21.1,18 20,18 Z" id="Shape" fill="#7995B9" fill-rule="nonzero"></path>
            <path d="M22.5,5 L3.5,5 C2.1,5 1,6.1 1,7.5 L1,8.5 C1,8.8 1.2,9 1.5,9 L24.5,9 C24.8,9 25,8.8 25,8.5 L25,7.5 C25,6.1 23.9,5 22.5,5 Z" id="Shape" fill="#7995B9" fill-rule="nonzero"></path>
        </g>
        <g id="Icon/leasing-26-submit400" transform="translate(225.000000, 29.000000)">
            <rect id="ico-zone" fill-opacity="0" fill="#D8D8D8" fill-rule="evenodd" x="0" y="0" width="26" height="26"></rect>
            <path d="M24.5,11 L1.5,11 C1.2,11 1,11.2 1,11.5 L1,18.5 C1,19.9 2.1,21 3.5,21 L22.5,21 C23.9,21 25,19.9 25,18.5 L25,11.5 C25,11.2 24.8,11 24.5,11 Z M4.5,15 L8.5,15 C8.8,15 9,15.2 9,15.5 C9,15.8 8.8,16 8.5,16 L4.5,16 C4.2,16 4,15.8 4,15.5 C4,15.2 4.2,15 4.5,15 Z M11.5,18 L4.5,18 C4.2,18 4,17.8 4,17.5 C4,17.2 4.2,17 4.5,17 L11.5,17 C11.8,17 12,17.2 12,17.5 C12,17.8 11.8,18 11.5,18 Z M20,18 C19.6,18 19.3,17.9 19,17.7 C18.7,17.9 18.4,18 18,18 C16.9,18 16,17.1 16,16 C16,14.9 16.9,14 18,14 C18.4,14 18.7,14.1 19,14.3 C19.3,14.1 19.6,14 20,14 C21.1,14 22,14.9 22,16 C22,17.1 21.1,18 20,18 Z" id="Shape" fill="#1F5AF6" fill-rule="nonzero"></path>
            <path d="M22.5,5 L3.5,5 C2.1,5 1,6.1 1,7.5 L1,8.5 C1,8.8 1.2,9 1.5,9 L24.5,9 C24.8,9 25,8.8 25,8.5 L25,7.5 C25,6.1 23.9,5 22.5,5 Z" id="Shape" fill="#1F5AF6" fill-rule="nonzero"></path>
        </g>
    </g>
</svg>