<svg xmlns="http://www.w3.org/2000/svg" width="14" height="14" viewBox="0 0 14 14">
    <path fill="#1F5AF6" fill-rule="evenodd" d="M7.391 13.908a.875.875 0 0 1-.782 0A14.019 14.019 0 0 1 3.974 12.1C2.27 10.61 1.225 8.91 1.225 7V2.713c0-.365.226-.692.568-.82l4.9-1.837a.875.875 0 0 1 .614 0l4.9 1.837a.875.875 0 0 1 .568.82V7c0 1.91-1.046 3.61-2.749 5.1a14.019 14.019 0 0 1-2.635 1.808zM5.355 6.71a.75.75 0 0 0-1.06 1.06l1.5 1.5a.75.75 0 0 0 1.06 0l3-3a.75.75 0 0 0-1.06-1.06l-2.47 2.47-.97-.97z"/>
</svg>
