<svg xmlns="http://www.w3.org/2000/svg" width="90" height="90"><defs><linearGradient id="a" x1="50.066%" x2="50.066%" y1=".043%" y2="100.043%"><stop offset=".143%" stop-color="#DFE8FF"/><stop offset="56.9%" stop-color="#CAD9FF" stop-opacity=".5"/><stop offset="57.16%" stop-color="#C7D7FF" stop-opacity=".506"/><stop offset="60.74%" stop-color="#9DB8FF" stop-opacity=".584"/><stop offset="64.4%" stop-color="#7B9FFF" stop-opacity=".663"/><stop offset="68.1%" stop-color="#608CFF" stop-opacity=".744"/><stop offset="71.86%" stop-color="#4D7EFF" stop-opacity=".826"/><stop offset="75.72%" stop-color="#4276FF" stop-opacity=".91"/><stop offset="79.83%" stop-color="#3E73FF"/></linearGradient><linearGradient id="b" x1="49.845%" x2="49.845%" y1="-.074%" y2="99.926%"><stop offset=".143%" stop-color="#DFE8FF"/><stop offset="56.9%" stop-color="#CAD9FF" stop-opacity=".5"/><stop offset="57.16%" stop-color="#C7D7FF" stop-opacity=".506"/><stop offset="60.74%" stop-color="#9DB8FF" stop-opacity=".584"/><stop offset="64.4%" stop-color="#7B9FFF" stop-opacity=".663"/><stop offset="68.1%" stop-color="#608CFF" stop-opacity=".744"/><stop offset="71.86%" stop-color="#4D7EFF" stop-opacity=".826"/><stop offset="75.72%" stop-color="#4276FF" stop-opacity=".91"/><stop offset="79.83%" stop-color="#3E73FF"/></linearGradient></defs><g fill="none"><path fill="#CAD9FF" d="M89.076 14.095a1.11 1.11 0 00-1.06-1.163l-2.738-.137c-.103-.035-.343-.103-.308-.343 0-.034 0-.034.034-.068l3.627-.308c.616-.034 1.061-.582 1.027-1.198-.034-.616-.582-1.06-1.198-1.026l-4.209.342c-.068-.034-.103-.103-.137-.205a.26.26 0 01.069-.137l3.9-.924c.617-.137.959-.753.822-1.335l-.068-.274c-.137-.616-.753-.958-1.335-.82l-4.415 1.026h-.034c-1.232.308-2.19.684-2.806.821-.205.068-.41.034-.513-.068l-.069-.069.308-2.703a1.116 1.116 0 00-.992-1.232l-.274-.034a1.116 1.116 0 00-1.232.992l-.102.89c-.24 1.334-.445 4.859-1.027 6.057-.65 1.266-8.487 12.935-10.437 16.597-1.95 3.695-2.567 7.494 2.498 7.939 1.506.137 2.977-.103 5.475-5.818 2.806-6.399 7.015-14.578 7.015-14.578s.069-.342.822-.513a17.51 17.51 0 002.6-.924l3.525.205c.685.103 1.198-.376 1.232-.992z"/><path fill="#7599FA" d="M80.692 13.274c-.034 0-.068 0-.137-.034-.171-.069-.274-.274-.205-.445.89-2.225-.308-3.388-.308-3.388a.366.366 0 01-.034-.48.366.366 0 01.479-.033c.068.068 1.54 1.471.479 4.14-.034.171-.137.24-.274.24z"/><path fill="#3E73FF" d="M41.459 8.765l36.359 32.753-32.753 36.359L8.707 45.124z"/><path fill="#1F5AF6" d="M10.643 42.943L46.71 76.034l-1.643 1.848L8.692 45.133zM26.076 82.57l2.977.89-.753-2.977z"/><path fill="#084DFF" d="M29.395 40.992c-.205.343.206.787.548.548.89-.548 2.259-1.13 3.901-1.13 1.54 0 2.738.411 3.525.856.376.205.753-.24.513-.582-.753-1.129-2.19-2.327-4.414-2.121-2.156.17-3.388 1.334-4.073 2.43zm20.122.035c-.24.342.24.752.582.513.89-.616 2.19-1.164 3.661-1.027a8.022 8.022 0 013.046.924c.377.206.787-.17.582-.513-.582-.89-1.643-1.916-3.422-2.122-2.259-.24-3.628.924-4.449 2.225zm-12.935 9.992s0-1.027 1.369-.342c1.266.616 4.106.684 7.528.684 3.422 0 4.449-1.026 5.475-1.026 1.027 0 1.37.684 1.37 1.368 0 .685-.72 6.229-7.221 6.229-6.502 0-8.863-4.518-8.521-6.913z"/><path fill="#CAD9FF" d="M38.19 50.78s.753 2.908 6.228 2.908c5.476 0 5.886-1.916 6.228-3.32-.034-.033-2.908.959-6.365.993-2.395.034-5.338-.274-6.09-.582z"/><ellipse cx="33.468" cy="46.399" fill="url(#a)" opacity=".1" rx="5.475" ry="3.764"/><ellipse cx="55.061" cy="46.125" fill="url(#b)" opacity=".1" rx="5.475" ry="3.764"/><path fill="#7599FA" d="M26.076 82.57L1.471 75.11C.548 74.837 0 73.844.274 72.886l4.86-16.05c.273-.923 1.265-1.471 2.223-1.197l24.605 7.46c.924.274 1.471 1.266 1.198 2.224l-4.86 16.05c-.273.924-1.266 1.471-2.224 1.197z"/><path fill="#3066F6" d="M6.844 51.259L4.21 59.95s2.122 9.479 11.43 12.011 15.673-1.643 16.7-3.935c.581-1.848 2.498-8.248 2.498-8.248L6.844 51.26zm28.016 8.49l4.322 1.312-.596 1.964-4.323-1.312z"/><path fill="#1F5AF6" d="M30.798 83.973l-1.745-.513c-.718-.205-1.095-.958-.89-1.677l6.297-20.737c.205-.719.958-1.095 1.677-.89l1.745.513c.719.206 1.095.958.89 1.677l-6.297 20.738a1.309 1.309 0 01-1.677.89z"/><path fill="#CAD9FF" d="M14.544 80.757a39.624 39.624 0 01-6.605-1.061c-.137-.034-.24-.069-.376-.069C6.98 75.897 6.502 67 8.692 59.471c1.506-5.133 4.654-10.129 6.468-12.387.068.034 1.54 1.437 1.984 1.813 1.267 1.13 1.951 1.78 2.396 2.19.41.343.924.788 1.266 1.13-2.327 2.293-4.38 6.057-5.68 10.54-2.772 9.581-1.198 14.475-.48 17.965l-.102.035z"/><path fill="#CAD9FF" d="M15.365 79.388s2.532.17 3.388 1.403c.855 1.232.068 1.916-.616 1.916-.685.034.376 2.43-1.061 3.149-1.437.718-6.4-.411-7.22-1.198-2.567-2.498-2.464-5.852-2.464-5.852l7.973.582z"/><path fill="#CAD9FF" d="M10.335 81.989c2.635 1.026 6.262.65 7.939-1.711.205.136.376.308.513.479.856 1.232.069 1.916-.616 1.916-.684.034.377 2.43-1.06 3.148-1.438.719-6.4-.41-7.221-1.197-1.54-1.506-2.122-3.32-2.327-4.518.718.822 1.642 1.438 2.772 1.883z"/><path fill="#1F5AF6" d="M27.582 36.27a1.2 1.2 0 01-.958-.48c-.411-.512-.308-1.265.205-1.676.205-.137 4.86-3.662 10.78-2.943.65.069 1.129.685 1.06 1.335-.068.65-.684 1.129-1.334 1.06-4.928-.581-9 2.43-9.035 2.464-.205.172-.444.24-.718.24zm30.628-1.164c-.24 0-.446-.068-.651-.205-.069-.034-3.49-2.258-7.46-1.54-.65.137-1.266-.308-1.403-.958-.137-.65.308-1.266.958-1.403 4.962-.924 9.068 1.78 9.24 1.882.547.377.684 1.095.342 1.677-.24.342-.616.547-1.027.547z"/><path fill="#7599FA" d="M28.198 57.726l-1.3-.41c.513-1.711-.617-3.594-2.533-4.175a4.058 4.058 0 00-2.772.17 3.137 3.137 0 00-1.677 1.883l-1.3-.41c.376-1.198 1.198-2.157 2.395-2.738a5.285 5.285 0 013.765-.274c2.635.89 4.175 3.525 3.422 5.954z"/></g></svg>
