<svg xmlns="http://www.w3.org/2000/svg" xmlns:xlink="http://www.w3.org/1999/xlink" width="188" height="183" viewBox="0 0 188 183">
  <defs>
    <path id="null_tx_2-b" d="M10.1754386,0.761171608 L109.488679,14.8574076 C114.72085,15.6580819 118.962363,19.3144997 118.962363,23.0185521 L118.962363,47.7612253 C118.962363,51.4652778 114.72085,55.1163362 109.488679,55.9104284 L10.877193,66.3782195 C5.64502167,67.0464635 6.40756185e-16,62.6548877 0,55.7093667 L0,11.4192945 C6.05810018e-16,4.47377342 4.94326728,0.0869886901 10.1754386,0.761171608 Z"/>
    <filter id="null_tx_2-a" width="204.2%" height="288.6%" x="-52.1%" y="-65.4%" filterUnits="objectBoundingBox">
      <feOffset dy="19" in="SourceAlpha" result="shadowOffsetOuter1"/>
      <feGaussianBlur in="shadowOffsetOuter1" result="shadowBlurOuter1" stdDeviation="17.5"/>
      <feColorMatrix in="shadowBlurOuter1" values="0 0 0 0 0.226735433   0 0 0 0 0.437054197   0 0 0 0 0.687818878  0 0 0 0.189056839 0"/>
    </filter>
  </defs>
  <g fill="none" fill-rule="evenodd" transform="translate(34 13)">
    <g transform="translate(.519 125.382)">
      <rect width="118.962" height="44.07" fill="#FFF" rx="13.5"/>
      <rect width="66.632" height="4.62" x="41.404" y="9.123" fill="#1B3554" opacity=".3" rx="2.31"/>
      <rect width="49.074" height="4.62" x="41.404" y="17.544" fill="#1B3554" opacity=".3" rx="2.31"/>
      <rect width="19.055" height="4.62" x="41.404" y="30.175" fill="#1B3554" opacity=".15" rx="2.31"/>
      <ellipse cx="21.341" cy="16.394" fill="#BAC2CB" rx="10.815" ry="10.78"/>
      <path fill="#FFF" fill-rule="nonzero" d="M19.6066217,20.3933783 C19.8124164,20.5991729 20.0813705,20.701807 20.3508509,20.701807 C20.6203313,20.701807 20.8892854,20.5991729 21.09508,20.3933783 L26.3583695,15.1300888 C26.7694324,14.7190259 26.7694324,14.0526934 26.3583695,13.6416305 C25.9473066,13.2305676 25.2809741,13.2305676 24.8699112,13.6416305 L20.3508509,18.1601645 L17.9371063,15.7469463 C17.5260434,15.3358834 16.859711,15.3358834 16.4486481,15.7469463 C16.0375852,16.1580092 16.0375852,16.8243417 16.4486481,17.2354046 L19.6066217,20.3933783 Z"/>
    </g>
    <g transform="translate(.519 74.156)">
      <rect width="118.962" height="44.07" fill="#FFF" rx="13.5"/>
      <rect width="66.632" height="4.62" x="41.404" y="9.123" fill="#1B3554" opacity=".3" rx="2.31"/>
      <rect width="49.074" height="4.62" x="41.404" y="17.544" fill="#1B3554" opacity=".3" rx="2.31"/>
      <rect width="19.055" height="4.62" x="41.404" y="30.175" fill="#1B3554" opacity=".15" rx="2.31"/>
      <ellipse cx="21.341" cy="16.394" fill="#BAC2CB" rx="10.815" ry="10.78"/>
      <path fill="#FFF" fill-rule="nonzero" d="M19.6066217,20.3933783 C19.8124164,20.5991729 20.0813705,20.701807 20.3508509,20.701807 C20.6203313,20.701807 20.8892854,20.5991729 21.09508,20.3933783 L26.3583695,15.1300888 C26.7694324,14.7190259 26.7694324,14.0526934 26.3583695,13.6416305 C25.9473066,13.2305676 25.2809741,13.2305676 24.8699112,13.6416305 L20.3508509,18.1601645 L17.9371063,15.7469463 C17.5260434,15.3358834 16.859711,15.3358834 16.4486481,15.7469463 C16.0375852,16.1580092 16.0375852,16.8243417 16.4486481,17.2354046 L19.6066217,20.3933783 Z"/>
    </g>
    <g transform="translate(.519 .47)">
      <use fill="#000" filter="url(#null_tx_2-a)" xlink:href="#null_tx_2-b"/>
      <use fill="#FFF" xlink:href="#null_tx_2-b"/>
      <path fill="#1B3554" d="M43.7134107 20.9605664L105.725184 25.2723637C107.000907 25.365523 108.035086 26.2373509 108.035086 27.2194832 108.035086 28.2016155 107.000907 28.948971 105.725184 28.8888532L43.7134107 26.1060994C42.4376871 26.051722 41.4035088 24.8437617 41.4035088 23.4079398 41.4035088 21.9721179 42.4376871 20.8763186 43.7134107 20.9605664zM43.7134107 30.3399267L88.1672913 31.4177428C89.4430149 31.4498049 90.4771932 32.3727209 90.4771932 33.4790764 90.4771932 34.5854318 89.4430149 35.4823915 88.1672913 35.4824912L43.7134107 35.4854597C42.4376871 35.4855304 41.4035088 34.3216235 41.4035088 32.8858016 41.4035088 31.4499797 42.4376871 30.3101271 43.7134107 30.3399267z" opacity=".3"/>
      <path fill="#1B3554" d="M43.7134107,44.4089671 L58.1481845,43.814251 C59.4239081,43.7610033 60.4580864,44.7805287 60.4580864,46.0915257 C60.4580864,47.4025228 59.4239081,48.5334434 58.1481845,48.6173486 L43.7134107,49.5545002 C42.4376871,49.6362431 41.4035088,48.5384162 41.4035088,47.1025943 C41.4035088,45.6667724 42.4376871,44.4608397 43.7134107,44.4089671 Z" opacity=".15"/>
      <path fill="#A4EC9B" d="M22.8552633,41.6313506 C29.6643529,41.4879136 35.1842107,35.7022178 35.1842107,28.7102237 C35.1842107,21.7182295 29.6643529,15.6618841 22.8552633,15.1881598 C16.0461736,14.7201378 10.5263158,20.5103335 10.5263158,28.1157616 C10.5263158,35.7211897 16.0461736,41.7730353 22.8552633,41.6313506 Z"/>
      <path fill="#FFF" fill-rule="nonzero" d="M20.877966,33.3010962 C21.1125741,33.5567381 21.4191848,33.6852366 21.7263955,33.6871081 C22.0336062,33.6889805 22.3402168,33.5647441 22.574825,33.3136185 L28.5750338,27.0289742 C29.0436501,26.5493926 29.0436501,25.7494322 28.5750338,25.239071 C28.1064175,24.7270974 27.346791,24.6984987 26.8781747,25.1781273 L21.7263955,30.5576912 L18.9746997,27.5129502 C18.5060834,26.9888488 17.746457,26.9673594 17.2778407,27.467837 C16.8092244,27.969919 16.8092244,28.80395 17.2778407,29.3280168 L20.877966,33.3010962 Z"/>
    </g>
  </g>
</svg>
