<svg xmlns="http://www.w3.org/2000/svg" width="50" height="52" viewBox="0 0 50 52">
  <g fill="none" fill-rule="evenodd" transform="translate(0 .008)">
    <path fill="#EAEAEA" d="M9.37806093,25.009836 C9.37806093,24.647768 9.54264792,24.4247452 9.79050967,24.387809 C9.92820738,24.3676567 10.0907733,24.4038899 10.2654071,24.5046807 L14.7714118,27.1056473 C15.2617458,27.3890978 15.6587581,28.0742765 15.6587581,28.6364909 L15.6587581,29.2135267 C15.6587581,29.4607147 15.5821617,29.6434036 15.4538664,29.7461863 C15.2913298,29.8765026 15.0461336,29.8772056 14.7714118,29.7186819 L10.2654071,27.1177153 C9.77504394,26.8342355 9.37806093,26.1490861 9.37806093,25.5868424 L9.37806093,25.009836 Z M0.261980082,14.4690041 L0.0550966608,14.3487639 L0,37.421406 L24.9817223,51.9395665 L24.982396,51.7299883 L25.0367897,28.8669244 L0.261980082,14.4690041 Z"/>
    <path fill="#E2E2E2" d="M34.2734974,10.7838576 C34.2734974,10.4217897 34.4380844,10.1987668 34.6859461,10.1618307 C34.8236438,10.1416784 34.9862097,10.1779408 35.1608436,10.2787024 L39.6668483,12.879669 C40.1571822,13.1631488 40.5541945,13.8482982 40.5541945,14.4105419 L40.5541945,14.9875483 C40.5541945,15.2347657 40.4776274,15.4174546 40.3493029,15.5202373 C40.1867663,15.6505536 39.94157,15.6512273 39.6668483,15.4927036 L35.1608436,12.891737 C34.6704804,12.6082865 34.2734974,11.9231078 34.2734974,11.3608641 L34.2734974,10.7838576 Z M25.1574165,0.243025776 L24.9505331,0.122785589 L24.8954364,23.1954569 L49.8771588,37.7136175 L49.8778325,37.5040393 L49.9322261,14.6409461 L25.1574165,0.243025776 Z"/>
    <path fill="#C9C9C9" d="M40.3478207,15.5181839 C40.1852548,15.6485003 39.9400879,15.649174 39.6653368,15.4906503 L35.1593615,12.8896837 C34.6689982,12.6062039 34.2720152,11.9210545 34.2720152,11.3588108 L34.2720152,10.7818043 C34.2720152,10.4197364 34.4365729,10.1967135 34.6844347,10.1597774 C34.5561394,10.26256 34.4795723,10.4452783 34.4795723,10.6924663 L34.4795723,11.2694728 C34.4795723,11.8317165 34.8765554,12.5168951 35.3669186,12.8003456 L39.872894,15.4013122 C40.0475571,15.5020738 40.210123,15.5383363 40.3478207,15.5181839"/>
    <polygon fill="#EDEDED" points="49.937 37.664 24.956 51.992 25.011 28.855 49.992 14.527"/>
    <polygon fill="#E6E6E6" points="25.014 28.502 25.014 28.869 .052 14.353 .371 14.17"/>
    <polygon fill="#E6E6E6" points="49.753 14.384 49.753 14.385 49.752 14.388 49.706 14.565 49.673 14.693 49.374 14.521 25.005 .461 24.817 .353 24.974 .081 25.289 .263 39.647 8.551 49.682 14.343 49.703 14.355"/>
    <polygon fill="#E6E6E6" points="25.192 .203 24.877 .385 .411 14.5 .285 14.219 24.877 .021"/>
    <polygon fill="#E6E6E6" points="49.995 14.531 29.747 26.152 24.939 28.912 24.935 28.914 24.935 28.548 29.431 25.968 49.302 14.56 49.671 14.336"/>
    <path fill="#F2F2F2" d="M15.4538723,29.7461921 C15.2913357,29.8765085 15.0461394,29.8772115 14.7714177,29.7186878 L10.265413,27.1177211 C9.77504979,26.8342414 9.37806678,26.1490627 9.37806678,25.5868483 L9.37806678,25.0098418 C9.37806678,24.6477446 9.54262449,24.424751 9.79048623,24.3877856 C9.66219098,24.4905682 9.5856239,24.6732865 9.5856239,24.9204745 L9.5856239,25.497481 C9.5856239,26.059754 9.98260691,26.7449033 10.4729701,27.0283831 L14.9789748,29.6293204 C15.1536087,29.730082 15.3161746,29.7663445 15.4538723,29.7461921"/>
  </g>
</svg>
