<svg xmlns="http://www.w3.org/2000/svg" width="8" height="8" viewBox="0 0 8 8">
  <path fill="#999" fill-rule="evenodd" d="M4.39715148,3.9994289 L7.91818523,7.52027413 C8.02727159,7.62992576 8.02727159,7.80810965 7.91818523,7.91776128 C7.80852773,8.02741291 7.63033429,8.02741291 7.52067679,7.91776128 L4.00021417,4.39691605 L0.479180424,7.91776128 C0.369522926,8.02741291 0.19132949,8.02741291 0.0822431241,7.91776128 C-0.0274143747,7.80810965 -0.0274143747,7.62992576 0.0822431241,7.52027413 L3.60327687,3.9994289 L0.0822431241,0.479725871 C-0.0274143747,0.370074243 -0.0274143747,0.191890348 0.0822431241,0.0822387207 C0.19132949,-0.0274129069 0.369522926,-0.0274129069 0.479180424,0.0822387207 L4.00021417,3.60251285 L7.52067679,0.0822387207 C7.63033429,-0.0274129069 7.80852773,-0.0274129069 7.91818523,0.0822387207 C8.02727159,0.191890348 8.02727159,0.370074243 7.91818523,0.479725871 L4.39715148,3.9994289 L4.39715148,3.9994289 Z"/>
</svg>
