<svg xmlns="http://www.w3.org/2000/svg" width="80" height="80" viewBox="0 0 80 80">
    <g fill="none" fill-rule="evenodd">
        <g fill="#EF4829">
            <path fill-rule="nonzero" d="M74 0H0v74h74V0zm-2.96 20.72H53.28V2.96h17.76v17.76zm-8.88 2.96h2.96v2.96h-2.96v-2.96zM50.32 5.92H38.48V2.96h11.84v2.96zM23.68 17.76V14.8h8.88v12.88H29.6v-9.92h-5.92zm-2.96-14.8v17.76H2.96V2.96h17.76zm50.32 48.911L74 52v22H51v-2.961H23.68V50.32H2.96V23.68h20.72v-2.96h2.96v9.92h8.88v-18.8H23.68V2.96h11.84v5.92h14.8v14.8h8.88v5.92h8.88v-5.92h2.96V51.871zM2.96 53.28h17.76v17.76H2.96V53.28z"/>
            <path d="M63.5 80C54.387 80 47 72.613 47 63.5S54.387 47 63.5 47 80 54.387 80 63.5 72.613 80 63.5 80zm0-3C70.956 77 77 70.956 77 63.5S70.956 50 63.5 50 50 56.044 50 63.5 56.044 77 63.5 77z"/>
            <path fill-rule="nonzero" d="M17.76 5.92H5.92v11.84h11.84V5.92zM14.8 14.8H8.88V8.88h5.92v5.92zM68.08 17.76V5.92H56.24v11.84h11.84zM59.2 8.88h5.92v5.92H59.2V8.88zM5.92 56.24v11.84h11.84V56.24H5.92zm8.88 8.88H8.88V59.2h5.92v5.92zM35.08 55.2h-7.44v8.88h16.32V51.8h-8.88v3.4zm2.96-.44H41v6.36H30.6v-2.96h7.44v-3.4zM59.2 44.36h8.88v-11.8H59.2v11.8zm2.96-8.84h2.96v5.88h-2.96v-5.88zM14.8 26.64H5.92v14.8h14.8v-8.88H14.8v-5.92zm2.96 8.88v2.96H8.88V29.6h2.96v5.92h5.92zM54.289 46.232v-8.88h-14.8v11.8h8.88v-2.92h5.92zm-8.88-.04h-2.96v-5.88h8.88v2.96h-5.92v2.92zM47.36 14.8h-8.88v8.88h8.88V14.8zm-2.96 5.92h-2.96v-2.96h2.96v2.96zM35.52 35.52H23.68v11.84h11.84V35.52zm-2.96 8.88h-5.92v-5.92h5.92v5.92zM57.24 26.64H39.48v8.88h17.76v-8.88zm-2.96 5.92H42.44V29.6h11.84v2.96z"/>
            <path d="M5.92 44.4h14.8v2.96H5.92zM27.5 66.4H44v2.96H27.5z"/>
        </g>
        <path fill="#EF4829" d="M63.503 61.382l4.243-4.243a1.5 1.5 0 0 1 2.121 2.122l-4.242 4.242 4.242 4.243a1.5 1.5 0 0 1-2.121 2.121l-4.243-4.242-4.242 4.242a1.5 1.5 0 0 1-2.122-2.121l4.243-4.243-4.243-4.242a1.5 1.5 0 1 1 2.122-2.122l4.242 4.243z"/>
    </g>
</svg>
