<?xml version="1.0" encoding="UTF-8"?>
<svg width="14px" height="14px" viewBox="0 0 14 14" version="1.1" xmlns="http://www.w3.org/2000/svg" xmlns:xlink="http://www.w3.org/1999/xlink">
    <!-- Generator: Sketch 57.1 (83088) - https://sketch.com -->
    <title>plus</title>
    <desc>Created with Sketch.</desc>
    <g id="plus" stroke="none" stroke-width="1" fill="none" fill-rule="evenodd">
        <path d="M7.17777778,1 C7.60426433,1 7.95,1.34573567 7.95,1.77222222 L7.949,6.25 L12.6055556,6.25 C13.0197691,6.25 13.3555556,6.58578644 13.3555556,7 C13.3555556,7.41421356 13.0197691,7.75 12.6055556,7.75 L7.949,7.75 L7.95,12.2277778 C7.95,12.6542643 7.60426433,13 7.17777778,13 C6.75129122,13 6.40555556,12.6542643 6.40555556,12.2277778 L6.405,7.75 L1.75,7.75 C1.33578644,7.75 1,7.41421356 1,7 C1,6.58578644 1.33578644,6.25 1.75,6.25 L6.405,6.25 L6.40555556,1.77222222 C6.40555556,1.34573567 6.75129122,1 7.17777778,1 Z" id="Combined-Shape" fill="#7F8FA4"></path>
    </g>
</svg>