<svg xmlns="http://www.w3.org/2000/svg" width="22" height="20" viewBox="0 0 22 20">
  <path fill="#0065D7" d="M20.68,3.47826087 L15.84,3.47826087 L15.84,2.17391304 C15.8385937,0.973870098 14.8544435,0.00138963325 13.64,0 L8.36,0 C7.14555654,0.00138963325 6.16140631,0.973870098 6.16,2.17391304 L6.16,3.47826087 L1.32,3.47826087 C0.591305816,3.4790277 0.000776032805,4.06255515 0,4.7826087 L0,18.6956522 C0.000776032805,19.4157057 0.591305816,19.9992332 1.32,20 L20.68,20 C21.4086942,19.9992332 21.999224,19.4157057 22,18.6956522 L22,4.7826087 C21.999224,4.06255515 21.4086942,3.4790277 20.68,3.47826087 Z M7.04,2.17391304 C7.04077603,1.4538595 7.63130582,0.870332048 8.36,0.869565217 L13.64,0.869565217 C14.3686942,0.870332048 14.959224,1.4538595 14.96,2.17391304 L14.96,3.47826087 L7.04,3.47826087 L7.04,2.17391304 Z M18.04,15.6521739 L3.96,15.6521739 C3.71699471,15.6521739 3.52,15.4575151 3.52,15.2173913 C3.52,14.9772675 3.71699471,14.7826087 3.96,14.7826087 L18.04,14.7826087 C18.2830053,14.7826087 18.48,14.9772675 18.48,15.2173913 C18.48,15.4575151 18.2830053,15.6521739 18.04,15.6521739 Z M18.04,12.173913 L3.96,12.173913 C3.71699471,12.173913 3.52,11.9792542 3.52,11.7391304 C3.52,11.4990066 3.71699471,11.3043478 3.96,11.3043478 L18.04,11.3043478 C18.2830053,11.3043478 18.48,11.4990066 18.48,11.7391304 C18.48,11.9792542 18.2830053,12.173913 18.04,12.173913 Z M18.04,8.69565217 L3.96,8.69565217 C3.71699471,8.69565217 3.52,8.50099337 3.52,8.26086957 C3.52,8.02074576 3.71699471,7.82608696 3.96,7.82608696 L18.04,7.82608696 C18.2830053,7.82608696 18.48,8.02074576 18.48,8.26086957 C18.48,8.50099337 18.2830053,8.69565217 18.04,8.69565217 Z"/>
</svg>
