<svg xmlns="http://www.w3.org/2000/svg" width="18" height="18" viewBox="0 0 18 18">
    <path fill="#5a81ea" fill-rule="nonzero" d="M5.25 4.25v-.694c0-1.268 1.001-2.306 2.25-2.306h3c1.249 0 2.25 1.038 2.25 2.306v.694H16c.966 0 1.75.784 1.75 1.75v9A1.75 1.75 0 0 1 16 16.75H2A1.75 1.75 0 0 1 .25 15V6c0-.966.784-1.75 1.75-1.75h3.25zm1.5 0h4.5v-.694c0-.451-.342-.806-.75-.806h-3c-.408 0-.75.355-.75.806v.694zm-1.5 1.5H2a.25.25 0 0 0-.25.25v9c0 .138.112.25.25.25h3.25v-9.5zm1.5 0v9.5h4.5v-9.5h-4.5zm6 0v9.5H16a.25.25 0 0 0 .25-.25V6a.25.25 0 0 0-.25-.25h-3.25z"/>
</svg>
