<svg xmlns="http://www.w3.org/2000/svg" width="14" height="14" viewBox="0 0 14 14">
  <g fill="#9BA6B2">
    <path d="M6.42,6.42 L0,6.42 L0,0 L6.42,0 L6.42,6.42 Z M1.17,5.25 L5.25,5.25 L5.25,1.17 L1.17,1.17 L1.17,5.25 Z M14,6.42 L7.58,6.42 L7.58,0 L14,0 L14,6.42 Z M8.75,5.25 L12.83,5.25 L12.83,1.17 L8.75,1.17 L8.75,5.25 Z M6.42,14 L0,14 L0,7.58 L6.42,7.58 L6.42,14 Z M1.17,12.83 L5.25,12.83 L5.25,8.75 L1.17,8.75 L1.17,12.83 Z M14,11.67 L12.83,11.67 L12.83,8.75 L11.67,8.75 L11.67,10.5 L8.17,10.5 L8.17,7.58 L9.33,7.58 L9.33,9.33 L10.5,9.33 L10.5,7.58 L14,7.58 L14,11.67 Z M14,14 L8.17,14 L8.17,11.67 L9.33,11.67 L9.33,12.83 L14,12.83 L14,14 Z"/>
    <path d="M2.33,2.33 L4.08,2.33 L4.08,4.08 L2.33,4.08 L2.33,2.33 Z M9.92,2.33 L11.67,2.33 L11.67,4.08 L9.92,4.08 L9.92,2.33 Z M2.33,9.92 L4.08,9.92 L4.08,11.67 L2.33,11.67 L2.33,9.92 Z"/>
  </g>
</svg>
