<svg xmlns="http://www.w3.org/2000/svg" width="14" height="14" viewBox="0 0 14 14">
    <path fill="#DAE1E9" fill-rule="evenodd" d="M14 5.425c0 .13-.073.27-.219.424l-3.054 3.123.724 4.41c.005.042.008.1.008.177 0 .123-.03.228-.088.313a.292.292 0 0 1-.257.128.657.657 0 0 1-.336-.106L7 11.812l-3.778 2.082a.69.69 0 0 1-.336.106c-.118 0-.206-.043-.265-.128a.538.538 0 0 1-.089-.313c0-.035.006-.094.017-.177l.724-4.41L.21 5.849C.07 5.69 0 5.549 0 5.425c0-.217.157-.353.471-.405l4.224-.644L6.587.362C6.695.12 6.832 0 7 0c.168 0 .306.12.412.362l1.893 4.014 4.224.643c.314.053.471.189.471.406z"/>
</svg>
