<?xml version="1.0" encoding="UTF-8"?>
<svg width="16px" height="16px" viewBox="0 0 16 16" version="1.1" xmlns="http://www.w3.org/2000/svg" xmlns:xlink="http://www.w3.org/1999/xlink">
    <!-- Generator: Sketch 48.2 (47327) - http://www.bohemiancoding.com/sketch -->
    <title>order_cancel</title>
    <desc>Created with Sketch.</desc>
    <defs></defs>
    <g id="Page-1" stroke="none" stroke-width="1" fill="none" fill-rule="evenodd">
        <g id="order_cancel">
            <g>
                <rect id="bg" fill="#E5494D" x="0" y="0" width="16" height="16"></rect>
                <path d="M8.39715148,7.9994289 L11.9181852,11.5202741 C12.0272716,11.6299258 12.0272716,11.8081096 11.9181852,11.9177613 C11.8085277,12.0274129 11.6303343,12.0274129 11.5206768,11.9177613 L8.00021417,8.39691605 L4.47918042,11.9177613 C4.36952293,12.0274129 4.19132949,12.0274129 4.08224312,11.9177613 C3.97258563,11.8081096 3.97258563,11.6299258 4.08224312,11.5202741 L7.60327687,7.9994289 L4.08224312,4.47972587 C3.97258563,4.37007424 3.97258563,4.19189035 4.08224312,4.08223872 C4.19132949,3.97258709 4.36952293,3.97258709 4.47918042,4.08223872 L8.00021417,7.60251285 L11.5206768,4.08223872 C11.6303343,3.97258709 11.8085277,3.97258709 11.9181852,4.08223872 C12.0272716,4.19189035 12.0272716,4.37007424 11.9181852,4.47972587 L8.39715148,7.9994289 Z" id="Shape" fill="#FFFFFF"></path>
            </g>
        </g>
    </g>
</svg>