<svg xmlns="http://www.w3.org/2000/svg" xmlns:xlink="http://www.w3.org/1999/xlink" width="111" height="111" viewBox="0 0 111 111">
  <defs>
    <polygon id="screenshots-a" points="0 111 110.622 111 110.622 .378 0 .378"/>
    <polygon id="screenshots-c" points="0 111.623 110.623 111.623 110.623 1 0 1"/>
  </defs>
  <g fill="none" fill-rule="evenodd" transform="translate(0 -1)">
    <path fill="#005AFA" d="M55.3228,40.8164 C46.7758,40.8164 39.8228,47.7694 39.8228,56.3164 C39.8228,64.8634 46.7758,71.8164 55.3228,71.8164 C63.8698,71.8164 70.8228,64.8634 70.8228,56.3164 C70.8228,47.7694 63.8698,40.8164 55.3228,40.8164 Z M55.3228,74.8164 C45.1218,74.8164 36.8228,66.5174 36.8228,56.3164 C36.8228,46.1154 45.1218,37.8164 55.3228,37.8164 C65.5238,37.8164 73.8228,46.1154 73.8228,56.3164 C73.8228,66.5174 65.5238,74.8164 55.3228,74.8164 Z"/>
    <path fill="#005AFA" d="M55.3228 47.8164C50.6358 47.8164 46.8228 51.6294 46.8228 56.3164 46.8228 61.0034 50.6358 64.8164 55.3228 64.8164 60.0098 64.8164 63.8228 61.0034 63.8228 56.3164 63.8228 51.6294 60.0098 47.8164 55.3228 47.8164M55.3228 67.8164C48.9818 67.8164 43.8228 62.6574 43.8228 56.3164 43.8228 49.9754 48.9818 44.8164 55.3228 44.8164 61.6638 44.8164 66.8228 49.9754 66.8228 56.3164 66.8228 62.6574 61.6638 67.8164 55.3228 67.8164M55.3228 79.3164C56.4268 79.3164 57.3228 80.2124 57.3228 81.3164 57.3228 82.4204 56.4268 83.3164 55.3228 83.3164 54.2188 83.3164 53.3228 82.4204 53.3228 81.3164 53.3228 80.2124 54.2188 79.3164 55.3228 79.3164"/>
    <polygon fill="#005AFA" points="30.32 83.44 28.199 81.319 80.822 28.695 82.944 30.816"/>
    <polygon fill="#FFF" points="27.32 82.44 25.199 80.319 77.822 27.695 79.944 29.816"/>
    <g transform="translate(0 .623)">
      <mask id="screenshots-b" fill="#fff">
        <use xlink:href="#screenshots-a"/>
      </mask>
      <path fill="#005AFA" d="M4.2422,55.6885 L55.3112,106.7575 L106.3802,55.6885 L55.3112,4.6195 L4.2422,55.6885 Z M55.3112,111.0005 L0.0002,55.6885 L55.3112,0.3775 L110.6222,55.6885 L55.3112,111.0005 Z" mask="url(#screenshots-b)"/>
    </g>
    <mask id="screenshots-d" fill="#fff">
      <use xlink:href="#screenshots-c"/>
    </mask>
    <path fill="#005AFA" d="M11.323,18.316 L14.323,18.316 L14.323,16.316 L11.323,16.316 L11.323,18.316 Z M16.323,18.316 L19.323,18.316 L19.323,16.316 L16.323,16.316 L16.323,18.316 Z M21.323,18.316 L24.323,18.316 L24.323,16.316 L21.323,16.316 L21.323,18.316 Z M26.323,18.316 L29.323,18.316 L29.323,16.316 L26.323,16.316 L26.323,18.316 Z M31.323,18.316 L34.323,18.316 L34.323,16.316 L31.323,16.316 L31.323,18.316 Z M36.323,18.316 L39.323,18.316 L39.323,16.316 L36.323,16.316 L36.323,18.316 Z M41.323,18.316 L44.323,18.316 L44.323,16.316 L41.323,16.316 L41.323,18.316 Z M46.323,18.316 L49.323,18.316 L49.323,16.316 L46.323,16.316 L46.323,18.316 Z M51.323,18.316 L54.323,18.316 L54.323,16.316 L51.323,16.316 L51.323,18.316 Z M56.323,18.316 L59.323,18.316 L59.323,16.316 L56.323,16.316 L56.323,18.316 Z M61.323,18.316 L64.323,18.316 L64.323,16.316 L61.323,16.316 L61.323,18.316 Z M66.323,18.316 L69.323,18.316 L69.323,16.316 L66.323,16.316 L66.323,18.316 Z M71.323,18.316 L74.323,18.316 L74.323,16.316 L71.323,16.316 L71.323,18.316 Z M76.323,18.316 L79.323,18.316 L79.323,16.316 L76.323,16.316 L76.323,18.316 Z M81.323,18.316 L84.323,18.316 L84.323,16.316 L81.323,16.316 L81.323,18.316 Z M86.323,18.316 L89.323,18.316 L89.323,16.316 L86.323,16.316 L86.323,18.316 Z M91.323,18.316 L94.323,18.316 L94.323,16.316 L91.323,16.316 L91.323,18.316 Z M96.323,18.316 L99.323,18.316 L99.323,16.316 L96.323,16.316 L96.323,18.316 Z M101.323,18.316 L104.323,18.316 L104.323,16.316 L101.323,16.316 L101.323,18.316 Z M7.323,20.195 L5.323,20.195 L5.323,16.316 L9.323,16.316 L9.323,18.316 L7.323,18.316 L7.323,20.195 Z M103.542,22.097 L105.542,22.097 L105.542,19.097 L103.542,19.097 L103.542,22.097 Z M5.323,25.195 L7.323,25.195 L7.323,22.195 L5.323,22.195 L5.323,25.195 Z M103.542,27.097 L105.542,27.097 L105.542,24.097 L103.542,24.097 L103.542,27.097 Z M5.323,30.195 L7.323,30.195 L7.323,27.195 L5.323,27.195 L5.323,30.195 Z M103.542,32.097 L105.542,32.097 L105.542,29.097 L103.542,29.097 L103.542,32.097 Z M5.323,35.195 L7.323,35.195 L7.323,32.195 L5.323,32.195 L5.323,35.195 Z M103.542,37.097 L105.542,37.097 L105.542,34.097 L103.542,34.097 L103.542,37.097 Z M5.323,40.195 L7.323,40.195 L7.323,37.195 L5.323,37.195 L5.323,40.195 Z M103.542,42.097 L105.542,42.097 L105.542,39.097 L103.542,39.097 L103.542,42.097 Z M5.323,45.195 L7.323,45.195 L7.323,42.195 L5.323,42.195 L5.323,45.195 Z M103.542,47.097 L105.542,47.097 L105.542,44.097 L103.542,44.097 L103.542,47.097 Z M5.323,50.195 L7.323,50.195 L7.323,47.195 L5.323,47.195 L5.323,50.195 Z M103.542,52.097 L105.542,52.097 L105.542,49.097 L103.542,49.097 L103.542,52.097 Z M5.323,55.195 L7.323,55.195 L7.323,52.195 L5.323,52.195 L5.323,55.195 Z M103.542,57.097 L105.542,57.097 L105.542,54.097 L103.542,54.097 L103.542,57.097 Z M5.323,60.195 L7.323,60.195 L7.323,57.195 L5.323,57.195 L5.323,60.195 Z M103.542,62.097 L105.542,62.097 L105.542,59.097 L103.542,59.097 L103.542,62.097 Z M5.323,65.195 L7.323,65.195 L7.323,62.195 L5.323,62.195 L5.323,65.195 Z M103.542,67.097 L105.542,67.097 L105.542,64.097 L103.542,64.097 L103.542,67.097 Z M5.323,70.195 L7.323,70.195 L7.323,67.195 L5.323,67.195 L5.323,70.195 Z M103.542,72.097 L105.542,72.097 L105.542,69.097 L103.542,69.097 L103.542,72.097 Z M5.323,75.195 L7.323,75.195 L7.323,72.195 L5.323,72.195 L5.323,75.195 Z M103.542,77.097 L105.542,77.097 L105.542,74.097 L103.542,74.097 L103.542,77.097 Z M5.323,80.195 L7.323,80.195 L7.323,77.195 L5.323,77.195 L5.323,80.195 Z M103.542,82.097 L105.542,82.097 L105.542,79.097 L103.542,79.097 L103.542,82.097 Z M5.323,85.195 L7.323,85.195 L7.323,82.195 L5.323,82.195 L5.323,85.195 Z M103.542,87.097 L105.542,87.097 L105.542,84.097 L103.542,84.097 L103.542,87.097 Z M5.323,90.195 L7.323,90.195 L7.323,87.195 L5.323,87.195 L5.323,90.195 Z M103.542,92.097 L105.542,92.097 L105.542,89.097 L103.542,89.097 L103.542,92.097 Z M5.323,95.195 L7.323,95.195 L7.323,92.195 L5.323,92.195 L5.323,95.195 Z M7.982,96.536 L10.982,96.536 L10.982,94.536 L7.982,94.536 L7.982,96.536 Z M12.982,96.536 L15.982,96.536 L15.982,94.536 L12.982,94.536 L12.982,96.536 Z M17.982,96.536 L20.982,96.536 L20.982,94.536 L17.982,94.536 L17.982,96.536 Z M22.982,96.536 L25.982,96.536 L25.982,94.536 L22.982,94.536 L22.982,96.536 Z M27.982,96.536 L30.982,96.536 L30.982,94.536 L27.982,94.536 L27.982,96.536 Z M32.982,96.536 L35.982,96.536 L35.982,94.536 L32.982,94.536 L32.982,96.536 Z M37.982,96.536 L40.982,96.536 L40.982,94.536 L37.982,94.536 L37.982,96.536 Z M42.982,96.536 L45.982,96.536 L45.982,94.536 L42.982,94.536 L42.982,96.536 Z M47.982,96.536 L50.982,96.536 L50.982,94.536 L47.982,94.536 L47.982,96.536 Z M52.982,96.536 L55.982,96.536 L55.982,94.536 L52.982,94.536 L52.982,96.536 Z M57.982,96.536 L60.982,96.536 L60.982,94.536 L57.982,94.536 L57.982,96.536 Z M62.982,96.536 L65.982,96.536 L65.982,94.536 L62.982,94.536 L62.982,96.536 Z M67.982,96.536 L70.982,96.536 L70.982,94.536 L67.982,94.536 L67.982,96.536 Z M72.982,96.536 L75.982,96.536 L75.982,94.536 L72.982,94.536 L72.982,96.536 Z M77.982,96.536 L80.982,96.536 L80.982,94.536 L77.982,94.536 L77.982,96.536 Z M82.982,96.536 L85.982,96.536 L85.982,94.536 L82.982,94.536 L82.982,96.536 Z M87.982,96.536 L90.982,96.536 L90.982,94.536 L87.982,94.536 L87.982,96.536 Z M92.982,96.536 L95.982,96.536 L95.982,94.536 L92.982,94.536 L92.982,96.536 Z M97.982,96.536 L100.982,96.536 L100.982,94.536 L97.982,94.536 L97.982,96.536 Z M105.542,96.536 L102.982,96.536 L102.982,94.536 L103.542,94.536 L103.542,94.097 L105.542,94.097 L105.542,96.536 Z" mask="url(#screenshots-d)"/>
  </g>
</svg>
