<svg xmlns="http://www.w3.org/2000/svg" width="80" height="80" viewBox="0 0 80 80">
    <g fill="#5A81EA" fill-rule="evenodd">
        <path d="M77.306 54.46A16.423 16.423 0 0 1 80 63.5C80 72.613 72.613 80 63.5 80c-3.337 0-6.443-.99-9.04-2.694A39.902 39.902 0 0 1 40 80C17.909 80 0 62.091 0 40S17.909 0 40 0s40 17.909 40 40c0 5.1-.954 9.976-2.694 14.46zm-2.214-2.702A36.96 36.96 0 0 0 77 40C77 19.565 60.435 3 40 3S3 19.565 3 40s16.565 37 37 37c4.11 0 8.064-.67 11.758-1.908A16.447 16.447 0 0 1 47 63.5C47 54.387 54.387 47 63.5 47c4.518 0 8.613 1.816 11.592 4.758zM63.5 77C70.956 77 77 70.956 77 63.5S70.956 50 63.5 50 50 56.044 50 63.5 56.044 77 63.5 77z"/>
        <rect width="3" height="42" x="38.734" y="19" rx="1.5" transform="rotate(25 40.234 40)"/>
        <path d="M16.631 39.988l8.83 8.829a1.5 1.5 0 0 1-2.122 2.121l-9.9-9.9a1.5 1.5 0 0 1 .156-2.257l9.76-9.759a1.5 1.5 0 0 1 2.12 2.122l-8.844 8.844zM62.604 45l3.961-3.961a1.5 1.5 0 0 0-.155-2.258l-9.76-9.759a1.5 1.5 0 0 0-2.12 2.122l8.844 8.844-5.743 5.742a16.496 16.496 0 0 1 4.973-.73z"/>
        <path fill-rule="nonzero" d="M58.89 61.872a1.25 1.25 0 1 1-2.357-.834 7.386 7.386 0 0 1 5.333-4.74c2.474-.56 5.062.188 6.826 1.955l3.164 2.973a1.25 1.25 0 0 1-1.712 1.821l-3.192-3a4.886 4.886 0 0 0-8.062 1.825zm-3.746 3.903a1.25 1.25 0 0 1 1.712-1.822l3.192 3a4.886 4.886 0 0 0 8.062-1.824 1.25 1.25 0 1 1 2.357.834 7.386 7.386 0 0 1-5.333 4.74c-2.474.56-5.062-.189-6.826-1.956l-3.164-2.972zm14.606-7.73a1.25 1.25 0 0 1 2.5 0v4.092c0 .69-.56 1.25-1.25 1.25h-4.09a1.25 1.25 0 1 1 0-2.5h2.84v-2.841zm-12.5 10.91a1.25 1.25 0 0 1-2.5 0v-4.091c0-.69.56-1.25 1.25-1.25h4.09a1.25 1.25 0 1 1 0 2.5h-2.84v2.84z"/>
    </g>
</svg>
