<svg xmlns="http://www.w3.org/2000/svg" width="17" height="15" viewBox="0 0 17 15">
  <g fill="#9BA6B2" transform="translate(1 1)">
    <path d="M4.20414618,9.61050525 L3.8726138,9.40037471 L-0.251935076,6.99439346 C-0.605213136,6.78831507 -0.575109642,6.26835652 -0.200409513,6.10442512 L14.7995905,-0.458078625 C15.1871036,-0.627615709 15.5969626,-0.269341646 15.480762,0.137360528 L11.730762,13.2623643 C11.641127,13.5760868 11.2798936,13.7212945 10.9980634,13.5568925 L7.48249143,11.50613 L7.32512558,11.4097119 L5.63458778,13.4445225 C5.35912487,13.7760826 4.82126132,13.6269948 4.75579925,13.2009354 L4.20414618,9.61050525 Z M6.95792085,11.1819839 L6.83411666,10.43586 L6.46471604,10.8804879 L6.95792085,11.1819839 Z M10.946039,12.3688394 L14.2274987,0.883727347 L1.10158261,6.62631892 L4.39199593,8.54602545 L4.93127161,8.88742545 C5.05338716,8.9647333 5.13607661,9.09110038 5.15802531,9.23395333 L5.57546183,11.950836 L6.46471604,10.8804879 L5.92671641,10.5516089 L6.44900535,9.69884069 L7.99118098,10.645162 L10.946039,12.3688394 Z"/>
    <path d="M5.08683428,13.2799296 C5.00766643,13.5332668 4.64035257,13.5049285 4.6009802,13.242446 L4.0384802,9.49244601 C4.02578065,9.40778234 4.05728645,9.32250783 4.1219816,9.26643866 L12.5594816,1.95393491 C12.7936098,1.75102372 13.1147951,2.07106996 12.912717,2.30591758 L6.00892114,10.3292517 L5.08683428,13.2799296 Z M4.55334299,9.55423986 L4.93407506,12.0924537 L5.54709429,10.1307921 L5.59621153,10.0423005 L10.3065372,4.56813567 L4.55334299,9.55423986 Z"/>
  </g>
</svg>
