<svg xmlns="http://www.w3.org/2000/svg" width="15" height="14" viewBox="0 0 15 14">
  <path fill="#9BA6B2" d="M13.2016748,15.6017255 C13.180961,15.8485451 13.0442887,16.0708693 12.8334072,16.2007846 C12.6225257,16.3306999 12.3624869,16.3527729 12.132725,16.260261 L8.32039753,14.7855784 L6.18249794,16.7892741 C6.04195173,16.9243206 5.85463911,16.9998048 5.65972687,16.999943 C5.45338526,17.0024499 5.25465274,16.9221243 5.10800503,16.7769431 C4.96135731,16.6317619 4.87903859,16.4338466 4.87947155,16.2274903 L4.87947155,14.8105466 L10.0291567,8.37500068 C10.1096363,8.27478973 10.1254638,8.13728536 10.069857,8.02141008 C10.0142502,7.9055348 9.89707841,7.8318548 9.76855141,7.83194298 C9.68962813,7.83273532 9.61366969,7.8621207 9.55476145,7.91465004 L3.61701843,12.9644625 L0.488194582,11.7535062 C0.210631536,11.6463174 0.0206838152,11.3875718 0.00158127377,11.0906446 C-0.0175212677,10.7937174 0.137705495,10.5127653 0.399245475,10.3708938 L13.4014202,3.08330907 C13.610057,2.96495265 13.8673687,2.97323857 14.0679585,3.10477286 C14.2685483,3.23630716 14.3787143,3.46899025 14.3533317,3.70751333 L13.2016748,15.6017255 Z" transform="translate(0 -3)"/>
</svg>
