<svg xmlns="http://www.w3.org/2000/svg" width="18" height="18" viewBox="0 0 18 18">
    <g fill="#9BA6B2" fill-rule="nonzero">
        <path d="M9 11.932a2.932 2.932 0 1 0 0-5.864 2.932 2.932 0 0 0 0 5.864zm0-1.5a1.432 1.432 0 1 1 0-2.864 1.432 1.432 0 0 1 0 2.864z"/>
        <path d="M15.422 6.795h.123a2.205 2.205 0 1 1 0 4.41h-.062a.45.45 0 0 0-.412.272.45.45 0 0 0 .081.498l.043.043a2.205 2.205 0 1 1-3.118 3.12l-.038-.038a.453.453 0 0 0-.504-.087.449.449 0 0 0-.272.409v.123a2.205 2.205 0 1 1-4.41 0v-.047c-.003-.185-.12-.348-.338-.43a.447.447 0 0 0-.49.084l-.043.043a2.205 2.205 0 1 1-3.12-3.118l.038-.038a.453.453 0 0 0 .087-.504.449.449 0 0 0-.409-.272h-.123a2.205 2.205 0 1 1 0-4.41h.047c.185-.003.348-.12.43-.338a.447.447 0 0 0-.084-.49l-.043-.043a2.205 2.205 0 1 1 3.118-3.12l.038.038a.45.45 0 0 0 .496.09.75.75 0 0 1 .145-.047.448.448 0 0 0 .193-.365v-.123a2.205 2.205 0 0 1 4.41 0v.062c0 .18.107.341.28.415a.447.447 0 0 0 .49-.084l.043-.043a2.205 2.205 0 1 1 3.12 3.118l-.038.038a.45.45 0 0 0-.09.496.75.75 0 0 1 .047.145c.082.12.219.193.365.193zm.058 2.91h.065a.705.705 0 1 0 0-1.41h-.126a1.95 1.95 0 0 1-1.785-1.181.75.75 0 0 1-.054-.196 1.954 1.954 0 0 1 .453-2.012l.044-.044a.705.705 0 1 0-.998-.997l-.05.05a1.947 1.947 0 0 1-2.143.393A1.951 1.951 0 0 1 9.705 2.52v-.065a.705.705 0 1 0-1.41 0v.126a1.95 1.95 0 0 1-1.181 1.785.75.75 0 0 1-.196.054 1.954 1.954 0 0 1-2.012-.453l-.044-.044a.705.705 0 1 0-.997.998l.05.05c.557.569.711 1.42.407 2.106A1.956 1.956 0 0 1 2.52 8.354h-.065a.705.705 0 0 0 0 1.409h.126a1.947 1.947 0 0 1 1.782 1.174c.321.73.167 1.581-.396 2.157l-.044.044a.705.705 0 1 0 .998.997l.05-.05c.569-.557 1.42-.711 2.106-.407a1.956 1.956 0 0 1 1.277 1.802v.065a.705.705 0 1 0 1.409 0v-.126a1.947 1.947 0 0 1 1.174-1.782 1.953 1.953 0 0 1 2.157.396l.044.044a.705.705 0 1 0 .997-.998l-.05-.05a1.95 1.95 0 0 1-.39-2.146 1.951 1.951 0 0 1 1.785-1.178z"/>
    </g>
</svg>
