<svg xmlns="http://www.w3.org/2000/svg" width="18" height="18" viewBox="0 0 18 18">
    <g fill="none" fill-rule="evenodd">
        <path fill="none" d="M0 0h18v18H0z"/>
        <path fill="#9BA6B2" fill-rule="nonzero" d="M9 5.619a3.385 3.385 0 0 0-3.375 3.375A3.385 3.385 0 0 0 9 12.369a3.385 3.385 0 0 0 3.375-3.375A3.385 3.385 0 0 0 9 5.619zm0 5.625a2.257 2.257 0 0 1-2.25-2.25A2.257 2.257 0 0 1 9 6.744a2.257 2.257 0 0 1 2.25 2.25A2.257 2.257 0 0 1 9 11.244zm8.916-2.532C16.03 5.534 12.684 3.65 9 3.65S1.969 5.534.084 8.712a.558.558 0 0 0 0 .591C1.97 12.453 5.316 14.337 9 14.337s7.031-1.884 8.916-5.062a.51.51 0 0 0 0-.563zM9 13.212a9.178 9.178 0 0 1-7.763-4.218A9.214 9.214 0 0 1 9 4.775a9.214 9.214 0 0 1 7.762 4.219A9.178 9.178 0 0 1 9 13.212z"/>
    </g>
</svg>
