<?xml version="1.0" encoding="UTF-8"?>
<svg width="260px" height="216px" viewBox="0 0 260 216" version="1.1" xmlns="http://www.w3.org/2000/svg" xmlns:xlink="http://www.w3.org/1999/xlink">
    <!-- Generator: Sketch 53.2 (72643) - https://sketchapp.com -->
    <title>Illustration/Slide/userimg-dex-260</title>
    <desc>Created with Sketch.</desc>
    <defs>
        <linearGradient x1="49.9948892%" y1="100.009508%" x2="49.9948892%" y2="-0.00645097261%" id="linearGradient-1">
            <stop stop-color="#C5E3FF" offset="0%"></stop>
            <stop stop-color="#DCF5FF" stop-opacity="0.5" offset="100%"></stop>
        </linearGradient>
        <linearGradient x1="49.2424242%" y1="100.014725%" x2="49.2424242%" y2="0.0455126255%" id="linearGradient-2">
            <stop stop-color="#3FBDFF" offset="0%"></stop>
            <stop stop-color="#0089FF" offset="100%"></stop>
        </linearGradient>
        <linearGradient x1="37.5273543%" y1="62.4790281%" x2="62.5431581%" y2="37.492963%" id="linearGradient-3">
            <stop stop-color="#0082FF" offset="0%"></stop>
            <stop stop-color="#0065FF" offset="100%"></stop>
        </linearGradient>
        <linearGradient x1="55.5709786%" y1="20.2754892%" x2="44.430387%" y2="79.7006303%" id="linearGradient-4">
            <stop stop-color="#0043EA" offset="0%"></stop>
            <stop stop-color="#008EFF" offset="100%"></stop>
        </linearGradient>
        <linearGradient x1="54.2589991%" y1="39.3922581%" x2="45.7388136%" y2="60.5847982%" id="linearGradient-5">
            <stop stop-color="#06A0FF" offset="0%"></stop>
            <stop stop-color="#63C4FF" offset="100%"></stop>
        </linearGradient>
        <filter x="-27.7%" y="-10.2%" width="155.5%" height="120.4%" filterUnits="objectBoundingBox" id="filter-6">
            <feGaussianBlur stdDeviation="1.46627566" in="SourceGraphic"></feGaussianBlur>
        </filter>
        <linearGradient x1="49.08%" y1="99.9702323%" x2="49.08%" y2="-0.0155053974%" id="linearGradient-7">
            <stop stop-color="#88CEFF" offset="0%"></stop>
            <stop stop-color="#0089FF" offset="100%"></stop>
        </linearGradient>
        <linearGradient x1="37.5343994%" y1="62.4850251%" x2="62.5131796%" y2="37.5265034%" id="linearGradient-8">
            <stop stop-color="#0082FF" offset="0%"></stop>
            <stop stop-color="#0065FF" offset="100%"></stop>
        </linearGradient>
        <linearGradient x1="58.4639966%" y1="18.2910651%" x2="41.5249445%" y2="81.6941117%" id="linearGradient-9">
            <stop stop-color="#0043EA" offset="0%"></stop>
            <stop stop-color="#008EFF" offset="100%"></stop>
        </linearGradient>
        <linearGradient x1="56.4752861%" y1="38.6938147%" x2="43.5275747%" y2="61.29268%" id="linearGradient-10">
            <stop stop-color="#06A0FF" offset="0%"></stop>
            <stop stop-color="#63C4FF" offset="100%"></stop>
        </linearGradient>
        <filter x="-34.7%" y="-22.7%" width="169.4%" height="145.4%" filterUnits="objectBoundingBox" id="filter-11">
            <feGaussianBlur stdDeviation="1.46627566" in="SourceGraphic"></feGaussianBlur>
        </filter>
        <linearGradient x1="50.1135135%" y1="99.9813059%" x2="50.1135135%" y2="0.034073583%" id="linearGradient-12">
            <stop stop-color="#3FBDFF" offset="0%"></stop>
            <stop stop-color="#0089FF" offset="100%"></stop>
        </linearGradient>
        <linearGradient x1="37.5178474%" y1="62.474359%" x2="62.4927631%" y2="37.5428574%" id="linearGradient-13">
            <stop stop-color="#0082FF" offset="0%"></stop>
            <stop stop-color="#0065FF" offset="100%"></stop>
        </linearGradient>
        <linearGradient x1="69.276515%" y1="12.1986461%" x2="30.6930088%" y2="87.7687862%" id="linearGradient-14">
            <stop stop-color="#0043EA" offset="0%"></stop>
            <stop stop-color="#008EFF" offset="100%"></stop>
        </linearGradient>
        <linearGradient x1="64.703542%" y1="36.5347477%" x2="35.3251906%" y2="63.4348914%" id="linearGradient-15">
            <stop stop-color="#06A0FF" offset="0%"></stop>
            <stop stop-color="#63C4FF" offset="100%"></stop>
        </linearGradient>
        <filter x="-27.7%" y="-25.6%" width="155.5%" height="151.3%" filterUnits="objectBoundingBox" id="filter-16">
            <feGaussianBlur stdDeviation="1.46627566" in="SourceGraphic"></feGaussianBlur>
        </filter>
        <linearGradient x1="75.0227782%" y1="64.4139737%" x2="25.0187525%" y2="35.5928115%" id="linearGradient-17">
            <stop stop-color="#FFA000" offset="0%"></stop>
            <stop stop-color="#FC8500" offset="54.44%"></stop>
            <stop stop-color="#FA7300" offset="100%"></stop>
        </linearGradient>
        <linearGradient x1="56.3151961%" y1="20.0680705%" x2="43.8018414%" y2="80.4881326%" id="linearGradient-18">
            <stop stop-color="#FF6400" offset="0%"></stop>
            <stop stop-color="#FFB25C" offset="100%"></stop>
        </linearGradient>
        <linearGradient x1="50.0008895%" y1="-0.0204175623%" x2="50.0009014%" y2="99.9849245%" id="linearGradient-19">
            <stop stop-color="#FFBD00" offset="0.207698%"></stop>
            <stop stop-color="#FFE685" offset="100%"></stop>
        </linearGradient>
        <filter x="-27.7%" y="-10.0%" width="155.5%" height="119.9%" filterUnits="objectBoundingBox" id="filter-20">
            <feGaussianBlur stdDeviation="1.46627566" in="SourceGraphic"></feGaussianBlur>
        </filter>
        <linearGradient x1="50.0191052%" y1="99.9899819%" x2="50.0191052%" y2="0.00737063779%" id="linearGradient-21">
            <stop stop-color="#FFEAAD" stop-opacity="0.2" offset="0%"></stop>
            <stop stop-color="#FFEAAD" stop-opacity="0" offset="50.87%"></stop>
        </linearGradient>
        <linearGradient x1="49.3625%" y1="99.9749522%" x2="49.3625%" y2="-0.0326045426%" id="linearGradient-22">
            <stop stop-color="#90D8FF" offset="0%"></stop>
            <stop stop-color="#089FFF" offset="100%"></stop>
        </linearGradient>
        <linearGradient x1="37.4701524%" y1="62.4966415%" x2="62.471339%" y2="37.4724389%" id="linearGradient-23">
            <stop stop-color="#0082FF" offset="0%"></stop>
            <stop stop-color="#0065FF" offset="100%"></stop>
        </linearGradient>
        <linearGradient x1="54.4358894%" y1="21.1561632%" x2="45.5629933%" y2="78.8686093%" id="linearGradient-24">
            <stop stop-color="#0043EA" offset="11.61%"></stop>
            <stop stop-color="#008EFF" offset="100%"></stop>
        </linearGradient>
        <linearGradient x1="45.5854786%" y1="21.1687989%" x2="54.4138135%" y2="78.8560236%" id="linearGradient-25">
            <stop stop-color="#06A0FF" offset="0%"></stop>
            <stop stop-color="#63C4FF" offset="100%"></stop>
        </linearGradient>
        <filter x="-27.7%" y="-17.6%" width="155.5%" height="135.3%" filterUnits="objectBoundingBox" id="filter-26">
            <feGaussianBlur stdDeviation="1.46627566" in="SourceGraphic"></feGaussianBlur>
        </filter>
        <linearGradient x1="49.3738095%" y1="100.012695%" x2="49.3738095%" y2="0.00392065344%" id="linearGradient-27">
            <stop stop-color="#79CFFF" offset="0%"></stop>
            <stop stop-color="#0089FF" offset="100%"></stop>
        </linearGradient>
        <linearGradient x1="37.5222863%" y1="62.498455%" x2="62.5294381%" y2="37.5118756%" id="linearGradient-28">
            <stop stop-color="#0082FF" offset="0%"></stop>
            <stop stop-color="#0065FF" offset="100%"></stop>
        </linearGradient>
        <linearGradient x1="76.253914%" y1="8.95921101%" x2="23.7772016%" y2="91.0544123%" id="linearGradient-29">
            <stop stop-color="#0043EA" offset="18.27%"></stop>
            <stop stop-color="#008EFF" offset="100%"></stop>
        </linearGradient>
        <linearGradient x1="69.9839735%" y1="35.40485%" x2="30.0344928%" y2="64.6118433%" id="linearGradient-30">
            <stop stop-color="#06A0FF" offset="0%"></stop>
            <stop stop-color="#63C4FF" offset="100%"></stop>
        </linearGradient>
        <filter x="-27.7%" y="-16.7%" width="155.5%" height="133.4%" filterUnits="objectBoundingBox" id="filter-31">
            <feGaussianBlur stdDeviation="1.46627566" in="SourceGraphic"></feGaussianBlur>
        </filter>
        <linearGradient x1="49.9%" y1="100.004007%" x2="49.9%" y2="0.0505615365%" id="linearGradient-32">
            <stop stop-color="#3FBDFF" offset="0%"></stop>
            <stop stop-color="#0089FF" offset="100%"></stop>
        </linearGradient>
        <linearGradient x1="37.4975471%" y1="62.488963%" x2="62.4930548%" y2="37.4956266%" id="linearGradient-33">
            <stop stop-color="#0082FF" offset="0%"></stop>
            <stop stop-color="#0065FF" offset="100%"></stop>
        </linearGradient>
        <linearGradient x1="59.0486208%" y1="17.9041388%" x2="40.9435444%" y2="82.0592553%" id="linearGradient-34">
            <stop stop-color="#0043EA" offset="19.81%"></stop>
            <stop stop-color="#008EFF" offset="100%"></stop>
        </linearGradient>
        <linearGradient x1="56.903037%" y1="38.5500462%" x2="43.0941021%" y2="61.4147188%" id="linearGradient-35">
            <stop stop-color="#06A0FF" offset="0%"></stop>
            <stop stop-color="#63C4FF" offset="100%"></stop>
        </linearGradient>
        <filter x="-27.7%" y="-15.1%" width="155.5%" height="130.1%" filterUnits="objectBoundingBox" id="filter-36">
            <feGaussianBlur stdDeviation="1.46627566" in="SourceGraphic"></feGaussianBlur>
        </filter>
        <linearGradient x1="37.5017185%" y1="62.495754%" x2="62.498227%" y2="37.4912759%" id="linearGradient-37">
            <stop stop-color="#0082FF" offset="0%"></stop>
            <stop stop-color="#0065FF" offset="100%"></stop>
        </linearGradient>
        <linearGradient x1="61.4651663%" y1="21.7226795%" x2="43.7617377%" y2="79.1186945%" id="linearGradient-38">
            <stop stop-color="#0043EA" offset="15.15%"></stop>
            <stop stop-color="#0077F8" offset="74.75%"></stop>
            <stop stop-color="#008EFF" offset="100%"></stop>
        </linearGradient>
        <linearGradient x1="37.2514074%" y1="16.3246239%" x2="62.3762685%" y2="84.7381712%" id="linearGradient-39">
            <stop stop-color="#06A0FF" offset="0%"></stop>
            <stop stop-color="#63C4FF" offset="100%"></stop>
        </linearGradient>
    </defs>
    <g id="Illustration/Slide/userimg-dex-260" stroke="none" stroke-width="1" fill="none" fill-rule="evenodd">
        <g>
            <rect id="ico-zone" fill-opacity="0" fill="#D8D8D8" fill-rule="nonzero" x="0" y="0" width="260" height="216"></rect>
            <g id="dex" transform="translate(1.166667, 0.000000)">
                <polygon id="Path" fill="url(#linearGradient-1)" points="128.884953 215.603128 257.64305 148.22043 225.421812 131.382698 241.532431 122.963832 112.647478 55.5493646 15.7300533 105.840176 48.7441369 122.995601 0.126855269 148.411046"></polygon>
                <g id="Group" transform="translate(51.059246, 0.000000)">
                    <g transform="translate(145.420664, 0.000000)">
                        <path d="M19.9351784,91.099218 L18.8886224,91.099218 C18.8886224,91.099218 18.8886224,116.069892 18.8886224,116.800587 C18.8886224,117.340665 19.9351784,117.340665 19.9351784,116.800587 C19.9351784,116.038123 19.9351784,91.099218 19.9351784,91.099218 Z" id="Path" fill="url(#linearGradient-2)"></path>
                        <polygon id="Path" fill="url(#linearGradient-3)" points="30.6544485 40.7130987 19.3960435 47.1940371 8.13763838 40.7130987 19.3960435 34.2321603"></polygon>
                        <polygon id="Path" fill="url(#linearGradient-4)" points="30.6544485 40.7130987 19.3960435 47.1940371 19.3960435 100.661779 30.6544485 94.1490714"></polygon>
                        <polygon id="Path" fill="url(#linearGradient-5)" points="8.13763838 40.7130987 19.3960435 47.1940371 19.3960435 100.661779 8.13763838 94.1490714"></polygon>
                        <path d="M19.9351784,0.413000978 L18.8886224,0.413000978 C18.8886224,0.413000978 18.8886224,39.9824047 18.8886224,40.7130987 C18.8886224,41.2531769 19.9351784,41.2531769 19.9351784,40.7130987 C19.9351784,39.9506354 19.9351784,0.413000978 19.9351784,0.413000978 Z" id="Path" fill="#0062FF"></path>
                        <path d="M19.9351784,0.413000978 C19.9351784,0.222385142 19.7131816,0.0953079179 19.4277573,0.0953079179 C19.1423329,0.0953079179 18.9203362,0.254154448 18.9203362,0.413000978 C18.9203362,0.603616813 19.1423329,0.730694037 19.4277573,0.730694037 C19.7131816,0.730694037 19.9351784,0.603616813 19.9351784,0.413000978 Z" id="Path" fill="#0089FF"></path>
                        <polygon id="Rectangle" fill="#0751EB" fill-rule="nonzero" opacity="0.3" filter="url(#filter-6)" points="0 75.2932551 15.8569086 75.2932551 15.8569086 118.45259 0 118.45259"></polygon>
                        <path d="M19.9351784,34.5180841 C19.9351784,22.985826 19.9351784,0.413000978 19.9351784,0.413000978 C19.9351784,0.222385142 19.7131816,0.0953079179 19.4277573,0.0953079179 C19.1423329,0.0953079179 18.9203362,0.254154448 18.9203362,0.413000978 C18.9203362,0.413000978 18.9203362,22.985826 18.9203362,34.5180841 L8.16935219,40.7130987 L8.16935219,94.1490714 L18.9203362,100.344086 C18.9203362,107.523949 18.9203362,116.355816 18.9203362,116.768817 C18.9203362,117.308895 19.9668922,117.308895 19.9668922,116.768817 C19.9668922,116.324047 19.9668922,107.49218 19.9668922,100.312317 L30.7178762,94.1173021 L30.7178762,40.6495601 L19.9351784,34.5180841 Z" id="Path" fill="#4AE5FF" opacity="0.21"></path>
                    </g>
                    <g transform="translate(129.735137, 60.632454)">
                        <path d="M18.495244,54.7067449 L17.4169742,54.7067449 C17.4169742,54.7067449 17.4169742,102.07478 17.4169742,102.837243 C17.4169742,103.409091 18.5269578,103.409091 18.5269578,102.837243 C18.495244,102.011241 18.495244,54.7067449 18.495244,54.7067449 Z" id="Path" fill="url(#linearGradient-7)"></path>
                        <polygon id="Path" fill="url(#linearGradient-8)" points="29.8170767 20.4276637 17.9561091 27.2580645 6.09514145 20.4276637 17.9561091 13.597263"></polygon>
                        <polygon id="Path" fill="url(#linearGradient-9)" points="29.8170767 20.4276637 17.9561091 27.2580645 17.9561091 64.7458456 29.8170767 57.9154448"></polygon>
                        <polygon id="Path" fill="url(#linearGradient-10)" points="6.12685527 20.4276637 17.9561091 27.2580645 17.9561091 64.7458456 6.09514145 57.9154448"></polygon>
                        <path d="M18.495244,0.444770283 L17.4169742,0.444770283 C17.4169742,0.444770283 17.4169742,19.6969697 17.4169742,20.4276637 C17.4169742,20.9995112 18.5269578,20.9995112 18.5269578,20.4276637 C18.495244,19.6334311 18.495244,0.444770283 18.495244,0.444770283 Z" id="Path" fill="#0062FF"></path>
                        <ellipse id="Oval" fill="#0089FF" cx="17.9561091" cy="0.444770283" rx="1" ry="1"></ellipse>
                        <rect id="Rectangle" fill="#0751EB" fill-rule="nonzero" opacity="0.3" filter="url(#filter-11)" x="0" y="54.3831867" width="12.6855269" height="19.3792766"></rect>
                        <path d="M29.8170767,20.4276637 L18.5269578,13.914956 C18.5269578,8.06940371 18.5269578,0.444770283 18.5269578,0.444770283 C18.5269578,0.254154448 18.2732472,0.0953079179 17.9878229,0.0953079179 C17.6706847,0.0953079179 17.448688,0.254154448 17.448688,0.444770283 C17.448688,0.444770283 17.448688,8.06940371 17.448688,13.914956 L6.15856909,20.4276637 L6.15856909,20.4276637 L6.15856909,57.9154448 L17.448688,64.4281525 C17.448688,78.3431085 17.448688,102.297165 17.448688,102.805474 C17.448688,103.377322 18.5586716,103.377322 18.5586716,102.805474 C18.5586716,102.233627 18.5586716,78.2795699 18.5586716,64.3963832 L29.8487905,57.8836755 L29.8170767,20.4276637 Z" id="Path" fill="#4AE5FF" opacity="0.18"></path>
                    </g>
                    <g transform="translate(108.315498, 44.747801)">
                        <path d="M21.6160107,87.016129 L20.4425994,87.016129 C20.4425994,87.016129 20.4425994,109.731183 20.4425994,110.525415 C20.4425994,111.129032 21.5842968,111.129032 21.5842968,110.525415 C21.6160107,109.667644 21.6160107,87.016129 21.6160107,87.016129 Z" id="Path" fill="url(#linearGradient-12)"></path>
                        <polygon id="Path" fill="url(#linearGradient-13)" points="33.5086921 73.1647116 21.0134481 80.3445748 8.549918 73.1647116 21.045162 65.9848485"></polygon>
                        <polygon id="Path" fill="url(#linearGradient-14)" points="33.5086921 73.1647116 21.0134481 80.3445748 21.0134481 97.5953079 33.5086921 90.3836755"></polygon>
                        <polygon id="Path" fill="url(#linearGradient-15)" points="8.549918 73.1647116 21.0134481 80.3445748 21.0134481 97.5953079 8.549918 90.3836755"></polygon>
                        <path d="M21.6160107,0.349462366 L20.4425994,0.349462366 C20.4425994,0.349462366 20.4425994,72.370479 20.4425994,73.1647116 C20.4425994,73.7683284 21.5842968,73.7683284 21.5842968,73.1647116 C21.6160107,72.3387097 21.6160107,0.349462366 21.6160107,0.349462366 Z" id="Path" fill="#0062FF"></path>
                        <path d="M21.6160107,0.349462366 C21.6160107,0.15884653 21.3623001,0 21.045162,0 C20.7280238,0 20.4743132,0.15884653 20.4743132,0.349462366 C20.4743132,0.540078201 20.7280238,0.698924731 21.045162,0.698924731 C21.3623001,0.730694037 21.6160107,0.540078201 21.6160107,0.349462366 Z" id="Path" fill="#0089FF"></path>
                        <rect id="Rectangle" fill="#0751EB" fill-rule="nonzero" opacity="0.3" filter="url(#filter-16)" x="0" y="86.5532747" width="15.8569086" height="17.1554252"></rect>
                        <path d="M21.6160107,66.3343109 C21.6160107,48.1940371 21.6160107,0.381231672 21.6160107,0.381231672 L21.6160107,0.381231672 L21.6160107,0.381231672 C21.6160107,0.190615836 21.3623001,0.031769306 21.045162,0.031769306 C20.7280238,0.031769306 20.4743132,0.190615836 20.4743132,0.381231672 L20.4743132,0.381231672 L20.4743132,0.381231672 C20.4743132,0.381231672 20.4743132,48.2258065 20.4743132,66.3343109 L8.58163182,73.1647116 L8.58163182,73.1647116 L8.58163182,90.3836755 L20.4743132,97.2458456 C20.4743132,103.377322 20.4743132,110.080645 20.4743132,110.493646 C20.4743132,111.097263 21.6160107,111.097263 21.6160107,110.493646 C21.6160107,110.048876 21.6160107,103.345552 21.6160107,97.2140762 L33.5086921,90.3836755 L33.5086921,73.1647116 L21.6160107,66.3343109 Z" id="Path" fill="#4AE5FF" opacity="0.15"></path>
                    </g>
                    <g transform="translate(88.701517, 100.026393)">
                        <polygon id="Path" fill="url(#linearGradient-17)" points="34.0943829 35.5816227 20.9648626 43.1109482 7.86705617 35.5816227 20.9965765 28.0205279"></polygon>
                        <polygon id="Path" fill="url(#linearGradient-18)" points="34.0943829 35.5816227 20.9648626 43.1109482 20.9648626 98.8660802 34.0943829 92.0356794"></polygon>
                        <polygon id="Path" fill="url(#linearGradient-19)" points="7.86705617 35.5816227 20.9648626 43.1109482 20.9648626 98.8660802 7.86705617 105.696481"></polygon>
                        <path d="M21.599139,0.476539589 L20.3940139,0.476539589 C20.3940139,0.476539589 20.3940139,34.7556207 20.3940139,35.5816227 C20.3940139,36.2170088 21.599139,36.2170088 21.599139,35.5816227 C21.599139,34.6920821 21.599139,0.476539589 21.599139,0.476539589 Z" id="Path" fill="#FF6D00"></path>
                        <path d="M21.599139,0.476539589 C21.599139,0.254154448 21.3137146,0.0953079179 20.9965765,0.0953079179 C20.6477245,0.0953079179 20.3940139,0.254154448 20.3940139,0.476539589 C20.3940139,0.698924731 20.6794383,0.857771261 20.9965765,0.857771261 C21.3137146,0.857771261 21.599139,0.698924731 21.599139,0.476539589 Z" id="Path" fill="#FFA300"></path>
                        <rect id="Rectangle" fill="#0751EB" fill-rule="nonzero" opacity="0.200000003" filter="url(#filter-20)" x="0" y="28.2746823" width="15.8569086" height="44.1593353"></rect>
                        <path d="M34.0943829,35.5816227 L21.599139,28.3699902 C21.599139,18.1085044 21.599139,0.476539589 21.599139,0.476539589 C21.599139,0.254154448 21.3137146,0.0953079179 20.9965765,0.0953079179 C20.6477245,0.0953079179 20.3940139,0.254154448 20.3940139,0.476539589 C20.3940139,0.476539589 20.3940139,18.0767351 20.3940139,28.3699902 L7.86705617,35.5816227 L7.86705617,35.5816227 L7.86705617,105.696481 L34.0943829,92.0356794 L34.0943829,35.5816227 Z" id="Path" fill="url(#linearGradient-21)"></path>
                    </g>
                    <g transform="translate(66.990365, 39.029326)">
                        <path d="M22.2840303,126.060606 L21.0154777,126.060606 C21.0154777,126.060606 21.0154777,162.118768 21.0154777,162.97654 C21.0154777,163.643695 22.2840303,163.643695 22.2840303,162.97654 C22.2840303,162.02346 22.2840303,126.060606 22.2840303,126.060606 Z" id="Path" fill="url(#linearGradient-22)"></path>
                        <polygon id="Path" fill="url(#linearGradient-23)" points="35.4452645 47.9398827 21.6180402 55.9139785 7.85424354 47.9398827 21.649754 39.9975562"></polygon>
                        <polygon id="Path" fill="url(#linearGradient-24)" points="35.4452645 47.9398827 21.6180402 55.9139785 21.6180402 137.719941 35.4452645 129.777615"></polygon>
                        <polygon id="Path" fill="url(#linearGradient-25)" points="7.85424354 47.9398827 21.6180402 55.9139785 21.6180402 137.719941 7.85424354 129.777615"></polygon>
                        <path d="M22.2840303,0.381231672 L21.0154777,0.381231672 C21.0154777,0.381231672 21.0154777,47.0821114 21.0154777,47.9398827 C21.0154777,48.6070381 22.2840303,48.6070381 22.2840303,47.9398827 C22.2840303,47.0185728 22.2840303,0.381231672 22.2840303,0.381231672 Z" id="Path" fill="#0062FF"></path>
                        <ellipse id="Oval" fill="#0089FF" cx="21.649754" cy="0.381231672" rx="1" ry="1"></ellipse>
                        <rect id="Rectangle" fill="#0751EB" fill-rule="nonzero" opacity="0.3" filter="url(#filter-26)" x="0" y="72.2101662" width="15.8569086" height="24.9569892"></rect>
                        <path d="M35.4452645,47.9398827 L22.2840303,40.3787879 C22.2840303,26.273216 22.2840303,0.381231672 22.2840303,0.381231672 C22.2840303,0.15884653 21.998606,0 21.649754,0 C21.300902,0 21.0154777,0.190615836 21.0154777,0.381231672 C21.0154777,0.381231672 21.0154777,26.273216 21.0154777,40.3787879 L7.85424354,47.9398827 L7.85424354,47.9398827 L7.85424354,129.777615 L21.0154777,137.370479 C21.0154777,148.013196 21.0154777,162.404692 21.0154777,162.94477 C21.0154777,163.611926 22.2840303,163.611926 22.2840303,162.94477 C22.2840303,162.341153 22.2840303,147.981427 22.2840303,137.33871 L35.4452645,129.777615 L35.4452645,47.9398827 Z" id="Path" fill="#4AE5FF" opacity="0.09"></path>
                    </g>
                    <g transform="translate(43.205002, 86.365591)">
                        <path d="M24.5039975,41.014174 L23.1720172,41.014174 C23.1720172,41.014174 23.1720172,107.634409 23.1720172,108.555718 C23.1720172,109.254643 24.5039975,109.254643 24.5039975,108.555718 C24.5039975,107.57087 24.5039975,41.014174 24.5039975,41.014174 Z" id="Path" fill="url(#linearGradient-27)"></path>
                        <polygon id="Path" fill="url(#linearGradient-28)" points="38.3312218 30.6256109 23.8062936 38.9809384 9.31307913 30.6256109 23.8380074 22.2702835"></polygon>
                        <polygon id="Path" fill="url(#linearGradient-29)" points="38.3312218 30.6256109 23.8062936 38.9809384 23.8062936 53.3088954 38.3312218 44.9535679"></polygon>
                        <polygon id="Path" fill="url(#linearGradient-30)" points="9.31307913 30.6256109 23.8062936 38.9809384 23.8062936 53.3088954 9.31307913 44.9535679"></polygon>
                        <path d="M24.5039975,0.413000978 L23.1720172,0.413000978 C23.1720172,0.413000978 23.1720172,29.7043011 23.1720172,30.6256109 C23.1720172,31.3245357 24.5039975,31.3245357 24.5039975,30.6256109 C24.5039975,29.6407625 24.5039975,0.413000978 24.5039975,0.413000978 Z" id="Path" fill="#0062FF"></path>
                        <path d="M24.5039975,0.413000978 C24.5039975,0.190615836 24.2185732,0 23.8380074,0 C23.4574416,0 23.1720172,0.190615836 23.1720172,0.413000978 C23.1720172,0.635386119 23.4574416,0.826001955 23.8380074,0.826001955 C24.1868594,0.826001955 24.5039975,0.635386119 24.5039975,0.413000978 Z" id="Path" fill="#0089FF"></path>
                        <rect id="Rectangle" fill="#0751EB" fill-rule="nonzero" opacity="0.3" filter="url(#filter-31)" x="0" y="20.7331378" width="15.8569086" height="26.3685239"></rect>
                        <path d="M38.3312218,30.6256109 L24.5039975,22.6515152 C24.5039975,13.6925709 24.5039975,0.413000978 24.5039975,0.413000978 C24.5039975,0.190615836 24.2185732,0 23.8380074,0 C23.4574416,0 23.1720172,0.190615836 23.1720172,0.413000978 C23.1720172,0.413000978 23.1720172,13.6925709 23.1720172,22.6515152 L9.34479295,30.6256109 L9.34479295,30.6256109 L9.34479295,44.9535679 L23.1720172,52.959433 C23.1720172,72.1798631 23.1720172,107.920332 23.1720172,108.587488 C23.1720172,109.286413 24.5039975,109.286413 24.5039975,108.587488 C24.5039975,107.856794 24.5039975,72.1163245 24.5039975,52.9276637 L38.3312218,44.9535679 L38.3312218,30.6256109 Z" id="Path" fill="#4AE5FF" opacity="0.06"></path>
                    </g>
                    <g transform="translate(18.151087, 70.798631)">
                        <path d="M24.5039975,76.7546432 L23.0768758,76.7546432 C23.0768758,76.7546432 23.0768758,104.552786 23.0768758,105.537634 C23.0768758,106.268328 24.5039975,106.300098 24.5039975,105.537634 C24.5039975,104.489247 24.5039975,76.7546432 24.5039975,76.7546432 Z" id="Path" fill="url(#linearGradient-32)"></path>
                        <polygon id="Path" fill="url(#linearGradient-33)" points="39.0606396 35.6451613 23.7745797 44.445259 8.5202337 35.6451613 23.7745797 26.8450635"></polygon>
                        <polygon id="Path" fill="url(#linearGradient-34)" points="39.0606396 35.6451613 23.7745797 44.445259 23.7745797 89.71652 39.0606396 80.9164223"></polygon>
                        <polygon id="Path" fill="url(#linearGradient-35)" points="8.5202337 35.6451613 23.7745797 44.445259 23.7745797 89.71652 8.5202337 80.9164223"></polygon>
                        <path d="M24.5039975,0.635386119 L23.0768758,0.635386119 C23.0768758,0.635386119 23.0768758,34.6603128 23.0768758,35.6451613 C23.0768758,36.3758553 24.5039975,36.4076246 24.5039975,35.6451613 C24.5039975,34.5967742 24.5039975,0.635386119 24.5039975,0.635386119 Z" id="Path" fill="#0062FF"></path>
                        <ellipse id="Oval" fill="#0089FF" cx="23.7745797" cy="0.635386119" rx="1" ry="1"></ellipse>
                        <rect id="Rectangle" fill="#0751EB" fill-rule="nonzero" opacity="0.3" filter="url(#filter-36)" x="0" y="63.3616813" width="15.8569086" height="29.2277615"></rect>
                        <path d="M39.0606396,35.6451613 L24.5039975,27.2580645 C24.5039975,18.7438905 24.5039975,0.635386119 24.5039975,0.635386119 C24.5039975,0.381231672 24.1868594,0.190615836 23.8062936,0.190615836 C23.4257278,0.190615836 23.1085896,0.381231672 23.1085896,0.635386119 C23.1085896,0.635386119 23.1085896,18.7438905 23.1085896,27.2580645 L8.55194752,35.6451613 L8.55194752,35.6451613 L8.55194752,80.9164223 L23.1085896,89.3352884 C23.1085896,96.8646139 23.1085896,105.061095 23.1085896,105.569404 C23.1085896,106.300098 24.5357114,106.331867 24.5357114,105.569404 C24.5357114,105.029326 24.5357114,96.8010753 24.5357114,89.3035191 L39.0923534,80.9164223 L39.0606396,35.6451613 Z" id="Path" fill="#4AE5FF" opacity="0.03"></path>
                    </g>
                    <g transform="translate(0.000000, 67.621701)" id="Path">
                        <polygon fill="url(#linearGradient-37)" points="32.1578106 72.1798631 16.0789053 81.4565005 0.0317138171 72.1798631 16.1106191 62.9349951"></polygon>
                        <polygon fill="url(#linearGradient-38)" points="32.1578106 72.1798631 16.0789053 81.4565005 16.0789053 115.79912 32.1578106 124.217986"></polygon>
                        <polygon fill="url(#linearGradient-39)" points="0.0317138171 72.1798631 16.0789053 81.4565005 16.0789053 115.79912 0.0317138171 107.443793"></polygon>
                        <path d="M16.8400369,0.635386119 L15.3494875,0.635386119 C15.3494875,0.635386119 15.3494875,71.1950147 15.3494875,72.2116325 C15.3494875,72.9740958 16.8400369,73.0058651 16.8400369,72.2116325 C16.8400369,71.0997067 16.8400369,0.635386119 16.8400369,0.635386119 Z" fill="#0062FF"></path>
                        <path d="M16.8400369,0.635386119 C16.8400369,0.381231672 16.4911849,0.15884653 16.1106191,0.15884653 C15.7300533,0.15884653 15.3812013,0.349462366 15.3812013,0.635386119 C15.3812013,0.889540567 15.7300533,1.11192571 16.1106191,1.11192571 C16.4911849,1.11192571 16.8400369,0.889540567 16.8400369,0.635386119 Z" fill="#0089FF"></path>
                    </g>
                </g>
            </g>
        </g>
    </g>
</svg>