<?xml version="1.0" encoding="UTF-8"?>
<svg width="260px" height="216px" viewBox="0 0 260 216" version="1.1" xmlns="http://www.w3.org/2000/svg" xmlns:xlink="http://www.w3.org/1999/xlink">
    <!-- Generator: Sketch 53.2 (72643) - https://sketchapp.com -->
    <title>Illustration/Slide/userimg-wallet-260</title>
    <desc>Created with Sketch.</desc>
    <defs>
        <linearGradient x1="50%" y1="100%" x2="50%" y2="0%" id="linearGradient-1">
            <stop stop-color="#C5E3FF" offset="0%"></stop>
            <stop stop-color="#DCF5FF" stop-opacity="0.5" offset="100%"></stop>
        </linearGradient>
        <linearGradient x1="18.1904571%" y1="9.68037517%" x2="75.9026118%" y2="90.7865107%" id="linearGradient-2">
            <stop stop-color="#009CFF" offset="0%"></stop>
            <stop stop-color="#0065FF" offset="64.01%"></stop>
        </linearGradient>
        <linearGradient x1="0%" y1="49.9999938%" x2="100.000029%" y2="49.9999938%" id="linearGradient-3">
            <stop stop-color="#0032FF" stop-opacity="0" offset="79.63%"></stop>
            <stop stop-color="#0032FF" stop-opacity="0.9898" offset="99.79%"></stop>
            <stop stop-color="#0032FF" offset="100%"></stop>
        </linearGradient>
        <linearGradient x1="11.2313943%" y1="7.36847826%" x2="81.1051524%" y2="93.3950725%" id="linearGradient-4">
            <stop stop-color="#00A6FF" offset="0%"></stop>
            <stop stop-color="#0071FF" offset="55.38%"></stop>
        </linearGradient>
        <linearGradient x1="16.7599242%" y1="-6.43917995%" x2="75.4547198%" y2="102.008542%" id="linearGradient-5">
            <stop stop-color="#00A9FF" offset="0%"></stop>
            <stop stop-color="#009CFF" offset="23.1%"></stop>
            <stop stop-color="#0083FF" offset="56.45%"></stop>
        </linearGradient>
        <linearGradient x1="71.6600995%" y1="-1.92919803%" x2="29.5815137%" y2="102.975967%" id="linearGradient-6">
            <stop stop-color="#0025E4" offset="0%"></stop>
            <stop stop-color="#002FE8" offset="22.46%"></stop>
            <stop stop-color="#004BF2" offset="61.02%"></stop>
            <stop stop-color="#006DFF" offset="100%"></stop>
        </linearGradient>
        <linearGradient x1="0%" y1="50.0000299%" x2="100%" y2="50.0000299%" id="linearGradient-7">
            <stop stop-color="#0054FC" offset="83.31%"></stop>
            <stop stop-color="#0051FB" offset="89.45%"></stop>
            <stop stop-color="#0047F9" offset="94.44%"></stop>
            <stop stop-color="#0036F5" offset="99.01%"></stop>
            <stop stop-color="#0031F4" offset="100%"></stop>
        </linearGradient>
        <linearGradient x1="0%" y1="50%" x2="100%" y2="50%" id="linearGradient-8">
            <stop stop-color="#0064F9" stop-opacity="0" offset="79.79%"></stop>
            <stop stop-color="#076CF9" stop-opacity="0.197" offset="83.77%"></stop>
            <stop stop-color="#1880F9" stop-opacity="0.4954" offset="89.8%"></stop>
            <stop stop-color="#36A2F9" stop-opacity="0.8564" offset="97.1%"></stop>
            <stop stop-color="#43B2F9" offset="100%"></stop>
        </linearGradient>
        <linearGradient x1="0%" y1="50%" x2="100%" y2="50%" id="linearGradient-9">
            <stop stop-color="#0064F9" stop-opacity="0" offset="93.01%"></stop>
            <stop stop-color="#076CF9" stop-opacity="0.197" offset="94.38%"></stop>
            <stop stop-color="#1880F9" stop-opacity="0.4954" offset="96.47%"></stop>
            <stop stop-color="#36A2F9" stop-opacity="0.8564" offset="99%"></stop>
            <stop stop-color="#43B2F9" offset="100%"></stop>
        </linearGradient>
        <linearGradient x1="50.2086475%" y1="49.1782175%" x2="48.3668852%" y2="51.0516377%" id="linearGradient-10">
            <stop stop-color="#002DFF" stop-opacity="0" offset="7.59146%"></stop>
            <stop stop-color="#002DFF" offset="99.51%"></stop>
        </linearGradient>
        <linearGradient x1="50.0815615%" y1="49.4208061%" x2="48.5833887%" y2="50.9502949%" id="linearGradient-11">
            <stop stop-color="#002DFF" stop-opacity="0" offset="4.26067%"></stop>
            <stop stop-color="#002DFF" offset="100%"></stop>
        </linearGradient>
        <linearGradient x1="49.9999906%" y1="100%" x2="49.9999906%" y2="-2.4433141e-05%" id="linearGradient-12">
            <stop stop-color="#FFC000" offset="0%"></stop>
            <stop stop-color="#FFA900" offset="3.970318%"></stop>
            <stop stop-color="#FF8900" offset="10.63%"></stop>
            <stop stop-color="#FF7500" offset="16.21%"></stop>
            <stop stop-color="#FF6E00" offset="20%"></stop>
            <stop stop-color="#FF7300" offset="39.02%"></stop>
            <stop stop-color="#FF8300" offset="62.84%"></stop>
            <stop stop-color="#FF9C00" offset="89.11%"></stop>
            <stop stop-color="#FFA900" offset="100%"></stop>
        </linearGradient>
        <linearGradient x1="17.0464921%" y1="47.1705178%" x2="82.9535079%" y2="52.8294595%" id="linearGradient-13">
            <stop stop-color="#FFB300" offset="0%"></stop>
            <stop stop-color="#FFD800" offset="100%"></stop>
        </linearGradient>
        <linearGradient x1="17.7891868%" y1="8.6963964%" x2="82.0581484%" y2="87.9621622%" id="linearGradient-14">
            <stop stop-color="#FD7F02" offset="0%"></stop>
            <stop stop-color="#FDA002" offset="100%"></stop>
        </linearGradient>
        <linearGradient x1="29.9909932%" y1="10.0481481%" x2="70.2294642%" y2="90.0196296%" id="linearGradient-15">
            <stop stop-color="#F66500" offset="0%"></stop>
            <stop stop-color="#FC7A02" offset="86.38%"></stop>
            <stop stop-color="#FD7E02" offset="100%"></stop>
        </linearGradient>
        <linearGradient x1="0%" y1="50%" x2="100%" y2="50%" id="linearGradient-16">
            <stop stop-color="#FF5F00" offset="0%"></stop>
            <stop stop-color="#FB4A01" offset="50.33%"></stop>
            <stop stop-color="#F73102" offset="99.68%"></stop>
        </linearGradient>
        <linearGradient x1="50%" y1="100%" x2="50%" y2="-2.4433141e-05%" id="linearGradient-17">
            <stop stop-color="#FFC000" offset="0%"></stop>
            <stop stop-color="#FFA900" offset="3.970318%"></stop>
            <stop stop-color="#FF8900" offset="10.63%"></stop>
            <stop stop-color="#FF7500" offset="16.21%"></stop>
            <stop stop-color="#FF6E00" offset="20%"></stop>
            <stop stop-color="#FF7300" offset="39.02%"></stop>
            <stop stop-color="#FF8300" offset="62.84%"></stop>
            <stop stop-color="#FF9C00" offset="89.11%"></stop>
            <stop stop-color="#FFA900" offset="100%"></stop>
        </linearGradient>
        <linearGradient x1="17.0464921%" y1="47.1704609%" x2="82.9535079%" y2="52.8294026%" id="linearGradient-18">
            <stop stop-color="#FFB300" offset="0%"></stop>
            <stop stop-color="#FFD800" offset="100%"></stop>
        </linearGradient>
    </defs>
    <g id="Illustration/Slide/userimg-wallet-260" stroke="none" stroke-width="1" fill="none" fill-rule="evenodd">
        <g>
            <rect id="ico-zone" fill-opacity="0" fill="#D8D8D8" fill-rule="nonzero" x="0" y="0" width="260" height="216"></rect>
            <g id="wallet" transform="translate(8.666667, 12.000000)">
                <polygon id="Path" fill="url(#linearGradient-1)" points="97.2890052 203.603318 226.340663 136.39015 210.173473 127.964749 242.507853 111.208968 129.528098 52.4212027 0.254101222 119.539347 48.6603839 144.720529 16.5801047 161.634681"></polygon>
                <g id="Group" transform="translate(64.160558, 13.303266)">
                    <path d="M105.293194,152.734163 L21.6621291,107.313012 C21.1856894,107.059616 20.8998255,106.5845 20.8998255,106.046034 L20.8998255,0.950233281 C20.8998255,0.221721099 21.6621291,-0.221721099 22.2973822,0.126697771 C34.1766143,6.55660964 113.678534,49.4754795 120.316928,53.0546916 C128.162304,57.2990669 129.273997,58.6927424 129.273997,62.7153966 L129.273997,140.222758 L105.293194,152.734163 Z" id="Path" fill="url(#linearGradient-2)"></path>
                    <path d="M105.293194,152.734163 L21.6621291,107.313012 C21.1856894,107.059616 20.8998255,106.5845 20.8998255,106.046034 L20.8998255,0.950233281 C20.8998255,0.221721099 21.6621291,-0.221721099 22.2973822,0.126697771 C28.7452007,3.61088647 100.560558,42.3804044 120.316928,53.0546916 C128.162304,57.2990669 129.273997,58.6927424 129.273997,62.7153966 L129.273997,140.222758 L105.293194,152.734163 Z" id="Path" fill="url(#linearGradient-3)"></path>
                    <path d="M105.293194,152.734163 L21.4715532,107.281337 C21.1539267,107.091291 20.8998255,106.837895 20.8998255,106.331104 L20.9315881,21.6019699 C20.9315881,21.6019699 24.1396161,24.0725765 40.6879581,33.7649559 C68.2579407,49.9189217 127.114136,80.9282011 127.114136,80.9282011 L127.114136,141.331363 L105.293194,152.734163 Z" id="Path" fill="url(#linearGradient-4)"></path>
                    <path d="M105.293194,152.734163 L21.4080279,107.249663 C21.1539267,107.122965 20.9315881,106.86957 20.9315881,106.331104 L20.9315881,41.49352 C20.9315881,41.49352 23.4408377,43.3939865 32.8108202,49.0003629 C67.0509599,69.5254018 124.922513,98.6025402 124.922513,98.6025402 L124.922513,142.471643 L105.293194,152.734163 Z" id="Path" fill="url(#linearGradient-5)"></path>
                    <path d="M129.305759,135.439917 L129.305759,140.191083 L44.7535777,184.250233 L44.7535777,111.684085 C44.7535777,111.177294 45.0394415,110.733852 45.452356,110.480456 C53.1706806,106.29943 120.952182,69.5254018 123.842583,68.0050285 C126.891798,66.3579575 128.988133,64.4891654 129.273997,62.2086055 C129.305759,64.5208398 129.305759,135.439917 129.305759,135.439917 Z" id="Path" fill="url(#linearGradient-6)"></path>
                    <path d="M20.8998255,48.6836185 C20.5186736,48.5252462 20.0422339,48.4618974 19.3434555,48.8419907 C18.7399651,49.1587351 1.07993019,58.8194401 1.07993019,58.8194401 C0.571727749,59.1045101 0.254101222,59.5162779 0.254101222,60.2131156 L0.254101222,80.2947123 C0.254101222,81.0865734 0.952879581,81.4349922 1.77870855,80.99155 C1.77870855,80.99155 19.025829,71.5842405 19.5022688,71.330845 C20.1057592,71.0141006 20.5186736,71.1091239 20.9315881,71.2991706 C20.8998255,70.9824261 20.8998255,48.937014 20.8998255,48.6836185 Z" id="Path" fill="url(#linearGradient-7)"></path>
                    <ellipse id="Oval" fill="#0032BF" transform="translate(57.909071, 160.141782) rotate(-72.470981) translate(-57.909071, -160.141782) " cx="57.9090713" cy="160.141782" rx="6.43177649" ry="4.3823079"></ellipse>
                    <ellipse id="Oval" fill="#0080FF" transform="translate(9.153247, 66.303629) rotate(-72.470981) translate(-9.153247, -66.303629) " cx="9.15324691" cy="66.3036295" rx="4.56244242" ry="3.08031791"></ellipse>
                    <path d="M10.6404887,65.8511664 C10.6404887,66.9597719 9.97347295,68.0683774 9.11588133,68.3217729 C8.29005236,68.5751685 7.591274,67.8783307 7.591274,66.7697252 C7.591274,65.6611198 8.2582897,64.5525143 9.11588133,64.2991187 C9.9417103,64.0457232 10.6404887,64.7425609 10.6404887,65.8511664 Z" id="Path" fill="#0040C1"></path>
                    <path d="M59.7455497,159.575842 C59.7455497,160.937843 58.9197208,162.299844 57.9033159,162.616589 C56.886911,162.933333 56.061082,162.078123 56.061082,160.716122 C56.061082,159.354121 56.886911,157.99212 57.9033159,157.675376 C58.8879581,157.358631 59.7455497,158.213841 59.7455497,159.575842 Z" id="Path" fill="#0080FF"></path>
                    <path d="M129.305759,135.123173 L129.305759,139.874339 L44.7535777,183.933489 L44.7535777,111.367341 C44.7535777,110.86055 45.0394415,110.417107 45.452356,110.163712 C57.9986038,103.353707 120.920419,69.2403318 123.842583,67.6882841 C126.891798,66.0412131 128.988133,64.1724209 129.273997,61.8918611 C129.305759,64.2040954 129.305759,135.123173 129.305759,135.123173 Z" id="Path" fill="url(#linearGradient-8)" opacity="0.5"></path>
                    <path d="M129.305759,135.439917 L129.305759,140.191083 L44.7535777,184.250233 L44.7535777,111.684085 C44.7535777,111.177294 45.0394415,110.733852 45.452356,110.480456 C57.9986038,103.670451 120.920419,69.5570762 123.842583,68.0050285 C126.891798,66.3579575 128.988133,64.4891654 129.273997,62.2086055 C129.305759,64.5208398 129.305759,135.439917 129.305759,135.439917 Z" id="Path" fill="url(#linearGradient-9)" opacity="0.8"></path>
                    <path d="M20.9315881,41.49352 L98.4324607,81.7834111 L95.2244328,83.5255054 C95.2244328,83.5255054 61.2383944,65.5027475 35.2883072,50.5524106 C23.9490401,43.9958009 20.9315881,41.49352 20.9315881,41.49352 Z" id="Path" fill="url(#linearGradient-10)"></path>
                    <path d="M20.9315881,21.6019699 L116.537173,71.900985 L113.329145,73.6430793 C113.329145,73.6430793 66.5745201,49.0003629 35.7647469,30.7875583 C23.8855148,23.7875065 20.9315881,21.6019699 20.9315881,21.6019699 Z" id="Path" fill="url(#linearGradient-11)"></path>
                </g>
                <g id="Group" transform="translate(128.003490, 0.000000)">
                    <path d="M19.9469459,27.3350441 C19.4069808,27.5884396 18.0411867,28.0952307 16.7706806,28.5069984 C18.2,28.0002074 19.1846422,27.3033696 19.6293194,26.8916019 C21.5668412,25.1495075 22.7420593,22.2988077 22.7420593,18.6879212 C22.7420593,11.2761016 17.6917976,3.57921203 11.434555,1.48869881 C9.75113438,0.918558839 7.46422339,0.886884396 5.8443281,1.36200104 C6.9877836,0.950233281 7.97242583,0.69683774 8.60767888,0.538465526 C10.1005236,0.190046656 11.7204188,0.158372214 13.4991274,0.760186625 C19.75637,2.85069984 24.8066318,10.5792639 24.8066318,17.959409 C24.8383944,22.5205288 22.9008726,25.9096941 19.9469459,27.3350441 Z" id="Path" fill="url(#linearGradient-12)"></path>
                    <path d="M11.4663176,1.48869881 C5.20907504,-0.601814412 0.158813264,3.67423536 0.158813264,11.086055 C0.158813264,18.4978745 5.20907504,26.1947641 11.4663176,28.2852773 C17.7235602,30.3757906 22.773822,26.0997408 22.773822,18.6879212 C22.773822,11.2761016 17.7235602,3.57921203 11.4663176,1.48869881 Z M11.2757417,20.0182478 L6.82897033,13.5883359 L11.2757417,10.1674961 L15.7225131,16.597408 L11.2757417,20.0182478 Z" id="Shape" fill="url(#linearGradient-13)" fill-rule="nonzero"></path>
                    <polygon id="Path" fill="url(#linearGradient-14)" points="12.4827225 19.0680145 11.2439791 19.9865734 6.79720768 13.5566615 8.2582897 12.9548471"></polygon>
                    <polygon id="Path" fill="url(#linearGradient-15)" points="8.29005236 12.9865215 11.5298429 10.515915 15.7225131 16.5657335 12.5144852 19.0680145"></polygon>
                    <polygon id="Path" fill="url(#linearGradient-16)" points="8.29005236 12.9865215 6.82897033 13.5883359 11.2757417 10.1674961 11.5298429 10.5475894"></polygon>
                </g>
                <g id="Group" transform="translate(154.048866, 36.425609)">
                    <path d="M19.7881326,27.0499741 C19.2481675,27.3033696 17.8823735,27.8101607 16.6118674,28.2219285 C18.0411867,27.7151374 19.025829,27.0182996 19.4705061,26.6065319 C21.4080279,24.8644375 22.5832461,22.0137377 22.5832461,18.4028512 C22.5832461,10.9910316 17.5329843,3.29414204 11.2757417,1.20362882 C9.59232112,0.633488854 7.30541012,0.601814412 5.68551483,1.07693105 C6.82897033,0.665163297 7.81361257,0.411767755 8.44886562,0.253395542 C9.9417103,-0.0950233281 11.5616056,-0.126697771 13.3403141,0.475116641 C19.5975567,2.56562986 24.6478185,10.2941939 24.6478185,17.674339 C24.6478185,22.2671332 22.7102967,25.6246242 19.7881326,27.0499741 Z" id="Path" fill="url(#linearGradient-17)"></path>
                    <path d="M11.3075044,1.20362882 C5.05026178,-0.886884396 0,3.38916537 0,10.800985 C0,18.2128046 5.05026178,25.9096941 11.3075044,28.0002074 C17.5647469,30.0907206 22.6150087,25.8146708 22.6150087,18.4028512 C22.6150087,11.0227061 17.5329843,3.32581649 11.3075044,1.20362882 Z" id="Path" fill="url(#linearGradient-18)"></path>
                    <path d="M15.8813264,13.3032659 L14.2614311,11.2127527 L12.165096,10.0407983 L12.165096,7.91861068 L10.704014,7.12674961 L10.704014,9.24893727 L7.6547993,7.57019181 L7.6547993,18.3395023 L10.704014,20.0182478 L10.704014,22.108761 L12.165096,22.9006221 L12.165096,20.8101089 L13.8802792,21.7603421 L15.8813264,20.7784344 L15.8813264,17.8010368 L14.8649215,16.3440124 L15.8813264,15.742198 L15.8813264,13.3032659 L15.8813264,13.3032659 Z M14.4202443,19.9865734 L13.8167539,20.3033178 L9.11588133,17.7060135 L9.11588133,14.2218248 L13.3720768,16.5657335 L14.4202443,18.0861068 L14.4202443,19.9865734 Z M14.4202443,14.9820114 L13.8167539,15.3304303 L9.11588133,12.7648004 L9.11588133,9.81907724 L13.2767888,12.1313116 L14.4202443,13.6200104 L14.4202443,14.9820114 L14.4202443,14.9820114 Z" id="Shape" fill="#EF5500" fill-rule="nonzero"></path>
                    <path d="M15.8813264,20.7150855 L15.8813264,17.8010368 L14.8649215,16.3440124 L15.8813264,15.742198 L15.8813264,13.3032659 L14.2614311,11.2127527 L12.165096,10.0407983 L12.165096,7.91861068 L11.7204188,7.66521514 L11.7204188,8.6787973 L10.704014,9.21726283 L8.70296684,8.10865734 L8.70296684,17.7693624 L11.7521815,19.4481078 L11.7521815,21.538621 L12.1968586,21.7603421 L12.1968586,20.7784344 L13.2132635,20.2399689 L14.9284468,21.1902022 L15.8813264,20.7150855 Z M9.11588133,9.81907724 L10.1322862,9.28061172 L14.2931937,11.592846 L15.4366492,13.0815448 L15.4366492,14.4752203 L14.8331588,14.8236392 L14.4202443,15.0136858 L13.8167539,15.3621047 L9.11588133,12.7964749 L9.11588133,9.81907724 L9.11588133,9.81907724 Z M14.4202443,19.9865734 L13.8167539,20.3033178 L9.11588133,17.7060135 L9.11588133,14.2218248 L10.1322862,13.6833593 L14.3884817,16.027268 L15.4366492,17.5476413 L15.4366492,19.4481078 L14.8331588,19.7648523 L14.4202443,19.9865734 Z" id="Shape" fill="#FF6D00" fill-rule="nonzero"></path>
                    <g transform="translate(7.623037, 7.601866)" fill="#FF9700" id="Path">
                        <polygon points="5.55846422 12.6697771 4.54205934 13.2082426 6.25724258 14.1584759 7.30541012 13.6200104"></polygon>
                        <polygon points="6.76544503 8.39372732 2.50924956 6.081493 1.49284468 6.61995853 5.74904014 8.96386729"></polygon>
                        <polygon points="6.67015707 3.95930534 2.50924956 1.67874546 1.49284468 2.21721099 1.49284468 2.21721099 5.65375218 4.52944531"></polygon>
                        <polygon points="4.41500873 0.253395542 4.54205934 0.316744427 4.54205934 0.316744427"></polygon>
                        <polygon points="0.0635253054 10.7376361 3.08097731 12.4163815 4.0973822 11.8462416 1.07993019 10.1991706"></polygon>
                        <polyline points="3.08097731 14.4752203 4.54205934 15.2987558 4.54205934 14.1901503 4.0973822 13.9367548"></polyline>
                    </g>
                    <g transform="translate(11.752182, 7.601866)" fill="#FF7F00" id="Path">
                        <polygon points="2.66806283 10.4525661 3.68446771 9.91410057 2.63630017 8.39372732 1.61989529 8.96386729"></polygon>
                        <polygon points="2.66806283 6.01814412 3.68446771 5.44800415 2.54101222 3.95930534 1.52460733 4.52944531"></polygon>
                        <polygon points="0.285863874 0.253395542 0.412914485 0.316744427 0.412914485 0.316744427"></polygon>
                    </g>
                </g>
            </g>
        </g>
    </g>
</svg>