<?xml version="1.0" encoding="UTF-8"?>
<svg width="7px" height="7px" viewBox="0 0 7 7" version="1.1" xmlns="http://www.w3.org/2000/svg" xmlns:xlink="http://www.w3.org/1999/xlink">
    <!-- Generator: Sketch 52.6 (67491) - http://www.bohemiancoding.com/sketch -->
    <title>smart-asset-smart</title>
    <desc>Created with Sketch.</desc>
    <g id="smart-asset-smart" stroke="none" stroke-width="1" fill="none" fill-rule="evenodd">
        <path d="M4.14644661,2.35355339 C3.95118446,2.15829124 3.95118446,1.84170876 4.14644661,1.64644661 C4.34170876,1.45118446 4.65829124,1.45118446 4.85355339,1.64644661 L6.35355339,3.14644661 C6.54881554,3.34170876 6.54881554,3.65829124 6.35355339,3.85355339 L4.85355339,5.35355339 C4.65829124,5.54881554 4.34170876,5.54881554 4.14644661,5.35355339 C3.95118446,5.15829124 3.95118446,4.84170876 4.14644661,4.64644661 L5.29289322,3.5 L4.14644661,2.35355339 Z M2.85355339,4.64644661 C3.04881554,4.84170876 3.04881554,5.15829124 2.85355339,5.35355339 C2.65829124,5.54881554 2.34170876,5.54881554 2.14644661,5.35355339 L0.646446609,3.85355339 C0.451184464,3.65829124 0.451184464,3.34170876 0.646446609,3.14644661 L2.14644661,1.64644661 C2.34170876,1.45118446 2.65829124,1.45118446 2.85355339,1.64644661 C3.04881554,1.84170876 3.04881554,2.15829124 2.85355339,2.35355339 L1.70710678,3.5 L2.85355339,4.64644661 Z" id="Combined-Shape" fill="#FFFFFF" fill-rule="nonzero"></path>
    </g>
</svg>