<svg xmlns="http://www.w3.org/2000/svg" width="24" height="24" viewBox="0 0 24 24">
  <g fill="#FFF">
    <path d="M12,23.5 C5.659,23.5 0.5,18.341 0.5,12 C0.5,5.659 5.659,0.5 12,0.5 C18.341,0.5 23.5,5.659 23.5,12 C23.5,18.341 18.341,23.5 12,23.5 Z M12,1.5 C6.21,1.5 1.5,6.21 1.5,12 C1.5,17.79 6.21,22.5 12,22.5 C17.79,22.5 22.5,17.79 22.5,12 C22.5,6.21 17.79,1.5 12,1.5 Z"/>
    <path d="M7.37,5.503 C7.301,5.503 7.231,5.489 7.165,5.459 C6.913,5.346 6.801,5.049 6.914,4.798 C8.144,2.066 9.997,0.5 12,0.5 C12.276,0.5 12.5,0.724 12.5,1 C12.5,1.276 12.276,1.5 12,1.5 C10.408,1.5 8.887,2.852 7.826,5.208 C7.743,5.394 7.561,5.503 7.37,5.503 Z"/>
    <path d="M16.63 5.503C16.44 5.503 16.257 5.394 16.174 5.208 15.113 2.852 13.592 1.5 12 1.5 11.724 1.5 11.5 1.276 11.5 1 11.5.724 11.724.5 12 .5 14.003.5 15.856 2.066 17.086 4.798 17.199 5.049 17.087 5.346 16.835 5.459 16.769 5.489 16.699 5.503 16.63 5.503zM6 6.5L3 6.5C2.724 6.5 2.5 6.276 2.5 6 2.5 5.724 2.724 5.5 3 5.5L6 5.5C6.276 5.5 6.5 5.724 6.5 6 6.5 6.276 6.276 6.5 6 6.5zM21 6.5L18 6.5C17.724 6.5 17.5 6.276 17.5 6 17.5 5.724 17.724 5.5 18 5.5L21 5.5C21.276 5.5 21.5 5.724 21.5 6 21.5 6.276 21.276 6.5 21 6.5z"/>
    <path d="M12 4.5C11.724 4.5 11.5 4.276 11.5 4L11.5 1C11.5.724 11.724.5 12 .5 12.276.5 12.5.724 12.5 1L12.5 4C12.5 4.276 12.276 4.5 12 4.5zM12 23.5C11.724 23.5 11.5 23.276 11.5 23 11.5 22.724 11.724 22.5 12 22.5 13.592 22.5 15.113 21.148 16.174 18.792 16.287 18.539 16.587 18.43 16.835 18.541 17.087 18.654 17.199 18.951 17.086 19.202 15.856 21.934 14.003 23.5 12 23.5z"/>
    <path d="M12 23.5C9.997 23.5 8.144 21.934 6.914 19.202 6.801 18.951 6.913 18.654 7.165 18.541 7.414 18.43 7.713 18.539 7.826 18.792 8.887 21.148 10.408 22.5 12 22.5 12.276 22.5 12.5 22.724 12.5 23 12.5 23.276 12.276 23.5 12 23.5zM21 18.5L18 18.5C17.724 18.5 17.5 18.276 17.5 18 17.5 17.724 17.724 17.5 18 17.5L21 17.5C21.276 17.5 21.5 17.724 21.5 18 21.5 18.276 21.276 18.5 21 18.5zM6 18.5L3 18.5C2.724 18.5 2.5 18.276 2.5 18 2.5 17.724 2.724 17.5 3 17.5L6 17.5C6.276 17.5 6.5 17.724 6.5 18 6.5 18.276 6.276 18.5 6 18.5z"/>
    <path d="M12 23.5C11.724 23.5 11.5 23.276 11.5 23L11.5 20C11.5 19.724 11.724 19.5 12 19.5 12.276 19.5 12.5 19.724 12.5 20L12.5 23C12.5 23.276 12.276 23.5 12 23.5zM4 12.5L1 12.5C.724 12.5.5 12.276.5 12 .5 11.724.724 11.5 1 11.5L4 11.5C4.276 11.5 4.5 11.724 4.5 12 4.5 12.276 4.276 12.5 4 12.5zM23 12.5L20 12.5C19.724 12.5 19.5 12.276 19.5 12 19.5 11.724 19.724 11.5 20 11.5L23 11.5C23.276 11.5 23.5 11.724 23.5 12 23.5 12.276 23.276 12.5 23 12.5zM12 18.5C8.416 18.5 5.5 15.584 5.5 12 5.5 8.416 8.416 5.5 12 5.5 15.584 5.5 18.5 8.416 18.5 12 18.5 15.584 15.584 18.5 12 18.5zM12 6.5C8.968 6.5 6.5 8.967 6.5 12 6.5 15.033 8.968 17.5 12 17.5 15.032 17.5 17.5 15.033 17.5 12 17.5 8.967 15.032 6.5 12 6.5z"/>
    <g transform="translate(9 7)">
      <path d="M3.5,8.5 L1,8.5 C0.724,8.5 0.5,8.276 0.5,8 L0.5,2 C0.5,1.724 0.724,1.5 1,1.5 L3.5,1.5 C4.603,1.5 5.5,2.397 5.5,3.5 C5.5,4.097 5.237,4.633 4.821,5 C5.237,5.367 5.5,5.903 5.5,6.5 C5.5,7.603 4.603,8.5 3.5,8.5 Z M1.5,7.5 L3.5,7.5 C4.052,7.5 4.5,7.051 4.5,6.5 C4.5,5.949 4.052,5.5 3.5,5.5 L1.5,5.5 L1.5,7.5 Z M1.5,4.5 L3.5,4.5 C4.052,4.5 4.5,4.051 4.5,3.5 C4.5,2.949 4.052,2.5 3.5,2.5 L1.5,2.5 L1.5,4.5 Z"/>
      <path d="M2 2.5C1.724 2.5 1.5 2.276 1.5 2L1.5 1C1.5.724 1.724.5 2 .5 2.276.5 2.5.724 2.5 1L2.5 2C2.5 2.276 2.276 2.5 2 2.5zM4 2.5C3.724 2.5 3.5 2.276 3.5 2L3.5 1C3.5.724 3.724.5 4 .5 4.276.5 4.5.724 4.5 1L4.5 2C4.5 2.276 4.276 2.5 4 2.5zM2 9.5C1.724 9.5 1.5 9.276 1.5 9L1.5 8C1.5 7.724 1.724 7.5 2 7.5 2.276 7.5 2.5 7.724 2.5 8L2.5 9C2.5 9.276 2.276 9.5 2 9.5zM4 9.5C3.724 9.5 3.5 9.276 3.5 9L3.5 8C3.5 7.724 3.724 7.5 4 7.5 4.276 7.5 4.5 7.724 4.5 8L4.5 9C4.5 9.276 4.276 9.5 4 9.5z"/>
    </g>
  </g>
</svg>
