<?xml version="1.0" encoding="UTF-8"?>
<svg width="720px" height="60px" viewBox="0 0 720 60" version="1.1" xmlns="http://www.w3.org/2000/svg" xmlns:xlink="http://www.w3.org/1999/xlink">
    <!-- Generator: Sketch 55.2 (78181) - https://sketchapp.com -->
    <title>30</title>
    <desc>Created with Sketch.</desc>
    <g id="Page-1" stroke="none" stroke-width="1" fill="none" fill-rule="evenodd">
        <g id="30" transform="translate(-0.001060, 0.000000)">
            <g id="Shape-2" fill="#00AEF9" fill-rule="nonzero">
                <path d="M15.0010603,4.8 C12.0187227,4.8 9.60106035,7.21766235 9.60106035,10.2 C9.60106035,13.1823376 12.0187227,15.6 15.0010603,15.6 C17.9833979,15.6 20.4010603,13.1823376 20.4010603,10.2 C20.4010603,8.76783095 19.8321334,7.39431983 18.8194369,6.38162338 C17.8067405,5.36892694 16.4332293,4.8 15.0010603,4.8 Z M15.0010603,14.4 C12.6814644,14.4 10.8010603,12.5195959 10.8010603,10.2 C10.8010603,7.88040405 12.6814644,6 15.0010603,6 C17.3206562,6 19.2010603,7.88040405 19.2010603,10.2 C19.2010603,11.3139093 18.7585616,12.3821957 17.9709088,13.1698485 C17.183256,13.9575013 16.1149696,14.4 15.0010603,14.4 Z M15.0010603,0 C8.47467916,0 2.69726149,4.21991721 0.711937019,10.4370016 C-1.27338745,16.654086 0.989050539,23.4413999 6.30756074,27.2238727 C11.6260709,31.0063456 18.7799554,30.9158287 24.0010603,27 C24.4010603,26.7 24.7810603,26.38 25.1510603,26 C29.669587,21.8109621 31.1668009,15.2848003 28.9261023,9.54507977 C26.6854037,3.80535925 21.1626132,0.0196991346 15.0010603,0 Z M15.0010603,28.8 C11.7547678,28.800129 8.61296418,27.6525028 6.13106035,25.56 C6.87324107,21.2408396 10.6185976,18.0841719 15.0010603,18.0841719 C19.383523,18.0841719 23.1288796,21.2408396 23.8710603,25.56 C21.3891565,27.6525028 18.2473528,28.800129 15.0010603,28.8 L15.0010603,28.8 Z M24.9010603,24.59 C23.7882253,20.0256704 19.6990925,16.8137316 15.0010603,16.8137316 C10.3030281,16.8137316 6.21389535,20.0256704 5.10106035,24.59 C-0.171995948,19.1601088 -0.0873617583,10.4961755 5.29076264,5.17033111 C10.668887,-0.155513325 19.3332336,-0.155513325 24.711358,5.17033111 C30.0894824,10.4961755 30.1741166,19.1601088 24.9010603,24.59 L24.9010603,24.59 Z" id="Shape"></path>
            </g>
            <g id="Group" transform="translate(30.001060, 0.000000)">
                <path d="M15,0 C6.71572875,0 -1.77635684e-15,6.71572875 -1.77635684e-15,15 C-1.77635684e-15,23.2842712 6.71572875,30 15,30 C15.3313708,30 15.6,29.7313708 15.6,29.4 L15.6,21 C18.9974418,20.6898577 21.5986195,17.8415682 21.6,14.43 L21.6,12.6 C21.6,11.9372583 21.0627417,11.4 20.4,11.4 L19.2,11.4 L19.2,8.4 C19.2,8.06862915 18.9313708,7.8 18.6,7.8 C18.2686292,7.8 18,8.06862915 18,8.4 L18,11.4 L12,11.4 L12,8.4 C12,8.06862915 11.7313708,7.8 11.4,7.8 C11.0686292,7.8 10.8,8.06862915 10.8,8.4 L10.8,11.4 L9.6,11.4 C8.9372583,11.4 8.4,11.9372583 8.4,12.6 L8.4,14.4 C8.40138052,17.8115682 11.0025582,20.6598577 14.4,20.97 L14.4,28.77 C7.27004644,28.4403592 1.57979995,22.7063681 1.30477081,15.5740992 C1.02974168,8.44183026 6.26152781,2.28667197 13.3449238,1.40894681 C20.4283199,0.531221651 27.0042145,5.22325429 28.4783362,12.20694 C29.952458,19.1906257 25.8338535,26.1400614 19,28.2 C18.7955048,28.2644215 18.6398442,28.4314719 18.59,28.64 C18.5443501,28.8484911 18.6128912,29.0655379 18.77,29.21 C18.9237522,29.3581887 19.1455771,29.4117327 19.35,29.35 C26.4562891,27.1870427 30.9092131,20.148749 29.8201709,12.8008435 C28.7311287,5.45293794 22.4281661,0.0087876608 15,0 Z M9.6,14.4 L9.6,12.6 L20.4,12.6 L20.4,14.4 C20.4,17.3823376 17.9823376,19.8 15,19.8 C12.0176624,19.8 9.6,17.3823376 9.6,14.4 L9.6,14.4 Z" id="Shape-2" fill="#EF4829" fill-rule="nonzero"></path>
                <path d="M24.09,5.05 L5,24.14" id="Line" stroke="#EF4829" stroke-width="1.3" stroke-linecap="square"></path>
                <rect id="Rectangle" fill-opacity="0" fill="#D8D8D8" fill-rule="nonzero" x="0" y="0" width="30" height="30"></rect>
            </g>
            <g id="Group-10" transform="translate(60.001060, 0.000000)" fill="#AB7DF6" fill-rule="nonzero">
                <path d="M19.1946848,18.6000015 C19.1946848,18.9313723 18.9260556,19.2000015 18.5946848,19.2000015 L6.84468477,19.2000015 L9.41468477,21.7800015 C9.57169965,21.9285924 9.63664194,22.1501602 9.58468477,22.3600015 C9.52631299,22.5686118 9.3632951,22.7316297 9.15468477,22.7900015 C8.94484346,22.8419587 8.72327565,22.7770164 8.57468477,22.6200015 L4.99468477,19.0000015 C4.87974046,18.8905307 4.81468477,18.7387341 4.81468477,18.5800015 C4.81468477,18.4212689 4.87974046,18.2694723 4.99468477,18.1600015 L8.59468477,14.5600015 C8.82664437,14.3280419 9.20272516,14.3280419 9.43468474,14.5600015 C9.66664433,14.7919611 9.66664434,15.1680419 9.43468477,15.4000015 L6.84468477,18.0000015 L18.5946848,18.0000015 C18.7538147,18.0000015 18.906427,18.0632156 19.0189489,18.1757374 C19.1314707,18.2882593 19.1946848,18.4408716 19.1946848,18.6000015 Z M25.1947509,11.4000015 C25.1971302,11.5592263 25.131672,11.7119621 25.0146848,11.8200015 L21.4146848,15.4200015 C21.1827252,15.6519611 20.8066444,15.6519611 20.5746848,15.4200015 C20.3427252,15.1880419 20.3427252,14.8119611 20.5746848,14.5800015 L23.1446848,12.0000015 L11.3946848,12.0000015 C11.063314,12.0000015 10.7946848,11.7313723 10.7946848,11.4000015 C10.7946848,11.0686307 11.063314,10.8000015 11.3946848,10.8000015 L23.1446848,10.8000015 L20.5746848,8.22000154 C20.3427252,7.98804195 20.3427252,7.61196113 20.5746848,7.38000154 C20.8066444,7.14804195 21.1827252,7.14804195 21.4146848,7.38000154 L24.9946848,11.0000015 C25.1140085,11.099774 25.1864611,11.244679 25.1947509,11.4000015 L25.1947509,11.4000015 Z" id="Shape-3"></path>
                <path d="M15,30 C6.71572875,30 0,23.2842712 0,15 C0,6.71572875 6.71572875,0 15,0 C23.2842712,0 30,6.71572875 30,15 C30,18.9782473 28.4196474,22.793556 25.6066017,25.6066017 C22.793556,28.4196474 18.9782473,30 15,30 Z M15,28.87 C20.6148457,28.87 25.6766288,25.4871621 27.8244018,20.2993338 C29.9721749,15.1115054 28.782827,9.14068615 24.8111011,5.17182171 C20.8393752,1.20295726 14.8677002,0.0179129879 9.6814212,2.16942443 C4.49514216,4.32093588 1.11595472,9.3851558 1.11999637,15 C1.12552004,22.6618068 7.33819122,28.87 15,28.87 Z" id="Oval-2"></path>
            </g>
            <g id="Group-10" transform="translate(60.001060, 30.000000)" fill="#999999" fill-rule="nonzero">
                <path d="M19.1946848,18.6000015 C19.1946848,18.9313723 18.9260556,19.2000015 18.5946848,19.2000015 L6.84468477,19.2000015 L9.41468477,21.7800015 C9.57169965,21.9285924 9.63664194,22.1501602 9.58468477,22.3600015 C9.52631299,22.5686118 9.3632951,22.7316297 9.15468477,22.7900015 C8.94484346,22.8419587 8.72327565,22.7770164 8.57468477,22.6200015 L4.99468477,19.0000015 C4.87974046,18.8905307 4.81468477,18.7387341 4.81468477,18.5800015 C4.81468477,18.4212689 4.87974046,18.2694723 4.99468477,18.1600015 L8.59468477,14.5600015 C8.82664437,14.3280419 9.20272516,14.3280419 9.43468474,14.5600015 C9.66664433,14.7919611 9.66664434,15.1680419 9.43468477,15.4000015 L6.84468477,18.0000015 L18.5946848,18.0000015 C18.7538147,18.0000015 18.906427,18.0632156 19.0189489,18.1757374 C19.1314707,18.2882593 19.1946848,18.4408716 19.1946848,18.6000015 Z M25.1947509,11.4000015 C25.1971302,11.5592263 25.131672,11.7119621 25.0146848,11.8200015 L21.4146848,15.4200015 C21.1827252,15.6519611 20.8066444,15.6519611 20.5746848,15.4200015 C20.3427252,15.1880419 20.3427252,14.8119611 20.5746848,14.5800015 L23.1446848,12.0000015 L11.3946848,12.0000015 C11.063314,12.0000015 10.7946848,11.7313723 10.7946848,11.4000015 C10.7946848,11.0686307 11.063314,10.8000015 11.3946848,10.8000015 L23.1446848,10.8000015 L20.5746848,8.22000154 C20.3427252,7.98804195 20.3427252,7.61196113 20.5746848,7.38000154 C20.8066444,7.14804195 21.1827252,7.14804195 21.4146848,7.38000154 L24.9946848,11.0000015 C25.1140085,11.099774 25.1864611,11.244679 25.1947509,11.4000015 L25.1947509,11.4000015 Z" id="Shape-3"></path>
                <path d="M15,30 C6.71572875,30 0,23.2842712 0,15 C0,6.71572875 6.71572875,0 15,0 C23.2842712,0 30,6.71572875 30,15 C30,18.9782473 28.4196474,22.793556 25.6066017,25.6066017 C22.793556,28.4196474 18.9782473,30 15,30 Z M15,28.87 C20.6148457,28.87 25.6766288,25.4871621 27.8244018,20.2993338 C29.9721749,15.1115054 28.782827,9.14068615 24.8111011,5.17182171 C20.8393752,1.20295726 14.8677002,0.0179129879 9.6814212,2.16942443 C4.49514216,4.32093588 1.11595472,9.3851558 1.11999637,15 C1.12552004,22.6618068 7.33819122,28.87 15,28.87 Z" id="Oval-2"></path>
            </g>
            <g id="Group-11" transform="translate(90.001060, 0.000000)" fill="#81C926" fill-rule="nonzero">
                <path d="M21.4134472,16.9991281 C21.5283848,17.1085933 21.5934368,17.2603821 21.5934368,17.4191065 C21.5934368,17.577831 21.5283848,17.7296198 21.4134472,17.8390849 L15.4137939,23.8387767 C15.3043295,23.9537151 15.1525416,24.0187674 14.9938182,24.0187674 C14.8350948,24.0187674 14.683307,23.9537151 14.5738425,23.8387767 L8.57418923,17.8390849 C8.42414632,17.6890412 8.36554789,17.4703474 8.42046738,17.2653837 C8.47538689,17.0604201 8.63548075,16.9003251 8.84044314,16.8454053 C9.04540554,16.7904854 9.26409781,16.8490842 9.41414068,16.9991281 L14.4138517,21.9988712 L14.4138517,6.59966244 C14.4138517,6.26830862 14.6824654,5.99969327 15.0138171,5.99969327 C15.3451687,5.99969327 15.6137824,6.26830862 15.6137824,6.59966244 L15.6137824,21.9988712 L20.6134934,16.9991281 C20.8374805,16.7858058 21.1894601,16.7858058 21.4134472,16.9991281 Z" id="Shape-4"></path>
                <path d="M15,30 C6.71572875,30 0,23.2842712 0,15 C0,6.71572875 6.71572875,0 15,0 C23.2842712,0 30,6.71572875 30,15 C30,18.9782473 28.4196474,22.793556 25.6066017,25.6066017 C22.793556,28.4196474 18.9782473,30 15,30 Z M15,28.87 C20.6148457,28.87 25.6766288,25.4871621 27.8244018,20.2993338 C29.9721749,15.1115054 28.782827,9.14068615 24.8111011,5.17182171 C20.8393752,1.20295726 14.8677002,0.0179129879 9.6814212,2.16942443 C4.49514216,4.32093588 1.11595472,9.3851558 1.11999637,15 C1.12552004,22.6618068 7.33819122,28.87 15,28.87 Z" id="Oval-2"></path>
            </g>
            <g id="Group-11" transform="translate(90.001060, 30.000000)" fill="#999999" fill-rule="nonzero">
                <path d="M21.4134472,16.9991281 C21.5283848,17.1085933 21.5934368,17.2603821 21.5934368,17.4191065 C21.5934368,17.577831 21.5283848,17.7296198 21.4134472,17.8390849 L15.4137939,23.8387767 C15.3043295,23.9537151 15.1525416,24.0187674 14.9938182,24.0187674 C14.8350948,24.0187674 14.683307,23.9537151 14.5738425,23.8387767 L8.57418923,17.8390849 C8.42414632,17.6890412 8.36554789,17.4703474 8.42046738,17.2653837 C8.47538689,17.0604201 8.63548075,16.9003251 8.84044314,16.8454053 C9.04540554,16.7904854 9.26409781,16.8490842 9.41414068,16.9991281 L14.4138517,21.9988712 L14.4138517,6.59966244 C14.4138517,6.26830862 14.6824654,5.99969327 15.0138171,5.99969327 C15.3451687,5.99969327 15.6137824,6.26830862 15.6137824,6.59966244 L15.6137824,21.9988712 L20.6134934,16.9991281 C20.8374805,16.7858058 21.1894601,16.7858058 21.4134472,16.9991281 Z" id="Shape-4"></path>
                <path d="M15,30 C6.71572875,30 0,23.2842712 0,15 C0,6.71572875 6.71572875,0 15,0 C23.2842712,0 30,6.71572875 30,15 C30,18.9782473 28.4196474,22.793556 25.6066017,25.6066017 C22.793556,28.4196474 18.9782473,30 15,30 Z M15,28.87 C20.6148457,28.87 25.6766288,25.4871621 27.8244018,20.2993338 C29.9721749,15.1115054 28.782827,9.14068615 24.8111011,5.17182171 C20.8393752,1.20295726 14.8677002,0.0179129879 9.6814212,2.16942443 C4.49514216,4.32093588 1.11595472,9.3851558 1.11999637,15 C1.12552004,22.6618068 7.33819122,28.87 15,28.87 Z" id="Oval-2"></path>
            </g>
            <g id="Shape-6-2" transform="translate(120.001060, 0.000000)" fill="#EF4829" fill-rule="nonzero">
                <path d="M8.74853754,15 C8.74853754,18.4517797 11.5462902,21.25 14.9974929,21.25 C18.4486957,21.25 21.2464483,18.4517797 21.2464483,15 C21.2464483,11.5482203 18.4486957,8.75 14.9974929,8.75 C11.5462902,8.75 8.74853754,11.5482203 8.74853754,15 Z M19.9966572,15 C19.9966572,17.7614237 17.7584551,20 14.9974929,20 C12.2365308,20 9.99832862,17.7614237 9.99832862,15 C9.99832862,12.2385763 12.2365308,10 14.9974929,10 C17.7584551,10 19.9966572,12.2385763 19.9966572,15 Z M23.7460305,10.62 C23.7460305,10.9679394 24.0280439,11.25 24.3759252,11.25 L29.3750895,11.25 C29.7190599,11.2445386 29.9950292,10.9640713 29.9949859,10.62 L29.9949859,5.68 C30.0256739,5.43783285 29.9137291,5.19973017 29.7076771,5.06890442 C29.5016251,4.93807866 29.2385555,4.93807866 29.0325036,5.06890442 C28.8264515,5.19973017 28.7145067,5.43783285 28.7451948,5.68 L28.7451948,9.36 C25.4157514,3.24 20.6765436,0 14.9974929,0 C6.7146063,0 0,6.71572875 0,15 C0,23.2842712 6.7146063,30 14.9974929,30 C23.2803795,30 29.9949859,23.2842712 29.9949859,15 C30.0256739,14.7578328 29.9137291,14.5197302 29.7076771,14.3889044 C29.5016251,14.2580787 29.2385555,14.2580787 29.0325036,14.3889044 C28.8264515,14.5197302 28.7145067,14.7578328 28.7451948,15 C28.7451948,20.5613559 25.3956748,25.5751048 20.2585107,27.7033436 C15.1213465,29.8315823 9.2082149,28.6551907 5.27639973,24.7227182 C1.34458454,20.7902458 0.168389528,14.8761257 2.29627257,9.7381028 C4.42415561,4.60007995 9.43706657,1.25 14.9974929,1.25 C21.4564132,1.25 25.405753,5.82 27.6753736,10 L24.3759252,10 C24.0319114,9.9999567 23.751491,10.2759721 23.7460305,10.62 Z" id="Shape-6"></path>
            </g>
            <g id="Shape-6-2" transform="translate(120.001060, 30.000000)" fill="#999999" fill-rule="nonzero">
                <path d="M8.74853754,15 C8.74853754,18.4517797 11.5462902,21.25 14.9974929,21.25 C18.4486957,21.25 21.2464483,18.4517797 21.2464483,15 C21.2464483,11.5482203 18.4486957,8.75 14.9974929,8.75 C11.5462902,8.75 8.74853754,11.5482203 8.74853754,15 Z M19.9966572,15 C19.9966572,17.7614237 17.7584551,20 14.9974929,20 C12.2365308,20 9.99832862,17.7614237 9.99832862,15 C9.99832862,12.2385763 12.2365308,10 14.9974929,10 C17.7584551,10 19.9966572,12.2385763 19.9966572,15 Z M23.7460305,10.62 C23.7460305,10.9679394 24.0280439,11.25 24.3759252,11.25 L29.3750895,11.25 C29.7190599,11.2445386 29.9950292,10.9640713 29.9949859,10.62 L29.9949859,5.68 C30.0256739,5.43783285 29.9137291,5.19973017 29.7076771,5.06890442 C29.5016251,4.93807866 29.2385555,4.93807866 29.0325036,5.06890442 C28.8264515,5.19973017 28.7145067,5.43783285 28.7451948,5.68 L28.7451948,9.36 C25.4157514,3.24 20.6765436,0 14.9974929,0 C6.7146063,0 0,6.71572875 0,15 C0,23.2842712 6.7146063,30 14.9974929,30 C23.2803795,30 29.9949859,23.2842712 29.9949859,15 C30.0256739,14.7578328 29.9137291,14.5197302 29.7076771,14.3889044 C29.5016251,14.2580787 29.2385555,14.2580787 29.0325036,14.3889044 C28.8264515,14.5197302 28.7145067,14.7578328 28.7451948,15 C28.7451948,20.5613559 25.3956748,25.5751048 20.2585107,27.7033436 C15.1213465,29.8315823 9.2082149,28.6551907 5.27639973,24.7227182 C1.34458454,20.7902458 0.168389528,14.8761257 2.29627257,9.7381028 C4.42415561,4.60007995 9.43706657,1.25 14.9974929,1.25 C21.4564132,1.25 25.405753,5.82 27.6753736,10 L24.3759252,10 C24.0319114,9.9999567 23.751491,10.2759721 23.7460305,10.62 Z" id="Shape-6"></path>
            </g>
            <g id="Group-12" transform="translate(150.001060, 0.000000)" fill="#FFAF00" fill-rule="nonzero">
                <path d="M21.4146848,12.1800015 C21.5647364,12.330053 21.6233382,12.548758 21.5684156,12.7537322 C21.5134929,12.9587065 21.3533898,13.1188096 21.1484155,13.1737323 C20.9434413,13.2286549 20.7247363,13.1700531 20.5746848,13.0200015 L15.5746848,8.02000154 L15.5746848,23.4000015 C15.5746848,23.7313723 15.3060556,24.0000015 14.9746848,24.0000015 C14.643314,24.0000015 14.3746848,23.7313723 14.3746848,23.4000015 L14.3746848,8.05000154 L9.37468477,13.0500015 C9.14272516,13.281961 8.76664441,13.281961 8.53468485,13.0500014 C8.30272528,12.8180419 8.30272525,12.4419611 8.53468477,12.2100015 L14.5346848,6.21000154 C14.6441556,6.09505723 14.7959522,6.03000154 14.9546848,6.03000154 C15.1134174,6.03000154 15.265214,6.09505723 15.3746848,6.21000154 L21.4146848,12.1800015 Z" id="Shape-7"></path>
                <path d="M15,30 C6.71572875,30 0,23.2842712 0,15 C0,6.71572875 6.71572875,0 15,0 C23.2842712,0 30,6.71572875 30,15 C30,18.9782473 28.4196474,22.793556 25.6066017,25.6066017 C22.793556,28.4196474 18.9782473,30 15,30 Z M15,28.87 C20.6148457,28.87 25.6766288,25.4871621 27.8244018,20.2993338 C29.9721749,15.1115054 28.782827,9.14068615 24.8111011,5.17182171 C20.8393752,1.20295726 14.8677002,0.0179129879 9.6814212,2.16942443 C4.49514216,4.32093588 1.11595472,9.3851558 1.11999637,15 C1.12552004,22.6618068 7.33819122,28.87 15,28.87 Z" id="Oval-2"></path>
            </g>
            <g id="Group-12" transform="translate(150.001060, 30.000000)" fill="#999999" fill-rule="nonzero">
                <path d="M21.4146848,12.1800015 C21.5647364,12.330053 21.6233382,12.548758 21.5684156,12.7537322 C21.5134929,12.9587065 21.3533898,13.1188096 21.1484155,13.1737323 C20.9434413,13.2286549 20.7247363,13.1700531 20.5746848,13.0200015 L15.5746848,8.02000154 L15.5746848,23.4000015 C15.5746848,23.7313723 15.3060556,24.0000015 14.9746848,24.0000015 C14.643314,24.0000015 14.3746848,23.7313723 14.3746848,23.4000015 L14.3746848,8.05000154 L9.37468477,13.0500015 C9.14272516,13.281961 8.76664441,13.281961 8.53468485,13.0500014 C8.30272528,12.8180419 8.30272525,12.4419611 8.53468477,12.2100015 L14.5346848,6.21000154 C14.6441556,6.09505723 14.7959522,6.03000154 14.9546848,6.03000154 C15.1134174,6.03000154 15.265214,6.09505723 15.3746848,6.21000154 L21.4146848,12.1800015 Z" id="Shape-7"></path>
                <path d="M15,30 C6.71572875,30 0,23.2842712 0,15 C0,6.71572875 6.71572875,0 15,0 C23.2842712,0 30,6.71572875 30,15 C30,18.9782473 28.4196474,22.793556 25.6066017,25.6066017 C22.793556,28.4196474 18.9782473,30 15,30 Z M15,28.87 C20.6148457,28.87 25.6766288,25.4871621 27.8244018,20.2993338 C29.9721749,15.1115054 28.782827,9.14068615 24.8111011,5.17182171 C20.8393752,1.20295726 14.8677002,0.0179129879 9.6814212,2.16942443 C4.49514216,4.32093588 1.11595472,9.3851558 1.11999637,15 C1.12552004,22.6618068 7.33819122,28.87 15,28.87 Z" id="Oval-2"></path>
            </g>
            <g id="Shape-8-2" transform="translate(180.001060, 0.000000)" fill="#81C926" fill-rule="nonzero">
                <path d="M15,0 C6.715729,0 1.77635684e-15,6.71572875 1.77635684e-15,15 C1.77635684e-15,23.2842712 6.715729,30 15,30 C15.331371,30 15.6,29.7313708 15.6,29.4 L15.6,21 C18.997442,20.6898577 21.598619,17.8415682 21.6,14.43 L21.6,12.6 C21.6,11.9372583 21.062742,11.4 20.4,11.4 L19.2,11.4 L19.2,8.4 C19.2,8.06862915 18.931371,7.8 18.6,7.8 C18.268629,7.8 18,8.06862915 18,8.4 L18,11.4 L12,11.4 L12,8.4 C12,8.06862915 11.731371,7.8 11.4,7.8 C11.068629,7.8 10.8,8.06862915 10.8,8.4 L10.8,11.4 L9.6,11.4 C8.937258,11.4 8.4,11.9372583 8.4,12.6 L8.4,14.4 C8.401381,17.8115682 11.002558,20.6598577 14.4,20.97 L14.4,28.77 C7.270046,28.4403592 1.5798,22.7063681 1.304771,15.5740992 C1.029742,8.44183026 6.261528,2.28667197 13.344924,1.40894681 C20.42832,0.531221651 27.004214,5.22325429 28.478336,12.20694 C29.952458,19.1906257 25.833854,26.1400614 19,28.2 C18.799219,28.2633954 18.64636,28.4273954 18.597222,28.6321334 C18.548085,28.8368714 18.609861,29.0523839 18.76,29.2 C18.914782,29.3463005 19.135522,29.3995824 19.34,29.34 C26.427578,27.165255 30.863273,20.1388702 29.778433,12.8049489 C28.693592,5.47102765 22.413663,0.0297080222 15,0 Z M9.6,14.4 L9.6,12.6 L20.4,12.6 L20.4,14.4 C20.4,17.3823376 17.982338,19.8 15,19.8 C12.017662,19.8 9.6,17.3823376 9.6,14.4 Z" id="Shape-8"></path>
            </g>
            <g id="t-tokenburn" transform="translate(210.001060, 0.000000)" fill-rule="nonzero">
                <rect id="Rectangle-7" fill-opacity="0" fill="#D8D8D8" x="0" y="0" width="30" height="30"></rect>
                <g id="burn" transform="translate(4.000000, 0.000000)" fill="#FFAF00" stroke="#FFAF00" stroke-width="0.1">
                    <path d="M7.17,25.89 C7.17,26.02 6.94,26.48 6.94,26.48 C6.86822434,26.6677662 6.81464511,26.8619909 6.78,27.06 L6.68,27.61 L5.61,27.4 L5.71,26.86 C5.75604664,26.5930654 5.82977796,26.3316544 5.93,26.08 C5.93,26.03 6.11,25.63 6.13,25.56 C6.26604459,25.2316579 6.44420474,24.9223988 6.66,24.64 C6.7574965,24.4964174 6.8643972,24.3594509 6.98,24.23 C7.03153706,24.168426 7.08842595,24.1115371 7.15,24.06 L7.3,23.96 C7.45811012,23.8844728 7.64188988,23.8844728 7.8,23.96 C7.91884756,24.0251119 8.01353233,24.1268103 8.07,24.25 L8.16,24.43 C8.16,24.49 8.29,24.76 8.32,24.82 C8.36663449,24.9412783 8.42350639,25.0583675 8.49,25.17 C8.58154364,25.226609 8.67873469,25.2735288 8.78,25.31 C8.731945,25.1304202 8.7050953,24.9458285 8.7,24.76 L8.7,23.36 C8.69943055,22.7035797 8.84279685,22.0550179 9.12,21.46 C9.1696599,21.3801121 9.21312064,21.2965338 9.25,21.21 C9.4332047,20.6968938 9.71518464,20.2246624 10.08,19.82 C10.9,18.82 11.57,18.19 11.91,18.19 C12.0811747,18.1865076 12.2426807,18.2691386 12.34,18.41 C12.38429,18.459465 12.4182846,18.5172558 12.44,18.58 C12.445411,18.639878 12.445411,18.700122 12.44,18.76 C12.44,18.84 12.44,18.94 12.44,19.08 C12.44,19.22 12.44,19.48 12.44,19.56 C12.44,19.64 12.44,19.95 12.44,20.13 L12.44,20.41 L12.44,20.66 C12.450531,20.8282097 12.4739328,20.9953654 12.51,21.16 C12.5448256,21.3146388 12.5950772,21.4653936 12.66,21.61 C12.8497063,21.9743046 13.088611,22.3107901 13.37,22.61 L13.58,22.84 L13.78,23.06 L14.27,23.59 C14.74,24.1 14.94,24.32 15.08,24.5 L15.21,24.67 L15.35,24.86 C15.5751918,25.1636954 15.7507122,25.5012346 15.87,25.86 C16.0100244,26.3326661 16.1005111,26.8186135 16.14,27.31 L16.14,27.86 L15.06,27.97 L15.01,27.42 C14.9844399,27.0159725 14.9105806,26.6164606 14.79,26.23 C14.7030008,25.9935428 14.5817033,25.771164 14.43,25.57 L14.31,25.4 L14.18,25.24 C14.07,25.1 13.87,24.88 13.44,24.41 L12.94,23.87 L12.73,23.65 L12.52,23.4 C12.1599391,23.028569 11.8596999,22.6035113 11.63,22.14 C11.5281503,21.9226456 11.4510014,21.6945531 11.4,21.46 C11.3573428,21.2486388 11.3272898,21.0349285 11.31,20.82 L11.31,20.58 C11.31,20.48 11.31,20.39 11.31,20.31 L11.31,19.97 L10.72,20.61 C10.4330427,20.9340875 10.2122324,21.3111636 10.07,21.72 C10,21.87 9.95,21.98 9.88,22.1 C9.70903053,22.5191191 9.62074238,22.9673513 9.62,23.42 L9.62,24.82 C9.63438926,24.9580439 9.65777229,25.0950017 9.69,25.23 C9.75,25.49 9.77,25.6 9.79,25.73 C9.87382923,26.0231503 9.76113214,26.3370922 9.51,26.51 C9.11,26.79 8.02,26.43 7.61,26.07 C7.54244499,26.0105414 7.48203872,25.9434233 7.43,25.87 C7.37,25.77 7.31,25.66 7.24,25.52 C7.20701216,25.6413096 7.1836068,25.7650237 7.17,25.89 Z" id="Line-2"></path>
                    <path d="M17.46,12.38 C17.46,12.24 17.46,12.24 17.6,12.01 C17.74,11.78 17.87,11.82 18.08,11.83 C18.29,11.84 18.3,11.9 18.35,11.94 L18.46,12.05 C18.52,12.11 18.59,12.2 18.68,12.31 L19.46,13.31 C19.9531446,14.0497932 20.3339467,14.8585763 20.59,15.71 C20.7375553,16.1344211 20.8545213,16.568866 20.94,17.01 C20.94,17.24 21.01,17.46 21.04,17.77 C21.04,17.88 21.04,18 21.04,18.16 C21.04,18.32 21.04,18.57 21.04,18.64 C21.1241909,19.5478975 21.0838167,20.4630441 20.92,21.36 C20.92,21.51 20.92,21.59 20.87,21.67 C20.8651183,21.7198808 20.8651183,21.7701192 20.87,21.82 C20.6565038,22.8654307 20.2962722,23.875426 19.8,24.82 C19.2558929,25.70578 18.5816893,26.5047113 17.8,27.19 C17.3062767,27.6182033 16.7740102,27.9998284 16.21,28.33 C14.402607,29.4025759 12.3032225,29.8784364 10.21,29.69 C8.99827326,29.6084608 7.81508088,29.2854629 6.73,28.74 C5.64216451,28.1184964 4.65437121,27.3363529 3.8,26.42 C3.23894573,25.8474024 2.75791854,25.2015477 2.37,24.5 C1.87617182,23.6762824 1.47378603,22.8010933 1.17,21.89 C0.95293297,21.0429616 0.832168516,20.1741285 0.81,19.3 C0.826470059,18.546778 0.889926704,17.7953177 1,17.05 C1.19194313,16.1263681 1.50462882,15.2320198 1.93,14.39 C2.35181754,13.6061743 2.84028514,12.8600902 3.39,12.16 L3.47,12.06 L3.64,11.86 C3.76,11.71 3.9,11.56 4.11,11.34 L4.4,11.02 L4.75,10.64 L5.01,10.36 C5.14,10.21 5.28,10.07 5.45,9.89 C5.45,9.89 5.77,9.56 5.85,9.47 C6.13,9.18 6.28,9.01 6.35,8.93 L6.45,8.79 L6.59,8.6 L6.93,8.13 L7.14,7.82 C7.27,7.6 7.37,7.41 7.44,7.27 C7.51,7.13 7.53,7.05 7.59,6.9 L7.76,6.5 L7.76,6.42 C7.99,5.88 8.12,5.53 8.19,5.32 C8.37672009,4.64028977 8.49398739,3.94338697 8.54,3.24 C8.54,3.02 8.54,2.78 8.59,2.51 C8.59,1.91 8.59,1.28 8.59,0.72 L8.59,0.6 C8.65,0.27 8.65,0.27 8.99,0.07 C9.21,0.07 9.21,0.07 9.29,0.07 L9.43,0.13 L9.53,0.2 L9.74,0.38 C9.92,0.53 10.16,0.74 10.4,0.97 C10.9643616,1.47491312 11.4986129,2.01250349 12,2.58 C12.6804435,3.32332518 13.2588615,4.15396035 13.72,5.05 C14.2183965,6.09225235 14.6136128,7.18077198 14.9,8.3 C15.1058231,9.38754618 15.1996466,10.4933231 15.18,11.6 C15.1661877,12.3239189 15.099342,13.0458523 14.98,13.76 C14.98,13.97 14.91,14.17 14.86,14.38 L14.77,14.79 L14.77,14.9 L15.16,14.76 C15.6292517,14.5656144 16.0370425,14.2476759 16.34,13.84 C16.6292242,13.4983023 16.8996246,13.1411067 17.15,12.77 C17.27,12.6 17.37,12.45 17.44,12.33 L17.51,12.22 C17.51,12.22 17.46,12.26 17.46,12.38 Z M9.67,2.56 C9.67,2.85 9.67,3.11 9.67,3.34 C9.61446289,4.12073507 9.48385993,4.89430644 9.28,5.65 C9.14129556,6.06145919 8.98107485,6.4653489 8.8,6.86 L8.8,6.94 L8.63,7.34 C8.56,7.49 8.52,7.6 8.47,7.7 C8.3666095,7.95158098 8.2393619,8.1926817 8.09,8.42 L7.86,8.77 C7.74,8.94 7.63,9.1 7.5,9.27 L7.35,9.47 L7.25,9.61 C7.14,9.74 6.98,9.92 6.67,10.25 L6.27,10.66 L5.84,11.12 L5.59,11.38 C5.47,11.53 5.36,11.64 5.23,11.79 L4.94,12.1 L4.5,12.59 C4.44,12.65 4.4,12.71 4.35,12.77 L4.28,12.85 C3.76808061,13.4940318 3.31619492,14.1835759 2.93,14.91 C2.55948914,15.6454734 2.28394846,16.4250519 2.11,17.23 C2.04040761,17.9144261 2.00702775,18.6020513 2.01,19.29 C2.03112932,20.0484204 2.13167842,20.8025386 2.31,21.54 C2.5929704,22.3694008 2.96162931,23.1670447 3.41,23.92 C3.75448785,24.5471261 4.18536459,25.1227505 4.69,25.63 C5.46266612,26.4580196 6.35203808,27.1688434 7.33,27.74 C8.29102404,28.2193456 9.33824712,28.5015518 10.41,28.57 C11.5751315,28.6838501 12.7512715,28.5648764 13.87,28.22 C14.5685159,28.0139476 15.2399338,27.7252379 15.87,27.36 C16.3712323,27.0730478 16.8434441,26.7381458 17.28,26.36 C17.9572796,25.7590212 18.5464148,25.0655249 19.03,24.3 C19.4656674,23.4815646 19.7853966,22.6065164 19.98,21.7 C19.9848585,21.6467773 19.9848585,21.5932227 19.98,21.54 C19.9854215,21.4334022 19.9854215,21.3265978 19.98,21.22 C20.1336389,20.4162482 20.1740307,19.5949487 20.1,18.78 C20.1,18.71 20.1,18.38 20.1,18.3 C20.1,18.22 20.1,18.02 20.1,17.92 C20.0810608,17.6986328 20.051023,17.4783557 20.01,17.26 C19.9316855,16.8605157 19.8281448,16.4663933 19.7,16.08 C19.4689535,15.3419771 19.1321159,14.6413549 18.7,14 L18.19,13.33 C17.9008876,13.7579561 17.5870195,14.1686558 17.25,14.56 C16.8460268,15.0940663 16.3077641,15.5115649 15.69,15.77 C15.3699899,15.9056499 15.0339217,15.999749 14.69,16.05 C14.11,16.13 13.69,16 13.69,15.36 C13.69,15.21 13.94,14.15 13.94,14.14 C13.94,13.94 14.02,13.75 14.05,13.56 C14.1593119,12.8986937 14.2194766,12.2301972 14.23,11.56 C14.2461291,10.5546258 14.1657609,9.55002304 13.99,8.56 C13.7247123,7.52704985 13.359663,6.52232713 12.9,5.56 C12.4786851,4.74679112 11.9506876,3.99346997 11.33,3.32 C10.8626904,2.78536665 10.3652129,2.27787281 9.84,1.8 L9.67,2.56 Z M18.55,12.39 C18.5340372,12.4949755 18.5002151,12.596442 18.45,12.69 C18.5109606,12.6014329 18.5456283,12.49743 18.55,12.39 L18.55,12.39 Z" id="Line-2-2"></path>
                </g>
            </g>
            <g id="t-tokengen" transform="translate(240.001060, 0.000000)" fill-rule="nonzero">
                <rect id="Rectangle-8" fill-opacity="0" fill="#D8D8D8" x="0" y="0" width="30" height="30"></rect>
                <path d="M23.31,7.15592688 C24.5355672,8.38518174 24.7226248,10.3087921 23.7568523,11.7511394 C22.7910797,13.1934867 20.9412213,13.7532108 19.3378218,13.088235 C17.7344224,12.4232593 16.823658,10.7186258 17.1621442,9.01612478 C17.5006304,7.3136238 18.994177,6.0870083 20.73,6.08592688 C21.6978494,6.08642529 22.6258763,6.47130468 23.31,7.15592688 L23.31,7.15592688 Z M18.1299848,9.73592688 C18.1362032,10.9752795 19.0163248,12.0379647 20.2328259,12.2749422 C21.449327,12.5119196 22.6639834,11.8573023 23.1349374,10.7109012 C23.6058914,9.56449998 23.2022034,8.24504936 22.1704281,7.55841052 C21.1386527,6.87177169 19.7656549,7.00885113 18.89,7.88592688 C18.4010697,8.37721616 18.127637,9.042809 18.1299848,9.73592688 L18.1299848,9.73592688 Z M20.36,9.36592688 C20.1588059,9.56966686 20.160181,9.89772244 20.3630759,10.0997687 C20.5659708,10.301815 20.8940292,10.301815 21.0969241,10.0997687 C21.299819,9.89772244 21.3011941,9.56966686 21.1,9.36592688 C20.8941591,9.16522464 20.5658409,9.16522464 20.36,9.36592688 L20.36,9.36592688 Z M25.52,4.95592688 C22.882472,2.34802437 18.637528,2.34802437 16,4.95592688 L5,16.0259269 C4.8620441,16.1540971 4.80593968,16.3478565 4.85406846,16.5299088 C4.90219723,16.7119611 5.04672677,16.8526794 5.23,16.8959269 C5.40790941,16.9464592 5.59923386,16.8967149 5.73,16.7659269 L16.68,5.67592688 C18.1304983,4.22900124 20.2427396,3.66581844 22.2210631,4.19852399 C24.1993866,4.73122955 25.7432379,6.2788928 26.2710631,8.25852399 C26.7988884,10.2381552 26.2304983,12.3490013 24.78,13.7959269 L18.15,20.4359269 C17.9456546,20.6402723 17.9456546,20.9715815 18.15,21.1759269 C18.3543454,21.3802723 18.6856546,21.3802723 18.89,21.1759269 L25.52,14.5359269 C28.1590063,11.8800171 28.1590063,7.59183671 25.52,4.93592688 L25.52,4.95592688 Z M9.28,16.2959269 L2.65,22.9559269 C2.51781173,23.0881152 2.46618634,23.2807838 2.5145706,23.4613563 C2.56295486,23.6419288 2.70399807,23.782972 2.8845706,23.8313563 C3.06514313,23.8797406 3.25781173,23.8281152 3.39,23.6959269 L10,17.0359269 C10.1303767,16.9014767 10.180116,16.7082003 10.1308386,16.5275164 C10.0815612,16.3468325 9.94058384,16.2055697 9.76,16.1559269 C9.58029274,16.1100907 9.38977554,16.1634355 9.26,16.2959269 L9.28,16.2959269 Z M16.19,13.5459269 L8.83,20.9559269 C8.63049525,21.1583676 8.63049525,21.4834862 8.83,21.6859269 C8.92629956,21.7874397 9.06007699,21.8449283 9.2,21.8449283 C9.33992301,21.8449283 9.47370044,21.7874397 9.57,21.6859269 L16.93,14.3159269 C17.0574813,14.1791739 17.1097959,13.9885991 17.07,13.8059269 C17.0203906,13.6260647 16.8798622,13.4855363 16.7,13.4359269 C16.5223896,13.3825892 16.3298342,13.4241208 16.19,13.5459269 L16.19,13.5459269 Z M7.86,26.0659269 C7.72781173,26.1981152 7.67618634,26.3907838 7.7245706,26.5713563 C7.77295486,26.7519288 7.91399807,26.892972 8.0945706,26.9413563 C8.27514313,26.9897406 8.46781173,26.9381152 8.6,26.8059269 L16.7,18.6859269 C16.8289904,18.5541044 16.8817813,18.3655655 16.84,18.1859269 C16.7941559,18.0039006 16.6520263,17.861771 16.47,17.8159269 C16.2998667,17.7829462 16.1243558,17.835226 16,17.9559269 L7.86,26.0659269 Z M13.98,25.1459269 C13.8478117,25.2781152 13.7961863,25.4707838 13.8445706,25.6513563 C13.8929549,25.8319288 14.0339981,25.972972 14.2145706,26.0213563 C14.3951431,26.0697406 14.5878117,26.0181152 14.72,25.8859269 L16.93,23.6759269 C17.1343454,23.4715815 17.1343454,23.1402723 16.93,22.9359269 C16.7256546,22.7315815 16.3943454,22.7315815 16.19,22.9359269 L13.98,25.1459269 Z M11.72,15.3259269 L13.2,13.8459269 C13.298349,13.7499503 13.3538048,13.6183461 13.3538048,13.4809269 C13.3538048,13.3435077 13.298349,13.2119035 13.2,13.1159269 C13.1054641,13.0149517 12.9733221,12.9576505 12.835,12.9576505 C12.6966779,12.9576505 12.5645359,13.0149517 12.47,13.1159269 L11,14.5859269 C10.8984872,14.6822265 10.8409986,14.8160039 10.8409986,14.9559269 C10.8409986,15.0958499 10.8984872,15.2296273 11,15.3259269 C11.20119,15.5189492 11.51881,15.5189492 11.72,15.3259269 L11.72,15.3259269 Z" id="Shape-9" stroke="#26C1C9" stroke-width="0.2" fill="#26C1C9"></path>
            </g>
            <g id="t-tokenreis" transform="translate(270.001060, 0.000000)" fill-rule="nonzero">
                <rect id="Rectangle-9" fill-opacity="0" fill="#D8D8D8" x="0" y="0" width="30" height="30"></rect>
                <path d="M27.5,15.05 L27.5,15.05 L27.5,16.05 C27.5,16.3261424 27.2761424,16.55 27,16.55 C26.7238576,16.55 26.5,16.3261424 26.5,16.05 L26.5,15.05 C26.4353909,9.68176488 22.5802535,5.11007484 17.3,4.14 C12.0083252,3.0612538 6.67224853,5.77697268 4.43,10.69 L10,10.69 C10.2761424,10.69 10.5,10.9138576 10.5,11.19 C10.5,11.4661424 10.2761424,11.69 10,11.69 L3,11.69 C2.87003618,11.6926794 2.74433364,11.6436071 2.65055947,11.5535839 C2.55678529,11.4635607 2.50262527,11.3399649 2.5,11.21 L2.5,4.4 C2.5,4.12385763 2.72385763,3.9 3,3.9 C3.27614237,3.9 3.5,4.12385763 3.5,4.4 L3.5,10.32 C5.93506349,4.97137703 11.742026,2.01397398 17.5,3.19 C23.2391528,4.2457812 27.4290299,9.21497544 27.5,15.05 Z M27,18.44 L20,18.44 C19.7238576,18.44 19.5,18.6638576 19.5,18.94 C19.5,19.2161424 19.7238576,19.44 20,19.44 L25.57,19.44 C23.3199844,24.3428063 17.9826463,27.0425787 12.7,25.95 C7.41920038,24.9878966 3.5615116,20.417374 3.5,15.05 L3.5,14.05 C3.5,13.7738576 3.27614237,13.55 3,13.55 C2.72385763,13.55 2.5,13.7738576 2.5,14.05 L2.5,15.05 L2.5,15.05 C2.56787728,20.8841614 6.76030229,25.852185 12.5,26.9 C18.2595592,28.0877573 24.0734924,25.1268041 26.5,19.77 L26.5,25.69 C26.5,25.9661424 26.7238576,26.19 27,26.19 C27.2761424,26.19 27.5,25.9661424 27.5,25.69 L27.5,18.92 C27.5,18.7891539 27.4468062,18.6639324 27.3524155,18.5733172 C27.2580247,18.4827021 27.1307325,18.434548 27,18.44 L27,18.44 Z" id="Shape-10" stroke="#81C926" stroke-width="0.4" fill="#81C926"></path>
            </g>
            <g id="t-tokenreis" transform="translate(270.001060, 30.000000)" fill-rule="nonzero">
                <rect id="Rectangle-9" fill-opacity="0" fill="#D8D8D8" x="0" y="0" width="30" height="30"></rect>
                <path d="M27.5,15.05 L27.5,15.05 L27.5,16.05 C27.5,16.3261424 27.2761424,16.55 27,16.55 C26.7238576,16.55 26.5,16.3261424 26.5,16.05 L26.5,15.05 C26.4353909,9.68176488 22.5802535,5.11007484 17.3,4.14 C12.0083252,3.0612538 6.67224853,5.77697268 4.43,10.69 L10,10.69 C10.2761424,10.69 10.5,10.9138576 10.5,11.19 C10.5,11.4661424 10.2761424,11.69 10,11.69 L3,11.69 C2.87003618,11.6926794 2.74433364,11.6436071 2.65055947,11.5535839 C2.55678529,11.4635607 2.50262527,11.3399649 2.5,11.21 L2.5,4.4 C2.5,4.12385763 2.72385763,3.9 3,3.9 C3.27614237,3.9 3.5,4.12385763 3.5,4.4 L3.5,10.32 C5.93506349,4.97137703 11.742026,2.01397398 17.5,3.19 C23.2391528,4.2457812 27.4290299,9.21497544 27.5,15.05 Z M27,18.44 L20,18.44 C19.7238576,18.44 19.5,18.6638576 19.5,18.94 C19.5,19.2161424 19.7238576,19.44 20,19.44 L25.57,19.44 C23.3199844,24.3428063 17.9826463,27.0425787 12.7,25.95 C7.41920038,24.9878966 3.5615116,20.417374 3.5,15.05 L3.5,14.05 C3.5,13.7738576 3.27614237,13.55 3,13.55 C2.72385763,13.55 2.5,13.7738576 2.5,14.05 L2.5,15.05 L2.5,15.05 C2.56787728,20.8841614 6.76030229,25.852185 12.5,26.9 C18.2595592,28.0877573 24.0734924,25.1268041 26.5,19.77 L26.5,25.69 C26.5,25.9661424 26.7238576,26.19 27,26.19 C27.2761424,26.19 27.5,25.9661424 27.5,25.69 L27.5,18.92 C27.5,18.7891539 27.4468062,18.6639324 27.3524155,18.5733172 C27.2580247,18.4827021 27.1307325,18.434548 27,18.44 L27,18.44 Z" id="Shape-10" stroke="#999999" stroke-width="0.4" fill="#999999"></path>
            </g>
            <g id="Group" transform="translate(300.001060, 0.000000)" fill-rule="nonzero">
                <rect id="Rectangle-10" fill-opacity="0" fill="#D8D8D8" x="0" y="0" width="30" height="30"></rect>
                <path d="M15,30 C6.715729,30 -2.84217094e-14,23.2842712 -2.84217094e-14,15 C-2.84217094e-14,6.71572875 6.715729,0 15,0 C15.331371,0 15.6,0.26862915 15.6,0.6 L15.6,9 C18.997442,9.31014231 21.598619,12.1584318 21.6,15.57 L21.6,17.37 C21.6,18.0327417 21.062742,18.57 20.4,18.57 L19.2,18.57 L19.2,21.57 C19.2,21.9013708 18.931371,22.17 18.6,22.17 C18.268629,22.17 18,21.9013708 18,21.57 L18,18.57 L12,18.57 L12,21.57 C12,21.9013708 11.731371,22.17 11.4,22.17 C11.068629,22.17 10.8,21.9013708 10.8,21.57 L10.8,18.57 L9.6,18.57 C8.937258,18.57 8.4,18.0327417 8.4,17.37 L8.4,15.6 C8.401381,12.1884318 11.002558,9.34014231 14.4,9.03 L14.4,1.23 C7.270046,1.55964077 1.5798,7.29363193 1.304771,14.4259008 C1.029742,21.5581697 6.261528,27.713328 13.344924,28.5910532 C20.42832,29.4687783 27.004214,24.7767457 28.478336,17.79306 C29.952458,10.8093743 25.833854,3.8599386 19,1.8 C18.790782,1.74323201 18.631877,1.5726992 18.59,1.36 C18.53518,1.15315229 18.600831,0.933026475 18.76,0.79 C18.914782,0.643699511 19.135522,0.590417634 19.34,0.65 C26.444501,2.81238618 30.897271,9.84781325 29.810953,17.1942244 C28.724635,24.5406355 22.426281,29.9862882 15,30 Z M9.6,15.6 L9.6,17.4 L20.4,17.4 L20.4,15.6 C20.4,12.6176624 17.982338,10.2 15,10.2 C12.017662,10.2 9.6,12.6176624 9.6,15.6 Z" id="Shape-11" fill="#5A81EA"></path>
            </g>
            <g id="Icon_userimg-data-80-submit300" transform="translate(420.001060, 0.000000)" fill="#5A81EA" fill-rule="nonzero">
                <path d="M15,30 C6.71572875,30 0,23.2842712 0,15 C0,6.71572875 6.71572875,0 15,0 C23.2842712,0 30,6.71572875 30,15 C30,18.9782473 28.4196474,22.793556 25.6066017,25.6066017 C22.793556,28.4196474 18.9782473,30 15,30 Z M15,28.87 C20.6148457,28.87 25.6766288,25.4871621 27.8244018,20.2993338 C29.9721749,15.1115054 28.782827,9.14068615 24.8111011,5.17182171 C20.8393752,1.20295726 14.8677002,0.0179129879 9.6814212,2.16942443 C4.49514216,4.32093588 1.11595472,9.3851558 1.11999637,15 C1.12552004,22.6618068 7.33819122,28.87 15,28.87 Z M20.8491915,19.0701022 L24.2591915,21.0701022 C24.4575277,21.2691259 24.4575277,21.5910785 24.2591915,21.7901022 C24.1742671,21.9415373 24.0127741,22.033819 23.8391915,22.0301022 C23.7506364,22.0330835 23.6633225,22.0086356 23.5891915,21.9601022 L20.1791915,19.9601022 L14.7891915,22.9601022 L14.4591915,22.9601022 L9.17919153,19.8201022 L5.73919153,21.6701022 C5.66263804,21.7130508 5.57691679,21.7370528 5.48919153,21.7401022 C5.31014547,21.7349603 5.14692158,21.6362668 5.05919153,21.4801022 C4.93195159,21.2450994 5.01647781,20.951482 5.24919153,20.8201022 L8.74197319,18.9101022 L8.74197319,12.7101022 C8.74197319,12.6501022 8.74197319,12.6501022 8.74197319,12.6501022 C8.74197319,12.6001022 8.74197319,12.6001022 8.74197319,12.6001022 C8.74197319,12.5501022 8.74197319,12.5501022 8.74197319,12.5501022 L14.3662265,9.47446384 L14.3662265,5.47446384 C14.3662265,5.20384431 14.585607,4.98436165 14.8562265,4.98436165 C14.9879065,4.98177593 15.1151244,5.03221173 15.2091915,5.1243975 C15.3032586,5.21658327 15.3562539,5.34275645 15.3562265,5.47446384 L15.3562265,9.47446384 L20.9291915,12.6501022 L20.9291915,12.7101022 C20.9339141,12.7264343 20.9339141,12.7437701 20.9291915,12.7601022 C20.9291915,12.8201022 20.9291915,12.8201022 20.9291915,12.8201022 L20.9291915,12.8801022 L20.8491915,19.0701022 Z M9.64919153,18.9101022 L14.2191915,21.6301022 L14.2891915,16.3001022 L9.70919153,13.5801022 L9.64919153,18.9101022 Z M14.8562265,10.3266663 L10.1791915,12.7301022 L14.7491915,15.4601022 L19.4391915,12.8201022 L14.8562265,10.3266663 Z M15.2791915,16.3201022 L15.2091915,21.6501022 L19.8591915,19.0401022 L19.9291915,13.7101022 L15.2791915,16.3201022 Z" id="Combined-Shape"></path>
            </g>
            <g id="Group-3" transform="translate(450.001060, 0.000000)" fill-rule="nonzero">
                <rect id="ico-zone-4" fill-opacity="0" fill="#D8D8D8" x="0" y="0" width="30" height="30"></rect>
                <path d="M15,30 C6.71572875,30 0,23.2842712 0,15 C0,6.71572875 6.71572875,0 15,0 C23.2842712,0 30,6.71572875 30,15 C30,18.9782473 28.4196474,22.793556 25.6066017,25.6066017 C22.793556,28.4196474 18.9782473,30 15,30 Z M15,28.87 C20.6148457,28.87 25.6766288,25.4871621 27.8244018,20.2993338 C29.9721749,15.1115054 28.782827,9.14068615 24.8111011,5.17182171 C20.8393752,1.20295726 14.8677002,0.0179129879 9.6814212,2.16942443 C4.49514216,4.32093588 1.11595472,9.3851558 1.11999637,15 C1.12552004,22.6618068 7.33819122,28.87 15,28.87 Z M9.94,14.44 C7.86893219,14.44 6.19,12.7610678 6.19,10.69 C6.19,8.61893219 7.86893219,6.94 9.94,6.94 C12.0110678,6.94 13.69,8.61893219 13.69,10.69 C13.69,12.7610678 12.0110678,14.44 9.94,14.44 L9.94,14.44 Z M9.94,13.3100191 C11.0046441,13.3100191 11.9642641,12.668126 12.3707452,11.6841341 C12.7772264,10.7001422 12.5503758,9.56815201 11.7961262,8.81677028 C11.0418766,8.06538855 9.90903043,7.84285195 8.92659416,8.25307867 C7.9441579,8.66330538 7.30595192,9.62536364 7.30998085,10.69 C7.30998085,11.3866033 7.58740214,12.0545305 8.08091239,12.5461643 C8.57442264,13.0377981 9.24340178,13.3126588 9.94,13.3100191 L9.94,13.3100191 Z M20.06,23.06 C17.9889322,23.06 16.31,21.3810678 16.31,19.31 C16.31,17.2389322 17.9889322,15.56 20.06,15.56 C22.1310678,15.56 23.81,17.2389322 23.81,19.31 C23.81,21.3810678 22.1310678,23.06 20.06,23.06 L20.06,23.06 Z M20.06,21.9400191 C21.1246364,21.9440481 22.0866946,21.3058421 22.4969213,20.3234058 C22.907148,19.3409696 22.6846115,18.2081234 21.9332297,17.4538738 C21.181848,16.6996242 20.0498578,16.4727736 19.0658659,16.8792548 C18.081874,17.2857359 17.44,18.2453559 17.44,19.31 C17.44,20.7586126 18.6113979,21.934492 20.06,21.9400191 L20.06,21.9400191 Z M21.11,8.94 C21.3285616,9.16188307 21.3285616,9.51811693 21.11,9.74 L9.71,21.14 C9.57444115,21.3138457 9.35078955,21.3939367 9.13568885,21.3456643 C8.92058815,21.2973919 8.75260809,21.1294118 8.70433569,20.9143111 C8.65606329,20.6992104 8.73615428,20.4755589 8.91,20.34 L20.31,8.94 C20.5235905,8.71290538 20.8800012,8.69953997 21.11,8.91 L21.11,8.94 Z" id="Oval-2" fill="#81C926"></path>
            </g>
            <g id="Group-3" transform="translate(450.001060, 30.000000)" fill-rule="nonzero">
                <rect id="ico-zone-4" fill-opacity="0" fill="#D8D8D8" x="0" y="0" width="30" height="30"></rect>
                <path d="M15,30 C6.71572875,30 0,23.2842712 0,15 C0,6.71572875 6.71572875,0 15,0 C23.2842712,0 30,6.71572875 30,15 C30,18.9782473 28.4196474,22.793556 25.6066017,25.6066017 C22.793556,28.4196474 18.9782473,30 15,30 Z M15,28.87 C20.6148457,28.87 25.6766288,25.4871621 27.8244018,20.2993338 C29.9721749,15.1115054 28.782827,9.14068615 24.8111011,5.17182171 C20.8393752,1.20295726 14.8677002,0.0179129879 9.6814212,2.16942443 C4.49514216,4.32093588 1.11595472,9.3851558 1.11999637,15 C1.12552004,22.6618068 7.33819122,28.87 15,28.87 Z M9.94,14.44 C7.86893219,14.44 6.19,12.7610678 6.19,10.69 C6.19,8.61893219 7.86893219,6.94 9.94,6.94 C12.0110678,6.94 13.69,8.61893219 13.69,10.69 C13.69,12.7610678 12.0110678,14.44 9.94,14.44 L9.94,14.44 Z M9.94,13.3100191 C11.0046441,13.3100191 11.9642641,12.668126 12.3707452,11.6841341 C12.7772264,10.7001422 12.5503758,9.56815201 11.7961262,8.81677028 C11.0418766,8.06538855 9.90903043,7.84285195 8.92659416,8.25307867 C7.9441579,8.66330538 7.30595192,9.62536364 7.30998085,10.69 C7.30998085,11.3866033 7.58740214,12.0545305 8.08091239,12.5461643 C8.57442264,13.0377981 9.24340178,13.3126588 9.94,13.3100191 L9.94,13.3100191 Z M20.06,23.06 C17.9889322,23.06 16.31,21.3810678 16.31,19.31 C16.31,17.2389322 17.9889322,15.56 20.06,15.56 C22.1310678,15.56 23.81,17.2389322 23.81,19.31 C23.81,21.3810678 22.1310678,23.06 20.06,23.06 L20.06,23.06 Z M20.06,21.9400191 C21.1246364,21.9440481 22.0866946,21.3058421 22.4969213,20.3234058 C22.907148,19.3409696 22.6846115,18.2081234 21.9332297,17.4538738 C21.181848,16.6996242 20.0498578,16.4727736 19.0658659,16.8792548 C18.081874,17.2857359 17.44,18.2453559 17.44,19.31 C17.44,20.7586126 18.6113979,21.934492 20.06,21.9400191 L20.06,21.9400191 Z M21.11,8.94 C21.3285616,9.16188307 21.3285616,9.51811693 21.11,9.74 L9.71,21.14 C9.57444115,21.3138457 9.35078955,21.3939367 9.13568885,21.3456643 C8.92058815,21.2973919 8.75260809,21.1294118 8.70433569,20.9143111 C8.65606329,20.6992104 8.73615428,20.4755589 8.91,20.34 L20.31,8.94 C20.5235905,8.71290538 20.8800012,8.69953997 21.11,8.91 L21.11,8.94 Z" id="Oval-2" fill="#999999"></path>
            </g>
            <g id="Icon/t-Sponsored-Minus-48" transform="translate(540.001060, 0.000000)" fill="#FFAF00" fill-rule="nonzero">
                <path d="M20.4228518,28.9897711 C18.741021,29.6421536 16.9123003,30 15,30 C6.71572875,30 0,23.2842712 0,15 C0,6.71572875 6.71572875,0 15,0 C23.2842712,0 30,6.71572875 30,15 C30,16.9123003 29.6421536,18.741021 28.9897711,20.4228518 C29.6285014,21.3964557 30,22.5610938 30,23.8125 C30,27.2297619 27.2297619,30 23.8125,30 C22.5610938,30 21.3964557,29.6285014 20.4228545,28.9897729 Z M19.4094081,28.159677 C18.3060794,27.0422461 17.625,25.5069103 17.625,23.8125 C17.625,20.3952381 20.3952381,17.625 23.8125,17.625 C25.5069103,17.625 27.0422461,18.3060794 28.159677,19.4094081 C28.6236435,18.0241513 28.875,16.5414294 28.875,15 C28.875,7.3370491 22.6629509,1.125 15,1.125 C7.3370491,1.125 1.125,7.3370491 1.125,15 C1.125,22.6629509 7.3370491,28.875 15,28.875 C16.5414294,28.875 18.0241513,28.6236435 19.4094137,28.1596827 Z M9.9375,14.4375 C7.86643219,14.4375 6.1875,12.7585678 6.1875,10.6875 C6.1875,8.61643219 7.86643219,6.9375 9.9375,6.9375 C12.0085678,6.9375 13.6875,8.61643219 13.6875,10.6875 C13.6875,12.7585678 12.0085678,14.4375 9.9375,14.4375 Z M9.9375,13.3125 C11.3872475,13.3125 12.5625,12.1372475 12.5625,10.6875 C12.5625,9.23775253 11.3872475,8.0625 9.9375,8.0625 C8.48775253,8.0625 7.3125,9.23775253 7.3125,10.6875 C7.3125,12.1372475 8.48775253,13.3125 9.9375,13.3125 Z M21.1078395,8.91024756 C21.3275095,9.12991748 21.3275095,9.48607278 21.1078395,9.70574269 L9.70574269,21.1078395 C9.48607278,21.3275095 9.12991748,21.3275095 8.91024756,21.1078395 C8.69057765,20.8881696 8.69057765,20.5320143 8.91024756,20.3123444 L20.3123444,8.91024756 C20.5320143,8.69057765 20.8881696,8.69057765 21.1078395,8.91024756 Z M17.0591031,21.5583373 C16.5902255,20.9323066 16.3125,20.1548364 16.3125,19.3125 C16.3125,17.2414322 17.9914322,15.5625 20.0625,15.5625 C21.2038168,15.5625 22.2260478,16.072367 22.9138426,16.8767508 C22.4099726,16.8886309 21.9210084,16.9607448 21.4538729,17.0861699 C21.050497,16.8335425 20.5735535,16.6875 20.0625,16.6875 C18.6127525,16.6875 17.4375,17.8627525 17.4375,19.3125 C17.4375,19.6172682 17.4894381,19.9099056 17.5849458,20.1820439 C17.3577314,20.61323 17.1799386,21.0745064 17.0591031,21.5583373 Z M23.8125,28.875 C26.6084415,28.875 28.875,26.6084415 28.875,23.8125 C28.875,21.0165585 26.6084415,18.75 23.8125,18.75 C21.0165585,18.75 18.75,21.0165585 18.75,23.8125 C18.75,26.6084415 21.0165585,28.875 23.8125,28.875 Z M21,23.4375 L26.625,23.4375 C26.9356602,23.4375 27.1875,23.6893398 27.1875,24 C27.1875,24.3106602 26.9356602,24.5625 26.625,24.5625 L21,24.5625 C20.6893398,24.5625 20.4375,24.3106602 20.4375,24 C20.4375,23.6893398 20.6893398,23.4375 21,23.4375 Z" id="Combined-Shape"></path>
            </g>
            <g id="Icon/t-Sponsored-Minus-48" transform="translate(540.001060, 30.000000)" fill="#999999" fill-rule="nonzero">
                <path d="M20.4228518,28.9897711 C18.741021,29.6421536 16.9123003,30 15,30 C6.71572875,30 0,23.2842712 0,15 C0,6.71572875 6.71572875,0 15,0 C23.2842712,0 30,6.71572875 30,15 C30,16.9123003 29.6421536,18.741021 28.9897711,20.4228518 C29.6285014,21.3964557 30,22.5610938 30,23.8125 C30,27.2297619 27.2297619,30 23.8125,30 C22.5610938,30 21.3964557,29.6285014 20.4228545,28.9897729 Z M19.4094081,28.159677 C18.3060794,27.0422461 17.625,25.5069103 17.625,23.8125 C17.625,20.3952381 20.3952381,17.625 23.8125,17.625 C25.5069103,17.625 27.0422461,18.3060794 28.159677,19.4094081 C28.6236435,18.0241513 28.875,16.5414294 28.875,15 C28.875,7.3370491 22.6629509,1.125 15,1.125 C7.3370491,1.125 1.125,7.3370491 1.125,15 C1.125,22.6629509 7.3370491,28.875 15,28.875 C16.5414294,28.875 18.0241513,28.6236435 19.4094137,28.1596827 Z M9.9375,14.4375 C7.86643219,14.4375 6.1875,12.7585678 6.1875,10.6875 C6.1875,8.61643219 7.86643219,6.9375 9.9375,6.9375 C12.0085678,6.9375 13.6875,8.61643219 13.6875,10.6875 C13.6875,12.7585678 12.0085678,14.4375 9.9375,14.4375 Z M9.9375,13.3125 C11.3872475,13.3125 12.5625,12.1372475 12.5625,10.6875 C12.5625,9.23775253 11.3872475,8.0625 9.9375,8.0625 C8.48775253,8.0625 7.3125,9.23775253 7.3125,10.6875 C7.3125,12.1372475 8.48775253,13.3125 9.9375,13.3125 Z M21.1078395,8.91024756 C21.3275095,9.12991748 21.3275095,9.48607278 21.1078395,9.70574269 L9.70574269,21.1078395 C9.48607278,21.3275095 9.12991748,21.3275095 8.91024756,21.1078395 C8.69057765,20.8881696 8.69057765,20.5320143 8.91024756,20.3123444 L20.3123444,8.91024756 C20.5320143,8.69057765 20.8881696,8.69057765 21.1078395,8.91024756 Z M17.0591031,21.5583373 C16.5902255,20.9323066 16.3125,20.1548364 16.3125,19.3125 C16.3125,17.2414322 17.9914322,15.5625 20.0625,15.5625 C21.2038168,15.5625 22.2260478,16.072367 22.9138426,16.8767508 C22.4099726,16.8886309 21.9210084,16.9607448 21.4538729,17.0861699 C21.050497,16.8335425 20.5735535,16.6875 20.0625,16.6875 C18.6127525,16.6875 17.4375,17.8627525 17.4375,19.3125 C17.4375,19.6172682 17.4894381,19.9099056 17.5849458,20.1820439 C17.3577314,20.61323 17.1799386,21.0745064 17.0591031,21.5583373 Z M23.8125,28.875 C26.6084415,28.875 28.875,26.6084415 28.875,23.8125 C28.875,21.0165585 26.6084415,18.75 23.8125,18.75 C21.0165585,18.75 18.75,21.0165585 18.75,23.8125 C18.75,26.6084415 21.0165585,28.875 23.8125,28.875 Z M21,23.4375 L26.625,23.4375 C26.9356602,23.4375 27.1875,23.6893398 27.1875,24 C27.1875,24.3106602 26.9356602,24.5625 26.625,24.5625 L21,24.5625 C20.6893398,24.5625 20.4375,24.3106602 20.4375,24 C20.4375,23.6893398 20.6893398,23.4375 21,23.4375 Z" id="Combined-Shape"></path>
            </g>
            <g id="Group-7" transform="translate(480.001060, 0.000000)" fill="#EF4829" fill-rule="nonzero">
                <path d="M9.99057515,14.4105751 C7.91950734,14.4105751 6.24057515,12.7316429 6.24057515,10.6605751 C6.24057515,8.58950734 7.91950734,6.91057515 9.99057515,6.91057515 C12.0616429,6.91057515 13.7406311,8.58950734 13.7406311,10.6605751 C13.7460832,11.6690837 13.3451391,12.6373014 12.6282519,13.3466622 C11.9113647,14.056023 10.9389694,14.4467265 9.93057515,14.4305751 L9.99057515,14.4105751 Z M9.99057515,13.2805751 C11.0552192,13.2805674 12.0148392,12.6387011 12.4213203,11.6547092 C12.8278015,10.6707173 12.6009509,9.53872716 11.8467013,8.78734543 C11.0924517,8.0359637 9.95960558,7.8134271 8.97716931,8.22365382 C7.99473305,8.63388053 7.35652707,9.59593879 7.36057515,10.6605751 C7.34935655,12.0960308 8.4953362,13.2732239 9.93057515,13.3005751 L9.99057515,13.2805751 Z M21.1605751,8.88057515 C21.3791367,9.10245822 21.3791367,9.45869208 21.1605751,9.68057515 L9.76057515,21.0805751 C9.6250163,21.2544208 9.4013647,21.3345118 9.186264,21.2862394 C8.9711633,21.237967 8.80318324,21.0699869 8.75491084,20.8548862 C8.70663844,20.6397855 8.78672943,20.416134 8.96057515,20.2805751 L20.3605751,8.88057515 C20.5786001,8.70436703 20.8923862,8.71284773 21.1005751,8.90057515 L21.1605751,8.88057515 Z" id="Oval-2-2"></path>
                <path d="M28.968966,20.3953614 C30.595842,22.8479219 30.2693153,26.1071576 28.1882364,28.1882364 C26.1071576,30.2693153 22.8479219,30.595842 20.3953614,28.968966 C13.7881326,31.5241011 6.29420795,29.1046104 2.42856204,23.1681999 C-1.43708388,17.2317894 -0.618806615,9.39959529 4.39039433,4.39039433 C9.39959529,-0.618806615 17.2317894,-1.43708388 23.1681999,2.42856204 C29.1046104,6.29420795 31.5241011,13.7881326 28.968966,20.3953614 L28.968966,20.3953614 Z M28.1395847,19.3961068 C30.1690924,13.3112735 27.7482346,6.62954815 22.2921553,3.25681985 C16.8360759,-0.115908433 9.77696912,0.705684991 5.24132706,5.24132706 C0.705684991,9.77696912 -0.115908432,16.8360759 3.25681985,22.2921553 C6.62954815,27.7482346 13.3112735,30.1690924 19.3961068,28.1395847 C17.1042997,25.7051768 17.1618398,21.8902055 19.5260227,19.5260227 C21.8902055,17.1618398 25.7051768,17.1042997 28.1395847,19.3961068 L28.1395847,19.3961068 Z M23.7928271,28.8490555 C25.8378806,28.8490555 27.6815649,27.617145 28.464173,25.727762 C29.2467811,23.8383789 28.8141917,21.6636049 27.3681204,20.2175338 C25.9220493,18.7714625 23.7472753,18.3388731 21.8578923,19.1214813 C19.9685092,19.9040893 18.7365988,21.7477736 18.7365988,23.7928271 C18.7420967,26.5775057 20.998156,28.833565 23.7828346,28.8390629 L23.7928271,28.8490555 Z" id="Combined-Shape-9"></path>
                <path d="M17.06,21.6099919 C16.2077629,20.4736838 16.070678,18.9533891 16.705898,17.682949 C17.3411181,16.4125089 18.6396048,15.6099919 20.06,15.6099919 C21.1582775,15.6077147 22.2014347,16.0908612 22.91,16.93 C22.4164817,16.9388603 21.9260089,17.0094078 21.45,17.14 C21.035224,16.8747733 20.5523075,16.7358045 20.06,16.74 C18.613014,16.74 17.44,17.913014 17.44,19.36 C17.4394232,19.6556539 17.4867011,19.9494525 17.58,20.23 C17.3535753,20.6682061 17.1790617,21.1313383 17.06,21.6099919 L17.06,21.6099919 Z" id="Combined-Shape"></path>
                <path d="M23.9709212,23.2148229 L25.5218096,21.6736184 C25.7369873,21.4867735 26.0600169,21.4981426 26.2615262,21.6996532 C26.4630356,21.9011637 26.4744047,22.2241952 26.2875608,22.4393741 L24.7463654,23.9805786 L26.2875608,25.5314762 C26.4744047,25.7466551 26.4630356,26.0696867 26.2615262,26.2711972 C26.0600169,26.4727078 25.7369873,26.4840769 25.5218096,26.2972319 L23.9709212,24.7560274 L22.4297258,26.2972319 C22.2145482,26.4840769 21.8915186,26.4727078 21.6900092,26.2711972 C21.4884999,26.0696867 21.4771308,25.7466551 21.6639746,25.5314762 L23.20517,23.9805786 L21.6639746,22.4393741 C21.4771308,22.2241952 21.4884999,21.9011637 21.6900092,21.6996532 C21.8915186,21.4981426 22.2145482,21.4867735 22.4297258,21.6736184 L23.9709212,23.2148229 Z" id="Combined-Shape-2"></path>
            </g>
            <g id="Group-4" transform="translate(570.001060, 0.000000)" fill="#81C926" fill-rule="nonzero">
                <path d="M15,30 C6.71572875,30 0,23.2842712 0,15 C0,6.71572875 6.71572875,0 15,0 C23.2842712,0 30,6.71572875 30,15 C30,18.9782473 28.4196474,22.793556 25.6066017,25.6066017 C22.793556,28.4196474 18.9782473,30 15,30 Z M15,28.87 C20.6148457,28.87 25.6766288,25.4871621 27.8244018,20.2993338 C29.9721749,15.1115054 28.782827,9.14068615 24.8111011,5.17182171 C20.8393752,1.20295726 14.8677002,0.0179129879 9.6814212,2.16942443 C4.49514216,4.32093588 1.11595472,9.3851558 1.11999637,15 C1.12552004,22.6618068 7.33819122,28.87 15,28.87 Z M18.42,7.91 C18.6989061,8.04504493 18.818831,8.37816971 18.69,8.66 L12.51,21.92 C12.4435444,22.1283544 12.2618786,22.2789592 12.0448171,22.3056465 C11.8277556,22.3323338 11.6150186,22.23022 11.5000716,22.0441687 C11.3851246,21.8581173 11.3890019,21.622174 11.51,21.44 L17.69,8.18 C17.8208021,7.90797135 18.1436668,7.78855564 18.42,7.91 Z M9.55,10.93 C9.76856159,11.1518831 9.76856159,11.5081169 9.55,11.73 L5.84,15.44 C5.70265318,15.5981746 5.48850927,15.6664656 5.28494786,15.6170076 C5.08138644,15.5675495 4.92245048,15.4086136 4.87299242,15.2050521 C4.82353436,15.0014907 4.89182541,14.7873468 5.05,14.65 L8.76,10.93 C8.97846757,10.7126096 9.33153243,10.7126096 9.55,10.93 Z M5,14.64 C5.22188307,14.4214384 5.57811693,14.4214384 5.8,14.64 L9.51,18.36 C9.72739043,18.5784676 9.72739043,18.9315324 9.51,19.15 C9.28811693,19.3685616 8.93188307,19.3685616 8.71,19.15 L5,15.44 C4.78143841,15.2181169 4.78143841,14.8618831 5,14.64 Z M20.45,10.93 C20.6684676,10.7126096 21.0215324,10.7126096 21.24,10.93 L24.96,14.65 C25.1773904,14.8684676 25.1773904,15.2215324 24.96,15.44 C24.7381169,15.6585616 24.3818831,15.6585616 24.16,15.44 L20.45,11.73 C20.2314384,11.5081169 20.2314384,11.1518831 20.45,10.93 Z M25,14.64 C25.2185616,14.8618831 25.2185616,15.2181169 25,15.44 L21.29,19.15 C21.0681169,19.3685616 20.7118831,19.3685616 20.49,19.15 C20.2726096,18.9315324 20.2726096,18.5784676 20.49,18.36 L24.21,14.64 C24.4284676,14.4226096 24.7815324,14.4226096 25,14.64 Z" id="Combined-Shape"></path>
            </g>
            <g id="Group-4" transform="translate(570.001060, 30.000000)" fill="#999999" fill-rule="nonzero">
                <path d="M15,30 C6.71572875,30 0,23.2842712 0,15 C0,6.71572875 6.71572875,-1.77635684e-15 15,-1.77635684e-15 C23.2842712,-1.77635684e-15 30,6.71572875 30,15 C30,18.9782473 28.4196474,22.793556 25.6066017,25.6066017 C22.793556,28.4196474 18.9782473,30 15,30 Z M15,28.87 C20.6148457,28.87 25.6766288,25.4871621 27.8244018,20.2993338 C29.9721749,15.1115054 28.782827,9.14068615 24.8111011,5.17182171 C20.8393752,1.20295726 14.8677002,0.0179129879 9.6814212,2.16942443 C4.49514216,4.32093588 1.11595472,9.3851558 1.11999637,15 C1.12552004,22.6618068 7.33819122,28.87 15,28.87 Z M18.42,7.91 C18.6989061,8.04504493 18.818831,8.37816971 18.69,8.66 L12.51,21.92 C12.4435444,22.1283544 12.2618786,22.2789592 12.0448171,22.3056465 C11.8277556,22.3323338 11.6150186,22.23022 11.5000716,22.0441687 C11.3851246,21.8581173 11.3890019,21.622174 11.51,21.44 L17.69,8.18 C17.8208021,7.90797135 18.1436668,7.78855564 18.42,7.91 Z M9.55,10.93 C9.76856159,11.1518831 9.76856159,11.5081169 9.55,11.73 L5.84,15.44 C5.70265318,15.5981746 5.48850927,15.6664656 5.28494786,15.6170076 C5.08138644,15.5675495 4.92245048,15.4086136 4.87299242,15.2050521 C4.82353436,15.0014907 4.89182541,14.7873468 5.05,14.65 L8.76,10.93 C8.97846757,10.7126096 9.33153243,10.7126096 9.55,10.93 Z M5,14.64 C5.22188307,14.4214384 5.57811693,14.4214384 5.8,14.64 L9.51,18.36 C9.72739043,18.5784676 9.72739043,18.9315324 9.51,19.15 C9.28811693,19.3685616 8.93188307,19.3685616 8.71,19.15 L5,15.44 C4.78143841,15.2181169 4.78143841,14.8618831 5,14.64 Z M20.45,10.93 C20.6684676,10.7126096 21.0215324,10.7126096 21.24,10.93 L24.96,14.65 C25.1773904,14.8684676 25.1773904,15.2215324 24.96,15.44 C24.7381169,15.6585616 24.3818831,15.6585616 24.16,15.44 L20.45,11.73 C20.2314384,11.5081169 20.2314384,11.1518831 20.45,10.93 Z M25,14.64 C25.2185616,14.8618831 25.2185616,15.2181169 25,15.44 L21.29,19.15 C21.0681169,19.3685616 20.7118831,19.3685616 20.49,19.15 C20.2726096,18.9315324 20.2726096,18.5784676 20.49,18.36 L24.21,14.64 C24.4284676,14.4226096 24.7815324,14.4226096 25,14.64 Z" id="Combined-Shape"></path>
            </g>
            <g id="Group-5" transform="translate(600.001060, 0.000000)" fill="#EF4829" fill-rule="nonzero">
                <path d="M28.968966,20.3953614 C30.595842,22.8479219 30.2693153,26.1071576 28.1882364,28.1882364 C26.1071576,30.2693153 22.8479219,30.595842 20.3953614,28.968966 C13.7881326,31.5241011 6.29420795,29.1046104 2.42856204,23.1681999 C-1.43708388,17.2317894 -0.618806615,9.39959529 4.39039433,4.39039433 C9.39959529,-0.618806615 17.2317894,-1.43708388 23.1681999,2.42856204 C29.1046104,6.29420795 31.5241011,13.7881326 28.968966,20.3953614 Z M28.1395847,19.3961068 C30.1690924,13.3112735 27.7482346,6.62954815 22.2921553,3.25681985 C16.8360759,-0.115908433 9.77696912,0.705684991 5.24132706,5.24132706 C0.705684991,9.77696912 -0.115908432,16.8360759 3.25681985,22.2921553 C6.62954815,27.7482346 13.3112735,30.1690924 19.3961068,28.1395847 C17.1042997,25.7051768 17.1618398,21.8902055 19.5260227,19.5260227 C21.8902055,17.1618398 25.7051768,17.1042997 28.1395847,19.3961068 Z M23.7928271,28.8490555 C25.8378806,28.8490555 27.6815649,27.617145 28.464173,25.727762 C29.2467811,23.8383789 28.8141917,21.6636049 27.3681204,20.2175338 C25.9220493,18.7714625 23.7472753,18.3388731 21.8578923,19.1214813 C19.9685092,19.9040893 18.7365988,21.7477736 18.7365988,23.7928271 C18.7420967,26.5775057 20.998156,28.833565 23.7828346,28.8390629 L23.7928271,28.8490555 Z M23.78,23.05 L25.38,21.46 C25.6019916,21.2672394 25.9352505,21.2789685 26.143141,21.486859 C26.3510315,21.6947495 26.3627606,22.0280084 26.17,22.25 L24.58,23.84 L26.17,25.44 C26.3627606,25.6619916 26.3510315,25.9952505 26.143141,26.203141 C25.9352505,26.4110315 25.6019916,26.4227606 25.38,26.23 L23.78,24.64 L22.19,26.23 C21.9680084,26.4227606 21.6347495,26.4110315 21.426859,26.203141 C21.2189685,25.9952505 21.2072394,25.6619916 21.4,25.44 L22.99,23.84 L21.4,22.25 C21.2072394,22.0280084 21.2189685,21.6947495 21.426859,21.486859 C21.6347495,21.2789685 21.9680084,21.2672394 22.19,21.46 L23.78,23.05 Z M18.42,7.91 C18.6989061,8.04504493 18.818831,8.37816971 18.69,8.66 L12.51,21.92 C12.4435444,22.1283544 12.2618786,22.2789592 12.0448171,22.3056465 C11.8277556,22.3323338 11.6150186,22.23022 11.5000716,22.0441687 C11.3851246,21.8581173 11.3890019,21.622174 11.51,21.44 L17.69,8.18 C17.8208021,7.90797135 18.1436668,7.78855564 18.42,7.91 Z M6.24,15.05 L9.55,18.36 C9.76739043,18.5784676 9.76739043,18.9315324 9.55,19.15 C9.32811693,19.3685616 8.97188307,19.3685616 8.75,19.15 L5,15.44 C4.78143841,15.2181169 4.78143841,14.8618831 5,14.64 L5.06,14.59 L8.72,10.93 C8.93846757,10.7126096 9.29153243,10.7126096 9.51,10.93 C9.72856159,11.1518831 9.72856159,11.5081169 9.51,11.73 L6.24,15.05 Z M23.48,16.93 L23.44,16.92 C22.8193544,16.9203065 22.2023425,17.0147127 21.61,17.2 L23.77,15.05 L20.49,11.73 C20.2714384,11.5081169 20.2714384,11.1518831 20.49,10.93 C20.7084676,10.7126096 21.0615324,10.7126096 21.28,10.93 L24.94,14.59 L25,14.64 C25.2185616,14.8618831 25.2185616,15.2181169 25,15.44 L23.48,16.93 Z" id="Combined-Shape"></path>
            </g>
            <g id="Group-6" transform="translate(630.001060, 0.000000)" fill="#5A81EA" fill-rule="nonzero">
                <path d="M28.968966,20.3953614 C30.595842,22.8479219 30.2693153,26.1071576 28.1882364,28.1882364 C26.1071576,30.2693153 22.8479219,30.595842 20.3953614,28.968966 C13.7881326,31.5241011 6.29420795,29.1046104 2.42856204,23.1681999 C-1.43708388,17.2317894 -0.618806615,9.39959529 4.39039433,4.39039433 C9.39959529,-0.618806615 17.2317894,-1.43708388 23.1681999,2.42856204 C29.1046104,6.29420795 31.5241011,13.7881326 28.968966,20.3953614 Z M28.1395847,19.3961068 C30.1690924,13.3112735 27.7482346,6.62954815 22.2921553,3.25681985 C16.8360759,-0.115908433 9.77696912,0.705684991 5.24132706,5.24132706 C0.705684991,9.77696912 -0.115908432,16.8360759 3.25681985,22.2921553 C6.62954815,27.7482346 13.3112735,30.1690924 19.3961068,28.1395847 C17.1042997,25.7051768 17.1618398,21.8902055 19.5260227,19.5260227 C21.8902055,17.1618398 25.7051768,17.1042997 28.1395847,19.3961068 Z M23.7928271,28.8490555 C25.8378806,28.8490555 27.6815649,27.617145 28.464173,25.727762 C29.2467811,23.8383789 28.8141917,21.6636049 27.3681204,20.2175338 C25.9220493,18.7714625 23.7472753,18.3388731 21.8578923,19.1214813 C19.9685092,19.9040893 18.7365988,21.7477736 18.7365988,23.7928271 C18.7420967,26.5775057 20.998156,28.833565 23.7828346,28.8390629 L23.7928271,28.8490555 Z M18.42,7.91 C18.6989061,8.04504493 18.818831,8.37816971 18.69,8.66 L12.51,21.92 C12.3749551,22.1989061 12.0418303,22.318831 11.76,22.19 C11.4810939,22.0549551 11.361169,21.7218303 11.49,21.44 L17.67,8.18 C17.7328929,8.04405298 17.8476278,7.9389688 17.9885635,7.88823194 C18.1294992,7.83749508 18.2848869,7.84533514 18.42,7.91 Z M6.24,15.05 L9.55,18.36 C9.76739043,18.5784676 9.76739043,18.9315324 9.55,19.15 C9.32811693,19.3685616 8.97188307,19.3685616 8.75,19.15 L5,15.44 C4.78143841,15.2181169 4.78143841,14.8618831 5,14.64 L5.06,14.59 L8.72,10.93 C8.93846757,10.7126096 9.29153243,10.7126096 9.51,10.93 C9.72856159,11.1518831 9.72856159,11.5081169 9.51,11.73 L6.24,15.05 Z M23.48,16.93 L23.44,16.92 C22.8193544,16.9203065 22.2023425,17.0147127 21.61,17.2 L23.77,15.05 L20.49,11.73 C20.2714384,11.5081169 20.2714384,11.1518831 20.49,10.93 C20.7084676,10.7126096 21.0615324,10.7126096 21.28,10.93 L24.94,14.59 L25,14.64 C25.2185616,14.8618831 25.2185616,15.2181169 25,15.44 L23.48,16.93 Z M22.08,23.25 C22.0413339,23.3674969 21.9569766,23.4644703 21.8459662,23.5190347 C21.7349558,23.5735992 21.6066481,23.5811561 21.49,23.54 C21.3717776,23.4991662 21.2747073,23.412894 21.2202782,23.3002822 C21.1658492,23.1876704 21.1585513,23.0580082 21.2,22.94 C21.5151631,22.0450019 22.2665067,21.3736011 23.1911771,21.1606836 C24.1158476,20.947766 25.0851579,21.2229637 25.76,21.89 L27,23.05 C27.175242,23.2351025 27.175242,23.5248975 27,23.71 C26.9116507,23.7997807 26.790961,23.8503411 26.665,23.8503411 C26.539039,23.8503411 26.4183493,23.7997807 26.33,23.71 L25.14,22.5899945 C24.6937198,22.1599626 24.0609341,21.9834828 23.4565101,22.1204856 C22.852086,22.2574884 22.3572398,22.6895647 22.14,23.27 L22.08,23.25 Z M20.68,24.72 C20.4894618,24.5432689 20.478269,24.2455383 20.6550001,24.0550001 C20.8317312,23.8644619 21.1294618,23.853269 21.32,24.03 L22.52,25.16 C22.9655524,25.5948092 23.6015943,25.7732816 24.2083095,25.6337371 C24.8150248,25.4941926 25.3091818,25.0557745 25.52,24.47 C25.6091581,24.2277219 25.877043,24.102709 26.12,24.19 C26.3623719,24.2793794 26.4905368,24.5445481 26.41,24.79 C26.0792575,25.6732238 25.3232793,26.3285295 24.4020511,26.5305532 C23.4808229,26.7325769 22.5199942,26.453764 21.85,25.79 L20.68,24.72 Z M26.16,21.82 C26.1331787,21.6375929 26.2154835,21.4563499 26.3704779,21.3565077 C26.5254723,21.2566655 26.7245277,21.2566655 26.8795221,21.3565077 C27.0345165,21.4563499 27.1168213,21.6375929 27.09,21.82 L27.09,23.35 C27.09,23.6095738 26.8795738,23.82 26.62,23.82 L25.09,23.82 C24.8304262,23.82 24.62,23.6095738 24.62,23.35 C24.62,23.0904262 24.8304262,22.88 25.09,22.88 L26.16,22.88 L26.16,21.82 Z M21.47,25.91 C21.47,26.1695738 21.2595738,26.38 21,26.38 C20.7404262,26.38 20.53,26.1695738 20.53,25.91 L20.53,24.37 C20.5354408,24.1143397 20.7442818,23.9099421 21,23.91 L22.53,23.91 C22.7124071,23.8831787 22.8936501,23.9654835 22.9934923,24.1204779 C23.0933345,24.2754723 23.0933345,24.4745277 22.9934923,24.6295221 C22.8936501,24.7845165 22.7124071,24.8668213 22.53,24.84 L21.47,24.84 L21.47,25.91 Z" id="Combined-Shape"></path>
            </g>
            <g id="Icon/80/ScriptInvocation-80-Submit-300" transform="translate(660.001060, 0.000000)" fill="#5A81EA">
                <path d="M28.9897711,20.4228518 C29.6285007,21.3964536 30,22.5610926 30,23.8125 C30,27.2297619 27.2297619,30 23.8125,30 C22.5610926,30 21.3964536,29.6285007 20.4228518,28.9897711 C18.741021,29.6421536 16.9123003,30 15,30 C6.71572875,30 0,23.2842712 0,15 C0,6.71572875 6.71572875,0 15,0 C23.2842712,0 30,6.71572875 30,15 C30,16.9123003 29.6421536,18.741021 28.9897711,20.4228518 Z M28.1596827,19.4094137 C28.6236435,18.0241513 28.875,16.5414294 28.875,15 C28.875,7.3370491 22.6629509,1.125 15,1.125 C7.3370491,1.125 1.125,7.3370491 1.125,15 C1.125,22.6629509 7.3370491,28.875 15,28.875 C16.5414294,28.875 18.0241513,28.6236435 19.4094137,28.1596827 C18.3060817,27.0422512 17.625,25.5069132 17.625,23.8125 C17.625,20.3952381 20.3952381,17.625 23.8125,17.625 C25.5069132,17.625 27.0422512,18.3060817 28.1596827,19.4094137 Z M23.8125,28.875 C26.6084415,28.875 28.875,26.6084415 28.875,23.8125 C28.875,21.0165585 26.6084415,18.75 23.8125,18.75 C21.0165585,18.75 18.75,21.0165585 18.75,23.8125 C18.75,26.6084415 21.0165585,28.875 23.8125,28.875 Z M23.30625,24.9364591 L24.9921887,23.8125 L23.30625,22.6885409 L23.30625,24.9364591 Z M23.0557689,21.1694717 L26.3182689,23.3444717 C26.6522437,23.5671216 26.6522437,24.0578784 26.3182689,24.2805283 L23.0557689,26.4555283 C22.6819568,26.7047363 22.18125,26.4367662 22.18125,25.9875 L22.18125,21.6375 C22.18125,21.1882338 22.6819568,20.9202637 23.0557689,21.1694717 Z M18.4160358,7.86282618 C18.6975895,7.99411684 18.8194018,8.32879335 18.6881111,8.61034708 L12.507319,21.8650985 C12.3760284,22.1466522 12.0413519,22.2684645 11.7597981,22.1371738 C11.4782444,22.0058832 11.3564321,21.6712067 11.4877228,21.3896529 L17.6685149,8.13490154 C17.7998055,7.8533478 18.134482,7.73153552 18.4160358,7.86282618 Z M6.23671818,14.9954295 L9.54755817,18.3062695 C9.76722808,18.5259394 9.76722808,18.8820947 9.54755817,19.1017647 C9.32788825,19.3214346 8.97173295,19.3214346 8.75206304,19.1017647 L5.03975244,15.3894541 C4.82008252,15.1697841 4.82008252,14.8136288 5.03975244,14.5939589 C5.0582915,14.5754199 5.07780269,14.5584454 5.09812191,14.5430356 L8.75778508,10.8833724 C8.977455,10.6637025 9.3336103,10.6637025 9.55328021,10.8833724 C9.77295013,11.1030423 9.77295013,11.4591976 9.55328021,11.6788675 L6.23671818,14.9954295 Z M23.4763648,16.8751195 C23.4634192,16.8750399 23.4504643,16.875 23.4375,16.875 C22.8019718,16.875 22.1888221,16.9708143 21.6117084,17.1487856 L23.7650645,14.9954295 L20.4485024,11.6788675 C20.2288325,11.4591976 20.2288325,11.1030423 20.4485024,10.8833724 C20.6681723,10.6637025 21.0243277,10.6637025 21.2439976,10.8833724 L24.9036607,14.5430356 C24.92398,14.5584454 24.9434911,14.5754199 24.9620302,14.5939589 C25.1817001,14.8136288 25.1817001,15.1697841 24.9620302,15.3894541 L23.4763648,16.8751195 Z" id="Combined-Shape"></path>
            </g>
            <g id="Group-6" transform="translate(630.001060, 30.000000)" fill="#999999" fill-rule="nonzero">
                <path d="M28.968966,20.3953614 C30.595842,22.8479219 30.2693153,26.1071576 28.1882364,28.1882364 C26.1071576,30.2693153 22.8479219,30.595842 20.3953614,28.968966 C13.7881326,31.5241011 6.29420795,29.1046104 2.42856204,23.1681999 C-1.43708388,17.2317894 -0.618806615,9.39959529 4.39039433,4.39039433 C9.39959529,-0.618806615 17.2317894,-1.43708388 23.1681999,2.42856204 C29.1046104,6.29420795 31.5241011,13.7881326 28.968966,20.3953614 Z M28.1395847,19.3961068 C30.1690924,13.3112735 27.7482346,6.62954815 22.2921553,3.25681985 C16.8360759,-0.115908433 9.77696912,0.705684991 5.24132706,5.24132706 C0.705684991,9.77696912 -0.115908432,16.8360759 3.25681985,22.2921553 C6.62954815,27.7482346 13.3112735,30.1690924 19.3961068,28.1395847 C17.1042997,25.7051768 17.1618398,21.8902055 19.5260227,19.5260227 C21.8902055,17.1618398 25.7051768,17.1042997 28.1395847,19.3961068 Z M23.7928271,28.8490555 C25.8378806,28.8490555 27.6815649,27.617145 28.464173,25.727762 C29.2467811,23.8383789 28.8141917,21.6636049 27.3681204,20.2175338 C25.9220493,18.7714625 23.7472753,18.3388731 21.8578923,19.1214813 C19.9685092,19.9040893 18.7365988,21.7477736 18.7365988,23.7928271 C18.7420967,26.5775057 20.998156,28.833565 23.7828346,28.8390629 L23.7928271,28.8490555 Z M18.42,7.91 C18.6989061,8.04504493 18.818831,8.37816971 18.69,8.66 L12.51,21.92 C12.3749551,22.1989061 12.0418303,22.318831 11.76,22.19 C11.4810939,22.0549551 11.361169,21.7218303 11.49,21.44 L17.67,8.18 C17.7328929,8.04405298 17.8476278,7.9389688 17.9885635,7.88823194 C18.1294992,7.83749508 18.2848869,7.84533514 18.42,7.91 Z M6.24,15.05 L9.55,18.36 C9.76739043,18.5784676 9.76739043,18.9315324 9.55,19.15 C9.32811693,19.3685616 8.97188307,19.3685616 8.75,19.15 L5,15.44 C4.78143841,15.2181169 4.78143841,14.8618831 5,14.64 L5.06,14.59 L8.72,10.93 C8.93846757,10.7126096 9.29153243,10.7126096 9.51,10.93 C9.72856159,11.1518831 9.72856159,11.5081169 9.51,11.73 L6.24,15.05 Z M23.48,16.93 L23.44,16.92 C22.8193544,16.9203065 22.2023425,17.0147127 21.61,17.2 L23.77,15.05 L20.49,11.73 C20.2714384,11.5081169 20.2714384,11.1518831 20.49,10.93 C20.7084676,10.7126096 21.0615324,10.7126096 21.28,10.93 L24.94,14.59 L25,14.64 C25.2185616,14.8618831 25.2185616,15.2181169 25,15.44 L23.48,16.93 Z M22.08,23.25 C22.0413339,23.3674969 21.9569766,23.4644703 21.8459662,23.5190347 C21.7349558,23.5735992 21.6066481,23.5811561 21.49,23.54 C21.3717776,23.4991662 21.2747073,23.412894 21.2202782,23.3002822 C21.1658492,23.1876704 21.1585513,23.0580082 21.2,22.94 C21.5151631,22.0450019 22.2665067,21.3736011 23.1911771,21.1606836 C24.1158476,20.947766 25.0851579,21.2229637 25.76,21.89 L27,23.05 C27.175242,23.2351025 27.175242,23.5248975 27,23.71 C26.9116507,23.7997807 26.790961,23.8503411 26.665,23.8503411 C26.539039,23.8503411 26.4183493,23.7997807 26.33,23.71 L25.14,22.5899945 C24.6937198,22.1599626 24.0609341,21.9834828 23.4565101,22.1204856 C22.852086,22.2574884 22.3572398,22.6895647 22.14,23.27 L22.08,23.25 Z M20.68,24.72 C20.4894618,24.5432689 20.478269,24.2455383 20.6550001,24.0550001 C20.8317312,23.8644619 21.1294618,23.853269 21.32,24.03 L22.52,25.16 C22.9655524,25.5948092 23.6015943,25.7732816 24.2083095,25.6337371 C24.8150248,25.4941926 25.3091818,25.0557745 25.52,24.47 C25.6091581,24.2277219 25.877043,24.102709 26.12,24.19 C26.3623719,24.2793794 26.4905368,24.5445481 26.41,24.79 C26.0792575,25.6732238 25.3232793,26.3285295 24.4020511,26.5305532 C23.4808229,26.7325769 22.5199942,26.453764 21.85,25.79 L20.68,24.72 Z M26.16,21.82 C26.1331787,21.6375929 26.2154835,21.4563499 26.3704779,21.3565077 C26.5254723,21.2566655 26.7245277,21.2566655 26.8795221,21.3565077 C27.0345165,21.4563499 27.1168213,21.6375929 27.09,21.82 L27.09,23.35 C27.09,23.6095738 26.8795738,23.82 26.62,23.82 L25.09,23.82 C24.8304262,23.82 24.62,23.6095738 24.62,23.35 C24.62,23.0904262 24.8304262,22.88 25.09,22.88 L26.16,22.88 L26.16,21.82 Z M21.47,25.91 C21.47,26.1695738 21.2595738,26.38 21,26.38 C20.7404262,26.38 20.53,26.1695738 20.53,25.91 L20.53,24.37 C20.5354408,24.1143397 20.7442818,23.9099421 21,23.91 L22.53,23.91 C22.7124071,23.8831787 22.8936501,23.9654835 22.9934923,24.1204779 C23.0933345,24.2754723 23.0933345,24.4745277 22.9934923,24.6295221 C22.8936501,24.7845165 22.7124071,24.8668213 22.53,24.84 L21.47,24.84 L21.47,25.91 Z" id="Combined-Shape"></path>
            </g>
            <g id="Icon/t-star-48" transform="translate(690.001060, 0.000000)" fill="#5A81EA" fill-rule="nonzero">
                <path d="M15,30 C6.71572875,30 0,23.2842712 0,15 C0,6.71572875 6.71572875,0 15,0 C23.2842712,0 30,6.71572875 30,15 C30,23.2842712 23.2842712,30 15,30 Z M15,28.8 C22.6215295,28.8 28.8,22.6215295 28.8,15 C28.8,7.37847045 22.6215295,1.2 15,1.2 C7.37847045,1.2 1.2,7.37847045 1.2,15 C1.2,22.6215295 7.37847045,28.8 15,28.8 Z M14.4619756,8.07442565 C14.6820768,7.62852478 15.3179232,7.62852478 15.5380244,8.07442565 L17.5615568,12.1738797 L22.0867769,12.8353084 C22.5787257,12.907214 22.7747958,13.5119188 22.4186397,13.8588149 L19.1447131,17.0476194 L19.9173652,21.552574 C20.0014363,22.0427513 19.486907,22.4165292 19.0467292,22.1850441 L15,20.0569098 L10.9532708,22.1850441 C10.513093,22.4165292 9.99856372,22.0427513 10.0826348,21.552574 L10.8552869,17.0476194 L7.58136032,13.8588149 C7.2252042,13.5119188 7.42127427,12.907214 7.91322307,12.8353084 L12.4384432,12.1738797 L14.4619756,8.07442565 Z M13.3750244,12.9875743 C13.2877006,13.1644828 13.1189894,13.2871584 12.9237769,13.3156916 L9.289047,13.8469619 L11.9186397,16.4081851 C12.0601639,16.5460297 12.1247615,16.7447084 12.0913652,16.939426 L11.4709085,20.557004 L14.7207292,18.8479559 C14.895559,18.7560147 15.104441,18.7560147 15.2792708,18.8479559 L18.5290915,20.557004 L17.9086348,16.939426 C17.8752385,16.7447084 17.9398361,16.5460297 18.0813603,16.4081851 L20.710953,13.8469619 L17.0762231,13.3156916 C16.8810106,13.2871584 16.7122994,13.1644828 16.6249756,12.9875743 L15,9.6955526 L13.3750244,12.9875743 Z" id="star"></path>
            </g>
            <g id="star-spam" transform="translate(690.001060, 30.000000)" fill="#999999" fill-rule="nonzero">
                <path d="M15,30 C6.71572875,30 0,23.2842712 0,15 C0,6.71572875 6.71572875,0 15,0 C23.2842712,0 30,6.71572875 30,15 C30,23.2842712 23.2842712,30 15,30 Z M15,28.8 C22.6215295,28.8 28.8,22.6215295 28.8,15 C28.8,7.37847045 22.6215295,1.2 15,1.2 C7.37847045,1.2 1.2,7.37847045 1.2,15 C1.2,22.6215295 7.37847045,28.8 15,28.8 Z M14.4619756,8.07442565 C14.6820768,7.62852478 15.3179232,7.62852478 15.5380244,8.07442565 L17.5615568,12.1738797 L22.0867769,12.8353084 C22.5787257,12.907214 22.7747958,13.5119188 22.4186397,13.8588149 L19.1447131,17.0476194 L19.9173652,21.552574 C20.0014363,22.0427513 19.486907,22.4165292 19.0467292,22.1850441 L15,20.0569098 L10.9532708,22.1850441 C10.513093,22.4165292 9.99856372,22.0427513 10.0826348,21.552574 L10.8552869,17.0476194 L7.58136032,13.8588149 C7.2252042,13.5119188 7.42127427,12.907214 7.91322307,12.8353084 L12.4384432,12.1738797 L14.4619756,8.07442565 Z M13.3750244,12.9875743 C13.2877006,13.1644828 13.1189894,13.2871584 12.9237769,13.3156916 L9.289047,13.8469619 L11.9186397,16.4081851 C12.0601639,16.5460297 12.1247615,16.7447084 12.0913652,16.939426 L11.4709085,20.557004 L14.7207292,18.8479559 C14.895559,18.7560147 15.104441,18.7560147 15.2792708,18.8479559 L18.5290915,20.557004 L17.9086348,16.939426 C17.8752385,16.7447084 17.9398361,16.5460297 18.0813603,16.4081851 L20.710953,13.8469619 L17.0762231,13.3156916 C16.8810106,13.2871584 16.7122994,13.1644828 16.6249756,12.9875743 L15,9.6955526 L13.3750244,12.9875743 Z" id="star"></path>
            </g>
            <g id="mass-send" transform="translate(360.001060, 0.000000)" fill="#FFAF00" fill-rule="nonzero">
                <path d="M15,0 C6.71572875,0 0,6.71572875 0,15 C0,23.2842712 6.71572875,30 15,30 C23.2842712,30 30,23.2842712 30,15 C30,11.0217527 28.4196474,7.20644396 25.6066017,4.39339828 C22.793556,1.58035261 18.9782473,0 15,0 Z M15,28.8 C7.37847045,28.8 1.2,22.6215295 1.2,15 C1.2,7.37847045 7.37847045,1.2 15,1.2 C22.6215295,1.2 28.8,7.37847045 28.8,15 C28.7914689,22.6179931 22.6179931,28.7914689 15,28.8 Z M18.1129013,8.80067187 C18.3409937,9.0360992 18.3377317,9.41032274 18.1055697,9.64176302 C17.8734077,9.8732033 17.4980172,9.8764552 17.2618558,9.64907187 L15.6490478,7.67327187 L15.6490478,16.2748719 C15.6490478,16.6062427 15.379581,16.8748719 15.0471769,16.8748719 C14.7147727,16.8748719 14.4453059,16.6062427 14.4453059,16.2748719 L14.4453059,7.67327187 L12.832498,9.64907187 C12.5963365,9.8764552 12.220946,9.8732033 11.9887841,9.64176302 C11.7566221,9.41032274 11.75336,9.0360992 11.9814524,8.80067187 L14.6216541,5.80067187 C14.8566846,5.56644271 15.2376691,5.56644271 15.4726996,5.80067187 L18.1129013,8.80067187 Z M25.3385529,14.6220362 C25.3333663,14.9497942 25.0664436,15.2121036 24.7386273,15.2115932 C24.410811,15.2110829 24.1430705,14.9479412 24.1368634,14.6201655 L24.3935375,12.0826366 L19.6371131,16.839061 C19.4027985,17.0733756 19.0223072,17.0727833 18.7872619,16.8377381 C18.5522167,16.6026928 18.5516244,16.2222015 18.785939,15.9878869 L23.5423634,11.2314625 L21.0048345,11.4881366 C20.6770588,11.4819295 20.4139171,11.214189 20.4134068,10.8863727 C20.4128964,10.5585564 20.6752058,10.2916337 21.0029638,10.2864471 L24.9911886,10.0320313 C25.3230053,10.032598 25.592402,10.3019947 25.5929687,10.6338114 L25.3385529,14.6220362 Z M8.95059561,10.2400065 C9.27835354,10.2451931 9.54066293,10.5121157 9.54015261,10.839932 C9.53964229,11.1677483 9.27650059,11.4354889 8.94872492,11.441696 L6.41119593,11.1850218 L11.1676204,15.9414463 C11.401935,16.1757609 11.4013427,16.5562522 11.1662974,16.7912974 C10.9312522,17.0263427 10.5507609,17.026935 10.3164463,16.7926204 L5.56002183,12.0361959 L5.81669599,14.5737249 C5.81048891,14.9015006 5.54274832,15.1646423 5.21493202,15.1651526 C4.88711573,15.1656629 4.62019312,14.9033535 4.61500652,14.5755956 L4.36059068,10.5873708 C4.36115733,10.2555541 4.63055406,9.98615733 4.96237076,9.98559068 L8.95059561,10.2400065 Z M15,24.1875 C13.4466991,24.1875 12.1875,22.9283009 12.1875,21.375 C12.1875,19.8216991 13.4466991,18.5625 15,18.5625 C16.5533009,18.5625 17.8125,19.8216991 17.8125,21.375 C17.8125,22.9283009 16.5533009,24.1875 15,24.1875 Z M15,23.0625 C15.9319805,23.0625 16.6875,22.3069805 16.6875,21.375 C16.6875,20.4430195 15.9319805,19.6875 15,19.6875 C14.0680195,19.6875 13.3125,20.4430195 13.3125,21.375 C13.3125,22.3069805 14.0680195,23.0625 15,23.0625 Z" id="send"></path>
            </g>
            <g id="mass-receive" transform="translate(390.001060, 0.000000)" fill="#81C926" fill-rule="nonzero">
                <path d="M15,30 C11.0217527,30 7.20644396,28.4196474 4.39339828,25.6066017 C1.58035261,22.793556 0,18.9782473 0,15 C0,6.71572875 6.71572875,3.55271368e-15 15,3.55271368e-15 C23.2842712,3.55271368e-15 30,6.71572875 30,15 C30,23.2842712 23.2842712,30 15,30 Z M15,1.2 C7.38200693,1.20853105 1.20853105,7.38200693 1.2,15 C1.2,22.6215295 7.37847045,28.8 15,28.8 C22.6215295,28.8 28.8,22.6215295 28.8,15 C28.8,7.37847045 22.6215295,1.2 15,1.2 Z M11.8870987,21.1993281 C11.6590063,20.9639008 11.6622683,20.5896773 11.8944303,20.358237 C12.1265923,20.1267967 12.5019828,20.1235448 12.7381442,20.3509281 L14.3509522,22.3267281 L14.3509522,13.7251281 C14.3509522,13.3937573 14.620419,13.1251281 14.9528231,13.1251281 C15.2852273,13.1251281 15.5546941,13.3937573 15.5546941,13.7251281 L15.5546941,22.3267281 L17.167502,20.3509281 C17.4036635,20.1235448 17.779054,20.1267967 18.0112159,20.358237 C18.2433779,20.5896773 18.24664,20.9639008 18.0185476,21.1993281 L15.3783459,24.1993281 C15.1433154,24.4335573 14.7623309,24.4335573 14.5273004,24.1993281 L11.8870987,21.1993281 Z M4.66144714,15.3779638 C4.66663374,15.0502058 4.93355635,14.7878964 5.26137265,14.7884068 C5.58918895,14.7889171 5.85692954,15.0520588 5.86313662,15.3798345 L5.60646246,17.9173634 L10.3628869,13.160939 C10.5972015,12.9266244 10.9776928,12.9272167 11.2127381,13.1622619 C11.4477833,13.3973072 11.4483756,13.7777985 11.214061,14.0121131 L6.45763656,18.7685375 L8.99516555,18.5118634 C9.32294121,18.5180705 9.58608292,18.785811 9.58659324,19.1136273 C9.58710356,19.4414436 9.32479417,19.7083663 8.99703624,19.7135529 L5.00881139,19.9679687 C4.67699468,19.967402 4.40759796,19.6980053 4.40703131,19.3661886 L4.66144714,15.3779638 Z M21.0494044,19.7599935 C20.7216465,19.7548069 20.4593371,19.4878843 20.4598474,19.160068 C20.4603577,18.8322517 20.7234994,18.5645111 21.0512751,18.558304 L23.5888041,18.8149782 L18.8323796,14.0585537 C18.598065,13.8242391 18.5986573,13.4437478 18.8337026,13.2087026 C19.0687478,12.9736573 19.4492391,12.973065 19.6835537,13.2073796 L24.4399782,17.9638041 L24.183304,15.4262751 C24.1895111,15.0984994 24.4572517,14.8353577 24.785068,14.8348474 C25.1128843,14.8343371 25.3798069,15.0966465 25.3849935,15.4244044 L25.6394093,19.4126292 C25.6388427,19.7444459 25.3694459,20.0138427 25.0376292,20.0144093 L21.0494044,19.7599935 Z M15,5.8125 C16.5533009,5.8125 17.8125,7.07169914 17.8125,8.625 C17.8125,10.1783009 16.5533009,11.4375 15,11.4375 C13.4466991,11.4375 12.1875,10.1783009 12.1875,8.625 C12.1875,7.07169914 13.4466991,5.8125 15,5.8125 Z M15,6.9375 C14.0680195,6.9375 13.3125,7.69301948 13.3125,8.625 C13.3125,9.55698052 14.0680195,10.3125 15,10.3125 C15.9319805,10.3125 16.6875,9.55698052 16.6875,8.625 C16.6875,7.69301948 15.9319805,6.9375 15,6.9375 Z" id="receive"></path>
            </g>
            <g id="mass-send-spam" transform="translate(360.001060, 30.000000)" fill="#999999" fill-rule="nonzero">
                <path d="M15,0 C6.71572875,0 0,6.71572875 0,15 C0,23.2842712 6.71572875,30 15,30 C23.2842712,30 30,23.2842712 30,15 C30,11.0217527 28.4196474,7.20644396 25.6066017,4.39339828 C22.793556,1.58035261 18.9782473,0 15,0 Z M15,28.8 C7.37847045,28.8 1.2,22.6215295 1.2,15 C1.2,7.37847045 7.37847045,1.2 15,1.2 C22.6215295,1.2 28.8,7.37847045 28.8,15 C28.7914689,22.6179931 22.6179931,28.7914689 15,28.8 Z M18.1129013,8.80067187 C18.3409937,9.0360992 18.3377317,9.41032274 18.1055697,9.64176302 C17.8734077,9.8732033 17.4980172,9.8764552 17.2618558,9.64907187 L15.6490478,7.67327187 L15.6490478,16.2748719 C15.6490478,16.6062427 15.379581,16.8748719 15.0471769,16.8748719 C14.7147727,16.8748719 14.4453059,16.6062427 14.4453059,16.2748719 L14.4453059,7.67327187 L12.832498,9.64907187 C12.5963365,9.8764552 12.220946,9.8732033 11.9887841,9.64176302 C11.7566221,9.41032274 11.75336,9.0360992 11.9814524,8.80067187 L14.6216541,5.80067187 C14.8566846,5.56644271 15.2376691,5.56644271 15.4726996,5.80067187 L18.1129013,8.80067187 Z M25.3385529,14.6220362 C25.3333663,14.9497942 25.0664436,15.2121036 24.7386273,15.2115932 C24.410811,15.2110829 24.1430705,14.9479412 24.1368634,14.6201655 L24.3935375,12.0826366 L19.6371131,16.839061 C19.4027985,17.0733756 19.0223072,17.0727833 18.7872619,16.8377381 C18.5522167,16.6026928 18.5516244,16.2222015 18.785939,15.9878869 L23.5423634,11.2314625 L21.0048345,11.4881366 C20.6770588,11.4819295 20.4139171,11.214189 20.4134068,10.8863727 C20.4128964,10.5585564 20.6752058,10.2916337 21.0029638,10.2864471 L24.9911886,10.0320313 C25.3230053,10.032598 25.592402,10.3019947 25.5929687,10.6338114 L25.3385529,14.6220362 Z M8.95059561,10.2400065 C9.27835354,10.2451931 9.54066293,10.5121157 9.54015261,10.839932 C9.53964229,11.1677483 9.27650059,11.4354889 8.94872492,11.441696 L6.41119593,11.1850218 L11.1676204,15.9414463 C11.401935,16.1757609 11.4013427,16.5562522 11.1662974,16.7912974 C10.9312522,17.0263427 10.5507609,17.026935 10.3164463,16.7926204 L5.56002183,12.0361959 L5.81669599,14.5737249 C5.81048891,14.9015006 5.54274832,15.1646423 5.21493202,15.1651526 C4.88711573,15.1656629 4.62019312,14.9033535 4.61500652,14.5755956 L4.36059068,10.5873708 C4.36115733,10.2555541 4.63055406,9.98615733 4.96237076,9.98559068 L8.95059561,10.2400065 Z M15,24.1875 C13.4466991,24.1875 12.1875,22.9283009 12.1875,21.375 C12.1875,19.8216991 13.4466991,18.5625 15,18.5625 C16.5533009,18.5625 17.8125,19.8216991 17.8125,21.375 C17.8125,22.9283009 16.5533009,24.1875 15,24.1875 Z M15,23.0625 C15.9319805,23.0625 16.6875,22.3069805 16.6875,21.375 C16.6875,20.4430195 15.9319805,19.6875 15,19.6875 C14.0680195,19.6875 13.3125,20.4430195 13.3125,21.375 C13.3125,22.3069805 14.0680195,23.0625 15,23.0625 Z" id="Shape"></path>
            </g>
            <g id="mass-receive-spam" transform="translate(390.001060, 30.000000)" fill="#999999" fill-rule="nonzero">
                <path d="M15,30 C11.0217527,30 7.20644396,28.4196474 4.39339828,25.6066017 C1.58035261,22.793556 0,18.9782473 0,15 C0,6.71572875 6.71572875,3.55271368e-15 15,3.55271368e-15 C23.2842712,3.55271368e-15 30,6.71572875 30,15 C30,23.2842712 23.2842712,30 15,30 Z M15,1.2 C7.38200693,1.20853105 1.20853105,7.38200693 1.2,15 C1.2,22.6215295 7.37847045,28.8 15,28.8 C22.6215295,28.8 28.8,22.6215295 28.8,15 C28.8,7.37847045 22.6215295,1.2 15,1.2 Z M11.8870987,21.1993281 C11.6590063,20.9639008 11.6622683,20.5896773 11.8944303,20.358237 C12.1265923,20.1267967 12.5019828,20.1235448 12.7381442,20.3509281 L14.3509522,22.3267281 L14.3509522,13.7251281 C14.3509522,13.3937573 14.620419,13.1251281 14.9528231,13.1251281 C15.2852273,13.1251281 15.5546941,13.3937573 15.5546941,13.7251281 L15.5546941,22.3267281 L17.167502,20.3509281 C17.4036635,20.1235448 17.779054,20.1267967 18.0112159,20.358237 C18.2433779,20.5896773 18.24664,20.9639008 18.0185476,21.1993281 L15.3783459,24.1993281 C15.1433154,24.4335573 14.7623309,24.4335573 14.5273004,24.1993281 L11.8870987,21.1993281 Z M4.66144714,15.3779638 C4.66663374,15.0502058 4.93355635,14.7878964 5.26137265,14.7884068 C5.58918895,14.7889171 5.85692954,15.0520588 5.86313662,15.3798345 L5.60646246,17.9173634 L10.3628869,13.160939 C10.5972015,12.9266244 10.9776928,12.9272167 11.2127381,13.1622619 C11.4477833,13.3973072 11.4483756,13.7777985 11.214061,14.0121131 L6.45763656,18.7685375 L8.99516555,18.5118634 C9.32294121,18.5180705 9.58608292,18.785811 9.58659324,19.1136273 C9.58710356,19.4414436 9.32479417,19.7083663 8.99703624,19.7135529 L5.00881139,19.9679687 C4.67699468,19.967402 4.40759796,19.6980053 4.40703131,19.3661886 L4.66144714,15.3779638 Z M21.0494044,19.7599935 C20.7216465,19.7548069 20.4593371,19.4878843 20.4598474,19.160068 C20.4603577,18.8322517 20.7234994,18.5645111 21.0512751,18.558304 L23.5888041,18.8149782 L18.8323796,14.0585537 C18.598065,13.8242391 18.5986573,13.4437478 18.8337026,13.2087026 C19.0687478,12.9736573 19.4492391,12.973065 19.6835537,13.2073796 L24.4399782,17.9638041 L24.183304,15.4262751 C24.1895111,15.0984994 24.4572517,14.8353577 24.785068,14.8348474 C25.1128843,14.8343371 25.3798069,15.0966465 25.3849935,15.4244044 L25.6394093,19.4126292 C25.6388427,19.7444459 25.3694459,20.0138427 25.0376292,20.0144093 L21.0494044,19.7599935 Z M15,5.8125 C16.5533009,5.8125 17.8125,7.07169914 17.8125,8.625 C17.8125,10.1783009 16.5533009,11.4375 15,11.4375 C13.4466991,11.4375 12.1875,10.1783009 12.1875,8.625 C12.1875,7.07169914 13.4466991,5.8125 15,5.8125 Z M15,6.9375 C14.0680195,6.9375 13.3125,7.69301948 13.3125,8.625 C13.3125,9.55698052 14.0680195,10.3125 15,10.3125 C15.9319805,10.3125 16.6875,9.55698052 16.6875,8.625 C16.6875,7.69301948 15.9319805,6.9375 15,6.9375 Z" id="Shape"></path>
            </g>
            <g id="Icon/t-undefined48" transform="translate(330.001060, 0.000000)" fill="#999999" fill-rule="nonzero">
                <path d="M15,0 C6.71572875,0 0,6.71572875 0,15 C0,23.2842712 6.71572875,30 15,30 C23.2842712,30 30,23.2842712 30,15 C30,11.0217527 28.4196474,7.20644396 25.6066017,4.39339828 C22.793556,1.58035261 18.9782473,0 15,0 Z M15,28.8 C7.37847045,28.8 1.2,22.6215295 1.2,15 C1.2,7.37847045 7.37847045,1.2 15,1.2 C22.6215295,1.2 28.8,7.37847045 28.8,15 C28.7914689,22.6179931 22.6179931,28.7914689 15,28.8 Z M14.912263,22 C15.376903,22 15.686663,22.3814381 15.686663,22.8391638 C15.686663,23.2206019 15.376903,23.6020401 14.912263,23.6020401 C14.447623,23.6020401 14.060423,23.2206019 14.060423,22.8391638 C14.060423,22.3814381 14.447623,22 14.912263,22 Z M11.3323263,11.6875 C11.3323263,12 11.0785498,12.3125 10.6978852,12.3125 C10.3172205,12.3125 10,12 10,11.6875 C10,10.375 10.5075529,9.1875 11.3957704,8.375 C12.2839879,7.5 13.4259819,7 14.7583082,7 C16.0271903,7 17.2326284,7.5 18.1208459,8.375 C18.9456193,9.1875 19.5166163,10.375 19.5166163,11.6875 C19.5166163,13.5625 18.4380665,14.625 17.3595166,15.75 C16.407855,16.6875 15.3927492,17.625 15.3927492,19.25 C15.3927492,19.625 15.1389728,19.9375 14.7583082,19.9375 C14.3776435,19.9375 14.060423,19.625 14.060423,19.25 C14.060423,17.125 15.2024169,15.9375 16.3444109,14.8125 C17.2326284,13.875 18.1208459,13 18.1208459,11.6875 C18.1208459,10.75 17.7401813,9.875 17.1691843,9.3125 C16.5347432,8.6875 15.7099698,8.3125 14.7583082,8.3125 C13.8066465,8.3125 12.9818731,8.6875 12.347432,9.3125 C11.7129909,9.875 11.3323263,10.75 11.3323263,11.6875 Z" id="Shape"></path>
            </g>
            <g id="Icon/t-Sponsored-Plus-48" transform="translate(510.001060, 0.000000)" fill="#81C926" fill-rule="nonzero">
                <path d="M20.4228518,28.9897711 C18.741021,29.6421536 16.9123003,30 15,30 C6.71572875,30 0,23.2842712 0,15 C0,6.71572875 6.71572875,0 15,0 C23.2842712,0 30,6.71572875 30,15 C30,16.9123003 29.6421536,18.741021 28.9897711,20.4228518 C29.6285014,21.3964557 30,22.5610938 30,23.8125 C30,27.2297619 27.2297619,30 23.8125,30 C22.5610938,30 21.3964557,29.6285014 20.4228545,28.9897729 Z M19.4094081,28.159677 C18.3060794,27.0422461 17.625,25.5069103 17.625,23.8125 C17.625,20.3952381 20.3952381,17.625 23.8125,17.625 C25.5069103,17.625 27.0422461,18.3060794 28.159677,19.4094081 C28.6236435,18.0241513 28.875,16.5414294 28.875,15 C28.875,7.3370491 22.6629509,1.125 15,1.125 C7.3370491,1.125 1.125,7.3370491 1.125,15 C1.125,22.6629509 7.3370491,28.875 15,28.875 C16.5414294,28.875 18.0241513,28.6236435 19.4094137,28.1596827 Z M9.9375,14.4375 C7.86643219,14.4375 6.1875,12.7585678 6.1875,10.6875 C6.1875,8.61643219 7.86643219,6.9375 9.9375,6.9375 C12.0085678,6.9375 13.6875,8.61643219 13.6875,10.6875 C13.6875,12.7585678 12.0085678,14.4375 9.9375,14.4375 Z M9.9375,13.3125 C11.3872475,13.3125 12.5625,12.1372475 12.5625,10.6875 C12.5625,9.23775253 11.3872475,8.0625 9.9375,8.0625 C8.48775253,8.0625 7.3125,9.23775253 7.3125,10.6875 C7.3125,12.1372475 8.48775253,13.3125 9.9375,13.3125 Z M21.1078395,8.91024756 C21.3275095,9.12991748 21.3275095,9.48607278 21.1078395,9.70574269 L9.70574269,21.1078395 C9.48607278,21.3275095 9.12991748,21.3275095 8.91024756,21.1078395 C8.69057765,20.8881696 8.69057765,20.5320143 8.91024756,20.3123444 L20.3123444,8.91024756 C20.5320143,8.69057765 20.8881696,8.69057765 21.1078395,8.91024756 Z M17.0591031,21.5583373 C16.5902255,20.9323066 16.3125,20.1548364 16.3125,19.3125 C16.3125,17.2414322 17.9914322,15.5625 20.0625,15.5625 C21.2038168,15.5625 22.2260478,16.072367 22.9138426,16.8767508 C22.4099726,16.8886309 21.9210084,16.9607448 21.4538729,17.0861699 C21.050497,16.8335425 20.5735535,16.6875 20.0625,16.6875 C18.6127525,16.6875 17.4375,17.8627525 17.4375,19.3125 C17.4375,19.6172682 17.4894381,19.9099056 17.5849458,20.1820439 C17.3577314,20.61323 17.1799386,21.0745064 17.0591031,21.5583373 Z M24.375,23.4375 L26.625,23.4375 C26.9356602,23.4375 27.1875,23.6893398 27.1875,24 C27.1875,24.3106602 26.9356602,24.5625 26.625,24.5625 L24.375,24.5625 L24.375,26.8125 C24.375,27.1231602 24.1231602,27.375 23.8125,27.375 C23.5018398,27.375 23.25,27.1231602 23.25,26.8125 L23.25,24.5625 L21,24.5625 C20.6893398,24.5625 20.4375,24.3106602 20.4375,24 C20.4375,23.6893398 20.6893398,23.4375 21,23.4375 L23.25,23.4375 L23.25,21.1875 C23.25,20.8768398 23.5018398,20.625 23.8125,20.625 C24.1231602,20.625 24.375,20.8768398 24.375,21.1875 L24.375,23.4375 Z M23.8125,28.875 C26.6084415,28.875 28.875,26.6084415 28.875,23.8125 C28.875,21.0165585 26.6084415,18.75 23.8125,18.75 C21.0165585,18.75 18.75,21.0165585 18.75,23.8125 C18.75,26.6084415 21.0165585,28.875 23.8125,28.875 Z" id="Combined-Shape"></path>
            </g>
            <g id="Icon/t-Sponsored-Plus-48" transform="translate(510.001060, 30.000000)" fill="#999999" fill-rule="nonzero">
                <path d="M20.4228518,28.9897711 C18.741021,29.6421536 16.9123003,30 15,30 C6.71572875,30 0,23.2842712 0,15 C0,6.71572875 6.71572875,0 15,0 C23.2842712,0 30,6.71572875 30,15 C30,16.9123003 29.6421536,18.741021 28.9897711,20.4228518 C29.6285014,21.3964557 30,22.5610938 30,23.8125 C30,27.2297619 27.2297619,30 23.8125,30 C22.5610938,30 21.3964557,29.6285014 20.4228545,28.9897729 Z M19.4094081,28.159677 C18.3060794,27.0422461 17.625,25.5069103 17.625,23.8125 C17.625,20.3952381 20.3952381,17.625 23.8125,17.625 C25.5069103,17.625 27.0422461,18.3060794 28.159677,19.4094081 C28.6236435,18.0241513 28.875,16.5414294 28.875,15 C28.875,7.3370491 22.6629509,1.125 15,1.125 C7.3370491,1.125 1.125,7.3370491 1.125,15 C1.125,22.6629509 7.3370491,28.875 15,28.875 C16.5414294,28.875 18.0241513,28.6236435 19.4094137,28.1596827 Z M9.9375,14.4375 C7.86643219,14.4375 6.1875,12.7585678 6.1875,10.6875 C6.1875,8.61643219 7.86643219,6.9375 9.9375,6.9375 C12.0085678,6.9375 13.6875,8.61643219 13.6875,10.6875 C13.6875,12.7585678 12.0085678,14.4375 9.9375,14.4375 Z M9.9375,13.3125 C11.3872475,13.3125 12.5625,12.1372475 12.5625,10.6875 C12.5625,9.23775253 11.3872475,8.0625 9.9375,8.0625 C8.48775253,8.0625 7.3125,9.23775253 7.3125,10.6875 C7.3125,12.1372475 8.48775253,13.3125 9.9375,13.3125 Z M21.1078395,8.91024756 C21.3275095,9.12991748 21.3275095,9.48607278 21.1078395,9.70574269 L9.70574269,21.1078395 C9.48607278,21.3275095 9.12991748,21.3275095 8.91024756,21.1078395 C8.69057765,20.8881696 8.69057765,20.5320143 8.91024756,20.3123444 L20.3123444,8.91024756 C20.5320143,8.69057765 20.8881696,8.69057765 21.1078395,8.91024756 Z M17.0591031,21.5583373 C16.5902255,20.9323066 16.3125,20.1548364 16.3125,19.3125 C16.3125,17.2414322 17.9914322,15.5625 20.0625,15.5625 C21.2038168,15.5625 22.2260478,16.072367 22.9138426,16.8767508 C22.4099726,16.8886309 21.9210084,16.9607448 21.4538729,17.0861699 C21.050497,16.8335425 20.5735535,16.6875 20.0625,16.6875 C18.6127525,16.6875 17.4375,17.8627525 17.4375,19.3125 C17.4375,19.6172682 17.4894381,19.9099056 17.5849458,20.1820439 C17.3577314,20.61323 17.1799386,21.0745064 17.0591031,21.5583373 Z M24.375,23.4375 L26.625,23.4375 C26.9356602,23.4375 27.1875,23.6893398 27.1875,24 C27.1875,24.3106602 26.9356602,24.5625 26.625,24.5625 L24.375,24.5625 L24.375,26.8125 C24.375,27.1231602 24.1231602,27.375 23.8125,27.375 C23.5018398,27.375 23.25,27.1231602 23.25,26.8125 L23.25,24.5625 L21,24.5625 C20.6893398,24.5625 20.4375,24.3106602 20.4375,24 C20.4375,23.6893398 20.6893398,23.4375 21,23.4375 L23.25,23.4375 L23.25,21.1875 C23.25,20.8768398 23.5018398,20.625 23.8125,20.625 C24.1231602,20.625 24.375,20.8768398 24.375,21.1875 L24.375,23.4375 Z M23.8125,28.875 C26.6084415,28.875 28.875,26.6084415 28.875,23.8125 C28.875,21.0165585 26.6084415,18.75 23.8125,18.75 C21.0165585,18.75 18.75,21.0165585 18.75,23.8125 C18.75,26.6084415 21.0165585,28.875 23.8125,28.875 Z" id="Combined-Shape"></path>
            </g>
        </g>
    </g>
</svg>