<svg xmlns="http://www.w3.org/2000/svg" width="30" height="30" viewBox="0 0 30 30">
  <path fill="#FFAF00" d="M15,0 C6.71572875,-5.07265313e-16 1.01453063e-15,6.71572875 0,15 C-1.01453063e-15,23.2842712 6.71572875,30 15,30 C23.2842712,30 30,23.2842712 30,15 C30,11.0217527 28.4196474,7.20644396 25.6066017,4.39339828 C22.793556,1.58035261 18.9782473,2.43597394e-16 15,0 Z M15,28.8 C7.37847045,28.8 1.2,22.6215295 1.2,15 C1.2,7.37847045 7.37847045,1.2 15,1.2 C22.6215295,1.2 28.8,7.37847045 28.8,15 C28.7914689,22.6179931 22.6179931,28.7914689 15,28.8 Z M21.4242,12.1758 C21.6515833,12.4112273 21.6483314,12.7854509 21.4168911,13.0168911 C21.1854509,13.2483314 20.8112273,13.2515833 20.5758,13.0242 L15.6,8.0484 L15.6,23.4 C15.6,23.7313708 15.3313708,24 15,24 C14.6686292,24 14.4,23.7313708 14.4,23.4 L14.4,8.0484 L9.4242,13.0242 C9.18877267,13.2515833 8.81454913,13.2483314 8.58310885,13.0168911 C8.35166858,12.7854509 8.34841667,12.4112273 8.5758,12.1758 L14.5758,6.1758 C14.8100999,5.94157084 15.1899001,5.94157084 15.4242,6.1758 L21.4242,12.1758 Z"/>
</svg>
