<?xml version="1.0" encoding="UTF-8"?>
<svg width="23px" height="32px" viewBox="0 0 23 32" version="1.1" xmlns="http://www.w3.org/2000/svg" xmlns:xlink="http://www.w3.org/1999/xlink">
    <!-- Generator: Sketch 48.2 (47327) - http://www.bohemiancoding.com/sketch -->
    <title>30px_Burn</title>
    <desc>Created with Sketch.</desc>
    <defs></defs>
    <g id="burn_icon" stroke="none" stroke-width="1" fill="none" fill-rule="evenodd" transform="translate(-213.000000, -152.000000)">
        <g id="30px_Burn" transform="translate(213.000000, 152.000000)" fill="#FFB000" fill-rule="nonzero">
            <path d="M7.94373661,26.8767594 C7.95617988,26.8636401 7.97010307,26.8482287 7.98628828,26.8304597 C7.97807991,26.8394713 7.96954204,26.8490438 7.96070517,26.8591393 L7.94373661,26.8767594 Z M7.31364513,27.8067957 C7.27181884,27.9418788 7.068839,28.4156916 7.06718124,28.4198817 C6.98501929,28.6275517 6.92695189,28.8189665 6.88669116,29.0348764 L6.79500232,29.5265845 L5.80065917,29.345222 L5.89234801,28.8535138 C5.94522319,28.5699552 6.0214144,28.3187968 6.12558649,28.0554945 C6.14506633,28.0062579 6.32311548,27.5906404 6.34685021,27.5139863 C6.53606942,26.9028801 7.4669167,25.6295021 8.02271431,25.9116062 C8.20753916,26.005417 8.24464673,26.0708037 8.37467481,26.359859 C8.40344537,26.4238166 8.52138524,26.7000445 8.549981,26.7645636 C8.63023063,26.9456268 8.69432524,27.0705137 8.74342956,27.140163 C8.80394644,27.197071 9.00525828,27.2903403 9.2239934,27.364087 C9.13449388,26.9840354 9.10710856,26.8417081 9.10710856,26.6699313 L9.10710856,25.2200646 C9.10710856,24.6029875 9.27160814,23.7422417 9.54845602,23.2867287 C9.59187806,23.2152841 9.63119302,23.1369693 9.68671498,23.0138908 C10.0046974,22.3090022 10.1335202,22.0802946 10.5707197,21.5902539 C11.4137328,20.645352 12.1542571,19.9263634 12.4747382,19.9263634 C12.7723217,19.9263634 12.8972335,20.0812108 12.9714043,20.2811665 C12.9913972,20.3350649 13.0036333,20.3884848 13.0138505,20.452003 C13.0266109,20.5313319 13.0363468,20.6298671 13.0472536,20.7754192 C13.0530242,20.8524298 13.0758521,21.1915864 13.082036,21.2771938 C13.098028,21.4985812 13.1141738,21.6857364 13.1339551,21.8675839 C13.1513076,22.0271029 13.1648453,22.1724244 13.1869342,22.4180418 C13.2107172,22.6726837 13.2293831,22.8127468 13.2605519,22.9512179 C13.2954835,23.1064054 13.3470994,23.2546753 13.4296136,23.4295583 C13.5705746,23.7283152 13.8170021,24.0536348 14.2044275,24.4771571 C14.3093554,24.5918612 14.7248288,25.032803 14.6470228,24.9497136 C14.7724388,25.0836458 14.8636918,25.1789348 15.1680346,25.4950619 C15.6761844,26.0229121 15.8915302,26.2533768 16.0389508,26.4384011 C16.1043491,26.5201738 16.1043491,26.5201738 16.1765693,26.6109965 C16.2336021,26.6831599 16.2824725,26.7465337 16.3297129,26.8101018 C16.5730278,27.1375137 16.7494257,27.4407982 16.8694988,27.7772029 C17.0028092,28.1506943 17.0978917,28.6433004 17.1597221,29.2613644 L17.2094985,29.758935 L16.2033003,29.8573938 L16.1535239,29.3598232 C16.0990168,28.8149641 16.0182004,28.3962683 15.9160508,28.1100792 C15.8338683,27.8798311 15.7043269,27.6571081 15.514988,27.4023278 C15.4447305,27.3077872 15.4936878,27.3697328 15.2447813,27.0573359 C15.1262167,26.9085281 14.9137297,26.6811229 14.4428028,26.1919386 C14.1275941,25.8645246 14.0351171,25.7679575 13.9051826,25.6292001 C13.9882501,25.7179081 13.5654333,25.2691728 13.4546359,25.1480523 C13.0046178,24.6561055 12.7074517,24.2638037 12.5133525,23.8524241 C12.4003204,23.6128608 12.3247682,23.3958322 12.2736014,23.1685174 C12.2308309,22.9785047 12.2075458,22.8037804 12.1801093,22.5100219 C12.1577386,22.2615928 12.1450324,22.1251967 12.1286452,21.974551 C12.1107551,21.8100893 12.0957957,21.6434726 12.0814978,21.4562593 C11.8281345,21.7101106 11.5618554,21.9907523 11.3288842,22.251881 C10.977856,22.6453355 10.8889491,22.8031778 10.6100936,23.4213317 C10.5392876,23.5782909 10.4838362,23.6887494 10.4150585,23.8019131 C10.2513981,24.0711926 10.1182197,24.7680499 10.1182197,25.2200646 L10.1182197,26.6699313 C10.1182197,26.7309475 10.1412312,26.8505434 10.2041416,27.1176738 C10.2665313,27.3825872 10.2897451,27.4920216 10.306116,27.624241 C10.3469928,27.9543825 10.3176371,28.1804847 10.0437347,28.3602525 C9.6425082,28.6235856 8.51278093,28.2654756 8.09491426,27.9142428 C8.02760981,27.8576709 7.96940517,27.7906614 7.91403465,27.7121241 C7.82823067,27.5904203 7.74991661,27.4431808 7.6604008,27.2471493 C7.48301345,27.4973154 7.33308061,27.7440265 7.31364513,27.8067957 Z M12.7082465,20.8683161 C12.7116578,20.8658063 12.715189,20.8631906 12.7188615,20.8604645 C12.7169768,20.8618636 12.7149464,20.8633983 12.7127753,20.8650654 L12.7082465,20.8683161 Z" id="Line-2"></path>
            <path d="M18.5377588,13.2729055 C18.5402112,13.2684191 18.5429553,13.2635254 18.5460257,13.2580424 C18.5421015,13.26505 18.5375506,13.2729401 18.5324066,13.2816515 L18.5377588,13.2729055 Z M18.5172038,13.4233774 C18.5973199,13.0528519 18.5973199,13.0528519 19.0986725,12.9238463 C19.2968751,12.986686 19.2968751,12.986686 19.3465863,13.0284751 C19.3863062,13.0584918 19.4197634,13.0906235 19.460362,13.1337686 C19.5148243,13.1916469 19.5884915,13.2774735 19.6850647,13.3949286 C19.8689698,13.6185991 20.1416909,13.9642449 20.5203945,14.4550734 C21.039585,15.2062771 21.442983,16.0323219 21.7303008,16.9316504 C21.9354255,17.5737074 22.0317547,17.9200576 22.0997548,18.2764767 C22.1433537,18.5049978 22.1744679,18.7353062 22.2068246,19.0554583 C22.2182535,19.1685406 22.2299801,19.2936341 22.2452025,19.4631204 C22.2657799,19.694279 22.2657799,19.694279 22.2894045,19.9605028 C22.3835998,21.0158355 22.3369712,21.6847334 22.1607802,22.7595413 C22.1337004,22.9240259 22.1208879,23.0023368 22.1079709,23.0839219 C22.0953752,23.1641439 22.0953752,23.1641439 22.0834238,23.2437584 C21.9621076,24.063531 21.4406071,25.3853947 20.9445451,26.2952455 C20.5729087,26.9768813 19.688936,27.967618 18.8269805,28.7291669 C18.4047511,29.1022121 17.7945035,29.5287283 17.1303139,29.9050929 C16.3635313,30.3395921 15.5633448,30.6881965 14.7920282,30.9046513 C13.2966318,31.3243048 12.1041488,31.4241441 10.6911845,31.3059123 C9.30032116,31.1895298 8.09892506,30.8912066 6.98206359,30.3317339 C5.96505249,29.8222795 4.76669162,28.85196 3.85922428,27.931225 C3.17603529,27.2380473 2.85213105,26.8261893 2.32721126,25.9601671 C1.78552171,25.0664779 1.29566198,24.0316966 1.0447587,23.257705 C0.832380473,22.6025564 0.665532769,21.2386929 0.665532769,20.5987643 C0.665532769,19.8567097 0.710772391,18.7889744 0.794028955,18.2839483 C0.908617739,17.588864 1.33261726,16.3871827 1.77978875,15.5462296 C2.17806116,14.7972364 2.78617795,13.9303807 3.34834976,13.2377926 C3.38876521,13.1882257 3.38876521,13.1882257 3.42906084,13.1396862 C3.48668993,13.0705753 3.54522603,13.002357 3.60644147,12.9328866 C3.74302544,12.7778842 3.88533664,12.6246022 4.10963783,12.3890225 C3.9634176,12.5425951 4.60158012,11.8741139 4.79873579,11.6653329 C4.898177,11.5601721 4.98700035,11.4673916 5.08106143,11.3701322 C5.2231662,11.2231956 5.36904689,11.0743771 5.55503831,10.8860906 C5.55746202,10.883637 5.89676195,10.5407066 5.98391749,10.4521321 C6.28173062,10.1494707 6.44695976,9.97376421 6.52058831,9.87961247 C6.90104523,9.3931071 6.95096362,9.32809623 7.14533269,9.05401258 C7.22726916,8.93847235 7.30302879,8.82743921 7.37188963,8.72149844 C7.52019853,8.49332873 7.63228802,8.29509083 7.70006832,8.13851216 C7.74597631,8.03246051 7.79727808,7.91596519 7.86868667,7.75516905 C7.9597141,7.5505194 8.01227126,7.43237034 8.05313341,7.34012052 C8.07175395,7.29806302 8.07175395,7.29806302 8.09032753,7.25601832 C8.337935,6.69515765 8.48504536,6.33763595 8.55493436,6.11335829 C8.71695891,5.59341264 8.83416013,4.95084393 8.93158016,3.93380072 C8.95332281,3.70681237 8.97085979,3.45172027 8.98446223,3.17369414 C9.0151988,2.54545601 9.02314311,1.89858852 9.01901481,1.30762414 C9.01834894,1.22500309 9.01834894,1.22500309 9.01809896,1.19118089 C9.07861065,0.887023271 9.07861065,0.887023271 9.39310858,0.706701106 C9.60033785,0.687038205 9.60033785,0.687038205 9.67711747,0.711883052 C9.76811282,0.7470773 9.76811282,0.7470773 9.80268362,0.767916332 C9.85721522,0.802458709 9.85721522,0.802458709 9.90224286,0.835360531 C9.95981936,0.87792378 10.0372021,0.939275285 10.1308038,1.01634429 C10.3243047,1.17566744 10.5758851,1.39286404 10.8381335,1.62788645 C11.4996137,2.22069349 12.1130678,2.81956227 12.5287602,3.29658671 C13.4855976,4.39459782 13.8463585,4.892141 14.3477522,5.82714076 C14.8113012,6.69156767 15.3658775,8.19947391 15.6186872,9.17899497 C15.8069697,9.90850251 15.906977,11.3137474 15.906977,12.5882287 C15.906977,13.1592376 15.8263422,14.0959222 15.6994041,14.8223757 C15.6628451,15.0315992 15.6204141,15.2434847 15.5717187,15.4644035 C15.5429476,15.594931 15.4750435,15.8796099 15.4177061,16.1183217 C15.5968217,16.0779926 15.799538,16.0128666 15.9768676,15.9370859 C16.5227503,15.7038061 16.7687366,15.5259125 17.2722121,14.9638212 C17.530277,14.6757118 17.8521407,14.2641585 18.1481733,13.8513105 C18.2746132,13.674977 18.3866287,13.5116169 18.4659111,13.3885163 C18.4934115,13.3458169 18.5159455,13.3095287 18.5324066,13.2816515 C18.5159957,13.3127186 18.5172038,13.3204573 18.5172038,13.4233774 Z M4.84575067,13.0745745 C4.8444984,13.0758897 4.84324887,13.0772022 4.84200205,13.078512 C4.84305559,13.0774052 4.84436877,13.0760259 4.84575067,13.0745745 Z M4.36870456,13.5898912 C4.31341475,13.6526368 4.26080726,13.7139459 4.20911979,13.7759315 C4.17305014,13.8193803 4.17305014,13.8193803 4.13682548,13.8638074 C3.61176968,14.5106691 3.03775035,15.3289197 2.67469258,16.0116881 C2.27635989,16.7607946 1.88826237,17.8607241 1.7919628,18.4448678 C1.72028397,18.8796645 1.67664388,19.9096481 1.67664388,20.5987643 C1.67664388,21.1434413 1.83148034,22.4091213 2.0075959,22.9524061 C2.23337919,23.648907 2.69066149,24.6148716 3.19443587,25.4460078 C3.67814576,26.2440411 3.95378334,26.594526 4.58326704,27.2332131 C5.41981987,28.0819969 6.54104033,28.9898554 7.43892979,29.4396378 C8.42918807,29.9356908 9.50654385,30.2032131 10.7764262,30.3094723 C12.0715479,30.4178435 13.1420039,30.3282207 14.516023,29.9426294 C15.2021453,29.7500827 15.9281508,29.4337955 16.6276575,29.0374184 C17.2332382,28.6942647 17.7862745,28.3077347 18.1533662,27.9834044 C18.935475,27.2924012 19.7496634,26.3798772 20.0545733,25.8206274 C20.4995524,25.0044703 20.9819153,23.78181 21.0829716,23.0989399 C21.0957843,23.0135921 21.0957843,23.0135921 21.1090321,22.9292222 C21.1224144,22.8446972 21.1356988,22.7635023 21.1627013,22.5995045 C21.3266028,21.5996649 21.3678519,21.0079383 21.2822101,20.0484365 C21.2584953,19.7811987 21.2584953,19.7811987 21.238057,19.5516001 C21.2231353,19.385462 21.2117176,19.2636638 21.2007271,19.1549187 C21.1710453,18.8612337 21.1435836,18.6579612 21.1061767,18.4618952 C21.0474121,18.1538836 20.9600832,17.8398939 20.7661727,17.232938 C20.508428,16.4261759 20.1483531,15.6888443 19.7014744,15.0410052 C19.4548999,14.722189 19.2511311,14.4619782 19.0906125,14.2608949 C18.7864717,14.7110464 18.3752307,15.2404484 18.0290574,15.626924 C17.4283189,16.297602 17.0613172,16.5630121 16.377923,16.8550566 C16.0503104,16.9950599 15.6667058,17.1053751 15.354072,17.1447783 C14.7776765,17.2174249 14.313641,17.0962699 14.313641,16.5053711 C14.313641,16.3633126 14.5784151,15.2758803 14.5838098,15.2514062 C14.6295445,15.043919 14.6691683,14.846052 14.7030617,14.6520834 C14.8201355,13.9820819 14.8958659,13.1023695 14.8958659,12.5882287 C14.8958659,11.3929589 14.8004183,10.0517851 14.6389896,9.42632354 C14.4046813,8.51848691 13.8768386,7.08326977 13.4544939,6.29568076 C12.9926631,5.43445805 12.6741651,4.99520158 11.7628523,3.94943192 C11.3794465,3.50945769 10.7925236,2.9364893 10.1591979,2.3689139 C10.1142489,2.32863136 10.0696562,2.28891952 10.0256906,2.25000647 C10.0201922,2.57162845 10.0102223,2.89845626 9.99439174,3.22202498 C9.98008523,3.51444184 9.96151906,3.7845045 9.93818438,4.02811334 C9.83471491,5.10831128 9.70563346,5.81601464 9.52119682,6.40788195 C9.43591322,6.68156171 9.28076245,7.058624 9.01696144,7.65616497 C8.99811687,7.69882308 8.99811687,7.69882308 8.97927175,7.74138782 C8.93803113,7.83449208 8.8850688,7.95355197 8.79443997,8.15730451 C8.7241917,8.31548786 8.67398331,8.42950034 8.62957578,8.5320858 C8.53612159,8.7479735 8.39856051,8.99125963 8.22241692,9.26225237 C8.14578248,9.38015264 8.06250868,9.50219852 7.97313533,9.62822564 C7.76584499,9.92052983 7.71240174,9.99013127 7.32039477,10.4914062 C7.21367403,10.6278742 7.03706988,10.815677 6.7085364,11.1495589 C6.62023482,11.239298 6.27982614,11.5833491 6.2782867,11.5849075 C6.09457451,11.7708867 5.95097291,11.9173801 5.8117449,12.0613422 C5.72017822,12.1560224 5.63392129,12.2461221 5.55176278,12.3329967 C5.34019161,12.5570323 4.70962859,13.217574 4.84181012,13.0787136 C4.62806646,13.3032466 4.49416206,13.4475156 4.36870456,13.5898912 Z M19.4440836,13.7016909 C19.4807904,13.6420045 19.4991489,13.5575499 19.5283149,13.4233774 C19.5283149,13.4670967 19.5088119,13.5314327 19.4734985,13.6116206 L19.4440836,13.7016909 Z" id="Line"></path>
        </g>
    </g>
</svg>