<svg xmlns="http://www.w3.org/2000/svg" width="30" height="30" viewBox="0 0 30 30">
    <path fill="#999" fill-rule="nonzero" d="M15 0C6.716 0 0 6.716 0 15c0 8.284 6.716 15 15 15 8.284 0 15-6.716 15-15A15 15 0 0 0 15 0zm0 28.8C7.378 28.8 1.2 22.622 1.2 15 1.2 7.378 7.378 1.2 15 1.2c7.622 0 13.8 6.178 13.8 13.8-.009 7.618-6.182 13.791-13.8 13.8zm-.088-6.8c.465 0 .775.381.775.84a.77.77 0 0 1-.775.762c-.464 0-.852-.381-.852-.763 0-.458.388-.839.852-.839zm-3.58-10.313a.63.63 0 0 1-.634.626c-.38 0-.698-.313-.698-.626 0-1.312.508-2.5 1.396-3.312A4.68 4.68 0 0 1 14.758 7c1.27 0 2.475.5 3.363 1.375.825.813 1.396 2 1.396 3.313 0 1.874-1.079 2.937-2.157 4.062-.952.938-1.967 1.875-1.967 3.5 0 .375-.254.688-.635.688a.699.699 0 0 1-.698-.688c0-2.125 1.142-3.313 2.284-4.438.889-.937 1.777-1.812 1.777-3.124 0-.938-.38-1.813-.952-2.376a3.38 3.38 0 0 0-2.41-1 3.38 3.38 0 0 0-2.412 1c-.634.563-1.015 1.438-1.015 2.376z"/>
</svg>
