<svg xmlns="http://www.w3.org/2000/svg" width="25" height="25" viewBox="0 0 25 25">
  <path fill="#81C926" d="M25.0000006,13.2270717 C25.0000006,13.4943062 24.776143,13.7109427 24.5000006,13.7109427 C24.2238583,13.7109427 24.0000006,13.4943062 24.0000006,13.2270717 L24.0000006,12.2602975 C24.003715,6.97141895 20.1583667,2.411483 14.8034043,1.35468217 C9.44844192,0.297881334 4.06509269,3.0365355 1.92850064,7.90449104 L7.50000064,7.90449104 C7.77614301,7.90449104 8.00000064,8.12112745 8.00000064,8.38836201 C8.00000064,8.65559657 7.77614301,8.87223298 7.50000064,8.87223298 L0.500000637,8.87223298 C0.223858262,8.87223298 6.37283812e-07,8.65559657 6.37283811e-07,8.38836201 L6.37283811e-07,1.61416846 C6.37283811e-07,1.3469339 0.223858262,1.13029749 0.500000637,1.13029749 C0.776143012,1.13029749 1.00000064,1.3469339 1.00000064,1.61416846 L1.00000064,7.53307169 C3.32055383,2.23898424 9.17263893,-0.741363651 14.9956858,0.405353943 C20.8187327,1.55207154 25.0018864,6.5086331 25.0000006,12.2593298 L25.0000006,13.2270717 Z M24.5000006,15.6464265 L17.5000006,15.6464265 C17.2238583,15.6464265 17.0000006,15.8630629 17.0000006,16.1302975 C17.0000006,16.397532 17.2238583,16.6141685 17.5000006,16.6141685 L23.0715006,16.6141685 C20.9349815,21.4819558 15.5519127,24.2206115 10.1970875,23.1640725 C4.84226226,22.1075336 0.996762577,17.5480262 1.00000064,12.2593298 L1.00000064,12.2593298 L1.00000064,12.2593298 L1.00000064,11.2915878 C1.00000064,11.0243533 0.776143012,10.8077168 0.500000637,10.8077168 C0.223858262,10.8077168 6.37283812e-07,11.0243533 6.37283812e-07,11.2915878 L6.37283812e-07,12.2578781 L6.37283811e-07,12.2593298 L6.37283811e-07,12.2593298 C-0.00188507603,18.0100264 4.18126859,22.966588 10.0043155,24.1133056 C15.8273623,25.2600232 21.6794474,22.2796753 24.0000006,16.9855878 L24.0000006,22.904491 C24.0000006,23.1717256 24.2238583,23.388362 24.5000006,23.388362 C24.776143,23.388362 25.0000006,23.1717256 25.0000006,22.904491 L25.0000006,16.1302975 C25.0000006,15.8630629 24.776143,15.6464265 24.5000006,15.6464265 Z"/>
</svg>
