<svg xmlns="http://www.w3.org/2000/svg" width="18" height="18" viewBox="0 0 18 18">
    <g fill="#9BA6B2" fill-rule="nonzero">
        <path d="M14.94 5.111l-2.581 2.58a.75.75 0 0 0 1.06 1.062L16.53 5.64a.75.75 0 0 0 0-1.06L13.42 1.47a.75.75 0 0 0-1.061 1.06l2.58 2.581z"/>
        <path d="M2 5.861h14a.75.75 0 1 0 0-1.5H2a.75.75 0 0 0 0 1.5zM5.641 9.53a.75.75 0 0 0-1.06-1.06L1.47 11.58a.75.75 0 0 0 0 1.061l3.11 3.112a.75.75 0 0 0 1.061-1.061l-2.58-2.58L5.64 9.53z"/>
        <path d="M16 11.361H2a.75.75 0 1 0 0 1.5h14a.75.75 0 1 0 0-1.5z"/>
    </g>
</svg>
