<svg xmlns="http://www.w3.org/2000/svg" width="30" height="30" viewBox="0 0 30 30">
  <path fill="#81C926" d="M15,0 C6.71572875,-5.07265313e-16 1.01453063e-15,6.71572875 0,15 C-1.01453063e-15,23.2842712 6.71572875,30 15,30 C23.2842712,30 30,23.2842712 30,15 C30,11.0217527 28.4196474,7.20644396 25.6066017,4.39339828 C22.793556,1.58035261 18.9782473,2.43597394e-16 15,0 Z M15,28.8 C7.37847045,28.8 1.2,22.6215295 1.2,15 C1.2,7.37847045 7.37847045,1.2 15,1.2 C22.6215295,1.2 28.8,7.37847045 28.8,15 C28.7914689,22.6179931 22.6179931,28.7914689 15,28.8 Z M21.4242,16.9758 C21.6584292,17.2100999 21.6584292,17.5899001 21.4242,17.8242 L15.4242,23.8242 C15.1899001,24.0584292 14.8100999,24.0584292 14.5758,23.8242 L8.5758,17.8242 C8.34841667,17.5887727 8.35166858,17.2145491 8.58310885,16.9831089 C8.81454913,16.7516686 9.18877267,16.7484167 9.4242,16.9758 L14.4,21.9516 L14.4,6.6 C14.4,6.26862915 14.6686292,6 15,6 C15.3313708,6 15.6,6.26862915 15.6,6.6 L15.6,21.9516 L20.5758,16.9758 C20.8100999,16.7415708 21.1899001,16.7415708 21.4242,16.9758 Z"/>
</svg>
