<?xml version="1.0" encoding="UTF-8"?>
<svg width="80px" height="80px" viewBox="0 0 80 80" version="1.1" xmlns="http://www.w3.org/2000/svg" xmlns:xlink="http://www.w3.org/1999/xlink">
    <!-- Generator: Sketch 48.2 (47327) - http://www.bohemiancoding.com/sketch -->
    <title>mass_big</title>
    <desc>Created with Sketch.</desc>
    <defs></defs>
    <g id="Desktop" stroke="none" stroke-width="1" fill="none" fill-rule="evenodd" transform="translate(-617.000000, -338.000000)">
        <g id="80_wrp" transform="translate(101.000000, 170.000000)" fill="#FFAF00" fill-rule="nonzero">
            <g id="Budicon-Outline/Arrows/arrow-top-circle" transform="translate(456.000000, 168.000000)">
                <g id="mass_big" transform="translate(60.000000, 0.000000)">
                    <path d="M40,0 C17.90861,-1.3527075e-15 2.705415e-15,17.90861 0,40 C-2.705415e-15,62.09139 17.90861,80 40,80 C62.09139,80 80,62.09139 80,40 C80,29.3913404 75.7857264,19.2171839 68.2842712,11.7157288 C60.7828161,4.21427361 50.6086596,6.49593051e-16 40,0 Z M40,76.8 C19.6759212,76.8 3.2,60.3240788 3.2,40 C3.2,19.6759212 19.6759212,3.2 40,3.2 C60.3240788,3.2 76.8,19.6759212 76.8,40 C76.7772505,60.3146482 60.3146482,76.7772505 40,76.8 Z M48.3010702,23.4684583 C48.9093165,24.0962645 48.9006177,25.094194 48.2815191,25.711368 C47.6624205,26.3285421 46.6613793,26.3372139 46.0316154,25.7308583 L41.7307943,20.4620583 L41.7307943,43.3996583 C41.7307943,44.2833139 41.0122161,44.9996583 40.125805,44.9996583 C39.2393939,44.9996583 38.5208157,44.2833139 38.5208157,43.3996583 L38.5208157,20.4620583 L34.2199946,25.7308583 C33.5902307,26.3372139 32.5891894,26.3285421 31.9700908,25.711368 C31.3509922,25.094194 31.3422935,24.0962645 31.9505398,23.4684583 L38.9910776,15.4684583 C39.6178256,14.8438472 40.6337843,14.8438472 41.2605324,15.4684583 L48.3010702,23.4684583 Z M67.5694743,38.9920966 C67.5556434,39.8661178 66.8438497,40.5656095 65.9696729,40.5642486 C65.0954961,40.5628878 64.3815212,39.8611766 64.364969,38.9871081 L65.0494334,32.2203641 L52.3656348,44.9041627 C51.740796,45.5290016 50.7261525,45.5274221 50.0993652,44.9006348 C49.4725779,44.2738475 49.4709984,43.259204 50.0958373,42.6343652 L62.7796359,29.9505666 L56.0128919,30.635031 C55.1388234,30.6184788 54.4371122,29.9045039 54.4357514,29.0303271 C54.4343905,28.1561503 55.1338822,27.4443566 56.0079034,27.4305257 L66.6431696,26.7520835 C67.5280142,26.7535945 68.2464055,27.4719858 68.2479165,28.3568304 L67.5694743,38.9920966 Z M23.868255,27.306684 C24.7422761,27.320515 25.4417678,28.0323086 25.440407,28.9064854 C25.4390461,29.7806622 24.7373349,30.4946371 23.8632665,30.5111893 L17.0965225,29.8267249 L29.7803211,42.5105235 C30.4051599,43.1353624 30.4035804,44.1500058 29.7767931,44.7767931 C29.1500058,45.4035804 28.1353624,45.4051599 27.5105235,44.7803211 L14.8267249,32.0965225 L15.5111893,38.8632665 C15.4946371,39.7373349 14.7806622,40.4390461 13.9064854,40.440407 C13.0323086,40.4417678 12.320515,39.7422761 12.306684,38.868255 L11.6282418,28.2329887 C11.6297529,27.3481441 12.3481441,26.6297529 13.2329887,26.6282418 L23.868255,27.306684 Z M40,64.5 C35.8578644,64.5 32.5,61.1421356 32.5,57 C32.5,52.8578644 35.8578644,49.5 40,49.5 C44.1421356,49.5 47.5,52.8578644 47.5,57 C47.5,61.1421356 44.1421356,64.5 40,64.5 Z M40,61.5 C42.4852814,61.5 44.5,59.4852814 44.5,57 C44.5,54.5147186 42.4852814,52.5 40,52.5 C37.5147186,52.5 35.5,54.5147186 35.5,57 C35.5,59.4852814 37.5147186,61.5 40,61.5 Z" id="Shape"></path>
                </g>
            </g>
        </g>
    </g>
</svg>