<svg xmlns="http://www.w3.org/2000/svg" width="24" height="23" viewBox="0 0 24 23">
  <path fill="#26C1C9" d="M19.9784306,18.9780806 C21.1591407,17.7973955 21.3414014,15.9470832 20.4137495,14.5587188 C19.4860976,13.1703544 17.7068965,12.6306158 16.1642325,13.269585 C14.6215685,13.9085542 13.7450942,15.5482698 14.0708251,17.1859489 C14.3965561,18.8236281 15.833772,20.0031555 17.5035306,20.0031806 C18.4317936,20.0031945 19.3220425,19.6344547 19.9784306,18.9780806 Z M15.0035306,16.5031806 C15.0035621,15.3104966 15.8460923,14.2839239 17.0158648,14.0512715 C18.1856374,13.8186191 19.3568555,14.4446836 19.813251,15.5465902 C20.2696465,16.6484967 19.8841074,17.9193501 18.8924133,18.5819493 C17.9007192,19.2445486 16.5790697,19.1143512 15.7357306,18.2709806 C15.2654109,17.8031263 15.0017933,17.1665694 15.0036306,16.5031806 L15.0035306,16.5031806 Z M17.1499306,16.8566806 C16.9547063,16.6614048 16.9547341,16.3448463 17.1499927,16.1496049 C17.3452513,15.9543634 17.6618098,15.9543634 17.8570684,16.1496049 C18.052327,16.3448463 18.0523548,16.6614048 17.8571306,16.8566806 C17.661915,17.0516717 17.3456461,17.0516717 17.1504306,16.8566806 L17.1499306,16.8566806 Z M22.0999306,21.0993806 C19.5597876,23.6336073 15.4476735,23.6336073 12.9075306,21.0993806 L2.30043056,10.4927806 C2.17411931,10.3664514 2.12479868,10.1823323 2.17104728,10.009779 C2.21729588,9.83722566 2.35208743,9.70245317 2.52464728,9.65622897 C2.69720713,9.61000478 2.88131931,9.65935144 3.00763056,9.78568055 L13.6144306,20.3922806 C15.7623212,22.5401712 19.2447399,22.5401712 21.3926306,20.3922806 C23.5405212,18.2443899 23.5405212,14.7619712 21.3926306,12.6140806 L15.0287306,6.25008055 C14.8349272,6.05457218 14.8356178,5.73918329 15.0302756,5.54452555 C15.2249333,5.34986781 15.5403222,5.34917719 15.7358306,5.54298055 L22.0998306,11.9069806 C24.6340297,14.4471511 24.633985,18.5592651 22.0997306,21.0993806 L22.0999306,21.0993806 Z M6.51043056,10.2175806 L0.146430562,3.85358055 C-0.0488297117,3.65829267 -0.048807326,3.34169083 0.146480562,3.14643055 C0.341768449,2.95117028 0.658370288,2.95119267 0.853630562,3.14648055 L7.21763056,9.51048055 C7.34395968,9.6367918 7.39330635,9.82090399 7.34708215,9.99346384 C7.30085796,10.1660237 7.16608546,10.3008152 6.99353215,10.3470638 C6.82097884,10.3933124 6.63685967,10.3439918 6.51053056,10.2176806 L6.51043056,10.2175806 Z M13.1464306,12.8535806 L6.07543056,5.78258055 C5.8816272,5.58707218 5.88231782,5.27168329 6.07697556,5.07702555 C6.27163329,4.88236781 6.58702219,4.88167719 6.78253056,5.07548055 L13.8536306,12.1464806 C13.9799418,12.2728097 14.0292624,12.4569288 13.9830139,12.6294821 C13.9367653,12.8020355 13.8019737,12.936808 13.6294138,12.9830321 C13.456854,13.0292563 13.2727418,12.9799097 13.1464306,12.8535806 L13.1464306,12.8535806 Z M5.14643056,0.853580554 C4.9511703,0.658292665 4.95119268,0.341690832 5.14648057,0.146430562 C5.34176845,-0.0488297088 5.65837029,-0.0488073264 5.85363056,0.146480554 L13.6317306,7.92468055 C13.7589655,8.05080586 13.8089962,8.23536586 13.7628803,8.40848328 C13.7167644,8.58160069 13.5815507,8.71681435 13.4084333,8.76293026 C13.2353159,8.80904616 13.0507559,8.75901546 12.9246306,8.63178055 L5.14643056,0.853580554 Z M11.0251306,1.73228055 C10.8298427,1.53702028 10.8298203,1.22041844 11.0250806,1.02513055 C11.2203408,0.829842667 11.5369427,0.829820281 11.7322306,1.02508055 L13.8535306,3.14638055 C14.0487908,3.34166844 14.0487684,3.65827028 13.8534806,3.85353055 C13.6581927,4.04879082 13.3415908,4.04876843 13.1463306,3.85348055 L11.0251306,1.73228055 Z M8.85403056,11.1464806 L10.2682306,12.5606806 C10.4620339,12.7561889 10.4613433,13.0715778 10.2666856,13.2662356 C10.0720278,13.4608933 9.75663893,13.4615839 9.56113056,13.2677806 L8.14683056,11.8535806 C7.9515703,11.6582927 7.95159268,11.3416908 8.14688057,11.1464306 C8.34216845,10.9511703 8.65877029,10.9511927 8.85403056,11.1464806 Z" transform="matrix(1 0 0 -1 0 23)"/>
</svg>
