<?xml version="1.0" encoding="UTF-8"?>
<svg width="30px" height="30px" viewBox="0 0 30 30" version="1.1" xmlns="http://www.w3.org/2000/svg" xmlns:xlink="http://www.w3.org/1999/xlink">
    <!-- Generator: Sketch 49.1 (51147) - http://www.bohemiancoding.com/sketch -->
    <title>transaction-mass-transfer-30</title>
    <desc>Created with Sketch.</desc>
    <defs></defs>
    <g id="Page-1" stroke="none" stroke-width="1" fill="none" fill-rule="evenodd">
        <g id="transaction-mass-transfer-30" fill="#FFAF00">
            <g id="Shape">
                <path d="M15,0 C6.71572875,-5.07265312e-16 1.01453062e-15,6.71572875 0,15 C-1.01453062e-15,23.2842712 6.71572875,30 15,30 C23.2842712,30 30,23.2842712 30,15 C30,11.0217526 28.4196474,7.20644396 25.6066017,4.3933983 C22.793556,1.5803526 18.9782474,2.43597394e-16 15,0 Z M15,28.8 C7.37847045,28.8 1.2,22.6215295 1.2,15 C1.2,7.37847045 7.37847045,1.2 15,1.2 C22.6215295,1.2 28.8,7.37847045 28.8,15 C28.7914689,22.6179931 22.6179931,28.7914689 15,28.8 Z M18.1129013,8.80067186 C18.3409937,9.03609919 18.3377316,9.41032275 18.1055697,9.641763 C17.8734077,9.87320329 17.4980172,9.87645521 17.2618558,9.64907186 L15.6490479,7.67327186 L15.6490479,16.2748719 C15.6490479,16.6062427 15.379581,16.8748719 15.0471769,16.8748719 C14.7147727,16.8748719 14.4453059,16.6062427 14.4453059,16.2748719 L14.4453059,7.67327186 L12.832498,9.64907186 C12.5963365,9.87645521 12.220946,9.87320329 11.9887841,9.641763 C11.7566221,9.41032275 11.7533601,9.03609919 11.9814524,8.80067186 L14.6216541,5.80067186 C14.8566846,5.5664427 15.2376691,5.5664427 15.4726997,5.80067186 L18.1129013,8.80067186 Z M25.3385529,14.6220362 C25.3333663,14.9497942 25.0664436,15.2121036 24.7386273,15.2115932 C24.410811,15.2110829 24.1430704,14.9479412 24.1368634,14.6201655 L24.3935375,12.0826365 L19.637113,16.839061 C19.4027985,17.0733756 19.0223072,17.0727833 18.7872619,16.837738 C18.5522167,16.6026928 18.5516244,16.2222015 18.785939,15.9878869 L23.5423635,11.2314625 L21.0048345,11.4881366 C20.6770588,11.4819295 20.4139171,11.214189 20.4134068,10.8863727 C20.4128964,10.5585564 20.6752058,10.2916337 21.0029638,10.2864471 L24.9911886,10.0320313 C25.3230053,10.0325979 25.5924021,10.3019947 25.5929687,10.6338114 L25.3385529,14.6220362 Z M8.95059563,10.2400065 C9.27835354,10.2451931 9.54066293,10.5121157 9.54015263,10.839932 C9.53964229,11.1677483 9.27650059,11.4354889 8.94872494,11.441696 L6.41119594,11.1850218 L11.1676204,15.9414463 C11.401935,16.1757609 11.4013427,16.5562522 11.1662974,16.7912974 C10.9312522,17.0263426 10.5507609,17.026935 10.3164463,16.7926204 L5.56002184,12.0361959 L5.81669599,14.5737249 C5.81048891,14.9015006 5.54274832,15.1646423 5.21493202,15.1651526 C4.88711572,15.1656629 4.62019312,14.9033535 4.6150065,14.5755956 L4.36059067,10.5873708 C4.36115734,10.255554 4.63055404,9.98615734 4.96237076,9.98559068 L8.95059563,10.2400065 Z M15,24.1875 C13.4466992,24.1875 12.1875,22.9283008 12.1875,21.375 C12.1875,19.8216992 13.4466992,18.5625 15,18.5625 C16.5533009,18.5625 17.8125,19.8216992 17.8125,21.375 C17.8125,22.9283008 16.5533009,24.1875 15,24.1875 Z M15,23.0625 C15.9319805,23.0625 16.6875,22.3069805 16.6875,21.375 C16.6875,20.4430195 15.9319805,19.6875 15,19.6875 C14.0680195,19.6875 13.3125,20.4430195 13.3125,21.375 C13.3125,22.3069805 14.0680195,23.0625 15,23.0625 Z" fill-rule="nonzero"></path>
            </g>
        </g>
    </g>
</svg>