<svg xmlns="http://www.w3.org/2000/svg" width="31" height="30" viewBox="0 0 31 30">
    <path fill="#5A81EA" fill-rule="nonzero" d="M15 30C6.716 30 0 23.284 0 15 0 6.716 6.716 0 15 0a.6.6 0 0 1 .6.6v8.43c3.398.31 6 3.158 6 6.57v1.8a1.2 1.2 0 0 1-1.2 1.2h-1.2v3a.6.6 0 0 1-1.2 0v-3h-6v3a.6.6 0 0 1-1.2 0v-3H9.6a1.2 1.2 0 0 1-1.2-1.2v-1.8a6.598 6.598 0 0 1 6-6.57v-7.8C7.272 1.572 1.59 7.313 1.325 14.444c-.267 7.132 4.97 13.28 12.053 14.153 7.083.872 13.655-3.823 15.127-10.806 1.471-6.983-2.647-13.93-9.48-15.991a.6.6 0 0 1 .35-1.148A15 15 0 0 1 15 30zM9.6 15.6v1.8h10.8v-1.8a5.4 5.4 0 0 0-10.8 0z"/>
</svg>
