<svg xmlns="http://www.w3.org/2000/svg" width="48" height="48" viewBox="0 0 48 48">
  <g fill="#FFAF00" fill-rule="evenodd">
    <rect width="48" height="48" fill-opacity=".1" rx="24"/>
    <path fill-rule="nonzero" d="M12.5,0 C5.59644063,-4.22721094e-16 8.45442189e-16,5.59644063 0,12.5 C-8.45442189e-16,19.4035594 5.59644063,25 12.5,25 C19.4035594,25 25,19.4035594 25,12.5 C25,9.18479388 23.6830395,6.00536997 21.3388348,3.66116524 C18.99463,1.3169605 15.8152061,2.02997828e-16 12.5,0 Z M17.8535,10.8535 C17.6582501,11.048691 17.3417499,11.048691 17.1465,10.8535 L13,6.707 L13,19.5 C13,19.7761424 12.7761424,20 12.5,20 C12.2238576,20 12,19.7761424 12,19.5 L12,6.707 L7.8535,10.8535 C7.65731056,11.0429861 7.34545761,11.0402762 7.15259071,10.8474093 C6.95972381,10.6545424 6.9570139,10.3426894 7.1465,10.1465 L12.1465,5.1465 C12.3417499,4.95130903 12.6582501,4.95130903 12.8535,5.1465 L17.8535,10.1465 C18.048691,10.3417499 18.048691,10.6582501 17.8535,10.8535 Z" transform="translate(12 12)"/>
  </g>
</svg>
