<?xml version="1.0" encoding="UTF-8"?>
<svg width="448px" height="32px" viewBox="0 0 448 32" version="1.1" xmlns="http://www.w3.org/2000/svg" xmlns:xlink="http://www.w3.org/1999/xlink">
    <!-- Generator: Sketch 49.3 (51167) - http://www.bohemiancoding.com/sketch -->
    <title>30px</title>
    <desc>Created with Sketch.</desc>
    <defs></defs>
    <g id="30px" stroke="none" stroke-width="1" fill="none" fill-rule="evenodd">
        <g id="t-alias" transform="translate(1.000000, 1.000000)">
            <rect id="ico-zone" fill-opacity="0" fill="#D8D8D8" x="0" y="0" width="30" height="30"></rect>
            <path d="M15.0009404,4.80000805 C12.0186027,4.80000805 9.60094039,7.2176704 9.60094039,10.2000081 C9.60094039,13.1823457 12.0186027,15.6000081 15.0009404,15.6000081 C17.983278,15.6000081 20.4009404,13.1823457 20.4009404,10.2000081 C20.4009404,7.2176704 17.983278,4.80000805 15.0009404,4.80000805 Z M15.0009404,14.4000081 C12.6813444,14.4000081 10.8009404,12.519604 10.8009404,10.2000081 C10.8009404,7.8804121 12.6813444,6.00000805 15.0009404,6.00000805 C17.3205363,6.00000805 19.2009404,7.8804121 19.2009404,10.2000081 C19.1982952,12.5185074 17.3194398,14.3973629 15.0009404,14.4000081 Z M15.0009404,8.05108552e-06 C8.54641734,-0.00587166973 2.81321914,4.12157515 0.77093429,10.2444809 C-1.27135056,16.3673867 0.836131145,23.110079 6.00178039,26.9800881 C11.3256026,31.0062662 18.6759182,31.0062662 23.9997404,26.9800881 C24.3997404,26.6792081 24.7834604,26.3596881 25.1509004,26.0215281 C29.7028751,21.8418699 31.2220073,15.296411 28.9763026,9.53908294 C26.7305979,3.78175485 21.1807442,-0.00637377813 15.0009404,8.05108552e-06 Z M15.0009404,28.8000081 C11.7530075,28.8016009 8.60964627,27.6518852 6.12922039,25.5550881 C6.83155887,21.2006494 10.5902844,17.9996 15.0010004,17.9996 C19.4117164,17.9996 23.1704419,21.2006494 23.8727804,25.5550881 C21.392323,27.6519118 18.2489146,28.8016292 15.0009404,28.8000081 Z M24.9009404,24.5926881 C23.7968421,20.020166 19.704874,16.7986591 15.0009404,16.7986591 C10.2970068,16.7986591 6.20503869,20.020166 5.10094039,24.5926881 C-0.172115911,19.1627969 -0.0874817207,10.4988636 5.29064267,5.17301916 C10.6687671,-0.152825273 19.3331137,-0.152825273 24.7112381,5.17301916 C30.0893625,10.4988636 30.1739967,19.1627969 24.9009404,24.5926881 Z" id="Shape" fill="#00AEF9" fill-rule="nonzero"></path>
        </g>
        <g id="t-closelease" transform="translate(33.000000, 1.000000)">
            <path d="M14.9985752,0 C6.71509085,-5.07265313e-16 1.01443426e-15,6.71572875 0,15 C-1.01443426e-15,23.2842712 6.71509085,30 14.9985752,30 C15.3299146,30 15.5985182,29.7313708 15.5985182,29.4 L15.5985182,20.96952 C18.9958592,20.6602104 21.597169,17.8117137 21.5979483,14.4 L21.5979483,12.6 C21.5979483,11.9372583 21.060741,11.4 20.3980623,11.4 L19.1981763,11.4 L19.1981763,8.4 C19.1981763,8.06862915 18.9295726,7.8 18.5982333,7.8 C18.2668939,7.8 17.9982903,8.06862915 17.9982903,8.4 L17.9982903,11.4 L11.9988602,11.4 L11.9988602,8.4 C11.9988602,8.06862915 11.7302565,7.8 11.3989172,7.8 C11.0675778,7.8 10.7989742,8.06862915 10.7989742,8.4 L10.7989742,11.4 L9.59908814,11.4 C8.93640939,11.4 8.39920212,11.9372583 8.39920212,12.6 L8.39920212,14.4 C8.39998144,17.8117137 11.0012913,20.6602104 14.3986322,20.96952 L14.3986322,28.76952 C7.27097202,28.4280271 1.59078024,22.6870536 1.32452423,15.5555107 C1.05826823,8.42396783 6.29456238,2.27535016 13.3769122,1.40322601 C20.459262,0.531101861 27.0305451,5.22572849 28.5020467,12.2088568 C29.9735483,19.1919852 25.8555285,26.1395154 19.0235929,28.2 C18.8184704,28.2623786 18.6622049,28.4294607 18.61366,28.638308 C18.5651151,28.8471554 18.6316659,29.0660392 18.7882434,29.212508 C18.9448209,29.3589768 19.1676373,29.4107786 19.3727597,29.3484 C26.4800771,27.182062 30.9302306,20.1381563 29.8348234,12.788569 C28.7394161,5.43898162 22.4286553,-0.000776412666 14.9985752,0 Z M9.59908814,14.4 L9.59908814,12.6 L20.3980623,12.6 L20.3980623,14.4 C20.3980623,17.3823376 17.9806296,19.8 14.9985752,19.8 C12.0165208,19.8 9.59908814,17.3823376 9.59908814,14.4 Z" id="Shape" fill="#EF4829" fill-rule="nonzero"></path>
            <path d="M24.0918831,5 L5,24.0918831" id="Line" stroke="#EF4829" stroke-width="1.3" stroke-linecap="square"></path>
        </g>
        <g id="t-exchange" transform="translate(65.000000, 1.000000)">
            <rect id="Rectangle-2" fill-opacity="0" fill="#D8D8D8" x="0" y="0" width="30" height="30"></rect>
            <path d="M15,0 C6.71572875,-5.07265313e-16 1.01453063e-15,6.71572875 0,15 C-1.01453063e-15,23.2842712 6.71572875,30 15,30 C23.2842712,30 30,23.2842712 30,15 C30,11.0217527 28.4196474,7.20644396 25.6066017,4.39339828 C22.793556,1.58035261 18.9782473,2.43597394e-16 15,0 Z M15,28.8 C7.37847045,28.8 1.2,22.6215295 1.2,15 C1.2,7.37847045 7.37847045,1.2 15,1.2 C22.6215295,1.2 28.8,7.37847045 28.8,15 C28.7914689,22.6179931 22.6179931,28.7914689 15,28.8 Z M19.2,18.6 C19.2,18.9313708 18.9313708,19.2 18.6,19.2 L6.8484,19.2 L9.4242,21.7758 C9.58017395,21.9264447 9.64272756,22.1495267 9.58781829,22.3593044 C9.53290903,22.5690821 9.36908205,22.732909 9.15930439,22.7878183 C8.94952674,22.8427276 8.72644468,22.780174 8.5758,22.6242 L4.9758,19.0242 C4.74157084,18.7899001 4.74157084,18.4100999 4.9758,18.1758 L8.5758,14.5758 C8.81122733,14.3484167 9.18545087,14.3516686 9.41689115,14.5831089 C9.64833142,14.8145491 9.65158333,15.1887727 9.4242,15.4242 L6.8484,18 L18.6,18 C18.9313708,18 19.2,18.2686292 19.2,18.6 Z M25.2,11.4 C25.2001777,11.559159 25.136909,11.7118243 25.0242,11.8242 L21.4242,15.4242 C21.1887727,15.6515833 20.8145491,15.6483314 20.5831089,15.4168911 C20.3516686,15.1854509 20.3484167,14.8112273 20.5758,14.5758 L23.1516,12 L11.4,12 C11.0686292,12 10.8,11.7313708 10.8,11.4 C10.8,11.0686292 11.0686292,10.8 11.4,10.8 L23.1516,10.8 L20.5758,8.2242 C20.3484167,7.98877267 20.3516686,7.61454913 20.5831089,7.38310885 C20.8145491,7.15166858 21.1887727,7.14841667 21.4242,7.3758 L25.0242,10.9758 C25.136909,11.0881757 25.2001777,11.240841 25.2,11.4 Z" id="Shape" fill="#AB7DF6" fill-rule="nonzero"></path>
        </g>
        <g id="t-receive" transform="translate(97.000000, 1.000000)">
            <rect id="Rectangle-3" fill-opacity="0" fill="#D8D8D8" x="0" y="0" width="30" height="30"></rect>
            <path d="M15,0 C6.71572875,-5.07265313e-16 1.01453063e-15,6.71572875 0,15 C-1.01453063e-15,23.2842712 6.71572875,30 15,30 C23.2842712,30 30,23.2842712 30,15 C30,11.0217527 28.4196474,7.20644396 25.6066017,4.39339828 C22.793556,1.58035261 18.9782473,2.43597394e-16 15,0 Z M15,28.8 C7.37847045,28.8 1.2,22.6215295 1.2,15 C1.2,7.37847045 7.37847045,1.2 15,1.2 C22.6215295,1.2 28.8,7.37847045 28.8,15 C28.7914689,22.6179931 22.6179931,28.7914689 15,28.8 Z M21.4242,16.9758 C21.6584292,17.2100999 21.6584292,17.5899001 21.4242,17.8242 L15.4242,23.8242 C15.1899001,24.0584292 14.8100999,24.0584292 14.5758,23.8242 L8.5758,17.8242 C8.34841667,17.5887727 8.35166858,17.2145491 8.58310885,16.9831089 C8.81454913,16.7516686 9.18877267,16.7484167 9.4242,16.9758 L14.4,21.9516 L14.4,6.6 C14.4,6.26862915 14.6686292,6 15,6 C15.3313708,6 15.6,6.26862915 15.6,6.6 L15.6,21.9516 L20.5758,16.9758 C20.8100999,16.7415708 21.1899001,16.7415708 21.4242,16.9758 Z" id="Shape" fill="#81C926" fill-rule="nonzero"></path>
        </g>
        <g id="t-selftrans" transform="translate(129.000000, 1.000000)">
            <rect id="Rectangle-4" fill-opacity="0" fill="#D8D8D8" x="0" y="0" width="30" height="30"></rect>
            <path d="M8.75,15 C8.75,18.44625 11.55375,21.25 15,21.25 C18.44625,21.25 21.25,18.44625 21.25,15 C21.25,11.55375 18.44625,8.75 15,8.75 C11.55375,8.75 8.75,11.55375 8.75,15 Z M20,15 C20,17.7575 17.7575,20 15,20 C12.2425,20 10,17.7575 10,15 C10,12.2425 12.2425,10 15,10 C17.7575,10 20,12.2425 20,15 Z M23.75,10.625 C23.75,10.97 24.03,11.25 24.375,11.25 L29.375,11.25 C29.72,11.25 30,10.97 30,10.625 L30,5.6775 C30,5.3325 29.72,5.0525 29.375,5.0525 C29.03,5.0525 28.75,5.3325 28.75,5.6775 L28.75,9.365 C25.41875,3.2375 20.685,0 15,0 C6.72875,0 0,6.72875 0,15 C0,23.27125 6.72875,30 15,30 C23.27125,30 30,23.27125 30,15 C30,14.655 29.72,14.375 29.375,14.375 C29.03,14.375 28.75,14.655 28.75,15 C28.75,22.58125 22.58125,28.75 15,28.75 C7.41875,28.75 1.25,22.58125 1.25,15 C1.25,7.41875 7.41875,1.25 15,1.25 C21.4575,1.25 25.41125,5.8225 27.67875,10 L24.375,10 C24.03,10 23.75,10.28 23.75,10.625 Z" id="Shape" stroke="#EF4829" stroke-width="0.1" fill="#EF4829" fill-rule="nonzero"></path>
        </g>
        <g id="t-send" transform="translate(161.000000, 1.000000)">
            <rect id="Rectangle-5" fill-opacity="0" fill="#D8D8D8" x="0" y="0" width="30" height="30"></rect>
            <path d="M15,0 C6.71572875,-5.07265313e-16 1.01453063e-15,6.71572875 0,15 C-1.01453063e-15,23.2842712 6.71572875,30 15,30 C23.2842712,30 30,23.2842712 30,15 C30,11.0217527 28.4196474,7.20644396 25.6066017,4.39339828 C22.793556,1.58035261 18.9782473,2.43597394e-16 15,0 Z M15,28.8 C7.37847045,28.8 1.2,22.6215295 1.2,15 C1.2,7.37847045 7.37847045,1.2 15,1.2 C22.6215295,1.2 28.8,7.37847045 28.8,15 C28.7914689,22.6179931 22.6179931,28.7914689 15,28.8 Z M21.4242,12.1758 C21.6515833,12.4112273 21.6483314,12.7854509 21.4168911,13.0168911 C21.1854509,13.2483314 20.8112273,13.2515833 20.5758,13.0242 L15.6,8.0484 L15.6,23.4 C15.6,23.7313708 15.3313708,24 15,24 C14.6686292,24 14.4,23.7313708 14.4,23.4 L14.4,8.0484 L9.4242,13.0242 C9.18877267,13.2515833 8.81454913,13.2483314 8.58310885,13.0168911 C8.35166858,12.7854509 8.34841667,12.4112273 8.5758,12.1758 L14.5758,6.1758 C14.8100999,5.94157084 15.1899001,5.94157084 15.4242,6.1758 L21.4242,12.1758 Z" id="Shape" fill="#FFAF00" fill-rule="nonzero"></path>
        </g>
        <g id="t-startlease" transform="translate(193.000000, 1.000000)">
            <rect id="Rectangle-6" fill-opacity="0" fill="#D8D8D8" x="0" y="0" width="30" height="30"></rect>
            <path d="M15,0 C6.71572875,-5.07265313e-16 1.01453063e-15,6.71572875 0,15 C-1.01453063e-15,23.2842712 6.71572875,30 15,30 C15.3313708,30 15.6,29.7313708 15.6,29.4 L15.6,20.96952 C18.9976637,20.6602104 21.5992206,17.8117137 21.6,14.4 L21.6,12.6 C21.6,11.9372583 21.0627417,11.4 20.4,11.4 L19.2,11.4 L19.2,8.4 C19.2,8.06862915 18.9313708,7.8 18.6,7.8 C18.2686292,7.8 18,8.06862915 18,8.4 L18,11.4 L12,11.4 L12,8.4 C12,8.06862915 11.7313708,7.8 11.4,7.8 C11.0686292,7.8 10.8,8.06862915 10.8,8.4 L10.8,11.4 L9.6,11.4 C8.9372583,11.4 8.4,11.9372583 8.4,12.6 L8.4,14.4 C8.40077939,17.8117137 11.0023363,20.6602104 14.4,20.96952 L14.4,28.76952 C7.27166273,28.4280271 1.59093135,22.6870536 1.32465006,15.5555107 C1.05836876,8.42396783 6.29516033,2.27535016 13.3781829,1.40322601 C20.4612055,0.531101861 27.0331129,5.22572849 28.5047543,12.2088568 C29.9763956,19.1919852 25.8579846,26.1395154 19.0254,28.2 C18.8202581,28.2623786 18.6639777,28.4294607 18.6154282,28.638308 C18.5668787,28.8471554 18.6334358,29.0660392 18.7900282,29.212508 C18.9466206,29.3589768 19.1694581,29.4107786 19.3746,29.3484 C26.4825926,27.182062 30.9331688,20.1381563 29.8376575,12.788569 C28.7421462,5.43898162 22.4307859,-0.000776412666 15,0 Z M9.6,14.4 L9.6,12.6 L20.4,12.6 L20.4,14.4 C20.4,17.3823376 17.9823376,19.8 15,19.8 C12.0176624,19.8 9.6,17.3823376 9.6,14.4 Z" id="Shape" fill="#81C926" fill-rule="nonzero"></path>
        </g>
        <g id="t-tokenburn" transform="translate(225.000000, 1.000000)">
            <rect id="Rectangle-7" fill-opacity="0" fill="#D8D8D8" x="0" y="0" width="30" height="30"></rect>
            <g id="burn" transform="translate(4.500000, 0.000000)" fill="#FFAF00" fill-rule="nonzero" stroke="#FFAF00" stroke-width="0.1">
                <path d="M7.32291119,24.8796059 C7.32281724,24.8796823 7.32228011,24.8802093 7.32133992,24.8811599 C7.32127406,24.8809313 7.32209741,24.880268 7.32291119,24.8796059 Z M6.6715992,25.835641 C6.63136182,25.9700491 6.44059511,26.430624 6.44032805,26.4313221 C6.36540877,26.6271798 6.31264399,26.8070797 6.27606329,27.0099819 L6.17756468,27.5563243 L5.10937111,27.3548103 L5.20786973,26.8084679 C5.25800176,26.5304005 5.3302364,26.2841187 5.42880052,26.0264475 C5.44821332,25.9756977 5.61219772,25.5797842 5.63299988,25.5102972 C5.69700332,25.2965017 5.90266027,24.9506503 6.15577128,24.592526 C6.26986898,24.4310903 6.38118571,24.2866365 6.4753895,24.1796682 C6.53566548,24.1112249 6.59078939,24.0555611 6.64671999,24.0100506 C6.69505095,23.9707239 6.74449625,23.9378943 6.80474228,23.9109198 C6.95012539,23.845826 7.11535715,23.8284346 7.29559038,23.923052 C7.43737267,23.9974838 7.49778301,24.0782147 7.56987101,24.2095958 C7.59753667,24.2600168 7.62453503,24.3172846 7.65637599,24.3904952 C7.68351298,24.4528901 7.79342354,24.7191405 7.81975248,24.7805823 C7.8926791,24.9507656 7.95066789,25.0676302 7.99293752,25.1296413 C8.02226572,25.1568428 8.13866564,25.2149223 8.28038349,25.2712487 C8.21991866,24.9990676 8.19972177,24.8727774 8.19972177,24.7191931 L8.19972177,23.3230252 C8.19972177,22.7165759 8.35511971,21.8755697 8.6209809,21.4231326 C8.65959237,21.3574243 8.6950403,21.284391 8.74563857,21.1683807 C9.04449337,20.4831743 9.16729047,20.257688 9.58050975,19.7786425 C10.3993356,18.8293768 11.0745538,18.1513129 11.4075149,18.1513129 C11.5979014,18.1513129 11.7451505,18.2416854 11.8428977,18.3670136 C11.8883458,18.4252857 11.9164396,18.4816663 11.9379115,18.541537 C11.9584709,18.5988634 11.9707754,18.6544242 11.9809615,18.7199206 C11.9932512,18.7989431 12.0024652,18.8953938 12.0127622,19.0375216 C12.0181597,19.1120227 12.0394219,19.4387519 12.0451598,19.5209081 C12.0599922,19.7332843 12.0749551,19.9126751 12.0932669,20.086787 C12.1030114,20.1794388 12.1116758,20.2695634 12.1211125,20.374336 C12.1251429,20.4190847 12.13938,20.5811936 12.1427007,20.6179677 C12.1645819,20.8602809 12.1816297,20.992589 12.209818,21.1221136 C12.2411777,21.2662106 12.2875197,21.4038958 12.3621576,21.5675105 C12.4895915,21.84686 12.7153903,22.155169 13.0716139,22.5579369 C13.1326325,22.6269281 13.1955243,22.6966969 13.2789086,22.7882274 C13.2554093,22.7624324 13.4372798,22.9617279 13.4831159,23.0123549 C13.5995589,23.1409691 13.684431,23.2326343 13.9675105,23.5367586 C14.4427772,24.0473812 14.6434763,24.2695369 14.7827966,24.450391 C14.773857,24.4387864 14.8799548,24.5760639 14.9111003,24.6168236 C14.9646073,24.6868477 15.0105235,24.7484324 15.0549782,24.8103035 C15.2853785,25.1309692 15.4529668,25.4289884 15.5674726,25.7607972 C15.6938209,26.1269224 15.7833677,26.6067586 15.8414584,27.207354 L15.8949317,27.7602101 L14.8140026,27.8696089 L14.7605292,27.3167527 C14.7103057,26.7974961 14.6360847,26.3997824 14.5432115,26.1306597 C14.4694104,25.9168028 14.3521587,25.7082963 14.1797432,25.4683324 C14.1423733,25.4163219 14.1026987,25.3631085 14.0553059,25.3010861 C14.0263442,25.2631842 13.9224049,25.1286996 13.9296436,25.1380964 C13.8213225,24.9974827 13.6236945,24.7787266 13.1874059,24.3099814 C12.8936628,23.9944007 12.8074759,23.9013155 12.6861789,23.7673399 C12.6420551,23.718604 12.4622525,23.5215746 12.4842582,23.5457301 C12.3975473,23.450548 12.3313594,23.3771228 12.2661348,23.3033759 C11.8426697,22.824581 11.562364,22.4418472 11.3778453,22.0373614 C11.2704229,21.8018797 11.1983669,21.5877959 11.1495661,21.3635575 C11.1089144,21.1767644 11.0869043,21.0059438 11.0610984,20.7201677 C11.057614,20.6815816 11.0433616,20.5192981 11.0394866,20.4762744 C11.0305205,20.3767265 11.0223766,20.2920167 11.0132921,20.2056393 C11.0017175,20.0955867 10.9914588,19.9845994 10.9818135,19.8667833 C10.7813614,20.0780186 10.577144,20.3026049 10.3949836,20.5137837 C10.0743356,20.8855113 9.99441888,21.0322583 9.73759699,21.6210928 C9.67057962,21.7747484 9.61779677,21.8834968 9.55194646,21.9955596 C9.40767917,22.2410707 9.28592867,22.8999786 9.28592867,23.3230252 L9.28592867,24.7191931 C9.28592867,24.769745 9.30703997,24.8832276 9.36403715,25.1335493 C9.42278313,25.3915451 9.44464724,25.4981515 9.46032968,25.6291545 C9.50172724,25.9749678 9.4717963,26.2134063 9.18420706,26.40863 C8.77583095,26.6858471 7.69374353,26.3310754 7.28285301,25.9738624 C7.21483853,25.9147331 7.1567727,25.8455909 7.10194297,25.7651537 C7.03685046,25.6696606 6.97689963,25.5598148 6.91305506,25.4239761 C6.78477414,25.6189181 6.68450707,25.792524 6.6715992,25.835641 Z M8.7726626,25.4118494 C8.77400428,25.4119702 8.77470847,25.412023 8.77471741,25.4120227 C8.77467085,25.4120245 8.77398592,25.4119667 8.7726626,25.4118494 Z M7.9925941,25.1326741 C7.9910166,25.1313357 7.98893195,25.1295224 7.98627415,25.1272118 C7.98687174,25.1277314 7.98750058,25.1282624 7.98816017,25.1288046 L7.9925941,25.1326741 Z" id="Line-2"></path>
                <path d="M16.995288,12.1412154 C16.9957671,12.1403302 16.9962528,12.139433 16.9967453,12.1385234 C16.9953644,12.1410739 16.9938894,12.143763 16.9923222,12.1465866 L16.995288,12.1412154 Z M16.9608449,12.3336227 C16.9640977,12.1945044 16.9640977,12.1945044 17.1033254,11.9560257 C17.3709998,11.7681246 17.3709998,11.7681246 17.5848952,11.7792673 C17.7971132,11.8488579 17.7971132,11.8488579 17.8494084,11.894488 C17.8904665,11.9265801 17.9239909,11.9598805 17.9643812,12.0042761 C18.0164412,12.0614988 18.0859088,12.1452081 18.1767602,12.2594934 C18.3485351,12.4755754 18.602828,12.8089179 18.9580804,13.2853068 C19.4455109,14.0147433 19.824191,14.8167652 20.0938118,15.689642 C20.285593,16.3105193 20.3759234,16.6464388 20.4398953,16.9932429 C20.4809309,17.2157043 20.5101609,17.4394854 20.5404776,17.7497406 C20.5511497,17.8589559 20.5620897,17.9796604 20.5762838,18.1431175 C20.5834636,18.2257989 20.6114717,18.5529481 20.6174409,18.6221187 C20.7057526,19.6454636 20.6619544,20.2953039 20.4970345,21.3358573 C20.4718166,21.494286 20.4599216,21.5694828 20.4479288,21.6478285 C20.4395509,21.7025586 20.4320793,21.7528139 20.4251829,21.8010131 C20.3107824,22.6005647 19.8224444,23.8808189 19.3569352,24.7639118 C19.0061501,25.4293675 18.1781432,26.3892037 17.3699144,27.1277728 C16.9728555,27.49061 16.4005965,27.9042913 15.7780157,28.2691765 C15.0592964,28.690407 14.3089825,29.028494 13.5847587,29.2387029 C12.1838003,29.6453368 11.0648182,29.7422351 9.74086003,29.6276519 C8.43725389,29.51483 7.30982917,29.2252742 6.26092555,28.681825 C5.3055219,28.1868191 4.18428197,27.2478106 3.33431981,26.3558471 C2.69440103,25.6843064 2.38937825,25.2831562 1.89770846,24.4441727 C1.39066139,23.5789495 0.932251961,22.5773959 0.696853312,21.8263307 C0.4965248,21.1871606 0.340323613,19.8665377 0.340323613,19.2432545 C0.340323613,18.5247621 0.382557815,17.4937761 0.460901722,17.0022525 C0.568897669,16.3246943 0.966227079,15.1599824 1.3860569,14.3433723 C1.75938424,13.6172141 2.32800393,12.7788637 2.85406345,12.1085399 C2.87924847,12.0764483 2.90445256,12.044763 2.92981105,12.0133093 C2.98389124,11.9462302 3.03881496,11.8800267 3.09623303,11.8126312 C3.22414191,11.6624957 3.35718118,11.5142864 3.56659902,11.2867956 C3.62593535,11.2223386 3.86126305,10.9676169 3.85683552,10.9724138 C3.98617633,10.8322818 4.09393563,10.7150304 4.2079695,10.5901312 C4.30078258,10.4886139 4.38366397,10.3990711 4.47141674,10.3052229 C4.60392718,10.163508 4.73991036,10.0200291 4.91323803,9.8385453 C4.91555795,9.83611622 5.23137847,9.50596993 5.31244118,9.4207623 C5.58751537,9.13162315 5.74053473,8.96332037 5.80671543,8.87579026 C5.82057337,8.85746185 5.89178252,8.76370041 5.91338989,8.73515711 C5.96316894,8.66939922 6.00767584,8.61013581 6.05292359,8.54918681 C6.17240653,8.38824267 6.28278851,8.23462167 6.38636898,8.08355189 C6.46212203,7.97306774 6.53211872,7.8669627 6.59567381,7.76583156 C6.73176105,7.54928463 6.83429598,7.36172578 6.89556308,7.21533959 C6.93841246,7.11295904 6.98625447,7.00059444 7.05282143,6.84556015 C7.05753615,6.83457963 7.18650316,6.53471796 7.22452015,6.44594811 C7.24184041,6.40548585 7.24184041,6.40548585 7.25911367,6.36504381 C7.48848501,5.82767281 7.62487396,5.48484011 7.6888405,5.27252844 C7.83808584,4.77716759 7.9463534,4.16322252 8.03662154,3.18852569 C8.05675069,2.97117546 8.07300451,2.72664014 8.08561841,2.45997726 C8.11415839,1.85663177 8.12154033,1.23494166 8.11770518,0.667112785 C8.11708695,0.587822948 8.11708695,0.587822948 8.11685077,0.554470485 C8.18182651,0.216703368 8.18182651,0.216703368 8.51953287,0.0164218946 C8.74194474,-0.00540338144 8.74194474,-0.00540338144 8.82410184,0.0221173096 C8.92103281,0.0608936774 8.92103281,0.0608936774 8.95689918,0.0833047756 C8.98836768,0.102550247 9.01915397,0.124487631 9.05578695,0.15249716 C9.11058757,0.194397622 9.18352781,0.254210112 9.27156264,0.329181288 C9.45254621,0.483308411 9.68752872,0.693132559 9.93240349,0.920110841 C10.5502808,1.49283108 11.1233278,2.07143808 11.512664,2.53353941 C12.4067731,3.59475318 12.7456807,4.07818637 13.2153289,4.98402148 C13.64986,5.82212426 14.1681042,7.27956652 14.4048038,8.22811896 C14.5820245,8.93831481 14.6754614,10.2962596 14.6754614,11.5294054 C14.6754614,12.0834783 14.6000363,12.989691 14.4811461,13.6934204 C14.4469175,13.896025 14.4072117,14.1011012 14.3616626,14.3148328 C14.3337072,14.4460087 14.3044499,14.5763846 14.2710018,14.7202937 C14.2654391,14.7442273 14.2562009,14.7835841 14.2459801,14.8270082 C14.3770196,14.7901388 14.5151745,14.7411385 14.6393953,14.686233 C15.1377826,14.4659461 15.3581375,14.3011239 15.8199247,13.7678943 C16.0582224,13.49273 16.3563813,13.0984128 16.6306105,12.7028566 C16.7476809,12.5339909 16.8513149,12.3776711 16.9244274,12.2602573 C16.9541757,12.2124836 16.9774144,12.1734474 16.9923222,12.1465866 C16.960921,12.2047172 16.9608449,12.2066379 16.9608449,12.3336227 Z M9.17055597,2.51367819 C9.1571857,2.79633078 9.13982623,3.05750004 9.11798681,3.29331749 C9.02121994,4.33818622 8.9001898,5.02450315 8.72686782,5.59977696 C8.64636331,5.86697985 8.50133677,6.23152433 8.25456917,6.80965119 C8.23700484,6.85077481 8.23700484,6.85077481 8.2194433,6.89180067 C8.18101975,6.98151989 8.05174407,7.28209919 8.04733096,7.29237733 C7.9820105,7.44450852 7.93534307,7.55411441 7.89410558,7.65264363 C7.80525777,7.86492874 7.67535944,8.10254119 7.50937023,8.36666922 C7.4374642,8.4810887 7.35939526,8.59943015 7.27565298,8.72156641 C7.16342278,8.88525163 7.04517233,9.04982337 6.91796671,9.22117 C6.87044071,9.28518774 6.82392828,9.34712167 6.77220984,9.41544152 C6.74982717,9.44500889 6.67888102,9.53842415 6.66592399,9.555561 C6.56419329,9.69010922 6.3989541,9.87185233 6.09087794,10.1956809 C6.00858405,10.2821826 5.69157243,10.6135741 5.69020251,10.6150085 C5.51932333,10.7939286 5.38578853,10.9348241 5.25636847,11.073234 C5.17129537,11.1642164 5.09117099,11.2507805 5.01487205,11.334226 C4.88626421,11.4750772 4.77722193,11.5937246 4.64663636,11.7352052 C4.65043595,11.7310886 4.41593456,11.9849158 4.35738338,12.04852 C4.15675097,12.2664671 4.03185133,12.4056087 3.91510984,12.5426363 C3.8640575,12.6025599 3.81550271,12.6610865 3.76780541,12.7202485 C3.74548389,12.7479353 3.72329384,12.7758314 3.70109971,12.804112 C3.21491282,13.4236286 2.68292303,14.2079733 2.34742573,14.8605484 C1.980062,15.5751069 1.62130105,16.626761 1.53295267,17.1810519 C1.46704639,17.5945428 1.42653051,18.5835825 1.42653051,19.2432545 C1.42653051,19.7607026 1.56982837,20.9722327 1.73120097,21.4871097 C1.93961395,22.1520742 2.36302641,23.0771648 2.82934232,23.8728846 C3.27674154,24.6363249 3.52991286,24.9692827 4.11213763,25.5802784 C4.8859184,26.392296 5.92428867,27.2619034 6.75172347,27.690607 C7.66462099,28.16359 8.65879285,28.4189225 9.83243267,28.5204963 C11.029796,28.6241233 12.0176881,28.5385767 13.2882545,28.1697896 C13.9209566,27.9861453 14.59158,27.6839663 15.2380266,27.3050937 C15.7976458,26.9771094 16.3084442,26.6078574 16.6462704,26.2991478 C17.3687222,25.6389629 18.1217619,24.7660296 18.4008647,24.2365584 C18.8114971,23.4575696 19.2577907,22.2875414 19.3504266,21.6401037 C19.3578818,21.5879989 19.3658896,21.5341375 19.3747982,21.4759399 C19.387291,21.3943277 19.3996929,21.3159263 19.4248276,21.1580386 C19.5765455,20.2007833 19.6145645,19.636689 19.5354416,18.7198228 C19.529416,18.6499985 19.5014441,18.3232713 19.494337,18.2414283 C19.480466,18.0816914 19.4698578,17.9646483 19.4596567,17.8602521 C19.4322135,17.5794049 19.4069073,17.3856636 19.3725237,17.1992635 C19.3184732,16.9062454 19.2378116,16.606282 19.0580773,16.024406 C18.8202261,15.2543808 18.4880866,14.5509291 18.0783386,13.9363421 C17.8793774,13.6702669 17.7104159,13.4466699 17.5717659,13.2659298 C17.2943196,13.6829512 16.93962,14.150597 16.6329814,14.5046751 C16.0667073,15.1585567 15.7163491,15.4206195 15.0702373,15.7062004 C14.7592864,15.8436405 14.3956595,15.9517968 14.0974281,15.9906737 C13.5207057,16.0658543 13.047183,15.9379825 13.047183,15.3014684 C13.047183,15.1544003 13.2988508,14.0853501 13.3003811,14.0781692 C13.3427497,13.8793616 13.3794398,13.6898614 13.4108048,13.5042069 C13.5190981,12.8632018 13.5892545,12.0202914 13.5892545,11.5294054 C13.5892545,10.3842724 13.500716,9.0975177 13.3523436,8.50292848 C13.1355195,7.63402541 12.6459943,6.25734881 12.2557278,5.50462148 C11.8285809,4.68076085 11.5350749,4.2620907 10.6898717,3.25892298 C10.33522,2.83798855 9.79067464,2.28815976 9.20304301,1.74347468 C9.19124101,1.99532626 9.18276667,2.25553943 9.17055597,2.51367819 Z M18.0469569,12.3379823 C18.0454658,12.4042324 18.0085172,12.5080603 17.9454445,12.6371894 C18.0429548,12.468813 18.0444118,12.454432 18.0469569,12.3379823 Z M18.0470518,12.3336227 C18.0470518,12.3350227 18.0470351,12.3364404 18.0470019,12.3378756 C18.0469883,12.3365449 18.0470199,12.3350918 18.0470518,12.3336227 Z" id="Line"></path>
            </g>
        </g>
        <g id="t-tokengen" transform="translate(257.000000, 1.000000)">
            <rect id="Rectangle-8" fill-opacity="0" fill="#D8D8D8" x="0" y="0" width="30" height="30"></rect>
            <path d="M23.3104744,22.8031709 C24.5403577,21.5711544 24.7302091,19.640398 23.7639231,18.1916732 C22.7976372,16.7429483 20.9443375,16.179744 19.337426,16.846493 C17.7305146,17.513242 16.8175376,19.2242458 17.1568343,20.9331246 C17.496131,22.6420035 18.9932028,23.872812 20.732502,23.8728381 C21.6994245,23.8728526 22.6267497,23.4880815 23.3104744,22.8031709 Z M18.1283842,20.2206722 C18.1284171,18.9761352 19.0060362,17.9049313 20.2245264,17.6621641 C21.4430166,17.4193969 22.6630125,18.0726802 23.1384156,19.2224932 C23.6138186,20.3723062 23.2122229,21.6984111 22.1792276,22.3898175 C21.1462323,23.0812239 19.76954,22.945366 18.8910782,22.065329 C18.4011711,21.5771344 18.1265746,20.9129026 18.1284884,20.2206722 L18.1283842,20.2206722 Z M20.3641756,20.589541 C20.1608208,20.3857754 20.1608498,20.0554542 20.3642403,19.8517245 C20.5676309,19.6479947 20.8973731,19.6479947 21.1007637,19.8517245 C21.3041542,20.0554542 21.3041832,20.3857754 21.1008284,20.589541 C20.8974827,20.7930095 20.5680421,20.7930095 20.3646964,20.589541 L20.3641756,20.589541 Z M25.5203288,25.0166965 C22.8743962,27.6611012 18.5910245,27.6611012 15.9450919,25.0166965 L4.89623684,13.9489643 C4.76466509,13.8171429 4.7132904,13.625019 4.76146512,13.4449638 C4.80963984,13.2649085 4.95004507,13.1242767 5.12979154,13.0760428 C5.309538,13.027809 5.50131793,13.0793011 5.63288968,13.2111224 L16.6814322,24.2788546 C18.9187763,26.5201268 22.5462277,26.5201268 24.7835718,24.2788546 C27.0209158,22.0375824 27.0209158,18.4037621 24.7835718,16.1624899 L18.1546337,9.52180883 C17.952759,9.31780054 17.9534784,8.98869981 18.1562431,8.78557914 C18.3590077,8.58245847 18.6875317,8.58173782 18.8911824,8.78396698 L25.5202246,15.424648 C28.1599658,18.0752549 28.1599192,22.3661471 25.5201204,25.0166965 L25.5203288,25.0166965 Z M9.28157117,13.6617997 L2.65252897,7.02111868 C2.44913667,6.81734047 2.44915999,6.48697406 2.65258105,6.28322466 C2.85600212,6.07947525 3.18578951,6.07949861 3.38918181,6.28327683 L10.018224,12.9239579 C10.1498144,13.0557606 10.2012162,13.2478773 10.1530669,13.4279393 C10.1049176,13.6080014 9.96453219,13.7486531 9.78479254,13.7969124 C9.60505288,13.8451717 9.41326569,13.7937068 9.28167533,13.6619041 L9.28157117,13.6617997 Z M16.1939414,16.4124024 L8.82845467,9.03398382 C8.62657996,8.82997553 8.62729935,8.5008748 8.83006401,8.29775413 C9.03282868,8.09463346 9.36135261,8.09391281 9.56500334,8.29614196 L16.9305942,15.6745605 C17.062166,15.8063819 17.1135407,15.9985058 17.0653659,16.178561 C17.0171912,16.3586163 16.876786,16.4992481 16.6970395,16.547482 C16.5172931,16.5957158 16.3255131,16.5442238 16.1939414,16.4124024 Z M7.86076451,3.89069079 C7.65737222,3.68691257 7.65739554,3.35654617 7.8608166,3.15279677 C8.06423766,2.94904737 8.39402505,2.94907073 8.59741735,3.15284894 L16.6994527,11.2692137 C16.8319866,11.4008224 16.8841009,11.5934063 16.8360644,11.7740502 C16.7880279,11.9546941 16.647183,12.0957863 16.4668558,12.1439071 C16.2865285,12.1920279 16.0942821,12.1398221 15.962904,12.0070555 L7.86076451,3.89069079 Z M13.9842954,4.80759312 C13.7808743,4.60384372 13.780851,4.27347731 13.9842433,4.06969909 C14.1876356,3.86592088 14.517423,3.86589752 14.720844,4.06964692 L16.93049,6.28317248 C17.1338823,6.4869507 17.133859,6.8173171 16.930438,7.0210665 C16.7270169,7.2248159 16.3972295,7.22479254 16.1938372,7.02101434 L13.9842954,4.80759312 Z M11.7227753,14.6310845 L13.1958727,16.1067682 C13.3977474,16.3107765 13.397028,16.6398773 13.1942633,16.8429979 C12.9914987,17.0461186 12.6629747,17.0468393 12.459324,16.8446101 L10.9861225,15.3689264 C10.7827302,15.1651482 10.7827535,14.8347818 10.9861746,14.6310324 C11.1895956,14.427283 11.519383,14.4273063 11.7227753,14.6310845 Z" id="Shape" stroke="#26C1C9" stroke-width="0.2" fill="#26C1C9" fill-rule="nonzero" transform="translate(15.000000, 15.000000) scale(1, -1) translate(-15.000000, -15.000000) "></path>
        </g>
        <g id="t-tokenreis" transform="translate(289.000000, 1.000000)">
            <rect id="Rectangle-9" fill-opacity="0" fill="#D8D8D8" x="0" y="0" width="30" height="30"></rect>
            <path d="M27.5000006,14.9980395 L27.5000006,14.9990073 L27.5000006,15.9657815 C27.5000006,16.233016 27.276143,16.4496524 27.0000006,16.4496524 C26.7238583,16.4496524 26.5000006,16.233016 26.5000006,15.9657815 L26.5000006,14.9990073 C26.503715,9.71012872 22.6583667,5.15019278 17.3034043,4.09339194 C11.9484419,3.03659111 6.56509269,5.77524528 4.42850064,10.6432008 L10.0000006,10.6432008 C10.276143,10.6432008 10.5000006,10.8598372 10.5000006,11.1270718 C10.5000006,11.3943063 10.276143,11.6109428 10.0000006,11.6109428 L3.00000064,11.6109428 C2.72385826,11.6109428 2.50000064,11.3943063 2.50000064,11.1270718 L2.50000064,4.35287823 C2.50000064,4.08564368 2.72385826,3.86900727 3.00000064,3.86900727 C3.27614301,3.86900727 3.50000064,4.08564368 3.50000064,4.35287823 L3.50000064,10.2717815 C5.82055383,4.97769401 11.6726389,1.99734612 17.4956858,3.14406372 C23.3187327,4.29078131 27.5018864,9.24734287 27.5000006,14.9980395 Z M27.0000006,18.3851363 L20.0000006,18.3851363 C19.7238583,18.3851363 19.5000006,18.6017727 19.5000006,18.8690073 C19.5000006,19.1362418 19.7238583,19.3528782 20.0000006,19.3528782 L25.5715006,19.3528782 C23.4349815,24.2206656 18.0519127,26.9593213 12.6970875,25.9027823 C7.34226226,24.8462433 3.49676258,20.286736 3.50000064,14.9980395 L3.50000064,14.0302976 C3.50000064,13.763063 3.27614301,13.5464266 3.00000064,13.5464266 C2.72385826,13.5464266 2.50000064,13.763063 2.50000064,14.0302976 L2.50000064,14.9965879 L2.50000064,14.9980395 C2.49811492,20.7487362 6.68126859,25.7052977 12.5043155,26.8520153 C18.3273623,27.9987329 24.1794474,25.018385 26.5000006,19.7242976 L26.5000006,25.6432008 C26.5000006,25.9104354 26.7238583,26.1270718 27.0000006,26.1270718 C27.276143,26.1270718 27.5000006,25.9104354 27.5000006,25.6432008 L27.5000006,18.8690073 C27.5000006,18.6017727 27.276143,18.3851363 27.0000006,18.3851363 Z" id="Shape" stroke="#81C926" stroke-width="0.4" fill="#81C926" fill-rule="nonzero"></path>
        </g>
        <g id="t-incominglease" transform="translate(321.000000, 1.000000)">
            <rect id="Rectangle-10" fill-opacity="0" fill="#D8D8D8" x="0" y="0" width="30" height="30"></rect>
            <path d="M15,0 C6.71572875,-5.07265313e-16 1.01453063e-15,6.71572875 0,15 C-1.01453063e-15,23.2842712 6.71572875,30 15,30 C15.3313708,30 15.6,29.7313708 15.6,29.4 L15.6,20.96952 C18.9976637,20.6602104 21.5992206,17.8117137 21.6,14.4 L21.6,12.6 C21.6,11.9372583 21.0627417,11.4 20.4,11.4 L19.2,11.4 L19.2,8.4 C19.2,8.06862915 18.9313708,7.8 18.6,7.8 C18.2686292,7.8 18,8.06862915 18,8.4 L18,11.4 L12,11.4 L12,8.4 C12,8.06862915 11.7313708,7.8 11.4,7.8 C11.0686292,7.8 10.8,8.06862915 10.8,8.4 L10.8,11.4 L9.6,11.4 C8.9372583,11.4 8.4,11.9372583 8.4,12.6 L8.4,14.4 C8.40077939,17.8117137 11.0023363,20.6602104 14.4,20.96952 L14.4,28.76952 C7.27166273,28.4280271 1.59093135,22.6870536 1.32465006,15.5555107 C1.05836876,8.42396783 6.29516033,2.27535016 13.3781829,1.40322601 C20.4612055,0.531101861 27.0331129,5.22572849 28.5047543,12.2088568 C29.9763956,19.1919852 25.8579846,26.1395154 19.0254,28.2 C18.8202581,28.2623786 18.6639777,28.4294607 18.6154282,28.638308 C18.5668787,28.8471554 18.6334358,29.0660392 18.7900282,29.212508 C18.9466206,29.3589768 19.1694581,29.4107786 19.3746,29.3484 C26.4825926,27.182062 30.9331688,20.1381563 29.8376575,12.788569 C28.7421462,5.43898162 22.4307859,-0.000776412666 15,0 Z M9.6,14.4 L9.6,12.6 L20.4,12.6 L20.4,14.4 C20.4,17.3823376 17.9823376,19.8 15,19.8 C12.0176624,19.8 9.6,17.3823376 9.6,14.4 Z" id="Shape" fill="#5A81EA" fill-rule="nonzero" transform="translate(15.001425, 15.000000) scale(1, -1) translate(-15.001425, -15.000000) "></path>
        </g>
        <g id="t-undefined" transform="translate(353.000000, 1.000000)">
            <rect id="Rectangle" fill-opacity="0" fill="#D8D8D8" x="0" y="0" width="30" height="30"></rect>
            <path d="M15,0 C6.71572875,-5.07265313e-16 1.01453063e-15,6.71572875 0,15 C-1.01453063e-15,23.2842712 6.71572875,30 15,30 C23.2842712,30 30,23.2842712 30,15 C30,11.0217527 28.4196474,7.20644396 25.6066017,4.39339828 C22.793556,1.58035261 18.9782473,2.43597394e-16 15,0 Z M15,28.8 C7.37847045,28.8 1.2,22.6215295 1.2,15 C1.2,7.37847045 7.37847045,1.2 15,1.2 C22.6215295,1.2 28.8,7.37847045 28.8,15 C28.7914689,22.6179931 22.6179931,28.7914689 15,28.8 Z M14.912263,22 C15.376903,22 15.686663,22.3814381 15.686663,22.8391638 C15.686663,23.2206019 15.376903,23.6020401 14.912263,23.6020401 C14.447623,23.6020401 14.060423,23.2206019 14.060423,22.8391638 C14.060423,22.3814381 14.447623,22 14.912263,22 Z M11.3323263,11.6875 C11.3323263,12 11.0785498,12.3125 10.6978852,12.3125 C10.3172205,12.3125 10,12 10,11.6875 C10,10.375 10.5075529,9.1875 11.3957704,8.375 C12.2839879,7.5 13.4259819,7 14.7583082,7 C16.0271903,7 17.2326284,7.5 18.1208459,8.375 C18.9456193,9.1875 19.5166163,10.375 19.5166163,11.6875 C19.5166163,13.5625 18.4380665,14.625 17.3595166,15.75 C16.407855,16.6875 15.3927492,17.625 15.3927492,19.25 C15.3927492,19.625 15.1389728,19.9375 14.7583082,19.9375 C14.3776435,19.9375 14.060423,19.625 14.060423,19.25 C14.060423,17.125 15.2024169,15.9375 16.3444109,14.8125 C17.2326284,13.875 18.1208459,13 18.1208459,11.6875 C18.1208459,10.75 17.7401813,9.875 17.1691843,9.3125 C16.5347432,8.6875 15.7099698,8.3125 14.7583082,8.3125 C13.8066465,8.3125 12.9818731,8.6875 12.347432,9.3125 C11.7129909,9.875 11.3323263,10.75 11.3323263,11.6875 Z" id="Shape" fill="#999999" fill-rule="nonzero"></path>
        </g>
        <g id="mass-transfer" transform="translate(385.000000, 1.000000)">
            <rect id="ico-zone" fill-opacity="0" fill="#D8D8D8" x="0" y="0" width="30" height="30"></rect>
            <g id="mass_small" fill="#FFAF00" fill-rule="nonzero">
                <path d="M15,0 C6.71572875,-5.07265313e-16 1.01453063e-15,6.71572875 0,15 C-1.01453063e-15,23.2842712 6.71572875,30 15,30 C23.2842712,30 30,23.2842712 30,15 C30,11.0217527 28.4196474,7.20644396 25.6066017,4.39339828 C22.793556,1.58035261 18.9782473,2.43597394e-16 15,0 Z M15,28.8 C7.37847045,28.8 1.2,22.6215295 1.2,15 C1.2,7.37847045 7.37847045,1.2 15,1.2 C22.6215295,1.2 28.8,7.37847045 28.8,15 C28.7914689,22.6179931 22.6179931,28.7914689 15,28.8 Z M18.1129013,8.80067187 C18.3409937,9.0360992 18.3377317,9.41032274 18.1055697,9.64176302 C17.8734077,9.8732033 17.4980172,9.8764552 17.2618558,9.64907187 L15.6490478,7.67327187 L15.6490478,16.2748719 C15.6490478,16.6062427 15.379581,16.8748719 15.0471769,16.8748719 C14.7147727,16.8748719 14.4453059,16.6062427 14.4453059,16.2748719 L14.4453059,7.67327187 L12.832498,9.64907187 C12.5963365,9.8764552 12.220946,9.8732033 11.9887841,9.64176302 C11.7566221,9.41032274 11.75336,9.0360992 11.9814524,8.80067187 L14.6216541,5.80067187 C14.8566846,5.56644271 15.2376691,5.56644271 15.4726996,5.80067187 L18.1129013,8.80067187 Z M25.3385529,14.6220362 C25.3333663,14.9497942 25.0664436,15.2121036 24.7386273,15.2115932 C24.410811,15.2110829 24.1430705,14.9479412 24.1368634,14.6201655 L24.3935375,12.0826366 L19.6371131,16.839061 C19.4027985,17.0733756 19.0223072,17.0727833 18.7872619,16.8377381 C18.5522167,16.6026928 18.5516244,16.2222015 18.785939,15.9878869 L23.5423634,11.2314625 L21.0048345,11.4881366 C20.6770588,11.4819295 20.4139171,11.214189 20.4134068,10.8863727 C20.4128964,10.5585564 20.6752058,10.2916337 21.0029638,10.2864471 L24.9911886,10.0320313 C25.3230053,10.032598 25.592402,10.3019947 25.5929687,10.6338114 L25.3385529,14.6220362 Z M8.95059561,10.2400065 C9.27835354,10.2451931 9.54066293,10.5121157 9.54015261,10.839932 C9.53964229,11.1677483 9.27650059,11.4354889 8.94872492,11.441696 L6.41119593,11.1850218 L11.1676204,15.9414463 C11.401935,16.1757609 11.4013427,16.5562522 11.1662974,16.7912974 C10.9312522,17.0263427 10.5507609,17.026935 10.3164463,16.7926204 L5.56002183,12.0361959 L5.81669599,14.5737249 C5.81048891,14.9015006 5.54274832,15.1646423 5.21493202,15.1651526 C4.88711573,15.1656629 4.62019312,14.9033535 4.61500652,14.5755956 L4.36059068,10.5873708 C4.36115733,10.2555541 4.63055406,9.98615733 4.96237076,9.98559068 L8.95059561,10.2400065 Z M15,24.1875 C13.4466991,24.1875 12.1875,22.9283009 12.1875,21.375 C12.1875,19.8216991 13.4466991,18.5625 15,18.5625 C16.5533009,18.5625 17.8125,19.8216991 17.8125,21.375 C17.8125,22.9283009 16.5533009,24.1875 15,24.1875 Z M15,23.0625 C15.9319805,23.0625 16.6875,22.3069805 16.6875,21.375 C16.6875,20.4430195 15.9319805,19.6875 15,19.6875 C14.0680195,19.6875 13.3125,20.4430195 13.3125,21.375 C13.3125,22.3069805 14.0680195,23.0625 15,23.0625 Z" id="Shape"></path>
            </g>
        </g>
        <g id="t-massrecive" transform="translate(417.000000, 1.000000)">
            <rect id="ico-zone" fill-opacity="0" fill="#D8D8D8" x="0" y="0" width="30" height="30"></rect>
            <path d="M15,0 C6.71572875,-5.07265313e-16 1.01453063e-15,6.71572875 0,15 C-1.01453063e-15,23.2842712 6.71572875,30 15,30 C23.2842712,30 30,23.2842712 30,15 C30,11.0217527 28.4196474,7.20644396 25.6066017,4.39339828 C22.793556,1.58035261 18.9782473,2.43597394e-16 15,0 Z M15,28.8 C7.37847045,28.8 1.2,22.6215295 1.2,15 C1.2,7.37847045 7.37847045,1.2 15,1.2 C22.6215295,1.2 28.8,7.37847045 28.8,15 C28.7914689,22.6179931 22.6179931,28.7914689 15,28.8 Z M18.1129013,8.80067187 C18.3409937,9.0360992 18.3377317,9.41032274 18.1055697,9.64176302 C17.8734077,9.8732033 17.4980172,9.8764552 17.2618558,9.64907187 L15.6490478,7.67327187 L15.6490478,16.2748719 C15.6490478,16.6062427 15.379581,16.8748719 15.0471769,16.8748719 C14.7147727,16.8748719 14.4453059,16.6062427 14.4453059,16.2748719 L14.4453059,7.67327187 L12.832498,9.64907187 C12.5963365,9.8764552 12.220946,9.8732033 11.9887841,9.64176302 C11.7566221,9.41032274 11.75336,9.0360992 11.9814524,8.80067187 L14.6216541,5.80067187 C14.8566846,5.56644271 15.2376691,5.56644271 15.4726996,5.80067187 L18.1129013,8.80067187 Z M25.3385529,14.6220362 C25.3333663,14.9497942 25.0664436,15.2121036 24.7386273,15.2115932 C24.410811,15.2110829 24.1430705,14.9479412 24.1368634,14.6201655 L24.3935375,12.0826366 L19.6371131,16.839061 C19.4027985,17.0733756 19.0223072,17.0727833 18.7872619,16.8377381 C18.5522167,16.6026928 18.5516244,16.2222015 18.785939,15.9878869 L23.5423634,11.2314625 L21.0048345,11.4881366 C20.6770588,11.4819295 20.4139171,11.214189 20.4134068,10.8863727 C20.4128964,10.5585564 20.6752058,10.2916337 21.0029638,10.2864471 L24.9911886,10.0320313 C25.3230053,10.032598 25.592402,10.3019947 25.5929687,10.6338114 L25.3385529,14.6220362 Z M8.95059561,10.2400065 C9.27835354,10.2451931 9.54066293,10.5121157 9.54015261,10.839932 C9.53964229,11.1677483 9.27650059,11.4354889 8.94872492,11.441696 L6.41119593,11.1850218 L11.1676204,15.9414463 C11.401935,16.1757609 11.4013427,16.5562522 11.1662974,16.7912974 C10.9312522,17.0263427 10.5507609,17.026935 10.3164463,16.7926204 L5.56002183,12.0361959 L5.81669599,14.5737249 C5.81048891,14.9015006 5.54274832,15.1646423 5.21493202,15.1651526 C4.88711573,15.1656629 4.62019312,14.9033535 4.61500652,14.5755956 L4.36059068,10.5873708 C4.36115733,10.2555541 4.63055406,9.98615733 4.96237076,9.98559068 L8.95059561,10.2400065 Z M15,24.1875 C13.4466991,24.1875 12.1875,22.9283009 12.1875,21.375 C12.1875,19.8216991 13.4466991,18.5625 15,18.5625 C16.5533009,18.5625 17.8125,19.8216991 17.8125,21.375 C17.8125,22.9283009 16.5533009,24.1875 15,24.1875 Z M15,23.0625 C15.9319805,23.0625 16.6875,22.3069805 16.6875,21.375 C16.6875,20.4430195 15.9319805,19.6875 15,19.6875 C14.0680195,19.6875 13.3125,20.4430195 13.3125,21.375 C13.3125,22.3069805 14.0680195,23.0625 15,23.0625 Z" id="Shape" fill="#81C926" fill-rule="nonzero" transform="translate(15.000000, 15.000000) rotate(180.000000) translate(-15.000000, -15.000000) "></path>
        </g>
    </g>
</svg>