<svg xmlns="http://www.w3.org/2000/svg" width="48" height="48" viewBox="0 0 48 48">
  <g fill="#AB7DF6" fill-rule="evenodd">
    <rect width="48" height="48" fill-opacity=".1" rx="24"/>
    <path fill-rule="nonzero" d="M12.5,0 C5.59644063,-4.22721094e-16 8.45442189e-16,5.59644063 0,12.5 C-8.45442189e-16,19.4035594 5.59644063,25 12.5,25 C19.4035594,25 25,19.4035594 25,12.5 C25,9.18479388 23.6830395,6.00536997 21.3388348,3.66116524 C18.99463,1.3169605 15.8152061,2.02997828e-16 12.5,0 Z M15.5,16 L5.707,16 L7.8535,18.1465 C7.98347829,18.2720372 8.0356063,18.4579389 7.98984858,18.6327537 C7.94409086,18.8075684 7.80756838,18.9440909 7.63275366,18.9898486 C7.45793895,19.0356063 7.27203724,18.9834783 7.1465,18.8535 L4.1465,15.8535 C3.95130903,15.6582501 3.95130903,15.3417499 4.1465,15.1465 L7.1465,12.1465 C7.34268944,11.9570139 7.65454239,11.9597238 7.84740929,12.1525907 C8.04027619,12.3454576 8.0429861,12.6573106 7.8535,12.8535 L5.707,15 L15.5,15 C15.7761424,15 16,15.2238576 16,15.5 C16,15.7761424 15.7761424,16 15.5,16 Z M20.8535,9.8535 L17.8535,12.8535 C17.6573106,13.0429861 17.3454576,13.0402762 17.1525907,12.8474093 C16.9597238,12.6545424 16.9570139,12.3426894 17.1465,12.1465 L19.293,10 L9.5,10 C9.22385763,10 9,9.77614237 9,9.5 C9,9.22385763 9.22385763,9 9.5,9 L19.293,9 L17.1465,6.8535 C16.9570139,6.65731056 16.9597238,6.34545761 17.1525907,6.15259071 C17.3454576,5.95972381 17.6573106,5.9570139 17.8535,6.1465 L20.8535,9.1465 C21.048691,9.34174993 21.048691,9.65825007 20.8535,9.8535 L20.8535,9.8535 Z" transform="translate(12 12)"/>
  </g>
</svg>
