<?xml version="1.0" encoding="UTF-8"?>
<svg width="660px" height="60px" viewBox="0 0 660 60" version="1.1" xmlns="http://www.w3.org/2000/svg" xmlns:xlink="http://www.w3.org/1999/xlink">
    <!-- Generator: Sketch 53.2 (72643) - https://sketchapp.com -->
    <title>icons-30</title>
    <desc>Created with Sketch.</desc>
    <g id="icons-30" stroke="none" stroke-width="1" fill="none" fill-rule="evenodd" transform="translate(0.000000, 0.000000)">
        <g id="Shape-2" transform="translate(-0.001060, 0.000000)" fill="#00AEF9" fill-rule="nonzero">
            <path d="M15.0010603,4.8 C12.0187227,4.8 9.60106035,7.21766235 9.60106035,10.2 C9.60106035,13.1823376 12.0187227,15.6 15.0010603,15.6 C17.9833979,15.6 20.4010603,13.1823376 20.4010603,10.2 C20.4010603,8.76783095 19.8321334,7.39431983 18.8194369,6.38162338 C17.8067405,5.36892694 16.4332293,4.8 15.0010603,4.8 Z M15.0010603,14.4 C12.6814644,14.4 10.8010603,12.5195959 10.8010603,10.2 C10.8010603,7.88040405 12.6814644,6 15.0010603,6 C17.3206562,6 19.2010603,7.88040405 19.2010603,10.2 C19.2010603,11.3139093 18.7585616,12.3821957 17.9709088,13.1698485 C17.183256,13.9575013 16.1149696,14.4 15.0010603,14.4 Z M15.0010603,0 C8.47467916,0 2.69726149,4.21991721 0.711937019,10.4370016 C-1.27338745,16.654086 0.989050539,23.4413999 6.30756074,27.2238727 C11.6260709,31.0063456 18.7799554,30.9158287 24.0010603,27 C24.4010603,26.7 24.7810603,26.38 25.1510603,26 C29.669587,21.8109621 31.1668009,15.2848003 28.9261023,9.54507977 C26.6854037,3.80535925 21.1626132,0.0196991346 15.0010603,0 Z M15.0010603,28.8 C11.7547678,28.800129 8.61296418,27.6525028 6.13106035,25.56 C6.87324107,21.2408396 10.6185976,18.0841719 15.0010603,18.0841719 C19.383523,18.0841719 23.1288796,21.2408396 23.8710603,25.56 C21.3891565,27.6525028 18.2473528,28.800129 15.0010603,28.8 L15.0010603,28.8 Z M24.9010603,24.59 C23.7882253,20.0256704 19.6990925,16.8137316 15.0010603,16.8137316 C10.3030281,16.8137316 6.21389535,20.0256704 5.10106035,24.59 C-0.171995948,19.1601088 -0.0873617583,10.4961755 5.29076264,5.17033111 C10.668887,-0.155513325 19.3332336,-0.155513325 24.711358,5.17033111 C30.0894824,10.4961755 30.1741166,19.1601088 24.9010603,24.59 L24.9010603,24.59 Z" id="Shape"></path>
        </g>
        <g id="Group" transform="translate(30.000000, 0.000000)">
            <path d="M15,0 C6.71572875,0 -1.77635684e-15,6.71572875 -1.77635684e-15,15 C-1.77635684e-15,23.2842712 6.71572875,30 15,30 C15.3313708,30 15.6,29.7313708 15.6,29.4 L15.6,21 C18.9974418,20.6898577 21.5986195,17.8415682 21.6,14.43 L21.6,12.6 C21.6,11.9372583 21.0627417,11.4 20.4,11.4 L19.2,11.4 L19.2,8.4 C19.2,8.06862915 18.9313708,7.8 18.6,7.8 C18.2686292,7.8 18,8.06862915 18,8.4 L18,11.4 L12,11.4 L12,8.4 C12,8.06862915 11.7313708,7.8 11.4,7.8 C11.0686292,7.8 10.8,8.06862915 10.8,8.4 L10.8,11.4 L9.6,11.4 C8.9372583,11.4 8.4,11.9372583 8.4,12.6 L8.4,14.4 C8.40138052,17.8115682 11.0025582,20.6598577 14.4,20.97 L14.4,28.77 C7.27004644,28.4403592 1.57979995,22.7063681 1.30477081,15.5740992 C1.02974168,8.44183026 6.26152781,2.28667197 13.3449238,1.40894681 C20.4283199,0.531221651 27.0042145,5.22325429 28.4783362,12.20694 C29.952458,19.1906257 25.8338535,26.1400614 19,28.2 C18.7955048,28.2644215 18.6398442,28.4314719 18.59,28.64 C18.5443501,28.8484911 18.6128912,29.0655379 18.77,29.21 C18.9237522,29.3581887 19.1455771,29.4117327 19.35,29.35 C26.4562891,27.1870427 30.9092131,20.148749 29.8201709,12.8008435 C28.7311287,5.45293794 22.4281661,0.0087876608 15,0 Z M9.6,14.4 L9.6,12.6 L20.4,12.6 L20.4,14.4 C20.4,17.3823376 17.9823376,19.8 15,19.8 C12.0176624,19.8 9.6,17.3823376 9.6,14.4 L9.6,14.4 Z" id="Shape-2" fill="#EF4829" fill-rule="nonzero"></path>
            <path d="M24.09,5.05 L5,24.14" id="Line" stroke="#EF4829" stroke-width="1.3" stroke-linecap="square"></path>
            <rect id="Rectangle" fill-opacity="0" fill="#D8D8D8" x="0" y="0" width="30" height="30"></rect>
        </g>
        <g id="Group-10" transform="translate(60.000000, 0.000000)" fill="#AB7DF6" fill-rule="nonzero">
            <path d="M19.1946848,18.6000015 C19.1946848,18.9313723 18.9260556,19.2000015 18.5946848,19.2000015 L6.84468477,19.2000015 L9.41468477,21.7800015 C9.57169965,21.9285924 9.63664194,22.1501602 9.58468477,22.3600015 C9.52631299,22.5686118 9.3632951,22.7316297 9.15468477,22.7900015 C8.94484346,22.8419587 8.72327565,22.7770164 8.57468477,22.6200015 L4.99468477,19.0000015 C4.87974046,18.8905307 4.81468477,18.7387341 4.81468477,18.5800015 C4.81468477,18.4212689 4.87974046,18.2694723 4.99468477,18.1600015 L8.59468477,14.5600015 C8.82664437,14.3280419 9.20272516,14.3280419 9.43468474,14.5600015 C9.66664433,14.7919611 9.66664434,15.1680419 9.43468477,15.4000015 L6.84468477,18.0000015 L18.5946848,18.0000015 C18.7538147,18.0000015 18.906427,18.0632156 19.0189489,18.1757374 C19.1314707,18.2882593 19.1946848,18.4408716 19.1946848,18.6000015 Z M25.1946848,11.4000015 C25.1971302,11.5592263 25.131672,11.7119621 25.0146848,11.8200015 L21.4146848,15.4200015 C21.1827252,15.6519611 20.8066444,15.6519611 20.5746848,15.4200015 C20.3427252,15.1880419 20.3427252,14.8119611 20.5746848,14.5800015 L23.1446848,12.0000015 L11.3946848,12.0000015 C11.063314,12.0000015 10.7946848,11.7313723 10.7946848,11.4000015 C10.7946848,11.0686307 11.063314,10.8000015 11.3946848,10.8000015 L23.1446848,10.8000015 L20.5746848,8.22000154 C20.3427252,7.98804195 20.3427252,7.61196113 20.5746848,7.38000154 C20.8066444,7.14804195 21.1827252,7.14804195 21.4146848,7.38000154 L24.9946848,11.0000015 C25.1140085,11.099774 25.1864611,11.244679 25.1946848,11.4000015 L25.1946848,11.4000015 Z" id="Shape-3"></path>
            <path d="M15,30 C6.71572875,30 0,23.2842712 0,15 C0,6.71572875 6.71572875,0 15,0 C23.2842712,0 30,6.71572875 30,15 C30,18.9782473 28.4196474,22.793556 25.6066017,25.6066017 C22.793556,28.4196474 18.9782473,30 15,30 Z M15,28.87 C20.6148457,28.8699985 25.6766288,25.4871621 27.8244018,20.2993338 C29.9721749,15.1115054 28.782827,9.14068615 24.8111011,5.17182171 C20.8393752,1.20295726 14.8677002,0.0179129879 9.6814212,2.16942443 C4.49514216,4.32093588 1.11595472,9.3851558 1.12,15 C1.12552004,22.6618068 7.33819122,28.870002 15,28.87 Z" id="Oval-2"></path>
        </g>
        <g id="Group-10" transform="translate(60.000000, 30.000000)" fill="#999999" fill-rule="nonzero">
            <path d="M19.1946848,18.6000015 C19.1946848,18.9313723 18.9260556,19.2000015 18.5946848,19.2000015 L6.84468477,19.2000015 L9.41468477,21.7800015 C9.57169965,21.9285924 9.63664194,22.1501602 9.58468477,22.3600015 C9.52631299,22.5686118 9.3632951,22.7316297 9.15468477,22.7900015 C8.94484346,22.8419587 8.72327565,22.7770164 8.57468477,22.6200015 L4.99468477,19.0000015 C4.87974046,18.8905307 4.81468477,18.7387341 4.81468477,18.5800015 C4.81468477,18.4212689 4.87974046,18.2694723 4.99468477,18.1600015 L8.59468477,14.5600015 C8.82664437,14.3280419 9.20272516,14.3280419 9.43468474,14.5600015 C9.66664433,14.7919611 9.66664434,15.1680419 9.43468477,15.4000015 L6.84468477,18.0000015 L18.5946848,18.0000015 C18.7538147,18.0000015 18.906427,18.0632156 19.0189489,18.1757374 C19.1314707,18.2882593 19.1946848,18.4408716 19.1946848,18.6000015 Z M25.1946848,11.4000015 C25.1971302,11.5592263 25.131672,11.7119621 25.0146848,11.8200015 L21.4146848,15.4200015 C21.1827252,15.6519611 20.8066444,15.6519611 20.5746848,15.4200015 C20.3427252,15.1880419 20.3427252,14.8119611 20.5746848,14.5800015 L23.1446848,12.0000015 L11.3946848,12.0000015 C11.063314,12.0000015 10.7946848,11.7313723 10.7946848,11.4000015 C10.7946848,11.0686307 11.063314,10.8000015 11.3946848,10.8000015 L23.1446848,10.8000015 L20.5746848,8.22000154 C20.3427252,7.98804195 20.3427252,7.61196113 20.5746848,7.38000154 C20.8066444,7.14804195 21.1827252,7.14804195 21.4146848,7.38000154 L24.9946848,11.0000015 C25.1140085,11.099774 25.1864611,11.244679 25.1946848,11.4000015 L25.1946848,11.4000015 Z" id="Shape-3"></path>
            <path d="M15,30 C6.71572875,30 0,23.2842712 0,15 C0,6.71572875 6.71572875,0 15,0 C23.2842712,0 30,6.71572875 30,15 C30,18.9782473 28.4196474,22.793556 25.6066017,25.6066017 C22.793556,28.4196474 18.9782473,30 15,30 Z M15,28.87 C20.6148457,28.8699985 25.6766288,25.4871621 27.8244018,20.2993338 C29.9721749,15.1115054 28.782827,9.14068615 24.8111011,5.17182171 C20.8393752,1.20295726 14.8677002,0.0179129879 9.6814212,2.16942443 C4.49514216,4.32093588 1.11595472,9.3851558 1.12,15 C1.12552004,22.6618068 7.33819122,28.870002 15,28.87 Z" id="Oval-2"></path>
        </g>
        <g id="Group-11" transform="translate(90.000000, 0.000000)" fill="#81C926" fill-rule="nonzero">
            <path d="M21.4134472,16.9991281 C21.5283848,17.1085933 21.5934368,17.2603821 21.5934368,17.4191065 C21.5934368,17.577831 21.5283848,17.7296198 21.4134472,17.8390849 L15.4137939,23.8387767 C15.3043295,23.9537151 15.1525416,24.0187674 14.9938182,24.0187674 C14.8350948,24.0187674 14.683307,23.9537151 14.5738425,23.8387767 L8.57418923,17.8390849 C8.42414632,17.6890412 8.36554789,17.4703474 8.42046738,17.2653837 C8.47538689,17.0604201 8.63548075,16.9003251 8.84044314,16.8454053 C9.04540554,16.7904854 9.26409781,16.8490842 9.41414068,16.9991281 L14.4138517,21.9988712 L14.4138517,6.59966244 C14.4138517,6.26830862 14.6824654,5.99969327 15.0138171,5.99969327 C15.3451687,5.99969327 15.6137824,6.26830862 15.6137824,6.59966244 L15.6137824,21.9988712 L20.6134934,16.9991281 C20.8374805,16.7858058 21.1894601,16.7858058 21.4134472,16.9991281 Z" id="Shape-4"></path>
            <path d="M15,30 C6.71572875,30 0,23.2842712 0,15 C0,6.71572875 6.71572875,0 15,0 C23.2842712,0 30,6.71572875 30,15 C30,18.9782473 28.4196474,22.793556 25.6066017,25.6066017 C22.793556,28.4196474 18.9782473,30 15,30 Z M15,28.87 C20.6148457,28.8699985 25.6766288,25.4871621 27.8244018,20.2993338 C29.9721749,15.1115054 28.782827,9.14068615 24.8111011,5.17182171 C20.8393752,1.20295726 14.8677002,0.0179129879 9.6814212,2.16942443 C4.49514216,4.32093588 1.11595472,9.3851558 1.12,15 C1.12552004,22.6618068 7.33819122,28.870002 15,28.87 Z" id="Oval-2"></path>
        </g>
        <g id="Group-11" transform="translate(90.000000, 30.000000)" fill="#999999" fill-rule="nonzero">
            <path d="M21.4134472,16.9991281 C21.5283848,17.1085933 21.5934368,17.2603821 21.5934368,17.4191065 C21.5934368,17.577831 21.5283848,17.7296198 21.4134472,17.8390849 L15.4137939,23.8387767 C15.3043295,23.9537151 15.1525416,24.0187674 14.9938182,24.0187674 C14.8350948,24.0187674 14.683307,23.9537151 14.5738425,23.8387767 L8.57418923,17.8390849 C8.42414632,17.6890412 8.36554789,17.4703474 8.42046738,17.2653837 C8.47538689,17.0604201 8.63548075,16.9003251 8.84044314,16.8454053 C9.04540554,16.7904854 9.26409781,16.8490842 9.41414068,16.9991281 L14.4138517,21.9988712 L14.4138517,6.59966244 C14.4138517,6.26830862 14.6824654,5.99969327 15.0138171,5.99969327 C15.3451687,5.99969327 15.6137824,6.26830862 15.6137824,6.59966244 L15.6137824,21.9988712 L20.6134934,16.9991281 C20.8374805,16.7858058 21.1894601,16.7858058 21.4134472,16.9991281 Z" id="Shape-4"></path>
            <path d="M15,30 C6.71572875,30 0,23.2842712 0,15 C0,6.71572875 6.71572875,0 15,0 C23.2842712,0 30,6.71572875 30,15 C30,18.9782473 28.4196474,22.793556 25.6066017,25.6066017 C22.793556,28.4196474 18.9782473,30 15,30 Z M15,28.87 C20.6148457,28.8699985 25.6766288,25.4871621 27.8244018,20.2993338 C29.9721749,15.1115054 28.782827,9.14068615 24.8111011,5.17182171 C20.8393752,1.20295726 14.8677002,0.0179129879 9.6814212,2.16942443 C4.49514216,4.32093588 1.11595472,9.3851558 1.12,15 C1.12552004,22.6618068 7.33819122,28.870002 15,28.87 Z" id="Oval-2"></path>
        </g>
        <g id="Shape-6-2" transform="translate(120.000000, 0.000000)" fill="#EF4829" fill-rule="nonzero">
            <path d="M8.74853754,15 C8.74853754,18.4517797 11.5462902,21.25 14.9974929,21.25 C18.4486957,21.25 21.2464483,18.4517797 21.2464483,15 C21.2464483,11.5482203 18.4486957,8.75 14.9974929,8.75 C11.5462902,8.75 8.74853754,11.5482203 8.74853754,15 Z M19.9966572,15 C19.9966572,17.7614237 17.7584551,20 14.9974929,20 C12.2365308,20 9.99832862,17.7614237 9.99832862,15 C9.99832862,12.2385763 12.2365308,10 14.9974929,10 C17.7584551,10 19.9966572,12.2385763 19.9966572,15 Z M23.7460305,10.62 C23.7460305,10.9679394 24.0280439,11.25 24.3759252,11.25 L29.3750895,11.25 C29.7190599,11.2445386 29.9950292,10.9640713 29.9949859,10.62 L29.9949859,5.68 C30.0256739,5.43783285 29.9137291,5.19973017 29.7076771,5.06890442 C29.5016251,4.93807866 29.2385555,4.93807866 29.0325036,5.06890442 C28.8264515,5.19973017 28.7145067,5.43783285 28.7451948,5.68 L28.7451948,9.36 C25.4157514,3.24 20.6765436,0 14.9974929,0 C6.7146063,0 0,6.71572875 0,15 C0,23.2842712 6.7146063,30 14.9974929,30 C23.2803795,30 29.9949859,23.2842712 29.9949859,15 C30.0256739,14.7578328 29.9137291,14.5197302 29.7076771,14.3889044 C29.5016251,14.2580787 29.2385555,14.2580787 29.0325036,14.3889044 C28.8264515,14.5197302 28.7145067,14.7578328 28.7451948,15 C28.7451948,20.5613559 25.3956748,25.5751048 20.2585107,27.7033436 C15.1213465,29.8315823 9.2082149,28.6551907 5.27639973,24.7227182 C1.34458454,20.7902458 0.168389528,14.8761257 2.29627257,9.7381028 C4.42415561,4.60007995 9.43706657,1.25 14.9974929,1.25 C21.4564132,1.25 25.405753,5.82 27.6753736,10 L24.3759252,10 C24.0319114,9.9999567 23.751491,10.2759721 23.7460305,10.62 Z" id="Shape-6"></path>
        </g>
        <g id="Shape-6-2" transform="translate(120.000000, 30.000000)" fill="#999999" fill-rule="nonzero">
            <path d="M8.74853754,15 C8.74853754,18.4517797 11.5462902,21.25 14.9974929,21.25 C18.4486957,21.25 21.2464483,18.4517797 21.2464483,15 C21.2464483,11.5482203 18.4486957,8.75 14.9974929,8.75 C11.5462902,8.75 8.74853754,11.5482203 8.74853754,15 Z M19.9966572,15 C19.9966572,17.7614237 17.7584551,20 14.9974929,20 C12.2365308,20 9.99832862,17.7614237 9.99832862,15 C9.99832862,12.2385763 12.2365308,10 14.9974929,10 C17.7584551,10 19.9966572,12.2385763 19.9966572,15 Z M23.7460305,10.62 C23.7460305,10.9679394 24.0280439,11.25 24.3759252,11.25 L29.3750895,11.25 C29.7190599,11.2445386 29.9950292,10.9640713 29.9949859,10.62 L29.9949859,5.68 C30.0256739,5.43783285 29.9137291,5.19973017 29.7076771,5.06890442 C29.5016251,4.93807866 29.2385555,4.93807866 29.0325036,5.06890442 C28.8264515,5.19973017 28.7145067,5.43783285 28.7451948,5.68 L28.7451948,9.36 C25.4157514,3.24 20.6765436,0 14.9974929,0 C6.7146063,0 0,6.71572875 0,15 C0,23.2842712 6.7146063,30 14.9974929,30 C23.2803795,30 29.9949859,23.2842712 29.9949859,15 C30.0256739,14.7578328 29.9137291,14.5197302 29.7076771,14.3889044 C29.5016251,14.2580787 29.2385555,14.2580787 29.0325036,14.3889044 C28.8264515,14.5197302 28.7145067,14.7578328 28.7451948,15 C28.7451948,20.5613559 25.3956748,25.5751048 20.2585107,27.7033436 C15.1213465,29.8315823 9.2082149,28.6551907 5.27639973,24.7227182 C1.34458454,20.7902458 0.168389528,14.8761257 2.29627257,9.7381028 C4.42415561,4.60007995 9.43706657,1.25 14.9974929,1.25 C21.4564132,1.25 25.405753,5.82 27.6753736,10 L24.3759252,10 C24.0319114,9.9999567 23.751491,10.2759721 23.7460305,10.62 Z" id="Shape-6"></path>
        </g>
        <g id="Group-12" transform="translate(150.000000, 0.000000)" fill="#FFAF00" fill-rule="nonzero">
            <path d="M21.4146848,12.1800015 C21.5647364,12.330053 21.6233382,12.548758 21.5684156,12.7537322 C21.5134929,12.9587065 21.3533898,13.1188096 21.1484155,13.1737323 C20.9434413,13.2286549 20.7247363,13.1700531 20.5746848,13.0200015 L15.5746848,8.02000154 L15.5746848,23.4000015 C15.5746848,23.7313723 15.3060556,24.0000015 14.9746848,24.0000015 C14.643314,24.0000015 14.3746848,23.7313723 14.3746848,23.4000015 L14.3746848,8.05000154 L9.37468477,13.0500015 C9.14272516,13.281961 8.76664441,13.281961 8.53468485,13.0500014 C8.30272528,12.8180419 8.30272525,12.4419611 8.53468477,12.2100015 L14.5346848,6.21000154 C14.6441556,6.09505723 14.7959522,6.03000154 14.9546848,6.03000154 C15.1134174,6.03000154 15.265214,6.09505723 15.3746848,6.21000154 L21.4146848,12.1800015 Z" id="Shape-7"></path>
            <path d="M15,30 C6.71572875,30 0,23.2842712 0,15 C0,6.71572875 6.71572875,0 15,0 C23.2842712,0 30,6.71572875 30,15 C30,18.9782473 28.4196474,22.793556 25.6066017,25.6066017 C22.793556,28.4196474 18.9782473,30 15,30 Z M15,28.87 C20.6148457,28.8699985 25.6766288,25.4871621 27.8244018,20.2993338 C29.9721749,15.1115054 28.782827,9.14068615 24.8111011,5.17182171 C20.8393752,1.20295726 14.8677002,0.0179129879 9.6814212,2.16942443 C4.49514216,4.32093588 1.11595472,9.3851558 1.12,15 C1.12552004,22.6618068 7.33819122,28.870002 15,28.87 Z" id="Oval-2"></path>
        </g>
        <g id="Group-12" transform="translate(150.000000, 30.000000)" fill="#999999" fill-rule="nonzero">
            <path d="M21.4146848,12.1800015 C21.5647364,12.330053 21.6233382,12.548758 21.5684156,12.7537322 C21.5134929,12.9587065 21.3533898,13.1188096 21.1484155,13.1737323 C20.9434413,13.2286549 20.7247363,13.1700531 20.5746848,13.0200015 L15.5746848,8.02000154 L15.5746848,23.4000015 C15.5746848,23.7313723 15.3060556,24.0000015 14.9746848,24.0000015 C14.643314,24.0000015 14.3746848,23.7313723 14.3746848,23.4000015 L14.3746848,8.05000154 L9.37468477,13.0500015 C9.14272516,13.281961 8.76664441,13.281961 8.53468485,13.0500014 C8.30272528,12.8180419 8.30272525,12.4419611 8.53468477,12.2100015 L14.5346848,6.21000154 C14.6441556,6.09505723 14.7959522,6.03000154 14.9546848,6.03000154 C15.1134174,6.03000154 15.265214,6.09505723 15.3746848,6.21000154 L21.4146848,12.1800015 Z" id="Shape-7"></path>
            <path d="M15,30 C6.71572875,30 0,23.2842712 0,15 C0,6.71572875 6.71572875,0 15,0 C23.2842712,0 30,6.71572875 30,15 C30,18.9782473 28.4196474,22.793556 25.6066017,25.6066017 C22.793556,28.4196474 18.9782473,30 15,30 Z M15,28.87 C20.6148457,28.8699985 25.6766288,25.4871621 27.8244018,20.2993338 C29.9721749,15.1115054 28.782827,9.14068615 24.8111011,5.17182171 C20.8393752,1.20295726 14.8677002,0.0179129879 9.6814212,2.16942443 C4.49514216,4.32093588 1.11595472,9.3851558 1.12,15 C1.12552004,22.6618068 7.33819122,28.870002 15,28.87 Z" id="Oval-2"></path>
        </g>
        <g id="Shape-8-2" transform="translate(180.000000, 0.000000)" fill="#81C926" fill-rule="nonzero">
            <path d="M15,0 C6.715729,0 1.77635684e-15,6.71572875 1.77635684e-15,15 C1.77635684e-15,23.2842712 6.715729,30 15,30 C15.331371,30 15.6,29.7313708 15.6,29.4 L15.6,21 C18.997442,20.6898577 21.598619,17.8415682 21.6,14.43 L21.6,12.6 C21.6,11.9372583 21.062742,11.4 20.4,11.4 L19.2,11.4 L19.2,8.4 C19.2,8.06862915 18.931371,7.8 18.6,7.8 C18.268629,7.8 18,8.06862915 18,8.4 L18,11.4 L12,11.4 L12,8.4 C12,8.06862915 11.731371,7.8 11.4,7.8 C11.068629,7.8 10.8,8.06862915 10.8,8.4 L10.8,11.4 L9.6,11.4 C8.937258,11.4 8.4,11.9372583 8.4,12.6 L8.4,14.4 C8.401381,17.8115682 11.002558,20.6598577 14.4,20.97 L14.4,28.77 C7.270046,28.4403592 1.5798,22.7063681 1.304771,15.5740992 C1.029742,8.44183026 6.261528,2.28667197 13.344924,1.40894681 C20.42832,0.531221651 27.004214,5.22325429 28.478336,12.20694 C29.952458,19.1906257 25.833854,26.1400614 19,28.2 C18.799219,28.2633954 18.64636,28.4273954 18.597222,28.6321334 C18.548085,28.8368714 18.609861,29.0523839 18.76,29.2 C18.914782,29.3463005 19.135522,29.3995824 19.34,29.34 C26.427578,27.165255 30.863273,20.1388702 29.778433,12.8049489 C28.693592,5.47102765 22.413663,0.0297080222 15,0 Z M9.6,14.4 L9.6,12.6 L20.4,12.6 L20.4,14.4 C20.4,17.3823376 17.982338,19.8 15,19.8 C12.017662,19.8 9.6,17.3823376 9.6,14.4 Z" id="Shape-8"></path>
        </g>
        <g id="t-tokenburn" transform="translate(210.000000, 0.000000)" fill-rule="nonzero">
            <rect id="Rectangle-7" fill-opacity="0" fill="#D8D8D8" x="0" y="0" width="30" height="30"></rect>
            <g id="burn" transform="translate(4.000000, 0.000000)" fill="#FFAF00" stroke="#FFAF00" stroke-width="0.1">
                <path d="M7.17,25.89 C7.17,26.02 6.94,26.48 6.94,26.48 C6.86822434,26.6677662 6.81464511,26.8619909 6.78,27.06 L6.68,27.61 L5.61,27.4 L5.71,26.86 C5.75604664,26.5930654 5.82977796,26.3316544 5.93,26.08 C5.93,26.03 6.11,25.63 6.13,25.56 C6.26604459,25.2316579 6.44420474,24.9223988 6.66,24.64 C6.7574965,24.4964174 6.8643972,24.3594509 6.98,24.23 C7.03153706,24.168426 7.08842595,24.1115371 7.15,24.06 L7.3,23.96 C7.45811012,23.8844728 7.64188988,23.8844728 7.8,23.96 C7.91884756,24.0251119 8.01353233,24.1268103 8.07,24.25 L8.16,24.43 C8.16,24.49 8.29,24.76 8.32,24.82 C8.36663449,24.9412783 8.42350639,25.0583675 8.49,25.17 C8.58154364,25.226609 8.67873469,25.2735288 8.78,25.31 C8.731945,25.1304202 8.7050953,24.9458285 8.7,24.76 L8.7,23.36 C8.69943055,22.7035797 8.84279685,22.0550179 9.12,21.46 C9.1696599,21.3801121 9.21312064,21.2965338 9.25,21.21 C9.4332047,20.6968938 9.71518464,20.2246624 10.08,19.82 C10.9,18.82 11.57,18.19 11.91,18.19 C12.0811747,18.1865076 12.2426807,18.2691386 12.34,18.41 C12.38429,18.459465 12.4182846,18.5172558 12.44,18.58 C12.445411,18.639878 12.445411,18.700122 12.44,18.76 C12.44,18.84 12.44,18.94 12.44,19.08 C12.44,19.22 12.44,19.48 12.44,19.56 C12.44,19.64 12.44,19.95 12.44,20.13 L12.44,20.41 L12.44,20.66 C12.450531,20.8282097 12.4739328,20.9953654 12.51,21.16 C12.5448256,21.3146388 12.5950772,21.4653936 12.66,21.61 C12.8497063,21.9743046 13.088611,22.3107901 13.37,22.61 L13.58,22.84 L13.78,23.06 L14.27,23.59 C14.74,24.1 14.94,24.32 15.08,24.5 L15.21,24.67 L15.35,24.86 C15.5751918,25.1636954 15.7507122,25.5012346 15.87,25.86 C16.0100244,26.3326661 16.1005111,26.8186135 16.14,27.31 L16.14,27.86 L15.06,27.97 L15.01,27.42 C14.9844399,27.0159725 14.9105806,26.6164606 14.79,26.23 C14.7030008,25.9935428 14.5817033,25.771164 14.43,25.57 L14.31,25.4 L14.18,25.24 C14.07,25.1 13.87,24.88 13.44,24.41 L12.94,23.87 L12.73,23.65 L12.52,23.4 C12.1599391,23.028569 11.8596999,22.6035113 11.63,22.14 C11.5281503,21.9226456 11.4510014,21.6945531 11.4,21.46 C11.3573428,21.2486388 11.3272898,21.0349285 11.31,20.82 L11.31,20.58 C11.31,20.48 11.31,20.39 11.31,20.31 L11.31,19.97 L10.72,20.61 C10.4330427,20.9340875 10.2122324,21.3111636 10.07,21.72 C10,21.87 9.95,21.98 9.88,22.1 C9.70903053,22.5191191 9.62074238,22.9673513 9.62,23.42 L9.62,24.82 C9.63438926,24.9580439 9.65777229,25.0950017 9.69,25.23 C9.75,25.49 9.77,25.6 9.79,25.73 C9.87382923,26.0231503 9.76113214,26.3370922 9.51,26.51 C9.11,26.79 8.02,26.43 7.61,26.07 C7.54244499,26.0105414 7.48203872,25.9434233 7.43,25.87 C7.37,25.77 7.31,25.66 7.24,25.52 C7.20701216,25.6413096 7.1836068,25.7650237 7.17,25.89 Z" id="Line-2"></path>
                <path d="M17.46,12.38 C17.46,12.24 17.46,12.24 17.6,12.01 C17.74,11.78 17.87,11.82 18.08,11.83 C18.29,11.84 18.3,11.9 18.35,11.94 L18.46,12.05 C18.52,12.11 18.59,12.2 18.68,12.31 L19.46,13.31 C19.9531446,14.0497932 20.3339467,14.8585763 20.59,15.71 C20.7375553,16.1344211 20.8545213,16.568866 20.94,17.01 C20.94,17.24 21.01,17.46 21.04,17.77 C21.04,17.88 21.04,18 21.04,18.16 C21.04,18.32 21.04,18.57 21.04,18.64 C21.1241909,19.5478975 21.0838167,20.4630441 20.92,21.36 C20.92,21.51 20.92,21.59 20.87,21.67 C20.8651183,21.7198808 20.8651183,21.7701192 20.87,21.82 C20.6565038,22.8654307 20.2962722,23.875426 19.8,24.82 C19.2558929,25.70578 18.5816893,26.5047113 17.8,27.19 C17.3062767,27.6182033 16.7740102,27.9998284 16.21,28.33 C14.402607,29.4025759 12.3032225,29.8784364 10.21,29.69 C8.99827326,29.6084608 7.81508088,29.2854629 6.73,28.74 C5.64216451,28.1184964 4.65437121,27.3363529 3.8,26.42 C3.23894573,25.8474024 2.75791854,25.2015477 2.37,24.5 C1.87617182,23.6762824 1.47378603,22.8010933 1.17,21.89 C0.95293297,21.0429616 0.832168516,20.1741285 0.81,19.3 C0.826470059,18.546778 0.889926704,17.7953177 1,17.05 C1.19194313,16.1263681 1.50462882,15.2320198 1.93,14.39 C2.35181754,13.6061743 2.84028514,12.8600902 3.39,12.16 L3.47,12.06 L3.64,11.86 C3.76,11.71 3.9,11.56 4.11,11.34 L4.4,11.02 L4.75,10.64 L5.01,10.36 C5.14,10.21 5.28,10.07 5.45,9.89 C5.45,9.89 5.77,9.56 5.85,9.47 C6.13,9.18 6.28,9.01 6.35,8.93 L6.45,8.79 L6.59,8.6 L6.93,8.13 L7.14,7.82 C7.27,7.6 7.37,7.41 7.44,7.27 C7.51,7.13 7.53,7.05 7.59,6.9 L7.76,6.5 L7.76,6.42 C7.99,5.88 8.12,5.53 8.19,5.32 C8.37672009,4.64028977 8.49398739,3.94338697 8.54,3.24 C8.54,3.02 8.54,2.78 8.59,2.51 C8.59,1.91 8.59,1.28 8.59,0.72 L8.59,0.6 C8.65,0.27 8.65,0.27 8.99,0.07 C9.21,0.07 9.21,0.07 9.29,0.07 L9.43,0.13 L9.53,0.2 L9.74,0.38 C9.92,0.53 10.16,0.74 10.4,0.97 C10.9643616,1.47491312 11.4986129,2.01250349 12,2.58 C12.6804435,3.32332518 13.2588615,4.15396035 13.72,5.05 C14.2183965,6.09225235 14.6136128,7.18077198 14.9,8.3 C15.1058231,9.38754618 15.1996466,10.4933231 15.18,11.6 C15.1661877,12.3239189 15.099342,13.0458523 14.98,13.76 C14.98,13.97 14.91,14.17 14.86,14.38 L14.77,14.79 L14.77,14.9 L15.16,14.76 C15.6292517,14.5656144 16.0370425,14.2476759 16.34,13.84 C16.6292242,13.4983023 16.8996246,13.1411067 17.15,12.77 C17.27,12.6 17.37,12.45 17.44,12.33 L17.51,12.22 C17.51,12.22 17.46,12.26 17.46,12.38 Z M9.67,2.56 C9.67,2.85 9.67,3.11 9.67,3.34 C9.61446289,4.12073507 9.48385993,4.89430644 9.28,5.65 C9.14129556,6.06145919 8.98107485,6.4653489 8.8,6.86 L8.8,6.94 L8.63,7.34 C8.56,7.49 8.52,7.6 8.47,7.7 C8.3666095,7.95158098 8.2393619,8.1926817 8.09,8.42 L7.86,8.77 C7.74,8.94 7.63,9.1 7.5,9.27 L7.35,9.47 L7.25,9.61 C7.14,9.74 6.98,9.92 6.67,10.25 L6.27,10.66 L5.84,11.12 L5.59,11.38 C5.47,11.53 5.36,11.64 5.23,11.79 L4.94,12.1 L4.5,12.59 C4.44,12.65 4.4,12.71 4.35,12.77 L4.28,12.85 C3.76808061,13.4940318 3.31619492,14.1835759 2.93,14.91 C2.55948914,15.6454734 2.28394846,16.4250519 2.11,17.23 C2.04040761,17.9144261 2.00702775,18.6020513 2.01,19.29 C2.03112932,20.0484204 2.13167842,20.8025386 2.31,21.54 C2.5929704,22.3694008 2.96162931,23.1670447 3.41,23.92 C3.75448785,24.5471261 4.18536459,25.1227505 4.69,25.63 C5.46266612,26.4580196 6.35203808,27.1688434 7.33,27.74 C8.29102404,28.2193456 9.33824712,28.5015518 10.41,28.57 C11.5751315,28.6838501 12.7512715,28.5648764 13.87,28.22 C14.5685159,28.0139476 15.2399338,27.7252379 15.87,27.36 C16.3712323,27.0730478 16.8434441,26.7381458 17.28,26.36 C17.9572796,25.7590212 18.5464148,25.0655249 19.03,24.3 C19.4656674,23.4815646 19.7853966,22.6065164 19.98,21.7 C19.9848585,21.6467773 19.9848585,21.5932227 19.98,21.54 C19.9854215,21.4334022 19.9854215,21.3265978 19.98,21.22 C20.1336389,20.4162482 20.1740307,19.5949487 20.1,18.78 C20.1,18.71 20.1,18.38 20.1,18.3 C20.1,18.22 20.1,18.02 20.1,17.92 C20.0810608,17.6986328 20.051023,17.4783557 20.01,17.26 C19.9316855,16.8605157 19.8281448,16.4663933 19.7,16.08 C19.4689535,15.3419771 19.1321159,14.6413549 18.7,14 L18.19,13.33 C17.9008876,13.7579561 17.5870195,14.1686558 17.25,14.56 C16.8460268,15.0940663 16.3077641,15.5115649 15.69,15.77 C15.3699899,15.9056499 15.0339217,15.999749 14.69,16.05 C14.11,16.13 13.69,16 13.69,15.36 C13.69,15.21 13.94,14.15 13.94,14.14 C13.94,13.94 14.02,13.75 14.05,13.56 C14.1593119,12.8986937 14.2194766,12.2301972 14.23,11.56 C14.2461291,10.5546258 14.1657609,9.55002304 13.99,8.56 C13.7247123,7.52704985 13.359663,6.52232713 12.9,5.56 C12.4786851,4.74679112 11.9506876,3.99346997 11.33,3.32 C10.8626904,2.78536665 10.3652129,2.27787281 9.84,1.8 L9.67,2.56 Z M18.55,12.39 C18.5340372,12.4949755 18.5002151,12.596442 18.45,12.69 C18.5109606,12.6014329 18.5456283,12.49743 18.55,12.39 L18.55,12.39 Z" id="Line-2-2"></path>
            </g>
        </g>
        <g id="t-tokengen" transform="translate(240.000000, 0.000000)" fill-rule="nonzero">
            <rect id="Rectangle-8" fill-opacity="0" fill="#D8D8D8" x="0" y="0" width="30" height="30"></rect>
            <path d="M23.31,7.15592688 C24.5355672,8.38518174 24.7226248,10.3087921 23.7568523,11.7511394 C22.7910797,13.1934867 20.9412213,13.7532108 19.3378218,13.088235 C17.7344224,12.4232593 16.823658,10.7186258 17.1621442,9.01612478 C17.5006304,7.3136238 18.994177,6.0870083 20.73,6.08592688 C21.6978494,6.08642529 22.6258763,6.47130468 23.31,7.15592688 L23.31,7.15592688 Z M18.13,9.73592688 C18.1362032,10.9752795 19.0163248,12.0379647 20.2328259,12.2749422 C21.449327,12.5119196 22.6639834,11.8573023 23.1349374,10.7109012 C23.6058914,9.56449998 23.2022034,8.24504936 22.1704281,7.55841052 C21.1386527,6.87177169 19.7656549,7.00885113 18.89,7.88592688 C18.4010697,8.37721616 18.127637,9.042809 18.13,9.73592688 L18.13,9.73592688 Z M20.36,9.36592688 C20.1588059,9.56966686 20.160181,9.89772244 20.3630759,10.0997687 C20.5659708,10.301815 20.8940292,10.301815 21.0969241,10.0997687 C21.299819,9.89772244 21.3011941,9.56966686 21.1,9.36592688 C20.8941591,9.16522464 20.5658409,9.16522464 20.36,9.36592688 L20.36,9.36592688 Z M25.52,4.95592688 C22.882472,2.34802437 18.637528,2.34802437 16,4.95592688 L5,16.0259269 C4.8620441,16.1540971 4.80593968,16.3478565 4.85406846,16.5299088 C4.90219723,16.7119611 5.04672677,16.8526794 5.23,16.8959269 C5.40790941,16.9464592 5.59923386,16.8967149 5.73,16.7659269 L16.68,5.67592688 C18.1304983,4.22900124 20.2427396,3.66581844 22.2210631,4.19852399 C24.1993866,4.73122955 25.7432379,6.2788928 26.2710631,8.25852399 C26.7988884,10.2381552 26.2304983,12.3490013 24.78,13.7959269 L18.15,20.4359269 C17.9456546,20.6402723 17.9456546,20.9715815 18.15,21.1759269 C18.3543454,21.3802723 18.6856546,21.3802723 18.89,21.1759269 L25.52,14.5359269 C28.1590063,11.8800171 28.1590063,7.59183671 25.52,4.93592688 L25.52,4.95592688 Z M9.28,16.2959269 L2.65,22.9559269 C2.51781173,23.0881152 2.46618634,23.2807838 2.5145706,23.4613563 C2.56295486,23.6419288 2.70399807,23.782972 2.8845706,23.8313563 C3.06514313,23.8797406 3.25781173,23.8281152 3.39,23.6959269 L10,17.0359269 C10.1303767,16.9014767 10.180116,16.7082003 10.1308386,16.5275164 C10.0815612,16.3468325 9.94058384,16.2055697 9.76,16.1559269 C9.58029274,16.1100907 9.38977554,16.1634355 9.26,16.2959269 L9.28,16.2959269 Z M16.19,13.5459269 L8.83,20.9559269 C8.63049525,21.1583676 8.63049525,21.4834862 8.83,21.6859269 C8.92629956,21.7874397 9.06007699,21.8449283 9.2,21.8449283 C9.33992301,21.8449283 9.47370044,21.7874397 9.57,21.6859269 L16.93,14.3159269 C17.0574813,14.1791739 17.1097959,13.9885991 17.07,13.8059269 C17.0203906,13.6260647 16.8798622,13.4855363 16.7,13.4359269 C16.5223896,13.3825892 16.3298342,13.4241208 16.19,13.5459269 L16.19,13.5459269 Z M7.86,26.0659269 C7.72781173,26.1981152 7.67618634,26.3907838 7.7245706,26.5713563 C7.77295486,26.7519288 7.91399807,26.892972 8.0945706,26.9413563 C8.27514313,26.9897406 8.46781173,26.9381152 8.6,26.8059269 L16.7,18.6859269 C16.8289904,18.5541044 16.8817813,18.3655655 16.84,18.1859269 C16.7941559,18.0039006 16.6520263,17.861771 16.47,17.8159269 C16.2998667,17.7829462 16.1243558,17.835226 16,17.9559269 L7.86,26.0659269 Z M13.98,25.1459269 C13.8478117,25.2781152 13.7961863,25.4707838 13.8445706,25.6513563 C13.8929549,25.8319288 14.0339981,25.972972 14.2145706,26.0213563 C14.3951431,26.0697406 14.5878117,26.0181152 14.72,25.8859269 L16.93,23.6759269 C17.1343454,23.4715815 17.1343454,23.1402723 16.93,22.9359269 C16.7256546,22.7315815 16.3943454,22.7315815 16.19,22.9359269 L13.98,25.1459269 Z M11.72,15.3259269 L13.2,13.8459269 C13.298349,13.7499503 13.3538048,13.6183461 13.3538048,13.4809269 C13.3538048,13.3435077 13.298349,13.2119035 13.2,13.1159269 C13.1054641,13.0149517 12.9733221,12.9576505 12.835,12.9576505 C12.6966779,12.9576505 12.5645359,13.0149517 12.47,13.1159269 L11,14.5859269 C10.8984872,14.6822265 10.8409986,14.8160039 10.8409986,14.9559269 C10.8409986,15.0958499 10.8984872,15.2296273 11,15.3259269 C11.20119,15.5189492 11.51881,15.5189492 11.72,15.3259269 L11.72,15.3259269 Z" id="Shape-9" stroke="#26C1C9" stroke-width="0.2" fill="#26C1C9"></path>
        </g>
        <g id="t-tokenreis" transform="translate(270.000000, 0.000000)" fill-rule="nonzero">
            <rect id="Rectangle-9" fill-opacity="0" fill="#D8D8D8" x="0" y="0" width="30" height="30"></rect>
            <path d="M27.5,15.05 L27.5,15.05 L27.5,16.05 C27.5,16.3261424 27.2761424,16.55 27,16.55 C26.7238576,16.55 26.5,16.3261424 26.5,16.05 L26.5,15.05 C26.4353909,9.68176488 22.5802535,5.11007484 17.3,4.14 C12.0083252,3.0612538 6.67224853,5.77697268 4.43,10.69 L10,10.69 C10.2761424,10.69 10.5,10.9138576 10.5,11.19 C10.5,11.4661424 10.2761424,11.69 10,11.69 L3,11.69 C2.87003618,11.6926794 2.74433364,11.6436071 2.65055947,11.5535839 C2.55678529,11.4635607 2.50262527,11.3399649 2.5,11.21 L2.5,4.4 C2.5,4.12385763 2.72385763,3.9 3,3.9 C3.27614237,3.9 3.5,4.12385763 3.5,4.4 L3.5,10.32 C5.93506349,4.97137703 11.742026,2.01397398 17.5,3.19 C23.2391528,4.2457812 27.4290299,9.21497544 27.5,15.05 Z M27,18.44 L20,18.44 C19.7238576,18.44 19.5,18.6638576 19.5,18.94 C19.5,19.2161424 19.7238576,19.44 20,19.44 L25.57,19.44 C23.3199844,24.3428063 17.9826463,27.0425787 12.7,25.95 C7.41920038,24.9878966 3.5615116,20.417374 3.5,15.05 L3.5,14.05 C3.5,13.7738576 3.27614237,13.55 3,13.55 C2.72385763,13.55 2.5,13.7738576 2.5,14.05 L2.5,15.05 L2.5,15.05 C2.56787728,20.8841614 6.76030229,25.852185 12.5,26.9 C18.2595592,28.0877573 24.0734924,25.1268041 26.5,19.77 L26.5,25.69 C26.5,25.9661424 26.7238576,26.19 27,26.19 C27.2761424,26.19 27.5,25.9661424 27.5,25.69 L27.5,18.92 C27.5001136,18.7891539 27.4468062,18.6639324 27.3524155,18.5733172 C27.2580247,18.4827021 27.1307325,18.434548 27,18.44 L27,18.44 Z" id="Shape-10" stroke="#81C926" stroke-width="0.4" fill="#81C926"></path>
        </g>
        <g id="t-tokenreis" transform="translate(270.000000, 30.000000)" fill-rule="nonzero">
            <rect id="Rectangle-9" fill-opacity="0" fill="#D8D8D8" x="0" y="0" width="30" height="30"></rect>
            <path d="M27.5,15.05 L27.5,15.05 L27.5,16.05 C27.5,16.3261424 27.2761424,16.55 27,16.55 C26.7238576,16.55 26.5,16.3261424 26.5,16.05 L26.5,15.05 C26.4353909,9.68176488 22.5802535,5.11007484 17.3,4.14 C12.0083252,3.0612538 6.67224853,5.77697268 4.43,10.69 L10,10.69 C10.2761424,10.69 10.5,10.9138576 10.5,11.19 C10.5,11.4661424 10.2761424,11.69 10,11.69 L3,11.69 C2.87003618,11.6926794 2.74433364,11.6436071 2.65055947,11.5535839 C2.55678529,11.4635607 2.50262527,11.3399649 2.5,11.21 L2.5,4.4 C2.5,4.12385763 2.72385763,3.9 3,3.9 C3.27614237,3.9 3.5,4.12385763 3.5,4.4 L3.5,10.32 C5.93506349,4.97137703 11.742026,2.01397398 17.5,3.19 C23.2391528,4.2457812 27.4290299,9.21497544 27.5,15.05 Z M27,18.44 L20,18.44 C19.7238576,18.44 19.5,18.6638576 19.5,18.94 C19.5,19.2161424 19.7238576,19.44 20,19.44 L25.57,19.44 C23.3199844,24.3428063 17.9826463,27.0425787 12.7,25.95 C7.41920038,24.9878966 3.5615116,20.417374 3.5,15.05 L3.5,14.05 C3.5,13.7738576 3.27614237,13.55 3,13.55 C2.72385763,13.55 2.5,13.7738576 2.5,14.05 L2.5,15.05 L2.5,15.05 C2.56787728,20.8841614 6.76030229,25.852185 12.5,26.9 C18.2595592,28.0877573 24.0734924,25.1268041 26.5,19.77 L26.5,25.69 C26.5,25.9661424 26.7238576,26.19 27,26.19 C27.2761424,26.19 27.5,25.9661424 27.5,25.69 L27.5,18.92 C27.5001136,18.7891539 27.4468062,18.6639324 27.3524155,18.5733172 C27.2580247,18.4827021 27.1307325,18.434548 27,18.44 L27,18.44 Z" id="Shape-10" stroke="#999999" stroke-width="0.4" fill="#999999"></path>
        </g>
        <g id="Group-2" transform="translate(300.000000, 0.000000)" fill-rule="nonzero">
            <rect id="Rectangle-10" fill-opacity="0" fill="#D8D8D8" x="0" y="0" width="30" height="30"></rect>
            <path d="M15,30 C6.715729,30 -2.84217094e-14,23.2842712 -2.84217094e-14,15 C-2.84217094e-14,6.71572875 6.715729,0 15,0 C15.331371,0 15.6,0.26862915 15.6,0.6 L15.6,9 C18.997442,9.31014231 21.598619,12.1584318 21.6,15.57 L21.6,17.37 C21.6,18.0327417 21.062742,18.57 20.4,18.57 L19.2,18.57 L19.2,21.57 C19.2,21.9013708 18.931371,22.17 18.6,22.17 C18.268629,22.17 18,21.9013708 18,21.57 L18,18.57 L12,18.57 L12,21.57 C12,21.9013708 11.731371,22.17 11.4,22.17 C11.068629,22.17 10.8,21.9013708 10.8,21.57 L10.8,18.57 L9.6,18.57 C8.937258,18.57 8.4,18.0327417 8.4,17.37 L8.4,15.6 C8.401381,12.1884318 11.002558,9.34014231 14.4,9.03 L14.4,1.23 C7.270046,1.55964077 1.5798,7.29363193 1.304771,14.4259008 C1.029742,21.5581697 6.261528,27.713328 13.344924,28.5910532 C20.42832,29.4687783 27.004214,24.7767457 28.478336,17.79306 C29.952458,10.8093743 25.833854,3.8599386 19,1.8 C18.790782,1.74323201 18.631877,1.5726992 18.59,1.36 C18.53518,1.15315229 18.600831,0.933026475 18.76,0.79 C18.914782,0.643699511 19.135522,0.590417634 19.34,0.65 C26.444501,2.81238618 30.897271,9.84781325 29.810953,17.1942244 C28.724635,24.5406355 22.426281,29.9862882 15,30 Z M9.6,15.6 L9.6,17.4 L20.4,17.4 L20.4,15.6 C20.4,12.6176624 17.982338,10.2 15,10.2 C12.017662,10.2 9.6,12.6176624 9.6,15.6 Z" id="Shape-11" fill="#5A81EA"></path>
        </g>
        <path d="M344.994685,1.54179916e-06 C337.838758,0.0032437078 331.681579,5.06080899 330.288474,12.0798226 C328.895369,19.0988362 332.654315,26.1245135 339.266589,28.8604116 C345.878862,31.5963097 353.502953,29.2804852 357.47647,23.3291442 C361.449987,17.3778031 360.66631,9.44838522 355.604685,4.39000154 C352.79025,1.57736917 348.973622,-0.0018012121 344.994685,1.54179916e-06 Z M344.994685,28.8000015 C337.373155,28.8000015 331.194685,22.621531 331.194685,15.0000015 C331.194685,7.37847199 337.373155,1.20000154 344.994685,1.20000154 C352.616214,1.20000154 358.794685,7.37847199 358.794685,15.0000015 C358.794685,18.6599891 357.34076,22.1700731 354.752758,24.7580751 C352.164756,27.3460771 348.654672,28.8000015 344.994685,28.8000015 Z M344.904685,22.0000015 C345.121422,22.0023098 345.327691,22.0935677 345.475178,22.2524003 C345.622666,22.411233 345.698415,22.6236873 345.684685,22.8400015 C345.68205,23.0442237 345.598387,23.2390327 345.452105,23.3815641 C345.305823,23.5240954 345.108907,23.602671 344.904685,23.6000015 C344.466471,23.6072055 344.096366,23.2762877 344.054685,22.8400015 C344.060162,22.3744694 344.43912,21.9999693 344.904685,22.0000015 Z M341.324685,11.6900015 C341.324706,11.8561831 341.258014,12.0154171 341.13957,12.1319815 C341.021125,12.2485458 340.860845,12.3126818 340.694685,12.3100015 C340.335536,12.3170538 340.031058,12.0473727 339.994685,11.6900015 C339.972418,10.4354504 340.480825,9.22980025 341.394685,8.37000154 C342.284872,7.48006205 343.496021,6.98623058 344.754685,7.00000154 C346.010799,6.99943683 347.217086,7.49128609 348.114685,8.37000154 C349.004794,9.24611342 349.508691,10.4410699 349.514685,11.6900015 C349.514685,13.5600015 348.434685,14.6200015 347.354685,15.7500015 C346.404685,16.6900015 345.354685,17.6200015 345.354685,19.2500015 C345.365597,19.4257894 345.304706,19.5984804 345.185949,19.7285471 C345.067192,19.8586138 344.900738,19.9349206 344.724685,19.9400015 C344.34413,19.9347911 344.03537,19.6304415 344.024685,19.2500015 C344.024685,17.1200015 345.164685,15.9400015 346.304685,14.8100015 C347.194685,13.8700015 348.084685,13.0000015 348.084685,11.6900015 C348.09048,10.3199665 347.266277,9.08278385 345.999742,8.56036591 C344.733208,8.03794797 343.27646,8.33428797 342.314685,9.31000154 C341.661406,9.92656149 341.301406,10.7920162 341.324685,11.6900015 L341.324685,11.6900015 Z" id="Shape-12" fill="#999999" fill-rule="nonzero"></path>
        <path d="M374.994685,1.54179916e-06 C367.838758,0.0032437078 361.681579,5.06080899 360.288474,12.0798226 C358.895369,19.0988362 362.654315,26.1245135 369.266589,28.8604116 C375.878862,31.5963097 383.502953,29.2804852 387.47647,23.3291442 C391.449987,17.3778031 390.66631,9.44838522 385.604685,4.39000154 C382.79025,1.57736917 378.973622,-0.0018012121 374.994685,1.54179916e-06 Z M374.994685,28.8000015 C367.373155,28.8000015 361.194685,22.621531 361.194685,15.0000015 C361.194685,7.37847199 367.373155,1.20000154 374.994685,1.20000154 C382.616214,1.20000154 388.794685,7.37847199 388.794685,15.0000015 C388.794685,18.6599891 387.34076,22.1700731 384.752758,24.7580751 C382.164756,27.3460771 378.654672,28.8000015 374.994685,28.8000015 L374.994685,28.8000015 Z M378.104685,8.80000154 C378.33337,9.03330765 378.33337,9.40669543 378.104685,9.64000154 C377.867985,9.86989679 377.491384,9.86989679 377.254685,9.64000154 L375.644685,7.64000154 L375.644685,16.2400015 C375.644685,16.5713723 375.376056,16.8400015 375.044685,16.8400015 C374.884732,16.8427363 374.730526,16.7804008 374.617406,16.6672807 C374.504285,16.5541606 374.44195,16.3999541 374.444685,16.2400015 L374.444685,7.67000154 L372.824685,9.67000154 C372.584441,9.89919966 372.203883,9.89024533 371.974685,9.65000148 C371.745487,9.40975764 371.754441,9.02919972 371.994685,8.80000154 L374.634685,5.80000154 C374.871384,5.57010629 375.247985,5.57010629 375.484685,5.80000154 L378.104685,8.80000154 Z M385.334685,14.6200015 C385.329226,14.9474606 385.062189,15.210047 384.734685,15.2100015 C384.576482,15.2126833 384.423831,15.1517087 384.311012,15.0407702 C384.198193,14.9298318 384.134662,14.7782274 384.134685,14.6200015 L384.384685,12.0800015 L379.634685,16.8400015 C379.397985,17.0698967 379.021384,17.0698967 378.784685,16.8400015 C378.669183,16.7287834 378.603922,16.5753455 378.603922,16.4150015 C378.603922,16.2546575 378.669183,16.1012196 378.784685,15.9900015 L383.534685,11.2300015 L380.994685,11.4900015 C380.669468,11.4793739 380.409845,11.2153513 380.404685,10.8900015 C380.404639,10.5624969 380.667226,10.2954599 380.994685,10.2900015 L384.994685,10.0300015 C385.326056,10.0300015 385.594685,10.2986307 385.594685,10.6300015 L385.334685,14.6200015 Z M368.994685,10.2400015 C369.322144,10.2454599 369.58473,10.5124969 369.584685,10.8400015 C369.587367,10.9982046 369.526392,11.1508553 369.415453,11.2636741 C369.304515,11.3764929 369.152911,11.4400242 368.994685,11.4400015 L366.454685,11.1900015 L371.214685,15.9400015 C371.44458,16.1767009 371.44458,16.5533021 371.214685,16.7900015 C371.103467,16.9055035 370.950029,16.9707644 370.789685,16.9707644 C370.629341,16.9707644 370.475903,16.9055035 370.364685,16.7900015 L365.554685,12.0000015 L365.814685,14.5300015 C365.804051,14.8607408 365.535555,15.1248352 365.204685,15.1300015 C364.881079,15.1246515 364.620035,14.8636076 364.614685,14.5400015 L364.354685,10.5400015 C364.354685,10.2086307 364.623314,9.94000154 364.954685,9.94000154 L368.994685,10.2400015 Z M375.044685,24.2400015 C373.9032,24.2440493 372.87186,23.5595508 372.432226,22.5061159 C371.992591,21.452681 372.231383,20.2381122 373.037105,19.4295231 C373.842827,18.6209339 375.05654,18.3778282 376.11153,18.8137182 C377.16652,19.2496082 377.854678,20.2785095 377.854685,21.4200015 C377.844169,22.167045 377.536589,22.8791465 376.99992,23.3989268 C376.463252,23.9187071 375.741683,24.2033694 374.994685,24.1900015 L375.044685,24.2400015 Z M375.044685,23.1100015 C375.978046,23.1100015 376.734685,22.3533627 376.734685,21.4200015 C376.734685,20.4866403 375.978046,19.7300015 375.044685,19.7300015 C374.111324,19.7300015 373.354685,20.4866403 373.354685,21.4200015 C373.380786,22.314714 374.099972,23.0339001 374.994685,23.0600015 L375.044685,23.1100015 Z" id="Shape-13" fill="#FFAF00" fill-rule="nonzero"></path>
        <path d="M374.994685,30.0000015 C367.838758,30.0032437 361.681579,35.060809 360.288474,42.0798226 C358.895369,49.0988362 362.654315,56.1245135 369.266589,58.8604116 C375.878862,61.5963097 383.502953,59.2804852 387.47647,53.3291442 C391.449987,47.3778031 390.66631,39.4483852 385.604685,34.3900015 C382.79025,31.5773692 378.973622,29.9981988 374.994685,30.0000015 Z M374.994685,58.8000015 C367.373155,58.8000015 361.194685,52.621531 361.194685,45.0000015 C361.194685,37.378472 367.373155,31.2000015 374.994685,31.2000015 C382.616214,31.2000015 388.794685,37.378472 388.794685,45.0000015 C388.794685,48.6599891 387.34076,52.1700731 384.752758,54.7580751 C382.164756,57.3460771 378.654672,58.8000015 374.994685,58.8000015 L374.994685,58.8000015 Z M378.104685,38.8000015 C378.33337,39.0333077 378.33337,39.4066954 378.104685,39.6400015 C377.867985,39.8698968 377.491384,39.8698968 377.254685,39.6400015 L375.644685,37.6400015 L375.644685,46.2400015 C375.644685,46.5713723 375.376056,46.8400015 375.044685,46.8400015 C374.884732,46.8427363 374.730526,46.7804008 374.617406,46.6672807 C374.504285,46.5541606 374.44195,46.3999541 374.444685,46.2400015 L374.444685,37.6700015 L372.824685,39.6700015 C372.584441,39.8991997 372.203883,39.8902453 371.974685,39.6500015 C371.745487,39.4097576 371.754441,39.0291997 371.994685,38.8000015 L374.634685,35.8000015 C374.871384,35.5701063 375.247985,35.5701063 375.484685,35.8000015 L378.104685,38.8000015 Z M385.334685,44.6200015 C385.329226,44.9474606 385.062189,45.210047 384.734685,45.2100015 C384.576482,45.2126833 384.423831,45.1517087 384.311012,45.0407702 C384.198193,44.9298318 384.134662,44.7782274 384.134685,44.6200015 L384.384685,42.0800015 L379.634685,46.8400015 C379.397985,47.0698967 379.021384,47.0698967 378.784685,46.8400015 C378.669183,46.7287834 378.603922,46.5753455 378.603922,46.4150015 C378.603922,46.2546575 378.669183,46.1012196 378.784685,45.9900015 L383.534685,41.2300015 L380.994685,41.4900015 C380.669468,41.4793739 380.409845,41.2153513 380.404685,40.8900015 C380.404639,40.5624969 380.667226,40.2954599 380.994685,40.2900015 L384.994685,40.0300015 C385.326056,40.0300015 385.594685,40.2986307 385.594685,40.6300015 L385.334685,44.6200015 Z M368.994685,40.2400015 C369.322144,40.2454599 369.58473,40.5124969 369.584685,40.8400015 C369.587367,40.9982046 369.526392,41.1508553 369.415453,41.2636741 C369.304515,41.3764929 369.152911,41.4400242 368.994685,41.4400015 L366.454685,41.1900015 L371.214685,45.9400015 C371.44458,46.1767009 371.44458,46.5533021 371.214685,46.7900015 C371.103467,46.9055035 370.950029,46.9707644 370.789685,46.9707644 C370.629341,46.9707644 370.475903,46.9055035 370.364685,46.7900015 L365.554685,42.0000015 L365.814685,44.5300015 C365.804051,44.8607408 365.535555,45.1248352 365.204685,45.1300015 C364.881079,45.1246515 364.620035,44.8636076 364.614685,44.5400015 L364.354685,40.5400015 C364.354685,40.2086307 364.623314,39.9400015 364.954685,39.9400015 L368.994685,40.2400015 Z M375.044685,54.2400015 C373.9032,54.2440493 372.87186,53.5595508 372.432226,52.5061159 C371.992591,51.452681 372.231383,50.2381122 373.037105,49.4295231 C373.842827,48.6209339 375.05654,48.3778282 376.11153,48.8137182 C377.16652,49.2496082 377.854678,50.2785095 377.854685,51.4200015 C377.844169,52.167045 377.536589,52.8791465 376.99992,53.3989268 C376.463252,53.9187071 375.741683,54.2033694 374.994685,54.1900015 L375.044685,54.2400015 Z M375.044685,53.1100015 C375.978046,53.1100015 376.734685,52.3533627 376.734685,51.4200015 C376.734685,50.4866403 375.978046,49.7300015 375.044685,49.7300015 C374.111324,49.7300015 373.354685,50.4866403 373.354685,51.4200015 C373.380786,52.314714 374.099972,53.0339001 374.994685,53.0600015 L375.044685,53.1100015 Z" id="Shape-13" fill="#999999" fill-rule="nonzero"></path>
        <path d="M405.007049,30.0015399 C412.162976,29.9982977 418.320154,24.9407325 419.71326,17.9217188 C421.106365,10.9027052 417.347418,3.87702791 410.735145,1.1411298 C404.122872,-1.59476831 396.49878,0.721056235 392.525264,6.67239724 C388.551747,12.6237383 389.335424,20.5531562 394.397049,25.6115399 C397.211484,28.4241723 401.028112,30.0033427 405.007049,30.0015399 Z M405.007049,1.20153989 C412.628579,1.20153989 418.807049,7.38001034 418.807049,15.0015399 C418.807049,22.6230694 412.628579,28.8015399 405.007049,28.8015399 C397.38552,28.8015399 391.207049,22.6230694 391.207049,15.0015399 C391.207049,7.38001034 397.38552,1.20153989 405.007049,1.20153989 L405.007049,1.20153989 Z M401.897049,21.2015399 C401.668363,20.9682338 401.668363,20.594846 401.897049,20.3615399 C402.133748,20.1316447 402.51035,20.1316447 402.747049,20.3615399 L404.357049,22.3615399 L404.357049,13.7615399 C404.357049,13.4301691 404.625678,13.1615399 404.957049,13.1615399 C405.117002,13.1588051 405.271208,13.2211406 405.384328,13.3342607 C405.497448,13.4473808 405.559784,13.6015873 405.557049,13.7615399 L405.557049,22.3615399 L407.177049,20.3615399 C407.41177,20.1268189 407.792328,20.1268189 408.027049,20.3615399 C408.26177,20.5962609 408.26177,20.9768189 408.027049,21.2115399 L405.387049,24.2115399 C405.15035,24.4414351 404.773748,24.4414351 404.537049,24.2115399 L401.897049,21.2015399 Z M394.667049,15.3815399 C394.672507,15.0540808 394.939544,14.7914944 395.267049,14.7915399 C395.425252,14.7888581 395.577903,14.8498327 395.690722,14.9607712 C395.80354,15.0717096 395.867072,15.223314 395.867049,15.3815399 L395.617049,17.9215399 L400.367049,13.1615399 C400.603748,12.9316447 400.98035,12.9316447 401.217049,13.1615399 C401.332551,13.272758 401.397812,13.4261959 401.397812,13.5865399 C401.397812,13.7468839 401.332551,13.9003218 401.217049,14.0115399 L396.467049,18.7715399 L399.007049,18.5115399 C399.332266,18.5221675 399.591888,18.7861901 399.597049,19.1115399 C399.597095,19.4390445 399.334508,19.7060815 399.007049,19.7115399 L395.007049,20.0015399 C394.675678,20.0015399 394.407049,19.7329107 394.407049,19.4015399 L394.667049,15.3815399 Z M411.057049,19.7615399 C410.72959,19.7560815 410.467004,19.4890445 410.467049,19.1615399 C410.464367,19.0033368 410.525342,18.8506861 410.63628,18.7378673 C410.747219,18.6250485 410.898823,18.5615172 411.057049,18.5615399 L413.597049,18.8115399 L408.837049,14.0615399 C408.607154,13.8248405 408.607154,13.4482393 408.837049,13.2115399 C408.948267,13.0960379 409.101705,13.030777 409.262049,13.030777 C409.422393,13.030777 409.575831,13.0960379 409.687049,13.2115399 L414.447049,18.0015399 L414.187049,15.4715399 C414.197683,15.1408006 414.466179,14.8767062 414.797049,14.8715399 C415.120655,14.8768899 415.381699,15.1379338 415.387049,15.4615399 L415.647049,19.4615399 C415.647049,19.7929107 415.37842,20.0615399 415.047049,20.0615399 L411.057049,19.7615399 Z M405.007049,5.81153989 C406.149442,5.80749598 407.181412,6.49308029 407.620458,7.54774539 C408.059503,8.60241049 407.818872,9.81776414 407.011073,10.6255634 C406.203273,11.4333626 404.98792,11.6739935 403.933255,11.2349484 C402.878589,10.7959033 402.193005,9.76393333 402.197049,8.62153989 C402.197049,7.87628155 402.493102,7.16154706 403.020079,6.63456983 C403.547056,6.10759261 404.261791,5.81153989 405.007049,5.81153989 Z M405.007049,6.94153989 C404.3226,6.94155187 403.705742,7.35439754 403.444759,7.98713582 C403.183776,8.6198741 403.330207,9.3475511 403.815619,9.8300911 C404.301032,10.3126311 405.029565,10.4547416 405.660743,10.1900079 C406.291921,9.92527431 406.701099,9.30597653 406.697049,8.62153989 C406.691549,7.69208627 405.936519,6.94152362 405.007049,6.94153989 L405.007049,6.94153989 Z" id="Shape-14" fill="#81C926" fill-rule="nonzero"></path>
        <path d="M405.007049,60.0015399 C412.162976,59.9982977 418.320154,54.9407325 419.71326,47.9217188 C421.106365,40.9027052 417.347418,33.8770279 410.735145,31.1411298 C404.122872,28.4052317 396.49878,30.7210562 392.525264,36.6723972 C388.551747,42.6237383 389.335424,50.5531562 394.397049,55.6115399 C397.211484,58.4241723 401.028112,60.0033427 405.007049,60.0015399 Z M405.007049,31.2015399 C412.628579,31.2015399 418.807049,37.3800103 418.807049,45.0015399 C418.807049,52.6230694 412.628579,58.8015399 405.007049,58.8015399 C397.38552,58.8015399 391.207049,52.6230694 391.207049,45.0015399 C391.207049,37.3800103 397.38552,31.2015399 405.007049,31.2015399 L405.007049,31.2015399 Z M401.897049,51.2015399 C401.668363,50.9682338 401.668363,50.594846 401.897049,50.3615399 C402.133748,50.1316447 402.51035,50.1316447 402.747049,50.3615399 L404.357049,52.3615399 L404.357049,43.7615399 C404.357049,43.4301691 404.625678,43.1615399 404.957049,43.1615399 C405.117002,43.1588051 405.271208,43.2211406 405.384328,43.3342607 C405.497448,43.4473808 405.559784,43.6015873 405.557049,43.7615399 L405.557049,52.3615399 L407.177049,50.3615399 C407.41177,50.1268189 407.792328,50.1268189 408.027049,50.3615399 C408.26177,50.5962609 408.26177,50.9768189 408.027049,51.2115399 L405.387049,54.2115399 C405.15035,54.4414351 404.773748,54.4414351 404.537049,54.2115399 L401.897049,51.2015399 Z M394.667049,45.3815399 C394.672507,45.0540808 394.939544,44.7914944 395.267049,44.7915399 C395.425252,44.7888581 395.577903,44.8498327 395.690722,44.9607712 C395.80354,45.0717096 395.867072,45.223314 395.867049,45.3815399 L395.617049,47.9215399 L400.367049,43.1615399 C400.603748,42.9316447 400.98035,42.9316447 401.217049,43.1615399 C401.332551,43.272758 401.397812,43.4261959 401.397812,43.5865399 C401.397812,43.7468839 401.332551,43.9003218 401.217049,44.0115399 L396.467049,48.7715399 L399.007049,48.5115399 C399.332266,48.5221675 399.591888,48.7861901 399.597049,49.1115399 C399.597095,49.4390445 399.334508,49.7060815 399.007049,49.7115399 L395.007049,50.0015399 C394.675678,50.0015399 394.407049,49.7329107 394.407049,49.4015399 L394.667049,45.3815399 Z M411.057049,49.7615399 C410.72959,49.7560815 410.467004,49.4890445 410.467049,49.1615399 C410.464367,49.0033368 410.525342,48.8506861 410.63628,48.7378673 C410.747219,48.6250485 410.898823,48.5615172 411.057049,48.5615399 L413.597049,48.8115399 L408.837049,44.0615399 C408.607154,43.8248405 408.607154,43.4482393 408.837049,43.2115399 C408.948267,43.0960379 409.101705,43.030777 409.262049,43.030777 C409.422393,43.030777 409.575831,43.0960379 409.687049,43.2115399 L414.447049,48.0015399 L414.187049,45.4715399 C414.197683,45.1408006 414.466179,44.8767062 414.797049,44.8715399 C415.120655,44.8768899 415.381699,45.1379338 415.387049,45.4615399 L415.647049,49.4615399 C415.647049,49.7929107 415.37842,50.0615399 415.047049,50.0615399 L411.057049,49.7615399 Z M405.007049,35.8115399 C406.149442,35.807496 407.181412,36.4930803 407.620458,37.5477454 C408.059503,38.6024105 407.818872,39.8177641 407.011073,40.6255634 C406.203273,41.4333626 404.98792,41.6739935 403.933255,41.2349484 C402.878589,40.7959033 402.193005,39.7639333 402.197049,38.6215399 C402.197049,37.8762816 402.493102,37.1615471 403.020079,36.6345698 C403.547056,36.1075926 404.261791,35.8115399 405.007049,35.8115399 Z M405.007049,36.9415399 C404.3226,36.9415519 403.705742,37.3543975 403.444759,37.9871358 C403.183776,38.6198741 403.330207,39.3475511 403.815619,39.8300911 C404.301032,40.3126311 405.029565,40.4547416 405.660743,40.1900079 C406.291921,39.9252743 406.701099,39.3059765 406.697049,38.6215399 C406.691549,37.6920863 405.936519,36.9415236 405.007049,36.9415399 L405.007049,36.9415399 Z" id="Shape-14" fill="#999999" fill-rule="nonzero"></path>
        <g id="Icon_userimg-data-80-submit300" transform="translate(420.000000, 0.000000)" fill-rule="nonzero">
            <rect id="bg" fill-opacity="0" fill="#D8D8D8" x="0" y="0" width="30" height="30"></rect>
            <path d="M15,30 C6.71572875,30 0,23.2842712 0,15 C0,6.71572875 6.71572875,0 15,0 C23.2842712,0 30,6.71572875 30,15 C30,18.9782473 28.4196474,22.793556 25.6066017,25.6066017 C22.793556,28.4196474 18.9782473,30 15,30 Z M15,28.87 C20.6148457,28.8699985 25.6766288,25.4871621 27.8244018,20.2993338 C29.9721749,15.1115054 28.782827,9.14068615 24.8111011,5.17182171 C20.8393752,1.20295726 14.8677002,0.0179129879 9.6814212,2.16942443 C4.49514216,4.32093588 1.11595472,9.3851558 1.12,15 C1.12552004,22.6618068 7.33819122,28.870002 15,28.87 Z" id="Oval-2" fill="#5A81EA"></path>
            <path d="M20.8491915,19.0701022 L20.9291915,12.8801022 L20.9291915,12.8201022 C20.9291915,12.8201022 20.9291915,12.8201022 20.9291915,12.7601022 C20.9339141,12.7437701 20.9339141,12.7264343 20.9291915,12.7101022 L20.9291915,12.6501022 L15.3562265,9.47446384 L15.3562265,5.47446384 C15.3562539,5.34275645 15.3032586,5.21658327 15.2091915,5.1243975 C15.1151244,5.03221173 14.9879065,4.98177593 14.8562265,4.98446384 C14.585607,4.98446384 14.3662265,5.20384431 14.3662265,5.47446384 L14.3662265,9.47446384 L8.74197319,12.5501022 C8.74197319,12.5501022 8.74197319,12.5501022 8.74197319,12.6001022 C8.74197319,12.6001022 8.74197319,12.6001022 8.74197319,12.6501022 C8.74197319,12.6501022 8.74197319,12.6501022 8.74197319,12.7101022 L8.74197319,18.9101022 L5.24919153,20.8201022 C5.01647781,20.951482 4.93195159,21.2450994 5.05919153,21.4801022 C5.14692158,21.6362668 5.31014547,21.7349603 5.48919153,21.7401022 C5.57691679,21.7370528 5.66263804,21.7130508 5.73919153,21.6701022 L9.17919153,19.8201022 L14.4591915,22.9601022 L14.7891915,22.9601022 L20.1791915,19.9601022 L23.5891915,21.9601022 C23.6633225,22.0086356 23.7506364,22.0330835 23.8391915,22.0301022 C24.0127741,22.033819 24.1742671,21.9415373 24.2591915,21.7901022 C24.4575277,21.5910785 24.4575277,21.2691259 24.2591915,21.0701022 L20.8491915,19.0701022 Z M9.64919153,18.9101022 L9.70919153,13.5801022 L14.2891915,16.3001022 L14.2191915,21.6301022 L9.64919153,18.9101022 Z M14.8562265,10.3266663 L19.4391915,12.8201022 L14.7491915,15.4601022 L10.1791915,12.7301022 L14.8562265,10.3266663 Z M15.2791915,16.3201022 L19.9291915,13.7101022 L19.8591915,19.0401022 L15.2091915,21.6501022 L15.2791915,16.3201022 Z" id="data" stroke="#5A81EA" stroke-width="0.2" fill="#5A81EA"></path>
        </g>
        <g id="Group-3" transform="translate(450.000000, 0.000000)" fill-rule="nonzero">
            <rect id="ico-zone-4" fill-opacity="0" fill="#D8D8D8" x="0" y="0" width="30" height="30"></rect>
            <path d="M15,30 C6.71572875,30 0,23.2842712 0,15 C0,6.71572875 6.71572875,0 15,0 C23.2842712,0 30,6.71572875 30,15 C30,18.9782473 28.4196474,22.793556 25.6066017,25.6066017 C22.793556,28.4196474 18.9782473,30 15,30 Z M15,28.87 C20.6148457,28.8699985 25.6766288,25.4871621 27.8244018,20.2993338 C29.9721749,15.1115054 28.782827,9.14068615 24.8111011,5.17182171 C20.8393752,1.20295726 14.8677002,0.0179129879 9.6814212,2.16942443 C4.49514216,4.32093588 1.11595472,9.3851558 1.12,15 C1.12552004,22.6618068 7.33819122,28.870002 15,28.87 Z M9.94,14.44 C7.86893219,14.44 6.19,12.7610678 6.19,10.69 C6.19,8.61893219 7.86893219,6.94 9.94,6.94 C12.0110678,6.94 13.69,8.61893219 13.69,10.69 C13.69,12.7610678 12.0110678,14.44 9.94,14.44 L9.94,14.44 Z M9.94,13.31 C11.0046441,13.3099923 11.9642641,12.668126 12.3707452,11.6841341 C12.7772264,10.7001422 12.5503758,9.56815201 11.7961262,8.81677028 C11.0418766,8.06538855 9.90903043,7.84285195 8.92659416,8.25307867 C7.9441579,8.66330538 7.30595192,9.62536364 7.31,10.69 C7.30999493,11.3866033 7.58740214,12.0545305 8.08091239,12.5461643 C8.57442264,13.0377981 9.24340178,13.3126588 9.94,13.31 L9.94,13.31 Z M20.06,23.06 C17.9889322,23.06 16.31,21.3810678 16.31,19.31 C16.31,17.2389322 17.9889322,15.56 20.06,15.56 C22.1310678,15.56 23.81,17.2389322 23.81,19.31 C23.81,21.3810678 22.1310678,23.06 20.06,23.06 L20.06,23.06 Z M20.06,21.94 C21.1246364,21.9440481 22.0866946,21.3058421 22.4969213,20.3234058 C22.907148,19.3409696 22.6846115,18.2081234 21.9332297,17.4538738 C21.181848,16.6996242 20.0498578,16.4727736 19.0658659,16.8792548 C18.081874,17.2857359 17.4400077,18.2453559 17.44,19.31 C17.4399895,20.7586126 18.6113979,21.934492 20.06,21.94 L20.06,21.94 Z M21.11,8.94 C21.3285616,9.16188307 21.3285616,9.51811693 21.11,9.74 L9.71,21.14 C9.57444115,21.3138457 9.35078955,21.3939367 9.13568885,21.3456643 C8.92058815,21.2973919 8.75260809,21.1294118 8.70433569,20.9143111 C8.65606329,20.6992104 8.73615428,20.4755589 8.91,20.34 L20.31,8.94 C20.5235905,8.71290538 20.8800012,8.69953997 21.11,8.91 L21.11,8.94 Z" id="Oval-2" fill="#81C926"></path>
        </g>
        <g id="Group-3" transform="translate(450.000000, 30.000000)" fill-rule="nonzero">
            <rect id="ico-zone-4" fill-opacity="0" fill="#D8D8D8" x="0" y="0" width="30" height="30"></rect>
            <path d="M15,30 C6.71572875,30 0,23.2842712 0,15 C0,6.71572875 6.71572875,0 15,0 C23.2842712,0 30,6.71572875 30,15 C30,18.9782473 28.4196474,22.793556 25.6066017,25.6066017 C22.793556,28.4196474 18.9782473,30 15,30 Z M15,28.87 C20.6148457,28.8699985 25.6766288,25.4871621 27.8244018,20.2993338 C29.9721749,15.1115054 28.782827,9.14068615 24.8111011,5.17182171 C20.8393752,1.20295726 14.8677002,0.0179129879 9.6814212,2.16942443 C4.49514216,4.32093588 1.11595472,9.3851558 1.12,15 C1.12552004,22.6618068 7.33819122,28.870002 15,28.87 Z M9.94,14.44 C7.86893219,14.44 6.19,12.7610678 6.19,10.69 C6.19,8.61893219 7.86893219,6.94 9.94,6.94 C12.0110678,6.94 13.69,8.61893219 13.69,10.69 C13.69,12.7610678 12.0110678,14.44 9.94,14.44 L9.94,14.44 Z M9.94,13.31 C11.0046441,13.3099923 11.9642641,12.668126 12.3707452,11.6841341 C12.7772264,10.7001422 12.5503758,9.56815201 11.7961262,8.81677028 C11.0418766,8.06538855 9.90903043,7.84285195 8.92659416,8.25307867 C7.9441579,8.66330538 7.30595192,9.62536364 7.31,10.69 C7.30999493,11.3866033 7.58740214,12.0545305 8.08091239,12.5461643 C8.57442264,13.0377981 9.24340178,13.3126588 9.94,13.31 L9.94,13.31 Z M20.06,23.06 C17.9889322,23.06 16.31,21.3810678 16.31,19.31 C16.31,17.2389322 17.9889322,15.56 20.06,15.56 C22.1310678,15.56 23.81,17.2389322 23.81,19.31 C23.81,21.3810678 22.1310678,23.06 20.06,23.06 L20.06,23.06 Z M20.06,21.94 C21.1246364,21.9440481 22.0866946,21.3058421 22.4969213,20.3234058 C22.907148,19.3409696 22.6846115,18.2081234 21.9332297,17.4538738 C21.181848,16.6996242 20.0498578,16.4727736 19.0658659,16.8792548 C18.081874,17.2857359 17.4400077,18.2453559 17.44,19.31 C17.4399895,20.7586126 18.6113979,21.934492 20.06,21.94 L20.06,21.94 Z M21.11,8.94 C21.3285616,9.16188307 21.3285616,9.51811693 21.11,9.74 L9.71,21.14 C9.57444115,21.3138457 9.35078955,21.3939367 9.13568885,21.3456643 C8.92058815,21.2973919 8.75260809,21.1294118 8.70433569,20.9143111 C8.65606329,20.6992104 8.73615428,20.4755589 8.91,20.34 L20.31,8.94 C20.5235905,8.71290538 20.8800012,8.69953997 21.11,8.91 L21.11,8.94 Z" id="Oval-2" fill="#999999"></path>
        </g>
        <g id="Group-9" transform="translate(540.000000, 0.000000)" fill="#FFAF00" fill-rule="nonzero">
            <path d="M9.99057515,14.4105751 C7.91950734,14.4105751 6.24057515,12.7316429 6.24057515,10.6605751 C6.24057515,8.58950734 7.91950734,6.91057515 9.99057515,6.91057515 C12.0616429,6.91057515 13.7405751,8.58950734 13.7405751,10.6605751 C13.7460832,11.6690837 13.3451391,12.6373014 12.6282519,13.3466622 C11.9113647,14.056023 10.9389694,14.4467265 9.93057515,14.4305751 L9.99057515,14.4105751 Z M9.99057515,13.2805751 C11.0552192,13.2805674 12.0148392,12.6387011 12.4213203,11.6547092 C12.8278015,10.6707173 12.6009509,9.53872716 11.8467013,8.78734543 C11.0924517,8.0359637 9.95960558,7.8134271 8.97716931,8.22365382 C7.99473305,8.63388053 7.35652707,9.59593879 7.36057515,10.6605751 C7.34935655,12.0960308 8.4953362,13.2732239 9.93057515,13.3005751 L9.99057515,13.2805751 Z M21.1605751,8.88057515 C21.3791367,9.10245822 21.3791367,9.45869208 21.1605751,9.68057515 L9.76057515,21.0805751 C9.6250163,21.2544208 9.4013647,21.3345118 9.186264,21.2862394 C8.9711633,21.237967 8.80318324,21.0699869 8.75491084,20.8548862 C8.70663844,20.6397855 8.78672943,20.416134 8.96057515,20.2805751 L20.3605751,8.88057515 C20.5786001,8.70436703 20.8923862,8.71284773 21.1005751,8.90057515 L21.1605751,8.88057515 Z" id="Oval-2-2"></path>
            <path d="M28.968966,20.3953614 C30.595842,22.8479219 30.2693153,26.1071576 28.1882364,28.1882364 C26.1071576,30.2693153 22.8479219,30.595842 20.3953614,28.968966 C13.7881326,31.5241011 6.29420795,29.1046104 2.42856204,23.1681999 C-1.43708388,17.2317894 -0.618806615,9.39959529 4.39039433,4.39039433 C9.39959529,-0.618806615 17.2317894,-1.43708388 23.1681999,2.42856204 C29.1046104,6.29420795 31.5241011,13.7881326 28.968966,20.3953614 L28.968966,20.3953614 Z M28.1395847,19.3961068 C30.1690924,13.3112735 27.7482346,6.62954815 22.2921553,3.25681985 C16.8360759,-0.115908433 9.77696912,0.705684991 5.24132706,5.24132706 C0.705684991,9.77696912 -0.115908432,16.8360759 3.25681985,22.2921553 C6.62954815,27.7482346 13.3112735,30.1690924 19.3961068,28.1395847 C17.1042997,25.7051768 17.1618398,21.8902055 19.5260227,19.5260227 C21.8902055,17.1618398 25.7051768,17.1042997 28.1395847,19.3961068 L28.1395847,19.3961068 Z M23.7928271,28.8490555 C25.8378806,28.8490555 27.6815649,27.617145 28.464173,25.727762 C29.2467811,23.8383789 28.8141917,21.6636049 27.3681204,20.2175338 C25.9220493,18.7714625 23.7472753,18.3388731 21.8578923,19.1214813 C19.9685092,19.9040893 18.7365988,21.7477736 18.7365988,23.7928271 C18.7420967,26.5775057 20.998156,28.833565 23.7828346,28.8390629 L23.7928271,28.8490555 Z" id="Combined-Shape-9"></path>
            <path d="M17.06,21.61 C16.2077629,20.4736838 16.070678,18.9533891 16.705898,17.682949 C17.3411181,16.4125089 18.6396048,15.61 20.06,15.61 C21.1582775,15.6077147 22.2014347,16.0908612 22.91,16.93 C22.4164817,16.9388603 21.9260089,17.0094078 21.45,17.14 C21.035224,16.8747733 20.5523075,16.7358045 20.06,16.74 C18.613014,16.74 17.44,17.913014 17.44,19.36 C17.4394232,19.6556539 17.4867011,19.9494525 17.58,20.23 C17.3535753,20.6682061 17.1790617,21.1313383 17.06,21.61 L17.06,21.61 Z" id="Combined-Shape"></path>
            <path d="M26.7036787,23.4439477 C26.9879516,23.4639819 27.2083288,23.7004375 27.208328,23.9854156 C27.2083271,24.2703937 26.9879485,24.5068507 26.7036755,24.5268866 L21.2478568,24.5269027 C20.9635839,24.5068685 20.7432066,24.2704129 20.7432075,23.9854347 C20.7432083,23.7004566 20.9635869,23.4639997 21.24786,23.4439638 L26.7036787,23.4439477 Z" id="Combined-Shape-2"></path>
        </g>
        <g id="Group-9" transform="translate(540.000000, 30.000000)" fill="#999999" fill-rule="nonzero">
            <path d="M9.99057515,14.4105751 C7.91950734,14.4105751 6.24057515,12.7316429 6.24057515,10.6605751 C6.24057515,8.58950734 7.91950734,6.91057515 9.99057515,6.91057515 C12.0616429,6.91057515 13.7405751,8.58950734 13.7405751,10.6605751 C13.7460832,11.6690837 13.3451391,12.6373014 12.6282519,13.3466622 C11.9113647,14.056023 10.9389694,14.4467265 9.93057515,14.4305751 L9.99057515,14.4105751 Z M9.99057515,13.2805751 C11.0552192,13.2805674 12.0148392,12.6387011 12.4213203,11.6547092 C12.8278015,10.6707173 12.6009509,9.53872716 11.8467013,8.78734543 C11.0924517,8.0359637 9.95960558,7.8134271 8.97716931,8.22365382 C7.99473305,8.63388053 7.35652707,9.59593879 7.36057515,10.6605751 C7.34935655,12.0960308 8.4953362,13.2732239 9.93057515,13.3005751 L9.99057515,13.2805751 Z M21.1605751,8.88057515 C21.3791367,9.10245822 21.3791367,9.45869208 21.1605751,9.68057515 L9.76057515,21.0805751 C9.6250163,21.2544208 9.4013647,21.3345118 9.186264,21.2862394 C8.9711633,21.237967 8.80318324,21.0699869 8.75491084,20.8548862 C8.70663844,20.6397855 8.78672943,20.416134 8.96057515,20.2805751 L20.3605751,8.88057515 C20.5786001,8.70436703 20.8923862,8.71284773 21.1005751,8.90057515 L21.1605751,8.88057515 Z" id="Oval-2-2"></path>
            <path d="M28.968966,20.3953614 C30.595842,22.8479219 30.2693153,26.1071576 28.1882364,28.1882364 C26.1071576,30.2693153 22.8479219,30.595842 20.3953614,28.968966 C13.7881326,31.5241011 6.29420795,29.1046104 2.42856204,23.1681999 C-1.43708388,17.2317894 -0.618806615,9.39959529 4.39039433,4.39039433 C9.39959529,-0.618806615 17.2317894,-1.43708388 23.1681999,2.42856204 C29.1046104,6.29420795 31.5241011,13.7881326 28.968966,20.3953614 L28.968966,20.3953614 Z M28.1395847,19.3961068 C30.1690924,13.3112735 27.7482346,6.62954815 22.2921553,3.25681985 C16.8360759,-0.115908433 9.77696912,0.705684991 5.24132706,5.24132706 C0.705684991,9.77696912 -0.115908432,16.8360759 3.25681985,22.2921553 C6.62954815,27.7482346 13.3112735,30.1690924 19.3961068,28.1395847 C17.1042997,25.7051768 17.1618398,21.8902055 19.5260227,19.5260227 C21.8902055,17.1618398 25.7051768,17.1042997 28.1395847,19.3961068 L28.1395847,19.3961068 Z M23.7928271,28.8490555 C25.8378806,28.8490555 27.6815649,27.617145 28.464173,25.727762 C29.2467811,23.8383789 28.8141917,21.6636049 27.3681204,20.2175338 C25.9220493,18.7714625 23.7472753,18.3388731 21.8578923,19.1214813 C19.9685092,19.9040893 18.7365988,21.7477736 18.7365988,23.7928271 C18.7420967,26.5775057 20.998156,28.833565 23.7828346,28.8390629 L23.7928271,28.8490555 Z" id="Combined-Shape-9"></path>
            <path d="M17.06,21.61 C16.2077629,20.4736838 16.070678,18.9533891 16.705898,17.682949 C17.3411181,16.4125089 18.6396048,15.61 20.06,15.61 C21.1582775,15.6077147 22.2014347,16.0908612 22.91,16.93 C22.4164817,16.9388603 21.9260089,17.0094078 21.45,17.14 C21.035224,16.8747733 20.5523075,16.7358045 20.06,16.74 C18.613014,16.74 17.44,17.913014 17.44,19.36 C17.4394232,19.6556539 17.4867011,19.9494525 17.58,20.23 C17.3535753,20.6682061 17.1790617,21.1313383 17.06,21.61 L17.06,21.61 Z" id="Combined-Shape"></path>
            <path d="M26.7036787,23.4439477 C26.9879516,23.4639819 27.2083288,23.7004375 27.208328,23.9854156 C27.2083271,24.2703937 26.9879485,24.5068507 26.7036755,24.5268866 L21.2478568,24.5269027 C20.9635839,24.5068685 20.7432066,24.2704129 20.7432075,23.9854347 C20.7432083,23.7004566 20.9635869,23.4639997 21.24786,23.4439638 L26.7036787,23.4439477 Z" id="Combined-Shape-2"></path>
        </g>
        <g id="Group-8" transform="translate(510.000000, 0.000000)" fill="#81C926" fill-rule="nonzero">
            <path d="M9.99057515,14.4105751 C7.91950734,14.4105751 6.24057515,12.7316429 6.24057515,10.6605751 C6.24057515,8.58950734 7.91950734,6.91057515 9.99057515,6.91057515 C12.0616429,6.91057515 13.7405751,8.58950734 13.7405751,10.6605751 C13.7460832,11.6690837 13.3451391,12.6373014 12.6282519,13.3466622 C11.9113647,14.056023 10.9389694,14.4467265 9.93057515,14.4305751 L9.99057515,14.4105751 Z M9.99057515,13.2805751 C11.0552192,13.2805674 12.0148392,12.6387011 12.4213203,11.6547092 C12.8278015,10.6707173 12.6009509,9.53872716 11.8467013,8.78734543 C11.0924517,8.0359637 9.95960558,7.8134271 8.97716931,8.22365382 C7.99473305,8.63388053 7.35652707,9.59593879 7.36057515,10.6605751 C7.34935655,12.0960308 8.4953362,13.2732239 9.93057515,13.3005751 L9.99057515,13.2805751 Z M21.1605751,8.88057515 C21.3791367,9.10245822 21.3791367,9.45869208 21.1605751,9.68057515 L9.76057515,21.0805751 C9.6250163,21.2544208 9.4013647,21.3345118 9.186264,21.2862394 C8.9711633,21.237967 8.80318324,21.0699869 8.75491084,20.8548862 C8.70663844,20.6397855 8.78672943,20.416134 8.96057515,20.2805751 L20.3605751,8.88057515 C20.5786001,8.70436703 20.8923862,8.71284773 21.1005751,8.90057515 L21.1605751,8.88057515 Z" id="Oval-2-2"></path>
            <path d="M28.968966,20.3953614 C30.595842,22.8479219 30.2693153,26.1071576 28.1882364,28.1882364 C26.1071576,30.2693153 22.8479219,30.595842 20.3953614,28.968966 C13.7881326,31.5241011 6.29420795,29.1046104 2.42856204,23.1681999 C-1.43708388,17.2317894 -0.618806615,9.39959529 4.39039433,4.39039433 C9.39959529,-0.618806615 17.2317894,-1.43708388 23.1681999,2.42856204 C29.1046104,6.29420795 31.5241011,13.7881326 28.968966,20.3953614 L28.968966,20.3953614 Z M28.1395847,19.3961068 C30.1690924,13.3112735 27.7482346,6.62954815 22.2921553,3.25681985 C16.8360759,-0.115908433 9.77696912,0.705684991 5.24132706,5.24132706 C0.705684991,9.77696912 -0.115908432,16.8360759 3.25681985,22.2921553 C6.62954815,27.7482346 13.3112735,30.1690924 19.3961068,28.1395847 C17.1042997,25.7051768 17.1618398,21.8902055 19.5260227,19.5260227 C21.8902055,17.1618398 25.7051768,17.1042997 28.1395847,19.3961068 L28.1395847,19.3961068 Z M23.7928271,28.8490555 C25.8378806,28.8490555 27.6815649,27.617145 28.464173,25.727762 C29.2467811,23.8383789 28.8141917,21.6636049 27.3681204,20.2175338 C25.9220493,18.7714625 23.7472753,18.3388731 21.8578923,19.1214813 C19.9685092,19.9040893 18.7365988,21.7477736 18.7365988,23.7928271 C18.7420967,26.5775057 20.998156,28.833565 23.7828346,28.8390629 L23.7928271,28.8490555 Z" id="Combined-Shape-9"></path>
            <path d="M17.06,21.61 C16.2077629,20.4736838 16.070678,18.9533891 16.705898,17.682949 C17.3411181,16.4125089 18.6396048,15.61 20.06,15.61 C21.1582775,15.6077147 22.2014347,16.0908612 22.91,16.93 C22.4164817,16.9388603 21.9260089,17.0094078 21.45,17.14 C21.035224,16.8747733 20.5523075,16.7358045 20.06,16.74 C18.613014,16.74 17.44,17.913014 17.44,19.36 C17.4394232,19.6556539 17.4867011,19.9494525 17.58,20.23 C17.3535753,20.6682061 17.1790617,21.1313383 17.06,21.61 L17.06,21.61 Z" id="Combined-Shape"></path>
            <path d="M24.5172388,23.4371001 L26.7036787,23.4439477 C26.9879516,23.4639819 27.2083288,23.7004375 27.208328,23.9854156 C27.2083271,24.2703937 26.9879485,24.5068507 26.7036755,24.5268866 L24.5240896,24.526893 L24.5172291,26.7133329 C24.4971932,26.997606 24.2607363,27.2179846 23.9757582,27.2179854 C23.69078,27.2179863 23.4543244,26.997609 23.4342902,26.7133361 L23.4274426,24.5268963 L21.2478568,24.5269027 C20.9635839,24.5068685 20.7432066,24.2704129 20.7432075,23.9854347 C20.7432083,23.7004566 20.9635869,23.4639997 21.24786,23.4439638 L23.4342999,23.4371033 L23.4343063,21.2575174 C23.4543422,20.9732444 23.6907992,20.7528658 23.9757773,20.7528649 C24.2607554,20.7528641 24.497211,20.9732413 24.5172452,21.2575142 L24.5172388,23.4371001 Z" id="Combined-Shape-2"></path>
        </g>
        <g id="Group-8" transform="translate(510.000000, 30.000000)" fill="#999999" fill-rule="nonzero">
            <path d="M9.99057515,14.4105751 C7.91950734,14.4105751 6.24057515,12.7316429 6.24057515,10.6605751 C6.24057515,8.58950734 7.91950734,6.91057515 9.99057515,6.91057515 C12.0616429,6.91057515 13.7405751,8.58950734 13.7405751,10.6605751 C13.7460832,11.6690837 13.3451391,12.6373014 12.6282519,13.3466622 C11.9113647,14.056023 10.9389694,14.4467265 9.93057515,14.4305751 L9.99057515,14.4105751 Z M9.99057515,13.2805751 C11.0552192,13.2805674 12.0148392,12.6387011 12.4213203,11.6547092 C12.8278015,10.6707173 12.6009509,9.53872716 11.8467013,8.78734543 C11.0924517,8.0359637 9.95960558,7.8134271 8.97716931,8.22365382 C7.99473305,8.63388053 7.35652707,9.59593879 7.36057515,10.6605751 C7.34935655,12.0960308 8.4953362,13.2732239 9.93057515,13.3005751 L9.99057515,13.2805751 Z M21.1605751,8.88057515 C21.3791367,9.10245822 21.3791367,9.45869208 21.1605751,9.68057515 L9.76057515,21.0805751 C9.6250163,21.2544208 9.4013647,21.3345118 9.186264,21.2862394 C8.9711633,21.237967 8.80318324,21.0699869 8.75491084,20.8548862 C8.70663844,20.6397855 8.78672943,20.416134 8.96057515,20.2805751 L20.3605751,8.88057515 C20.5786001,8.70436703 20.8923862,8.71284773 21.1005751,8.90057515 L21.1605751,8.88057515 Z" id="Oval-2-2"></path>
            <path d="M28.968966,20.3953614 C30.595842,22.8479219 30.2693153,26.1071576 28.1882364,28.1882364 C26.1071576,30.2693153 22.8479219,30.595842 20.3953614,28.968966 C13.7881326,31.5241011 6.29420795,29.1046104 2.42856204,23.1681999 C-1.43708388,17.2317894 -0.618806615,9.39959529 4.39039433,4.39039433 C9.39959529,-0.618806615 17.2317894,-1.43708388 23.1681999,2.42856204 C29.1046104,6.29420795 31.5241011,13.7881326 28.968966,20.3953614 L28.968966,20.3953614 Z M28.1395847,19.3961068 C30.1690924,13.3112735 27.7482346,6.62954815 22.2921553,3.25681985 C16.8360759,-0.115908433 9.77696912,0.705684991 5.24132706,5.24132706 C0.705684991,9.77696912 -0.115908432,16.8360759 3.25681985,22.2921553 C6.62954815,27.7482346 13.3112735,30.1690924 19.3961068,28.1395847 C17.1042997,25.7051768 17.1618398,21.8902055 19.5260227,19.5260227 C21.8902055,17.1618398 25.7051768,17.1042997 28.1395847,19.3961068 L28.1395847,19.3961068 Z M23.7928271,28.8490555 C25.8378806,28.8490555 27.6815649,27.617145 28.464173,25.727762 C29.2467811,23.8383789 28.8141917,21.6636049 27.3681204,20.2175338 C25.9220493,18.7714625 23.7472753,18.3388731 21.8578923,19.1214813 C19.9685092,19.9040893 18.7365988,21.7477736 18.7365988,23.7928271 C18.7420967,26.5775057 20.998156,28.833565 23.7828346,28.8390629 L23.7928271,28.8490555 Z" id="Combined-Shape-9"></path>
            <path d="M17.06,21.61 C16.2077629,20.4736838 16.070678,18.9533891 16.705898,17.682949 C17.3411181,16.4125089 18.6396048,15.61 20.06,15.61 C21.1582775,15.6077147 22.2014347,16.0908612 22.91,16.93 C22.4164817,16.9388603 21.9260089,17.0094078 21.45,17.14 C21.035224,16.8747733 20.5523075,16.7358045 20.06,16.74 C18.613014,16.74 17.44,17.913014 17.44,19.36 C17.4394232,19.6556539 17.4867011,19.9494525 17.58,20.23 C17.3535753,20.6682061 17.1790617,21.1313383 17.06,21.61 L17.06,21.61 Z" id="Combined-Shape"></path>
            <path d="M24.5172388,23.4371001 L26.7036787,23.4439477 C26.9879516,23.4639819 27.2083288,23.7004375 27.208328,23.9854156 C27.2083271,24.2703937 26.9879485,24.5068507 26.7036755,24.5268866 L24.5240896,24.526893 L24.5172291,26.7133329 C24.4971932,26.997606 24.2607363,27.2179846 23.9757582,27.2179854 C23.69078,27.2179863 23.4543244,26.997609 23.4342902,26.7133361 L23.4274426,24.5268963 L21.2478568,24.5269027 C20.9635839,24.5068685 20.7432066,24.2704129 20.7432075,23.9854347 C20.7432083,23.7004566 20.9635869,23.4639997 21.24786,23.4439638 L23.4342999,23.4371033 L23.4343063,21.2575174 C23.4543422,20.9732444 23.6907992,20.7528658 23.9757773,20.7528649 C24.2607554,20.7528641 24.497211,20.9732413 24.5172452,21.2575142 L24.5172388,23.4371001 Z" id="Combined-Shape-2"></path>
        </g>
        <g id="Group-7" transform="translate(480.000000, 0.000000)" fill="#EF4829" fill-rule="nonzero">
            <path d="M9.99057515,14.4105751 C7.91950734,14.4105751 6.24057515,12.7316429 6.24057515,10.6605751 C6.24057515,8.58950734 7.91950734,6.91057515 9.99057515,6.91057515 C12.0616429,6.91057515 13.7405751,8.58950734 13.7405751,10.6605751 C13.7460832,11.6690837 13.3451391,12.6373014 12.6282519,13.3466622 C11.9113647,14.056023 10.9389694,14.4467265 9.93057515,14.4305751 L9.99057515,14.4105751 Z M9.99057515,13.2805751 C11.0552192,13.2805674 12.0148392,12.6387011 12.4213203,11.6547092 C12.8278015,10.6707173 12.6009509,9.53872716 11.8467013,8.78734543 C11.0924517,8.0359637 9.95960558,7.8134271 8.97716931,8.22365382 C7.99473305,8.63388053 7.35652707,9.59593879 7.36057515,10.6605751 C7.34935655,12.0960308 8.4953362,13.2732239 9.93057515,13.3005751 L9.99057515,13.2805751 Z M21.1605751,8.88057515 C21.3791367,9.10245822 21.3791367,9.45869208 21.1605751,9.68057515 L9.76057515,21.0805751 C9.6250163,21.2544208 9.4013647,21.3345118 9.186264,21.2862394 C8.9711633,21.237967 8.80318324,21.0699869 8.75491084,20.8548862 C8.70663844,20.6397855 8.78672943,20.416134 8.96057515,20.2805751 L20.3605751,8.88057515 C20.5786001,8.70436703 20.8923862,8.71284773 21.1005751,8.90057515 L21.1605751,8.88057515 Z" id="Oval-2-2"></path>
            <path d="M28.968966,20.3953614 C30.595842,22.8479219 30.2693153,26.1071576 28.1882364,28.1882364 C26.1071576,30.2693153 22.8479219,30.595842 20.3953614,28.968966 C13.7881326,31.5241011 6.29420795,29.1046104 2.42856204,23.1681999 C-1.43708388,17.2317894 -0.618806615,9.39959529 4.39039433,4.39039433 C9.39959529,-0.618806615 17.2317894,-1.43708388 23.1681999,2.42856204 C29.1046104,6.29420795 31.5241011,13.7881326 28.968966,20.3953614 L28.968966,20.3953614 Z M28.1395847,19.3961068 C30.1690924,13.3112735 27.7482346,6.62954815 22.2921553,3.25681985 C16.8360759,-0.115908433 9.77696912,0.705684991 5.24132706,5.24132706 C0.705684991,9.77696912 -0.115908432,16.8360759 3.25681985,22.2921553 C6.62954815,27.7482346 13.3112735,30.1690924 19.3961068,28.1395847 C17.1042997,25.7051768 17.1618398,21.8902055 19.5260227,19.5260227 C21.8902055,17.1618398 25.7051768,17.1042997 28.1395847,19.3961068 L28.1395847,19.3961068 Z M23.7928271,28.8490555 C25.8378806,28.8490555 27.6815649,27.617145 28.464173,25.727762 C29.2467811,23.8383789 28.8141917,21.6636049 27.3681204,20.2175338 C25.9220493,18.7714625 23.7472753,18.3388731 21.8578923,19.1214813 C19.9685092,19.9040893 18.7365988,21.7477736 18.7365988,23.7928271 C18.7420967,26.5775057 20.998156,28.833565 23.7828346,28.8390629 L23.7928271,28.8490555 Z" id="Combined-Shape-9"></path>
            <path d="M17.06,21.61 C16.2077629,20.4736838 16.070678,18.9533891 16.705898,17.682949 C17.3411181,16.4125089 18.6396048,15.61 20.06,15.61 C21.1582775,15.6077147 22.2014347,16.0908612 22.91,16.93 C22.4164817,16.9388603 21.9260089,17.0094078 21.45,17.14 C21.035224,16.8747733 20.5523075,16.7358045 20.06,16.74 C18.613014,16.74 17.44,17.913014 17.44,19.36 C17.4394232,19.6556539 17.4867011,19.9494525 17.58,20.23 C17.3535753,20.6682061 17.1790617,21.1313383 17.06,21.61 L17.06,21.61 Z" id="Combined-Shape"></path>
            <path d="M23.9709212,23.2148229 L25.5218096,21.6736184 C25.7369873,21.4867735 26.0600169,21.4981426 26.2615262,21.6996532 C26.4630356,21.9011637 26.4744047,22.2241952 26.2875608,22.4393741 L24.7463654,23.9805786 L26.2875608,25.5314762 C26.4744047,25.7466551 26.4630356,26.0696867 26.2615262,26.2711972 C26.0600169,26.4727078 25.7369873,26.4840769 25.5218096,26.2972319 L23.9709212,24.7560274 L22.4297258,26.2972319 C22.2145482,26.4840769 21.8915186,26.4727078 21.6900092,26.2711972 C21.4884999,26.0696867 21.4771308,25.7466551 21.6639746,25.5314762 L23.20517,23.9805786 L21.6639746,22.4393741 C21.4771308,22.2241952 21.4884999,21.9011637 21.6900092,21.6996532 C21.8915186,21.4981426 22.2145482,21.4867735 22.4297258,21.6736184 L23.9709212,23.2148229 Z" id="Combined-Shape-2"></path>
        </g>
        <g id="Group-4" transform="translate(570.000000, 0.000000)" fill-rule="nonzero">
            <rect id="ico-zone-8" fill-opacity="0" fill="#D8D8D8" x="0" y="0" width="30" height="30"></rect>
            <path d="M15,30 C6.71572875,30 0,23.2842712 0,15 C0,6.71572875 6.71572875,0 15,0 C23.2842712,0 30,6.71572875 30,15 C30,18.9782473 28.4196474,22.793556 25.6066017,25.6066017 C22.793556,28.4196474 18.9782473,30 15,30 Z M15,28.87 C20.6148457,28.8699985 25.6766288,25.4871621 27.8244018,20.2993338 C29.9721749,15.1115054 28.782827,9.14068615 24.8111011,5.17182171 C20.8393752,1.20295726 14.8677002,0.0179129879 9.6814212,2.16942443 C4.49514216,4.32093588 1.11595472,9.3851558 1.12,15 C1.12552004,22.6618068 7.33819122,28.870002 15,28.87 L15,28.87 Z" id="Combined-Shape-7" fill="#81C926"></path>
            <path d="M18.42,7.91 C18.6989061,8.04504493 18.818831,8.37816971 18.69,8.66 L12.51,21.92 C12.4435444,22.1283544 12.2618786,22.2789592 12.0448171,22.3056465 C11.8277556,22.3323338 11.6150186,22.23022 11.5000716,22.0441687 C11.3851246,21.8581173 11.3890019,21.622174 11.51,21.44 L17.69,8.18 C17.8208021,7.90797135 18.1436668,7.78855564 18.42,7.91 L18.42,7.91 Z" id="Rectangle-2-2" fill="#81C926"></path>
            <path d="M9.55,10.93 C9.76856159,11.1518831 9.76856159,11.5081169 9.55,11.73 L5.84,15.44 C5.70265318,15.5981746 5.48850927,15.6664656 5.28494786,15.6170076 C5.08138644,15.5675495 4.92245048,15.4086136 4.87299242,15.2050521 C4.82353436,15.0014907 4.89182541,14.7873468 5.05,14.65 L8.76,10.93 C8.97846757,10.7126096 9.33153243,10.7126096 9.55,10.93 L9.55,10.93 Z M5,14.64 C5.22188307,14.4214384 5.57811693,14.4214384 5.8,14.64 L9.51,18.36 C9.72739043,18.5784676 9.72739043,18.9315324 9.51,19.15 C9.28811693,19.3685616 8.93188307,19.3685616 8.71,19.15 L5,15.44 C4.78143841,15.2181169 4.78143841,14.8618831 5,14.64 L5,14.64 Z" id="Oval-2-5" fill="#81C926"></path>
            <path d="M20.45,10.93 C20.2314384,11.1518831 20.2314384,11.5081169 20.45,11.73 L24.16,15.44 C24.3818831,15.6585616 24.7381169,15.6585616 24.96,15.44 C25.1773904,15.2215324 25.1773904,14.8684676 24.96,14.65 L21.24,10.93 C21.0215324,10.7126096 20.6684676,10.7126096 20.45,10.93 L20.45,10.93 Z M25,14.64 C24.7815324,14.4226096 24.4284676,14.4226096 24.21,14.64 L20.49,18.36 C20.2726096,18.5784676 20.2726096,18.9315324 20.49,19.15 C20.7118831,19.3685616 21.0681169,19.3685616 21.29,19.15 L25,15.44 C25.2185616,15.2181169 25.2185616,14.8618831 25,14.64 L25,14.64 Z" id="Oval-2-6" fill="#81C926"></path>
        </g>
        <g id="Group-4" transform="translate(570.000000, 30.000000)" fill-rule="nonzero">
            <rect id="ico-zone-8" fill-opacity="0" fill="#D8D8D8" x="0" y="0" width="30" height="30"></rect>
            <path d="M15,30 C6.71572875,30 0,23.2842712 0,15 C0,6.71572875 6.71572875,0 15,0 C23.2842712,0 30,6.71572875 30,15 C30,18.9782473 28.4196474,22.793556 25.6066017,25.6066017 C22.793556,28.4196474 18.9782473,30 15,30 Z M15,28.87 C20.6148457,28.8699985 25.6766288,25.4871621 27.8244018,20.2993338 C29.9721749,15.1115054 28.782827,9.14068615 24.8111011,5.17182171 C20.8393752,1.20295726 14.8677002,0.0179129879 9.6814212,2.16942443 C4.49514216,4.32093588 1.11595472,9.3851558 1.12,15 C1.12552004,22.6618068 7.33819122,28.870002 15,28.87 L15,28.87 Z" id="Combined-Shape-7" fill="#999999"></path>
            <path d="M18.42,7.91 C18.6989061,8.04504493 18.818831,8.37816971 18.69,8.66 L12.51,21.92 C12.4435444,22.1283544 12.2618786,22.2789592 12.0448171,22.3056465 C11.8277556,22.3323338 11.6150186,22.23022 11.5000716,22.0441687 C11.3851246,21.8581173 11.3890019,21.622174 11.51,21.44 L17.69,8.18 C17.8208021,7.90797135 18.1436668,7.78855564 18.42,7.91 L18.42,7.91 Z" id="Rectangle-2-2" fill="#999999"></path>
            <path d="M9.55,10.93 C9.76856159,11.1518831 9.76856159,11.5081169 9.55,11.73 L5.84,15.44 C5.70265318,15.5981746 5.48850927,15.6664656 5.28494786,15.6170076 C5.08138644,15.5675495 4.92245048,15.4086136 4.87299242,15.2050521 C4.82353436,15.0014907 4.89182541,14.7873468 5.05,14.65 L8.76,10.93 C8.97846757,10.7126096 9.33153243,10.7126096 9.55,10.93 L9.55,10.93 Z M5,14.64 C5.22188307,14.4214384 5.57811693,14.4214384 5.8,14.64 L9.51,18.36 C9.72739043,18.5784676 9.72739043,18.9315324 9.51,19.15 C9.28811693,19.3685616 8.93188307,19.3685616 8.71,19.15 L5,15.44 C4.78143841,15.2181169 4.78143841,14.8618831 5,14.64 L5,14.64 Z" id="Oval-2-5" fill="#999999"></path>
            <path d="M20.45,10.93 C20.2314384,11.1518831 20.2314384,11.5081169 20.45,11.73 L24.16,15.44 C24.3818831,15.6585616 24.7381169,15.6585616 24.96,15.44 C25.1773904,15.2215324 25.1773904,14.8684676 24.96,14.65 L21.24,10.93 C21.0215324,10.7126096 20.6684676,10.7126096 20.45,10.93 L20.45,10.93 Z M25,14.64 C24.7815324,14.4226096 24.4284676,14.4226096 24.21,14.64 L20.49,18.36 C20.2726096,18.5784676 20.2726096,18.9315324 20.49,19.15 C20.7118831,19.3685616 21.0681169,19.3685616 21.29,19.15 L25,15.44 C25.2185616,15.2181169 25.2185616,14.8618831 25,14.64 L25,14.64 Z" id="Oval-2-6" fill="#999999"></path>
        </g>
        <g id="Group-5" transform="translate(600.000000, 0.000000)" fill-rule="nonzero">
            <rect id="ico-zone-10" fill-opacity="0" fill="#D8D8D8" x="0" y="0" width="30" height="30"></rect>
            <path d="M28.968966,20.3953614 C30.595842,22.8479219 30.2693153,26.1071576 28.1882364,28.1882364 C26.1071576,30.2693153 22.8479219,30.595842 20.3953614,28.968966 C13.7881326,31.5241011 6.29420795,29.1046104 2.42856204,23.1681999 C-1.43708388,17.2317894 -0.618806615,9.39959529 4.39039433,4.39039433 C9.39959529,-0.618806615 17.2317894,-1.43708388 23.1681999,2.42856204 C29.1046104,6.29420795 31.5241011,13.7881326 28.968966,20.3953614 L28.968966,20.3953614 Z M28.1395847,19.3961068 C30.1690924,13.3112735 27.7482346,6.62954815 22.2921553,3.25681985 C16.8360759,-0.115908433 9.77696912,0.705684991 5.24132706,5.24132706 C0.705684991,9.77696912 -0.115908432,16.8360759 3.25681985,22.2921553 C6.62954815,27.7482346 13.3112735,30.1690924 19.3961068,28.1395847 C17.1042997,25.7051768 17.1618398,21.8902055 19.5260227,19.5260227 C21.8902055,17.1618398 25.7051768,17.1042997 28.1395847,19.3961068 L28.1395847,19.3961068 Z M23.7928271,28.8490555 C25.8378806,28.8490555 27.6815649,27.617145 28.464173,25.727762 C29.2467811,23.8383789 28.8141917,21.6636049 27.3681204,20.2175338 C25.9220493,18.7714625 23.7472753,18.3388731 21.8578923,19.1214813 C19.9685092,19.9040893 18.7365988,21.7477736 18.7365988,23.7928271 C18.7420967,26.5775057 20.998156,28.833565 23.7828346,28.8390629 L23.7928271,28.8490555 Z" id="Combined-Shape-9" fill="#EF4829"></path>
            <path d="M23.78,23.05 L25.38,21.46 C25.6019916,21.2672394 25.9352505,21.2789685 26.143141,21.486859 C26.3510315,21.6947495 26.3627606,22.0280084 26.17,22.25 L24.58,23.84 L26.17,25.44 C26.3627606,25.6619916 26.3510315,25.9952505 26.143141,26.203141 C25.9352505,26.4110315 25.6019916,26.4227606 25.38,26.23 L23.78,24.64 L22.19,26.23 C21.9680084,26.4227606 21.6347495,26.4110315 21.426859,26.203141 C21.2189685,25.9952505 21.2072394,25.6619916 21.4,25.44 L22.99,23.84 L21.4,22.25 C21.2072394,22.0280084 21.2189685,21.6947495 21.426859,21.486859 C21.6347495,21.2789685 21.9680084,21.2672394 22.19,21.46 L23.78,23.05 Z" id="Combined-Shape-10" fill="#EF4829"></path>
            <path d="M18.42,7.91 C18.6989061,8.04504493 18.818831,8.37816971 18.69,8.66 L12.51,21.92 C12.4435444,22.1283544 12.2618786,22.2789592 12.0448171,22.3056465 C11.8277556,22.3323338 11.6150186,22.23022 11.5000716,22.0441687 C11.3851246,21.8581173 11.3890019,21.622174 11.51,21.44 L17.69,8.18 C17.8208021,7.90797135 18.1436668,7.78855564 18.42,7.91 L18.42,7.91 Z" id="Rectangle-4-2" fill="#EF4829"></path>
            <path d="M6.24,15.05 L9.55,18.36 C9.76739043,18.5784676 9.76739043,18.9315324 9.55,19.15 C9.32811693,19.3685616 8.97188307,19.3685616 8.75,19.15 L5,15.44 C4.78143841,15.2181169 4.78143841,14.8618831 5,14.64 L5.06,14.59 L8.72,10.93 C8.93846757,10.7126096 9.29153243,10.7126096 9.51,10.93 C9.72856159,11.1518831 9.72856159,11.5081169 9.51,11.73 L6.24,15.05 Z" id="Oval-2-9" fill="#EF4829"></path>
            <path d="M23.48,16.93 L25,15.44 C25.2185616,15.2181169 25.2185616,14.8618831 25,14.64 L24.94,14.59 L21.28,10.93 C21.0615324,10.7126096 20.7084676,10.7126096 20.49,10.93 C20.2714384,11.1518831 20.2714384,11.5081169 20.49,11.73 L23.77,15.05 L21.61,17.2 C22.2023425,17.0147127 22.8193544,16.9203065 23.44,16.92 L23.48,16.93 Z" id="Oval-2-10" fill="#EF4829"></path>
        </g>
        <g id="Group-6" transform="translate(630.000000, 0.000000)" fill-rule="nonzero">
            <rect id="ico-zone-11" fill-opacity="0" fill="#D8D8D8" x="0" y="0" width="30" height="30"></rect>
            <path d="M28.968966,20.3953614 C30.595842,22.8479219 30.2693153,26.1071576 28.1882364,28.1882364 C26.1071576,30.2693153 22.8479219,30.595842 20.3953614,28.968966 C13.7881326,31.5241011 6.29420795,29.1046104 2.42856204,23.1681999 C-1.43708388,17.2317894 -0.618806615,9.39959529 4.39039433,4.39039433 C9.39959529,-0.618806615 17.2317894,-1.43708388 23.1681999,2.42856204 C29.1046104,6.29420795 31.5241011,13.7881326 28.968966,20.3953614 L28.968966,20.3953614 Z M28.1395847,19.3961068 C30.1690924,13.3112735 27.7482346,6.62954815 22.2921553,3.25681985 C16.8360759,-0.115908433 9.77696912,0.705684991 5.24132706,5.24132706 C0.705684991,9.77696912 -0.115908432,16.8360759 3.25681985,22.2921553 C6.62954815,27.7482346 13.3112735,30.1690924 19.3961068,28.1395847 C17.1042997,25.7051768 17.1618398,21.8902055 19.5260227,19.5260227 C21.8902055,17.1618398 25.7051768,17.1042997 28.1395847,19.3961068 L28.1395847,19.3961068 Z M23.7928271,28.8490555 C25.8378806,28.8490555 27.6815649,27.617145 28.464173,25.727762 C29.2467811,23.8383789 28.8141917,21.6636049 27.3681204,20.2175338 C25.9220493,18.7714625 23.7472753,18.3388731 21.8578923,19.1214813 C19.9685092,19.9040893 18.7365988,21.7477736 18.7365988,23.7928271 C18.7420967,26.5775057 20.998156,28.833565 23.7828346,28.8390629 L23.7928271,28.8490555 Z" id="Combined-Shape-11" fill="#5A81EA"></path>
            <path d="M18.42,7.91 L18.42,7.91 C18.6989061,8.04504493 18.818831,8.37816971 18.69,8.66 L12.51,21.92 C12.3749551,22.1989061 12.0418303,22.318831 11.76,22.19 L11.76,22.19 C11.4810939,22.0549551 11.361169,21.7218303 11.49,21.44 L17.67,8.18 C17.7328929,8.04405298 17.8476278,7.9389688 17.9885635,7.88823194 C18.1294992,7.83749508 18.2848869,7.84533514 18.42,7.91 L18.42,7.91 Z" id="Rectangle-5-2" fill="#5A81EA"></path>
            <path d="M6.24,15.05 L9.55,18.36 C9.76739043,18.5784676 9.76739043,18.9315324 9.55,19.15 C9.32811693,19.3685616 8.97188307,19.3685616 8.75,19.15 L5,15.44 C4.78143841,15.2181169 4.78143841,14.8618831 5,14.64 L5.06,14.59 L8.72,10.93 C8.93846757,10.7126096 9.29153243,10.7126096 9.51,10.93 C9.72856159,11.1518831 9.72856159,11.5081169 9.51,11.73 L6.24,15.05 Z" id="Oval-2-11" fill="#5A81EA"></path>
            <path d="M23.48,16.93 L25,15.44 C25.2185616,15.2181169 25.2185616,14.8618831 25,14.64 L24.94,14.59 L21.28,10.93 C21.0615324,10.7126096 20.7084676,10.7126096 20.49,10.93 C20.2714384,11.1518831 20.2714384,11.5081169 20.49,11.73 L23.77,15.05 L21.61,17.2 C22.2023425,17.0147127 22.8193544,16.9203065 23.44,16.92 L23.48,16.93 Z" id="Oval-2-12" fill="#5A81EA"></path>
            <path d="M22.08,23.25 C22.0413339,23.3674969 21.9569766,23.4644703 21.8459662,23.5190347 C21.7349558,23.5735992 21.6066481,23.5811561 21.49,23.54 C21.3717776,23.4991662 21.2747073,23.412894 21.2202782,23.3002822 C21.1658492,23.1876704 21.1585513,23.0580082 21.2,22.94 C21.5151631,22.0450019 22.2665067,21.3736011 23.1911771,21.1606836 C24.1158476,20.947766 25.0851579,21.2229637 25.76,21.89 L27,23.05 C27.175242,23.2351025 27.175242,23.5248975 27,23.71 C26.9116507,23.7997807 26.790961,23.8503411 26.665,23.8503411 C26.539039,23.8503411 26.4183493,23.7997807 26.33,23.71 L25.14,22.59 C24.6937198,22.1599626 24.0609341,21.9834828 23.4565101,22.1204856 C22.852086,22.2574884 22.3572398,22.6895647 22.14,23.27 L22.08,23.25 Z M20.68,24.72 C20.4894618,24.5432689 20.478269,24.2455383 20.6550001,24.0550001 C20.8317312,23.8644619 21.1294618,23.853269 21.32,24.03 L22.52,25.16 C22.9655524,25.5948092 23.6015943,25.7732816 24.2083095,25.6337371 C24.8150248,25.4941926 25.3091818,25.0557745 25.52,24.47 C25.6091581,24.2277219 25.877043,24.102709 26.12,24.19 C26.3623719,24.2793794 26.4905368,24.5445481 26.41,24.79 C26.0792575,25.6732238 25.3232793,26.3285295 24.4020511,26.5305532 C23.4808229,26.7325769 22.5199942,26.453764 21.85,25.79 L20.68,24.72 Z M26.16,21.82 C26.1331787,21.6375929 26.2154835,21.4563499 26.3704779,21.3565077 C26.5254723,21.2566655 26.7245277,21.2566655 26.8795221,21.3565077 C27.0345165,21.4563499 27.1168213,21.6375929 27.09,21.82 L27.09,23.35 C27.09,23.6095738 26.8795738,23.82 26.62,23.82 L25.09,23.82 C24.8304262,23.82 24.62,23.6095738 24.62,23.35 C24.62,23.0904262 24.8304262,22.88 25.09,22.88 L26.16,22.88 L26.16,21.82 Z M21.47,25.91 C21.47,26.1695738 21.2595738,26.38 21,26.38 C20.7404262,26.38 20.53,26.1695738 20.53,25.91 L20.53,24.37 C20.5354408,24.1143397 20.7442818,23.9099421 21,23.91 L22.53,23.91 C22.7124071,23.8831787 22.8936501,23.9654835 22.9934923,24.1204779 C23.0933345,24.2754723 23.0933345,24.4745277 22.9934923,24.6295221 C22.8936501,24.7845165 22.7124071,24.8668213 22.53,24.84 L21.47,24.84 L21.47,25.91 Z" id="Shape-16" fill="#5A81EA"></path>
        </g>
        <g id="Group-6" transform="translate(630.000000, 30.000000)" fill-rule="nonzero">
            <rect id="ico-zone-11" fill-opacity="0" fill="#D8D8D8" x="0" y="0" width="30" height="30"></rect>
            <path d="M28.968966,20.3953614 C30.595842,22.8479219 30.2693153,26.1071576 28.1882364,28.1882364 C26.1071576,30.2693153 22.8479219,30.595842 20.3953614,28.968966 C13.7881326,31.5241011 6.29420795,29.1046104 2.42856204,23.1681999 C-1.43708388,17.2317894 -0.618806615,9.39959529 4.39039433,4.39039433 C9.39959529,-0.618806615 17.2317894,-1.43708388 23.1681999,2.42856204 C29.1046104,6.29420795 31.5241011,13.7881326 28.968966,20.3953614 L28.968966,20.3953614 Z M28.1395847,19.3961068 C30.1690924,13.3112735 27.7482346,6.62954815 22.2921553,3.25681985 C16.8360759,-0.115908433 9.77696912,0.705684991 5.24132706,5.24132706 C0.705684991,9.77696912 -0.115908432,16.8360759 3.25681985,22.2921553 C6.62954815,27.7482346 13.3112735,30.1690924 19.3961068,28.1395847 C17.1042997,25.7051768 17.1618398,21.8902055 19.5260227,19.5260227 C21.8902055,17.1618398 25.7051768,17.1042997 28.1395847,19.3961068 L28.1395847,19.3961068 Z M23.7928271,28.8490555 C25.8378806,28.8490555 27.6815649,27.617145 28.464173,25.727762 C29.2467811,23.8383789 28.8141917,21.6636049 27.3681204,20.2175338 C25.9220493,18.7714625 23.7472753,18.3388731 21.8578923,19.1214813 C19.9685092,19.9040893 18.7365988,21.7477736 18.7365988,23.7928271 C18.7420967,26.5775057 20.998156,28.833565 23.7828346,28.8390629 L23.7928271,28.8490555 Z" id="Combined-Shape-11" fill="#999999"></path>
            <path d="M18.42,7.91 L18.42,7.91 C18.6989061,8.04504493 18.818831,8.37816971 18.69,8.66 L12.51,21.92 C12.3749551,22.1989061 12.0418303,22.318831 11.76,22.19 L11.76,22.19 C11.4810939,22.0549551 11.361169,21.7218303 11.49,21.44 L17.67,8.18 C17.7328929,8.04405298 17.8476278,7.9389688 17.9885635,7.88823194 C18.1294992,7.83749508 18.2848869,7.84533514 18.42,7.91 L18.42,7.91 Z" id="Rectangle-5-2" fill="#999999"></path>
            <path d="M6.24,15.05 L9.55,18.36 C9.76739043,18.5784676 9.76739043,18.9315324 9.55,19.15 C9.32811693,19.3685616 8.97188307,19.3685616 8.75,19.15 L5,15.44 C4.78143841,15.2181169 4.78143841,14.8618831 5,14.64 L5.06,14.59 L8.72,10.93 C8.93846757,10.7126096 9.29153243,10.7126096 9.51,10.93 C9.72856159,11.1518831 9.72856159,11.5081169 9.51,11.73 L6.24,15.05 Z" id="Oval-2-11" fill="#999999"></path>
            <path d="M23.48,16.93 L25,15.44 C25.2185616,15.2181169 25.2185616,14.8618831 25,14.64 L24.94,14.59 L21.28,10.93 C21.0615324,10.7126096 20.7084676,10.7126096 20.49,10.93 C20.2714384,11.1518831 20.2714384,11.5081169 20.49,11.73 L23.77,15.05 L21.61,17.2 C22.2023425,17.0147127 22.8193544,16.9203065 23.44,16.92 L23.48,16.93 Z" id="Oval-2-12" fill="#999999"></path>
            <path d="M22.08,23.25 C22.0413339,23.3674969 21.9569766,23.4644703 21.8459662,23.5190347 C21.7349558,23.5735992 21.6066481,23.5811561 21.49,23.54 C21.3717776,23.4991662 21.2747073,23.412894 21.2202782,23.3002822 C21.1658492,23.1876704 21.1585513,23.0580082 21.2,22.94 C21.5151631,22.0450019 22.2665067,21.3736011 23.1911771,21.1606836 C24.1158476,20.947766 25.0851579,21.2229637 25.76,21.89 L27,23.05 C27.175242,23.2351025 27.175242,23.5248975 27,23.71 C26.9116507,23.7997807 26.790961,23.8503411 26.665,23.8503411 C26.539039,23.8503411 26.4183493,23.7997807 26.33,23.71 L25.14,22.59 C24.6937198,22.1599626 24.0609341,21.9834828 23.4565101,22.1204856 C22.852086,22.2574884 22.3572398,22.6895647 22.14,23.27 L22.08,23.25 Z M20.68,24.72 C20.4894618,24.5432689 20.478269,24.2455383 20.6550001,24.0550001 C20.8317312,23.8644619 21.1294618,23.853269 21.32,24.03 L22.52,25.16 C22.9655524,25.5948092 23.6015943,25.7732816 24.2083095,25.6337371 C24.8150248,25.4941926 25.3091818,25.0557745 25.52,24.47 C25.6091581,24.2277219 25.877043,24.102709 26.12,24.19 C26.3623719,24.2793794 26.4905368,24.5445481 26.41,24.79 C26.0792575,25.6732238 25.3232793,26.3285295 24.4020511,26.5305532 C23.4808229,26.7325769 22.5199942,26.453764 21.85,25.79 L20.68,24.72 Z M26.16,21.82 C26.1331787,21.6375929 26.2154835,21.4563499 26.3704779,21.3565077 C26.5254723,21.2566655 26.7245277,21.2566655 26.8795221,21.3565077 C27.0345165,21.4563499 27.1168213,21.6375929 27.09,21.82 L27.09,23.35 C27.09,23.6095738 26.8795738,23.82 26.62,23.82 L25.09,23.82 C24.8304262,23.82 24.62,23.6095738 24.62,23.35 C24.62,23.0904262 24.8304262,22.88 25.09,22.88 L26.16,22.88 L26.16,21.82 Z M21.47,25.91 C21.47,26.1695738 21.2595738,26.38 21,26.38 C20.7404262,26.38 20.53,26.1695738 20.53,25.91 L20.53,24.37 C20.5354408,24.1143397 20.7442818,23.9099421 21,23.91 L22.53,23.91 C22.7124071,23.8831787 22.8936501,23.9654835 22.9934923,24.1204779 C23.0933345,24.2754723 23.0933345,24.4745277 22.9934923,24.6295221 C22.8936501,24.7845165 22.7124071,24.8668213 22.53,24.84 L21.47,24.84 L21.47,25.91 Z" id="Shape-16" fill="#999999"></path>
        </g>
    </g>
</svg>