<svg xmlns="http://www.w3.org/2000/svg" width="18" height="18" viewBox="0 0 18 18">
    <g fill="none" fill-rule="evenodd">
        <path fill="#C14949" fill-opacity="0" d="M0 0h18v18H0z"/>
        <path fill="#9BA6B2" fill-rule="nonzero" d="M7.423 6.46l.707.707-.669.67-.754-.755h.095l.621-.622zm.707-.707L9.793 4.09l-.52-.519a.5.5 0 0 1 0-.707l1.455-1.455a.5.5 0 0 1 .708 0l5.237 5.237a.5.5 0 0 1 0 .707l-1.455 1.455a.5.5 0 0 1-.707 0l-.52-.52-1.662 1.663-.707-.707 2.016-2.016a.5.5 0 0 1 .707 0l.52.52.747-.748-4.53-4.53-.748.747.52.52a.5.5 0 0 1 0 .707L8.838 6.46l-.708-.707zm3.492 4.905L11 11.28v.095l-.754-.754.669-.67.707.707zm-6.33-3.576l1 1H4.015l-.663.664 5.984 5.984.664-.664V11.79l1 1v1.485a.5.5 0 0 1-.146.353L9.69 15.791a.5.5 0 0 1-.707 0L5.99 12.799l-4.286 4.286a.5.5 0 1 1-.708-.707l4.287-4.287L2.291 9.1a.5.5 0 0 1 0-.707l1.164-1.164a.5.5 0 0 1 .353-.146h1.484zm11.256 8.463a.5.5 0 0 1-.708.707L1.698 2.11a.5.5 0 0 1 .707-.707l14.143 14.142z"/>
    </g>
</svg>
