<svg xmlns="http://www.w3.org/2000/svg" width="80" height="80" viewBox="0 0 80 80">
    <g fill="none" fill-rule="nonzero">
        <path fill="#D8D8D8" fill-opacity="0" d="M0 0h80v80H0z"/>
        <g stroke="#5A81EA" stroke-width="3" transform="translate(0 22)">
            <rect width="67" height="50" x="6.5" y="1.5" rx="4"/>
            <rect width="57" height="36.682" x="11.5" y="6.818" rx="2"/>
            <path fill="#FFF" d="M2 48.5a.5.5 0 0 0-.5.5v3.5a4 4 0 0 0 4 4h69a4 4 0 0 0 4-4V49a.5.5 0 0 0-.5-.5H2z"/>
            <path fill="#D8D8D8" d="M32.5 48.5a1 1 0 0 0 0 2h15a1 1 0 0 0 0-2h-15z"/>
        </g>
    </g>
</svg>
