<svg xmlns="http://www.w3.org/2000/svg" width="80" height="80" viewBox="0 0 80 80">
    <g fill="none" fill-rule="evenodd">
        <path fill="#D8D8D8" fill-opacity="0" d="M0 0h80v80H0z"/>
        <g fill="#EF4829">
            <path fill-rule="nonzero" d="M3 7v61h74V7H3zm-.78-3h75.56C79.006 4 80 4.895 80 6v60c0 1.105-.994 2-2.22 2H2.22C.994 68 0 67.105 0 66V6c0-1.105.994-2 2.22-2z"/>
            <path fill-rule="nonzero" d="M78.5 15.5v3h-77v-3h77zM35.5 65h9a1.5 1.5 0 0 1 0 3h-9a1.5 1.5 0 0 1 0-3z"/>
            <path d="M8.5 13a1.5 1.5 0 1 1 0-3 1.5 1.5 0 0 1 0 3zm5 0a1.5 1.5 0 1 1 0-3 1.5 1.5 0 0 1 0 3zm5 0a1.5 1.5 0 1 1 0-3 1.5 1.5 0 0 1 0 3z"/>
            <path fill-rule="nonzero" d="M10.094 25v14h59.812V25H10.094zm-1.031-3h61.874c1.14 0 2.063.895 2.063 2v16c0 1.105-.923 2-2.063 2H9.063C7.923 42 7 41.105 7 40V24c0-1.105.923-2 2.063-2zM40 77.5c-6.075 0-11-4.925-11-11s4.925-11 11-11 11 4.925 11 11-4.925 11-11 11zm0-3a8 8 0 1 0 0-16 8 8 0 0 0 0 16zM10 50v7h13v-7H10zm-1-3h15a2 2 0 0 1 2 2v9a2 2 0 0 1-2 2H9a2 2 0 0 1-2-2v-9a2 2 0 0 1 2-2zM57 50v7h13v-7H57zm-1-3h15a2 2 0 0 1 2 2v9a2 2 0 0 1-2 2H56a2 2 0 0 1-2-2v-9a2 2 0 0 1 2-2z"/>
            <path d="M33.5 50v2.688c0 .724-.672 1.312-1.5 1.312s-1.5-.588-1.5-1.313v-4.374c0-.725.671-1.313 1.5-1.313h16c.829 0 1.5.588 1.5 1.313v4.374c0 .725-.672 1.313-1.5 1.313s-1.5-.588-1.5-1.313V50h-13zm-31 15h21a1.5 1.5 0 0 1 0 3h-21a1.5 1.5 0 0 1 0-3zm54 0h21a1.5 1.5 0 0 1 0 3h-21a1.5 1.5 0 0 1 0-3z"/>
        </g>
    </g>
</svg>
