<svg xmlns="http://www.w3.org/2000/svg" width="150" height="150" viewBox="0 0 150 150">
    <defs>
        <linearGradient id="a" x1="50%" x2="50%" y1="93.125%" y2="0%">
            <stop offset="0%" stop-color="#DCF5FF" stop-opacity=".5"/>
            <stop offset="39.33%" stop-color="#D0ECFF" stop-opacity=".711"/>
            <stop offset="100%" stop-color="#C5E3FF"/>
        </linearGradient>
        <linearGradient id="b" x1="44.596%" x2="55.404%" y1="87.658%" y2="12.342%">
            <stop offset="0%" stop-color="#0082FF"/>
            <stop offset="100%" stop-color="#0065FF"/>
        </linearGradient>
        <linearGradient id="c" x1="66.14%" x2="33.86%" y1="27.175%" y2="72.825%">
            <stop offset="0%" stop-color="#0EAFFF"/>
            <stop offset="100%" stop-color="#0095FF"/>
        </linearGradient>
        <linearGradient id="d" x1="82.264%" x2="17.736%" y1="27.186%" y2="72.814%">
            <stop offset="0%" stop-color="#FFD900"/>
            <stop offset="48.6%" stop-color="#FFC400"/>
            <stop offset="100%" stop-color="#FFB200"/>
        </linearGradient>
        <linearGradient id="e" x1="0%" y1="11.873%" y2="88.127%">
            <stop offset="0%" stop-color="#FF6700"/>
            <stop offset="100%" stop-color="#FF7500"/>
        </linearGradient>
        <linearGradient id="f" x1="37.5%" x2="62.5%" y1="84.255%" y2="15.745%">
            <stop offset="0%" stop-color="#FFA000"/>
            <stop offset="54.44%" stop-color="#FC8500"/>
            <stop offset="100%" stop-color="#FA7300"/>
        </linearGradient>
        <linearGradient id="g" x1="0%" y1="50%" y2="50%">
            <stop offset="0%" stop-color="#FF7A00"/>
            <stop offset="100%" stop-color="#FB4A00"/>
        </linearGradient>
    </defs>
    <g fill="none" fill-rule="evenodd">
        <path fill="url(#a)" d="M74.71 113.966c41.42-.812 75.129-15.782 75.29-33.436.16-17.654-33.288-31.308-74.71-30.496C33.87 50.846.161 65.816 0 83.47c-.16 17.654 33.288 31.308 74.71 30.496z" transform="translate(0 34)"/>
        <path fill="#0082FF" fill-rule="nonzero" d="M20.409 50.704L75 34l54.591 16.704L75 72.643z"/>
        <path fill="#1866FF" d="M75 34v36.485l4.591 2.158 48.335-19.321 1.665-2.618z"/>
        <path fill="url(#b)" d="M64 102.358l54.591-19.781V16.704L62.274 37.11z" transform="translate(11 34)"/>
        <path fill="url(#c)" d="M64 102.358L9.409 80.871V16.704L64 36.485z" transform="translate(11 34)"/>
        <path fill="#6AC1FF" fill-rule="nonzero" d="M11 79.729l54.892 20.978L75 70.485 20.409 50.704z"/>
        <path fill="#E2D6C0" fill-rule="nonzero" d="M139 79.729l-54.892 20.978L75 70.485l54.591-19.781z"/>
        <path fill="#0054FA" fill-rule="nonzero" d="M139 79.729l-54.892 20.978L75 70.485l54.591-19.781z"/>
        <g transform="translate(19 1)">
            <path fill="url(#d)" d="M15.172 15.149h.192a4.338 4.338 0 0 1 3.555 1.812c.57.907.851 1.965.805 3.035v1.573a1.164 1.164 0 0 1-1.807.97 10.09 10.09 0 0 1-3.164-3.39l-1.856-3.241 2.275-.76z"/>
            <path fill="url(#e)" fill-rule="nonzero" d="M7.207 7.463L3.869 5.557c-.674-.385-1.717-.691-3.131-.92A.878.878 0 0 1 0 3.77a.657.657 0 0 1 .76-.65c1.753.276 3.043.649 3.868 1.12l.919.525-.102-.18c-.53-.924-1.68-1.85-3.45-2.78a.949.949 0 0 1-.479-1.07.608.608 0 0 1 .87-.392c2.253 1.166 3.713 2.33 4.38 3.49l1.482 2.595a.759.759 0 0 1-1.041 1.035z" opacity=".302"/>
            <path fill="#F85D00" fill-rule="nonzero" d="M9.862 8.7a1.89 1.89 0 0 0-1.328-1.8l1.091-3.82a1.632 1.632 0 0 1 3.084-.158l.978 2.228c-.444.256-.846.58-1.193.958L9.828 9.042c.022-.113.033-.227.034-.341z"/>
            <path fill="url(#f)" d="M9.828 9.042l2.666-2.934a5.033 5.033 0 1 1 5.317 8.162l-4.914 1.638-3.642-5.825c.298-.276.5-.641.573-1.041z"/>
            <circle cx="8.738" cy="8.701" r="1.897" fill="url(#g)"/>
        </g>
    </g>
</svg>
