<svg xmlns="http://www.w3.org/2000/svg" width="150" height="150" viewBox="0 0 150 150">
    <g fill="none" fill-rule="evenodd">
        <path fill="#3F73FF" fill-opacity=".1" d="M74.71 149.966c41.42-.812 75.129-15.782 75.29-33.436.16-17.654-33.288-31.308-74.71-30.496C33.87 86.846.161 101.816 0 119.47c-.16 17.654 33.288 31.308 74.71 30.496z"/>
        <g fill-rule="nonzero">
            <path fill="#5986FF" d="M20.409 52.704L75 36l54.591 16.704L75 74.643z"/>
            <path fill="#0026FF" d="M75 36v36.485l4.591 2.158 48.335-19.321 1.665-2.618z" opacity=".25"/>
            <path fill="#3F73FF" d="M75 138.358l54.591-19.781V52.704L73.274 73.11z"/>
            <path fill="#7FA2FF" d="M75 138.358l-54.591-21.487V52.704L75 72.485z"/>
            <path fill="#ADC4FF" d="M11 81.729l54.892 20.978L75 72.485 20.409 52.704z"/>
            <path fill="#E2D6C0" d="M139 81.729l-54.892 20.978L75 72.485l54.591-19.781z"/>
            <path fill="#1F5AF6" d="M139 81.729l-54.892 20.978L75 72.485l54.591-19.781z"/>
        </g>
        <g fill-rule="nonzero" transform="translate(19 3)">
            <path fill="#9CB7FF" d="M15.172 15.149h.192a4.338 4.338 0 0 1 3.555 1.812c.57.907.851 1.965.805 3.035v1.573a1.164 1.164 0 0 1-1.807.97 10.09 10.09 0 0 1-3.164-3.39l-1.856-3.241 2.275-.76z"/>
            <path fill="#A0BAFF" d="M7.207 7.463L3.869 5.557c-.674-.385-1.717-.691-3.131-.92A.878.878 0 0 1 0 3.77a.657.657 0 0 1 .76-.65c1.753.276 3.043.649 3.868 1.12l.919.525-.102-.18c-.53-.924-1.68-1.85-3.45-2.78a.949.949 0 0 1-.479-1.07.608.608 0 0 1 .87-.392c2.253 1.166 3.713 2.33 4.38 3.49l1.482 2.595a.759.759 0 0 1-1.041 1.035z"/>
            <path fill="#5785FF" d="M9.862 8.7a1.89 1.89 0 0 0-1.328-1.8l1.091-3.82a1.632 1.632 0 0 1 3.084-.158l.978 2.228c-.444.256-.846.58-1.193.958L9.828 9.042c.022-.113.033-.227.034-.341z"/>
            <path fill="#7FA2FF" d="M9.828 9.042l2.666-2.934a5.033 5.033 0 1 1 5.317 8.162l-4.914 1.638-3.642-5.825c.298-.276.5-.641.573-1.041z"/>
            <circle cx="8.738" cy="8.701" r="1.897" fill="#3563FF"/>
        </g>
    </g>
</svg>
