<svg xmlns="http://www.w3.org/2000/svg" width="42" height="42" viewBox="0 0 42 42">
    <g fill="none" fill-rule="evenodd">
        <path fill="#D8D8D8" fill-opacity="0" d="M0 0h42v42H0z"/>
        <path fill="#1A1F71" fill-rule="nonzero" d="M17.793 15.163h3.088L18.348 26.98H15.18l2.612-11.816zm-4.592 0v-.078h3.246L11.38 26.901H8.055L5.6 17.495c-.158-.544-.237-.777-.712-1.01-.792-.389-1.98-.778-3.088-1.01l.08-.312h5.304c.633 0 1.267.389 1.425 1.166l1.346 6.84 3.246-8.006zm24.624 0L40.2 26.98h-2.85l-.396-1.788h-3.959l-.633 1.788h-3.247l4.672-10.96c.237-.545.712-.856 1.346-.856h2.692zm-3.8 7.618h2.612l-.95-4.43-1.663 4.43zm-9.027-4.353c-.079 1.4 4.355 1.632 4.355 4.586 0 2.488-2.138 4.042-5.384 4.042-1.425 0-2.771-.31-3.484-.622l.555-2.565c.712.389 1.583.778 3.167.778.95 0 1.9-.39 1.9-1.166 0-.545-.396-.933-1.584-1.477-1.108-.544-2.692-1.477-2.692-3.187 0-2.255 2.138-3.887 5.226-3.887 1.188 0 2.217.31 2.93.544l-.555 2.488c-1.425-.622-2.613-.622-3.088-.545-.95.156-1.346.622-1.346 1.011z"/>
    </g>
</svg>
