<svg xmlns="http://www.w3.org/2000/svg" width="42" height="42" viewBox="0 0 42 42">
    <g fill="none" fill-rule="evenodd">
        <path fill="#D8D8D8" fill-opacity="0" d="M0 0h42v42H0z"/>
        <path fill="#00579F" fill-rule="nonzero" d="M18.45 26.61h-3.074l1.923-11.894h3.075zM29.6 15.006a7.579 7.579 0 0 0-2.759-.506c-3.037 0-5.176 1.62-5.189 3.935-.025 1.708 1.531 2.657 2.695 3.227 1.19.582 1.595.961 1.595 1.48-.012.797-.962 1.164-1.847 1.164-1.228 0-1.886-.189-2.886-.632l-.405-.19-.43 2.67c.721.328 2.05.62 3.43.633 3.227 0 5.328-1.595 5.352-4.062.013-1.354-.81-2.392-2.58-3.24-1.077-.544-1.735-.91-1.735-1.467.012-.507.557-1.025 1.771-1.025 1-.025 1.734.215 2.29.455l.279.127.418-2.569zM33.687 22.396l1.227-3.328c-.012.025.253-.696.405-1.139l.215 1.025s.582 2.847.709 3.442h-2.556zm3.796-7.68h-2.379c-.734 0-1.29.215-1.607.986L28.929 26.61h3.226l.646-1.784h3.948c.089.418.367 1.784.367 1.784h2.848l-2.481-11.893zM12.807 14.716l-3.012 8.11-.329-1.645c-.557-1.898-2.303-3.96-4.252-4.985l2.759 10.4h3.252l4.834-11.88h-3.252z"/>
        <path fill="#FAA61A" fill-rule="nonzero" d="M6.999 14.716H2.05l-.051.24c3.86.987 6.416 3.366 7.466 6.226L8.39 15.715c-.177-.76-.72-.974-1.391-1z"/>
    </g>
</svg>
