<svg xmlns="http://www.w3.org/2000/svg" width="24" height="24" viewBox="0 0 24 24">
    <g fill="#4E5C6E">
        <path d="M20.5,23.447 L3.5,23.447 C1.57,23.447 0,21.877 0,19.947 L0,9.947 C0,8.017 1.57,6.447 3.5,6.447 L20.5,6.447 C22.43,6.447 24,8.017 24,9.947 L24,19.947 C24,21.877 22.43,23.447 20.5,23.447 Z M3.5,7.447 C2.121,7.447 1,8.569 1,9.947 L1,19.947 C1,21.325 2.121,22.447 3.5,22.447 L20.5,22.447 C21.879,22.447 23,21.325 23,19.947 L23,9.947 C23,8.569 21.879,7.447 20.5,7.447 L3.5,7.447 Z"/>
        <path d="M19.5,16.447 C18.673,16.447 18,15.774 18,14.947 C18,14.12 18.673,13.447 19.5,13.447 C20.327,13.447 21,14.12 21,14.947 C21,15.774 20.327,16.447 19.5,16.447 Z M19.5,14.447 C19.225,14.447 19,14.671 19,14.947 C19,15.223 19.225,15.447 19.5,15.447 C19.775,15.447 20,15.223 20,14.947 C20,14.671 19.775,14.447 19.5,14.447 Z"/>
        <path d="M23.5 18.447L19.5 18.447C17.57 18.447 16 16.877 16 14.947 16 13.017 17.57 11.447 19.5 11.447L23.5 11.447C23.776 11.447 24 11.671 24 11.947L24 17.947C24 18.223 23.776 18.447 23.5 18.447zM19.5 12.447C18.121 12.447 17 13.569 17 14.947 17 16.325 18.121 17.447 19.5 17.447L23 17.447 23 12.447 19.5 12.447zM20 7.447C19.817 7.447 19.641 7.346 19.553 7.171L17.436 2.937C17.131 2.327 16.605 1.877 15.955 1.672 15.307 1.466 14.616 1.531 14.016 1.855L3.737 7.387C3.495 7.518 3.191 7.427 3.06 7.184 2.929 6.941 3.02 6.637 3.263 6.507L13.54.973C14.382.521 15.346.431 16.256.718 17.166 1.006 17.903 1.635 18.33 2.489L20.447 6.723C20.57 6.97 20.47 7.27 20.223 7.394 20.151 7.43 20.075 7.447 20 7.447z"/>
        <path d="M10.571 7.447C10.393 7.447 10.221 7.352 10.131 7.184 10 6.941 10.091 6.638 10.334 6.507L17.763 2.507C18.005 2.377 18.309 2.467 18.441 2.711 18.572 2.954 18.481 3.257 18.238 3.388L10.809 7.388C10.733 7.428 10.651 7.447 10.571 7.447zM.5 10.447C.224 10.447 0 10.223 0 9.947L0 8.947C0 5.914 2.468 3.447 5.5 3.447L9 3.447C9.276 3.447 9.5 3.671 9.5 3.947 9.5 4.223 9.276 4.447 9 4.447L5.5 4.447C3.019 4.447 1 6.466 1 8.947L1 9.947C1 10.223.776 10.447.5 10.447zM23.5 10.447C23.224 10.447 23 10.223 23 9.947L23 8.947C23 6.466 20.981 4.447 18.5 4.447 18.224 4.447 18 4.223 18 3.947 18 3.671 18.224 3.447 18.5 3.447 21.532 3.447 24 5.914 24 8.947L24 9.947C24 10.223 23.776 10.447 23.5 10.447z"/>
  </g>
</svg>
