<svg xmlns="http://www.w3.org/2000/svg" width="260" height="216" viewBox="0 0 260 216">
    <defs>
        <linearGradient id="a" x1="50%" x2="50%" y1="100%" y2="0%">
            <stop offset="0%" stop-color="#C5E3FF"/>
            <stop offset="100%" stop-color="#DCF5FF" stop-opacity=".5"/>
        </linearGradient>
        <linearGradient id="b" x1="18.19%" x2="75.903%" y1="9.68%" y2="90.787%">
            <stop offset="0%" stop-color="#009CFF"/>
            <stop offset="64.01%" stop-color="#0065FF"/>
        </linearGradient>
        <linearGradient id="c" x1="0%" y1="50%" y2="50%">
            <stop offset="79.63%" stop-color="#0032FF" stop-opacity="0"/>
            <stop offset="99.79%" stop-color="#0032FF" stop-opacity=".99"/>
            <stop offset="100%" stop-color="#0032FF"/>
        </linearGradient>
        <linearGradient id="d" x1="11.231%" x2="81.105%" y1="7.368%" y2="93.395%">
            <stop offset="0%" stop-color="#00A6FF"/>
            <stop offset="55.38%" stop-color="#0071FF"/>
        </linearGradient>
        <linearGradient id="e" x1="16.76%" x2="75.455%" y1="-6.439%" y2="102.009%">
            <stop offset="0%" stop-color="#00A9FF"/>
            <stop offset="23.1%" stop-color="#009CFF"/>
            <stop offset="56.45%" stop-color="#0083FF"/>
        </linearGradient>
        <linearGradient id="f" x1="71.66%" x2="29.582%" y1="-1.929%" y2="102.976%">
            <stop offset="0%" stop-color="#0025E4"/>
            <stop offset="22.46%" stop-color="#002FE8"/>
            <stop offset="61.02%" stop-color="#004BF2"/>
            <stop offset="100%" stop-color="#006DFF"/>
        </linearGradient>
        <linearGradient id="g" x1="0%" y1="50%" y2="50%">
            <stop offset="83.31%" stop-color="#0054FC"/>
            <stop offset="89.45%" stop-color="#0051FB"/>
            <stop offset="94.44%" stop-color="#0047F9"/>
            <stop offset="99.01%" stop-color="#0036F5"/>
            <stop offset="100%" stop-color="#0031F4"/>
        </linearGradient>
        <linearGradient id="h" x1="0%" y1="50%" y2="50%">
            <stop offset="79.79%" stop-color="#0064F9" stop-opacity="0"/>
            <stop offset="83.77%" stop-color="#076CF9" stop-opacity=".197"/>
            <stop offset="89.8%" stop-color="#1880F9" stop-opacity=".495"/>
            <stop offset="97.1%" stop-color="#36A2F9" stop-opacity=".856"/>
            <stop offset="100%" stop-color="#43B2F9"/>
        </linearGradient>
        <linearGradient id="i" x1="0%" y1="50%" y2="50%">
            <stop offset="93.01%" stop-color="#0064F9" stop-opacity="0"/>
            <stop offset="94.38%" stop-color="#076CF9" stop-opacity=".197"/>
            <stop offset="96.47%" stop-color="#1880F9" stop-opacity=".495"/>
            <stop offset="99%" stop-color="#36A2F9" stop-opacity=".856"/>
            <stop offset="100%" stop-color="#43B2F9"/>
        </linearGradient>
        <linearGradient id="j" x1="50.209%" x2="48.367%" y1="49.178%" y2="51.052%">
            <stop offset="7.591%" stop-color="#002DFF" stop-opacity="0"/>
            <stop offset="99.51%" stop-color="#002DFF"/>
        </linearGradient>
        <linearGradient id="k" x1="50.082%" x2="48.583%" y1="49.421%" y2="50.95%">
            <stop offset="4.261%" stop-color="#002DFF" stop-opacity="0"/>
            <stop offset="100%" stop-color="#002DFF"/>
        </linearGradient>
        <linearGradient id="l" x1="50%" x2="50%" y1="100%" y2="0%">
            <stop offset="0%" stop-color="#FFC000"/>
            <stop offset="3.97%" stop-color="#FFA900"/>
            <stop offset="10.63%" stop-color="#FF8900"/>
            <stop offset="16.21%" stop-color="#FF7500"/>
            <stop offset="20%" stop-color="#FF6E00"/>
            <stop offset="39.02%" stop-color="#FF7300"/>
            <stop offset="62.84%" stop-color="#FF8300"/>
            <stop offset="89.11%" stop-color="#FF9C00"/>
            <stop offset="100%" stop-color="#FFA900"/>
        </linearGradient>
        <linearGradient id="m" x1="17.046%" x2="82.954%" y1="47.171%" y2="52.829%">
            <stop offset="0%" stop-color="#FFB300"/>
            <stop offset="100%" stop-color="#FFD800"/>
        </linearGradient>
        <linearGradient id="n" x1="17.789%" x2="82.058%" y1="8.696%" y2="87.962%">
            <stop offset="0%" stop-color="#FD7F02"/>
            <stop offset="100%" stop-color="#FDA002"/>
        </linearGradient>
        <linearGradient id="o" x1="29.991%" x2="70.229%" y1="10.048%" y2="90.02%">
            <stop offset="0%" stop-color="#F66500"/>
            <stop offset="86.38%" stop-color="#FC7A02"/>
            <stop offset="100%" stop-color="#FD7E02"/>
        </linearGradient>
        <linearGradient id="p" x1="0%" y1="50%" y2="50%">
            <stop offset="0%" stop-color="#FF5F00"/>
            <stop offset="50.33%" stop-color="#FB4A01"/>
            <stop offset="99.68%" stop-color="#F73102"/>
        </linearGradient>
        <linearGradient id="q" x1="50%" x2="50%" y1="100%" y2="0%">
            <stop offset="0%" stop-color="#FFC000"/>
            <stop offset="3.97%" stop-color="#FFA900"/>
            <stop offset="10.63%" stop-color="#FF8900"/>
            <stop offset="16.21%" stop-color="#FF7500"/>
            <stop offset="20%" stop-color="#FF6E00"/>
            <stop offset="39.02%" stop-color="#FF7300"/>
            <stop offset="62.84%" stop-color="#FF8300"/>
            <stop offset="89.11%" stop-color="#FF9C00"/>
            <stop offset="100%" stop-color="#FFA900"/>
        </linearGradient>
        <linearGradient id="r" x1="17.046%" x2="82.954%" y1="47.17%" y2="52.829%">
            <stop offset="0%" stop-color="#FFB300"/>
            <stop offset="100%" stop-color="#FFD800"/>
        </linearGradient>
    </defs>
    <g fill="none" fill-rule="evenodd">
        <path fill="#D8D8D8" fill-opacity="0" fill-rule="nonzero" d="M0 0h260v216H0z"/>
        <path fill="url(#a)" d="M97.289 203.603l129.052-67.213-16.168-8.425 32.335-16.756-112.98-58.788L.254 119.54l48.406 25.182-32.08 16.914z" transform="translate(8.667 12)"/>
        <g transform="translate(72.827 25.303)">
            <path fill="url(#b)" d="M105.293 152.734l-83.63-45.421a1.417 1.417 0 0 1-.763-1.267V.95a.936.936 0 0 1 1.397-.823c11.88 6.43 91.382 49.348 98.02 52.928 7.845 4.244 8.957 5.638 8.957 9.66v77.508l-23.98 12.511z"/>
            <path fill="url(#c)" d="M105.293 152.734l-83.63-45.421a1.417 1.417 0 0 1-.763-1.267V.95a.936.936 0 0 1 1.397-.823c6.448 3.484 78.264 42.253 98.02 52.928 7.845 4.244 8.957 5.638 8.957 9.66v77.508l-23.98 12.511z"/>
            <path fill="url(#d)" d="M105.293 152.734l-83.821-45.453c-.318-.19-.572-.443-.572-.95l.032-84.729s3.208 2.47 19.756 12.163c27.57 16.154 86.426 47.163 86.426 47.163v60.403l-21.82 11.403z"/>
            <path fill="url(#e)" d="M105.293 152.734L21.408 107.25c-.254-.127-.476-.38-.476-.919V41.494S23.44 43.394 32.81 49c34.24 20.525 92.112 49.603 92.112 49.603v43.869l-19.63 10.262z"/>
            <path fill="url(#f)" d="M129.306 135.44v4.751l-84.552 44.06v-72.567c0-.507.285-.95.698-1.204 7.719-4.18 75.5-40.955 78.39-42.475 3.05-1.647 5.146-3.516 5.432-5.796.032 2.312.032 73.23.032 73.23z"/>
            <path fill="url(#g)" d="M20.9 48.684c-.381-.159-.858-.222-1.557.158-.603.317-18.263 9.977-18.263 9.977-.508.286-.826.697-.826 1.394v20.082c0 .792.699 1.14 1.525.697 0 0 17.247-9.408 17.723-9.661.604-.317 1.017-.222 1.43-.032-.032-.317-.032-22.362-.032-22.615z"/>
            <ellipse cx="57.909" cy="160.142" fill="#0032BF" rx="6.432" ry="4.382" transform="rotate(-72.471 57.91 160.142)"/>
            <ellipse cx="9.153" cy="66.304" fill="#0080FF" rx="4.562" ry="3.08" transform="rotate(-72.471 9.153 66.304)"/>
            <path fill="#0040C1" d="M10.64 65.851c0 1.109-.667 2.217-1.524 2.47-.826.254-1.525-.443-1.525-1.551 0-1.109.667-2.217 1.525-2.47.826-.254 1.524.443 1.524 1.551z"/>
            <path fill="#0080FF" d="M59.746 159.576c0 1.362-.826 2.724-1.843 3.04-1.016.317-1.842-.538-1.842-1.9 0-1.362.826-2.724 1.842-3.04.985-.317 1.843.538 1.843 1.9z"/>
            <path fill="url(#h)" d="M129.306 135.123v4.751l-84.552 44.06v-72.567c0-.506.285-.95.698-1.203 12.547-6.81 75.468-40.924 78.39-42.476 3.05-1.647 5.146-3.516 5.432-5.796.032 2.312.032 73.231.032 73.231z" opacity=".5"/>
            <path fill="url(#i)" d="M129.306 135.44v4.751l-84.552 44.06v-72.567c0-.507.285-.95.698-1.204 12.547-6.81 75.468-40.923 78.39-42.475 3.05-1.647 5.146-3.516 5.432-5.796.032 2.312.032 73.23.032 73.23z" opacity=".8"/>
            <path fill="url(#j)" d="M20.932 41.494l77.5 40.29-3.208 1.742S61.238 65.503 35.288 50.552c-11.339-6.556-14.356-9.058-14.356-9.058z"/>
            <path fill="url(#k)" d="M20.932 21.602l95.605 50.299-3.208 1.742S66.575 49 35.765 30.788c-11.88-7-14.833-9.186-14.833-9.186z"/>
        </g>
        <path fill="url(#l)" d="M19.947 27.335c-.54.253-1.906.76-3.176 1.172 1.429-.507 2.414-1.204 2.858-1.615 1.938-1.742 3.113-4.593 3.113-8.204 0-7.412-5.05-15.109-11.307-17.2-1.684-.57-3.97-.601-5.59-.126A27.787 27.787 0 0 1 8.607.538C10.1.19 11.72.158 13.499.76c6.257 2.09 11.308 9.82 11.308 17.2.031 4.56-1.906 7.95-4.86 9.375z" transform="translate(136.67 12)"/>
        <path fill="url(#m)" fill-rule="nonzero" d="M11.466 1.489C5.21-.601.16 3.674.16 11.086c0 7.412 5.05 15.109 11.307 17.2 6.258 2.09 11.308-2.186 11.308-9.598 0-7.412-5.05-15.109-11.308-17.2zm-.19 18.53l-4.447-6.43 4.447-3.422 4.447 6.43-4.447 3.421z" transform="translate(136.67 12)"/>
        <path fill="url(#n)" d="M12.483 19.068l-1.239.919-4.447-6.43 1.461-.602z" transform="translate(136.67 12)"/>
        <path fill="url(#o)" d="M8.29 12.987l3.24-2.471 4.193 6.05-3.209 2.502z" transform="translate(136.67 12)"/>
        <path fill="url(#p)" d="M8.29 12.987l-1.461.601 4.447-3.42.254.38z" transform="translate(136.67 12)"/>
        <g>
            <path fill="url(#q)" d="M19.788 27.05c-.54.253-1.906.76-3.176 1.172 1.43-.507 2.414-1.204 2.859-1.615 1.937-1.743 3.112-4.593 3.112-8.204 0-7.412-5.05-15.109-11.307-17.2-1.684-.57-3.97-.601-5.59-.126A27.787 27.787 0 0 1 8.449.253c1.493-.348 3.113-.38 4.891.222 6.258 2.09 11.308 9.82 11.308 17.2 0 4.592-1.938 7.95-4.86 9.375z" transform="translate(162.716 48.426)"/>
            <path fill="url(#r)" d="M11.308 1.204C5.05-.886 0 3.389 0 10.8c0 7.412 5.05 15.109 11.308 17.2 6.257 2.09 11.307-2.186 11.307-9.598 0-7.38-5.082-15.077-11.307-17.2z" transform="translate(162.716 48.426)"/>
            <path fill="#EF5500" fill-rule="nonzero" d="M178.597 61.729l-1.62-2.09-2.096-1.173v-2.122l-1.461-.792v2.123l-3.05-1.68v10.77l3.05 1.679v2.09l1.46.792v-2.09l1.716.95 2-.982v-2.977l-1.016-1.457 1.017-.602v-2.44zm-1.461 6.683l-.604.317-4.7-2.597v-3.485l4.256 2.344 1.048 1.52v1.901zm0-5.004l-.604.348-4.7-2.566v-2.945l4.16 2.312 1.144 1.489v1.362z"/>
            <path fill="#FF6D00" fill-rule="nonzero" d="M178.597 69.14v-2.913l-1.017-1.457 1.017-.602v-2.44l-1.62-2.09-2.096-1.172v-2.122l-.445-.253v1.013l-1.016.539-2.002-1.109v9.661l3.05 1.679v2.09l.444.222v-.982l1.017-.538 1.715.95.953-.475zm-6.766-10.895l1.017-.539 4.16 2.312 1.144 1.49V62.9l-.603.348-.413.19-.604.349-4.7-2.566v-2.977zm5.305 10.167l-.604.317-4.7-2.597v-3.485l1.016-.538 4.256 2.344 1.048 1.52v1.9l-.603.317-.413.222z"/>
            <g fill="#FF9700">
                <path d="M175.897 68.697l-1.016.539 1.715.95 1.048-.539zM177.104 64.421l-4.256-2.312-1.017.538 4.257 2.344zM177.009 59.987l-4.161-2.28-1.017.538 4.161 2.312zM174.754 56.28l.127.064zM170.402 66.765l3.018 1.679 1.016-.57-3.017-1.647zM173.42 70.503l1.46.823v-1.108l-.444-.254"/>
            </g>
            <g fill="#FF7F00">
                <path d="M177.136 66.48l1.016-.538-1.048-1.52-1.016.57zM177.136 62.046l1.016-.57-1.143-1.49-1.017.57zM174.754 56.28l.127.064z"/>
            </g>
        </g>
    </g>
</svg>
