<?xml version="1.0" encoding="UTF-8"?>
<svg width="60px" height="60px" viewBox="0 0 60 60" version="1.1" xmlns="http://www.w3.org/2000/svg" xmlns:xlink="http://www.w3.org/1999/xlink">
    <!-- Generator: Sketch 55.1 (78136) - https://sketchapp.com -->
    <title>Icon/60/WavesClient</title>
    <desc>Created with Sketch.</desc>
    <defs>
        <path d="M1.5,0.125 L43.5,0.125 C44.0522847,0.125 44.5,0.57271525 44.5,1.125 L44.5,14.125 C44.5,14.6772847 44.0522847,15.125 43.5,15.125 L1.5,15.125 C0.94771525,15.125 0.5,14.6772847 0.5,14.125 L0.5,1.125 C0.5,0.57271525 0.94771525,0.125 1.5,0.125 Z" id="path-1"></path>
    </defs>
    <g id="Icon/60/WavesClient" stroke="none" stroke-width="1" fill="none" fill-rule="evenodd">
        <path d="M2.8125,0 L57.1875,0 C58.734375,0 60,1.265625 60,2.8125 L60,57.1875 C60,58.734375 58.734375,60 57.1875,60 L2.8125,60 C1.265625,60 0,58.734375 0,57.1875 L0,2.8125 C0,1.265625 1.265625,0 2.8125,0 Z" id="Path" fill="#DFE8FF" fill-rule="nonzero"></path>
        <path d="M5.85714286,12 L54.1428571,12 C55.1642857,12 56,12.8425532 56,13.8723404 L56,54.1276596 C56,55.1574468 55.1642857,56 54.1428571,56 L5.85714286,56 C4.83571429,56 4,55.1574468 4,54.1276596 L4,13.8723404 C4,12.8425532 4.83571429,12 5.85714286,12 Z" id="Path" fill="#FFFFFF" fill-rule="nonzero"></path>
        <path d="M24.375,4.21875 L54.375,4.21875 C55.40625,4.21875 56.25,5.0625 56.25,6.09375 L56.25,6.09375 C56.25,7.125 55.40625,7.96875 54.375,7.96875 L24.375,7.96875 C23.34375,7.96875 22.5,7.125 22.5,6.09375 L22.5,6.09375 C22.5,5.0625 23.34375,4.21875 24.375,4.21875 Z" id="Path" fill="#DFE8FF" fill-rule="nonzero"></path>
        <g id="Group-3" transform="translate(7.500000, 19.875000)">
            <mask id="mask-2" fill="white">
                <use xlink:href="#path-1"></use>
            </mask>
            <use id="Rectangle" fill="#2A65FF" xlink:href="#path-1"></use>
            <path d="M38.942396,8.94443161 L43.4985507,7.30702717 L46.75,9.25789675 L46.75,19.2127593 L-1.75,19.2127593 L-1.75,9.74040616 L1.9117535,10.7125693 L5.13060698,9.63961819 L8.40720684,11.6628574 L9.81641261,9.71205172 L12.6052164,9.71205172 L18.0504193,6.98945025 L21.2791772,9.68008183 L24.7067035,9.28364082 L28.3613984,10.8944108 L32.1967671,8.28368249 L36.628954,10.8398099 L38.942396,8.94443161 Z M-0.25,17.7127593 L45.25,17.7127593 L45.25,10.1071823 L43.3366141,8.95915079 L39.6930215,10.268596 L36.7776394,12.6571373 L32.2627415,10.0533089 L28.5177224,12.6025364 L24.4744494,10.8205045 L20.81283,11.2440216 L17.8437857,8.76981803 L12.9593183,11.2120517 L10.583287,11.2120517 L8.80618903,13.6721415 L4.93942225,11.2844853 L1.96047354,12.2774682 L-0.25,11.690607 L-0.25,17.7127593 Z" id="Path-2" fill="#FFFFFF" fill-rule="nonzero" mask="url(#mask-2)"></path>
        </g>
        <path d="M9,38 L20,38 C20.5522847,38 21,38.4477153 21,39 L21,46 C21,46.5522847 20.5522847,47 20,47 L9,47 C8.44771525,47 8,46.5522847 8,46 L8,39 C8,38.4477153 8.44771525,38 9,38 Z" id="Rectangle" fill="#CAD9FF"></path>
        <path d="M9,15 L13,15 C13.5522847,15 14,15.4477153 14,16 C14,16.5522847 13.5522847,17 13,17 L9,17 C8.44771525,17 8,16.5522847 8,16 C8,15.4477153 8.44771525,15 9,15 Z" id="Rectangle" fill="#CAD9FF"></path>
        <path d="M17,15 L21,15 C21.5522847,15 22,15.4477153 22,16 C22,16.5522847 21.5522847,17 21,17 L17,17 C16.4477153,17 16,16.5522847 16,16 C16,15.4477153 16.4477153,15 17,15 Z" id="Rectangle" fill="#CAD9FF"></path>
        <path d="M24.5,38 L35.5,38 C36.0522847,38 36.5,38.4477153 36.5,39 L36.5,46 C36.5,46.5522847 36.0522847,47 35.5,47 L24.5,47 C23.9477153,47 23.5,46.5522847 23.5,46 L23.5,39 C23.5,38.4477153 23.9477153,38 24.5,38 Z" id="Rectangle" fill="#CAD9FF"></path>
        <path d="M40,38 L51,38 C51.5522847,38 52,38.4477153 52,39 L52,46 C52,46.5522847 51.5522847,47 51,47 L40,47 C39.4477153,47 39,46.5522847 39,46 L39,39 C39,38.4477153 39.4477153,38 40,38 Z" id="Rectangle" fill="#CAD9FF"></path>
        <path d="M5.625,4.21875 C4.59375,4.21875 3.75,5.0625 3.75,6.09375 C3.75,7.125 4.59375,7.96875 5.625,7.96875 C6.65625,7.96875 7.5,7.125 7.5,6.09375 C7.5,5.0625 6.65625,4.21875 5.625,4.21875 Z M11.25,4.21875 C10.21875,4.21875 9.375,5.0625 9.375,6.09375 C9.375,7.125 10.21875,7.96875 11.25,7.96875 C12.28125,7.96875 13.125,7.125 13.125,6.09375 C13.125,5.0625 12.28125,4.21875 11.25,4.21875 Z M16.875,4.21875 C15.84375,4.21875 15,5.0625 15,6.09375 C15,7.125 15.84375,7.96875 16.875,7.96875 C17.90625,7.96875 18.75,7.125 18.75,6.09375 C18.75,5.0625 17.90625,4.21875 16.875,4.21875 Z" id="Shape" fill="#CAD9FF" fill-rule="nonzero"></path>
    </g>
</svg>