<svg xmlns="http://www.w3.org/2000/svg" width="80" height="80" viewBox="0 0 80 80">
    <g fill="none" fill-rule="evenodd">
        <path fill="none" d="M0 0h80v80H0z"/>
        <path fill="#EF4829" fill-rule="nonzero" d="M40 59.5c-14.636 0-26.5-11.864-26.5-26.5S25.364 6.5 40 6.5 66.5 18.364 66.5 33 54.636 59.5 40 59.5zm0-3c12.979 0 23.5-10.521 23.5-23.5S52.979 9.5 40 9.5 16.5 20.021 16.5 33 27.021 56.5 40 56.5z"/>
        <path fill="#EF4829" fill-rule="nonzero" d="M40 47.5c-7.456 0-13.5-6.044-13.5-13.5S32.544 20.5 40 20.5 53.5 26.544 53.5 34 47.456 47.5 40 47.5zm0-3c5.799 0 10.5-4.701 10.5-10.5S45.799 23.5 40 23.5 29.5 28.201 29.5 34 34.201 44.5 40 44.5z"/>
        <path fill="#EF4829" fill-rule="nonzero" d="M40 41.5a7.5 7.5 0 1 1 0-15 7.5 7.5 0 0 1 0 15zm0-3a4.5 4.5 0 1 0 0-9 4.5 4.5 0 0 0 0 9z"/>
        <circle cx="40" cy="16.5" r="1.5" fill="#EF4829"/>
        <path fill="#EF4829" d="M24.901 67.042l2.705-10.093a1.5 1.5 0 0 1 2.898.776l-2.218 8.276h3.044a1.5 1.5 0 1 1 0 3h-5a1.5 1.5 0 0 1-1.429-1.959zM55.099 67.042L52.394 56.95a1.5 1.5 0 0 0-2.898.776l2.218 8.276H48.67a1.5 1.5 0 1 0 0 3h5a1.5 1.5 0 0 0 1.429-1.959zM40 64.962l2.038-2.04a1.442 1.442 0 0 1 2.04 2.04L42.038 67l2.039 2.038a1.442 1.442 0 0 1-2.04 2.04L40 69.038l-2.038 2.039a1.442 1.442 0 1 1-2.04-2.04L37.962 67l-2.039-2.038a1.442 1.442 0 1 1 2.04-2.04L40 64.962z"/>
    </g>
</svg>
