<svg xmlns="http://www.w3.org/2000/svg" width="132" height="111" viewBox="0 0 132 111">
  <g fill="none" fill-rule="evenodd">
    <polygon fill="#FFF" points="20.49 55.312 54.378 110.624 75.802 110.624 131.114 55.313 75.801 .001"/>
    <path fill="#005AFA" d="M20.4912,55.3118 L54.3772,110.6238 L75.8012,110.6238 L131.1132,55.3118 L75.8022,0.0018 L20.4912,55.3118 Z M24.2842,55.7608 L75.8022,4.2428 L126.8712,55.3118 L74.5592,107.6238 L56.0582,107.6238 L24.2842,55.7608 Z"/>
    <polygon fill="#FFF" points="10.592 55.312 65.904 110.624 121.216 55.312 65.904 .001"/>
    <path fill="#005AFA" d="M10.593,55.3118 L65.904,110.6218 L121.215,55.3118 L65.904,0.0018 L10.593,55.3118 Z M14.836,55.3118 L65.904,4.2428 L116.972,55.3118 L65.904,106.3808 L14.836,55.3118 Z"/>
    <polygon fill="#FFF" points="0 55.311 55.311 110.622 110.623 55.311 55.311 .001"/>
    <path fill="#005AFA" d="M0,55.3109 L55.311,110.6219 L110.623,55.3109 L55.311,0.0009 L0,55.3109 Z M4.243,55.3109 L55.311,4.2419 L106.381,55.3109 L55.311,106.3809 L4.243,55.3109 Z"/>
    <polygon fill="#FFF" points="74.939 20.371 88.767 34.199 74.939 48.028 61.11 34.199"/>
    <path fill="#005AFA" d="M65.3538,34.1988 L74.9388,43.7848 L84.5248,34.1988 L74.9388,24.6138 L65.3538,34.1988 Z M74.9388,48.0268 L61.1108,34.1988 L74.9388,20.3708 L88.7678,34.1988 L74.9388,48.0268 Z"/>
  </g>
</svg>
