<svg xmlns="http://www.w3.org/2000/svg" width="9" height="9" viewBox="0 0 9 9">
  <path fill="#FFF" d="M12.1522469,5.25463265 L8.90641199,8.50353875 L12.1522469,11.7524449 C12.2611711,11.8653291 12.2596134,12.0447644 12.1487457,12.1557369 C12.0378781,12.2667094 11.8586125,12.2682687 11.7458349,12.1592414 L8.5,8.91033528 L5.25416507,12.1592414 C5.1413875,12.2682687 4.96212191,12.2667094 4.85125427,12.1557369 C4.74038663,12.0447644 4.73882886,11.8653291 4.84775308,11.7524449 L8.09358801,8.50353875 L4.84775308,5.25463265 C4.77303634,5.18240052 4.74307107,5.07543564 4.76937445,4.97485004 C4.79567782,4.87426444 4.87415642,4.79571158 4.97464694,4.76938332 C5.07513746,4.74305505 5.18200123,4.77304868 5.25416507,4.84783612 L8.5,8.09674222 L11.7458349,4.84783612 C11.8179988,4.77304868 11.9248625,4.74305505 12.0253531,4.76938332 C12.1258436,4.79571158 12.2043222,4.87426444 12.2306256,4.97485004 C12.2569289,5.07543564 12.2269637,5.18240052 12.1522469,5.25463265 Z" transform="translate(-4 -4)"/>
</svg>
