<svg xmlns="http://www.w3.org/2000/svg" width="22" height="22" viewBox="0 0 22 22">
    <g fill="none" fill-rule="nonzero">
        <path fill="#FFF" d="M17.993 9H3.815C2.365 9 1.117 7.902.89 6.44L0 0h21.807l-.157 1.14-.736 5.316C20.69 7.902 19.442 9 17.993 9zM2.252 2l.573 4.144c.074.476.505.856.99.856h14.178c.484 0 .916-.38.987-.84L19.556 2H2.252z"/>
        <path fill="#FFF" d="M10.904 16c-3.57 0-6.551-2.85-6.747-6.5L3.57 0h14.667l-.587 9.5c-.195 3.65-3.177 6.5-6.746 6.5zM16.77 19.5H5.037a.992.992 0 0 0-.978 1V22h13.69v-1.5c0-.55-.44-1-.979-1z"/>
        <path fill="#FFF" d="M9.437 15h2.933v5.5H9.437z"/>
        <path fill="#8FACFA" d="M10.904 9.4l1.71.9c.294.15.636-.1.539-.4l-.294-1.95 1.37-1.35c.244-.25.097-.65-.196-.65l-1.907-.3-.831-1.75a.373.373 0 0 0-.685 0l-.83 1.75-1.907.3c-.294.05-.44.45-.196.65l1.369 1.35-.342 1.95c-.05.3.293.55.537.4l1.663-.9z"/>
    </g>
</svg>
