<svg xmlns="http://www.w3.org/2000/svg" xmlns:xlink="http://www.w3.org/1999/xlink" width="355" height="209" viewBox="0 0 355 209">
    <defs>
        <path id="a" d="M2 2v128h98V2z"/>
        <path id="c" d="M2 2v128h98V2z"/>
        <path id="f" d="M2 0h122a2 2 0 0 1 2 2v157a2 2 0 0 1-2 2H2a2 2 0 0 1-2-2V2a2 2 0 0 1 2-2z"/>
        <filter id="e" width="105.6%" height="104.3%" x="-2.8%" y="-1.6%" filterUnits="objectBoundingBox">
            <feOffset dy="1" in="SourceAlpha" result="shadowOffsetOuter1"/>
            <feGaussianBlur in="shadowOffsetOuter1" result="shadowBlurOuter1" stdDeviation="1"/>
            <feColorMatrix in="shadowBlurOuter1" values="0 0 0 0 0.474509804 0 0 0 0 0.584313725 0 0 0 0 0.725490196 0 0 0 0.25 0"/>
        </filter>
    </defs>
    <g fill="none" fill-rule="evenodd">
        <path fill="#E2F0FF" fill-rule="nonzero" d="M355 141c0 22.073-14.446 40.737-34.308 46.869A32.925 32.925 0 0 1 309 190h-83.768c-13.008 10.626-29.626 17-47.732 17-18.106 0-34.724-6.374-47.732-17H62c-3.692 0-7.242-.606-10.557-1.725C21.97 181.402 0 154.785 0 123c0-37.003 29.773-67 66.5-67 5.951 0 11.72.788 17.208 2.265C98.098 25.155 131.095 2 169.5 2c29.203 0 55.278 13.388 72.424 34.36 31.642 3.089 57.559 25.71 65.536 55.65C333.803 92.525 355 114.261 355 141z"/>
        <path fill="#E9F4FF" fill-rule="nonzero" d="M307.421 94.009l-1.506-.03-.387-1.455c-7.84-29.421-33.28-51.194-63.798-54.173l-.828-.08-.526-.645C223.1 16.494 197.325 4 169.5 4c-36.783 0-69.547 21.905-83.958 55.062l-.687 1.583-1.667-.449A64.123 64.123 0 0 0 66.5 58C30.881 58 2 87.098 2 123c0 30.412 20.892 56.563 49.898 63.328l.185.052A30.96 30.96 0 0 0 62 188h68.481l.552.451C144.06 199.092 160.323 205 177.5 205c17.176 0 33.44-5.908 46.467-16.549l.552-.451H309c3.802 0 7.506-.684 10.984-2.002l.119-.04C339.493 179.972 353 161.816 353 141c0-25.615-20.292-46.495-45.579-46.991z"/>
        <g fill-rule="nonzero">
            <g fill="#A8C6DF">
                <path d="M71 41.849v2h-6.5a1 1 0 0 0-1 1V129.5h-2V44.849a3 3 0 0 1 3-3H71z"/>
                <path d="M71 74.849v2h-6.5a1 1 0 0 0-1 1V162.5h-2V77.849a3 3 0 0 1 3-3H71z"/>
                <path d="M71 105.849v2h-6.5a1 1 0 0 0-1 1V155.5h-2v-46.651a3 3 0 0 1 3-3H71z"/>
                <path d="M71 138.849v2h-6.5a1 1 0 0 0-1 1V166.5h-2v-24.651a3 3 0 0 1 3-3H71z"/>
            </g>
            <g fill="#A8C6DF">
                <path d="M283 41.849v2h6.5a1 1 0 0 1 1 1V129.5h2V44.849a3 3 0 0 0-3-3H283z"/>
                <path d="M283 74.849v2h6.5a1 1 0 0 1 1 1V162.5h2V77.849a3 3 0 0 0-3-3H283z"/>
                <path d="M283 105.849v2h6.5a1 1 0 0 1 1 1V155.5h2v-46.651a3 3 0 0 0-3-3H283z"/>
                <path d="M283 138.849v2h6.5a1 1 0 0 1 1 1V166.5h2v-24.651a3 3 0 0 0-3-3H283z"/>
            </g>
            <path fill="#A8C6DF" d="M131.5 153.706h2V184.5h-2zM216.5 153.706h2V184.5h-2z"/>
            <path fill="#A8C6DF" d="M61.5 162.128h2v18.335c0 2.41 2.092 3.398 6.524 3.559.805.029 1.48.031 2.859.021.577-.004.792-.006 1.08-.006h87.191c2.399 0 3.474.026 4.799.154 5.592.54 8.913 2.788 8.913 7.738h-2c0-3.663-2.41-5.294-7.105-5.747-1.24-.12-2.27-.146-4.335-.145H73.963c-.28 0-.493.002-1.065.006-1.408.01-2.103.008-2.947-.023-5.395-.196-8.451-1.64-8.451-5.557v-18.335zM292.5 159.648h-2v20.842c0 2.659-1.924 3.53-6.511 3.575-.5.004-.918.002-1.793-.009-.675-.008-.944-.01-1.293-.01h-87.191c-2.398-.001-3.474.025-4.799.153-5.592.54-8.913 2.788-8.913 7.739h2c0-3.663 2.41-5.294 7.106-5.748 1.24-.12 2.27-.145 4.334-.144h87.463c.338 0 .602.002 1.27.01.889.01 1.316.014 1.835.008 5.564-.053 8.492-1.38 8.492-5.574v-20.842z"/>
            <path fill="#7995B9" d="M177 201c-8.837 0-16-7.163-16-16s7.163-16 16-16 16 7.163 16 16-7.163 16-16 16z"/>
            <path fill="#FFF" d="M177 199c7.732 0 14-6.268 14-14s-6.268-14-14-14-14 6.268-14 14 6.268 14 14 14z"/>
            <path fill="#7995B9" d="M178.414 185l3.536 3.536a1 1 0 0 1-1.414 1.414L177 186.414l-3.536 3.536a1 1 0 0 1-1.414-1.414l3.536-3.536-3.536-3.536a1 1 0 0 1 1.414-1.414l3.536 3.536 3.536-3.536a1 1 0 0 1 1.414 1.414L178.414 185z"/>
        </g>
        <g opacity=".75" transform="translate(71 25)">
            <path fill="#7995B9" fill-rule="nonzero" d="M2 0h98a2 2 0 0 1 2 2v128a2 2 0 0 1-2 2H2a2 2 0 0 1-2-2V2a2 2 0 0 1 2-2z"/>
            <mask id="b" fill="#fff">
                <use xlink:href="#a"/>
            </mask>
            <use fill="#FFF" fill-rule="nonzero" xlink:href="#a"/>
            <path fill="#DFEAF8" fill-opacity=".5" fill-rule="nonzero" d="M68.81 2H100v128H68.81z" mask="url(#b)"/>
            <g mask="url(#b)">
                <g fill-rule="nonzero" transform="translate(74.476 39.49)">
                    <path fill="#7995B9" d="M14.571 10.098A5.048 5.048 0 0 1 9.524 5.05a5.048 5.048 0 1 1 5.047 5.05z"/>
                    <path fill="#FFF" d="M14.571 8.098a3.048 3.048 0 1 0-.001-6.097 3.048 3.048 0 0 0 .001 6.097z"/>
                    <rect width="7.286" height="2.429" y="1" fill="#7995B9" rx="1.215"/>
                    <path fill="#7995B9" d="M1.215 6.669h3.237a1.215 1.215 0 0 1 0 2.43H1.215a1.215 1.215 0 1 1 0-2.43z"/>
                    <g fill="#7995B9" opacity=".5" transform="translate(0 12.337)">
                        <rect width="2.429" height="2.429" rx="1.214"/>
                        <rect width="2.429" height="2.429" x="5.667" rx="1.214"/>
                        <path d="M12.548 0c.67 0 1.214.544 1.214 1.214v.001a1.214 1.214 0 0 1-2.429 0c0-.671.544-1.215 1.215-1.215zM18.214 0c.67 0 1.215.544 1.215 1.214v.001a1.214 1.214 0 1 1-2.429 0C17 .543 17.544 0 18.214 0zM1.214 6.479a1.214 1.214 0 0 1 0 2.43v-.001C.544 8.908 0 8.364 0 7.694v-.001c0-.67.544-1.214 1.214-1.214zM6.881 6.479a1.214 1.214 0 0 1 0 2.43v-.001c-.67 0-1.214-.544-1.214-1.214v-.001c0-.67.543-1.214 1.214-1.214zM12.548 6.479a1.214 1.214 0 0 1 0 2.43v-.001c-.671 0-1.215-.544-1.215-1.214v-.001c0-.67.544-1.214 1.215-1.214zM18.214 6.479a1.214 1.214 0 0 1 0 2.43v-.001c-.67 0-1.214-.544-1.214-1.214v-.001c0-.67.544-1.214 1.214-1.214zM4.048 3.24a1.214 1.214 0 0 1 0 2.43v-.001a1.214 1.214 0 1 1 0-2.43zM9.714 3.24a1.214 1.214 0 0 1 0 2.43v-.001a1.214 1.214 0 1 1 0-2.43zM15.381 3.24a1.214 1.214 0 0 1 0 2.43v-.001a1.214 1.214 0 1 1 0-2.43z"/>
                    </g>
                </g>
            </g>
            <g mask="url(#b)">
                <g fill-rule="nonzero" transform="translate(74.476 71.883)">
                    <path fill="#7995B9" d="M14.571 10.098A5.048 5.048 0 0 1 9.524 5.05a5.048 5.048 0 1 1 5.047 5.05z"/>
                    <path fill="#FFF" d="M14.571 8.098a3.048 3.048 0 1 0-.001-6.097 3.048 3.048 0 0 0 .001 6.097z"/>
                    <rect width="7.286" height="2.429" y="1" fill="#7995B9" rx="1.215"/>
                    <path fill="#7995B9" d="M1.215 6.669h3.237a1.215 1.215 0 0 1 0 2.43H1.215a1.215 1.215 0 1 1 0-2.43z"/>
                    <g fill="#7995B9" opacity=".5" transform="translate(0 12.337)">
                        <rect width="2.429" height="2.429" rx="1"/>
                        <rect width="2.429" height="2.429" x="5.667" rx="1"/>
                        <path d="M12.333 0h.429a1 1 0 0 1 1 1v.43a1 1 0 0 1-1 1h-.429a1 1 0 0 1-1-1V1a1 1 0 0 1 1-1zM18 0h.429a1 1 0 0 1 1 1v.43a1 1 0 0 1-1 1H18a1 1 0 0 1-1-1V1a1 1 0 0 1 1-1z"/>
                        <rect width="2.429" height="2.429" y="6.479" rx="1"/>
                        <rect width="2.429" height="2.429" x="5.667" y="6.479" rx="1"/>
                        <path d="M12.333 6.479h.429a1 1 0 0 1 1 1v.429a1 1 0 0 1-1 1h-.429a1 1 0 0 1-1-1v-.43a1 1 0 0 1 1-1zM18 6.479h.429a1 1 0 0 1 1 1v.429a1 1 0 0 1-1 1H18a1 1 0 0 1-1-1v-.43a1 1 0 0 1 1-1zM3.833 3.24h.429a1 1 0 0 1 1 1v.429a1 1 0 0 1-1 1h-.429a1 1 0 0 1-1-1v-.43a1 1 0 0 1 1-1zM9.5 3.24h.429a1 1 0 0 1 1 1v.429a1 1 0 0 1-1 1H9.5a1 1 0 0 1-1-1v-.43a1 1 0 0 1 1-1zM15.167 3.24h.428a1 1 0 0 1 1 1v.429a1 1 0 0 1-1 1h-.428a1 1 0 0 1-1-1v-.43a1 1 0 0 1 1-1z"/>
                    </g>
                </g>
            </g>
            <g mask="url(#b)">
                <g fill-rule="nonzero" transform="translate(74.476 104.276)">
                    <path fill="#7995B9" d="M14.571 10.098A5.048 5.048 0 0 1 9.524 5.05a5.048 5.048 0 1 1 5.047 5.05z"/>
                    <path fill="#FFF" d="M14.571 8.098a3.048 3.048 0 1 0-.001-6.097 3.048 3.048 0 0 0 .001 6.097z"/>
                    <rect width="7.286" height="2.429" y="1" fill="#7995B9" rx="1.215"/>
                    <rect width="5.667" height="2.429" y="6.669" fill="#7995B9" rx="1.215"/>
                    <g fill="#7995B9" opacity=".5" transform="translate(0 12.337)">
                        <rect width="2.429" height="2.429" rx="1.214"/>
                        <rect width="2.429" height="2.429" x="5.667" rx="1.214"/>
                        <path d="M12.548 0c.67 0 1.214.544 1.214 1.214v.001a1.214 1.214 0 0 1-2.429 0c0-.671.544-1.215 1.215-1.215zM18.214 0c.67 0 1.215.544 1.215 1.214v.001a1.214 1.214 0 1 1-2.429 0C17 .543 17.544 0 18.214 0zM1.214 6.479a1.214 1.214 0 0 1 0 2.43v-.001C.544 8.908 0 8.364 0 7.694v-.001c0-.67.544-1.214 1.214-1.214zM6.881 6.479a1.214 1.214 0 0 1 0 2.43v-.001c-.67 0-1.214-.544-1.214-1.214v-.001c0-.67.543-1.214 1.214-1.214zM12.548 6.479a1.214 1.214 0 0 1 0 2.43v-.001c-.671 0-1.215-.544-1.215-1.214v-.001c0-.67.544-1.214 1.215-1.214zM18.214 6.479a1.214 1.214 0 0 1 0 2.43v-.001c-.67 0-1.214-.544-1.214-1.214v-.001c0-.67.544-1.214 1.214-1.214zM4.048 3.24a1.214 1.214 0 0 1 0 2.43v-.001a1.214 1.214 0 1 1 0-2.43zM9.714 3.24a1.214 1.214 0 0 1 0 2.43v-.001a1.214 1.214 0 1 1 0-2.43zM15.381 3.24a1.214 1.214 0 0 1 0 2.43v-.001a1.214 1.214 0 1 1 0-2.43z"/>
                    </g>
                </g>
            </g>
            <g fill-rule="nonzero" mask="url(#b)">
                <g transform="translate(74.476 7.908)">
                    <path fill="#7995B9" d="M14.571 10.098A5.048 5.048 0 0 1 9.524 5.05a5.048 5.048 0 1 1 5.047 5.05z"/>
                    <path fill="#FFF" d="M14.571 8.098a3.048 3.048 0 1 0-.001-6.097 3.048 3.048 0 0 0 .001 6.097z"/>
                    <rect width="7.286" height="2.429" y="1" fill="#7995B9" rx="1.215"/>
                    <rect width="5.667" height="2.429" y="6.669" fill="#7995B9" rx="1.215"/>
                    <path fill="#7995B9" d="M1 12.337h.429a1 1 0 0 1 1 1v.43a1 1 0 0 1-1 1H1a1 1 0 0 1-1-1v-.43a1 1 0 0 1 1-1zM6.667 12.337h.428a1 1 0 0 1 1 1v.43a1 1 0 0 1-1 1h-.428a1 1 0 0 1-1-1v-.43a1 1 0 0 1 1-1zM12.333 12.337h.429a1 1 0 0 1 1 1v.43a1 1 0 0 1-1 1h-.429a1 1 0 0 1-1-1v-.43a1 1 0 0 1 1-1zM18 12.337h.429a1 1 0 0 1 1 1v.43a1 1 0 0 1-1 1H18a1 1 0 0 1-1-1v-.43a1 1 0 0 1 1-1zM1 18.816h.429a1 1 0 0 1 1 1v.43a1 1 0 0 1-1 1H1a1 1 0 0 1-1-1v-.43a1 1 0 0 1 1-1zM6.667 18.816h.428a1 1 0 0 1 1 1v.43a1 1 0 0 1-1 1h-.428a1 1 0 0 1-1-1v-.43a1 1 0 0 1 1-1zM12.333 18.816h.429a1 1 0 0 1 1 1v.43a1 1 0 0 1-1 1h-.429a1 1 0 0 1-1-1v-.43a1 1 0 0 1 1-1zM18 18.816h.429a1 1 0 0 1 1 1v.43a1 1 0 0 1-1 1H18a1 1 0 0 1-1-1v-.43a1 1 0 0 1 1-1zM3.833 15.577h.429a1 1 0 0 1 1 1v.43a1 1 0 0 1-1 1h-.429a1 1 0 0 1-1-1v-.43a1 1 0 0 1 1-1zM9.5 15.577h.429a1 1 0 0 1 1 1v.43a1 1 0 0 1-1 1H9.5a1 1 0 0 1-1-1v-.43a1 1 0 0 1 1-1zM15.167 15.577h.428a1 1 0 0 1 1 1v.43a1 1 0 0 1-1 1h-.428a1 1 0 0 1-1-1v-.43a1 1 0 0 1 1-1z" opacity=".5"/>
                </g>
            </g>
            <g fill-rule="nonzero" mask="url(#b)">
                <path fill="#7995B9" d="M8 8h6.03a1 1 0 0 1 1 1v12.87a1 1 0 0 1-1 1H8a1 1 0 0 1-1-1V9a1 1 0 0 1 1-1z"/>
                <path fill="#E9F4FF" d="M9 10v10.87h4.03V10z"/>
                <path fill="#7995B9" d="M19.242 8h6.03a1 1 0 0 1 1 1v12.87a1 1 0 0 1-1 1h-6.03a1 1 0 0 1-1-1V9a1 1 0 0 1 1-1z"/>
                <path fill="#E9F4FF" d="M20.242 10v10.87h4.03V10z"/>
                <path fill="#7995B9" d="M30.485 8h6.03a1 1 0 0 1 1 1v12.87a1 1 0 0 1-1 1h-6.03a1 1 0 0 1-1-1V9a1 1 0 0 1 1-1z"/>
                <path fill="#E9F4FF" d="M31.485 10v10.87h4.03V10z"/>
                <path fill="#7995B9" d="M41.727 8h6.03a1 1 0 0 1 1 1v12.87a1 1 0 0 1-1 1h-6.03a1 1 0 0 1-1-1V9a1 1 0 0 1 1-1z"/>
                <path fill="#E9F4FF" d="M42.727 10v10.87h4.03V10z"/>
                <path fill="#7995B9" d="M52.97 8H59a1 1 0 0 1 1 1v12.87a1 1 0 0 1-1 1h-6.03a1 1 0 0 1-1-1V9a1 1 0 0 1 1-1z"/>
                <path fill="#E9F4FF" d="M53.97 10v10.87H58V10z"/>
            </g>
            <path fill="#EF4829" fill-rule="nonzero" d="M8 24.522h6.03a1 1 0 0 1 1 1V26a1 1 0 0 1-1 1H8a1 1 0 0 1-1-1v-.478a1 1 0 0 1 1-1z" mask="url(#b)"/>
            <path fill="#7995B9" fill-rule="nonzero" d="M19.242 24.522h6.03a1 1 0 0 1 1 1V26a1 1 0 0 1-1 1h-6.03a1 1 0 0 1-1-1v-.478a1 1 0 0 1 1-1z" mask="url(#b)"/>
            <path fill="#EF4829" fill-rule="nonzero" d="M30.485 24.522h6.03a1 1 0 0 1 1 1V26a1 1 0 0 1-1 1h-6.03a1 1 0 0 1-1-1v-.478a1 1 0 0 1 1-1zM42 24.52h6.03a1 1 0 0 1 1 1v.478a1 1 0 0 1-1 1H42a1 1 0 0 1-1-1v-.478a1 1 0 0 1 1-1zM52.97 24.52H59a1 1 0 0 1 1 1v.478a1 1 0 0 1-1 1h-6.03a1 1 0 0 1-1-1v-.478a1 1 0 0 1 1-1z" mask="url(#b)"/>
            <path fill="#7995B9" fill-rule="nonzero" d="M8 74h6.03a1 1 0 0 1 1 1v12.87a1 1 0 0 1-1 1H8a1 1 0 0 1-1-1V75a1 1 0 0 1 1-1z" mask="url(#b)"/>
            <path fill="#E9F4FF" fill-rule="nonzero" d="M9 76v10.87h4.03V76z" mask="url(#b)"/>
            <path fill="#7995B9" fill-rule="nonzero" d="M19.242 74h6.03a1 1 0 0 1 1 1v12.87a1 1 0 0 1-1 1h-6.03a1 1 0 0 1-1-1V75a1 1 0 0 1 1-1z" mask="url(#b)"/>
            <path fill="#E9F4FF" fill-rule="nonzero" d="M20.242 76v10.87h4.03V76z" mask="url(#b)"/>
            <path fill="#7995B9" fill-rule="nonzero" d="M30.485 74h6.03a1 1 0 0 1 1 1v12.87a1 1 0 0 1-1 1h-6.03a1 1 0 0 1-1-1V75a1 1 0 0 1 1-1z" mask="url(#b)"/>
            <path fill="#E9F4FF" fill-rule="nonzero" d="M31.485 86.87h4.03V76h-4.03z" mask="url(#b)"/>
            <path fill="#7995B9" fill-rule="nonzero" d="M41.727 74h6.03a1 1 0 0 1 1 1v12.87a1 1 0 0 1-1 1h-6.03a1 1 0 0 1-1-1V75a1 1 0 0 1 1-1z" mask="url(#b)"/>
            <path fill="#E9F4FF" fill-rule="nonzero" d="M42.727 86.87h4.03V76h-4.03z" mask="url(#b)"/>
            <path fill="#7995B9" fill-rule="nonzero" d="M52.97 74H59a1 1 0 0 1 1 1v12.87a1 1 0 0 1-1 1h-6.03a1 1 0 0 1-1-1V75a1 1 0 0 1 1-1z" mask="url(#b)"/>
            <path fill="#E9F4FF" fill-rule="nonzero" d="M53.97 76v10.87H58V76z" mask="url(#b)"/>
            <rect width="8.03" height="2.478" x="7" y="90.522" fill="#EF4829" fill-rule="nonzero" mask="url(#b)" rx="1"/>
            <path fill="#EF4829" fill-rule="nonzero" d="M19.242 90.522h6.03a1 1 0 0 1 1 1V92a1 1 0 0 1-1 1h-6.03a1 1 0 0 1-1-1v-.478a1 1 0 0 1 1-1z" mask="url(#b)"/>
            <path fill="#7995B9" fill-rule="nonzero" d="M30.485 90.522h6.03a1 1 0 0 1 1 1V92a1 1 0 0 1-1 1h-6.03a1 1 0 0 1-1-1v-.478a1 1 0 0 1 1-1z" mask="url(#b)"/>
            <path fill="#EF4829" fill-rule="nonzero" d="M41.727 90.522h6.03a1 1 0 0 1 1 1V92a1 1 0 0 1-1 1h-6.03a1 1 0 0 1-1-1v-.478a1 1 0 0 1 1-1z" mask="url(#b)"/>
            <rect width="8.03" height="2.478" x="51.97" y="90.522" fill="#EF4829" fill-rule="nonzero" mask="url(#b)" rx="1"/>
            <g fill-rule="nonzero" mask="url(#b)">
                <path fill="#7995B9" d="M8 41.381h6.03a1 1 0 0 1 1 1v12.571a1 1 0 0 1-1 1H8a1 1 0 0 1-1-1V42.381a1 1 0 0 1 1-1z"/>
                <path fill="#E9F4FF" d="M9 43.381v10.571h4.03V43.381z"/>
                <path fill="#7995B9" d="M19.242 41.381h6.03a1 1 0 0 1 1 1v12.571a1 1 0 0 1-1 1h-6.03a1 1 0 0 1-1-1V42.381a1 1 0 0 1 1-1z"/>
                <path fill="#E9F4FF" d="M20.242 53.952h4.03V43.381h-4.03z"/>
                <path fill="#7995B9" d="M30.485 41.381h6.03a1 1 0 0 1 1 1v12.571a1 1 0 0 1-1 1h-6.03a1 1 0 0 1-1-1V42.381a1 1 0 0 1 1-1z"/>
                <path fill="#E9F4FF" d="M31.485 53.952h4.03V43.381h-4.03z"/>
                <path fill="#7995B9" d="M41.727 41.381h6.03a1 1 0 0 1 1 1v12.571a1 1 0 0 1-1 1h-6.03a1 1 0 0 1-1-1V42.381a1 1 0 0 1 1-1z"/>
                <path fill="#E9F4FF" d="M42.727 43.381v10.571h4.03V43.381z"/>
                <path fill="#7995B9" d="M52.97 41.381H59a1 1 0 0 1 1 1v12.571a1 1 0 0 1-1 1h-6.03a1 1 0 0 1-1-1V42.381a1 1 0 0 1 1-1z"/>
                <path fill="#E9F4FF" d="M53.97 53.952H58V43.381h-4.03z"/>
                <path fill="#7995B9" d="M8 57.571h6.03a1 1 0 0 1 1 1V59a1 1 0 0 1-1 1H8a1 1 0 0 1-1-1v-.429a1 1 0 0 1 1-1z"/>
                <path fill="#EF4829" d="M19.242 57.571h6.03a1 1 0 0 1 1 1V59a1 1 0 0 1-1 1h-6.03a1 1 0 0 1-1-1v-.429a1 1 0 0 1 1-1zM30.485 57.571h6.03a1 1 0 0 1 1 1V59a1 1 0 0 1-1 1h-6.03a1 1 0 0 1-1-1v-.429a1 1 0 0 1 1-1zM41.727 57.571h6.03a1 1 0 0 1 1 1V59a1 1 0 0 1-1 1h-6.03a1 1 0 0 1-1-1v-.429a1 1 0 0 1 1-1zM52.97 57.571H59a1 1 0 0 1 1 1V59a1 1 0 0 1-1 1h-6.03a1 1 0 0 1-1-1v-.429a1 1 0 0 1 1-1z"/>
            </g>
            <path fill="#7995B9" fill-rule="nonzero" d="M0 33h102v2H0zM0 66h102v2H0zM0 98h102v2H0zM8 106h6.03a1 1 0 0 1 1 1v12.87a1 1 0 0 1-1 1H8a1 1 0 0 1-1-1V107a1 1 0 0 1 1-1z" mask="url(#b)"/>
            <path fill="#E9F4FF" fill-rule="nonzero" d="M9 108v10.87h4.03V108z" mask="url(#b)"/>
            <path fill="#7995B9" fill-rule="nonzero" d="M19.242 106h6.03a1 1 0 0 1 1 1v12.87a1 1 0 0 1-1 1h-6.03a1 1 0 0 1-1-1V107a1 1 0 0 1 1-1z" mask="url(#b)"/>
            <path fill="#E9F4FF" fill-rule="nonzero" d="M20.242 108v10.87h4.03V108z" mask="url(#b)"/>
            <path fill="#7995B9" fill-rule="nonzero" d="M30.485 106h6.03a1 1 0 0 1 1 1v12.87a1 1 0 0 1-1 1h-6.03a1 1 0 0 1-1-1V107a1 1 0 0 1 1-1z" mask="url(#b)"/>
            <path fill="#E9F4FF" fill-rule="nonzero" d="M31.485 118.87h4.03V108h-4.03z" mask="url(#b)"/>
            <path fill="#7995B9" fill-rule="nonzero" d="M41.727 106h6.03a1 1 0 0 1 1 1v12.87a1 1 0 0 1-1 1h-6.03a1 1 0 0 1-1-1V107a1 1 0 0 1 1-1z" mask="url(#b)"/>
            <path fill="#E9F4FF" fill-rule="nonzero" d="M42.727 118.87h4.03V108h-4.03z" mask="url(#b)"/>
            <path fill="#7995B9" fill-rule="nonzero" d="M52.97 106H59a1 1 0 0 1 1 1v12.87a1 1 0 0 1-1 1h-6.03a1 1 0 0 1-1-1V107a1 1 0 0 1 1-1z" mask="url(#b)"/>
            <path fill="#E9F4FF" fill-rule="nonzero" d="M53.97 108v10.87H58V108z" mask="url(#b)"/>
            <rect width="8.03" height="2.478" x="7" y="122.522" fill="#EF4829" fill-rule="nonzero" mask="url(#b)" rx="1"/>
            <path fill="#7995B9" fill-rule="nonzero" d="M19.242 122.522h6.03a1 1 0 0 1 1 1V124a1 1 0 0 1-1 1h-6.03a1 1 0 0 1-1-1v-.478a1 1 0 0 1 1-1z" mask="url(#b)"/>
            <path fill="#EF4829" fill-rule="nonzero" d="M30.485 122.522h6.03a1 1 0 0 1 1 1V124a1 1 0 0 1-1 1h-6.03a1 1 0 0 1-1-1v-.478a1 1 0 0 1 1-1z" mask="url(#b)"/>
            <path fill="#7995B9" fill-rule="nonzero" d="M41.727 122.522h6.03a1 1 0 0 1 1 1V124a1 1 0 0 1-1 1h-6.03a1 1 0 0 1-1-1v-.478a1 1 0 0 1 1-1z" mask="url(#b)"/>
            <rect width="8.03" height="2.478" x="51.97" y="122.522" fill="#EF4829" fill-rule="nonzero" mask="url(#b)" rx="1"/>
        </g>
        <g opacity=".75" transform="translate(181 25)">
            <path fill="#7995B9" fill-rule="nonzero" d="M2 0h98a2 2 0 0 1 2 2v128a2 2 0 0 1-2 2H2a2 2 0 0 1-2-2V2a2 2 0 0 1 2-2z"/>
            <mask id="d" fill="#fff">
                <use xlink:href="#c"/>
            </mask>
            <use fill="#FFF" fill-rule="nonzero" xlink:href="#c"/>
            <path fill="#DFEAF8" fill-opacity=".5" fill-rule="nonzero" d="M68.81 2H100v128H68.81z" mask="url(#d)"/>
            <g mask="url(#d)">
                <g fill-rule="nonzero" transform="translate(74.476 39.49)">
                    <path fill="#7995B9" d="M14.571 10.098A5.048 5.048 0 0 1 9.524 5.05a5.048 5.048 0 1 1 5.047 5.05z"/>
                    <path fill="#FFF" d="M14.571 8.098a3.048 3.048 0 1 0-.001-6.097 3.048 3.048 0 0 0 .001 6.097z"/>
                    <rect width="7.286" height="2.429" y="1" fill="#7995B9" rx="1.215"/>
                    <path fill="#7995B9" d="M1.215 6.669h3.237a1.215 1.215 0 0 1 0 2.43H1.215a1.215 1.215 0 1 1 0-2.43z"/>
                    <g fill="#7995B9" opacity=".5" transform="translate(0 12.337)">
                        <rect width="2.429" height="2.429" rx="1.214"/>
                        <rect width="2.429" height="2.429" x="5.667" rx="1.214"/>
                        <path d="M12.548 0c.67 0 1.214.544 1.214 1.214v.001a1.214 1.214 0 0 1-2.429 0c0-.671.544-1.215 1.215-1.215zM18.214 0c.67 0 1.215.544 1.215 1.214v.001a1.214 1.214 0 1 1-2.429 0C17 .543 17.544 0 18.214 0zM1.214 6.479a1.214 1.214 0 0 1 0 2.43v-.001C.544 8.908 0 8.364 0 7.694v-.001c0-.67.544-1.214 1.214-1.214zM6.881 6.479a1.214 1.214 0 0 1 0 2.43v-.001c-.67 0-1.214-.544-1.214-1.214v-.001c0-.67.543-1.214 1.214-1.214zM12.548 6.479a1.214 1.214 0 0 1 0 2.43v-.001c-.671 0-1.215-.544-1.215-1.214v-.001c0-.67.544-1.214 1.215-1.214zM18.214 6.479a1.214 1.214 0 0 1 0 2.43v-.001c-.67 0-1.214-.544-1.214-1.214v-.001c0-.67.544-1.214 1.214-1.214zM4.048 3.24a1.214 1.214 0 0 1 0 2.43v-.001a1.214 1.214 0 1 1 0-2.43zM9.714 3.24a1.214 1.214 0 0 1 0 2.43v-.001a1.214 1.214 0 1 1 0-2.43zM15.381 3.24a1.214 1.214 0 0 1 0 2.43v-.001a1.214 1.214 0 1 1 0-2.43z"/>
                    </g>
                </g>
            </g>
            <g mask="url(#d)">
                <g fill-rule="nonzero" transform="translate(74.476 71.883)">
                    <path fill="#7995B9" d="M14.571 10.098A5.048 5.048 0 0 1 9.524 5.05a5.048 5.048 0 1 1 5.047 5.05z"/>
                    <path fill="#FFF" d="M14.571 8.098a3.048 3.048 0 1 0-.001-6.097 3.048 3.048 0 0 0 .001 6.097z"/>
                    <rect width="7.286" height="2.429" y="1" fill="#7995B9" rx="1.215"/>
                    <path fill="#7995B9" d="M1.215 6.669h3.237a1.215 1.215 0 0 1 0 2.43H1.215a1.215 1.215 0 1 1 0-2.43z"/>
                    <g fill="#7995B9" opacity=".5" transform="translate(0 12.337)">
                        <rect width="2.429" height="2.429" rx="1"/>
                        <rect width="2.429" height="2.429" x="5.667" rx="1"/>
                        <path d="M12.333 0h.429a1 1 0 0 1 1 1v.43a1 1 0 0 1-1 1h-.429a1 1 0 0 1-1-1V1a1 1 0 0 1 1-1zM18 0h.429a1 1 0 0 1 1 1v.43a1 1 0 0 1-1 1H18a1 1 0 0 1-1-1V1a1 1 0 0 1 1-1z"/>
                        <rect width="2.429" height="2.429" y="6.479" rx="1"/>
                        <rect width="2.429" height="2.429" x="5.667" y="6.479" rx="1"/>
                        <path d="M12.333 6.479h.429a1 1 0 0 1 1 1v.429a1 1 0 0 1-1 1h-.429a1 1 0 0 1-1-1v-.43a1 1 0 0 1 1-1zM18 6.479h.429a1 1 0 0 1 1 1v.429a1 1 0 0 1-1 1H18a1 1 0 0 1-1-1v-.43a1 1 0 0 1 1-1zM3.833 3.24h.429a1 1 0 0 1 1 1v.429a1 1 0 0 1-1 1h-.429a1 1 0 0 1-1-1v-.43a1 1 0 0 1 1-1zM9.5 3.24h.429a1 1 0 0 1 1 1v.429a1 1 0 0 1-1 1H9.5a1 1 0 0 1-1-1v-.43a1 1 0 0 1 1-1zM15.167 3.24h.428a1 1 0 0 1 1 1v.429a1 1 0 0 1-1 1h-.428a1 1 0 0 1-1-1v-.43a1 1 0 0 1 1-1z"/>
                    </g>
                </g>
            </g>
            <g mask="url(#d)">
                <g fill-rule="nonzero" transform="translate(74.476 104.276)">
                    <path fill="#7995B9" d="M14.571 10.098A5.048 5.048 0 0 1 9.524 5.05a5.048 5.048 0 1 1 5.047 5.05z"/>
                    <path fill="#FFF" d="M14.571 8.098a3.048 3.048 0 1 0-.001-6.097 3.048 3.048 0 0 0 .001 6.097z"/>
                    <rect width="7.286" height="2.429" y="1" fill="#7995B9" rx="1.215"/>
                    <rect width="5.667" height="2.429" y="6.669" fill="#7995B9" rx="1.215"/>
                    <g fill="#7995B9" opacity=".5" transform="translate(0 12.337)">
                        <rect width="2.429" height="2.429" rx="1.214"/>
                        <rect width="2.429" height="2.429" x="5.667" rx="1.214"/>
                        <path d="M12.548 0c.67 0 1.214.544 1.214 1.214v.001a1.214 1.214 0 0 1-2.429 0c0-.671.544-1.215 1.215-1.215zM18.214 0c.67 0 1.215.544 1.215 1.214v.001a1.214 1.214 0 1 1-2.429 0C17 .543 17.544 0 18.214 0zM1.214 6.479a1.214 1.214 0 0 1 0 2.43v-.001C.544 8.908 0 8.364 0 7.694v-.001c0-.67.544-1.214 1.214-1.214zM6.881 6.479a1.214 1.214 0 0 1 0 2.43v-.001c-.67 0-1.214-.544-1.214-1.214v-.001c0-.67.543-1.214 1.214-1.214zM12.548 6.479a1.214 1.214 0 0 1 0 2.43v-.001c-.671 0-1.215-.544-1.215-1.214v-.001c0-.67.544-1.214 1.215-1.214zM18.214 6.479a1.214 1.214 0 0 1 0 2.43v-.001c-.67 0-1.214-.544-1.214-1.214v-.001c0-.67.544-1.214 1.214-1.214zM4.048 3.24a1.214 1.214 0 0 1 0 2.43v-.001a1.214 1.214 0 1 1 0-2.43zM9.714 3.24a1.214 1.214 0 0 1 0 2.43v-.001a1.214 1.214 0 1 1 0-2.43zM15.381 3.24a1.214 1.214 0 0 1 0 2.43v-.001a1.214 1.214 0 1 1 0-2.43z"/>
                    </g>
                </g>
            </g>
            <g fill-rule="nonzero" mask="url(#d)">
                <g transform="translate(74.476 7.908)">
                    <path fill="#7995B9" d="M14.571 10.098A5.048 5.048 0 0 1 9.524 5.05a5.048 5.048 0 1 1 5.047 5.05z"/>
                    <path fill="#FFF" d="M14.571 8.098a3.048 3.048 0 1 0-.001-6.097 3.048 3.048 0 0 0 .001 6.097z"/>
                    <rect width="7.286" height="2.429" y="1" fill="#7995B9" rx="1.215"/>
                    <rect width="5.667" height="2.429" y="6.669" fill="#7995B9" rx="1.215"/>
                    <path fill="#7995B9" d="M1 12.337h.429a1 1 0 0 1 1 1v.43a1 1 0 0 1-1 1H1a1 1 0 0 1-1-1v-.43a1 1 0 0 1 1-1zM6.667 12.337h.428a1 1 0 0 1 1 1v.43a1 1 0 0 1-1 1h-.428a1 1 0 0 1-1-1v-.43a1 1 0 0 1 1-1zM12.333 12.337h.429a1 1 0 0 1 1 1v.43a1 1 0 0 1-1 1h-.429a1 1 0 0 1-1-1v-.43a1 1 0 0 1 1-1zM18 12.337h.429a1 1 0 0 1 1 1v.43a1 1 0 0 1-1 1H18a1 1 0 0 1-1-1v-.43a1 1 0 0 1 1-1zM1 18.816h.429a1 1 0 0 1 1 1v.43a1 1 0 0 1-1 1H1a1 1 0 0 1-1-1v-.43a1 1 0 0 1 1-1zM6.667 18.816h.428a1 1 0 0 1 1 1v.43a1 1 0 0 1-1 1h-.428a1 1 0 0 1-1-1v-.43a1 1 0 0 1 1-1zM12.333 18.816h.429a1 1 0 0 1 1 1v.43a1 1 0 0 1-1 1h-.429a1 1 0 0 1-1-1v-.43a1 1 0 0 1 1-1zM18 18.816h.429a1 1 0 0 1 1 1v.43a1 1 0 0 1-1 1H18a1 1 0 0 1-1-1v-.43a1 1 0 0 1 1-1zM3.833 15.577h.429a1 1 0 0 1 1 1v.43a1 1 0 0 1-1 1h-.429a1 1 0 0 1-1-1v-.43a1 1 0 0 1 1-1zM9.5 15.577h.429a1 1 0 0 1 1 1v.43a1 1 0 0 1-1 1H9.5a1 1 0 0 1-1-1v-.43a1 1 0 0 1 1-1zM15.167 15.577h.428a1 1 0 0 1 1 1v.43a1 1 0 0 1-1 1h-.428a1 1 0 0 1-1-1v-.43a1 1 0 0 1 1-1z" opacity=".5"/>
                </g>
            </g>
            <g fill-rule="nonzero" mask="url(#d)">
                <path fill="#7995B9" d="M10 8h6.03a1 1 0 0 1 1 1v12.87a1 1 0 0 1-1 1H10a1 1 0 0 1-1-1V9a1 1 0 0 1 1-1z"/>
                <path fill="#E9F4FF" d="M11 10v10.87h4.03V10z"/>
                <path fill="#7995B9" d="M21.242 8h6.03a1 1 0 0 1 1 1v12.87a1 1 0 0 1-1 1h-6.03a1 1 0 0 1-1-1V9a1 1 0 0 1 1-1z"/>
                <path fill="#E9F4FF" d="M22.242 10v10.87h4.03V10z"/>
                <path fill="#7995B9" d="M32.485 8h6.03a1 1 0 0 1 1 1v12.87a1 1 0 0 1-1 1h-6.03a1 1 0 0 1-1-1V9a1 1 0 0 1 1-1z"/>
                <path fill="#E9F4FF" d="M33.485 10v10.87h4.03V10z"/>
                <path fill="#7995B9" d="M43.727 8h6.03a1 1 0 0 1 1 1v12.87a1 1 0 0 1-1 1h-6.03a1 1 0 0 1-1-1V9a1 1 0 0 1 1-1z"/>
                <path fill="#E9F4FF" d="M44.727 10v10.87h4.03V10z"/>
                <path fill="#7995B9" d="M54.97 8H61a1 1 0 0 1 1 1v12.87a1 1 0 0 1-1 1h-6.03a1 1 0 0 1-1-1V9a1 1 0 0 1 1-1z"/>
                <path fill="#E9F4FF" d="M55.97 10v10.87H60V10z"/>
            </g>
            <path fill="#EF4829" fill-rule="nonzero" d="M10 24.522h6.03a1 1 0 0 1 1 1V26a1 1 0 0 1-1 1H10a1 1 0 0 1-1-1v-.478a1 1 0 0 1 1-1z" mask="url(#d)"/>
            <path fill="#7995B9" fill-rule="nonzero" d="M21.242 24.522h6.03a1 1 0 0 1 1 1V26a1 1 0 0 1-1 1h-6.03a1 1 0 0 1-1-1v-.478a1 1 0 0 1 1-1z" mask="url(#d)"/>
            <path fill="#EF4829" fill-rule="nonzero" d="M32.485 24.522h6.03a1 1 0 0 1 1 1V26a1 1 0 0 1-1 1h-6.03a1 1 0 0 1-1-1v-.478a1 1 0 0 1 1-1zM44 24.52h6.03a1 1 0 0 1 1 1v.478a1 1 0 0 1-1 1H44a1 1 0 0 1-1-1v-.478a1 1 0 0 1 1-1zM54.97 24.52H61a1 1 0 0 1 1 1v.478a1 1 0 0 1-1 1h-6.03a1 1 0 0 1-1-1v-.478a1 1 0 0 1 1-1z" mask="url(#d)"/>
            <path fill="#7995B9" fill-rule="nonzero" d="M10 74h6.03a1 1 0 0 1 1 1v12.87a1 1 0 0 1-1 1H10a1 1 0 0 1-1-1V75a1 1 0 0 1 1-1z" mask="url(#d)"/>
            <path fill="#E9F4FF" fill-rule="nonzero" d="M11 76v10.87h4.03V76z" mask="url(#d)"/>
            <path fill="#7995B9" fill-rule="nonzero" d="M21.242 74h6.03a1 1 0 0 1 1 1v12.87a1 1 0 0 1-1 1h-6.03a1 1 0 0 1-1-1V75a1 1 0 0 1 1-1z" mask="url(#d)"/>
            <path fill="#E9F4FF" fill-rule="nonzero" d="M22.242 76v10.87h4.03V76z" mask="url(#d)"/>
            <path fill="#7995B9" fill-rule="nonzero" d="M32.485 74h6.03a1 1 0 0 1 1 1v12.87a1 1 0 0 1-1 1h-6.03a1 1 0 0 1-1-1V75a1 1 0 0 1 1-1z" mask="url(#d)"/>
            <path fill="#E9F4FF" fill-rule="nonzero" d="M33.485 86.87h4.03V76h-4.03z" mask="url(#d)"/>
            <path fill="#7995B9" fill-rule="nonzero" d="M43.727 74h6.03a1 1 0 0 1 1 1v12.87a1 1 0 0 1-1 1h-6.03a1 1 0 0 1-1-1V75a1 1 0 0 1 1-1z" mask="url(#d)"/>
            <path fill="#E9F4FF" fill-rule="nonzero" d="M44.727 86.87h4.03V76h-4.03z" mask="url(#d)"/>
            <path fill="#7995B9" fill-rule="nonzero" d="M54.97 74H61a1 1 0 0 1 1 1v12.87a1 1 0 0 1-1 1h-6.03a1 1 0 0 1-1-1V75a1 1 0 0 1 1-1z" mask="url(#d)"/>
            <path fill="#E9F4FF" fill-rule="nonzero" d="M55.97 76v10.87H60V76z" mask="url(#d)"/>
            <rect width="8.03" height="2.478" x="9" y="90.522" fill="#EF4829" fill-rule="nonzero" mask="url(#d)" rx="1"/>
            <path fill="#EF4829" fill-rule="nonzero" d="M21.242 90.522h6.03a1 1 0 0 1 1 1V92a1 1 0 0 1-1 1h-6.03a1 1 0 0 1-1-1v-.478a1 1 0 0 1 1-1z" mask="url(#d)"/>
            <path fill="#7995B9" fill-rule="nonzero" d="M32.485 90.522h6.03a1 1 0 0 1 1 1V92a1 1 0 0 1-1 1h-6.03a1 1 0 0 1-1-1v-.478a1 1 0 0 1 1-1z" mask="url(#d)"/>
            <path fill="#EF4829" fill-rule="nonzero" d="M43.727 90.522h6.03a1 1 0 0 1 1 1V92a1 1 0 0 1-1 1h-6.03a1 1 0 0 1-1-1v-.478a1 1 0 0 1 1-1z" mask="url(#d)"/>
            <rect width="8.03" height="2.478" x="53.97" y="90.522" fill="#EF4829" fill-rule="nonzero" mask="url(#d)" rx="1"/>
            <g fill-rule="nonzero" mask="url(#d)">
                <path fill="#7995B9" d="M10 41.381h6.03a1 1 0 0 1 1 1v12.571a1 1 0 0 1-1 1H10a1 1 0 0 1-1-1V42.381a1 1 0 0 1 1-1z"/>
                <path fill="#E9F4FF" d="M11 43.381v10.571h4.03V43.381z"/>
                <path fill="#7995B9" d="M21.242 41.381h6.03a1 1 0 0 1 1 1v12.571a1 1 0 0 1-1 1h-6.03a1 1 0 0 1-1-1V42.381a1 1 0 0 1 1-1z"/>
                <path fill="#E9F4FF" d="M22.242 53.952h4.03V43.381h-4.03z"/>
                <path fill="#7995B9" d="M32.485 41.381h6.03a1 1 0 0 1 1 1v12.571a1 1 0 0 1-1 1h-6.03a1 1 0 0 1-1-1V42.381a1 1 0 0 1 1-1z"/>
                <path fill="#E9F4FF" d="M33.485 53.952h4.03V43.381h-4.03z"/>
                <path fill="#7995B9" d="M43.727 41.381h6.03a1 1 0 0 1 1 1v12.571a1 1 0 0 1-1 1h-6.03a1 1 0 0 1-1-1V42.381a1 1 0 0 1 1-1z"/>
                <path fill="#E9F4FF" d="M44.727 43.381v10.571h4.03V43.381z"/>
                <path fill="#7995B9" d="M54.97 41.381H61a1 1 0 0 1 1 1v12.571a1 1 0 0 1-1 1h-6.03a1 1 0 0 1-1-1V42.381a1 1 0 0 1 1-1z"/>
                <path fill="#E9F4FF" d="M55.97 53.952H60V43.381h-4.03z"/>
                <path fill="#7995B9" d="M10 57.571h6.03a1 1 0 0 1 1 1V59a1 1 0 0 1-1 1H10a1 1 0 0 1-1-1v-.429a1 1 0 0 1 1-1z"/>
                <path fill="#EF4829" d="M21.242 57.571h6.03a1 1 0 0 1 1 1V59a1 1 0 0 1-1 1h-6.03a1 1 0 0 1-1-1v-.429a1 1 0 0 1 1-1zM32.485 57.571h6.03a1 1 0 0 1 1 1V59a1 1 0 0 1-1 1h-6.03a1 1 0 0 1-1-1v-.429a1 1 0 0 1 1-1zM43.727 57.571h6.03a1 1 0 0 1 1 1V59a1 1 0 0 1-1 1h-6.03a1 1 0 0 1-1-1v-.429a1 1 0 0 1 1-1zM54.97 57.571H61a1 1 0 0 1 1 1V59a1 1 0 0 1-1 1h-6.03a1 1 0 0 1-1-1v-.429a1 1 0 0 1 1-1z"/>
            </g>
            <path fill="#7995B9" fill-rule="nonzero" d="M0 33h102v2H0zM0 66h102v2H0zM0 98h102v2H0zM10 106h6.03a1 1 0 0 1 1 1v12.87a1 1 0 0 1-1 1H10a1 1 0 0 1-1-1V107a1 1 0 0 1 1-1z" mask="url(#d)"/>
            <path fill="#E9F4FF" fill-rule="nonzero" d="M11 108v10.87h4.03V108z" mask="url(#d)"/>
            <path fill="#7995B9" fill-rule="nonzero" d="M21.242 106h6.03a1 1 0 0 1 1 1v12.87a1 1 0 0 1-1 1h-6.03a1 1 0 0 1-1-1V107a1 1 0 0 1 1-1z" mask="url(#d)"/>
            <path fill="#E9F4FF" fill-rule="nonzero" d="M22.242 108v10.87h4.03V108z" mask="url(#d)"/>
            <path fill="#7995B9" fill-rule="nonzero" d="M32.485 106h6.03a1 1 0 0 1 1 1v12.87a1 1 0 0 1-1 1h-6.03a1 1 0 0 1-1-1V107a1 1 0 0 1 1-1z" mask="url(#d)"/>
            <path fill="#E9F4FF" fill-rule="nonzero" d="M33.485 118.87h4.03V108h-4.03z" mask="url(#d)"/>
            <path fill="#7995B9" fill-rule="nonzero" d="M43.727 106h6.03a1 1 0 0 1 1 1v12.87a1 1 0 0 1-1 1h-6.03a1 1 0 0 1-1-1V107a1 1 0 0 1 1-1z" mask="url(#d)"/>
            <path fill="#E9F4FF" fill-rule="nonzero" d="M44.727 118.87h4.03V108h-4.03z" mask="url(#d)"/>
            <path fill="#7995B9" fill-rule="nonzero" d="M54.97 106H61a1 1 0 0 1 1 1v12.87a1 1 0 0 1-1 1h-6.03a1 1 0 0 1-1-1V107a1 1 0 0 1 1-1z" mask="url(#d)"/>
            <path fill="#E9F4FF" fill-rule="nonzero" d="M55.97 108v10.87H60V108z" mask="url(#d)"/>
            <rect width="8.03" height="2.478" x="9" y="122.522" fill="#EF4829" fill-rule="nonzero" mask="url(#d)" rx="1"/>
            <path fill="#7995B9" fill-rule="nonzero" d="M21.242 122.522h6.03a1 1 0 0 1 1 1V124a1 1 0 0 1-1 1h-6.03a1 1 0 0 1-1-1v-.478a1 1 0 0 1 1-1z" mask="url(#d)"/>
            <path fill="#EF4829" fill-rule="nonzero" d="M32.485 122.522h6.03a1 1 0 0 1 1 1V124a1 1 0 0 1-1 1h-6.03a1 1 0 0 1-1-1v-.478a1 1 0 0 1 1-1z" mask="url(#d)"/>
            <path fill="#7995B9" fill-rule="nonzero" d="M43.727 122.522h6.03a1 1 0 0 1 1 1V124a1 1 0 0 1-1 1h-6.03a1 1 0 0 1-1-1v-.478a1 1 0 0 1 1-1z" mask="url(#d)"/>
            <rect width="8.03" height="2.478" x="53.97" y="122.522" fill="#EF4829" fill-rule="nonzero" mask="url(#d)" rx="1"/>
        </g>
        <g fill-rule="nonzero" transform="translate(114 4)">
            <use fill="#000" filter="url(#e)" xlink:href="#f"/>
            <use fill="#7995B9" xlink:href="#f"/>
        </g>
        <path fill="#FFF" fill-rule="nonzero" d="M116 6v157h122V6z"/>
        <path fill="#DFEAF8" fill-opacity=".5" fill-rule="nonzero" d="M199 6h39v157h-39z"/>
        <g fill-rule="nonzero">
            <path fill="#7995B9" d="M126 13h6a2 2 0 0 1 2 2v14a2 2 0 0 1-2 2h-6a2 2 0 0 1-2-2V15a2 2 0 0 1 2-2z"/>
            <path fill="#E9F4FF" d="M126 15v14h6V15z"/>
            <path fill="#7995B9" d="M140 13h6a2 2 0 0 1 2 2v14a2 2 0 0 1-2 2h-6a2 2 0 0 1-2-2V15a2 2 0 0 1 2-2z"/>
            <path fill="#E9F4FF" d="M140 15v14h6V15z"/>
            <path fill="#7995B9" d="M154 13h6a2 2 0 0 1 2 2v14a2 2 0 0 1-2 2h-6a2 2 0 0 1-2-2V15a2 2 0 0 1 2-2z"/>
            <path fill="#E9F4FF" d="M154 15v14h6V15z"/>
            <path fill="#7995B9" d="M168 13h6a2 2 0 0 1 2 2v14a2 2 0 0 1-2 2h-6a2 2 0 0 1-2-2V15a2 2 0 0 1 2-2z"/>
            <path fill="#E9F4FF" d="M168 15v14h6V15z"/>
            <path fill="#7995B9" d="M182 13h6a2 2 0 0 1 2 2v14a2 2 0 0 1-2 2h-6a2 2 0 0 1-2-2V15a2 2 0 0 1 2-2z"/>
            <path fill="#E9F4FF" d="M182 15v14h6V15z"/>
            <g>
                <path fill="#EF4829" d="M125.5 33h7a1.5 1.5 0 0 1 0 3h-7a1.5 1.5 0 1 1 0-3z"/>
                <path fill="#7995B9" d="M139.5 33h7a1.5 1.5 0 0 1 0 3h-7a1.5 1.5 0 0 1 0-3z"/>
                <path fill="#EF4829" d="M153.5 33h7a1.5 1.5 0 0 1 0 3h-7a1.5 1.5 0 0 1 0-3zM167.5 33h7a1.5 1.5 0 0 1 0 3h-7a1.5 1.5 0 0 1 0-3zM181.5 33h7a1.5 1.5 0 0 1 0 3h-7a1.5 1.5 0 0 1 0-3z"/>
            </g>
            <g transform="translate(206 12)">
                <path fill="#7995B9" d="M18 12a6 6 0 1 1 0-12 6 6 0 0 1 0 12z"/>
                <path fill="#FFF" d="M18 10a4 4 0 1 0 0-8 4 4 0 0 0 0 8z"/>
                <rect width="9" height="3" y="1" fill="#7995B9" rx="1.5"/>
                <rect width="7" height="3" y="8" fill="#7995B9" rx="1.5"/>
                <rect width="3" height="3" y="15" fill="#7995B9" opacity=".5" rx="1.5"/>
                <rect width="3" height="3" x="7" y="15" fill="#7995B9" opacity=".5" rx="1.5"/>
                <rect width="3" height="3" x="14" y="15" fill="#7995B9" opacity=".5" rx="1.5"/>
                <rect width="3" height="3" x="21" y="15" fill="#7995B9" opacity=".5" rx="1.5"/>
                <rect width="3" height="3" y="23" fill="#7995B9" opacity=".5" rx="1.5"/>
                <rect width="3" height="3" x="7" y="23" fill="#7995B9" opacity=".5" rx="1.5"/>
                <rect width="3" height="3" x="14" y="23" fill="#7995B9" opacity=".5" rx="1.5"/>
                <rect width="3" height="3" x="21" y="23" fill="#7995B9" opacity=".5" rx="1.5"/>
                <rect width="3" height="3" x="3.5" y="19" fill="#7995B9" opacity=".5" rx="1.5"/>
                <rect width="3" height="3" x="10.5" y="19" fill="#7995B9" opacity=".5" rx="1.5"/>
                <rect width="3" height="3" x="17.5" y="19" fill="#7995B9" opacity=".5" rx="1.5"/>
            </g>
        </g>
        <g fill-rule="nonzero">
            <path fill="#7995B9" d="M126 53h6a2 2 0 0 1 2 2v14a2 2 0 0 1-2 2h-6a2 2 0 0 1-2-2V55a2 2 0 0 1 2-2z"/>
            <path fill="#E9F4FF" d="M126 55v14h6V55z"/>
            <path fill="#7995B9" d="M140 53h6a2 2 0 0 1 2 2v14a2 2 0 0 1-2 2h-6a2 2 0 0 1-2-2V55a2 2 0 0 1 2-2z"/>
            <path fill="#E9F4FF" d="M140 55v14h6V55z"/>
            <path fill="#7995B9" d="M154 53h6a2 2 0 0 1 2 2v14a2 2 0 0 1-2 2h-6a2 2 0 0 1-2-2V55a2 2 0 0 1 2-2z"/>
            <path fill="#E9F4FF" d="M154 55v14h6V55z"/>
            <path fill="#7995B9" d="M168 53h6a2 2 0 0 1 2 2v14a2 2 0 0 1-2 2h-6a2 2 0 0 1-2-2V55a2 2 0 0 1 2-2z"/>
            <path fill="#E9F4FF" d="M168 55v14h6V55z"/>
            <path fill="#7995B9" d="M182 53h6a2 2 0 0 1 2 2v14a2 2 0 0 1-2 2h-6a2 2 0 0 1-2-2V55a2 2 0 0 1 2-2z"/>
            <path fill="#E9F4FF" d="M182 55v14h6V55z"/>
            <g>
                <path fill="#EF4829" d="M125.5 73h7a1.5 1.5 0 0 1 0 3h-7a1.5 1.5 0 1 1 0-3z"/>
                <path fill="#7995B9" d="M139.5 73h7a1.5 1.5 0 0 1 0 3h-7a1.5 1.5 0 0 1 0-3z"/>
                <path fill="#EF4829" d="M153.5 73h7a1.5 1.5 0 0 1 0 3h-7a1.5 1.5 0 0 1 0-3zM167.5 73h7a1.5 1.5 0 0 1 0 3h-7a1.5 1.5 0 0 1 0-3zM181.5 73h7a1.5 1.5 0 0 1 0 3h-7a1.5 1.5 0 0 1 0-3z"/>
            </g>
            <g transform="translate(206 52)">
                <path fill="#7995B9" d="M18 12a6 6 0 1 1 0-12 6 6 0 0 1 0 12z"/>
                <path fill="#FFF" d="M18 10a4 4 0 1 0 0-8 4 4 0 0 0 0 8z"/>
                <rect width="9" height="3" y="1" fill="#7995B9" rx="1.5"/>
                <rect width="7" height="3" y="8" fill="#7995B9" rx="1.5"/>
                <rect width="3" height="3" y="15" fill="#7995B9" opacity=".5" rx="1.5"/>
                <rect width="3" height="3" x="7" y="15" fill="#7995B9" opacity=".5" rx="1.5"/>
                <rect width="3" height="3" x="14" y="15" fill="#7995B9" opacity=".5" rx="1.5"/>
                <rect width="3" height="3" x="21" y="15" fill="#7995B9" opacity=".5" rx="1.5"/>
                <rect width="3" height="3" y="23" fill="#7995B9" opacity=".5" rx="1.5"/>
                <rect width="3" height="3" x="7" y="23" fill="#7995B9" opacity=".5" rx="1.5"/>
                <rect width="3" height="3" x="14" y="23" fill="#7995B9" opacity=".5" rx="1.5"/>
                <rect width="3" height="3" x="21" y="23" fill="#7995B9" opacity=".5" rx="1.5"/>
                <rect width="3" height="3" x="3.5" y="19" fill="#7995B9" opacity=".5" rx="1.5"/>
                <rect width="3" height="3" x="10.5" y="19" fill="#7995B9" opacity=".5" rx="1.5"/>
                <rect width="3" height="3" x="17.5" y="19" fill="#7995B9" opacity=".5" rx="1.5"/>
            </g>
        </g>
        <g fill-rule="nonzero">
            <path fill="#7995B9" d="M126 93h6a2 2 0 0 1 2 2v14a2 2 0 0 1-2 2h-6a2 2 0 0 1-2-2V95a2 2 0 0 1 2-2z"/>
            <path fill="#E9F4FF" d="M126 95v14h6V95z"/>
            <path fill="#7995B9" d="M140 93h6a2 2 0 0 1 2 2v14a2 2 0 0 1-2 2h-6a2 2 0 0 1-2-2V95a2 2 0 0 1 2-2z"/>
            <path fill="#E9F4FF" d="M140 95v14h6V95z"/>
            <path fill="#7995B9" d="M154 93h6a2 2 0 0 1 2 2v14a2 2 0 0 1-2 2h-6a2 2 0 0 1-2-2V95a2 2 0 0 1 2-2z"/>
            <path fill="#E9F4FF" d="M154 95v14h6V95z"/>
            <path fill="#7995B9" d="M168 93h6a2 2 0 0 1 2 2v14a2 2 0 0 1-2 2h-6a2 2 0 0 1-2-2V95a2 2 0 0 1 2-2z"/>
            <path fill="#E9F4FF" d="M168 95v14h6V95z"/>
            <path fill="#7995B9" d="M182 93h6a2 2 0 0 1 2 2v14a2 2 0 0 1-2 2h-6a2 2 0 0 1-2-2V95a2 2 0 0 1 2-2z"/>
            <path fill="#E9F4FF" d="M182 95v14h6V95z"/>
            <g>
                <path fill="#EF4829" d="M125.5 113h7a1.5 1.5 0 0 1 0 3h-7a1.5 1.5 0 1 1 0-3z"/>
                <path fill="#7995B9" d="M139.5 113h7a1.5 1.5 0 0 1 0 3h-7a1.5 1.5 0 0 1 0-3z"/>
                <path fill="#EF4829" d="M153.5 113h7a1.5 1.5 0 0 1 0 3h-7a1.5 1.5 0 0 1 0-3zM167.5 113h7a1.5 1.5 0 0 1 0 3h-7a1.5 1.5 0 0 1 0-3zM181.5 113h7a1.5 1.5 0 0 1 0 3h-7a1.5 1.5 0 0 1 0-3z"/>
            </g>
            <g transform="translate(206 92)">
                <path fill="#7995B9" d="M18 12a6 6 0 1 1 0-12 6 6 0 0 1 0 12z"/>
                <path fill="#FFF" d="M18 10a4 4 0 1 0 0-8 4 4 0 0 0 0 8z"/>
                <rect width="9" height="3" y="1" fill="#7995B9" rx="1.5"/>
                <rect width="7" height="3" y="8" fill="#7995B9" rx="1.5"/>
                <rect width="3" height="3" y="15" fill="#7995B9" opacity=".5" rx="1.5"/>
                <rect width="3" height="3" x="7" y="15" fill="#7995B9" opacity=".5" rx="1.5"/>
                <rect width="3" height="3" x="14" y="15" fill="#7995B9" opacity=".5" rx="1.5"/>
                <rect width="3" height="3" x="21" y="15" fill="#7995B9" opacity=".5" rx="1.5"/>
                <rect width="3" height="3" y="23" fill="#7995B9" opacity=".5" rx="1.5"/>
                <rect width="3" height="3" x="7" y="23" fill="#7995B9" opacity=".5" rx="1.5"/>
                <rect width="3" height="3" x="14" y="23" fill="#7995B9" opacity=".5" rx="1.5"/>
                <rect width="3" height="3" x="21" y="23" fill="#7995B9" opacity=".5" rx="1.5"/>
                <rect width="3" height="3" x="3.5" y="19" fill="#7995B9" opacity=".5" rx="1.5"/>
                <rect width="3" height="3" x="10.5" y="19" fill="#7995B9" opacity=".5" rx="1.5"/>
                <rect width="3" height="3" x="17.5" y="19" fill="#7995B9" opacity=".5" rx="1.5"/>
            </g>
        </g>
        <g fill-rule="nonzero">
            <path fill="#7995B9" d="M126 133h6a2 2 0 0 1 2 2v14a2 2 0 0 1-2 2h-6a2 2 0 0 1-2-2v-14a2 2 0 0 1 2-2z"/>
            <path fill="#E9F4FF" d="M126 135v14h6v-14z"/>
            <path fill="#7995B9" d="M140 133h6a2 2 0 0 1 2 2v14a2 2 0 0 1-2 2h-6a2 2 0 0 1-2-2v-14a2 2 0 0 1 2-2z"/>
            <path fill="#E9F4FF" d="M140 135v14h6v-14z"/>
            <path fill="#7995B9" d="M154 133h6a2 2 0 0 1 2 2v14a2 2 0 0 1-2 2h-6a2 2 0 0 1-2-2v-14a2 2 0 0 1 2-2z"/>
            <path fill="#E9F4FF" d="M154 135v14h6v-14z"/>
            <path fill="#7995B9" d="M168 133h6a2 2 0 0 1 2 2v14a2 2 0 0 1-2 2h-6a2 2 0 0 1-2-2v-14a2 2 0 0 1 2-2z"/>
            <path fill="#E9F4FF" d="M168 135v14h6v-14z"/>
            <path fill="#7995B9" d="M182 133h6a2 2 0 0 1 2 2v14a2 2 0 0 1-2 2h-6a2 2 0 0 1-2-2v-14a2 2 0 0 1 2-2z"/>
            <path fill="#E9F4FF" d="M182 135v14h6v-14z"/>
            <g>
                <path fill="#EF4829" d="M125.5 153h7a1.5 1.5 0 0 1 0 3h-7a1.5 1.5 0 1 1 0-3z"/>
                <path fill="#7995B9" d="M139.5 153h7a1.5 1.5 0 0 1 0 3h-7a1.5 1.5 0 0 1 0-3z"/>
                <path fill="#EF4829" d="M153.5 153h7a1.5 1.5 0 0 1 0 3h-7a1.5 1.5 0 0 1 0-3zM167.5 153h7a1.5 1.5 0 0 1 0 3h-7a1.5 1.5 0 0 1 0-3zM181.5 153h7a1.5 1.5 0 0 1 0 3h-7a1.5 1.5 0 0 1 0-3z"/>
            </g>
            <g transform="translate(206 132)">
                <path fill="#7995B9" d="M18 12a6 6 0 1 1 0-12 6 6 0 0 1 0 12z"/>
                <path fill="#FFF" d="M18 10a4 4 0 1 0 0-8 4 4 0 0 0 0 8z"/>
                <rect width="9" height="3" y="1" fill="#7995B9" rx="1.5"/>
                <rect width="7" height="3" y="8" fill="#7995B9" rx="1.5"/>
                <rect width="3" height="3" y="15" fill="#7995B9" opacity=".5" rx="1.5"/>
                <rect width="3" height="3" x="7" y="15" fill="#7995B9" opacity=".5" rx="1.5"/>
                <rect width="3" height="3" x="14" y="15" fill="#7995B9" opacity=".5" rx="1.5"/>
                <rect width="3" height="3" x="21" y="15" fill="#7995B9" opacity=".5" rx="1.5"/>
                <rect width="3" height="3" y="23" fill="#7995B9" opacity=".5" rx="1.5"/>
                <rect width="3" height="3" x="7" y="23" fill="#7995B9" opacity=".5" rx="1.5"/>
                <rect width="3" height="3" x="14" y="23" fill="#7995B9" opacity=".5" rx="1.5"/>
                <rect width="3" height="3" x="21" y="23" fill="#7995B9" opacity=".5" rx="1.5"/>
                <rect width="3" height="3" x="3.5" y="19" fill="#7995B9" opacity=".5" rx="1.5"/>
                <rect width="3" height="3" x="10.5" y="19" fill="#7995B9" opacity=".5" rx="1.5"/>
                <rect width="3" height="3" x="17.5" y="19" fill="#7995B9" opacity=".5" rx="1.5"/>
            </g>
        </g>
        <path fill="#7995B9" fill-rule="nonzero" d="M114 44h126v2H114zM114 84h126v2H114zM114 124h126v2H114z"/>
    </g>
</svg>
