<svg xmlns="http://www.w3.org/2000/svg" width="42" height="43" viewBox="0 0 42 43">
    <g fill="#1F5AF6" fill-rule="nonzero">
        <path d="M21 43C9.42 43 0 33.404 0 21.608c0-3.468.833-6.903 2.41-9.953-.877-1.892-.903-5.322 1.347-7.614a.856.856 0 0 1 .952-.193c.328.138.541.464.541.824 0 .711.478 2.19 1.088 3.362.345.656.587.95.706 1.072.863-.136 2.808-.198 3.96-.061.905-1.2 2.78-3.482 5.621-3.482.354 0 .674.218.808.551a.9.9 0 0 1-.189.97c-1.445 1.472-2.764 3.567-2.364 4.553.273.672 1.547 1.057 3.495 1.057h1.75c.385 0 .726.257.838.633a.9.9 0 0 1-.352 1l-4.684 3.18c.145.601.18 1.432-.434 2.056a.864.864 0 0 1-1.238 0c-.001.062-.63.207-1.24.718-.487.41-.765.893-.765 1.327 0 1.438 1.67 3.565 5.25 3.565 2.032 0 2.518-.444 2.989-.872.448-.404 1.003-.91 2.261-.91 2.27 0 3.265 1.607 3.474 2.458a.9.9 0 0 1-.16.764.866.866 0 0 1-.689.343c-1.186 0-2.324.743-3.53 1.531-.86.562-1.788 1.17-2.838 1.572.782.328 1.625.462 2.868.462 5.308 0 9.625-4.398 9.625-9.805a9.855 9.855 0 0 0-1.893-5.833.902.902 0 0 1 .085-1.16.858.858 0 0 1 1.141-.086c1.385 1.052 2.501 2.4 3.287 3.927-.128-5.066-2.252-11.525-5.737-13.937a.9.9 0 0 1-.297-1.12.875.875 0 0 1 1.041-.47C35.35 3.937 42 9.844 42 20.717v1.782C42 33.996 32.776 43 21 43zM4.069 12.25C2.53 15.204 1.75 18.39 1.75 21.608c0 10.812 8.636 19.61 19.25 19.61 10.794 0 19.25-8.223 19.25-18.719v-1.783c0-7.662-3.6-12.603-7.835-15.242 2.265 3.57 3.46 8.573 3.46 12.568 0 1.412-.175 2.82-.518 4.179-.108.42-.521.684-.917.667a.884.884 0 0 1-.801-.808 10.035 10.035 0 0 0-.408-2.073c.012.235.019.472.019.71 0 6.388-5.103 11.587-11.375 11.587-2.433 0-3.782-.457-5.77-1.958a.902.902 0 0 1-.31-.996.875.875 0 0 1 .83-.612c1.594 0 2.896-.852 4.275-1.752.928-.606 1.878-1.226 2.925-1.562-.258-.146-.606-.251-1.075-.251-.59 0-.737.134-1.094.458-.768.699-1.664 1.325-4.156 1.325-4.382 0-7-2.719-7-5.348 0-1.623 1.325-2.906 2.637-3.46a3.29 3.29 0 0 1 1.076-.273 1.766 1.766 0 0 0-.115-.316.9.9 0 0 1 .292-1.15l2.902-1.97c-2.195-.164-3.518-.862-4.029-2.12-.507-1.25-.002-2.695.73-3.925-.79.646-1.383 1.442-1.762 1.952l-.163.22a.867.867 0 0 1-1.071.258c-.424-.112-3.078-.112-3.792.062-1.066.25-1.892-1.03-2.41-2.014a14.295 14.295 0 0 1-.838-1.965c-.65 1.657-.34 3.457.184 4.258a.905.905 0 0 1-.072 1.085z"/>
        <path d="M7.051 8.069l-.723.69-1.382-1.445.723-.69C9.497 2.963 13.443.853 17.502.325c4.021-.522 8.266.2 12.724 2.15l.916.402-.802 1.832-.916-.4c-4.14-1.812-8.024-2.473-11.664-2-3.602.468-7.17 2.376-10.709 5.759z"/>
    </g>
</svg>
