<?xml version="1.0" encoding="UTF-8"?>
<svg width="79px" height="74px" viewBox="0 0 79 74" version="1.1" xmlns="http://www.w3.org/2000/svg" xmlns:xlink="http://www.w3.org/1999/xlink">
    <!-- Generator: Sketch 48.2 (47327) - http://www.bohemiancoding.com/sketch -->
    <title>BROWSER ICON</title>
    <desc>Created with Sketch.</desc>
    <defs></defs>
    <g id="Page-1" stroke="none" stroke-width="1" fill="none" fill-rule="evenodd">
        <g id="BROWSER-ICON">
            <path d="M55.5,61 L76.5,61 C77.3284271,61 78,61.6715729 78,62.5 C78,63.3284271 77.3284271,64 76.5,64 L55.5,64 C54.6715729,64 54,63.3284271 54,62.5 C54,61.6715729 54.6715729,61 55.5,61 Z M2.5,61 L23.5,61 C24.3284271,61 25,61.6715729 25,62.5 C25,63.3284271 24.3284271,64 23.5,64 L2.5,64 C1.67157288,64 1,63.3284271 1,62.5 C1,61.6715729 1.67157288,61 2.5,61 Z M3,3 L3,64 L5.38578956,64 L73.4109834,64 L76,64 L76,3 L3,3 Z M2.19178082,0 L76.8082192,0 C78.0187063,-2.02906125e-16 79,0.8954305 79,2 L79,62 C79,63.1045695 78.0187063,64 76.8082192,64 C75.8809947,64 75.0245271,64 74.2388164,64 L5.58620505,64 C4.83188856,64 3.70041381,64 2.19178082,64 C0.981293699,64 1.48241918e-16,63.1045695 0,62 L0,2 C-1.48241918e-16,0.8954305 0.981293699,2.02906125e-16 2.19178082,0 Z" id="Rectangle" fill="#F37962" fill-rule="nonzero"></path>
            <polygon id="Line" fill="#F37962" fill-rule="nonzero" points="76.5 11.5 76.5 14.5 1.5 14.5 1.5 11.5"></polygon>
            <circle id="Oval-5" fill="#F37962" cx="8.5" cy="7.5" r="1.5"></circle>
            <circle id="Oval-5" fill="#F37962" cx="13.5" cy="7.5" r="1.5"></circle>
            <circle id="Oval-5" fill="#F37962" cx="18.5" cy="7.5" r="1.5"></circle>
            <g id="Group-6" transform="translate(7.000000, 41.000000)"></g>
            <g id="Group-3" transform="translate(7.000000, 18.000000)" fill="#F37962" fill-rule="nonzero">
                <path d="M3,3 L3,17 L61,17 L61,3 L3,3 Z M2,0 L62,0 C63.1045695,-2.02906125e-16 64,0.8954305 64,2 L64,18 C64,19.1045695 63.1045695,20 62,20 L2,20 C0.8954305,20 1.3527075e-16,19.1045695 0,18 L0,2 C-1.3527075e-16,0.8954305 0.8954305,2.02906125e-16 2,0 Z" id="Rectangle"></path>
            </g>
            <g id="Group-8" transform="translate(1.000000, 43.000000)" fill="#F37962">
                <g id="mnus-mini" transform="translate(6.000000, 0.000000)">
                    <g id="Group-2" transform="translate(21.000000, 8.000000)">
                        <path d="M11.5,22.5 C5.42486775,22.5 0.5,17.5751322 0.5,11.5 C0.5,5.42486775 5.42486775,0.5 11.5,0.5 C17.5751322,0.5 22.5,5.42486775 22.5,11.5 C22.5,17.5751322 17.5751322,22.5 11.5,22.5 Z M11.5,19.5 C15.918278,19.5 19.5,15.918278 19.5,11.5 C19.5,7.081722 15.918278,3.5 11.5,3.5 C7.081722,3.5 3.5,7.081722 3.5,11.5 C3.5,15.918278 7.081722,19.5 11.5,19.5 Z" id="Oval-6" fill-rule="nonzero"></path>
                        <rect id="Rectangle-3" x="6" y="10" width="11" height="3" rx="1.5"></rect>
                    </g>
                    <g id="Group-9">
                        <path d="M3,3 L3,10 L16,10 L16,3 L3,3 Z M2,0 L17,0 C18.1045695,-2.02906125e-16 19,0.8954305 19,2 L19,11 C19,12.1045695 18.1045695,13 17,13 L2,13 C0.8954305,13 1.3527075e-16,12.1045695 0,11 L0,2 C-1.3527075e-16,0.8954305 0.8954305,2.02906125e-16 2,0 Z" id="Rectangle-2" fill-rule="nonzero"></path>
                        <path d="M49,3 L49,10 L62,10 L62,3 L49,3 Z M48,0 L63,0 C64.1045695,-2.02906125e-16 65,0.8954305 65,2 L65,11 C65,12.1045695 64.1045695,13 63,13 L48,13 C46.8954305,13 46,12.1045695 46,11 L46,2 C46,0.8954305 46.8954305,2.02906125e-16 48,0 Z" id="Rectangle-2" fill-rule="nonzero"></path>
                        <path d="M26,1.3125 L26,5.6875 C26,6.41237373 25.3284271,7 24.5,7 C23.6715729,7 23,6.41237373 23,5.6875 L23,1.3125 C23,0.587626266 23.6715729,3.88578059e-16 24.5,0 C25.3284271,0 26,0.587626266 26,1.3125 Z" id="Rectangle-3"></path>
                        <path d="M42,1.3125 L42,5.6875 C42,6.41237373 41.3284271,7 40.5,7 C39.6715729,7 39,6.41237373 39,5.6875 L39,1.3125 C39,0.587626266 39.6715729,3.88578059e-16 40.5,0 C41.3284271,0 42,0.587626266 42,1.3125 Z" id="Rectangle-3"></path>
                        <g id="Group-10" transform="translate(23.000000, 0.000000)">
                            <rect id="Rectangle-3" x="0" y="0" width="19" height="3" rx="1.5"></rect>
                        </g>
                    </g>
                </g>
            </g>
        </g>
    </g>
</svg>