<svg xmlns="http://www.w3.org/2000/svg" width="42" height="42" viewBox="0 0 42 42">
    <g fill="#1F5AF6" fill-rule="nonzero">
        <path d="M21 40c10.493 0 19-8.507 19-19S31.493 2 21 2 2 10.507 2 21s8.507 19 19 19zm0 2C9.402 42 0 32.598 0 21S9.402 0 21 0s21 9.402 21 21-9.402 21-21 21z"/>
        <path d="M22 35c5.973 0 11-6.187 11-14S27.973 7 22 7s-11 6.187-11 14 5.027 14 11 14zm0 2c-7.18 0-13-7.163-13-16S14.82 5 22 5s13 7.163 13 16-5.82 16-13 16z"/>
        <path d="M23.582.888l.909-.418.835 1.817-.908.418c-9.004 4.14-13.426 10.19-13.426 18.253 0 8.068 4.428 14.205 13.44 18.51l.901.432-.862 1.805-.902-.432C13.902 36.654 8.992 29.85 8.992 20.958c0-8.897 4.916-15.622 14.59-20.07z"/>
    </g>
</svg>
