<svg xmlns="http://www.w3.org/2000/svg" width="42" height="42" viewBox="0 0 42 42">
    <g fill="#1F5AF6" fill-rule="nonzero">
        <path d="M21 40c10.493 0 19-8.507 19-19S31.493 2 21 2 2 10.507 2 21s8.507 19 19 19zm0 2C9.402 42 0 32.598 0 21S9.402 0 21 0s21 9.402 21 21-9.402 21-21 21z"/>
        <path d="M18.737 18.03l-4.472 10.002 10.018-4.456 4.429-9.991-9.975 4.445zm7.062 7.06l-15.49 6.89 6.914-15.465 15.425-6.874L25.8 25.09z"/>
        <path d="M17.25 18.184l1.415-1.415 6.364 6.364-1.414 1.415z"/>
    </g>
</svg>
