<?xml version="1.0" encoding="UTF-8"?>
<svg width="8px" height="8px" viewBox="0 0 8 8" version="1.1" xmlns="http://www.w3.org/2000/svg" xmlns:xlink="http://www.w3.org/1999/xlink">
    <!-- Generator: Sketch 51.2 (57519) - http://www.bohemiancoding.com/sketch -->
    <title>Shape</title>
    <desc>Created with Sketch.</desc>
    <defs></defs>
    <g id="Page-1" stroke="none" stroke-width="1" fill="none" fill-rule="evenodd">
        <g id="Sign-in---2" transform="translate(-524.000000, -484.000000)" fill="#1D2029" fill-rule="nonzero">
            <g id="Group" transform="translate(520.000000, 480.000000)">
                <g id="ledger_icon_24px" transform="translate(4.000000, 4.000000)">
                    <path d="M3.18249877,6.68126199 L3.18249877,5.86252398 L4.81750123,5.86252398 L4.81750123,7.5 L3.18249877,7.5 L3.18249877,6.68126199 Z M1.18859172,7.37704213 C0.947692926,7.26790793 0.759973687,7.08259475 0.6457439,6.84101131 C0.566657295,6.67373834 0.551236232,6.57813017 0.550922528,6.25191812 L0.550531222,5.86252398 L2.14565521,5.86252398 L2.14565521,7.46005027 L1.75684301,7.45914082 C1.45256431,7.45839672 1.32901584,7.44062107 1.18858016,7.37695945 L1.18859172,7.37704213 Z M5.85433323,6.66128712 L5.85432332,5.86252398 L7.5,5.86252398 L7.48041822,6.25191812 C7.45781497,6.70171638 7.39097936,6.89270124 7.1783239,7.11536808 C6.93213506,7.37315629 6.69837058,7.45922349 6.24313718,7.45965342 L5.85432332,7.46011641 L5.85433323,6.66128712 Z M0.550541129,4.00539057 L0.550541129,3.18663602 L2.18554524,3.18663602 L2.18554524,4.82412858 L0.550541129,4.82412858 L0.550541129,4.00539057 Z M3.18249877,2.6654706 L3.18249877,0.506796084 L4.90722738,0.518370924 C6.56782319,0.529945764 6.63876338,0.533252861 6.81497296,0.615103512 C7.04801427,0.72308023 7.21135866,0.878216152 7.33165285,1.05269859 C7.45196686,1.22718103 7.46940223,1.36903896 7.46940223,1.36903896 L7.48128999,3.09640188 L7.49317775,4.82373173 L3.18239475,4.82373173 L3.18249877,2.6654706 Z M0.518924649,1.7546134 C0.540553762,1.30486474 0.627136258,1.0745089 0.859482467,0.848518421 C1.0950879,0.619369667 1.30905762,0.540412726 1.75264267,0.519015808 L2.14566512,0.5 L2.14566512,2.14817448 L0.5,2.14817448 L0.518924649,1.7546134 Z" id="Shape"></path>
                </g>
            </g>
        </g>
    </g>
</svg>