<?xml version="1.0" encoding="UTF-8"?>
<svg width="54px" height="10px" viewBox="0 0 54 10" version="1.1" xmlns="http://www.w3.org/2000/svg" xmlns:xlink="http://www.w3.org/1999/xlink">
    <!-- Generator: Sketch 51.2 (57519) - http://www.bohemiancoding.com/sketch -->
    <title>ledger-apps</title>
    <desc>Created with Sketch.</desc>
    <defs></defs>
    <g id="ledger-apps" stroke="none" stroke-width="1" fill="none" fill-rule="evenodd">
        <g id="apps">
            <path d="M24,0 L30,0 C31.1045695,-2.02906125e-16 32,0.8954305 32,2 L32,8 C32,9.1045695 31.1045695,10 30,10 L24,10 C22.8954305,10 22,9.1045695 22,8 L22,2 C22,0.8954305 22.8954305,2.02906125e-16 24,0 Z M27.0002922,1.46317215 L23.4647583,4.99870605 L27.0002922,8.53423996 L30.5358261,4.99870605 L27.0002922,1.46317215 Z" id="Rectangle-3" fill="#5A81EA" fill-rule="nonzero"></path>
            <g id="Group-2" fill="#5A81EA" fill-rule="nonzero">
                <path d="M2,0 L8,0 C9.1045695,-2.02906125e-16 10,0.8954305 10,2 L10,8 C10,9.1045695 9.1045695,10 8,10 L2,10 C0.8954305,10 1.3527075e-16,9.1045695 0,8 L0,2 C-1.3527075e-16,0.8954305 0.8954305,2.02906125e-16 2,0 Z M7.69111111,4.33333333 L7.12977778,4.33333333 C7.03955556,4.33333333 6.96522222,4.28366667 6.93066667,4.20033333 C6.89611111,4.117 6.91366667,4.02922222 6.97733333,3.96544444 L7.37422222,3.56866667 C7.43255556,3.51033333 7.46466667,3.43266667 7.46466667,3.35022222 C7.46466667,3.26766667 7.43255556,3.19011111 7.37422222,3.13166667 L6.86833333,2.62577778 C6.75166667,2.50911111 6.54822222,2.50888889 6.43133333,2.62577778 L6.03455556,3.02255556 C5.98177778,3.07533333 5.92377778,3.08633333 5.88433333,3.08633333 C5.82877778,3.08633333 5.77355556,3.06455556 5.73277778,3.02644444 C5.70266667,2.99822222 5.66666667,2.94822222 5.66666667,2.87022222 L5.66666667,2.30888889 C5.66666667,2.13855556 5.52811111,2 5.35777778,2 L4.64222222,2 C4.47188889,2 4.33333333,2.13855556 4.33333333,2.30888889 L4.33333333,2.87022222 C4.33333333,3.00555556 4.22255556,3.08633333 4.11544444,3.08633333 C4.07611111,3.08633333 4.01811111,3.07522222 3.96533333,3.02255556 L3.56855556,2.62577778 C3.45166667,2.50888889 3.24822222,2.50911111 3.13155556,2.62577778 L2.62566667,3.13166667 C2.56733333,3.19 2.53522222,3.26766667 2.53522222,3.35022222 C2.53522222,3.43266667 2.56733333,3.51022222 2.62566667,3.56866667 L3.02255556,3.96544444 C3.08622222,4.02922222 3.10366667,4.117 3.06922222,4.20033333 C3.03477778,4.28366667 2.96044444,4.33333333 2.87022222,4.33333333 L2.30888889,4.33333333 C2.13855556,4.33333333 2,4.47188889 2,4.64222222 L2,5.35755556 C2,5.528 2.13855556,5.66666667 2.30888889,5.66666667 L2.87022222,5.66666667 C2.96044444,5.66666667 3.03477778,5.71633333 3.06933333,5.79966667 C3.10388889,5.883 3.08633333,5.97077778 3.02266667,6.03455556 L2.62577778,6.43133333 C2.56744444,6.48966667 2.53533333,6.56733333 2.53533333,6.64977778 C2.53533333,6.73233333 2.56744444,6.80988889 2.62577778,6.86833333 L3.13166667,7.37422222 C3.24844444,7.491 3.45177778,7.49122222 3.56866667,7.37422222 L3.96544444,6.97744444 C4.01822222,6.92466667 4.07622222,6.91366667 4.11566667,6.91366667 C4.22266667,6.91366667 4.33344444,6.99455556 4.33344444,7.12977778 L4.33344444,7.691 C4.33333333,7.86133333 4.47188889,8 4.64222222,8 L5.35766667,8 C5.528,8 5.66655556,7.86133333 5.66655556,7.691 L5.66655556,7.12977778 C5.66655556,6.99444444 5.77733333,6.91366667 5.88433333,6.91366667 C5.92366667,6.91366667 5.98177778,6.92477778 6.03455556,6.97744444 L6.43133333,7.37422222 C6.54822222,7.49111111 6.75166667,7.49088889 6.86833333,7.37422222 L7.37422222,6.86833333 C7.43255556,6.81 7.46466667,6.73233333 7.46466667,6.64977778 C7.46466667,6.56733333 7.43255556,6.48977778 7.37422222,6.43133333 L6.97733333,6.03455556 C6.91366667,5.97077778 6.89622222,5.883 6.93066667,5.79966667 C6.96511111,5.71633333 7.03955556,5.66666667 7.12977778,5.66666667 L7.69111111,5.66666667 C7.86144444,5.66666667 8,5.528 8,5.35766667 L8,4.64222222 C8,4.47188889 7.86144444,4.33333333 7.69111111,4.33333333 Z M5.77777778,5 C5.77777778,5.42877778 5.42877778,5.77777778 5,5.77777778 C4.57122222,5.77777778 4.22222222,5.42877778 4.22222222,5 C4.22222222,4.57122222 4.57122222,4.22222222 5,4.22222222 C5.42877778,4.22222222 5.77777778,4.57122222 5.77777778,5 Z" id="Rectangle-3"></path>
            </g>
            <path d="M46,0 L52,0 C53.1045695,-2.02906125e-16 54,0.8954305 54,2 L54,8 C54,9.1045695 53.1045695,10 52,10 L46,10 C44.8954305,10 44,9.1045695 44,8 L44,2 C44,0.8954305 44.8954305,2.02906125e-16 46,0 Z M51.1890655,5.46929073 C51.0897036,5.29774467 50.9542496,5.16316037 50.7827036,5.06792948 C50.6646434,5.00009378 50.4930973,4.93660651 50.2693699,4.87985934 C50.4778778,4.80897972 50.6459451,4.72070634 50.7724847,4.61199528 C50.900329,4.50241452 50.996647,4.37717937 51.0633955,4.23650726 C51.1316661,4.09518287 51.1671059,3.94603129 51.1671059,3.78818283 C51.1671059,3.57228265 51.1029664,3.37312398 50.9751222,3.19135908 C50.8464083,3.00959418 50.6646434,2.87087886 50.4272184,2.77477828 C50.3359011,2.73716425 50.2267552,2.70868195 50.1060859,2.68563521 L50.1060859,1.84399414 L49.2992324,1.84399414 L49.2992324,2.62910545 L48.7795935,2.62910545 L48.7795935,1.84399414 L47.9723051,1.84399414 L47.9723051,2.62910545 L46.7399565,2.62910545 L46.7399565,3.28832935 L46.9260698,3.28832935 C47.0517398,3.28832935 47.1380564,3.30007014 47.1817583,3.32311689 C47.2256775,3.34572879 47.2580734,3.37638531 47.2765543,3.41573872 C47.2952526,3.45422243 47.3039495,3.54467004 47.3039495,3.68621185 L47.3039495,6.34680645 C47.3039495,6.48660888 47.2952526,6.57444742 47.2765543,6.61401825 C47.2580734,6.65445876 47.2261124,6.68446302 47.1817583,6.70794461 C47.1380564,6.72925197 47.0517398,6.73968824 46.9260698,6.73968824 L46.7399565,6.73968824 L46.7399565,7.39825987 L47.9723051,7.39825987 L47.9723051,8.18380602 L48.7795935,8.18380602 L48.7795935,7.39825987 L49.2390065,7.39825987 C49.2592267,7.39825987 49.2792296,7.39825987 49.2987975,7.39825987 L49.2987975,8.18380602 L50.1056511,8.18380602 L50.1056511,7.33151127 C50.2424096,7.30563804 50.3617743,7.27172019 50.4633105,7.23084483 C50.7418282,7.1195247 50.957511,6.95732779 51.1101413,6.7442541 C51.2642936,6.53074557 51.3399565,6.29701678 51.3399565,6.04393742 C51.3397391,5.83325538 51.289732,5.64170648 51.1890655,5.46929073 Z M48.4843342,3.39769268 L49.007017,3.39769268 C49.3122777,3.39769268 49.5255688,3.41682583 49.6440639,3.45552697 C49.7616893,3.49248873 49.8530066,3.55575857 49.9149719,3.64424938 C49.9782417,3.73404471 50.0093331,3.84188609 50.0093331,3.96668639 C50.0093331,4.08692083 49.9758501,4.19302283 49.9108408,4.28564466 C49.8436574,4.37870133 49.7451652,4.44740672 49.6144945,4.49197826 C49.4831715,4.53828917 49.2811864,4.56155334 49.0076693,4.56155334 L48.4849865,4.56155334 L48.4843342,3.39769268 Z M49.9612828,6.34745871 C49.8673564,6.46508409 49.7562537,6.54400832 49.6216694,6.58097008 C49.4896942,6.61836669 49.3218443,6.63749984 49.1189894,6.63749984 L48.7706792,6.63749984 C48.6550106,6.63749984 48.5839136,6.63075975 48.5571707,6.61836669 C48.5304277,6.60727816 48.5125991,6.58444884 48.5006409,6.55292263 C48.4925963,6.52704939 48.4858562,6.44203734 48.4845517,6.29462514 L48.4845517,5.26187002 L49.1015957,5.26187002 C49.374243,5.26187002 49.5734017,5.28687357 49.7060292,5.33753292 C49.8375696,5.38754001 49.9378012,5.46146354 50.0019407,5.56039061 C50.0686893,5.6575783 50.1026072,5.77607336 50.1026072,5.91870228 C50.1028246,6.08589989 50.055644,6.22765912 49.9612828,6.34745871 Z" id="Rectangle-3" fill="#5A81EA" fill-rule="nonzero"></path>
            <g id="bitcoin-digital-currency-symbol" transform="translate(48.000000, 5.000000)"></g>
            <polygon id="Line-2" fill-opacity="0.5" fill="#5A81EA" fill-rule="nonzero" points="14.5 5.5 14.5 4.5 17.5 4.5 17.5 5.5"></polygon>
            <polygon id="Line-2" fill-opacity="0.5" fill="#5A81EA" fill-rule="nonzero" points="36.5 5.5 36.5 4.5 39.5 4.5 39.5 5.5"></polygon>
        </g>
    </g>
</svg>