<?xml version="1.0" encoding="UTF-8"?>
<svg width="278px" height="146px" viewBox="0 0 278 146" version="1.1" xmlns="http://www.w3.org/2000/svg" xmlns:xlink="http://www.w3.org/1999/xlink">
    <!-- Generator: Sketch 51.2 (57519) - http://www.bohemiancoding.com/sketch -->
    <title>Illustration/Ledger/Step1</title>
    <desc>Created with Sketch.</desc>
    <defs>
        <linearGradient x1="100%" y1="0%" x2="10.6161989%" y2="0%" id="linearGradient-1">
            <stop stop-color="#5A81EA" offset="0%"></stop>
            <stop stop-color="#FFFFFF" offset="100%"></stop>
        </linearGradient>
    </defs>
    <g id="Illustration/Ledger/Step1" stroke="none" stroke-width="1" fill="none" fill-rule="evenodd">
        <g id="Illustration/Ledger" fill-rule="nonzero">
            <rect id="Rectangle-6" fill-opacity="0.8" fill="#5A81EA" x="137" y="87" width="16" height="3" rx="1.5"></rect>
            <rect id="Rectangle-6" fill-opacity="0.8" fill="#5A81EA" x="198" y="87" width="16" height="3" rx="1.5"></rect>
            <path d="M121,90 L121,134 L266,134 L266,90 L121,90 Z M121,88 L266,88 C267.104569,88 268,88.8954305 268,90 L268,134 C268,135.104569 267.104569,136 266,136 L121,136 C119.895431,136 119,135.104569 119,134 L119,90 C119,88.8954305 119.895431,88 121,88 Z" id="Rectangle-7" fill="#5A81EA"></path>
            <path d="M141,101 L141,123 L208,123 L208,101 L141,101 Z M139,99 L210,99 L210,125 L139,125 L139,99 Z" id="Rectangle-7" fill="#5A81EA"></path>
            <g id="lepestok" transform="translate(205.131998, 73.131998) rotate(45.000000) translate(-205.131998, -73.131998) translate(126.131998, 49.131998)">
                <path d="M5,-1.8189894e-12 L134,-1.78701498e-12 C147.254834,-1.80122251e-12 158,10.745166 158,24 C158,37.254834 147.254834,48 134,48 L5,48 C2.23857625,48 5.45730639e-12,45.7614237 5.45696821e-12,43 L5.45696821e-12,5 C5.45663003e-12,2.23857625 2.23857625,-1.81848214e-12 5,-1.8189894e-12 Z" id="Rectangle-7" fill="#5A81EA"></path>
                <path d="M5,2 C3.34314575,2 2,3.34314575 2,5 L2,43 C2,44.6568542 3.34314575,46 5,46 L134,46 C146.150264,46 156,36.1502645 156,24 C156,11.8497355 146.150264,2 134,2 L5,2 Z" id="Path" fill="#EEF5FE"></path>
                <g id="ledger" opacity="0.85" transform="translate(16.000000, 15.900000)" fill="#5A81EA">
                    <g id="ledger-logo" transform="translate(-0.000000, 0.100000)">
                        <path d="M11.7566422,2.15814296e-13 L5.34405625,-5.44814793e-06 L5.34405625,8.65382344 L13.9978851,8.65382344 L13.9978797,2.2412375 C13.9991917,1.64642311 13.7634834,1.07559295 13.342885,0.65499464 C12.9222867,0.234396328 12.3514566,-0.00131202645 11.7566422,2.15814296e-13 Z M3.34425859,-5.44814793e-06 L2.2412375,2.15238717e-13 C1.64642311,-0.00131202645 1.07559295,0.234396328 0.65499464,0.65499464 C0.234396328,1.07559295 -0.00131202645,1.64642311 2.88128845e-15,2.2412375 L-5.44814814e-06,3.34355469 L3.34425859,3.34355469 L3.34425859,-5.44814793e-06 Z M2.33683346e-15,5.34405625 L3.34425859,5.34405625 L3.34425859,8.68831484 L2.33683346e-15,8.68831484 L2.33683346e-15,5.34405625 Z M10.6881125,13.9978851 L11.7911336,13.9978797 C12.385948,13.9991917 12.9567781,13.7634834 13.3773765,13.342885 C13.7979748,12.9222867 14.0336831,12.3514566 14.0323711,11.7566422 L14.0323765,10.6881125 L10.6881125,10.6881125 L10.6881125,13.9978851 Z M5.34405625,10.6881125 L8.68831484,10.6881125 L8.68831484,14.0323711 L5.34405625,14.0323711 L5.34405625,10.6881125 Z M-5.44814814e-06,10.6881125 L2.42338667e-15,11.7911336 C-0.00131202645,12.385948 0.234396328,12.9567781 0.65499464,13.3773765 C1.07559295,13.7979748 1.64642311,14.0336831 2.2412375,14.0323711 L3.34355469,14.0323765 L3.34355469,10.6881125 L-5.44814814e-06,10.6881125 Z M22.5482289,0.896072656 L21.2368516,0.896072656 L21.2368516,13.1355945 L28.1668086,13.1355945 L28.1668086,11.9635906 L22.547525,11.9635906 L22.5482289,0.896072656 Z M32.3740563,4.13756094 C29.8223961,4.13756094 28.0295469,6.03318047 28.0295469,8.75729766 L28.0295469,9.06701641 C28.0647422,10.2397242 28.5814094,11.3427453 29.4436945,12.1705391 C30.2707844,12.9286461 31.3393141,13.3770344 32.4775305,13.3770344 L32.6499875,13.3770344 C33.8564828,13.3770344 34.9939953,12.9286461 35.8907719,12.1705391 L35.9252633,12.1353438 L35.3389094,11.1709922 L35.2699266,11.2047797 C34.5463109,11.8601164 33.6495344,12.2395219 32.6844789,12.2395219 C31.0985781,12.2395219 29.4781859,11.2047797 29.3747117,8.89526328 L35.9942461,8.89526328 L35.9942461,8.82628047 C35.9942461,8.82628047 36.0287375,8.41238359 36.0287375,8.20543516 C36.0287375,5.72346172 34.5808023,4.13685703 32.3740563,4.13685703 L32.3740563,4.13756094 Z M29.4092031,7.79153828 C29.6844305,6.24012891 30.8226469,5.24058203 32.3050734,5.24058203 C33.4080945,5.24058203 34.6152938,5.89521484 34.7180641,7.79153828 L29.4092031,7.79153828 Z M43.6140313,5.17159922 L43.6140313,5.6199875 C43.053574,4.68643796 42.047727,4.11178256 40.9588969,4.10306953 L40.8554227,4.10306953 C38.5114148,4.10306953 36.8903188,5.96419766 36.8903188,8.68831484 C36.8903188,11.4462195 38.4417281,13.3080516 40.7519484,13.3080516 C42.5792891,13.3080516 43.4063789,12.2050305 43.6823102,11.7221508 L43.6823102,13.0666117 L44.9232969,13.0666117 L44.9232969,0.896072656 L43.6478188,0.896072656 L43.6478188,5.17159922 L43.6133273,5.17159922 L43.6140313,5.17159922 Z M40.9244055,12.1705391 C39.3040133,12.1705391 38.2354836,10.7908828 38.2354836,8.72280625 C38.2354836,6.72300859 39.3729961,5.30886094 40.9588969,5.30886094 C42.3033578,5.30886094 43.6478188,6.37879844 43.6478188,8.72280625 C43.6478188,11.2737625 42.234375,12.1705391 40.9237016,12.1705391 L40.9244055,12.1705391 Z M52.4740992,5.34405625 L52.4740992,5.41303906 C52.2326594,4.99914219 51.4745523,4.10306953 49.6472117,4.10306953 C47.3369914,4.10306953 45.8200734,5.86142734 45.8200734,8.55034922 C45.8200734,11.2392711 47.4059742,13.0666117 49.7506859,13.0666117 C51.0261641,13.0666117 51.8877453,12.6189273 52.4740992,11.6876594 L52.4740992,12.8941547 C52.4740992,14.5835297 51.4055695,15.5492891 49.5092461,15.5492891 C48.6923834,15.5431439 47.8887842,15.3421234 47.1652383,14.9629352 L47.0955516,14.9284438 L46.6126719,15.9976773 L46.6816547,16.0321688 C47.5700695,16.4787943 48.5494016,16.714836 49.5437375,16.7219969 C51.5780266,16.7219969 53.7495773,15.6872547 53.7495773,12.8251719 L53.7495773,4.34380547 L52.4740992,4.34380547 L52.4740992,5.34335234 L52.4740992,5.34405625 Z M49.9224391,11.9290992 C48.2330641,11.9290992 47.130043,10.6191297 47.130043,8.58484063 C47.130043,6.51606016 48.0958023,5.34405625 49.7506859,5.34405625 C51.5773227,5.34405625 52.4396078,6.41258594 52.4396078,8.58484063 C52.4740992,10.7226039 51.5773227,11.9283953 49.9224391,11.9283953 L49.9224391,11.9290992 Z M58.955668,4.13756094 C56.4047117,4.13756094 54.6463539,6.03318047 54.6463539,8.72280625 L54.6463539,9.032525 C54.6808453,10.2052328 55.1975125,11.3082539 56.0597977,12.1360477 C56.8868875,12.8941547 57.9561211,13.342543 59.0936336,13.342543 L59.2660906,13.342543 C60.4725859,13.342543 61.6100984,12.8941547 62.506875,12.1360477 L62.5413664,12.1008523 L61.9205211,11.1365008 L61.8515383,11.1702883 C61.1279227,11.825625 60.2311461,12.2050305 59.2660906,12.2050305 C57.6801898,12.2050305 56.0597977,11.1702883 55.9563234,8.86077188 L62.6103492,8.86077188 L62.6103492,8.79178906 C62.6103492,8.79178906 62.6448406,8.37789219 62.6448406,8.17094375 C62.6448406,5.72346172 61.1969055,4.13756094 58.9563719,4.13756094 L58.955668,4.13756094 Z M56.0253063,7.79153828 C56.3012375,6.24012891 57.43875,5.24058203 58.9211766,5.24058203 C60.0241977,5.24058203 61.2313969,5.89521484 61.3348711,7.79153828 L56.0253063,7.79153828 Z M68.0233883,4.30931406 C67.8509313,4.27482266 67.7129656,4.27482266 67.5405086,4.24033125 C66.3340133,4.24033125 65.3337625,4.99914219 64.8163914,6.27462031 L64.8163914,4.30931406 L63.5416172,4.30931406 L63.5768125,13.0321203 L63.5768125,13.1011031 L64.8860781,13.1011031 L64.8860781,9.41263438 C64.8860781,8.86077188 64.9557648,8.27441797 65.127518,7.75704688 C65.5414148,6.41258594 66.4719789,5.55100469 67.5757039,5.55100469 C67.7136695,5.55100469 67.8516352,5.55100469 67.9896008,5.58549609 L68.0585836,5.58549609 L68.0585836,4.30931406 L68.0233883,4.30931406 Z" id="Shape"></path>
                    </g>
                </g>
            </g>
            <g id="misha-krug" transform="translate(233.000000, 101.000000)">
                <path d="M11,22 C4.92486775,22 0,17.0751322 0,11 C0,4.92486775 4.92486775,0 11,0 C17.0751322,0 22,4.92486775 22,11 C22,17.0751322 17.0751322,22 11,22 Z" id="Oval" fill="#5A81EA"></path>
                <path d="M11,20 C15.9705627,20 20,15.9705627 20,11 C20,6.02943725 15.9705627,2 11,2 C6.02943725,2 2,6.02943725 2,11 C2,15.9705627 6.02943725,20 11,20 Z" id="Path" fill="#FFFFFF"></path>
            </g>
            <path d="M79,116 L79,111 L2,111 L2,116 L79,116 Z M2,109 L79,109 L79,118 L2,118 C0.8954305,118 1.3527075e-16,117.104569 0,116 L0,111 C-1.3527075e-16,109.895431 0.8954305,109 2,109 Z" id="Rectangle-8" fill="url(#linearGradient-1)" opacity="0.5"></path>
            <path d="M81,110 L81,117 L85,117 L85,110 L81,110 Z M80,108 L85,108 L85,119 L80,119 C79.4477153,119 79,118.552285 79,118 L79,109 C79,108.447715 79.4477153,108 80,108 Z" id="Rectangle-10" fill="#5A81EA" opacity="0.5"></path>
            <path d="M119,122 L119,104 L90,104 C88.3431458,104 87,105.343146 87,107 L87,119 C87,120.656854 88.3431458,122 90,122 L119,122 Z M90,102 L121,102 L121,124 L90,124 C87.2385763,124 85,121.761424 85,119 L85,107 C85,104.238576 87.2385763,102 90,102 Z" id="Rectangle-8" fill="#5A81EA" opacity="0.5"></path>
        </g>
    </g>
</svg>