<svg xmlns="http://www.w3.org/2000/svg" width="114" height="114" viewBox="0 0 103989 103989" shape-rendering="geometricPrecision" text-rendering="geometricPrecision" image-rendering="optimizeQuality" fill-rule="evenodd" clip-rule="evenodd"><defs><style><![CDATA[
    .fil0 {fill:#AFAFAF}
   ]]></style></defs><path class="fil0" d="M3788 42813L42813 3788c5049-5050 13314-5050 18363 0l39026 39025c5050 5049 5050 13314 0 18363l-39026 39026c-5049 5050-13314 5050-18363 0L3788 61176c-5050-5049-5050-13314 0-18363zm38804-17559c-4453 311-7107 1098-10063 3272-2362 1737-4685 4139-5971 7463-1577 4077-1303 7359-1303 12011 0 4395-156 9078 12 13437 160 4149 1255 7376 3264 10043 1869 2482 4169 4606 7487 5934 3974 1590 7420 1322 12002 1322 4388 0 9087 162 13436-18 4471-183 8019-1499 10959-3930 649-536 2059-1926 2546-2577 4172-5583 3795-9084 3795-16240 0-2154 106-4584-10-6703-103-1905-1263-3513-2828-3888-2140-512-3850 563-5761-844-1727-1272-1243-2647-1637-5078-629-3885-2313-6859-4440-8993-4359-4371-8799-5230-14807-5230-2105 0-4650-122-6681 19zm-30 31254c-3956 494-5207 5394-2234 7836 973 798 1915 981 3479 981 1642-1 16542 95 17754-52 3787-460 5116-5546 2096-7861-1031-790-1872-963-3452-962-1645 3-16427-94-17643 58zm-414-17745c-3920 959-4673 5826-1532 7985 1527 1050 3671 771 5810 771 1514 0 5348 176 6567-118 3926-944 4552-5937 1545-7968-1601-1081-3644-786-5835-786-1481 0-5382-171-6555 116z" id="Layer_x0020_1"/></svg>