<svg xmlns="http://www.w3.org/2000/svg" width="60" height="60" viewBox="0 0 60 60">
    <g fill="none" fill-rule="nonzero">
        <path fill="none" d="M0 0h60v60H0z"/>
        <path fill="#333745" d="M45.728 7H24.502v28.393h28.486V14.387C53 10.4 49.73 7 45.728 7zM17.984 7h-3.56C10.421 7 7 10.249 7 14.399v3.549h10.984V7zM7 24.595h10.984v10.948H7V24.595zm35.016 28.393h3.56c4.002 0 7.424-3.248 7.424-7.398v-3.538H42.016v10.936zM24.502 42.052h10.984V53H24.502V42.052zM7 42.052v3.55C7 49.59 10.26 53 14.423 53h3.56V42.052H7z"/>
    </g>
</svg>
