<svg xmlns="http://www.w3.org/2000/svg" width="256.667" height="32.17" viewBox="0 0 726580 91069" shape-rendering="geometricPrecision" text-rendering="geometricPrecision" image-rendering="optimizeQuality" fill-rule="evenodd" clip-rule="evenodd"><defs><style><![CDATA[
    .str0 {stroke:white;stroke-width:1886.27}
    .fil0 {fill:#37556E}
    .fil1 {fill:white}
    .fil2 {fill:white;fill-rule:nonzero}
   ]]></style></defs><g id="Layer_x0020_1"><path class="fil0 str0" d="M613116 90127c-52008-3245-139489-13284-315992-24801C193779 58584 64644 71644 944 78289 220586 18268 436887 5759 613116 90127z"/><path class="fil0 str0" d="M944 78289V11813C944 5827 5827 944 11813 944h455694c25156 23426 42091 42264 53858 58219C364319 10899 187858 27211 944 78289z"/><path class="fil0 str0" d="M467507 945h247353c5943 51 10776 4913 10776 10868v68020c-24849 5147-65064 8048-92845 9470-37631 1926-72844-19432-111426-30140-11767-15954-28702-34792-53858-58218z"/><path class="fil1" d="M638725 47920h55206c2852 0 5176-2324 5176-5177v-58c0-2853-2324-5178-5176-5178h-23460c-758 0-1379-623-1379-1380v-593c0-758 621-1381 1379-1381h17982v-2760h-17982c-2281 0-4141 1858-4141 4141v593c0 2282 1860 4141 4141 4141h23460c1329 0 2417 1087 2417 2417v58c0 1328-1088 2416-2417 2416h-55206c-2920 0-5512 932-7693 2761h7693z"/><path class="fil1" d="M647734 38026c893 0 1618 724 1618 1618 0 893-725 1619-1618 1619s-1618-726-1618-1619c0-894 725-1618 1618-1618zM640910 33986h14052c2921 0 5513-932 7692-2760h-23929c-2742 0-5191 820-7284 2432-3815 2941-7661 7068-11212 10430-1378 1305-3523 1288-4916 0l-9397-8693c-2581-2389-6549-2389-9131 0l-9395 8693c-1393 1288-3524 1288-4917 0l-9396-8693c-2582-2389-6550-2389-9131 0l-9396 8693c-1393 1288-3525 1288-4918 0l-13895-12858-2258 2140 14047 12996c2582 2388 6549 2388 9131 0l9396-8693c1393-1289 3524-1289 4917 0l9395 8693c2582 2388 6549 2388 9132 0l9396-8693c1392-1289 3524-1289 4917 0l9395 8693c2582 2388 6578 2418 9132 0 3417-3239 6596-6475 9826-9678 167-165 337-325 510-473 1714-1490 3722-2229 6052-2229h2185z"/><path class="fil1" d="M601289 44778c893 0 1619 726 1619 1619 0 894-726 1619-1619 1619-894 0-1618-725-1618-1619 0-893 724-1619 1618-1619z"/><path class="fil2" d="M589385 60125v-7447h925v6590h4864v857h-5789zm11523 0v-7488h939v7488h-939zm9077 0v-6590h-3137v-857h7199v857h-3137v6590h-925zm9063 0v-7447h5859v857h-4933v2182h2985v857h-2985v2694h5237v857h-6163zm22685-2376l745 552c-340 647-809 1147-1404 1495-592 348-1266 523-2024 523-1114 0-2036-369-2763-1103-726-735-1089-1667-1089-2798 0-1133 363-2068 1091-2803 730-734 1649-1103 2758-1103 689 0 1318 150 1884 451 567 302 1027 733 1382 1291l-776 552c-232-444-571-794-1011-1046-440-251-932-377-1476-377-836 0-1530 287-2077 861-548 573-822 1299-822 2174 0 877 274 1603 822 2174 547 570 1241 856 2077 856 585 0 1103-144 1557-432s828-710 1126-1267zm7004 2376v-7447h926v6590h4864v857h-5790zm11524 0v-7488h939v7488h-939zm7778 0v-7447h5859v857h-4934v2182h2985v857h-2985v2694h5238v857h-6163zm12142 0v-7447h486l4834 5566v-5566h926v7447h-472l-4848-5565v5565h-926zm14367 0v-6590h-3137v-857h7200v857h-3137v6590h-926z"/></g></svg>