<svg xmlns="http://www.w3.org/2000/svg" width="114" height="114" viewBox="0 0 48371 48371" shape-rendering="geometricPrecision" text-rendering="geometricPrecision" image-rendering="optimizeQuality" fill-rule="evenodd" clip-rule="evenodd"><defs><style><![CDATA[
    .fil0 {fill:#AFAFAF}
   ]]></style></defs><path class="fil0" d="M1762 19915L19915 1762c2348-2349 6193-2349 8541 0l18153 18153c2349 2348 2349 6193 0 8541L28456 46609c-2348 2349-6193 2349-8541 0L1762 28456c-2349-2348-2349-6193 0-8541zm30047-6334l-5686-1346-2339 6699c-2066 228-2548 75-4813 725-2015 578-3751 1638-3938 1685-1148-1152-3540-1128-4846 545-512 656-844 1729-612 2783 109 500 297 857 533 1207 259 386 532 603 918 884-18 1066-142 1509 140 2598 1746 6721 13994 9780 22101 4847 1167-711 2233-1746 2943-2798 902-1335 1258-2671 1074-4617 603-299 1265-1115 1488-2027 464-1904-732-3835-2743-4174-1236-209-2021 251-2751 757-50-13-2067-1129-3715-1633-1648-506-2877-555-4619-771l1894-5414c650 79 3111 736 4082 964 975 229 578-14 800 866 742 2941 5206 2616 5441-487 151-2005-1735-3429-3558-2882-452 136-779 329-1060 610-145 144-297 274-416 452-135 202-159 350-318 527zM11376 25634c380-1423 1536-2505 2540-3421l201-203c-378-344-1104-448-1676-339-2048 392-2402 3071-1065 3963zm8230-1439c-2817 567-1904 4675 837 4071 2601-572 1802-4603-837-4071zm8722-17c-2761 437-2074 4637 737 4101 2583-493 1965-4528-737-4101zm-4532 9257c1303 0 2323-59 3546-543 2444-966 1950-1835 1443-1928-460-85-624 412-1705 865-1660 694-4174 748-5832-1-437-198-715-355-1026-642-283-262-891-362-1007 191-224 1071 2970 2058 4581 2058zm10400-11446l419 418c874 743 1197 1140 1838 2169 187 301 405 901 557 1088 1219-908 1040-3544-1061-3988-780-164-1167 66-1753 313zm-33-9002c-2339 420-1609 3726 553 3322 2149-402 1567-3703-553-3322z" id="Layer_x0020_1"/></svg>