<svg xmlns="http://www.w3.org/2000/svg" width="615.066" height="306.112" viewBox="0 0 35496 17666" shape-rendering="geometricPrecision" text-rendering="geometricPrecision" image-rendering="optimizeQuality" fill-rule="evenodd" clip-rule="evenodd"><defs><style><![CDATA[
    .str3 {stroke:white;stroke-width:73.8557}
    .str1 {stroke:#E6E6E6;stroke-width:18.453}
    .str0 {stroke:#E6E6E6;stroke-width:38.4765}
    .str2 {stroke:#E6E6E6;stroke-width:16.6208}
    .fil1 {fill:none}
    .fil2 {fill:#37556E}
    .fil3 {fill:#E6E6E6}
    .fil0 {fill:white}
   ]]></style></defs><g id="Layer_x0020_1"><path class="fil0 str0" d="M19 2360h35458v15287H19z"/><path class="fil1 str1" d="M567 4423h34362v2562H567z"/><path class="fil2 str0" d="M19 19h35458v2341H19z"/><path class="fil0" d="M518 389h2525v1601H518zM22420 1027h1108v1108h-1108zM20678 1027h1108v1108h-1108zM18936 1027h1108v1108h-1108zM17194 1027h1108v1108h-1108zM15452 1027h1108v1108h-1108zM13710 1027h1108v1108h-1108zM11968 1027h1108v1108h-1108zM10996 251h2496v317h-2496zM13816 251h4639v317h-4639zM19148 251h2496v317h-2496zM22004 251h2496v317h-2496zM32127 420h739v739h-739zM33162 420h739v739h-739zM34197 420h739v739h-739zM32134 1616h847v317h-847zM33194 1616h1735v317h-1735z"/><path class="fil2" d="M567 3607h34362v816H567z"/><path class="fil3" d="M15454 2884h4587v317h-4587z"/><path class="fil2" d="M34197 2644h739v739h-739z"/><path class="fil0" d="M2702 3859h2444v312H2702zM10840 3859h2444v312h-2444zM18979 3859h2444v312h-2444zM27117 3859h2444v312h-2444z"/><path class="fil3" d="M567 4423h34362v641H567zM567 5704h34362v641H567z"/><path class="fil0" d="M1847 4665h4155v156H1847z"/><path class="fil3" d="M1964 5296h3920v156H1964z"/><path class="fil0" d="M9985 4665h2766v156H9985zM13071 4665h1308v156h-1308z"/><path class="fil3" d="M11613 5290h2766v156h-2766zM9985 5290h1308v156H9985z"/><path class="fil0" d="M17857 4665h4689v156h-4689z"/><path class="fil3" d="M18840 5296h2722v156h-2722z"/><path class="fil0" d="M2699 5942h2450v156H2699z"/><path class="fil3" d="M2236 6573h3377v156H2236z"/><path class="fil0" d="M10507 5942h2244v156h-2244zM13071 5942h895v156h-895z"/><path class="fil3" d="M11515 6567h3242v156h-3242zM9607 6567h1533v156H9607z"/><path class="fil0" d="M19326 5942h1749v156h-1749z"/><path class="fil3" d="M18298 6573h3807v156h-3807z"/><path class="fil2" d="M33162 2644h739v739h-739zM32127 2644h739v739h-739z"/><circle class="fil1 str0" cx="29852" cy="12316" r="3301"/><path class="fil2" d="M32112 9910c-591-555-1385-895-2260-895v3301l2260-2406z"/><path class="fil3" d="M29852 12316l2260-2406c351 330 626 733 805 1180l-3065 1226z"/><path class="fil0 str2" d="M29852 12316l3065-1226c143 358 223 738 235 1122l-3300 104z"/><path class="fil2" d="M20277 8833h4639v317h-4639z"/><path class="fil3" d="M20277 9641h3279v156h-3279zM20277 10079h719v156h-719zM20277 10518h719v156h-719zM20277 10956h846v156h-846zM20277 11395h2416v156h-2416zM20277 11834h1181v156h-1181zM21650 11834h1931v156h-1931zM22850 11395h2416v156h-2416zM21269 10956h2959v156h-2959zM21200 10518h1654v156h-1654zM21202 10079h2403v156h-2403z"/><path class="fil2" d="M20277 13029h387v381h-387z"/><path class="fil3" d="M20277 13670h387v381h-387z"/><path class="fil0 str2" d="M20277 14310h387v381h-387z"/><path class="fil3" d="M20911 13141h846v156h-846zM21906 13141h1843v156h-1843zM20911 13782h1308v156h-1308zM22337 13782h1666v156h-1666zM20911 14423h533v156h-533zM21568 14423h1766v156h-1766z"/><path class="fil2" d="M6649 8833h4639v317H6649z"/><path class="fil3" d="M7329 9641h3279v156H7329zM7316 11834h1181v156H7316zM8689 11834h1931v156H8689zM6473 11395h2416v156H6473zM9047 11395h2416v156H9047zM6992 10956h846v156h-846zM7985 10956h2959v156H7985zM7679 10518h719v156h-719zM8603 10518h1654v156H8603zM7304 10079h719v156h-719zM8229 10079h2403v156H8229z"/><path class="fil3 str3" d="M1279 14020h769v593h-769zM2048 13464h769v1148h-769zM2817 13825h769v788h-769zM3586 14316h769v297h-769zM4355 13861h769v752h-769zM5124 14114h769v499h-769z"/><path class="fil3 str3" d="M5892 14474h769v139h-769zM6661 14114h769v499h-769zM7430 13940h769v672h-769zM8199 13385h769v1228h-769zM8968 13991h769v622h-769zM9737 14287h769v326h-769zM10506 13471h769v1141h-769zM11275 13673h769v939h-769zM12044 13731h769v882h-769z"/><path class="fil3 str3" d="M12812 13508h769v1105h-769zM13581 14128h769v485h-769zM14350 13407h769v1206h-769zM15119 14438h769v175h-769zM15888 14364h769v249h-769z"/><path class="fil3" d="M2262.67 15506.7l-598.518-598.518-110.28 110.28 598.518 598.518zM3031.07 15506.7l-598.518-598.518-110.28 110.28 598.518 598.518zM3799.47 15506.7l-598.518-598.518-110.28 110.28 598.518 598.518zM4567.86 15506.7l-598.518-598.518-110.28 110.28 598.518 598.518zM5336.26 15506.7l-598.518-598.518-110.28 110.28 598.518 598.518zM6104.66 15506.7l-598.518-598.518-110.28 110.28 598.518 598.518zM6873.05 15506.7l-598.518-598.518-110.28 110.28 598.518 598.518zM7641.45 15506.7l-598.518-598.518-110.28 110.28 598.518 598.518zM8409.84 15506.7l-598.518-598.518-110.28 110.28 598.518 598.518zM9178.24 15506.7l-598.518-598.518-110.28 110.28 598.518 598.518zM9946.64 15506.7l-598.518-598.518-110.28 110.28 598.518 598.518zM10715 15506.7l-598.518-598.518-110.28 110.28 598.518 598.518zM11483.4 15506.7l-598.518-598.518-110.28 110.28 598.518 598.518zM12251.8 15506.7l-598.518-598.518-110.28 110.28 598.518 598.518zM13020.2 15506.7l-598.518-598.518-110.28 110.28 598.518 598.518zM13788.6 15506.7l-598.518-598.518-110.28 110.28 598.518 598.518zM14557 15506.7l-598.518-598.518-110.28 110.28 598.518 598.518zM15325.4 15506.7l-598.518-598.518-110.28 110.28 598.518 598.518zM16093.8 15506.7l-598.518-598.518-110.28 110.28 598.518 598.518zM16862.2 15506.7l-598.518-598.518-110.28 110.28 598.518 598.518z"/><g id="_919335664"><path class="fil2" d="M25568 4665h770v156h-770zM26849 4665h1308v156h-1308zM28681 4665h1308v156h-1308zM25568 5306h770v156h-770zM26849 5306h1308v156h-1308zM28681 5306h1308v156h-1308zM25568 5942h770v156h-770zM26849 5942h1308v156h-1308zM28681 5942h1308v156h-1308zM25568 6584h770v156h-770zM26849 6584h1308v156h-1308zM28681 6584h1308v156h-1308zM30457 4665h654v156h-654zM30457 5306h654v156h-654zM30457 5942h654v156h-654zM30457 6584h654v156h-654z"/></g></g></svg>