
<svg xmlns="http://www.w3.org/2000/svg" width="24" height="24" viewBox="0 0 25000 25000" shape-rendering="geometricPrecision" text-rendering="geometricPrecision" image-rendering="optimizeQuality" fill-rule="evenodd" clip-rule="evenodd"><defs><style><![CDATA[
    .fil0 {fill:#ffffff}
   ]]></style></defs><g id="Layer_x0020_1"><g id="_1110126368"><g id="_874318544"><path class="fil0" d="M12500 25000c6904 0 12500-5596 12500-12500S19404 0 12500 0 0 5596 0 12500s5596 12500 12500 12500zm0-23062c5833 0 10562 4729 10562 10562s-4729 10561-10562 10561S1938 18333 1938 12500 6667 1938 12500 1938z"/><circle class="fil0" cx="12500" cy="6675" r="3107"/><path class="fil0" d="M14285 20217c1423-759 5291-9721 0-9721h-3528c-5292 0-1423 8962 0 9721 1133 276 2312 257 3528 0zM17569 5022c1501 0 2718 1217 2718 2718s-1217 2718-2718 2718c-1064 0-1984-610-2430-1500 614-567 1000-1380 1000-2282 0-391-72-764-204-1108 455-343 1020-546 1634-546z"/><path class="fil0" d="M19130 19586c1245-664 4629-8503 0-8503h-2406c1862 1623 285 6187-1022 8204 125 142 241 244 342 299 990 240 2022 224 3086 0z"/><g><path class="fil0" d="M7431 5022c-1501 0-2718 1217-2718 2718s1217 2718 2718 2718c1063 0 1984-610 2430-1500-614-567-1000-1380-1000-2282 0-391 72-764 204-1108-456-343-1021-546-1634-546zM5870 19586c-1245-664-4629-8503 0-8503h2406c-1862 1623-285 6187 1021 8204-124 142-240 244-341 299-990 240-2022 224-3086 0z"/></g></g></g></g></svg>