<?xml version="1.0" encoding="utf-8"?>
<!-- Generator: Adobe Illustrator 21.0.2, SVG Export Plug-In . SVG Version: 6.00 Build 0)  -->
<svg version="1.1" id="Layer_2" xmlns="http://www.w3.org/2000/svg" xmlns:xlink="http://www.w3.org/1999/xlink" x="0px" y="0px"
	 viewBox="0 0 24 24" style="enable-background:new 0 0 24 24;" xml:space="preserve">
<style type="text/css">
	.st0{fill:#FFFFFF;}
</style>
<path class="st0" d="M24,11.9c0-5.2-3.4-9.6-8-11.2l0,2.2c3.5,1.5,6,5,6,9.1c0,2-0.5,3.8-1.5,5.3l-7.5,0.1L12.8,0.4l0,0l0-0.3
	c-0.3,0-0.6,0-0.9,0C5.3,0.1,0,5.5,0,12.1C0.1,18.7,5.5,24.1,12.1,24C18.7,23.9,24.1,18.5,24,11.9z M12.1,22c-5.5,0-10-4.4-10.1-9.9
	c0-4.9,3.5-9,8.1-9.9l0.1,16.7l1.9,0l0,0l7-0.1C17.4,20.8,14.9,22,12.1,22z"/>
</svg>
