<svg xmlns="http://www.w3.org/2000/svg" width="23.983" height="24" viewBox="0 0 24982 25000" shape-rendering="geometricPrecision" text-rendering="geometricPrecision" image-rendering="optimizeQuality" fill-rule="evenodd" clip-rule="evenodd"><defs><style><![CDATA[
    .fil0 {fill:#ffffff}
   ]]></style></defs><path class="fil0" d="M12481 25000c2460 0 4753-711 6686-1937h-6686v-1c-1882 0-3649-493-5180-1356h10361l-1 1h3275c1539-1414 2722-3208 3401-5233H12481v-1H2694c-178-438-328-891-447-1356h22460c180-844 275-1719 275-2617s-95-1772-275-2616H2247c118-465 268-918 446-1356h21644c-678-2026-1861-3819-3399-5233H7301c1530-864 3298-1356 5180-1356h6689C17236 711 14942 0 12481 0 8288 0 4578 2065 2310 5233h17836c399 421 764 874 1090 1356h-7932v1H1465C620 8163 101 9937 0 11823h1942v-1h21080c14 224 22 450 22 678s-9 454-23 678h-9717v1H0c102 1886 620 3661 1466 5233h2264l-1-1h17506c-326 482-691 936-1090 1356h-6841v2H2312c2268 3167 5977 5231 10169 5231z" id="Layer_x0020_1"/></svg>
