<svg xmlns="http://www.w3.org/2000/svg" width="24" height="24" viewBox="0 0 25000 25000" shape-rendering="geometricPrecision" text-rendering="geometricPrecision" image-rendering="optimizeQuality" fill-rule="evenodd" clip-rule="evenodd"><defs><style><![CDATA[
    .fil0 {fill:#ffffff}
   ]]></style></defs><path class="fil0" d="M12531 25000c199 0 395-5 589-14h324v-19c6447-470 11556-5873 11556-12436 0-5430-3434-10039-8223-11783v2106c3725 1628 6314 5337 6314 9677 0 5545-4226 10062-9647 10521v-5541c926-125 1647-407 2160-846 611-522 917-1244 917-2163 0-935-314-1646-941-2130-594-459-1458-689-2589-689h-1158c-571 0-986-103-1242-307-228-182-343-475-343-878 0-470 181-820 543-1049 424-268 1089-402 1996-402 478 0 959 43 1443 127 490 86 982 214 1472 383l552 191V7962l-304-87c-486-140-976-249-1465-326-349-56-696-95-1041-117V6h-537c-124-4-250-6-376-6-121 0-242 2-362 6h-406v18C5189 420 0 5857 0 12531c0 5447 3518 10092 8430 11785v-2045c-3802-1594-6458-5343-6458-9740 0-5592 4301-10140 9791-10531v5465c-990 105-1759 379-2306 819-651 525-978 1265-978 2214 0 958 295 1687 883 2185 567 482 1392 723 2471 723h1158c640 0 1108 101 1399 303 242 168 364 433 364 793 0 472-181 823-542 1052-423 268-1086 402-1987 402-479 0-961-43-1445-127-489-85-984-214-1483-384l-551-189v1786l304 86c527 151 1050 265 1568 341 380 55 762 91 1145 107v7410h170c198 9 398 14 598 14z" id="Layer_x0020_1"/></svg>
