<svg xmlns="http://www.w3.org/2000/svg" width="78.399" height="83.406" viewBox="0 0 36382 38705" shape-rendering="geometricPrecision" text-rendering="geometricPrecision" image-rendering="optimizeQuality" fill-rule="evenodd" clip-rule="evenodd"><defs><style><![CDATA[
    .fil0 {fill:white}
   ]]></style></defs><g id="Layer_x0020_1"><path class="fil0" d="M16652 0h3078v16815h-3078z"/><path class="fil0" d="M18190 38705c10051 0 18192-8141 18192-18191 0-7594-4649-14096-11256-16821-144-96-289-171-434-201v11236h1538V9406c3448 2500 5684 6569 5684 11164 0 7604-6119 13723-13724 13723-7603 0-13767-6119-13767-13723 0-4733 2389-8907 6026-11384v5542h1539V3408C4994 5943 0 12642 0 20514c0 10050 8140 18191 18190 18191z"/></g></svg>
