<svg xmlns="http://www.w3.org/2000/svg" width="113.918" height="113.918" viewBox="0 0 100033 100033" shape-rendering="geometricPrecision" text-rendering="geometricPrecision" image-rendering="optimizeQuality" fill-rule="evenodd" clip-rule="evenodd"><defs><style><![CDATA[
    .fil0 {fill:#AFAFAF}
   ]]></style></defs><path class="fil0" d="M3643 41184L41184 3643c4857-4857 12807-4857 17665 0l37540 37541c4858 4857 4858 12807 0 17665L58849 96389c-4858 4858-12808 4858-17665 0L3643 58849c-4857-4858-4857-12808 0-17665zm38217-7933c-2021 130-4155 294-5317 1910-1028 1429 2375-315 3381 3483 344 1300 363 3034 395 4451 47 1983 159 7535-1786 7828-2576 387-7255-8896-8308-11028-536-1088-994-2188-1478-3338-535-1273-1392-1774-3100-1763-1588 11-3168 21-4755 32-1232 8-3563-111-4617 210-1672 508-799 2069-286 3204 1421 3145 3198 6733 4844 9671 3118 5568 7401 12628 12452 16579 1756 1373 3704 2514 6168 3469 2826 1095 5086 1287 8405 1287 1560 0 3125 210 4035-780 679-737 510-2841 736-4082 250-1376 730-2631 1628-3188 1598-993 3456 1233 4424 2297 1881 2067 3697 4667 6482 5595 1398 466 3043 263 4595 250 1551-13 3127-49 4691-70 1554-22 2981-55 3863-972 1270-1321-562-3684-1477-4874-336-437-749-964-1103-1338l-4811-4823c-1876-2003-3771-2797-1480-6096 1054-1519 2949-3918 4150-5485 1119-1458 3063-4204 3897-5802 1569-3003 2496-5286-2038-5038-1540 84-3261 30-4819 35-1587 4-3223 58-4817 28-1788-33-1942 979-2511 2304-1829 4262-3311 7147-6031 10861-313 428-744 981-1093 1349-362 383-797 818-1262 1113-691 438-1159 483-1708-83-820-848-915-2467-905-3910 11-1594 41-3223 87-4820 44-1536 176-3149 117-4690-64-1647-415-2699-1640-3197-1891-769-6738-724-9008-579z" id="Layer_x0020_1"/></svg>