<?xml version="1.0" encoding="UTF-8"?>
<svg width="16px" height="16px" viewBox="0 0 16 16" version="1.1" xmlns="http://www.w3.org/2000/svg" xmlns:xlink="http://www.w3.org/1999/xlink">
    <!-- Generator: Sketch 48.2 (47327) - http://www.bohemiancoding.com/sketch -->
    <title>icon</title>
    <desc>Created with Sketch.</desc>
    <defs></defs>
    <g id="OLD-1920" stroke="none" stroke-width="1" fill="none" fill-rule="evenodd" transform="translate(-217.000000, -17.000000)">
        <g id="icon" transform="translate(216.000000, 17.000000)" fill="#FFFFFF" fill-rule="nonzero">
            <path d="M9,15.5 C4.85786438,15.5 1.5,12.1421356 1.5,8 C1.5,3.85786438 4.85786438,0.5 9,0.5 C13.1421356,0.5 16.5,3.85786438 16.5,8 C16.5,12.1421356 13.1421356,15.5 9,15.5 Z M9,14.5 C12.5898509,14.5 15.5,11.5898509 15.5,8 C15.5,4.41014913 12.5898509,1.5 9,1.5 C5.41014913,1.5 2.5,4.41014913 2.5,8 C2.5,11.5898509 5.41014913,14.5 9,14.5 Z" id="Oval"></path>
            <path d="M9,10 C8.6688,10 8.4,9.7312 8.4,9.4 L8.4,4.6 C8.4,4.2688 8.6688,4 9,4 C9.3312,4 9.6,4.2688 9.6,4.6 L9.6,9.4 C9.6,9.7312 9.3312,10 9,10 Z" id="Shape"></path>
            <path d="M9,11.9925 C8.87,11.9925 8.74,11.9425 8.649,11.8425 C8.559,11.7525 8.5,11.6225 8.5,11.4925 C8.5,11.3625 8.55,11.2325 8.64,11.1425 C8.84,10.9525 9.18,10.9525 9.35,11.1425 C9.451,11.2425 9.5,11.3625 9.5,11.4925 C9.5,11.6225 9.45,11.7525 9.35,11.8425 C9.26,11.9425 9.14,11.9925 9,11.9925 Z" id="Shape"></path>
        </g>
    </g>
</svg>