<svg xmlns="http://www.w3.org/2000/svg" width="14" height="14" viewBox="0 0 14 14">
    <g fill="none" fill-rule="evenodd">
        <path fill="#D8D8D8" fill-opacity="0" d="M0 0h14v14H0z"/>
        <path fill="#ffffff" d="M7.882 1.577l5.321 9.951A1 1 0 0 1 12.321 13H1.68a1 1 0 0 1-.882-1.472l5.321-9.951a1 1 0 0 1 1.764 0zM7.053 4.83a.805.805 0 0 0-.804.804v2.748a.805.805 0 0 0 1.61 0V5.634a.805.805 0 0 0-.806-.804zm0 5.13a.805.805 0 0 0-.804.806v.318a.805.805 0 0 0 1.61 0v-.318a.805.805 0 0 0-.806-.805z"/>
    </g>
</svg>
