<?xml version="1.0" encoding="UTF-8"?>
<svg width="190px" height="193px" viewBox="0 0 190 193" version="1.1" xmlns="http://www.w3.org/2000/svg" xmlns:xlink="http://www.w3.org/1999/xlink">
    <!-- Generator: Sketch 48.2 (47327) - http://www.bohemiancoding.com/sketch -->
    <title>bitcoin_cash</title>
    <desc>Created with Sketch.</desc>
    <defs></defs>
    <g id="Symbols" stroke="none" stroke-width="1" fill="none" fill-rule="evenodd">
        <g id="bitcoin_cash" fill="#F6F4F6" fill-rule="nonzero">
            <g transform="translate(87.000000, 89.500000) rotate(-30.000000) translate(-87.000000, -89.500000) translate(-15.000000, -13.000000)" id="bitcoin">
                <path d="M77.2926192,201.932654 C31.7951071,190.587475 1.12132007,150.305692 0.00783868125,105.593861 C0.537303792,104.622516 40.9762131,34.5805655 53.1595865,13.4550077 C68.8776079,4.88344164 86.8456343,0.409325956 105.377877,1.04618846 C106.156679,1.47052448 187.680905,48.6543636 188.51654,49.0460713 C202.635989,71.7858753 207.866213,99.8155436 200.923412,127.661471 C187.298585,182.304229 131.948128,215.559079 77.2926192,201.932654 Z M124.501335,62.720005 L129.085448,44.3346915 L117.892943,41.5456573 L113.429968,59.4464757 C110.487592,58.7133581 107.46552,58.0216777 104.462576,57.3363721 L108.957429,39.3176175 L97.7713004,36.5285833 L93.1839993,54.9075218 C90.74849,54.3529023 88.3576102,53.8046579 86.0368632,53.2277263 L70.6140956,49.3167036 L67.6366534,61.2697071 C67.6366534,61.2697071 75.9409754,63.1726253 75.7656442,63.2905615 C80.298752,64.4221126 81.1180268,67.4215197 80.9809496,69.7993706 L75.7592685,90.7442205 C76.0716768,90.8239072 76.4765323,90.938656 76.9228299,91.1171541 C76.5498528,91.0247177 76.1513729,90.9227187 75.7401415,90.8239072 L68.420862,120.164547 C67.8661779,121.541533 66.4603407,123.607012 63.2916282,122.822895 C63.4032026,122.985456 55.1562617,120.792478 55.1562617,120.792478 L49.5998574,133.60291 L64.1650963,137.233436 C66.8747597,137.912367 69.5302302,138.623172 72.1442586,139.29254 L67.5123276,157.888226 L78.6920809,160.677261 L83.2793819,142.279197 C86.3333323,143.107939 89.2980229,143.872931 92.1989569,144.593299 L87.627595,162.9053 L98.8200996,165.694335 L103.45203,147.133711 C122.537626,150.745111 136.889279,149.288439 142.930235,132.028301 C147.798066,118.130942 142.687959,110.114461 132.646265,104.887014 C139.959169,103.200844 145.467755,98.3909553 146.937349,88.4556188 C148.968003,74.8833815 138.633027,67.5872681 124.501335,62.720005 Z M86.9167068,128.812147 L93.0628614,104.176209 C100.649919,106.069565 124.979511,109.818027 121.364501,124.311442 C117.905695,138.208801 94.5037648,130.69594 86.9167068,128.812147 Z M95.8745359,92.8989487 L101.446879,70.5548004 C107.765177,72.1294095 128.113157,75.0682547 124.826494,88.2548083 C121.670533,100.896305 102.192834,94.4735576 95.8745359,92.8989487 Z"></path>
            </g>
        </g>
    </g>
</svg>