<?xml version="1.0" encoding="utf-8"?>
<!-- Generator: Adobe Illustrator 21.1.0, SVG Export Plug-In . SVG Version: 6.00 Build 0)  -->
<svg version="1.1" id="Layer_1" xmlns="http://www.w3.org/2000/svg" xmlns:xlink="http://www.w3.org/1999/xlink" x="0px" y="0px"
	 width="54px" height="67px" viewBox="0 0 54 67" style="enable-background:new 0 0 54 67;" xml:space="preserve">
<style type="text/css">
	.st0{fill:#F5F5F5;}
</style>
<path class="st0" d="M17.4,46.8c9.1,0,17.7,0,26.5,0c0,4.5,0,8.8,0,13.3c-5.3,0-10.6,0-16.3,0c0.3,3.8,0.4,7.3,0.7,11.1
	c-4.6,0-9,0-13.7,0c0-3.5,0-7.2,0-11c-5.6,0-10.7,0-16.3,0c0-4.4-0.5-8.7,0.3-12.8c0.4-2.2,2.9-4.1,4.4-6
	C8,35.3,13.2,29.4,18.5,23.2c2-2.3,4.1-4.5,6.4-7.1c-8.7,0-17,0-25.4,0c0-4.5,0-8.8,0-13.3c4.9,0,9.9,0,15.1,0c0-3.8,0-7.3,0-11.1
	c4.5,0,8.7,0,13.2,0c0,3.5,0,7.1,0,10.9c5.4,0,10.7,0,16.4,0c0,4.5,0.5,8.8-0.3,12.9c-0.4,2.2-2.9,4.1-4.5,6
	c-5.2,6.1-10.3,12.1-15.6,18.2C21.8,42.1,19.7,44.3,17.4,46.8z"/>
</svg>
