<svg xmlns="http://www.w3.org/2000/svg" width="16.148" height="16.154" viewBox="0 0 246 246" shape-rendering="geometricPrecision" text-rendering="geometricPrecision" image-rendering="optimizeQuality" fill-rule="evenodd" clip-rule="evenodd"><defs><style><![CDATA[
    .fil0 {fill:white;fill-rule:nonzero}
   ]]></style></defs><path class="fil0" d="M79 192l85-23-5-19-17 4 73-77c7 13 10 28 11 43 1 26-9 53-28 73-20 21-46 32-72 33-54 1-100-39-104-93-3-29 7-60 26-80 20-21 46-32 72-32 21-1 42 5 61 17l14-15C172 7 146-1 120 0 88 1 57 14 34 39 10 63-1 95 0 127c3 109 138 160 213 81 23-25 34-57 33-89-1-26-10-52-27-73l-1-1L79 192z" id="Layer_x0020_1"/></svg>
