<?xml version="1.0" encoding="UTF-8"?>
<!DOCTYPE svg PUBLIC "-//W3C//DTD SVG 1.1//EN" "http://www.w3.org/Graphics/SVG/1.1/DTD/svg11.dtd">
<!-- Creator: CorelDRAW X7 -->
<svg xmlns="http://www.w3.org/2000/svg" xml:space="preserve" width="0.249169in" height="0.249169in" version="1.1" style="shape-rendering:geometricPrecision; text-rendering:geometricPrecision; image-rendering:optimizeQuality; fill-rule:evenodd; clip-rule:evenodd"
viewBox="0 0 249 249"
 xmlns:xlink="http://www.w3.org/1999/xlink">
 <defs>
  <style type="text/css">
   <![CDATA[
    .fil0 {fill:#373435;fill-rule:nonzero}
   ]]>
  </style>
 </defs>
 <g id="Layer_x0020_1">
  <metadata id="CorelCorpID_0Corel-Layer"/>
  <path id="Layer_x0020_1_0" class="fil0" d="M125 0c34,0 65,14 88,36 22,23 36,54 36,89 0,34 -14,65 -36,88 -23,22 -54,36 -88,36 -35,0 -66,-14 -89,-36 -22,-23 -36,-54 -36,-88 0,-35 14,-66 36,-89 23,-22 54,-36 89,-36zm-37 119l14 0 -3 8 -11 0 0 -8zm59 0l14 0 0 8 -11 0 -3 -8zm-59 -14l21 0 -4 8 -17 0 0 -8zm52 0l21 0 0 8 -17 0 -4 -8zm-52 -14l28 0 -4 8 -24 0 0 -8zm46 0l27 0 0 8 -24 0 -3 -8zm-46 -15l73 0 0 9 -73 0 0 -9zm95 -23l0 105 -17 0 0 -88 -83 0 0 88 -17 0 0 -105c39,0 78,0 117,0zm-74 175l0 -47 -25 0 41 -86 40 86 -25 0 0 47c23,-3 43,-14 59,-29 18,-19 30,-46 30,-74 0,-29 -12,-55 -30,-74 -19,-19 -46,-31 -74,-31 -29,0 -55,12 -74,31 -19,19 -31,45 -31,74 0,28 12,55 31,74 15,15 36,26 58,29z"/>
 </g>
</svg>
