<svg xmlns="http://www.w3.org/2000/svg" width="18" height="18" viewBox="0 0 18 18">
    <g fill="none" fill-rule="evenodd">
        <path fill="#00A024" d="M0 3h18v12H0z"/>
        <path fill="#FFE000" d="M8.862 4L17 9.07 8.862 14 1 9.052z"/>
        <circle cx="9.003" cy="9.003" r="2.753" fill="#00207C" fill-rule="nonzero"/>
        <path fill="#FFF" fill-rule="nonzero" d="M9.117 9.943l.074.22.231.001c.03 0 .043.039.019.057l-.187.137.07.221a.031.031 0 0 1-.048.035l-.188-.135-.189.135a.031.031 0 0 1-.048-.035l.07-.22-.186-.138a.031.031 0 0 1 .018-.057l.232-.001.073-.22a.031.031 0 0 1 .06 0zM10.018 10.511l.031.095h.1c.013 0 .018.017.008.025l-.08.06.03.094a.013.013 0 0 1-.02.015l-.082-.058-.081.058a.013.013 0 0 1-.02-.015l.03-.095-.08-.059a.013.013 0 0 1 .007-.024l.1-.001.031-.095a.013.013 0 0 1 .026 0zM8.728 9.525l.031.095h.1c.013 0 .018.017.008.025l-.08.059.03.095a.013.013 0 0 1-.02.015l-.082-.058-.081.058a.013.013 0 0 1-.02-.015l.03-.095-.08-.06a.013.013 0 0 1 .007-.023l.1-.001.031-.095a.013.013 0 0 1 .026 0zM6.981 9.41l.032.095h.1c.012 0 .018.017.007.025l-.08.06.03.094a.013.013 0 0 1-.02.015l-.082-.058-.08.058a.013.013 0 0 1-.022-.015l.03-.095-.08-.059a.013.013 0 0 1 .008-.024h.1l.031-.095c.005-.013.022-.013.026 0zM8.442 10.479l.032.094.1.001c.013 0 .018.017.008.024l-.08.06.03.095a.013.013 0 0 1-.021.015l-.081-.058-.082.058a.013.013 0 0 1-.02-.015l.03-.095-.08-.06a.013.013 0 0 1 .008-.024h.1l.03-.095c.005-.013.022-.013.026 0zM7.638 9.345l.026.077h.082c.01 0 .015.014.006.02l-.065.049.024.078a.011.011 0 0 1-.017.012l-.066-.048-.066.048a.011.011 0 0 1-.017-.012l.024-.078-.065-.049a.011.011 0 0 1 .006-.02h.082l.025-.077a.011.011 0 0 1 .021 0zM10.088 7.748l.032.096.102.001c.013 0 .019.017.008.025l-.082.06.03.098a.014.014 0 0 1-.02.015l-.083-.06-.083.06a.014.014 0 0 1-.021-.015L10 7.93 9.92 7.87a.014.014 0 0 1 .008-.025h.102l.033-.097a.014.014 0 0 1 .026 0zM7.093 8.871l.026.078h.082c.01 0 .015.014.006.02l-.065.049.024.077a.011.011 0 0 1-.017.013l-.066-.048-.066.048A.011.011 0 0 1 7 9.095l.024-.077-.065-.049a.011.011 0 0 1 .006-.02h.082l.026-.078a.011.011 0 0 1 .02 0zM7.487 9.962l.04.117h.123c.016 0 .022.021.01.03l-.1.074.037.118a.017.017 0 0 1-.025.018l-.1-.071-.101.071a.017.017 0 0 1-.026-.018l.038-.118-.1-.073a.017.017 0 0 1 .01-.03l.123-.001.04-.117c.005-.016.026-.016.031 0zM10.52 10.536l.024.074h.078a.01.01 0 0 1 .006.02l-.062.045.023.074c.003.01-.008.018-.016.012l-.063-.045-.063.045a.01.01 0 0 1-.016-.012l.023-.074-.062-.046a.01.01 0 0 1 .006-.019h.077l.025-.074c.003-.01.017-.01.02 0zM10.792 9.973l.031.095h.1c.013 0 .018.017.008.025l-.08.06.03.094a.013.013 0 0 1-.02.015l-.082-.058-.081.058a.013.013 0 0 1-.02-.015l.03-.095-.08-.059a.013.013 0 0 1 .007-.024l.1-.001.031-.095a.013.013 0 0 1 .026 0zM6.64 7.595c-.13.217-.23.454-.296.705 1.526-.115 3.784.312 5.221 1.706.094-.24.156-.494.18-.761-1.485-1.249-3.536-1.693-5.104-1.65z"/>
    </g>
</svg>
