<svg xmlns="http://www.w3.org/2000/svg" width="20" height="14" viewBox="0 0 20 14">
  <g fill="none" transform="translate(0 -1)">
    <rect width="18" height="12" x="1" y="2" fill="#1F5AF6"/>
    <path fill="#FFF" d="M0.444344584,3.02899151 L18.4443446,15.0289915 L19.5556554,12.9710085 L1.55565542,0.971008489 L0.444344584,3.02899151 Z M18.4443446,0.971008489 L0.444344584,12.9710085 L1.55565542,15.0289915 L19.5556554,3.02899151 L18.4443446,0.971008489 Z"/>
    <path fill="#FFF" d="M8.2,2 L8.2,14 L11.8,14 L11.8,2 L8.2,2 Z M1,10 L19,10 L19,6 L1,6 L1,10 Z"/>
    <path fill="#CF142B" d="M8.92,2 L8.92,14 L11.08,14 L11.08,2 L8.92,2 Z M1,9.2 L19,9.2 L19,6.8 L1,6.8 L1,9.2 Z"/>
  </g>
</svg>
