<svg xmlns="http://www.w3.org/2000/svg" xmlns:xlink="http://www.w3.org/1999/xlink" width="18" height="18" viewBox="0 0 18 18">
    <defs>
        <path id="a" d="M.005.458h1.11v.555a.555.555 0 1 1-1.11 0V.458z"/>
    </defs>
    <g fill="none" fill-rule="evenodd">
        <path fill="none" d="M0 0h18v18H0z"/>
        <path fill="#FCD116" d="M0 6h18v6H0z"/>
        <g transform="translate(3 7)">
            <path fill="#C8414B" fill-rule="nonzero" d="M3.84 2.013l.246-.847c.023-.078-.054-.152-.159-.152h-.173c-.105 0-.182.074-.16.152l.246.847z"/>
            <path fill="#F5F5F5" fill-rule="nonzero" d="M3.56 1.569h1v1.888h-1z"/>
            <path fill="#FAB446" fill-rule="nonzero" d="M3.448 1.347h1v1h-1z"/>
            <g fill="#C8414B" fill-rule="nonzero">
                <path d="M3.005 2.014h1.11v1h-1.11z"/>
                <path d="M4.115 2.958l-.666-.25v-.25l.666.25zM.508 2.013l.246-.847c.023-.078-.055-.152-.16-.152H.422c-.104 0-.182.074-.159.152l.246.847z"/>
            </g>
            <path fill="#FAB446" fill-rule="nonzero" d="M1.449 1.125h1.333v1H1.449z"/>
            <path fill="#F5F5F5" fill-rule="nonzero" d="M1.227 1.347c-.123 0-.222.1-.222.222v1.444c0 .27.252.777 1.11.777.86 0 1.111-.507 1.111-.777V1.569c0-.123-.1-.222-.222-.222H1.227z"/>
            <g fill="#C8414B" fill-rule="nonzero">
                <path d="M2.116 2.458H1.005v-.89c0-.122.1-.221.222-.221h.889v1.11zM2.116 2.458h1.11v.555a.555.555 0 1 1-1.11 0v-.555z"/>
            </g>
            <g transform="translate(1 2)">
                <mask id="b" fill="#fff">
                    <use xlink:href="#a"/>
                </mask>
                <use fill="#FAB446" fill-rule="nonzero" xlink:href="#a"/>
                <path fill="#C8414B" d="M0 .354h.227v1.213H0zM.4.354h.227v1.213H.4zM.8.354h.227v1.213H.8z" mask="url(#b)"/>
            </g>
            <path fill="#F5F5F5" fill-rule="nonzero" d="M.227 1.569h1v1.888h-1z"/>
            <g fill="#FAB446" fill-rule="nonzero">
                <path d="M.117 3.346h1v1h-1zM.117 1.347h1v1h-1z"/>
            </g>
            <path fill="#5064AA" fill-rule="nonzero" d="M.005 3.568h1v1h-1z"/>
            <path fill="#FAB446" fill-rule="nonzero" d="M3.56 3.346h1v1h-1z"/>
            <path fill="#5064AA" fill-rule="nonzero" d="M3.44 3.568h1v1h-1z"/>
            <path fill="#FFB441" fill-rule="nonzero" d="M2.005.458h1v1h-1z"/>
            <g fill="#FAB446" fill-rule="nonzero">
                <path d="M1.893.791a.334.334 0 1 1 .001-.667.334.334 0 0 1 0 .667zm0-.444a.111.111 0 1 0 0 .222.111.111 0 0 0 0-.222z"/>
                <path d="M2.338.791a.334.334 0 1 1 0-.667.334.334 0 0 1 0 .667zm0-.444a.111.111 0 1 0 0 .222.111.111 0 0 0 0-.222z"/>
                <path d="M2.782 1.014a.334.334 0 1 1 0-.668.334.334 0 0 1 0 .668zm0-.445a.111.111 0 1 0 0 .223.111.111 0 0 0 0-.223zM1.45 1.014a.334.334 0 1 1 0-.668.334.334 0 0 1 0 .668zm0-.445a.111.111 0 1 0 0 .223.111.111 0 0 0 0-.223z"/>
            </g>
            <path fill="#FAB446" fill-rule="nonzero" d="M2.782 2.902v.11a.111.111 0 0 1-.222 0v-.11h.222zm.222-.222h-.666v.333a.334.334 0 0 0 .666 0V2.68z"/>
            <path fill="#FFA0D2" fill-rule="nonzero" d="M2.699 2.235c-.138 0-.25-.1-.25-.222v-.222c0-.123.112-.222.25-.222s.25.1.25.222v.222c0 .123-.112.222-.25.222z"/>
            <path fill="#C8414B" fill-rule="nonzero" d="M1.45 1.125L1.226.902l.13-.13a1.073 1.073 0 0 1 1.517 0l.13.13-.222.223H1.45z"/>
            <g fill="#C8414B" fill-rule="nonzero">
                <path d="M.117 2.013H2.1v1H.117z"/>
                <path d="M.116 2.958l.667-.25v-.25l-.667.25z"/>
            </g>
            <path fill="#FFB441" fill-rule="nonzero" d="M1.23 1.5h1v1h-1z"/>
            <circle cx="2.116" cy="2.457" r="1" fill="#5064AA" fill-rule="nonzero"/>
        </g>
        <path fill="#E74C3C" d="M0 3h18v3H0zM0 12h18v3H0z"/>
    </g>
</svg>
