<?xml version="1.0" encoding="UTF-8"?>
<svg width="18px" height="18px" viewBox="0 0 18 18" version="1.1" xmlns="http://www.w3.org/2000/svg" xmlns:xlink="http://www.w3.org/1999/xlink">
    <!-- Generator: Sketch 50.2 (55047) - http://www.bohemiancoding.com/sketch -->
    <title>ko</title>
    <desc>Created with Sketch.</desc>
    <defs></defs>
    <g id="ko" stroke="none" stroke-width="1" fill="none" fill-rule="evenodd">
        <rect id="bg" stroke="#DAE1E9" fill="#FFFFFF" x="0.5" y="3.5" width="17" height="11"></rect>
        <g id="in-yan" transform="translate(5.500000, 5.500000)" fill-rule="nonzero">
            <path d="M5.22689766,1.19832456 C3.92223977,0.328584795 2.1600848,0.684154971 1.29089181,1.98652924 C0.854912281,2.63659064 1.0321345,3.51990351 1.6844152,3.95478947 C2.33621345,4.38967544 3.21669591,4.21306433 3.65158187,3.5607193 C4.08646784,2.90840643 4.96752924,2.73398246 5.61929532,3.1665848 C6.27215497,3.60147076 6.44773684,4.48478363 6.01223977,5.13484503 C6.8820117,3.83028363 6.53042982,2.06809649 5.22689766,1.19832456" id="Shape" fill="#E5494D"></path>
            <path d="M1.29085965,1.9865614 C0.854880117,2.63662281 1.03210234,3.51993567 1.68438304,3.95482164 C2.33618129,4.3897076 3.21666374,4.21309649 3.65154971,3.56075146 C4.08643567,2.9084386 4.96749708,2.73401462 5.61926316,3.16661696 C6.27212281,3.60150292 6.44770468,4.48481579 6.0122076,5.13487719 C5.14359357,6.44175439 3.38201754,6.79288596 2.07735965,5.92311404 C0.773891813,5.05340643 0.421119883,3.2912193 1.29085965,1.9865614" id="Shape" fill="#1751EC"></path>
        </g>
        <g id="lines" transform="translate(3.536667, 4.739167)" fill="#464655" fill-rule="nonzero">
            <path d="M8.48865497,0.810236842 L9.00440058,1.58544737 C9.04772515,1.65057895 9.03019591,1.73851462 8.96519298,1.78203216 L8.8344152,1.86961404 C8.76915497,1.9132924 8.68083333,1.89573099 8.63728363,1.83037427 L8.12089474,1.05535673 C8.07744152,0.990160819 8.09506725,0.902064327 8.16023099,0.858546784 L8.29165205,0.770804094 C8.35694444,0.727222222 8.44516959,0.744880117 8.48865497,0.810236842 Z" id="Shape"></path>
            <path d="M9.28438596,2.00547368 L9.80180409,2.78020175 C9.84548246,2.84562281 9.82763158,2.93413743 9.76201754,2.97749415 L9.63066082,3.06430409 C9.56549708,3.10740351 9.47775439,3.08968129 9.4343655,3.02474269 L8.91723684,2.25081871 C8.87368713,2.18565497 8.89118421,2.09749415 8.95638012,2.05391228 L9.0874152,1.96629825 C9.15261111,1.92271637 9.24080409,1.94024561 9.28438596,2.00547368 Z" id="Shape"></path>
            <path d="M9.04087427,0.441704678 L10.3540877,2.41247368 C10.3975731,2.47770175 10.3799152,2.56583041 10.3146871,2.60931579 L10.1827515,2.69725146 C10.1175234,2.74076901 10.0293626,2.72311111 9.98587719,2.65788304 L8.67221345,0.68724269 C8.62869591,0.621982456 8.64638596,0.533789474 8.71167836,0.490336257 L8.84403216,0.402239766 C8.9092924,0.358850877 8.99738889,0.376476608 9.04087427,0.441704678 Z" id="Shape"></path>
            <path d="M9.59158187,0.073751462 L10.1084532,0.850473684 C10.1520029,0.915894737 10.1341199,1.00421637 10.068538,1.04754094 L9.93711696,1.13438304 C9.87188889,1.17748246 9.78411404,1.15976023 9.74075731,1.09469298 L9.2235,0.319 C9.17998246,0.25377193 9.19764035,0.165611111 9.26286842,0.122125731 L9.3947076,0.034254386 C9.45990351,-0.00926315789 9.54809649,0.00839473684 9.59158187,0.073751462 Z" id="Shape"></path>
            <path d="M10.3878275,1.27149708 L10.9038947,2.04661111 C10.9473158,2.11177485 10.9297222,2.19977485 10.864655,2.2432924 L10.7335877,2.33090643 C10.6683275,2.37455263 10.5800058,2.3569269 10.5365205,2.29157018 L10.0204532,1.51645614 C9.97706433,1.4512924 9.99462573,1.3632924 10.059693,1.31977485 L10.1907602,1.23216082 C10.2559883,1.18851462 10.3443099,1.20610819 10.3878275,1.27149708 Z" id="Shape"></path>
            <path d="M1.50272222,5.46728947 L2.81577485,7.43593567 C2.85926023,7.50113158 2.84169883,7.58926023 2.77647076,7.63277778 L2.64498538,7.7205848 C2.57975731,7.7641345 2.49159649,7.74654094 2.44804678,7.6812807 L1.13499415,5.7126345 C1.09150877,5.6474386 1.10907018,5.55930994 1.17429825,5.5157924 L1.30578363,5.42798538 C1.3710117,5.38443567 1.45920468,5.4020614 1.50272222,5.46728947 Z" id="Shape"></path>
            <path d="M0.951467836,5.83553216 L1.4669883,6.6087807 C1.51044152,6.67394444 1.49291228,6.76191228 1.42784503,6.80549415 L1.29706725,6.89304386 C1.23187135,6.93669006 1.14361404,6.91916082 1.10003216,6.85390058 L0.583900585,6.08084503 C0.540350877,6.01564912 0.557912281,5.9274883 0.623140351,5.8839386 L0.754561404,5.79619591 C0.81975731,5.75267836 0.907950292,5.77027193 0.951467836,5.83553216 Z" id="Shape"></path>
            <path d="M1.74813158,7.03118713 L2.26423099,7.80639766 C2.30765205,7.8715614 2.29005848,7.95959357 2.2249269,8.00307895 L2.09376316,8.09075731 C2.02850292,8.13437135 1.94027778,8.11677778 1.89672807,8.05148538 L1.38030702,7.27643567 C1.3368538,7.21123977 1.35447953,7.12314327 1.41961111,7.07962573 L1.55109649,6.99181871 C1.61638889,6.94820468 1.70461404,6.96586257 1.74813158,7.03118713 Z" id="Shape"></path>
            <path d="M0.400181287,6.2036462 L1.71239766,8.17238889 C1.75585088,8.23755263 1.73825731,8.32561696 1.67319006,8.36916667 L1.54205848,8.45684503 C1.47683041,8.50045906 1.38860526,8.48289766 1.34505556,8.41760526 L0.0320672515,6.44911988 C-0.0114502924,6.38389181 0.00620760234,6.29573099 0.0714356725,6.25221345 L0.203371345,6.16427778 C0.268535088,6.1207924 0.356695906,6.13841813 0.400181287,6.2036462 Z" id="Shape"></path>
            <path d="M1.13518713,2.78033041 L2.44804678,0.810076023 C2.49156433,0.744783626 2.57975731,0.727157895 2.64501754,0.770707602 L2.77647076,0.858482456 C2.84166667,0.902 2.85922807,0.990128655 2.81577485,1.05532456 L1.50240058,3.02448538 C1.45897953,3.08955263 1.37114035,3.10724269 1.30594444,3.06407895 L1.17500585,2.97739766 C1.10945614,2.93404094 1.09163743,2.84568713 1.13518713,2.78033041 Z" id="Shape"></path>
            <path d="M0.583675439,2.41260234 L1.89676023,0.441961988 C1.94027778,0.376669591 2.02853509,0.35904386 2.09379532,0.402657895 L2.2249269,0.490336257 C2.29002632,0.533853801 2.30758772,0.621853801 2.26416667,0.687049708 L0.951435673,2.65778655 C0.907918129,2.72307895 0.819725146,2.74073684 0.754464912,2.69715497 L0.622979532,2.60938012 C0.557815789,2.56589474 0.540222222,2.47779825 0.583675439,2.41260234 Z" id="Shape"></path>
            <path d="M0.0318421053,2.04645029 L1.34505556,0.0738479532 C1.3885731,0.00852339181 1.47686257,-0.00913450292 1.54212281,0.0344795322 L1.67325439,0.122157895 C1.7383538,0.165675439 1.7559152,0.253611111 1.71255848,0.318807018 L0.400149123,2.29169883 C0.356695906,2.35702339 0.26847076,2.37471345 0.203210526,2.33119591 L0.0712748538,2.24326023 C0.00607894737,2.19977485 -0.0115467836,2.11167836 0.0318421053,2.04645029 Z" id="Shape"></path>
            <path d="M8.12111988,7.43593567 L8.63725146,6.66288012 C8.68083333,6.59761988 8.76909064,6.58009064 8.83428655,6.62373684 L8.96506433,6.71131871 C9.03013158,6.75486842 9.04762865,6.84286842 9.0042076,6.90803216 L8.48868713,7.68124854 C8.44516959,7.74650877 8.35697661,7.7641345 8.29174854,7.7205848 L8.16032749,7.63284211 C8.09513158,7.5892924 8.07757018,7.50116374 8.12111988,7.43593567 Z" id="Shape"></path>
            <path d="M8.91717251,6.24433333 L9.43414035,5.46745029 C9.47762573,5.40215789 9.56581871,5.38446784 9.63107895,5.42798538 L9.76282164,5.5157924 C9.82808187,5.55930994 9.8457076,5.64753509 9.80215789,5.71276316 L9.28409649,6.48842398 C9.24064327,6.55349123 9.15280409,6.57111696 9.08760819,6.52788889 L8.95695906,6.44130409 C8.89150585,6.3979152 8.87368713,6.30965789 8.91717251,6.24433333 Z" id="Shape"></path>
            <path d="M8.67218129,7.80610819 L9.1886345,7.03102632 C9.23211988,6.96576608 9.3202807,6.94810819 9.38554094,6.99162573 L9.51754094,7.07965789 C9.58273684,7.12314327 9.60036257,7.2112076 9.55694152,7.27646784 L9.04080994,8.05161404 C8.99735673,8.11687427 8.90926023,8.13456433 8.84396784,8.09111111 L8.71161404,8.00301462 C8.64638596,7.9595614 8.62869591,7.87136842 8.67218129,7.80610819 Z" id="Shape"></path>
            <path d="M9.46910234,6.60849123 L9.98584503,5.83521053 C10.0293947,5.77007895 10.1174591,5.75251754 10.182655,5.79597076 L10.3145906,5.88390643 C10.3798509,5.92742398 10.3974766,6.01564912 10.3538626,6.08087719 L9.83715205,6.85415789 C9.7936345,6.91928947 9.70553801,6.93685088 9.64037427,6.89339766 L9.50840643,6.80546199 C9.44308187,6.76200877 9.4254883,6.67375146 9.46910234,6.60849123 Z" id="Shape"></path>
            <path d="M9.22362865,8.17222807 L9.74066082,7.39849708 C9.78408187,7.33355848 9.8717924,7.31586842 9.93695614,7.35893567 L10.0683772,7.44577778 C10.1339591,7.4891345 10.1518421,7.57755263 10.1082281,7.64297368 L9.59158187,8.41773392 C9.54809649,8.48296199 9.45993567,8.50055556 9.3947076,8.45710234 L9.26286842,8.36923099 C9.19760819,8.32568129 9.18001462,8.23745614 9.22362865,8.17222807 Z" id="Shape"></path>
            <path d="M10.0207427,6.97856725 L10.5364883,6.20390351 C10.5800058,6.13857895 10.6682953,6.12092105 10.7335556,6.16456725 L10.8645263,6.25211696 C10.9296579,6.29566667 10.9471871,6.38376316 10.9037018,6.4489269 L10.3875058,7.2225614 C10.344117,7.28766082 10.2561813,7.30531871 10.1909854,7.26209064 L10.0604006,7.17557018 C9.9950117,7.13221345 9.97722515,7.04392398 10.0207427,6.97856725 Z" id="Shape"></path>
        </g>
    </g>
</svg>