<svg xmlns="http://www.w3.org/2000/svg" xmlns:xlink="http://www.w3.org/1999/xlink" width="18" height="18" viewBox="0 0 18 18">
    <defs>
        <path id="a" d="M0 3h18v12H0z"/>
    </defs>
    <g fill="none" fill-rule="evenodd">
        <path fill="none" d="M0 0h18v18H0z"/>
        <mask id="b" fill="#fff">
            <use xlink:href="#a"/>
        </mask>
        <use fill="#E74C3C" fill-rule="nonzero" xlink:href="#a"/>
        <path fill="#25AE60" fill-rule="nonzero" d="M0 3v12h6V3z" mask="url(#b)"/>
        <path fill="#F2DD27" d="M6 6c1.658 0 3 1.342 3 3s-1.342 3-3 3-3-1.342-3-3 1.342-3 3-3zm-2.089 4.5h1.877v1.063A2.577 2.577 0 0 1 3.91 10.5zm2.302 1.063V10.5h1.876a2.588 2.588 0 0 1-1.876 1.063zm2.125-1.494H6.213v-.857h2.35a2.509 2.509 0 0 1-.225.857zm.225-1.282h-2.35v-.856h2.125c.122.261.2.553.225.856zM8.09 7.5H6.213V6.437A2.589 2.589 0 0 1 8.089 7.5zM5.788 6.437V7.5H3.91a2.578 2.578 0 0 1 1.877-1.063zM3.662 7.931h2.126v.856h-2.35c.024-.303.103-.595.224-.856zm-.224 1.281h2.35v.857H3.662a2.511 2.511 0 0 1-.224-.857z" mask="url(#b)"/>
        <path fill="#CC2727" d="M4.5 7.3h3v1.91c0 .82-.674 1.49-1.5 1.49s-1.5-.67-1.5-1.49V7.3z" mask="url(#b)"/>
        <path fill="#FFF" d="M4.9 7.755h2.2v1.401c0 .602-.494 1.092-1.1 1.092-.606 0-1.1-.49-1.1-1.092V7.755z" mask="url(#b)"/>
        <path fill="#3197C3" d="M5.753 8.041h.5v.5h-.5v-.5zm0 .641h.5v.5h-.5v-.5zm0 .641h.5v.5h-.5v-.5zm-.641-.64h.5v.5h-.5v-.5zm1.276 0h.5v.5h-.5v-.5z" mask="url(#b)"/>
    </g>
</svg>
