<svg xmlns="http://www.w3.org/2000/svg" width="18" height="18" viewBox="0 0 18 18">
    <g fill="none" fill-rule="evenodd">
        <path fill="none" d="M0 0h18v18H0z"/>
        <path fill="#E40310" d="M0 3h18v12H0z"/>
        <path fill="#EEE" fill-rule="nonzero" d="M7.459 11.836a2.844 2.844 0 1 1 1.662-5.15 3.474 3.474 0 0 0-2.61-1.18 3.485 3.485 0 0 0 0 6.972c1.04 0 1.972-.458 2.61-1.182-.467.339-1.04.54-1.662.54M9.313 9.1l1.156.267.105 1.182.61-1.017 1.157.266-.78-.896.61-1.017-1.091.464-.779-.895.104 1.182z"/>
    </g>
</svg>
