<svg xmlns="http://www.w3.org/2000/svg" width="18" height="18" viewBox="0 0 18 18">
    <g fill="none" fill-rule="evenodd">
        <path fill="none" d="M0 0h18v18H0z"/>
        <path fill="#DF2408" d="M0 3h18v12H0z"/>
        <g fill="#FFE15A" fill-rule="nonzero">
            <path d="M3.306 5.081l.354 1.082 1.12.009c.145 0 .205.19.088.277l-.9.677.337 1.087c.044.14-.113.257-.231.171l-.912-.663-.91.663c-.119.086-.276-.03-.232-.171l.337-1.087-.9-.677c-.117-.088-.057-.276.088-.277l1.12-.01.354-1.08a.15.15 0 0 1 .287 0zM7.373 5.348l.254.353.41-.13c.053-.018.097.044.064.09l-.251.355.249.356c.032.046-.012.108-.065.09l-.41-.133-.256.351c-.033.045-.104.022-.104-.035l-.002-.437-.407-.14c-.053-.018-.053-.094 0-.112l.408-.137.005-.437c0-.057.072-.08.105-.034zM5.826 4.297l.427.047.182-.396a.058.058 0 0 1 .109.013l.088.428.426.054c.055.007.07.081.022.11l-.373.217.081.43c.01.055-.054.092-.095.054l-.319-.294-.376.212c-.048.027-.103-.025-.08-.076l.176-.4-.314-.298c-.04-.038-.01-.107.046-.101zM6.5 8.535l-.253.353-.41-.13c-.053-.018-.097.044-.065.09l.251.355-.248.356c-.032.046.012.108.065.09l.409-.133.256.351c.033.045.104.022.105-.035l.001-.437.408-.14c.052-.018.052-.094 0-.112l-.409-.137-.005-.437c0-.057-.071-.08-.104-.034zM8.048 7.547l-.427.047-.183-.396a.058.058 0 0 0-.109.013l-.088.428-.426.054c-.055.007-.07.082-.022.11l.373.217-.081.43c-.01.055.055.092.096.054l.318-.293.376.21c.049.028.104-.023.08-.075l-.175-.399.314-.299c.04-.038.01-.107-.046-.101z"/>
        </g>
    </g>
</svg>
