<svg xmlns="http://www.w3.org/2000/svg" width="18" height="18" viewBox="0 0 18 18">
    <path fill="#9BA6B2" fill-rule="nonzero" d="M13.386 15.19a.75.75 0 1 1-1.5 0v-1.454a2.16 2.16 0 0 0-2.159-2.159H3.91a2.16 2.16 0 0 0-2.159 2.16v1.454a.75.75 0 1 1-1.5 0v-1.455a3.66 3.66 0 0 1 3.66-3.659h5.817a3.66 3.66 0 0 1 3.66 3.66v1.454zM6.818 8.669a3.66 3.66 0 1 1 0-7.318 3.66 3.66 0 0 1 0 7.318zm0-1.5a2.16 2.16 0 1 0 0-4.318 2.16 2.16 0 0 0 0 4.318zM17.8 15.191a.8.8 0 1 1-1.6 0v-1.454c0-.961-.651-1.8-1.582-2.04a.8.8 0 0 1 .4-1.55 3.71 3.71 0 0 1 2.782 3.59v1.454zM11.723 2.92a.75.75 0 1 1 .372-1.453 3.66 3.66 0 0 1 0 7.09.75.75 0 0 1-.372-1.454 2.16 2.16 0 0 0 0-4.183z"/>
</svg>
