<svg xmlns="http://www.w3.org/2000/svg" width="24" height="24" viewBox="0 0 24 24">
    <g fill="none" fill-rule="nonzero">
        <path fill="#1F5AF6" d="M16.368 0h.169c.135 1.676-.504 2.928-1.282 3.835-.762.9-1.807 1.774-3.496 1.641-.113-1.652.528-2.811 1.304-3.716.72-.843 2.04-1.593 3.305-1.76z"/>
        <path fill="#CAD9FF" d="M21.482 17.443v.047c-.475 1.438-1.152 2.67-1.979 3.814-.754 1.038-1.679 2.435-3.33 2.435-1.426 0-2.373-.917-3.835-.942-1.547-.025-2.397.767-3.811.966h-.482c-1.038-.15-1.876-.972-2.487-1.713-1.8-2.19-3.19-5.017-3.45-8.636V12.35c.11-2.59 1.369-4.696 3.041-5.717.883-.542 2.097-1.004 3.448-.798.579.09 1.17.288 1.69.484.49.19 1.105.524 1.688.506.394-.011.786-.217 1.184-.362 1.164-.42 2.306-.902 3.81-.676 1.81.274 3.093 1.077 3.886 2.317-1.53.973-2.74 2.44-2.533 4.946.184 2.276 1.507 3.607 3.16 4.392z"/>
    </g>
</svg>
