<svg xmlns="http://www.w3.org/2000/svg" width="18" height="18" viewBox="0 0 18 18">
    <path fill="#7F8FA4" fill-rule="evenodd" d="M8.242 2.576a.75.75 0 1 1 0 1.5H3.24a.679.679 0 0 0-.68.68V14.76c0 .375.305.68.68.68h10.004a.679.679 0 0 0 .68-.68V9.758a.75.75 0 1 1 1.5 0v5.002a2.18 2.18 0 0 1-2.18 2.18H3.24a2.18 2.18 0 0 1-2.18-2.18V4.756a2.18 2.18 0 0 1 2.18-2.18h5.002zm8.034-.852c.885.885.885 2.32 0 3.205l-6.789 6.789a.75.75 0 0 1-.348.197l-2.859.715a.75.75 0 0 1-.91-.91l.715-2.859a.75.75 0 0 1 .197-.348l6.79-6.79a2.266 2.266 0 0 1 3.204 0zM8.573 10.51l6.642-6.642a.766.766 0 0 0-1.083-1.083L7.49 9.427l-.36 1.444 1.443-.361z"/>
</svg>
