<svg xmlns="http://www.w3.org/2000/svg" width="18" height="18" viewBox="0 0 18 18">
    <path fill="#7F8FA4" fill-rule="evenodd" d="M14 12.5h1.5v-2.25a.75.75 0 1 1 1.5 0v3a.748.748 0 0 1-.75.75h-3a.75.75 0 0 1-.75-.75V11H11v5.25a.75.75 0 1 1-1.5 0v-6a.748.748 0 0 1 .75-.75h3a.748.748 0 0 1 .75.75v2.25zM2 1h5.5a1 1 0 0 1 1 1v5.5a1 1 0 0 1-1 1H2a1 1 0 0 1-1-1V2a1 1 0 0 1 1-1zm.5 1.5V7H7V2.5H2.5zm-.5 7h5.5a1 1 0 0 1 1 1V16a1 1 0 0 1-1 1H2a1 1 0 0 1-1-1v-5.5a1 1 0 0 1 1-1zm.5 1.5v4.5H7V11H2.5zM4 12.5h1.5V14H4v-1.5zM4 4h1.5v1.5H4V4zm8.5 0H14v1.5h-1.5V4zm0 11.5H14V17h-1.5v-1.5zm3 0H17V17h-1.5v-1.5zM10.5 1H16a1 1 0 0 1 1 1v5.5a1 1 0 0 1-1 1h-5.5a1 1 0 0 1-1-1V2a1 1 0 0 1 1-1zm.5 1.5V7h4.5V2.5H11z"/>
</svg>
