<svg xmlns="http://www.w3.org/2000/svg" width="18" height="18" viewBox="0 0 18 18">
    <path fill="#9BA6B2" fill-rule="nonzero" d="M15.568 7.068h1.472a.75.75 0 1 1 0 1.5h-1.472v1.468a.75.75 0 1 1-1.5 0V8.568H12.6a.75.75 0 1 1 0-1.5h1.468V5.636a.75.75 0 0 1 1.5 0v1.432zm-2.909 8.023a.75.75 0 1 1-1.5 0v-1.455A2.16 2.16 0 0 0 9 11.477H3.91a2.16 2.16 0 0 0-2.16 2.16v1.454a.75.75 0 1 1-1.5 0v-1.455a3.66 3.66 0 0 1 3.66-3.659H9a3.66 3.66 0 0 1 3.66 3.66v1.454zM6.455 8.568a3.66 3.66 0 1 1 0-7.318 3.66 3.66 0 0 1 0 7.318zm0-1.5a2.16 2.16 0 1 0 0-4.318 2.16 2.16 0 0 0 0 4.318z"/>
</svg>
