<?xml version="1.0" encoding="UTF-8"?>
<svg width="40px" height="37px" viewBox="0 0 40 37" version="1.1" xmlns="http://www.w3.org/2000/svg" xmlns:xlink="http://www.w3.org/1999/xlink">
    <!-- Generator: Sketch 48.2 (47327) - http://www.bohemiancoding.com/sketch -->
    <title>anonym2</title>
    <desc>Created with Sketch.</desc>
    <defs></defs>
    <g id="step_2" stroke="none" stroke-width="1" fill="none" fill-rule="evenodd" transform="translate(-390.000000, -374.000000)">
        <g id="white-bg" transform="translate(330.000000, 102.000000)" fill="#5A81EA">
            <g id="left" transform="translate(55.000000, 271.000000)">
                <g id="Line-1" transform="translate(5.000000, 0.000000)">
                    <g id="anonym2" transform="translate(0.000000, 1.500000)">
                        <rect id="Rectangle-10" x="0" y="14.5" width="30.0713501" height="2"></rect>
                        <polygon id="Rectangle-10" points="4.80004883 14.5360107 14.1578674 0.140594482 20.2237549 6.95648193 27.6240234 0.48626709 36.0686035 18.182373 33.8312988 18.182373 26.9671021 3.70178223 20.0291748 9.7779541 14.4073181 3.43319702 6.77490234 15.1627197"></polygon>
                        <rect id="Rectangle-10" x="0" y="18" width="40" height="2"></rect>
                        <polygon id="Rectangle-10" points="0 18 20.0423584 22 40 18 40 20 19.9920654 24 0 20"></polygon>
                        <g id="Group-8" transform="translate(3.500000, 24.000000)">
                            <rect id="Rectangle-10" x="0" y="5" width="3" height="2"></rect>
                            <rect id="Rectangle-10" x="30" y="5" width="3" height="2"></rect>
                            <path d="M13.2926941,5.06005859 C14.2944139,4.60064697 15.2950242,4.37094116 16.2945251,4.37094116 C17.2940261,4.37094116 18.2934157,4.60064697 19.2926941,5.06005859 L19.2926941,7.06005859 C18.2540563,6.60064697 17.2403437,6.37094116 16.2515564,6.37094116 C15.2627691,6.37094116 14.2764816,6.60064697 13.2926941,7.06005859 L13.2926941,5.06005859 Z" id="Rectangle-10"></path>
                            <path d="M8,12.5 C4.6862915,12.5 2,9.8137085 2,6.5 C2,3.1862915 4.6862915,0.5 8,0.5 C11.3137085,0.5 14,3.1862915 14,6.5 C14,9.8137085 11.3137085,12.5 8,12.5 Z M8.0049272,10.8636364 C10.414897,10.8636364 12.3685636,8.90996982 12.3685636,6.5 C12.3685636,4.09003018 10.414897,2.13636364 8.0049272,2.13636364 C5.59495738,2.13636364 3.64129084,4.09003018 3.64129084,6.5 C3.64129084,8.90996982 5.59495738,10.8636364 8.0049272,10.8636364 Z" id="Oval"></path>
                            <path d="M25,12.5 C21.6862915,12.5 19,9.8137085 19,6.5 C19,3.1862915 21.6862915,0.5 25,0.5 C28.3137085,0.5 31,3.1862915 31,6.5 C31,9.8137085 28.3137085,12.5 25,12.5 Z M25.0049272,10.8636364 C27.414897,10.8636364 29.3685636,8.90996982 29.3685636,6.5 C29.3685636,4.09003018 27.414897,2.13636364 25.0049272,2.13636364 C22.5949574,2.13636364 20.6412908,4.09003018 20.6412908,6.5 C20.6412908,8.90996982 22.5949574,10.8636364 25.0049272,10.8636364 Z" id="Oval"></path>
                        </g>
                    </g>
                </g>
            </g>
        </g>
    </g>
</svg>
