<?xml version="1.0" encoding="UTF-8"?>
<svg width="41px" height="38px" viewBox="0 0 41 38" version="1.1" xmlns="http://www.w3.org/2000/svg" xmlns:xlink="http://www.w3.org/1999/xlink">
    <!-- Generator: Sketch 48.2 (47327) - http://www.bohemiancoding.com/sketch -->
    <title>backup</title>
    <desc>Created with Sketch.</desc>
    <defs></defs>
    <g id="step_2" stroke="none" stroke-width="1" fill="none" fill-rule="evenodd" transform="translate(-389.000000, -516.000000)">
        <g id="white-bg" transform="translate(330.000000, 102.000000)" fill="#5A81EA" fill-rule="nonzero">
            <g id="left" transform="translate(55.000000, 271.000000)">
                <g id="LINE-3" transform="translate(4.000000, 140.000000)">
                    <g id="backup" transform="translate(0.000000, 3.000000)">
                        <g id="str-1">
                            <path d="M9.9903234,6.82501204 L9.24758676,7.49459569 L7.90841944,6.0091224 L8.65115609,5.33953874 C10.0277325,4.09854292 11.1256354,3.24341449 11.9708393,2.76410408 C15.0463947,1.01997379 18.6561139,0.214676112 22.3355178,0.411855445 C24.9827489,0.553720609 27.4408282,1.33534724 30.0954117,2.89912901 C32.4172357,4.26688631 34.5748959,6.23532687 35.8642832,8.16410511 C36.6761756,9.37860482 37.283822,10.6418833 37.7527769,12.276582 C38.0964842,13.4746887 38.3668759,14.7918053 38.5648547,16.2283052 L38.7013844,17.2189411 L36.7201125,17.4920006 L36.5835828,16.5013646 C36.398098,15.1555195 36.1467094,13.9309694 35.8303197,12.8280877 C35.421272,11.4022154 34.9031725,10.3251023 34.2015904,9.27561435 C33.0863915,7.60740224 31.152398,5.84301358 29.0802807,4.62235537 C26.6938096,3.21651518 24.5446236,2.5331113 22.2284914,2.40898973 C18.9229808,2.23184735 15.6932115,2.95238144 12.9574277,4.50382916 C12.2656623,4.89612548 11.2679694,5.6732029 9.9903234,6.82501204 Z" id="Line-2"></path>
                            <polygon id="Line-12" points="9.75949899 9.65325443 11.2793628 8.35324899 14.9991466 12.7021267 0.791414288 17.2098232 5.45691032 2.49199852 9.68831878 7.10056602 8.21510781 8.45321136 6.31970101 6.38886086 3.86361501 14.1368565 11.5174549 11.7085178"></polygon>
                            <polygon id="Line-12" transform="translate(34.039568, 28.378010) rotate(-182.000000) translate(-34.039568, -28.378010) " points="35.9037861 28.180354 37.4236499 26.8803486 41.1434337 31.2292263 26.9357014 35.7369228 31.6011974 21.0190981 35.8326059 25.6276656 34.3593949 26.980311 32.4639881 24.9159605 30.0079021 32.6639561 37.661742 30.2356174"></polygon>
                        </g>
                        <g id="str-1" transform="translate(18.500000, 29.181818) rotate(180.000000) translate(-18.500000, -29.181818) translate(4.000000, 21.181818)">
                            <path d="M0.924811037,5.82702002 L0.171743427,6.48496316 L-1.14414285,4.97882794 L-0.391075242,4.3208848 C1.01856273,3.08930663 2.13090024,2.24042886 2.97083932,1.76410408 C6.04639466,0.0199737896 9.65611387,-0.785323888 13.3355178,-0.588144555 C15.9827489,-0.446279391 18.4408282,0.335347239 21.0954117,1.89912901 C23.4172357,3.26688631 25.5748959,5.23532687 26.8642832,7.16410511 C27.5708609,8.22106592 28.1762789,9.51939087 28.7415967,11.2402321 C29.0888693,12.2973385 29.3620846,13.6282096 29.5662801,15.2390802 L29.6920348,16.2311416 L27.707912,16.4826509 L27.5821574,15.4905895 C27.3927982,13.9967608 27.1442332,12.7859652 26.8414999,11.8644376 C26.3297715,10.3067236 25.8002228,9.17110104 25.2015904,8.27561435 C24.0863915,6.60740224 22.152398,4.84301358 20.0802807,3.62235537 C17.6938096,2.21651518 15.5446236,1.5331113 13.2284914,1.40898973 C9.92298082,1.23184735 6.69321146,1.95238144 3.95742772,3.50382916 C3.26039749,3.89911112 2.24122458,4.67689054 0.924811037,5.82702002 Z" id="Line-2"></path>
                        </g>
                        <path d="M21,23 C18.8410687,23 17.0909091,21.2498404 17.0909091,19.0909091 C17.0909091,16.9319778 18.8410687,15.1818182 21,15.1818182 C23.1589313,15.1818182 24.9090909,16.9319778 24.9090909,19.0909091 C24.9090909,21.2498404 23.1589313,23 21,23 Z M21,21 C22.0543618,21 22.9090909,20.1452709 22.9090909,19.0909091 C22.9090909,18.0365473 22.0543618,17.1818182 21,17.1818182 C19.9456382,17.1818182 19.0909091,18.0365473 19.0909091,19.0909091 C19.0909091,20.1452709 19.9456382,21 21,21 Z" id="Oval-2"></path>
                        <g id="dots-up" transform="translate(16.000000, 4.818182)">
                            <path d="M2.1563074,3.73005555 L1.29298436,4.23470724 L0.28368099,2.50806115 L1.14700403,2.00340947 C1.23035365,1.95468781 1.33636411,1.90226627 1.48116311,1.83595173 C1.65083085,1.75824788 1.82190401,1.69692101 1.9943257,1.65278458 L2.96308986,1.40480071 L3.4590576,3.34232903 L2.49029344,3.5903129 C2.43630059,3.60413397 2.37753385,3.62520086 2.31393632,3.65432704 C2.22547005,3.69484251 2.16755117,3.72348306 2.1563074,3.73005555 Z" id="Line-6" transform="translate(1.871369, 2.819754) rotate(-2.000000) translate(-1.871369, -2.819754) "></path>
                            <path d="M6.22599828,3.22802215 L5.36267523,3.73267383 L4.35337186,2.00602774 L5.21669491,1.50137606 C5.30004453,1.45265441 5.40605498,1.40023286 5.55085398,1.33391832 C5.67795565,1.27570874 5.7811653,1.23015675 5.86321281,1.19626578 L6.78746713,0.814488433 L7.55102182,2.66299709 L6.62676749,3.04477443 C6.57174753,3.06750127 6.48979081,3.10367319 6.3836272,3.15229363 C6.29516093,3.19280911 6.23724205,3.22144965 6.22599828,3.22802215 Z" id="Line-6" transform="translate(5.952197, 2.273581) rotate(30.000000) translate(-5.952197, -2.273581) "></path>
                            <path d="M10.1271085,4.51658218 L9.26378546,5.02123387 L8.25448209,3.29458778 L9.11780513,2.78993609 C9.20115475,2.74121444 9.30716521,2.6887929 9.45196421,2.62247835 C9.59546079,2.55676029 9.70069629,2.51195858 9.78729942,2.48175023 L10.7315066,2.15239804 L11.390211,4.04081232 L10.4460038,4.37016452 C10.4348045,4.374071 10.3745061,4.39974171 10.2847374,4.44085367 C10.1962712,4.48136914 10.1383523,4.51000968 10.1271085,4.51658218 Z" id="Line-6" transform="translate(9.822347, 3.586816) rotate(57.000000) translate(-9.822347, -3.586816) "></path>
                            <path d="M13.4391202,7.13146144 L12.5757972,7.63611313 L11.5664938,5.90946704 L12.4298169,5.40481536 C12.5131665,5.3560937 12.6191769,5.30367216 12.7639759,5.23735762 C12.9074725,5.17163955 13.012708,5.12683784 13.0993111,5.0966295 L14.0435183,4.7672773 L14.7022227,6.65569159 L13.7580155,6.98504378 C13.7468162,6.98895027 13.6865178,7.01462097 13.5967491,7.05573293 C13.5082829,7.0962484 13.450364,7.12488895 13.4391202,7.13146144 Z" id="Line-6" transform="translate(13.134358, 6.201695) rotate(73.000000) translate(-13.134358, -6.201695) "></path>
                            <path d="M15.4064054,10.7676031 L14.5430823,11.2722548 L13.533779,9.54560873 L14.397102,9.04095705 C14.4804516,8.99223539 14.5864621,8.93981385 14.7312611,8.87349931 C14.8747577,8.80778124 14.9799932,8.76297953 15.0665963,8.73277119 L16.0108034,8.40341899 L16.6695078,10.2918333 L15.7253007,10.6211855 C15.7141014,10.625092 15.653803,10.6507627 15.5640343,10.6918746 C15.475568,10.7323901 15.4176491,10.7610306 15.4064054,10.7676031 Z" id="Line-6" transform="translate(15.101643, 9.837837) rotate(98.000000) translate(-15.101643, -9.837837) "></path>
                        </g>
                        <g id="dots-up" transform="translate(17.000000, 27.363636) rotate(-180.000000) translate(-17.000000, -27.363636) translate(9.000000, 21.363636)">
                            <path d="M1.1563074,3.73005555 L0.292984357,4.23470724 L-0.71631901,2.50806115 L0.147004033,2.00340947 C0.230353655,1.95468781 0.336364109,1.90226627 0.481163108,1.83595173 C0.650830852,1.75824788 0.821904014,1.69692101 0.994325698,1.65278458 L1.96308986,1.40480071 L2.4590576,3.34232903 L1.49029344,3.5903129 C1.43630059,3.60413397 1.37753385,3.62520086 1.31393632,3.65432704 C1.22547005,3.69484251 1.16755117,3.72348306 1.1563074,3.73005555 Z" id="Line-6"></path>
                            <path d="M4.98747289,3.22802215 L4.12414984,3.73267383 L3.11484647,2.00602774 L3.97816952,1.50137606 C4.06151914,1.45265441 4.16752959,1.40023286 4.31232859,1.33391832 C4.43943026,1.27570874 4.54263991,1.23015675 4.62468741,1.19626578 L5.54894174,0.814488433 L6.31249643,2.66299709 L5.3882421,3.04477443 C5.33322214,3.06750127 5.25126542,3.10367319 5.14510181,3.15229363 C5.05663554,3.19280911 4.99871666,3.22144965 4.98747289,3.22802215 Z" id="Line-6" transform="translate(4.713671, 2.273581) rotate(33.000000) translate(-4.713671, -2.273581) "></path>
                            <path d="M9.1271085,4.51658218 L8.26378546,5.02123387 L7.25448209,3.29458778 L8.11780513,2.78993609 C8.20115475,2.74121444 8.30716521,2.6887929 8.45196421,2.62247835 C8.59546079,2.55676029 8.70069629,2.51195858 8.78729942,2.48175023 L9.73150657,2.15239804 L10.390211,4.04081232 L9.44600382,4.37016452 C9.43480448,4.374071 9.37450611,4.39974171 9.28473742,4.44085367 C9.19627115,4.48136914 9.13835227,4.51000968 9.1271085,4.51658218 Z" id="Line-6" transform="translate(8.822347, 3.586816) rotate(58.000000) translate(-8.822347, -3.586816) "></path>
                            <path d="M12.4391202,7.13146144 L11.5757972,7.63611313 L10.5664938,5.90946704 L11.4298169,5.40481536 C11.5131665,5.3560937 11.6191769,5.30367216 11.7639759,5.23735762 C11.9074725,5.17163955 12.012708,5.12683784 12.0993111,5.0966295 L13.0435183,4.7672773 L13.7022227,6.65569159 L12.7580155,6.98504378 C12.7468162,6.98895027 12.6865178,7.01462097 12.5967491,7.05573293 C12.5082829,7.0962484 12.450364,7.12488895 12.4391202,7.13146144 Z" id="Line-6" transform="translate(12.134358, 6.201695) rotate(82.000000) translate(-12.134358, -6.201695) "></path>
                            <path d="M14.4064054,10.7676031 L13.5430823,11.2722548 L12.533779,9.54560873 L13.397102,9.04095705 C13.4804516,8.99223539 13.5864621,8.93981385 13.7312611,8.87349931 C13.8747577,8.80778124 13.9799932,8.76297953 14.0665963,8.73277119 L15.0108034,8.40341899 L15.6695078,10.2918333 L14.7253007,10.6211855 C14.7141014,10.625092 14.653803,10.6507627 14.5640343,10.6918746 C14.475568,10.7323901 14.4176491,10.7610306 14.4064054,10.7676031 Z" id="Line-6" transform="translate(14.101643, 9.837837) rotate(94.000000) translate(-14.101643, -9.837837) "></path>
                        </g>
                    </g>
                </g>
            </g>
        </g>
    </g>
</svg>
