<?xml version="1.0" encoding="UTF-8"?>
<svg width="41px" height="34px" viewBox="0 0 41 34" version="1.1" xmlns="http://www.w3.org/2000/svg" xmlns:xlink="http://www.w3.org/1999/xlink">
    <!-- Generator: Sketch 48.2 (47327) - http://www.bohemiancoding.com/sketch -->
    <title>browser</title>
    <desc>Created with Sketch.</desc>
    <defs></defs>
    <g id="step_2" stroke="none" stroke-width="1" fill="none" fill-rule="evenodd" transform="translate(-740.000000, -377.000000)">
        <g id="white-bg" transform="translate(330.000000, 102.000000)" fill="#5A81EA">
            <g id="right" transform="translate(405.000000, 271.000000)">
                <g id="LINE-2" transform="translate(5.000000, 0.000000)">
                    <g id="browser" transform="translate(0.000000, 4.000000)">
                        <polygon id="Shape" fill-rule="nonzero" points="11.8518519 18.1388889 11.2928022 17.1944444 10.2026555 17.8055556 10.2026555 16.5555556 9.08455625 16.5555556 9.08455625 17.8055556 7.96645702 17.1944444 7.40740741 18.1388889 8.49755416 18.7777778 7.40740741 19.4166667 7.96645702 20.3611111 9.08455625 19.75 9.08455625 21 10.2026555 21 10.2026555 19.75 11.2928022 20.3611111 11.8518519 19.4166667 10.7337526 18.7777778"></polygon>
                        <polygon id="Shape" fill-rule="nonzero" points="22.2222222 18.1388889 21.6631726 17.1944444 20.5730259 17.8055556 20.5730259 16.5555556 19.4549266 16.5555556 19.4549266 17.8055556 18.3368274 17.1944444 17.7777778 18.1388889 18.8679245 18.7777778 17.7777778 19.4166667 18.3368274 20.3611111 19.4549266 19.75 19.4549266 21 20.5730259 21 20.5730259 19.75 21.6631726 20.3611111 22.2222222 19.4166667 21.104123 18.7777778"></polygon>
                        <polygon id="Shape" fill-rule="nonzero" points="32.5925926 18.1388889 32.033543 17.1944444 30.9433962 17.8055556 30.9433962 16.5555556 29.825297 16.5555556 29.825297 17.8055556 28.7071978 17.1944444 28.1481481 18.1388889 29.2382949 18.7777778 28.1481481 19.4166667 28.7071978 20.3611111 29.825297 19.75 29.825297 21 30.9433962 21 30.9433962 19.75 32.033543 20.3611111 32.5925926 19.4166667 31.4744934 18.7777778"></polygon>
                        <rect id="Rectangle" x="0" y="0" width="40" height="2"></rect>
                        <rect id="Rectangle" x="0" y="5.92592593" width="36.2962963" height="2"></rect>
                        <rect id="Rectangle-2" x="35.5555556" y="3" width="1.48148148" height="1.48148148"></rect>
                        <rect id="Rectangle-2" x="32.5925926" y="3" width="1.48148148" height="1.48148148"></rect>
                        <rect id="Rectangle" x="0" y="31.1111111" width="40" height="2"></rect>
                        <polygon id="Rectangle" transform="translate(39.259259, 16.555556) rotate(90.000000) translate(-39.259259, -16.555556) " points="22.962963 15.5555556 55.5555556 15.5555556 55.5555556 17.5555556 22.962963 17.5555556"></polygon>
                        <polygon id="Rectangle" transform="translate(1.000000, 16.555556) rotate(90.000000) translate(-1.000000, -16.555556) " points="-15.2962963 15.5555556 17.2962963 15.5555556 17.2962963 17.5555556 -15.2962963 17.5555556"></polygon>
                    </g>
                </g>
            </g>
        </g>
    </g>
</svg>
