<?xml version="1.0" encoding="UTF-8"?>
<svg width="43px" height="44px" viewBox="0 0 43 44" version="1.1" xmlns="http://www.w3.org/2000/svg" xmlns:xlink="http://www.w3.org/1999/xlink">
    <!-- Generator: Sketch 48.2 (47327) - http://www.bohemiancoding.com/sketch -->
    <title>Line 3</title>
    <desc>Created with Sketch.</desc>
    <defs></defs>
    <g id="step_3" stroke="none" stroke-width="1" fill="none" fill-rule="evenodd" transform="translate(-738.000000, -332.000000)">
        <g id="white-bg" transform="translate(330.000000, 102.000000)" fill="#5A81EA" fill-rule="nonzero">
            <g id="right" transform="translate(405.000000, 230.000000)">
                <g id="LINE-2">
                    <g id="plugin" transform="translate(3.000000, 0.000000)">
                        <path d="M3.36654996,21.167315 L11.3591966,30.4735064 L9.63868097,30.7830727 C7.91487604,31.0932308 6.79887836,31.3800812 6.38188673,31.5964681 C6.09219484,31.7467961 5.61669553,32.1372308 5.22697187,32.614911 C4.69250177,33.2700054 4.35691164,34.0188621 4.29075217,34.8423046 C4.11448042,37.0362406 4.59445474,38.2257222 6.12078538,39.1126328 C7.6824144,40.0200543 9.57363528,39.8493536 11.03377,38.790973 C11.9076806,38.1575178 12.6716553,36.7825702 13.2603595,34.6487546 L13.6762286,33.1413964 L22.5385456,40.6370995 L24.7113923,38.4254453 L27.7576753,35.2256359 C26.680732,34.7128295 25.9955819,34.381642 25.6948916,34.2284311 C23.9708208,33.3499644 23.0628879,31.6393821 22.7340101,29.9949929 C22.3797203,28.2235437 22.7477419,26.7330648 24.1605326,24.9909382 C25.6058985,23.2086428 26.6948144,22.8368135 29.4343856,22.8368135 C30.4358014,22.8368135 31.7534435,23.4043986 32.5999945,24.2669385 C33.1616985,24.8392514 33.9020189,25.9504049 34.8581631,27.6382112 L40.2376721,22.6427314 L32.8266477,13.8107448 L34.3443332,13.4052345 C36.0022382,12.962259 37.1173583,12.538002 37.6430422,12.1753545 C39.0184981,11.2264846 40.0902699,9.04625189 39.304213,7.27942867 C38.3052489,5.03405312 35.4773116,3.7205876 33.8114096,4.45973332 C32.7616649,4.92549559 31.7586671,6.66624078 30.9602541,9.7220597 L30.5534226,11.2791525 L21.4613548,3.39445053 L16.6220356,8.70041787 C17.8679474,9.58053808 18.86421,10.5454622 19.6064314,11.5983974 C21.0608805,13.6617182 21.1268564,16.9883293 19.086817,18.8202195 C17.0999233,20.6043865 14.7237554,21.2485713 12.4518212,20.6422421 C10.8491499,20.2145244 9.39964359,18.837148 8.04206529,16.5528625 L3.36654996,21.167315 Z M0.633450036,21.0547022 L8.54392934,13.2475348 L9.16734712,14.4558331 C10.4781754,16.9964592 11.776914,18.3921253 12.9675277,18.7098739 C14.5643189,19.1360223 16.2508813,18.6787912 17.7505589,17.3321286 C18.9393598,16.2646235 18.8956636,14.0613955 17.9717448,12.7506993 C17.2081611,11.6674589 16.0780088,10.6641856 14.5725691,9.74724625 L13.5361257,9.11596504 L21.2980691,0.605549474 L29.4707688,7.69296929 C30.3569883,4.99206826 31.5011806,3.2967376 33.000283,2.63159939 C35.7343086,1.41853685 39.7065255,3.26347519 41.1315281,6.46645901 C42.3839543,9.28154224 40.8568562,12.388014 38.778735,13.8216236 C38.2387448,14.1941404 37.4353248,14.5487412 36.3519805,14.9005907 L42.9922938,22.8140929 L34.3386226,30.850001 L33.7236714,29.717519 C32.5482602,27.5529049 31.6760771,26.1808334 31.1726132,25.6678605 C30.6975358,25.1838102 29.8919869,24.8368135 29.4343856,24.8368135 C27.2399666,24.8368135 26.7152027,25.0160033 25.7139326,26.2506797 C24.6761728,27.5303518 24.4576733,28.4152697 24.6951715,29.6027606 C24.7700995,29.9774008 24.9375531,30.4810495 25.1926754,30.9617102 C25.5495003,31.6339829 26.0181651,32.1484918 26.6028798,32.4464217 C26.9820776,32.6396346 28.0745301,33.1640932 29.8624556,34.0109654 L31.1120062,34.60283 L30.1586541,35.6042292 L26.1490196,39.8157623 L22.6643176,43.3629188 L14.7214577,36.6448879 C14.0754065,38.3978507 13.2483377,39.65589 12.2075473,40.4103083 C10.1303435,41.9159722 7.3900609,42.1633088 5.11596022,40.8418888 C2.84802667,39.5240523 2.06421832,37.5816034 2.2971764,34.6821308 C2.47744147,32.4384927 3.99019639,30.5843249 5.46068544,29.8212531 C5.89909248,29.5937533 6.59931984,29.3756034 7.58849998,29.1527741 L0.633450036,21.0547022 Z" id="Line-3"></path>
                    </g>
                </g>
            </g>
        </g>
    </g>
</svg>
