<?xml version="1.0" encoding="UTF-8"?>
<svg width="37px" height="37px" viewBox="0 0 37 37" version="1.1" xmlns="http://www.w3.org/2000/svg" xmlns:xlink="http://www.w3.org/1999/xlink">
    <!-- Generator: Sketch 48.2 (47327) - http://www.bohemiancoding.com/sketch -->
    <title>url</title>
    <desc>Created with Sketch.</desc>
    <defs></defs>
    <g id="step_3" stroke="none" stroke-width="1" fill="none" fill-rule="evenodd" transform="translate(-392.000000, -335.000000)">
        <g id="white-bg" transform="translate(330.000000, 102.000000)" fill="#5A81EA">
            <g id="left" transform="translate(55.000000, 231.000000)">
                <g id="Line-1" transform="translate(4.000000, 0.000000)">
                    <g id="url" transform="translate(0.076172, 0.000000)">
                        <path d="M10.4874841,20.8380982 C8.83062985,20.8380982 7.4874841,22.1812439 7.4874841,23.8380982 L7.4874841,33.2228191 C7.4874841,34.8796734 8.83062985,36.2228191 10.4874841,36.2228191 L16.4882939,36.2228191 C18.1451481,36.2228191 19.4882939,34.8796734 19.4882939,33.2228191 L19.4882939,23.8380982 C19.4882939,22.1812439 18.1451481,20.8380982 16.4882939,20.8380982 L10.4874841,20.8380982 Z M11.193744,18.8380982 L11.193744,20.8380982 L15.3678683,20.8380982 L15.3678683,18.8380982 L16.4882939,18.8380982 C19.2497176,18.8380982 21.4882939,21.0766744 21.4882939,23.8380982 L21.4882939,33.2228191 C21.4882939,35.9842429 19.2497176,38.2228191 16.4882939,38.2228191 L10.4874841,38.2228191 C7.72606035,38.2228191 5.4874841,35.9842429 5.4874841,33.2228191 L5.4874841,23.8380982 C5.4874841,21.0766744 7.72606035,18.8380982 10.4874841,18.8380982 L11.193744,18.8380982 Z" id="Rectangle-3" fill-rule="nonzero" transform="translate(13.487889, 28.530459) rotate(-315.000000) translate(-13.487889, -28.530459) "></path>
                        <path d="M25.999747,4.96030679 C24.3429766,4.96030679 22.9998988,6.27679565 22.9998988,7.90076696 L22.9998988,17.099233 C22.9998988,18.7232044 24.3429766,20.0396932 25.999747,20.0396932 C26.2482663,20.0396932 26.4346558,20.0396932 26.5589155,20.0396932 C26.690726,20.0396932 30.8384968,20.0396932 31.0770232,20.0396932 C31.275207,20.0396932 31.5829503,20.0396932 32.000253,20.0396932 C33.6570234,20.0396932 35.0001012,18.7232044 35.0001012,17.099233 L35.0001012,7.90076696 C35.0001012,6.27679565 33.6570234,4.96030679 32.000253,4.96030679 L25.999747,4.96030679 Z M31.2465064,22 L31.2465064,20.0384827 L27.0723821,20.0384827 L27.0723821,22 L26.5274978,22 C26.4102198,22 26.2343029,22 25.999747,22 C23.238463,22 21,19.8058519 21,17.099233 L21,7.90076696 C21,5.19414811 23.238463,3 25.999747,3 L32.000253,3 C34.761537,3 37,5.19414811 37,7.90076696 L37,17.099233 C37,19.8058519 34.761537,22 32.000253,22 L31.2465064,22 Z" id="Rectangle-3" fill-rule="nonzero" transform="translate(29.000000, 12.500000) rotate(-315.000000) translate(-29.000000, -12.500000) "></path>
                        <rect id="Rectangle-7" transform="translate(21.201260, 20.435890) rotate(-44.000000) translate(-21.201260, -20.435890) " x="15.6357611" y="19.4108901" width="11.1309981" height="2.05" rx="1.025"></rect>
                    </g>
                </g>
            </g>
        </g>
    </g>
</svg>
