<?xml version="1.0" encoding="UTF-8"?>
<svg width="42px" height="28px" viewBox="0 0 42 28" version="1.1" xmlns="http://www.w3.org/2000/svg" xmlns:xlink="http://www.w3.org/1999/xlink">
    <!-- Generator: Sketch 48.2 (47327) - http://www.bohemiancoding.com/sketch -->
    <title>wifi</title>
    <desc>Created with Sketch.</desc>
    <defs></defs>
    <g id="step_3" stroke="none" stroke-width="1" fill="none" fill-rule="evenodd" transform="translate(-739.000000, -500.000000)">
        <g id="white-bg" transform="translate(330.000000, 102.000000)" fill="#5A81EA">
            <g id="right" transform="translate(405.000000, 230.000000)">
                <g id="LINE-6" transform="translate(0.000000, 161.000000)">
                    <g id="wifi" transform="translate(4.000000, 7.000000)">
                        <path d="M0.582885742,8.8571167 C7.50044759,2.95237223 14.3164876,2.91454667e-13 21.0310059,3.41060513e-13 C27.7455241,3.90206386e-13 34.5391235,2.96096802 41.4118042,8.88290405 L40.1162872,10.4055176 C33.6848682,4.73905331 27.3127724,1.93849586 21,2.00384521 C14.6872276,2.06919457 8.3044761,4.86975202 1.85174561,10.4055176 L0.582885742,8.8571167 Z" id="Rectangle-9"></path>
                        <path d="M6.83111572,15.0411987 C10.7702026,10.3503011 15.4931641,8.00485229 21,8.00485229 C26.5068359,8.00485229 31.2388713,10.3503011 35.196106,15.0411987 L33.711853,16.3936768 C30.1102068,12.0585964 25.8729224,9.9286526 21,10.0038452 C16.1270776,10.0790378 11.9097517,12.2089817 8.34802246,16.3936768 L6.83111572,15.0411987 Z" id="Rectangle-9"></path>
                        <path d="M12.6618042,21.0950317 C14.6603394,18.3566691 17.439738,16.9874878 21,16.9874878 C24.560262,16.9874878 27.3499451,18.2110596 29.3690491,20.6582031 L27.9372864,22.0423889 C26.2350538,19.9788293 23.922625,18.9621768 21,18.9924316 C18.077375,19.0226864 15.8033271,20.1562314 14.1778564,22.3930664 L12.6618042,21.0950317 Z" id="Rectangle-9"></path>
                        <circle id="Oval-3" cx="21" cy="26" r="2"></circle>
                    </g>
                </g>
            </g>
        </g>
    </g>
</svg>
