<svg xmlns="http://www.w3.org/2000/svg" width="20" height="14" viewBox="0 0 20 14">
  <g fill="#9BA6B2">
    <path d="M2,1 C1.44771525,1 1,1.44771525 1,2 L1,12 C1,12.5522847 1.44771525,13 2,13 L18,13 C18.5522847,13 19,12.5522847 19,12 L19,2 C19,1.44771525 18.5522847,1 18,1 L2,1 Z M2,0 L18,0 C19.1045695,-2.02906125e-16 20,0.8954305 20,2 L20,12 C20,13.1045695 19.1045695,14 18,14 L2,14 C0.8954305,14 1.3527075e-16,13.1045695 0,12 L0,2 C-1.3527075e-16,0.8954305 0.8954305,2.02906125e-16 2,0 Z"/>
    <path d="M1,5 L19,5 L19,4 L1,4 L1,5 Z M0,3 L20,3 L20,6 L0,6 L0,3 Z"/>
    <polygon points="3 9 8 9 8 8 3 8"/>
    <path d="M13.5,11.5 C12.3954305,11.5 11.5,10.6045695 11.5,9.5 C11.5,8.3954305 12.3954305,7.5 13.5,7.5 C14.6045695,7.5 15.5,8.3954305 15.5,9.5 C15.5,10.6045695 14.6045695,11.5 13.5,11.5 Z M13.5,10.5 C14.0522847,10.5 14.5,10.0522847 14.5,9.5 C14.5,8.94771525 14.0522847,8.5 13.5,8.5 C12.9477153,8.5 12.5,8.94771525 12.5,9.5 C12.5,10.0522847 12.9477153,10.5 13.5,10.5 Z"/>
    <path d="M15.5,11.5 C14.3954305,11.5 13.5,10.6045695 13.5,9.5 C13.5,8.3954305 14.3954305,7.5 15.5,7.5 C16.6045695,7.5 17.5,8.3954305 17.5,9.5 C17.5,10.6045695 16.6045695,11.5 15.5,11.5 Z M15.5,10.5 C16.0522847,10.5 16.5,10.0522847 16.5,9.5 C16.5,8.94771525 16.0522847,8.5 15.5,8.5 C14.9477153,8.5 14.5,8.94771525 14.5,9.5 C14.5,10.0522847 14.9477153,10.5 15.5,10.5 Z"/>
  </g>
</svg>
