<svg xmlns="http://www.w3.org/2000/svg" width="24" height="26" viewBox="0 0 24 26">
  <g fill="#4E5C6E" transform="translate(1 1)">
    <path d="M17.5727716,5.09434349 C20.0386101,7.0761624 21.5,10.0590496 21.5,13.2846154 C21.5,19.0833097 16.7989441,23.7846154 11,23.7846154 C5.20050795,23.7846154 0.5,19.0836079 0.5,13.2846154 C0.5,10.0592846 1.96106977,7.07660047 4.42630232,5.09609998 C4.64157866,4.92315285 4.67589327,4.60843555 4.50294614,4.39315921 C4.32999901,4.17788288 4.01528171,4.14356827 3.80000537,4.3165154 C1.10089991,6.48490299 -0.5,9.75304171 -0.5,13.2846154 C-0.5,19.6358688 4.64819941,24.7846154 11,24.7846154 C17.3512407,24.7846154 22.5,19.6355825 22.5,13.2846154 C22.5,9.75281704 20.8988006,6.48456034 18.1992284,4.31488728 C17.9839875,4.14189603 17.6692631,4.17614614 17.4962719,4.39138703 C17.3232806,4.60662792 17.3575308,4.92135225 17.5727716,5.09434349 Z"/>
    <path d="M10.5,0 L10.5,11.2923077 C10.5,11.5684501 10.7238576,11.7923077 11,11.7923077 C11.2761424,11.7923077 11.5,11.5684501 11.5,11.2923077 L11.5,0 C11.5,-0.276142375 11.2761424,-0.5 11,-0.5 C10.7238576,-0.5 10.5,-0.276142375 10.5,0 Z"/>
  </g>
</svg>
