<svg xmlns="http://www.w3.org/2000/svg" width="25" height="24" viewBox="0 0 25 24">
  <g fill="#FFF">
    <g transform="translate(0 6)">
      <circle cx="19.584" cy="9.041" r="1"/>
      <path d="M17.084,9.041 C17.084,10.419 18.205,11.541 19.584,11.541 L24.084,11.541 L24.084,6.541 L19.584,6.541 C18.205,6.541 17.084,7.662 17.084,9.041 Z M21.084,9.041 C21.084,9.868 20.411,10.541 19.584,10.541 C18.757,10.541 18.084,9.868 18.084,9.041 C18.084,8.214 18.757,7.541 19.584,7.541 C20.411,7.541 21.084,8.214 21.084,9.041 Z"/>
      <path d="M19.584,12.541 C17.654,12.541 16.084,10.971 16.084,9.041 C16.084,7.111 17.654,5.541 19.584,5.541 L24.084,5.541 L24.084,4.041 C24.084,2.111 22.514,0.541 20.584,0.541 L3.584,0.541 C1.654,0.541 0.084,2.111 0.084,4.041 L0.084,14.041 C0.084,15.971 1.654,17.541 3.584,17.541 L20.584,17.541 C22.514,17.541 24.084,15.971 24.084,14.041 L24.084,12.541 L19.584,12.541 Z"/>
    </g>
    <path d="M23 7C22.4077556 5.56310345 21.3254994 4.45413793 20 4L20.802879 5.88482759C21.6410106 5.98413793 22.3971798 6.38344828 23 7zM3.119 5.588L6.921 3.541 5.584 3.541C3.399 3.541 1.512 4.826.626 6.677 1.308 6.076 2.167 5.687 3.119 5.588zM12.285 5.541L18.173 2.199C17.734 1.545 17.105 1.053 16.341.811 15.431.524 14.467.615 13.625 1.066L5.315 5.541 12.285 5.541z"/>
    <polygon points="20 5 18.674 3 14 5"/>
  </g>
</svg>
