<svg xmlns="http://www.w3.org/2000/svg" width="114" height="114" viewBox="0 0 819365 819365" shape-rendering="geometricPrecision" text-rendering="geometricPrecision" image-rendering="optimizeQuality" fill-rule="evenodd" clip-rule="evenodd"><defs><style><![CDATA[
    .fil0 {fill:#AFAFAF}
   ]]></style></defs><path class="fil0" d="M29843 337337L337337 29843c39787-39790 104904-39790 144691 0l307494 307494c39790 39787 39790 104904 0 144691L482028 789522c-39787 39790-104904 39790-144691 0L29843 482028c-39790-39787-39790-104904 0-144691zm462907-85669h43636v-88314h-94637c-57495 0-104067 46572-104067 104064v52841h-74629v88314h74629v272008h116083V408573h82621v-88314h-82621v-29669c0-21502 17422-38922 38985-38922z" id="Layer_x0020_1"/></svg>