<?xml version="1.0" encoding="UTF-8"?>
<!DOCTYPE svg PUBLIC "-//W3C//DTD SVG 1.1//EN" "http://www.w3.org/Graphics/SVG/1.1/DTD/svg11.dtd">
<!-- Creator: CorelDRAW X7 -->
<svg xmlns="http://www.w3.org/2000/svg" xml:space="preserve" width="1.25469in" height="0.848819in" version="1.1" style="shape-rendering:geometricPrecision; text-rendering:geometricPrecision; image-rendering:optimizeQuality; fill-rule:evenodd; clip-rule:evenodd"
viewBox="0 0 125469 84882"
 xmlns:xlink="http://www.w3.org/1999/xlink">
 <defs>
  <style type="text/css">
   <![CDATA[
    .fil0 {fill:white}
   ]]>
  </style>
 </defs>
 <g id="Layer_x0020_1">
  <metadata id="CorelCorpID_0Corel-Layer"/>
  <g id="_1007150704">
   <path class="fil0" d="M86584 19948l-17660 -17660c-3050,-3051 -8041,-3051 -11092,0l-17623 17623c-1019,1019 -1019,2680 -1,3697l5347 5347 3558 3292c1056,977 2670,977 3725,0l7118 -6585c1955,-1809 4961,-1809 6917,1l7118 6584c1055,977 2669,977 3724,0l3559 -3292 5310 -5310c1018,-1018 1018,-2679 0,-3697z"/>
   <path class="fil0" d="M30157 41055l27674 27673c3050,3051 8041,3051 11092,0l27675 -27675c4797,-4797 1417,-6219 -2102,-9552l-4342 -4113c-1043,-989 -2669,-976 -3725,-1l-7117 6586c-1956,1810 -4962,1810 -6918,0l-7117 -6585c-1056,-976 -2670,-976 -3725,0l-7117 6585c-1956,1810 -4962,1810 -6918,0l-7118 -6586c-1055,-975 -2669,-975 -3724,1l-3987 3688c-3678,3404 -7543,4967 -2531,9979z"/>
   <path class="fil0" d="M51368 82314c677,0 1226,550 1226,1226 0,678 -549,1226 -1226,1226 -677,0 -1226,-548 -1226,-1226 0,-676 549,-1226 1226,-1226zm30015 -8176l10644 0c2213,0 4176,-705 5828,-2091l-5828 0 -3325 0 -7319 0 -239 0 -1417 0c-2076,0 -3932,622 -5518,1843 -2890,2228 -5803,5353 -8492,7901 -1044,989 -2670,976 -3725,0l-7118 -6585c-1956,-1810 -4962,-1810 -6917,0l-7118 6585c-1055,976 -2670,976 -3725,0l-7117 -6585c-1956,-1810 -4962,-1810 -6918,0l-7117 6585c-1056,976 -2670,976 -3725,0l-10527 -9740 -1710 1620 0 0 10641 9845c1955,1810 4961,1810 6917,0l7118 -6585c1055,-976 2669,-976 3724,0l7118 6585c1956,1810 4962,1810 6917,0l7118 -6585c1055,-976 2670,-976 3725,0l7117 6585c1956,1810 4984,1832 6918,0 2589,-2452 4997,-4904 7444,-7331 126,-125 255,-245 385,-358 1298,-1129 2820,-1689 4585,-1689l1417 0 239 0zm5169 3061c677,0 1226,549 1226,1226 0,677 -549,1226 -1226,1226 -677,0 -1226,-549 -1226,-1226 0,-677 549,-1226 1226,-1226zm-6825 7495l3326 0 17518 0 0 -2091 -20844 0c-2212,0 -4175,706 -5827,2091l5827 0zm20844 -2091l20977 0c1007,0 1830,-824 1830,-1831l0 -45c0,-1006 -824,-1830 -1830,-1830l-17772 0c-1728,0 -3137,-1408 -3137,-3137l0 -449c0,-1729 1408,-3137 3137,-3137l13622 0 0 2091 -13622 0c-574,0 -1046,472 -1046,1046l0 449c0,574 472,1046 1046,1046l17772 0c2161,0 3921,1761 3921,3921l0 45c0,2161 -1761,3922 -3921,3922l-20977 0 0 -2091z"/>
  </g>
 </g>
</svg>
