<?xml version="1.0" encoding="UTF-8"?>
<!DOCTYPE svg PUBLIC "-//W3C//DTD SVG 1.1//EN" "http://www.w3.org/Graphics/SVG/1.1/DTD/svg11.dtd">
<!-- Creator: CorelDRAW X7 -->
<svg xmlns="http://www.w3.org/2000/svg" xml:space="preserve" width="0.907886in" height="0.908677in" version="1.1" style="shape-rendering:geometricPrecision; text-rendering:geometricPrecision; image-rendering:optimizeQuality; fill-rule:evenodd; clip-rule:evenodd"
viewBox="0 0 90789 90868"
 xmlns:xlink="http://www.w3.org/1999/xlink">
 <defs>
  <style type="text/css">
   <![CDATA[
    .fil0 {fill:white}
   ]]>
  </style>
 </defs>
 <g id="Layer_x0020_1">
  <metadata id="CorelCorpID_0Corel-Layer"/>
  <path class="fil0" d="M3052 52654l35274 35295c3892,3892 10263,3892 14134,0l35295 -35295c6125,-6105 1803,-7928 -2683,-12168l-5531 -5244c-1331,-1270 -3400,-1250 -4752,0l-9075 8399c-2499,2294 -6329,2294 -8808,0l-9075 -8399c-1352,-1250 -3421,-1250 -4752,0l-9075 8399c-2500,2294 -6330,2294 -8829,0l-9075 -8399c-1331,-1250 -3400,-1250 -4752,0l-5081 4691c-4691,4343 -9607,6350 -3216,12721l1 0z"/>
 </g>
 <g id="Layer_x0020_1_0">
  <metadata id="CorelCorpID_1Corel-Layer"/>
  <path id="logo_top.svg" class="fil0" d="M74961 25425l-22524 -22524c-3898,-3868 -10271,-3868 -14139,0l-22493 22493c-1269,1268 -1269,3403 0,4703l6837 6806 4517 4208c1362,1238 3403,1238 4765,0l9065 -8384c2506,-2321 6343,-2321 8818,0l9096 8384c1330,1238 3403,1238 4734,0l4548 -4208 6776 -6775c1299,-1300 1299,-3403 0,-4703l0 0z"/>
 </g>
</svg>
