<?xml version="1.0" encoding="UTF-8"?>
<!DOCTYPE svg PUBLIC "-//W3C//DTD SVG 1.1//EN" "http://www.w3.org/Graphics/SVG/1.1/DTD/svg11.dtd">
<!-- Creator: CorelDRAW X7 -->
<svg xmlns="http://www.w3.org/2000/svg" xml:space="preserve" width="0.907874in" height="0.565642in" version="1.1" style="shape-rendering:geometricPrecision; text-rendering:geometricPrecision; image-rendering:optimizeQuality; fill-rule:evenodd; clip-rule:evenodd"
viewBox="0 0 4432 2761"
 xmlns:xlink="http://www.w3.org/1999/xlink">
 <defs>
  <style type="text/css">
   <![CDATA[
    .fil0 {fill:white}
   ]]>
  </style>
 </defs>
 <g id="Layer_x0020_1">
  <metadata id="CorelCorpID_0Corel-Layer"/>
  <path class="fil0" d="M149 896l1722 1723c190,190 501,190 690,0l1723 -1723c299,-298 88,-387 -131,-594l-270 -256c-65,-62 -166,-61 -232,0l-443 410c-122,112 -309,112 -430,0l-443 -410c-66,-61 -167,-61 -232,0l-443 410c-122,112 -309,112 -431,0l-443 -410c-65,-61 -166,-61 -232,0l-248 229c-229,212 -469,310 -157,621z"/>
 </g>
</svg>
