<svg xmlns="http://www.w3.org/2000/svg" width="256.667" height="32.17" viewBox="0 0 270077 33851" shape-rendering="geometricPrecision" text-rendering="geometricPrecision" image-rendering="optimizeQuality" fill-rule="evenodd" clip-rule="evenodd"><defs><style><![CDATA[
    .str0 {stroke:white;stroke-width:701.146}
    .fil0 {fill:#37556E}
    .fil1 {fill:white}
    .fil2 {fill:white;fill-rule:nonzero}
   ]]></style></defs><g id="Layer_x0020_1"><path class="fil0 str0" d="M227901 33501c-19332-1206-51849-4938-117457-9219-38414-2506-86415 2349-110093 4819C81994 6790 162395 2141 227901 33501z"/><path class="fil0 str0" d="M351 29101V4391c0-2225 1815-4040 4040-4040h169386c9351 8707 15646 15710 20020 21641C135421 4051 69829 10115 351 29101z"/><path class="fil0 str0" d="M173777 351h95949v29324c-9236 1913-24185 2991-34511 3520-13988 716-27077-7223-41418-11203-4374-5931-10669-12933-20020-21641z"/><path class="fil1" d="M237421 17812h20520c1060 0 1924-864 1924-1924v-22c0-1060-864-1924-1924-1924h-8720c-282 0-513-232-513-513v-221c0-282 231-513 513-513h6684v-1026h-6684c-848 0-1539 691-1539 1539v221c0 848 691 1539 1539 1539h8720c494 0 898 404 898 898v22c0 494-404 898-898 898h-20520c-1086 0-2049 347-2860 1026h2860z"/><path class="fil1" d="M240769 14135c332 0 601 269 601 601s-269 602-601 602-601-270-601-602 269-601 601-601zM238233 12633h5223c1086 0 2049-346 2859-1026h-8894c-1020 0-1930 305-2708 904-1418 1093-2848 2627-4168 3877-512 485-1309 479-1827 0l-3493-3231c-959-888-2434-888-3394 0l-3492 3231c-518 479-1310 479-1828 0l-3493-3231c-959-888-2434-888-3394 0l-3492 3231c-518 479-1311 479-1828 0l-5165-4780-839 796 5221 4831c960 887 2434 887 3394 0l3493-3232c517-479 1310-479 1827 0l3493 3232c959 887 2434 887 3394 0l3493-3232c517-479 1310-479 1827 0l3493 3232c959 887 2445 899 3394 0 1270-1204 2452-2407 3652-3598 62-61 126-120 190-176 637-553 1383-828 2250-828h812z"/><path class="fil1" d="M223505 16645c332 0 602 269 602 601s-270 602-602 602-601-270-601-602 269-601 601-601z"/><path class="fil2" d="M219080 22349v-2768h344v2450h1808v318h-2152zm4283 0v-2783h350v2783h-350zm3374 0v-2450h-1166v-318h2677v318h-1166v2450h-345zm3369 0v-2768h2178v318h-1834v812h1110v318h-1110v1002h1947v318h-2291zm8432-883l278 205c-127 241-301 426-523 556-219 129-470 194-752 194-414 0-756-137-1027-410-269-273-405-619-405-1040s136-769 406-1042c271-273 613-410 1025-410 256 0 490 56 701 168 210 112 381 272 513 480l-288 205c-87-165-213-295-376-389-164-93-347-140-549-140-311 0-568 107-772 320s-305 483-305 808c0 326 101 596 305 808s461 318 772 318c218 0 410-53 579-160s308-264 418-471zm2604 883v-2768h344v2450h1808v318h-2152zm4283 0v-2783h350v2783h-350zm2892 0v-2768h2178v318h-1834v812h1109v318h-1109v1002h1946v318h-2290zm4513 0v-2768h181l1797 2069v-2069h344v2768h-176l-1802-2069v2069h-344zm5341 0v-2450h-1166v-318h2676v318h-1166v2450h-344z"/></g></svg>