<svg xmlns="http://www.w3.org/2000/svg" width="256.667" height="32.34" viewBox="0 0 718859 90576" shape-rendering="geometricPrecision" text-rendering="geometricPrecision" image-rendering="optimizeQuality" fill-rule="evenodd" clip-rule="evenodd"><defs><style><![CDATA[
    .str0 {stroke:white;stroke-width:1866.23}
    .fil1 {fill:#CC8686}
    .fil0 {fill:#FF0009}
    .fil2 {fill:#FF7378}
    .fil3 {fill:white}
    .fil4 {fill:white;fill-rule:nonzero}
   ]]></style></defs><g id="Layer_x0020_1"><path class="fil0 str0" d="M462539 935h255386v78050c-40508 8390-122295 10652-122295 10652-25980-12437-52599-22741-79805-31102-11642-15785-28398-34423-53286-57600z"/><path class="fil1 str0" d="M595630 89636c-51455-3211-127035-13609-301664-25004C191719 57960 63957 70883 934 77457 218242 18074 421274 6165 595630 89636z"/><path class="fil2 str0" d="M934 77457V15273C934 7375 7375 934 15273 934h447266c24888 23177 41644 41815 53286 57601C360448 10783 185862 26922 934 77457z"/><g id="_1008110800"><path class="fil3" d="M631938 47410h54619c2822 0 5121-2299 5121-5121v-58c0-2822-2299-5122-5121-5122h-23211c-750 0-1365-616-1365-1366v-586c0-751 615-1367 1365-1367h17791v-2731h-17791c-2257 0-4097 1839-4097 4098v586c0 2258 1840 4097 4097 4097h23211c1315 0 2391 1075 2391 2391v58c0 1314-1076 2390-2391 2390h-54619c-2889 0-5454 922-7611 2731h7611z"/><path class="fil3" d="M640851 37622c884 0 1600 717 1600 1601 0 883-716 1601-1600 1601s-1601-718-1601-1601c0-884 717-1601 1601-1601zM634099 33625h13903c2890 0 5454-922 7610-2731h-23674c-2713 0-5136 812-7207 2406-3775 2910-7579 6993-11093 10320-1363 1290-3485 1274-4864 0l-9297-8601c-2553-2364-6479-2364-9034 0l-9295 8601c-1378 1274-3487 1274-4865 0l-9296-8601c-2554-2364-6480-2364-9034 0l-9296 8601c-1378 1274-3488 1274-4866 0l-13747-12722-2234 2117 13898 12858c2554 2363 6479 2363 9033 0l9297-8600c1378-1276 3486-1276 4865 0l9295 8600c2554 2363 6479 2363 9035 0l9296-8600c1377-1276 3487-1276 4865 0l9295 8600c2554 2363 6508 2393 9035 0 3381-3204 6526-6406 9722-9575 165-163 333-321 503-468 1696-1474 3683-2205 5989-2205h2161z"/><path class="fil3" d="M594899 44303c884 0 1603 717 1603 1601s-719 1602-1603 1602-1601-718-1601-1602 717-1601 1601-1601z"/><path class="fil4" d="M583121 59486v-7368h916v6520h4812v848h-5728zm11401 0v-7408h929v7408h-929zm8981 0v-6520h-3104v-848h7123v848h-3104v6520h-915zm8967 0v-7368h5796v848h-4881v2159h2954v848h-2954v2665h5182v848h-6097zm22443-2351l738 547c-337 640-801 1134-1390 1478-585 344-1252 518-2002 518-1103 0-2014-365-2734-1091-718-728-1077-1650-1077-2768 0-1121 359-2047 1079-2774 722-726 1632-1091 2729-1091 682 0 1304 148 1864 446 561 299 1017 726 1367 1277l-767 546c-230-439-566-785-1001-1034s-922-374-1460-374c-827 0-1513 285-2055 853-542 567-813 1285-813 2151 0 868 271 1585 813 2150s1228 847 2055 847c578 0 1092-143 1541-427 448-285 819-702 1113-1254zm6931 2351v-7368h915v6520h4812v848h-5727zm11400 0v-7408h930v7408h-930zm7696 0v-7368h5796v848h-4881v2159h2954v848h-2954v2665h5182v848h-6097zm12013 0v-7368h481l4782 5507v-5507h916v7368h-467l-4796-5506v5506h-916zm14215 0v-6520h-3104v-848h7123v848h-3104v6520h-915z"/></g></g></svg>