<?xml version="1.0" encoding="UTF-8"?>
<!DOCTYPE svg PUBLIC "-//W3C//DTD SVG 1.1//EN" "http://www.w3.org/Graphics/SVG/1.1/DTD/svg11.dtd">
<!-- Creator: CorelDRAW X7 -->
<svg xmlns="http://www.w3.org/2000/svg" xml:space="preserve" width="2.67361in" height="0.335106in" version="1.1" style="shape-rendering:geometricPrecision; text-rendering:geometricPrecision; image-rendering:optimizeQuality; fill-rule:evenodd; clip-rule:evenodd"
viewBox="0 0 895602 112254"
 xmlns:xlink="http://www.w3.org/1999/xlink">
 <defs>
  <style type="text/css">
   <![CDATA[
    .str0 {stroke:white;stroke-width:2325.07}
    .fil0 {fill:#9C0005}
    .fil1 {fill:white}
    .fil2 {fill:white;fill-rule:nonzero}
   ]]>
  </style>
 </defs>
 <g id="Layer_x0020_1">
  <metadata id="CorelCorpID_0Corel-Layer"/>
  <path class="fil0 str0" d="M755743 111093c-64107,-4000 -171938,-16374 -389500,-30570 -127386,-8311 -286562,7787 -365080,15979 270737,-73985 537355,-89403 754580,14591z"/>
  <path class="fil0 str0" d="M1163 96502l0 -81941c0,-7379 6019,-13398 13398,-13398l561700 0c31008,28876 51884,52096 66388,71763 -193579,-59491 -411090,-39385 -641486,23576z"/>
  <path class="fil0 str0" d="M576261 1165l318177 0 0 97240c-30629,6343 -80199,9920 -114442,11672 -46386,2374 -89790,-23952 -137347,-37151 -14504,-19666 -35380,-42886 -66388,-71761z"/>
  <path class="fil1" d="M787310 59067l5412 0 62636 0c3516,0 6380,-2864 6380,-6380l0 -73c0,-3516 -2864,-6382 -6380,-6382l-28918 0c-933,0 -1700,-767 -1700,-1701l0 -731c0,-935 767,-1702 1700,-1702l22166 0 0 -3403 -22166 0c-2811,0 -5103,2291 -5103,5105l0 731c0,2813 2292,5104 5103,5104l28918 0c1638,0 2979,1340 2979,2979l0 73c0,1636 -1341,2978 -2979,2978l-68048 0c-3599,0 -6795,1148 -9482,3402l9482 0z"/>
  <path class="fil1" d="M798414 46872c1101,0 1994,893 1994,1994 0,1101 -893,1995 -1994,1995 -1101,0 -1994,-894 -1994,-1995 0,-1101 893,-1994 1994,-1994z"/>
  <path class="fil1" d="M790003 41892l17321 0c3601,0 6795,-1149 9481,-3402l-9481 0 -5412 0 -11909 0 -388 0 -2305 0c-3380,0 -6399,1011 -8979,2997 -4703,3626 -9442,8712 -13819,12857 -1699,1608 -4343,1588 -6060,0l-11584 -10715c-3181,-2945 -8072,-2945 -11254,0l-11581 10715c-1717,1588 -4344,1588 -6061,0l-11582 -10715c-3182,-2945 -8074,-2945 -11255,0l-11582 10715c-1717,1588 -4345,1588 -6062,0l-17128 -15849 -2782 2638 0 0 17314 16019c3183,2944 8073,2944 11255,0l11582 -10715c1717,-1589 4344,-1589 6061,0l11581 10715c3182,2944 8072,2944 11256,0l11582 -10715c1715,-1589 4344,-1589 6061,0l11580 10715c3183,2944 8109,2981 11257,0 4212,-3992 8130,-7981 12112,-11930 205,-203 415,-399 627,-583 2113,-1836 4588,-2747 7461,-2747l2305 0 388 0z"/>
  <path class="fil1" d="M741165 55195c1101,0 1996,894 1996,1995 0,1102 -895,1996 -1996,1996 -1102,0 -1995,-894 -1995,-1996 0,-1101 893,-1995 1995,-1995z"/>
  <path class="fil2" d="M726491 74112l0 -9180 1141 0 0 8124 5996 0 0 1056 -7137 0zm14204 0l0 -9230 1158 0 0 9230 -1158 0zm11189 0l0 -8124 -3867 0 0 -1056 8874 0 0 1056 -3866 0 0 8124 -1141 0zm11172 0l0 -9180 7221 0 0 1056 -6081 0 0 2691 3680 0 0 1056 -3680 0 0 3321 6456 0 0 1056 -7596 0zm27961 -2929l919 681c-419,797 -998,1413 -1731,1842 -730,429 -1561,645 -2494,645 -1374,0 -2510,-455 -3407,-1360 -894,-906 -1342,-2055 -1342,-3449 0,-1396 448,-2549 1345,-3455 899,-905 2032,-1360 3400,-1360 849,0 1625,185 2322,557 699,372 1266,903 1703,1590l-956 681c-286,-547 -705,-979 -1247,-1289 -542,-309 -1148,-465 -1818,-465 -1032,0 -1886,355 -2561,1062 -676,706 -1013,1601 -1013,2679 0,1082 337,1976 1013,2680 675,703 1529,1055 2561,1055 720,0 1359,-178 1919,-533 559,-354 1020,-874 1387,-1561zm8634 2929l0 -9180 1141 0 0 8124 5995 0 0 1056 -7136 0zm14204 0l0 -9230 1158 0 0 9230 -1158 0zm9588 0l0 -9180 7222 0 0 1056 -6081 0 0 2691 3679 0 0 1056 -3679 0 0 3321 6455 0 0 1056 -7596 0zm14967 0l0 -9180 599 0 5958 6862 0 -6862 1141 0 0 9180 -582 0 -5975 -6860 0 6860 -1141 0zm17709 0l0 -8124 -3867 0 0 -1056 8875 0 0 1056 -3867 0 0 8124 -1141 0z"/>
 </g>
</svg>
