<?xml version="1.0" encoding="UTF-8"?>
<!DOCTYPE svg PUBLIC "-//W3C//DTD SVG 1.1//EN" "http://www.w3.org/Graphics/SVG/1.1/DTD/svg11.dtd">
<!-- Creator: CorelDRAW X7 -->
<svg xmlns="http://www.w3.org/2000/svg" xml:space="preserve" width="2.67361in" height="0.335106in" version="1.1" style="shape-rendering:geometricPrecision; text-rendering:geometricPrecision; image-rendering:optimizeQuality; fill-rule:evenodd; clip-rule:evenodd"
viewBox="0 0 726580 91069"
 xmlns:xlink="http://www.w3.org/1999/xlink">
 <defs>
  <style type="text/css">
   <![CDATA[
    .str0 {stroke:white;stroke-width:1886.27}
    .fil0 {fill:#37556E}
    .fil1 {fill:white}
    .fil2 {fill:white;fill-rule:nonzero}
   ]]>
  </style>
 </defs>
 <g id="Layer_x0020_1">
  <metadata id="CorelCorpID_0Corel-Layer"/>
  <path class="fil0 str0" d="M613116 90127c-52008,-3245 -139489,-13284 -315992,-24801 -103345,-6742 -232480,6318 -296180,12963 219642,-60021 435943,-72530 612172,11838z"/>
  <path class="fil0 str0" d="M944 78289l0 -66476c0,-5986 4883,-10869 10869,-10869l455694 0c25156,23426 42091,42264 53858,58219 -157046,-48264 -333507,-31952 -520421,19126z"/>
  <path class="fil0 str0" d="M467507 945l247353 0c5943,51 10776,4913 10776,10868l0 17310 0 50710c-24849,5147 -65064,8048 -92845,9470 -37631,1926 -72844,-19432 -111426,-30140 -11767,-15954 -28702,-34792 -53858,-58218z"/>
  <path class="fil1" d="M638725 47920l4391 0 50815 0c2852,0 5176,-2324 5176,-5177l0 -58c0,-2853 -2324,-5178 -5176,-5178l-23460 0c-758,0 -1379,-623 -1379,-1380l0 -593c0,-758 621,-1381 1379,-1381l17982 0 0 -2760 -17982 0c-2281,0 -4141,1858 -4141,4141l0 593c0,2282 1860,4141 4141,4141l23460 0c1329,0 2417,1087 2417,2417l0 58c0,1328 -1088,2416 -2417,2416l-55206 0c-2920,0 -5512,932 -7693,2761l7693 0z"/>
  <path class="fil1" d="M647734 38026c893,0 1618,724 1618,1618 0,893 -725,1619 -1618,1619 -893,0 -1618,-726 -1618,-1619 0,-894 725,-1618 1618,-1618z"/>
  <path class="fil1" d="M640910 33986l14052 0c2921,0 5513,-932 7692,-2760l-7692 0 -4391 0 -9661 0 -315 0 -1870 0c-2742,0 -5191,820 -7284,2432 -3815,2941 -7661,7068 -11212,10430 -1378,1305 -3523,1288 -4916,0l-9397 -8693c-2581,-2389 -6549,-2389 -9131,0l-9395 8693c-1393,1288 -3524,1288 -4917,0l-9396 -8693c-2582,-2389 -6550,-2389 -9131,0l-9396 8693c-1393,1288 -3525,1288 -4918,0l-13895 -12858 -2258 2140 0 0 14047 12996c2582,2388 6549,2388 9131,0l9396 -8693c1393,-1289 3524,-1289 4917,0l9395 8693c2582,2388 6549,2388 9132,0l9396 -8693c1392,-1289 3524,-1289 4917,0l9395 8693c2582,2388 6578,2418 9132,0 3417,-3239 6596,-6475 9826,-9678 167,-165 337,-325 510,-473 1714,-1490 3722,-2229 6052,-2229l1870 0 315 0z"/>
  <path class="fil1" d="M601289 44778c893,0 1619,726 1619,1619 0,894 -726,1619 -1619,1619 -894,0 -1618,-725 -1618,-1619 0,-893 724,-1619 1618,-1619z"/>
  <path class="fil2" d="M589385 60125l0 -7447 925 0 0 6590 4864 0 0 857 -5789 0zm11523 0l0 -7488 939 0 0 7488 -939 0zm9077 0l0 -6590 -3137 0 0 -857 7199 0 0 857 -3137 0 0 6590 -925 0zm9063 0l0 -7447 5859 0 0 857 -4933 0 0 2182 2985 0 0 857 -2985 0 0 2694 5237 0 0 857 -6163 0zm22685 -2376l745 552c-340,647 -809,1147 -1404,1495 -592,348 -1266,523 -2024,523 -1114,0 -2036,-369 -2763,-1103 -726,-735 -1089,-1667 -1089,-2798 0,-1133 363,-2068 1091,-2803 730,-734 1649,-1103 2758,-1103 689,0 1318,150 1884,451 567,302 1027,733 1382,1291l-776 552c-232,-444 -571,-794 -1011,-1046 -440,-251 -932,-377 -1476,-377 -836,0 -1530,287 -2077,861 -548,573 -822,1299 -822,2174 0,877 274,1603 822,2174 547,570 1241,856 2077,856 585,0 1103,-144 1557,-432 454,-288 828,-710 1126,-1267zm7004 2376l0 -7447 926 0 0 6590 4864 0 0 857 -5790 0zm11524 0l0 -7488 939 0 0 7488 -939 0zm7778 0l0 -7447 5859 0 0 857 -4934 0 0 2182 2985 0 0 857 -2985 0 0 2694 5238 0 0 857 -6163 0zm12142 0l0 -7447 486 0 4834 5566 0 -5566 926 0 0 7447 -472 0 -4848 -5565 0 5565 -926 0zm14367 0l0 -6590 -3137 0 0 -857 7200 0 0 857 -3137 0 0 6590 -926 0z"/>
 </g>
</svg>
