<svg xmlns="http://www.w3.org/2000/svg" width="256.667" height="32.34" viewBox="0 0 261833 32991" shape-rendering="geometricPrecision" text-rendering="geometricPrecision" image-rendering="optimizeQuality" fill-rule="evenodd" clip-rule="evenodd"><defs><style><![CDATA[
    .str0 {stroke:white;stroke-width:679.745}
    .fil0 {fill:#0096DC}
    .fil1 {fill:#32AFD7}
    .fil2 {fill:#5AC8D2}
    .fil3 {fill:white}
    .fil4 {fill:white;fill-rule:nonzero}
   ]]></style></defs><g id="Layer_x0020_1"><g id="_1002718560"><path class="fil0 str0" d="M168473 340h93020v28429c-14754 3056-44544 3880-44544 3880-9463-4530-19158-8283-29068-11329-4240-5749-10343-12538-19408-20980z"/><path class="fil1 str0" d="M216949 32649c-18742-1170-46271-4957-109876-9108-37242-2430-83778 2277-106733 4672C79491 6583 153443 2246 216949 32649z"/><path class="fil2 str0" d="M340 28213V340h168133c9065 8442 15168 15231 19408 20980C131288 3928 67697 9806 340 28213z"/><path class="fil3" d="M230174 17269h19894c1028 0 1865-838 1865-1866v-21c0-1028-837-1866-1865-1866h-8454c-273 0-497-224-497-497v-214c0-273 224-497 497-497h6480v-995h-6480c-822 0-1493 669-1493 1492v214c0 822 671 1492 1493 1492h8454c479 0 871 392 871 871v21c0 479-392 871-871 871h-19894c-1053 0-1987 336-2773 995h2773z"/><path class="fil3" d="M233420 13703c322 0 583 261 583 583s-261 584-583 584-583-262-583-584 261-583 583-583zM230961 12247h5064c1052 0 1986-335 2772-994h-8623c-989 0-1871 295-2625 876-1375 1060-2761 2547-4041 3759-496 470-1269 464-1771 0l-3387-3133c-930-861-2360-861-3290 0l-3386 3133c-502 464-1270 464-1772 0l-3386-3133c-930-861-2360-861-3290 0l-3386 3133c-502 464-1270 464-1772 0l-5008-4634-813 771 5062 4684c930 860 2360 860 3290 0l3386-3133c502-465 1270-465 1772 0l3386 3133c930 860 2360 860 3291 0l3386-3133c501-465 1270-465 1772 0l3385 3133c931 860 2371 871 3291 0 1231-1167 2377-2334 3541-3488 60-59 121-117 183-171 618-536 1342-803 2182-803h787z"/><path class="fil3" d="M216683 16137c322 0 584 261 584 583s-262 583-584 583-583-261-583-583 261-583 583-583z"/><path class="fil4" d="M212393 21667v-2684h334v2375h1752v309h-2086zm4153 0v-2699h338v2699h-338zm3271 0v-2375h-1131v-309h2595v309h-1131v2375h-333zm3266 0v-2684h2111v309h-1778v786h1076v309h-1076v971h1888v309h-2221zm8174-856l269 199c-122 233-292 413-506 538-213 126-456 189-729 189-402 0-734-133-996-398-261-265-393-600-393-1008s132-745 394-1010c263-265 594-398 994-398 248 0 475 54 679 163s370 264 497 465l-279 199c-84-160-206-286-364-377-159-90-336-136-532-136-302 0-552 104-749 311-197 206-296 468-296 783 0 316 99 578 296 784 197 205 447 308 749 308 210 0 397-52 561-156 163-104 298-255 405-456zm2525 856v-2684h333v2375h1753v309h-2086zm4152 0v-2699h339v2699h-339zm2803 0v-2684h2112v309h-1778v786h1075v309h-1075v971h1887v309h-2221zm4376 0v-2684h175l1742 2006v-2006h333v2684h-170l-1747-2006v2006h-333zm5177 0v-2375h-1130v-309h2594v309h-1130v2375h-334z"/></g></g></svg>