<?xml version="1.0" encoding="UTF-8"?>
<!DOCTYPE svg PUBLIC "-//W3C//DTD SVG 1.1//EN" "http://www.w3.org/Graphics/SVG/1.1/DTD/svg11.dtd">
<!-- Creator: CorelDRAW X7 -->
<svg xmlns="http://www.w3.org/2000/svg" xml:space="preserve" width="2.67361in" height="0.336874in" version="1.1" style="shape-rendering:geometricPrecision; text-rendering:geometricPrecision; image-rendering:optimizeQuality; fill-rule:evenodd; clip-rule:evenodd"
viewBox="0 0 270077 34030"
 xmlns:xlink="http://www.w3.org/1999/xlink">
 <defs>
  <style type="text/css">
   <![CDATA[
    .str0 {stroke:white;stroke-width:701.146}
    .fil0 {fill:#0096DC}
    .fil1 {fill:#32AFD7}
    .fil2 {fill:#5AC8D2}
    .fil3 {fill:white}
    .fil4 {fill:white;fill-rule:nonzero}
   ]]>
  </style>
 </defs>
 <g id="Layer_x0020_1">
  <metadata id="CorelCorpID_0Corel-Layer"/>
  <path class="fil0 str0" d="M173777 351l95949 0 0 29324c-15219,3152 -45946,4002 -45946,4002 -9761,-4673 -19762,-8544 -29983,-11685 -4374,-5931 -10669,-12933 -20020,-21641z"/>
  <path class="fil1 str0" d="M223780 33676c-19332,-1206 -47728,-5112 -113336,-9394 -38415,-2506 -86415,2349 -110093,4819 81643,-22311 157923,-26785 223429,4575z"/>
  <path class="fil2 str0" d="M351 29101l0 -24710c0,-2225 1815,-4040 4040,-4040l169386 0c9351,8707 15646,15710 20020,21641 -58376,-17941 -123968,-11877 -193446,7109z"/>
  <path class="fil3" d="M237421 17812l1632 0 18888 0c1060,0 1924,-864 1924,-1924l0 -22c0,-1060 -864,-1924 -1924,-1924l-8720 0c-282,0 -513,-232 -513,-513l0 -221c0,-282 231,-513 513,-513l6684 0 0 -1026 -6684 0c-848,0 -1539,691 -1539,1539l0 221c0,848 691,1539 1539,1539l8720 0c494,0 898,404 898,898l0 22c0,494 -404,898 -898,898l-20520 0c-1086,0 -2049,347 -2860,1026l2860 0z"/>
  <path class="fil3" d="M240769 14135c332,0 601,269 601,601 0,332 -269,602 -601,602 -332,0 -601,-270 -601,-602 0,-332 269,-601 601,-601z"/>
  <path class="fil3" d="M238233 12633l5223 0c1086,0 2049,-346 2859,-1026l-2859 0 -1632 0 -3591 0 -117 0 -695 0c-1020,0 -1930,305 -2708,904 -1418,1093 -2848,2627 -4168,3877 -512,485 -1309,479 -1827,0l-3493 -3231c-959,-888 -2434,-888 -3394,0l-3492 3231c-518,479 -1310,479 -1828,0l-3493 -3231c-959,-888 -2434,-888 -3394,0l-3492 3231c-518,479 -1311,479 -1828,0l-5165 -4780 -839 796 0 0 5221 4831c960,887 2434,887 3394,0l3493 -3232c517,-479 1310,-479 1827,0l3493 3232c959,887 2434,887 3394,0l3493 -3232c517,-479 1310,-479 1827,0l3493 3232c959,887 2445,899 3394,0 1270,-1204 2452,-2407 3652,-3598 62,-61 126,-120 190,-176 637,-553 1383,-828 2250,-828l695 0 117 0z"/>
  <path class="fil3" d="M223505 16645c332,0 602,269 602,601 0,332 -270,602 -602,602 -332,0 -601,-270 -601,-602 0,-332 269,-601 601,-601z"/>
  <path class="fil4" d="M219080 22349l0 -2768 344 0 0 2450 1808 0 0 318 -2152 0zm4283 0l0 -2783 350 0 0 2783 -350 0zm3374 0l0 -2450 -1166 0 0 -318 2677 0 0 318 -1166 0 0 2450 -345 0zm3369 0l0 -2768 2178 0 0 318 -1834 0 0 812 1110 0 0 318 -1110 0 0 1002 1947 0 0 318 -2291 0zm8432 -883l278 205c-127,241 -301,426 -523,556 -219,129 -470,194 -752,194 -414,0 -756,-137 -1027,-410 -269,-273 -405,-619 -405,-1040 0,-421 136,-769 406,-1042 271,-273 613,-410 1025,-410 256,0 490,56 701,168 210,112 381,272 513,480l-288 205c-87,-165 -213,-295 -376,-389 -164,-93 -347,-140 -549,-140 -311,0 -568,107 -772,320 -204,213 -305,483 -305,808 0,326 101,596 305,808 204,212 461,318 772,318 218,0 410,-53 579,-160 169,-107 308,-264 418,-471zm2604 883l0 -2768 344 0 0 2450 1808 0 0 318 -2152 0zm4283 0l0 -2783 350 0 0 2783 -350 0zm2892 0l0 -2768 2178 0 0 318 -1834 0 0 812 1109 0 0 318 -1109 0 0 1002 1946 0 0 318 -2290 0zm4513 0l0 -2768 181 0 1797 2069 0 -2069 344 0 0 2768 -176 0 -1802 -2069 0 2069 -344 0zm5341 0l0 -2450 -1166 0 0 -318 2676 0 0 318 -1166 0 0 2450 -344 0z"/>
 </g>
</svg>
