<svg xmlns="http://www.w3.org/2000/svg" width="256.667" height="32.17" viewBox="0 0 895602 112254" shape-rendering="geometricPrecision" text-rendering="geometricPrecision" image-rendering="optimizeQuality" fill-rule="evenodd" clip-rule="evenodd"><defs><style><![CDATA[
    .str0 {stroke:white;stroke-width:2325.07}
    .fil0 {fill:#9C0005}
    .fil1 {fill:white}
    .fil2 {fill:white;fill-rule:nonzero}
   ]]></style></defs><g id="Layer_x0020_1"><path class="fil0 str0" d="M755743 111093c-64107-4000-171938-16374-389500-30570C238857 72212 79681 88310 1163 96502c270737-73985 537355-89403 754580 14591z"/><path class="fil0 str0" d="M1163 96502V14561c0-7379 6019-13398 13398-13398h561700c31008 28876 51884 52096 66388 71763C449070 13435 231559 33541 1163 96502z"/><path class="fil0 str0" d="M576261 1165h318177v97240c-30629 6343-80199 9920-114442 11672-46386 2374-89790-23952-137347-37151-14504-19666-35380-42886-66388-71761z"/><path class="fil1" d="M787310 59067h68048c3516 0 6380-2864 6380-6380v-73c0-3516-2864-6382-6380-6382h-28918c-933 0-1700-767-1700-1701v-731c0-935 767-1702 1700-1702h22166v-3403h-22166c-2811 0-5103 2291-5103 5105v731c0 2813 2292 5104 5103 5104h28918c1638 0 2979 1340 2979 2979v73c0 1636-1341 2978-2979 2978h-68048c-3599 0-6795 1148-9482 3402h9482z"/><path class="fil1" d="M798414 46872c1101 0 1994 893 1994 1994s-893 1995-1994 1995-1994-894-1994-1995 893-1994 1994-1994zM790003 41892h17321c3601 0 6795-1149 9481-3402h-29495c-3380 0-6399 1011-8979 2997-4703 3626-9442 8712-13819 12857-1699 1608-4343 1588-6060 0l-11584-10715c-3181-2945-8072-2945-11254 0l-11581 10715c-1717 1588-4344 1588-6061 0l-11582-10715c-3182-2945-8074-2945-11255 0l-11582 10715c-1717 1588-4345 1588-6062 0l-17128-15849-2782 2638 17314 16019c3183 2944 8073 2944 11255 0l11582-10715c1717-1589 4344-1589 6061 0l11581 10715c3182 2944 8072 2944 11256 0l11582-10715c1715-1589 4344-1589 6061 0l11580 10715c3183 2944 8109 2981 11257 0 4212-3992 8130-7981 12112-11930 205-203 415-399 627-583 2113-1836 4588-2747 7461-2747h2693z"/><path class="fil1" d="M741165 55195c1101 0 1996 894 1996 1995 0 1102-895 1996-1996 1996-1102 0-1995-894-1995-1996 0-1101 893-1995 1995-1995z"/><path class="fil2" d="M726491 74112v-9180h1141v8124h5996v1056h-7137zm14204 0v-9230h1158v9230h-1158zm11189 0v-8124h-3867v-1056h8874v1056h-3866v8124h-1141zm11172 0v-9180h7221v1056h-6081v2691h3680v1056h-3680v3321h6456v1056h-7596zm27961-2929l919 681c-419 797-998 1413-1731 1842-730 429-1561 645-2494 645-1374 0-2510-455-3407-1360-894-906-1342-2055-1342-3449 0-1396 448-2549 1345-3455 899-905 2032-1360 3400-1360 849 0 1625 185 2322 557 699 372 1266 903 1703 1590l-956 681c-286-547-705-979-1247-1289-542-309-1148-465-1818-465-1032 0-1886 355-2561 1062-676 706-1013 1601-1013 2679 0 1082 337 1976 1013 2680 675 703 1529 1055 2561 1055 720 0 1359-178 1919-533 559-354 1020-874 1387-1561zm8634 2929v-9180h1141v8124h5995v1056h-7136zm14204 0v-9230h1158v9230h-1158zm9588 0v-9180h7222v1056h-6081v2691h3679v1056h-3679v3321h6455v1056h-7596zm14967 0v-9180h599l5958 6862v-6862h1141v9180h-582l-5975-6860v6860h-1141zm17709 0v-8124h-3867v-1056h8875v1056h-3867v8124h-1141z"/></g></svg>