<?xml version="1.0" encoding="UTF-8"?>
<!DOCTYPE svg PUBLIC "-//W3C//DTD SVG 1.1//EN" "http://www.w3.org/Graphics/SVG/1.1/DTD/svg11.dtd">
<!-- Creator: CorelDRAW X7 -->
<svg xmlns="http://www.w3.org/2000/svg" xml:space="preserve" width="2.67361in" height="0.336874in" version="1.1" style="shape-rendering:geometricPrecision; text-rendering:geometricPrecision; image-rendering:optimizeQuality; fill-rule:evenodd; clip-rule:evenodd"
viewBox="0 0 337459 42520"
 xmlns:xlink="http://www.w3.org/1999/xlink">
 <defs>
  <style type="text/css">
   <![CDATA[
    .str0 {stroke:#FEFEFE;stroke-width:876.076}
    .fil3 {fill:#FEFEFE}
    .fil2 {fill:#81C5DF}
    .fil1 {fill:#6FBCD8}
    .fil0 {fill:#5AADCC}
    .fil4 {fill:#FEFEFE;fill-rule:nonzero}
   ]]>
  </style>
 </defs>
 <g id="Layer_x0020_1">
  <metadata id="CorelCorpID_0Corel-Layer"/>
  <path class="fil0 str0" d="M217133 439l119887 0 0 36639c-19015,3939 -57409,5001 -57409,5001 -12196,-5838 -24692,-10675 -37464,-14601 -5465,-7410 -13331,-16159 -25014,-27039z"/>
  <path class="fil1 str0" d="M279611 42078c-24155,-1507 -59635,-6388 -141612,-11737 -47999,-3132 -107975,2934 -137561,6020 102013,-27877 197324,-33467 279173,5717z"/>
  <path class="fil2 str0" d="M438 36361l0 -29191c0,-3708 3024,-6732 6732,-6732l209963 0c11683,10880 19549,19630 25014,27040 -72940,-22416 -154897,-14840 -241709,8883z"/>
  <g id="_819632208">
   <g>
    <path class="fil3" d="M296655 22256l2039 0 23601 0c1325,0 2404,-1079 2404,-2404l0 -27c0,-1325 -1079,-2405 -2404,-2405l-10896 0c-352,0 -641,-289 -641,-641l0 -275c0,-353 289,-642 641,-642l8352 0 0 -1282 -8352 0c-1059,0 -1923,863 -1923,1924l0 275c0,1060 864,1923 1923,1923l10896 0c617,0 1123,505 1123,1123l0 27c0,617 -506,1122 -1123,1122l-25640 0c-1356,0 -2560,433 -3573,1282l3573 0z"/>
    <path class="fil3" d="M300839 17661c415,0 751,337 751,751 0,415 -336,752 -751,752 -415,0 -751,-337 -751,-752 0,-414 336,-751 751,-751z"/>
    <path class="fil3" d="M297669 15785l6527 0c1357,0 2560,-433 3572,-1282l-3572 0 -2039 0 -4488 0 -146 0 -868 0c-1274,0 -2411,381 -3383,1129 -1772,1366 -3558,3283 -5208,4845 -640,605 -1636,598 -2283,0l-4364 -4038c-1199,-1109 -3042,-1109 -4241,0l-4364 4038c-647,598 -1636,598 -2283,0l-4364 -4038c-1200,-1109 -3043,-1109 -4241,0l-4364 4038c-647,598 -1638,598 -2285,0l-6453 -5972 -1049 994 0 0 6525 6036c1199,1109 3041,1109 4240,0l4364 -4038c647,-599 1637,-599 2284,0l4364 4038c1199,1109 3041,1109 4241,0l4364 -4038c646,-599 1637,-599 2284,0l4363 4038c1199,1109 3055,1123 4241,0 1588,-1505 3064,-3008 4564,-4496 78,-76 157,-150 237,-219 796,-692 1728,-1035 2811,-1035l868 0 146 0z"/>
    <path class="fil3" d="M279267 20797c415,0 753,337 753,752 0,415 -338,752 -753,752 -415,0 -751,-337 -751,-752 0,-415 336,-752 751,-752z"/>
   </g>
   <path class="fil4" d="M273739 27925l0 -3459 429 0 0 3061 2259 0 0 398 -2688 0zm5352 0l0 -3478 436 0 0 3478 -436 0zm4215 0l0 -3061 -1457 0 0 -398 3344 0 0 398 -1457 0 0 3061 -430 0zm4210 0l0 -3459 2721 0 0 398 -2291 0 0 1014 1386 0 0 398 -1386 0 0 1251 2432 0 0 398 -2862 0zm10536 -1104l346 257c-158,300 -376,533 -652,694 -275,162 -588,243 -940,243 -518,0 -946,-171 -1284,-512 -337,-342 -506,-774 -506,-1300 0,-526 169,-960 507,-1302 339,-341 766,-512 1281,-512 320,0 613,70 875,210 264,140 477,340 642,599l-360 256c-108,-206 -266,-368 -470,-485 -204,-117 -433,-176 -685,-176 -389,0 -711,134 -965,401 -255,266 -382,603 -382,1009 0,408 127,745 382,1010 254,265 576,398 965,398 271,0 512,-68 723,-201 211,-134 384,-330 523,-589zm3253 1104l0 -3459 430 0 0 3061 2259 0 0 398 -2689 0zm5352 0l0 -3478 436 0 0 3478 -436 0zm3612 0l0 -3459 2722 0 0 398 -2292 0 0 1014 1387 0 0 398 -1387 0 0 1251 2433 0 0 398 -2863 0zm5640 0l0 -3459 226 0 2245 2586 0 -2586 430 0 0 3459 -220 0 -2251 -2585 0 2585 -430 0zm6673 0l0 -3061 -1457 0 0 -398 3344 0 0 398 -1457 0 0 3061 -430 0z"/>
  </g>
 </g>
</svg>
