<svg xmlns="http://www.w3.org/2000/svg" width="114" height="114" viewBox="0 0 31915 31915" shape-rendering="geometricPrecision" text-rendering="geometricPrecision" image-rendering="optimizeQuality" fill-rule="evenodd" clip-rule="evenodd"><defs><style><![CDATA[
    .fil0 {fill:#AFAFAF}
   ]]></style></defs><path class="fil0" d="M1162 13140L13140 1162c1550-1549 4086-1549 5636 0l11977 11978c1550 1550 1550 4086 0 5636L18776 30753c-1550 1550-4086 1550-5636 0L1162 18776c-1549-1550-1549-4086 0-5636zm8769 2705c158 113 138 139 212 377 52 167 85 279 142 452 202 604 847 2485 899 2865l-20 84c-1374 333-3469 886-2918 2795 199 689 842 1292 1692 1304 573 8 1786-499 2380-665l91 82c91 460 398 1382 575 1827 137 343 268 479 500 688 310 278 474 245 767 436h830c395-247 712-289 976-633 204-265 409-633 424-1091 22-695-507-1682-645-2381l129-131 3510-1127 138 11c62 391 581 1937 759 2198 1050 1539 3428 717 3329-1083-37-666-547-1587-648-2245l14-78c394-50 1874-557 2192-759 522-332 1026-1099 738-2051-206-681-855-1256-1696-1267-563-8-1738 455-2318 640l-127-30-1137-3593 20-156c428-101 1845-553 2149-746 1497-948 875-3349-968-3341-771 3-1639 563-2336 630l-118-174c-263-1401-999-3385-2852-2727-634 225-1191 845-1178 1732 7 486 488 1793 658 2296-113 5-92-28-92 71l-3535 1142-203-16c36-213-560-1885-706-2135-873-1498-3355-926-3347 959 3 534 485 1755 648 2316l-149 114c-455 105-1302 387-1738 562-307 123-537 281-705 486-213 261-270 531-433 776v830c273 417 184 537 594 941 229 225 605 433 1062 466 573 41 1875-488 2441-651zm8464 1438l-3596 1144c-166-51-86 5-174-62-104-548-408-1301-587-1869-124-394-596-1499-495-1846l3591-1148c119 71 54-20 142 95l1141 3580-22 106z" id="Layer_x0020_1"/></svg>