<svg xmlns="http://www.w3.org/2000/svg" width="615.066" height="306.112" viewBox="0 0 30967 15412" shape-rendering="geometricPrecision" text-rendering="geometricPrecision" image-rendering="optimizeQuality" fill-rule="evenodd" clip-rule="evenodd"><defs><style><![CDATA[
    .str1 {stroke:#E6E6E6;stroke-width:16.0985}
    .str0 {stroke:#E6E6E6;stroke-width:33.5671}
    .fil1 {fill:none}
    .fil2 {fill:#37556E}
    .fil3 {fill:#E6E6E6}
    .fil0 {fill:white}
   ]]></style></defs><g id="Layer_x0020_1"><path class="fil0 str0" d="M17 2059h30933v13336H17z"/><path class="fil1 str1" d="M495 3870h29978v2272H495z"/><path class="fil2 str0" d="M17 17h30933v2042H17z"/><path class="fil0" d="M452 339h2203v1397H452zM19560 896h967v967h-967zM18040 896h967v967h-967zM16520 896h967v967h-967zM15000 896h967v967h-967zM13480 896h967v967h-967zM11960 896h967v967h-967zM10441 896h967v967h-967zM9593 219h2178v277H9593zM12054 219h4047v277h-4047zM16704 219h2178v277h-2178zM19197 219h2178v277h-2178zM28028 366h644v644h-644zM28931 366h644v644h-644zM29834 366h644v644h-644zM28034 1410h739v277h-739zM28959 1410h1513v277h-1513z"/><path class="fil2" d="M495 3147h29978v724H495z"/><path class="fil3" d="M13460 2516h4047v277h-4047z"/><path class="fil2" d="M29828 2307h644v644h-644z"/><path class="fil0" d="M2213 3370h2156v277H2213zM9391 3370h2156v277H9391zM16569 3370h2156v277h-2156zM23747 3370h2156v277h-2156z"/><path class="fil3" d="M495 5574h29978v568H495zM495 4438h29978v568H495zM1459 4085h3664v138H1459z"/><path class="fil0" d="M1562 4644h3458v138H1562z"/><path class="fil3" d="M8637 4085h2439v138H8637zM11358 4085h1153v138h-1153z"/><path class="fil0" d="M10072 4639h2439v138h-2439zM8637 4639h1153v138H8637z"/><path class="fil2" d="M22644 4085h1153v138h-1153zM24248 4085h1153v138h-1153zM25864 4085h1153v138h-1153zM22644 4654h1153v138h-1153zM24248 4654h1153v138h-1153zM25864 4654h1153v138h-1153z"/><path class="fil3" d="M15579 4085h4135v138h-4135z"/><path class="fil0" d="M16447 4644h2400v138h-2400z"/><path class="fil3" d="M2211 5217h2161v138H2211z"/><path class="fil0" d="M1802 5776h2979v138H1802z"/><path class="fil3" d="M9097 5217h1979v138H9097zM11358 5217h789v138h-789z"/><path class="fil0" d="M9986 5771h2860v138H9986zM8303 5771h1352v138H8303z"/><path class="fil2" d="M22644 5217h1153v138h-1153zM24248 5217h1153v138h-1153zM25864 5217h1153v138h-1153zM22644 5786h1153v138h-1153zM24248 5786h1153v138h-1153zM25864 5786h1153v138h-1153z"/><path class="fil3" d="M16875 5217h1543v138h-1543z"/><path class="fil0" d="M15968 5776h3357v138h-3357z"/><path class="fil1 str1" d="M495 6623h14827v8291H495zM15646 6623h14827v8291H15646z"/><path class="fil2" d="M29040 11286h-5644c-211 0-383 167-383 372v817c0 205 172 372 383 372h5644c211 0 383-167 383-372v-9l399-342-399-341v-125c0-205-172-372-383-372zM25295 9023h-5290c-211 0-383 168-383 373v681c0 205 172 372 383 372h5290c211 0 383-167 383-372v-681c0-205-172-373-383-373z"/><path class="fil1 str1" d="M15646 6623h3549v8291h-3549z"/><path class="fil3" d="M19622 10801h1153v133h-1153zM21040 10801h2835v133h-2835z"/><path class="fil1 str1" d="M19195 13684h11278v1231H19195z"/><path class="fil3" d="M26960 13210h698v133h-698zM27885 13210h1153v133h-1153z"/><path class="fil2" d="M29140 6975h-9563c-210 0-382 167-382 372v351l-232 199 232 199v203c0 206 172 373 382 373h9563c211 0 383-167 383-373v-952c0-205-172-372-383-372z"/><path class="fil0" d="M19724 7299h2835v133h-2835zM22844 7299h3068v133h-3068zM26204 7299h1059v133h-1059zM19724 7757h1417v133h-1417zM21441 7757h3719v133h-3719zM25406 7757h1857v133h-1857zM19724 8214h2835v133h-2835zM22844 8214h1941v133h-1941zM25107 8214h2968v133h-2968z"/><path class="fil3" d="M19821 14232h2138v133h-2138zM23672 14232h2835v133h-2835zM22279 14232h1153v133h-1153z"/><path class="fil2" d="M29361 13989h638v621h-638zM16598 7023h1645v1600h-1645zM17071 8848h698v133h-698z"/><path class="fil3" d="M16817 9105h1206v133h-1206z"/><path class="fil0" d="M20061 9654h1417v133h-1417zM21779 9654h3380v133h-3380z"/><g id="_918716720"><path class="fil0" d="M26572 12457h2307v133h-2307zM23842 12457h2497v133h-2497zM27725 12000h1153v133h-1153zM24455 12000h3026v133h-3026zM26572 11542h2307v133h-2307zM24759 11542h1580v133h-1580z"/></g><g id="_918713904"><path class="fil2" d="M1325 7023h1645v1600H1325zM1798 8848h698v133h-698z"/><path class="fil3" d="M1544 9105h1206v133H1544z"/><path class="fil2" d="M4088 7023h1645v1600H4088z"/><path class="fil3" d="M3948 9105h1206v133H3948z"/><path class="fil2" d="M6852 7023h1645v1600H6852zM7325 8848h698v133h-698z"/><path class="fil3" d="M7188 9105h973v133h-973z"/><path class="fil2" d="M9615 7023h1645v1600H9615zM9793 8848h1288v133H9793z"/><path class="fil3" d="M9834 9105h1206v133H9834z"/><path class="fil2" d="M12378 7023h1645v1600h-1645zM4262 8848h698v133h-698zM5140 8848h419v133h-419z"/><g><path class="fil2" d="M13151 8848h698v133h-698zM12553 8848h419v133h-419z"/></g><path class="fil3" d="M5334 9105h444v133h-444z"/><g><path class="fil3" d="M13393 9105h888v133h-888zM12120 9105h1083v133h-1083z"/></g></g></g></svg>