<svg xmlns="http://www.w3.org/2000/svg" width="615.066" height="306.112" viewBox="0 0 32382 16116" shape-rendering="geometricPrecision" text-rendering="geometricPrecision" image-rendering="optimizeQuality" fill-rule="evenodd" clip-rule="evenodd"><defs><style><![CDATA[
    .str0 {stroke:#E6E6E6;stroke-width:35.1009}
    .str1 {stroke:#0096DC;stroke-width:15.1626}
    .fil0 {fill:none}
    .fil1 {fill:#0096DC}
    .fil2 {fill:#E6E6E6}
    .fil3 {fill:white}
   ]]></style></defs><g id="Layer_x0020_1"><path class="fil0 str0" d="M18 2153h32347v13945H18z"/><path class="fil0 str0" d="M186 4047h32010v11883H186zM18 18h32347v2136H18z"/><path class="fil1 str1" d="M29152 18h3213v1068h-3213z"/><path class="fil1 str1" d="M29152 1085h3213v1068h-3213zM18 18h3213v2136H18z"/><path class="fil1 str1" d="M3230 18h25922v713H3230zM3230 731h25922v1422H3230z"/><path class="fil2" d="M472 355h2303v1461H472zM20453 937h1011v1011h-1011zM18864 937h1011v1011h-1011zM17275 937h1011v1011h-1011zM15686 937h1011v1011h-1011zM14096 937h1011v1011h-1011zM12507 937h1011v1011h-1011zM10918 937h1011v1011h-1011zM10031 229h2277v290h-2277zM12604 229h4232v290h-4232zM17468 229h2277v290h-2277zM20074 229h2277v290h-2277zM29477 214h674v674h-674zM30421 214h674v674h-674zM31366 214h674v674h-674z"/><g id="_627316880"><path class="fil2" d="M29483 1474h773v290h-773zM30451 1474h1583v290h-1583z"/></g><path class="fil1" d="M186 3290h32010v757H186z"/><path class="fil2" d="M14075 2631h4232v290h-4232z"/><path class="fil1" d="M31370 2412h674v674h-674z"/><path class="fil3" d="M2175 3524h2277v290H2175zM9756 3524h2277v290H9756zM17337 3524h2277v290h-2277zM24919 3524h2277v290h-2277z"/><path class="fil2" d="M186 4047h32010v594H186zM186 5235h32010v594H186zM186 6423h32010v594H186zM186 7610h32010v594H186zM186 8798h32010v594H186zM186 9986h32010v594H186zM186 11174h32010v594H186zM186 12361h32010v594H186zM186 13549h32010v594H186zM186 14737h32010v594H186z"/><path class="fil3" d="M1378 4272h3870v145H1378z"/><path class="fil2" d="M1487 4856h3652v145H1487z"/><path class="fil3" d="M8959 4272h2577v145H8959zM11834 4272h1218v145h-1218z"/><g id="_631210640"><path class="fil2" d="M10476 4851h2577v145h-2577zM8959 4851h1218v145H8959z"/></g><path class="fil1" d="M23754 4272h1218v145h-1218zM25448 4272h1218v145h-1218zM27155 4272h1218v145h-1218zM23754 4866h1218v145h-1218zM25448 4866h1218v145h-1218zM27155 4866h1218v145h-1218z"/><path class="fil3" d="M16292 4272h4368v145h-4368z"/><path class="fil2" d="M17208 4856h2535v145h-2535z"/><path class="fil3" d="M2172 5456h2283v145H2172z"/><path class="fil2" d="M1740 6040h3146v145H1740z"/><path class="fil3" d="M9446 5456h2090v145H9446zM11834 5456h834v145h-834z"/><g id="_944023744"><path class="fil2" d="M10384 6035h3020v145h-3020zM8607 6035h1428v145H8607z"/></g><path class="fil1" d="M23754 5456h1218v145h-1218zM25448 5456h1218v145h-1218zM27155 5456h1218v145h-1218zM23754 6050h1218v145h-1218zM25448 6050h1218v145h-1218zM27155 6050h1218v145h-1218z"/><path class="fil3" d="M17661 5456h1630v145h-1630z"/><path class="fil2" d="M16703 6040h3546v145h-3546z"/></g></svg>