<?xml version="1.0" encoding="UTF-8"?>
<!DOCTYPE svg PUBLIC "-//W3C//DTD SVG 1.1//EN" "http://www.w3.org/Graphics/SVG/1.1/DTD/svg11.dtd">
<!-- Creator: CorelDRAW X7 -->
<svg xmlns="http://www.w3.org/2000/svg" xml:space="preserve" width="6.40694in" height="3.18867in" version="1.1" style="shape-rendering:geometricPrecision; text-rendering:geometricPrecision; image-rendering:optimizeQuality; fill-rule:evenodd; clip-rule:evenodd"
viewBox="0 0 36714 18272"
 xmlns:xlink="http://www.w3.org/1999/xlink">
 <defs>
  <style type="text/css">
   <![CDATA[
    .str4 {stroke:white;stroke-width:76.3903}
    .str1 {stroke:#E6E6E6;stroke-width:19.0863}
    .str0 {stroke:#E6E6E6;stroke-width:39.797}
    .str2 {stroke:#0096DC;stroke-width:17.1912}
    .str3 {stroke:#E6E6E6;stroke-width:17.1912}
    .fil0 {fill:none}
    .fil1 {fill:#0096DC}
    .fil2 {fill:#E6E6E6}
    .fil3 {fill:white}
   ]]>
  </style>
 </defs>
 <g id="Layer_x0020_1">
  <metadata id="CorelCorpID_0Corel-Layer"/>
  <g id="_782865872">
   <rect class="fil0 str0" x="20" y="2441" width="36675" height="15811"/>
   <rect class="fil0 str1" x="388" y="4575" width="35938" height="2650"/>
   <rect class="fil0 str0" x="20" y="20" width="36675" height="2421"/>
   <rect class="fil1 str2" x="33052" y="20" width="3642" height="1211"/>
   <rect class="fil1 str2" x="33052" y="1231" width="3642" height="1211"/>
   <rect class="fil1 str2" x="20" y="20" width="3642" height="2421"/>
   <rect class="fil1 str2" x="3662" y="20" width="29390" height="809"/>
   <rect class="fil1 str2" x="3662" y="829" width="29390" height="1613"/>
   <rect class="fil2" x="535" y="402" width="2612" height="1656"/>
   <rect class="fil2" x="23190" y="1062" width="1146" height="1146"/>
   <rect class="fil2" x="21388" y="1062" width="1146" height="1146"/>
   <rect class="fil2" x="19586" y="1062" width="1146" height="1146"/>
   <rect class="fil2" x="17784" y="1062" width="1146" height="1146"/>
   <rect class="fil2" x="15982" y="1062" width="1146" height="1146"/>
   <rect class="fil2" x="14180" y="1062" width="1146" height="1146"/>
   <rect class="fil2" x="12378" y="1062" width="1146" height="1146"/>
   <rect class="fil2" x="11373" y="260" width="2582" height="328"/>
   <rect class="fil2" x="14291" y="260" width="4798" height="328"/>
   <rect class="fil2" x="19805" y="260" width="2582" height="328"/>
   <rect class="fil2" x="22759" y="260" width="2582" height="328"/>
   <rect class="fil2" x="33420" y="243" width="764" height="764"/>
   <rect class="fil2" x="34491" y="243" width="764" height="764"/>
   <rect class="fil2" x="35562" y="243" width="764" height="764"/>
   <rect class="fil2" x="33428" y="1672" width="876" height="328"/>
   <rect class="fil2" x="34525" y="1672" width="1794" height="328"/>
   <rect class="fil1" x="388" y="3731" width="35938" height="844"/>
   <rect class="fil2" x="15958" y="2983" width="4798" height="328"/>
   <rect class="fil1" x="35562" y="2735" width="764" height="764"/>
   <rect class="fil3" x="2621" y="3991" width="2556" height="323"/>
   <rect class="fil3" x="11133" y="3991" width="2556" height="323"/>
   <rect class="fil3" x="19644" y="3991" width="2556" height="323"/>
   <rect class="fil3" x="28156" y="3991" width="2556" height="323"/>
   <rect class="fil2" x="388" y="4575" width="35938" height="663"/>
   <rect class="fil2" x="388" y="5900" width="35938" height="663"/>
   <rect class="fil3" x="1727" y="4825" width="4345" height="162"/>
   <rect class="fil2" x="1849" y="5477" width="4100" height="162"/>
   <rect class="fil3" x="10238" y="4825" width="2893" height="162"/>
   <rect class="fil3" x="13466" y="4825" width="1368" height="162"/>
   <rect class="fil2" x="11941" y="5471" width="2893" height="162"/>
   <rect class="fil2" x="10238" y="5471" width="1368" height="162"/>
   <rect class="fil3" x="18471" y="4825" width="4903" height="162"/>
   <rect class="fil2" x="19499" y="5477" width="2847" height="162"/>
   <rect class="fil3" x="2618" y="6146" width="2563" height="162"/>
   <rect class="fil2" x="2133" y="6798" width="3532" height="162"/>
   <rect class="fil3" x="10784" y="6146" width="2347" height="162"/>
   <rect class="fil3" x="13466" y="6146" width="936" height="162"/>
   <rect class="fil2" x="11838" y="6792" width="3391" height="162"/>
   <rect class="fil2" x="9842" y="6792" width="1603" height="162"/>
   <rect class="fil3" x="20008" y="6146" width="1830" height="162"/>
   <rect class="fil2" x="18932" y="6798" width="3981" height="162"/>
   <rect class="fil1" x="34491" y="2735" width="764" height="764"/>
   <rect class="fil1" x="33420" y="2735" width="764" height="764"/>
   <circle class="fil0 str0" cx="30877" cy="12739" r="3414"/>
   <path class="fil1" d="M33214 10250c-611,-574 -1433,-926 -2337,-926l0 3415 2337 -2489z"/>
   <path class="fil2" d="M30877 12739l2337 -2489c364,341 648,758 833,1221l-3170 1268z"/>
   <path class="fil3 str3" d="M30877 12739l3170 -1268c148,370 230,762 242,1161l-3412 107z"/>
   <rect class="fil1" x="20972" y="9709" width="4798" height="328"/>
   <rect class="fil2" x="20972" y="10544" width="3391" height="162"/>
   <rect class="fil2" x="20972" y="10998" width="744" height="162"/>
   <rect class="fil2" x="20972" y="11452" width="744" height="162"/>
   <rect class="fil2" x="20972" y="11905" width="875" height="162"/>
   <rect class="fil2" x="20972" y="12359" width="2499" height="162"/>
   <rect class="fil2" x="20972" y="12813" width="1222" height="162"/>
   <rect class="fil2" x="22393" y="12813" width="1998" height="162"/>
   <rect class="fil2" x="23635" y="12359" width="2499" height="162"/>
   <rect class="fil2" x="21999" y="11905" width="3060" height="162"/>
   <rect class="fil2" x="21928" y="11452" width="1711" height="162"/>
   <rect class="fil2" x="21929" y="10998" width="2485" height="162"/>
   <rect class="fil1" x="20972" y="14049" width="400" height="394"/>
   <rect class="fil2" x="20972" y="14712" width="400" height="394"/>
   <rect class="fil3 str3" x="20972" y="15374" width="400" height="394"/>
   <rect class="fil2" x="21629" y="14165" width="875" height="162"/>
   <rect class="fil2" x="22657" y="14165" width="1906" height="162"/>
   <rect class="fil2" x="21629" y="14828" width="1353" height="162"/>
   <rect class="fil2" x="23103" y="14828" width="1723" height="162"/>
   <rect class="fil2" x="21629" y="15491" width="551" height="162"/>
   <rect class="fil2" x="22308" y="15491" width="1827" height="162"/>
   <rect class="fil1" x="6877" y="9709" width="4798" height="328"/>
   <rect class="fil2" x="7580" y="10544" width="3391" height="162"/>
   <rect class="fil2" x="7567" y="12813" width="1222" height="162"/>
   <rect class="fil2" x="8987" y="12813" width="1998" height="162"/>
   <rect class="fil2" x="6695" y="12359" width="2499" height="162"/>
   <rect class="fil2" x="9357" y="12359" width="2499" height="162"/>
   <rect class="fil2" x="7232" y="11905" width="875" height="162"/>
   <rect class="fil2" x="8259" y="11905" width="3060" height="162"/>
   <rect class="fil2" x="7943" y="11452" width="744" height="162"/>
   <rect class="fil2" x="8898" y="11452" width="1711" height="162"/>
   <rect class="fil2" x="7555" y="10998" width="744" height="162"/>
   <rect class="fil2" x="8512" y="10998" width="2485" height="162"/>
   <rect class="fil2 str4" x="1323" y="14501" width="795" height="613"/>
   <rect class="fil2 str4" x="2118" y="13926" width="795" height="1188"/>
   <rect class="fil2 str4" x="2914" y="14299" width="795" height="815"/>
   <rect class="fil2 str4" x="3709" y="14807" width="795" height="307"/>
   <rect class="fil2 str4" x="4504" y="14337" width="795" height="778"/>
   <rect class="fil2 str4" x="5299" y="14598" width="795" height="516"/>
   <rect class="fil2 str4" x="6095" y="14971" width="795" height="143"/>
   <rect class="fil2 str4" x="6890" y="14598" width="795" height="516"/>
   <rect class="fil2 str4" x="7685" y="14419" width="795" height="695"/>
   <rect class="fil2 str4" x="8481" y="13844" width="795" height="1270"/>
   <rect class="fil2 str4" x="9276" y="14471" width="795" height="643"/>
   <rect class="fil2 str4" x="10071" y="14777" width="795" height="337"/>
   <rect class="fil2 str4" x="10866" y="13934" width="795" height="1180"/>
   <rect class="fil2 str4" x="11662" y="14143" width="795" height="972"/>
   <rect class="fil2 str4" x="12457" y="14202" width="795" height="912"/>
   <rect class="fil2 str4" x="13252" y="13971" width="795" height="1143"/>
   <rect class="fil2 str4" x="14047" y="14613" width="795" height="501"/>
   <rect class="fil2 str4" x="14843" y="13867" width="795" height="1248"/>
   <rect class="fil2 str4" x="15638" y="14934" width="795" height="181"/>
   <rect class="fil2 str4" x="16433" y="14857" width="795" height="257"/>
   <rect class="fil2" transform="matrix(-0.239791 -0.239791 -0.347888 0.347888 2340.33 16038.9)" width="2582" height="328"/>
   <rect class="fil2" transform="matrix(-0.239791 -0.239791 -0.347888 0.347888 3135.09 16038.9)" width="2582" height="328"/>
   <rect class="fil2" transform="matrix(-0.239791 -0.239791 -0.347888 0.347888 3929.86 16038.9)" width="2582" height="328"/>
   <rect class="fil2" transform="matrix(-0.239791 -0.239791 -0.347888 0.347888 4724.63 16038.9)" width="2582" height="328"/>
   <rect class="fil2" transform="matrix(-0.239791 -0.239791 -0.347888 0.347888 5519.39 16038.9)" width="2582" height="328"/>
   <rect class="fil2" transform="matrix(-0.239791 -0.239791 -0.347888 0.347888 6314.16 16038.9)" width="2582" height="328"/>
   <rect class="fil2" transform="matrix(-0.239791 -0.239791 -0.347888 0.347888 7108.92 16038.9)" width="2582" height="328"/>
   <rect class="fil2" transform="matrix(-0.239791 -0.239791 -0.347888 0.347888 7903.69 16038.9)" width="2582" height="328"/>
   <rect class="fil2" transform="matrix(-0.239791 -0.239791 -0.347888 0.347888 8698.46 16038.9)" width="2582" height="328"/>
   <rect class="fil2" transform="matrix(-0.239791 -0.239791 -0.347888 0.347888 9493.22 16038.9)" width="2582" height="328"/>
   <rect class="fil2" transform="matrix(-0.239791 -0.239791 -0.347888 0.347888 10288 16038.9)" width="2582" height="328"/>
   <rect class="fil2" transform="matrix(-0.239791 -0.239791 -0.347888 0.347888 11082.8 16038.9)" width="2582" height="328"/>
   <rect class="fil2" transform="matrix(-0.239791 -0.239791 -0.347888 0.347888 11877.5 16038.9)" width="2582" height="328"/>
   <rect class="fil2" transform="matrix(-0.239791 -0.239791 -0.347888 0.347888 12672.3 16038.9)" width="2582" height="328"/>
   <rect class="fil2" transform="matrix(-0.239791 -0.239791 -0.347888 0.347888 13467.1 16038.9)" width="2582" height="328"/>
   <rect class="fil2" transform="matrix(-0.239791 -0.239791 -0.347888 0.347888 14261.8 16038.9)" width="2582" height="328"/>
   <rect class="fil2" transform="matrix(-0.239791 -0.239791 -0.347888 0.347888 15056.6 16038.9)" width="2582" height="328"/>
   <rect class="fil2" transform="matrix(-0.239791 -0.239791 -0.347888 0.347888 15851.4 16038.9)" width="2582" height="328"/>
   <rect class="fil2" transform="matrix(-0.239791 -0.239791 -0.347888 0.347888 16646.1 16038.9)" width="2582" height="328"/>
   <rect class="fil2" transform="matrix(-0.239791 -0.239791 -0.347888 0.347888 17440.9 16038.9)" width="2582" height="328"/>
   <g>
    <rect class="fil1" x="26535" y="4825" width="805" height="162"/>
    <rect class="fil1" x="27875" y="4825" width="1368" height="162"/>
    <rect class="fil1" x="29791" y="4825" width="1368" height="162"/>
    <rect class="fil1" x="26535" y="5489" width="805" height="162"/>
    <rect class="fil1" x="27875" y="5489" width="1368" height="162"/>
    <rect class="fil1" x="29791" y="5489" width="1368" height="162"/>
    <rect class="fil1" x="26535" y="6146" width="805" height="162"/>
    <rect class="fil1" x="27875" y="6146" width="1368" height="162"/>
    <rect class="fil1" x="29791" y="6146" width="1368" height="162"/>
    <rect class="fil1" x="26535" y="6809" width="805" height="162"/>
    <rect class="fil1" x="27875" y="6809" width="1368" height="162"/>
    <rect class="fil1" x="29791" y="6809" width="1368" height="162"/>
    <rect class="fil1" x="31649" y="4825" width="684" height="162"/>
    <rect class="fil1" x="31649" y="5489" width="684" height="162"/>
    <rect class="fil1" x="31649" y="6146" width="684" height="162"/>
    <rect class="fil1" x="31649" y="6809" width="684" height="162"/>
   </g>
  </g>
 </g>
</svg>
