<svg xmlns="http://www.w3.org/2000/svg" width="615.066" height="306.112" viewBox="0 0 36714 18272" shape-rendering="geometricPrecision" text-rendering="geometricPrecision" image-rendering="optimizeQuality" fill-rule="evenodd" clip-rule="evenodd"><defs><style><![CDATA[
    .str4 {stroke:white;stroke-width:76.3903}
    .str2 {stroke:#0096DC;stroke-width:19.0863}
    .str3 {stroke:#E6E6E6;stroke-width:19.0863}
    .str5 {stroke:#E6E6E6;stroke-width:152.803}
    .str0 {stroke:#E6E6E6;stroke-width:39.797}
    .str1 {stroke:#0096DC;stroke-width:17.1912}
    .fil1 {fill:none}
    .fil2 {fill:#0096DC}
    .fil3 {fill:#E6E6E6}
    .fil0 {fill:white}
   ]]></style></defs><path class="fil0 str0" d="M20 2441h36675v15811H20z"/><path class="fil1 str0" d="M20 20h36675v2421H20z"/><path class="fil2 str1" d="M33052 20h3642v1211h-3642zm0 1211h3642v1211h-3642zM20 20h3642v2421H20zm3642 0h29390v809H3662zm0 809h29390v1613H3662z"/><path class="fil3" d="M535 402h2612v1656H535zm22655 660h1146v1146h-1146zm-1802 0h1146v1146h-1146zm-1802 0h1146v1146h-1146zm-1802 0h1146v1146h-1146zm-1802 0h1146v1146h-1146zm-1802 0h1146v1146h-1146zm-1802 0h1146v1146h-1146zm-1005-802h2582v328h-2582zm2918 0h4798v328h-4798zm5514 0h2582v328h-2582zm2954 0h2582v328h-2582zm10661-17h764v764h-764zm1071 0h764v764h-764zm1071 0h764v764h-764zm-2134 1429h876v328h-876zm1097 0h1794v328h-1794z"/><path class="fil2 str2" d="M20 2441h3642v15811H20z"/><path class="fil3" d="M388 17156h764v764H388zm1071 0h764v764h-764zm1071 0h764v764h-764zM550 3025h1095v328H550zm1502 0h1095v328H2052zM550 3562h1319v328H550zm1647 0h950v328h-950zM550 4099h1024v328H550zm1408 0h1188v328H1958zM550 4637h819v328H550zm1166 0h1431v328H1716zM550 5174h1095v328H550zm1502 0h1095v328H2052z"/><path class="fil1 str3" d="M28291 2823h8016v4887h-8016z"/><path class="fil3 str3" d="M4050 11206h15934v6632H4050z"/><path class="fil1 str3" d="M4050 8093h15934v2732H4050z"/><path class="fil2" d="M28291 2823h8016v815h-8016z"/><path class="fil3" d="M28596 3882h2540v328h-2540zm4040 0h3350v328h-3350zm-4040 815h2801v328h-2801zm3703 0h3687v328h-3687zm-3703 815h2144v328h-2144zm4443 0h2947v328h-2947zm-4443 815h2323v328h-2323zm4040 0h3350v328h-3350zm-4040 815h1099v328h-1099zm4905 0h2485v328h-2485z"/><path class="fil2" d="M4050 8093h764v2732h-764z"/><path class="fil1 str3" d="M4814 8093h7585v1366H4814zm7585 682h7585v1366h-7585z"/><path class="fil1 str3" d="M12399 8093h7585v683h-7585z"/><path class="fil2" d="M12399 10141h7585v683h-7585z"/><path class="fil3" d="M12590 9294h2323v328h-2323zm3853 0h3350v328h-3350zm-3863-931h899v142h-899zm5583 0h1630v142h-1630z"/><path class="fil1 str3" d="M4814 9458h7585v1366H4814z"/><path class="fil3" d="M5005 8284h1028v142H5005zm0 1366h886v142h-886zm2912 283h4292v328H7917zm895-1322h3397v328H8812z"/><path class="fil1 str3" d="M20372 8093h15934v2732H20372z"/><path class="fil2" d="M35542 8093h764v2732h-764z"/><path class="fil1 str3" d="M27957 8093h7585v1366h-7585zm-7585 682h7585v1366h-7585z"/><path class="fil1 str3" d="M20372 8093h7585v683h-7585z"/><path class="fil2" d="M20372 10141h7585v683h-7585z"/><path class="fil3" d="M25443 9294h2323v328h-2323zm-4880 0h3350v328h-3350zm5416-931h1797v142h-1797zm-5416 0h815v142h-815z"/><path class="fil1 str3" d="M27957 9458h7585v1366h-7585z"/><path class="fil3" d="M34324 8284h1028v142h-1028zm142 1366h886v142h-886zm-6318 283h4292v328h-4292zm0-1322h3397v328h-3397z"/><path class="fil2" d="M4050 11206h15934v829H4050z"/><path class="fil0" d="M4050 12863h15934v829H4050zm0 1657h15934v829H4050zm0 1658h15934v829H4050zm330-4721h1720v328H4380zm-18.55-1484.61V8944.424H4503V9972.39zm31492.15 0V8944.424h141.55V9972.39zM16869 11550h2633v142h-2633zm-1619 0h1156v142h-1156z"/><path class="fil3 str3" d="M20372 11206h15934v6632H20372z"/><path class="fil2" d="M20372 11206h15934v829H20372z"/><path class="fil0" d="M20372 12863h15934v829H20372zm0 1657h15934v829H20372zm0 1658h15934v829H20372zm13885-4721h1720v328h-1720zm-11784 93h2633v142h-2633zm-1619 0h1156v142h-1156z"/><path class="fil3 str4" d="M4048 6247h795v1456h-795zm795 134h795v1322h-795zm795 709h795v613h-795zm795-575h795v1188h-795zm796 373h795v815h-795zm795 508h795v307h-795zm795-470h795v778h-795zm795 261h795v516h-795zm796 373h795v143h-795zm795-373h795v516h-795zm795-179h795v695h-795zm795-575h795v1270h-795zm796 627h795v643h-795zm795 306h795v337h-795zm795-843h795v1180h-795zm795 209h795v972h-795zm796 59h795v912h-795zm795-231h795v1143h-795zm795 642h795v501h-795zm796-747h795v1248h-795zm795 1067h795v181h-795zm795-76h795v257h-795zm795 24h795v233h-795zm818-298h795v539h-795z"/><path class="fil3 str4" d="M23134 7321h795v382h-795zm795-433h795v815h-795zm795 172h795v643h-795zm796-508h795v1151h-795zm795 172h795v979h-795zm795-418h795v1397h-795z"/><path class="fil1 str5" d="M4445 2991l795 299 796 1577 795-1278 795 829 795 1130 796-1046 795 581 795 830 796-830 795-399 795-1278 795 1395 796 680 795-1876 795 465 795 133 796-515 795 1428 795-1660 795 2374 796-171 795 55 818-664 772 332 796-964 795 383 795-1129 796 381 795-929"/><path class="fil1 str3" d="M4050 2823h23852v4887H4050z"/><path class="fil0" d="M15055 10412h2273v142h-2273zm7973 0h2273v142h-2273z"/></svg>