<svg xmlns="http://www.w3.org/2000/svg" width="615.066" height="305.94" viewBox="0 0 41382 20584" shape-rendering="geometricPrecision" text-rendering="geometricPrecision" image-rendering="optimizeQuality" fill-rule="evenodd" clip-rule="evenodd"><defs><style><![CDATA[
    .str3 {stroke:white;stroke-width:86.103}
    .str1 {stroke:#0096DC;stroke-width:21.513}
    .str2 {stroke:#E6E6E6;stroke-width:21.513}
    .str4 {stroke:#E6E6E6;stroke-width:172.231}
    .str0 {stroke:#E6E6E6;stroke-width:44.857}
    .fil2 {fill:none}
    .fil1 {fill:#37556E}
    .fil3 {fill:#E6E6E6}
    .fil0 {fill:white}
   ]]></style></defs><g id="Layer_x0020_1"><path class="fil0 str0" d="M22 2740h41338v17822H22z"/><path class="fil1 str1" d="M22 11h41338v2729H22z"/><path class="fil0" d="M603 442h2944v1867H603zM26138 1185h1292v1292h-1292zM24107 1185h1292v1292h-1292zM22076 1185h1292v1292h-1292zM20045 1185h1292v1292h-1292zM18014 1185h1292v1292h-1292zM15983 1185h1292v1292h-1292zM13952 1185h1292v1292h-1292zM12819 281h2910v370h-2910zM16108 281h5408v370h-5408zM22323 281h2910v370h-2910zM25653 281h2910v370h-2910zM37454 478h861v861h-861zM38661 478h861v861h-861zM39868 478h861v861h-861zM37463 1873h988v370h-988zM38699 1873h2022v370h-2022z"/><path class="fil1 str1" d="M22 2740h4105v17822H22z"/><path class="fil0" d="M438 19325h861v861H438zM1645 19325h861v861h-861zM2851 19325h861v861h-861zM620 3398h1234v370H620zM2313 3398h1234v370H2313zM620 4003h1486v370H620zM2477 4003h1070v370H2477zM620 4609h1154v370H620zM2207 4609h1340v370H2207zM620 5214h923v370H620zM1934 5214h1613v370H1934zM620 5820h1234v370H620zM2313 5820h1234v370H2313z"/><path class="fil2 str2" d="M31888 3171h9035v5509h-9035z"/><path class="fil3 str2" d="M4565 12620h17960v7475H4565z"/><path class="fil2 str2" d="M4565 9110h17960v3079H4565z"/><path class="fil1" d="M31888 3171h9035v919h-9035z"/><path class="fil3" d="M32232 4363h2862v370h-2862zM36785 4363h3776v370h-3776zM32232 5282h3157v370h-3157zM36405 5282h4156v370h-4156zM32232 6201h2417v370h-2417zM37239 6201h3322v370h-3322zM32232 7119h2618v370h-2618zM36785 7119h3776v370h-3776zM32232 8038h1239v370h-1239zM37761 8038h2801v370h-2801z"/><path class="fil1" d="M4565 9110h861v3079h-861z"/><path class="fil2 str2" d="M5426 9110h8549v1540H5426zM13976 9880h8549v1540h-8549zM13976 9110h8549v770h-8549z"/><path class="fil1" d="M13976 11419h8549v770h-8549z"/><path class="fil3" d="M14191 10464h2618v370h-2618zM18534 10464h3776v370h-3776zM14180 9415h1013v160h-1013zM20472 9415h1838v160h-1838z"/><path class="fil2 str2" d="M5426 10649h8549v1540H5426z"/><path class="fil3" d="M5642 9325h1159v160H5642zM5642 10865h998v160h-998zM8923 11184h4838v370H8923zM9932 9695h3829v370H9932z"/><path class="fil2 str2" d="M22963 9110h17960v3079H22963z"/><path class="fil1" d="M40061 9110h861v3079h-861z"/><path class="fil2 str2" d="M31512 9110h8549v1540h-8549zM22963 9880h8549v1540h-8549zM22963 9110h8549v770h-8549z"/><path class="fil1" d="M22963 11419h8549v770h-8549z"/><path class="fil3" d="M28678 10464h2618v370h-2618zM23178 10464h3776v370h-3776zM29283 9415h2026v160h-2026zM23178 9415h919v160h-919z"/><path class="fil2 str2" d="M31512 10649h8549v1540h-8549z"/><path class="fil3" d="M38688 9325h1159v160h-1159zM38848 10865h998v160h-998zM31727 11184h4838v370h-4838zM31727 9695h3829v370h-3829z"/><path class="fil1" d="M4565 12620h17960v934H4565z"/><path class="fil0" d="M4565 14487h17960v934H4565zM4565 16355h17960v934H4565zM4565 18223h17960v934H4565zM4937 12901h1938v370H4937zM4915.98 11228.7v-1158.552h159.676V11228.7zM40412.2 11228.7v-1158.552h159.676V11228.7zM19014 13007h2968v160h-2968zM17189 13007h1303v160h-1303z"/><path class="fil3 str2" d="M22963 12620h17960v7475H22963z"/><path class="fil1" d="M22963 12620h17960v934H22963z"/><path class="fil0" d="M22963 14487h17960v934H22963zM22963 16355h17960v934H22963zM22963 18223h17960v934H22963zM38613 12901h1938v370h-1938zM25331 13007h2968v160h-2968zM23506 13007h1303v160h-1303z"/><path class="fil3 str3" d="M4562 7029h896v1642h-896zM5459 7180h896v1490h-896zM6355 7979h896v691h-896zM7251 7332h896v1339h-896zM8148 7752h896v919h-896zM9044 8324h896v347h-896zM9940 7794h896v876h-896zM10837 8089h896v582h-896zM11733 8509h896v162h-896zM12630 8089h896v582h-896zM13526 7887h896v784h-896zM14422 7239h896v1431h-896zM15319 7946h896v725h-896zM16215 8291h896v380h-896zM17111 7340h896v1331h-896zM18008 7576h896v1095h-896zM18904 7643h896v1028h-896zM19801 7382h896v1288h-896zM20697 8106h896v565h-896zM21593 7265h896v1406h-896zM22490 8467h896v204h-896zM23386 8381h896v290h-896zM24282 8408h896v262h-896zM25204 8072h896v607h-896z"/><path class="fil3 str3" d="M26075 8240h896v431h-896zM26972 7752h896v919h-896zM27868 7946h896v725h-896zM28764 7374h896v1297h-896zM29661 7567h896v1103h-896zM30557 7096h896v1574h-896z"/><path class="fil2 str4" d="M5010 3360l897 336 896 1778 896-1441 897 935 896 1273 897-1179 896 655 896 936 897-936 896-449 896-1441 897 1572 896 767 897-2114 896 524 896 150 897-580 896 1609 897-1871 896 2675 896-192 897 61 921-748 871 374 897-1086 896 431 897-1272 896 430 896-1048"/><path class="fil2 str2" d="M4565 3171h26885v5509H4565z"/><path class="fil0" d="M16969 11724h2563v160h-2563zM25956 11724h2563v160h-2563z"/></g></svg>