<?xml version="1.0" encoding="UTF-8"?>
<!DOCTYPE svg PUBLIC "-//W3C//DTD SVG 1.1//EN" "http://www.w3.org/Graphics/SVG/1.1/DTD/svg11.dtd">
<!-- Creator: CorelDRAW X7 -->
<svg xmlns="http://www.w3.org/2000/svg" xml:space="preserve" width="6.40694in" height="3.18867in" version="1.1" style="shape-rendering:geometricPrecision; text-rendering:geometricPrecision; image-rendering:optimizeQuality; fill-rule:evenodd; clip-rule:evenodd"
viewBox="0 0 32382 16116"
 xmlns:xlink="http://www.w3.org/1999/xlink">
 <defs>
  <style type="text/css">
   <![CDATA[
    .str0 {stroke:#E6E6E6;stroke-width:35.1009}
    .str1 {stroke:#0096DC;stroke-width:15.1626}
    .fil0 {fill:none}
    .fil1 {fill:#0096DC}
    .fil2 {fill:#E6E6E6}
    .fil3 {fill:white}
   ]]>
  </style>
 </defs>
 <g id="Layer_x0020_1">
  <metadata id="CorelCorpID_0Corel-Layer"/>
  <rect class="fil0 str0" x="18" y="2153" width="32347" height="13945"/>
  <rect class="fil0 str0" x="186" y="4047" width="32010" height="11883"/>
  <rect class="fil0 str0" x="18" y="18" width="32347" height="2136"/>
  <rect class="fil1 str1" x="29152" y="18" width="3213" height="1068"/>
  <rect class="fil1 str1" x="29152" y="1085" width="3213" height="1068"/>
  <rect class="fil1 str1" x="18" y="18" width="3213" height="2136"/>
  <rect class="fil1 str1" x="3230" y="18" width="25922" height="713"/>
  <rect class="fil1 str1" x="3230" y="731" width="25922" height="1422"/>
  <rect class="fil2" x="472" y="355" width="2303" height="1461"/>
  <rect class="fil2" x="20453" y="937" width="1011" height="1011"/>
  <rect class="fil2" x="18864" y="937" width="1011" height="1011"/>
  <rect class="fil2" x="17275" y="937" width="1011" height="1011"/>
  <rect class="fil2" x="15686" y="937" width="1011" height="1011"/>
  <rect class="fil2" x="14096" y="937" width="1011" height="1011"/>
  <rect class="fil2" x="12507" y="937" width="1011" height="1011"/>
  <rect class="fil2" x="10918" y="937" width="1011" height="1011"/>
  <rect class="fil2" x="10031" y="229" width="2277" height="290"/>
  <rect class="fil2" x="12604" y="229" width="4232" height="290"/>
  <rect class="fil2" x="17468" y="229" width="2277" height="290"/>
  <rect class="fil2" x="20074" y="229" width="2277" height="290"/>
  <rect class="fil2" x="29477" y="214" width="674" height="674"/>
  <rect class="fil2" x="30421" y="214" width="674" height="674"/>
  <rect class="fil2" x="31366" y="214" width="674" height="674"/>
  <g id="_627316880">
   <rect class="fil2" x="29483" y="1474" width="773" height="290"/>
   <rect class="fil2" x="30451" y="1474" width="1583" height="290"/>
  </g>
  <rect class="fil1" x="186" y="3290" width="32010" height="757"/>
  <rect class="fil2" x="14075" y="2631" width="4232" height="290"/>
  <rect class="fil1" x="31370" y="2412" width="674" height="674"/>
  <rect class="fil3" x="2175" y="3524" width="2277" height="290"/>
  <rect class="fil3" x="9756" y="3524" width="2277" height="290"/>
  <rect class="fil3" x="17337" y="3524" width="2277" height="290"/>
  <rect class="fil3" x="24919" y="3524" width="2277" height="290"/>
  <rect class="fil2" x="186" y="4047" width="32010" height="594"/>
  <rect class="fil2" x="186" y="5235" width="32010" height="594"/>
  <rect class="fil2" x="186" y="6423" width="32010" height="594"/>
  <rect class="fil2" x="186" y="7610" width="32010" height="594"/>
  <rect class="fil2" x="186" y="8798" width="32010" height="594"/>
  <rect class="fil2" x="186" y="9986" width="32010" height="594"/>
  <rect class="fil2" x="186" y="11174" width="32010" height="594"/>
  <rect class="fil2" x="186" y="12361" width="32010" height="594"/>
  <rect class="fil2" x="186" y="13549" width="32010" height="594"/>
  <rect class="fil2" x="186" y="14737" width="32010" height="594"/>
  <rect class="fil3" x="1378" y="4272" width="3870" height="145"/>
  <rect class="fil2" x="1487" y="4856" width="3652" height="145"/>
  <rect class="fil3" x="8959" y="4272" width="2577" height="145"/>
  <rect class="fil3" x="11834" y="4272" width="1218" height="145"/>
  <g id="_631210640">
   <rect class="fil2" x="10476" y="4851" width="2577" height="145"/>
   <rect class="fil2" x="8959" y="4851" width="1218" height="145"/>
  </g>
  <rect class="fil1" x="23754" y="4272" width="1218" height="145"/>
  <rect class="fil1" x="25448" y="4272" width="1218" height="145"/>
  <rect class="fil1" x="27155" y="4272" width="1218" height="145"/>
  <rect class="fil1" x="23754" y="4866" width="1218" height="145"/>
  <rect class="fil1" x="25448" y="4866" width="1218" height="145"/>
  <rect class="fil1" x="27155" y="4866" width="1218" height="145"/>
  <rect class="fil3" x="16292" y="4272" width="4368" height="145"/>
  <rect class="fil2" x="17208" y="4856" width="2535" height="145"/>
  <rect class="fil3" x="2172" y="5456" width="2283" height="145"/>
  <rect class="fil2" x="1740" y="6040" width="3146" height="145"/>
  <rect class="fil3" x="9446" y="5456" width="2090" height="145"/>
  <rect class="fil3" x="11834" y="5456" width="834" height="145"/>
  <g id="_944023744">
   <rect class="fil2" x="10384" y="6035" width="3020" height="145"/>
   <rect class="fil2" x="8607" y="6035" width="1428" height="145"/>
  </g>
  <rect class="fil1" x="23754" y="5456" width="1218" height="145"/>
  <rect class="fil1" x="25448" y="5456" width="1218" height="145"/>
  <rect class="fil1" x="27155" y="5456" width="1218" height="145"/>
  <rect class="fil1" x="23754" y="6050" width="1218" height="145"/>
  <rect class="fil1" x="25448" y="6050" width="1218" height="145"/>
  <rect class="fil1" x="27155" y="6050" width="1218" height="145"/>
  <rect class="fil3" x="17661" y="5456" width="1630" height="145"/>
  <rect class="fil2" x="16703" y="6040" width="3546" height="145"/>
 </g>
</svg>
