<?xml version="1.0" encoding="UTF-8"?>
<!DOCTYPE svg PUBLIC "-//W3C//DTD SVG 1.1//EN" "http://www.w3.org/Graphics/SVG/1.1/DTD/svg11.dtd">
<!-- Creator: CorelDRAW X7 -->
<svg xmlns="http://www.w3.org/2000/svg" xml:space="preserve" width="6.40694in" height="3.18867in" version="1.1" style="shape-rendering:geometricPrecision; text-rendering:geometricPrecision; image-rendering:optimizeQuality; fill-rule:evenodd; clip-rule:evenodd"
viewBox="0 0 26757 13316"
 xmlns:xlink="http://www.w3.org/1999/xlink">
 <defs>
  <style type="text/css">
   <![CDATA[
    .str1 {stroke:#E6E6E6;stroke-width:13.9096}
    .str0 {stroke:#E6E6E6;stroke-width:29.003}
    .str2 {stroke:#CCCCCC;stroke-width:12.5285}
    .str3 {stroke:#E6E6E6;stroke-width:12.5285}
    .str4 {stroke:white;stroke-width:12.5285}
    .fil1 {fill:none}
    .fil2 {fill:#37556E}
    .fil3 {fill:#E6E6E6}
    .fil0 {fill:white}
   ]]>
  </style>
 </defs>
 <g id="Layer_x0020_1">
  <metadata id="CorelCorpID_0Corel-Layer"/>
  <rect class="fil0 str0" x="15" y="1779" width="26728" height="11523"/>
  <rect class="fil1 str1" x="427" y="3344" width="25902" height="1963"/>
  <rect class="fil2 str0" x="14" y="14" width="26728" height="1765"/>
  <rect class="fil0" x="390" y="293" width="1903" height="1207"/>
  <rect class="fil0" x="16900" y="774" width="835" height="835"/>
  <rect class="fil0" x="15587" y="774" width="835" height="835"/>
  <rect class="fil0" x="14274" y="774" width="835" height="835"/>
  <rect class="fil0" x="12961" y="774" width="835" height="835"/>
  <rect class="fil0" x="11647" y="774" width="835" height="835"/>
  <rect class="fil0" x="10334" y="774" width="835" height="835"/>
  <rect class="fil0" x="9021" y="774" width="835" height="835"/>
  <rect class="fil0" x="8289" y="190" width="1881" height="239"/>
  <rect class="fil0" x="10415" y="190" width="3496" height="239"/>
  <rect class="fil0" x="14433" y="190" width="1881" height="239"/>
  <rect class="fil0" x="16587" y="190" width="1881" height="239"/>
  <rect class="fil0" x="24217" y="316" width="557" height="557"/>
  <rect class="fil0" x="24997" y="316" width="557" height="557"/>
  <rect class="fil0" x="25777" y="316" width="557" height="557"/>
  <rect class="fil0" x="24222" y="1218" width="639" height="239"/>
  <rect class="fil0" x="25021" y="1218" width="1308" height="239"/>
  <rect class="fil2" x="427" y="2719" width="25902" height="625"/>
  <rect class="fil3" x="11630" y="2174" width="3496" height="239"/>
  <rect class="fil2" x="25772" y="1993" width="557" height="557"/>
  <rect class="fil0" x="1912" y="2912" width="1863" height="239"/>
  <rect class="fil0" x="8114" y="2912" width="1863" height="239"/>
  <rect class="fil0" x="14316" y="2912" width="1863" height="239"/>
  <rect class="fil0" x="20518" y="2912" width="1863" height="239"/>
  <rect class="fil3" x="427" y="4816" width="25902" height="491"/>
  <rect class="fil3" x="427" y="3835" width="25902" height="491"/>
  <rect class="fil3" x="1261" y="3530" width="3166" height="120"/>
  <rect class="fil0" x="1350" y="4012" width="2988" height="120"/>
  <rect class="fil3" x="7462" y="3530" width="2108" height="120"/>
  <rect class="fil3" x="9814" y="3530" width="997" height="120"/>
  <rect class="fil0" x="8703" y="4008" width="2108" height="120"/>
  <rect class="fil0" x="7462" y="4008" width="997" height="120"/>
  <rect class="fil2" x="19565" y="3530" width="997" height="120"/>
  <rect class="fil2" x="20951" y="3530" width="997" height="120"/>
  <rect class="fil2" x="22347" y="3530" width="997" height="120"/>
  <rect class="fil2" x="19565" y="4021" width="997" height="120"/>
  <rect class="fil2" x="20951" y="4021" width="997" height="120"/>
  <rect class="fil2" x="22347" y="4021" width="997" height="120"/>
  <rect class="fil3" x="13461" y="3530" width="3573" height="120"/>
  <rect class="fil0" x="14210" y="4012" width="2074" height="120"/>
  <rect class="fil3" x="1910" y="4508" width="1867" height="120"/>
  <rect class="fil0" x="1557" y="4991" width="2574" height="120"/>
  <rect class="fil3" x="7860" y="4508" width="1710" height="120"/>
  <rect class="fil3" x="9814" y="4508" width="682" height="120"/>
  <rect class="fil0" x="8628" y="4986" width="2471" height="120"/>
  <rect class="fil0" x="7174" y="4986" width="1168" height="120"/>
  <rect class="fil2" x="19565" y="4508" width="997" height="120"/>
  <rect class="fil2" x="20951" y="4508" width="997" height="120"/>
  <rect class="fil2" x="22347" y="4508" width="997" height="120"/>
  <rect class="fil2" x="19565" y="4999" width="997" height="120"/>
  <rect class="fil2" x="20951" y="4999" width="997" height="120"/>
  <rect class="fil2" x="22347" y="4999" width="997" height="120"/>
  <rect class="fil3" x="14581" y="4508" width="1333" height="120"/>
  <rect class="fil0" x="13797" y="4991" width="2901" height="120"/>
  <g id="_1021329376">
   <rect class="fil2" x="24997" y="1993" width="557" height="557"/>
   <rect class="fil2" x="24217" y="1993" width="557" height="557"/>
  </g>
  <g id="_1021344992">
   <g>
    <circle class="fil1 str0" cx="12959" cy="9183" r="2488"/>
    <path class="fil2" d="M14662 7369c-445,-418 -1044,-675 -1703,-675l0 2489 1703 -1814z"/>
    <path class="fil3 str2" d="M12959 9183l1703 -1814c265,249 472,552 607,890l-2310 924z"/>
    <path class="fil0 str3" d="M12959 9183l2310 -924c212,529 235,1115 67,1660l-2377 -736z"/>
   </g>
   <g>
    <rect class="fil2" x="5487" y="6975" width="3496" height="239"/>
    <rect class="fil3" x="6512" y="7584" width="2471" height="118"/>
    <rect class="fil3" x="8441" y="7914" width="542" height="118"/>
    <rect class="fil3" x="8441" y="8245" width="542" height="118"/>
    <rect class="fil3" x="8346" y="8575" width="638" height="118"/>
    <rect class="fil3" x="7162" y="8906" width="1821" height="118"/>
    <rect class="fil3" x="8093" y="9237" width="890" height="118"/>
    <rect class="fil3" x="6492" y="9237" width="1456" height="118"/>
    <rect class="fil3" x="5222" y="8906" width="1821" height="118"/>
    <rect class="fil3" x="6005" y="8575" width="2230" height="118"/>
    <rect class="fil3" x="7040" y="8245" width="1247" height="118"/>
    <rect class="fil3" x="6475" y="7914" width="1811" height="118"/>
    <rect class="fil2" x="8692" y="10138" width="292" height="287"/>
    <rect class="fil3" x="8692" y="10621" width="292" height="287"/>
    <rect class="fil0 str3" x="8692" y="11104" width="292" height="287"/>
    <rect class="fil3" x="7867" y="10222" width="638" height="118"/>
    <rect class="fil3" x="6366" y="10222" width="1389" height="118"/>
    <rect class="fil3" x="7519" y="10705" width="986" height="118"/>
    <rect class="fil3" x="6175" y="10705" width="1256" height="118"/>
    <rect class="fil3" x="8103" y="11188" width="402" height="118"/>
    <rect class="fil3" x="6679" y="11188" width="1332" height="118"/>
   </g>
   <g>
    <rect class="fil2" x="16934" y="7300" width="2471" height="169"/>
    <g>
     <rect class="fil3" x="19761" y="7110" width="1746.73" height="83.1994"/>
     <rect class="fil3" x="19761" y="7343" width="383.319" height="83.1994"/>
     <rect class="fil3" x="19761" y="7577" width="383.319" height="83.1994"/>
     <rect class="fil3" x="20253" y="7577" width="881.418" height="83.1994"/>
     <rect class="fil3" x="20254" y="7343" width="1280.11" height="83.1994"/>
    </g>
    <rect class="fil3" x="16934" y="8499" width="2232" height="169"/>
    <g>
     <rect class="fil3" x="19761" y="8776" width="1746.73" height="83.1994"/>
     <rect class="fil3" x="19761" y="8542" width="383.319" height="83.1994"/>
     <rect class="fil3" x="19761" y="8308" width="383.319" height="83.1994"/>
     <rect class="fil3" x="20253" y="8308" width="881.418" height="83.1994"/>
     <rect class="fil3" x="20254" y="8542" width="1280.11" height="83.1994"/>
    </g>
    <rect class="fil0 str3" x="16934" y="9697" width="2471" height="169"/>
    <g>
     <rect class="fil3" x="19761" y="9507" width="1567.12" height="83.1994"/>
     <rect class="fil3" x="19761" y="9740" width="383.319" height="83.1994"/>
     <rect class="fil3" x="19761" y="9974" width="383.319" height="83.1994"/>
     <rect class="fil3" x="20253" y="9974" width="1145.85" height="83.1994"/>
     <rect class="fil3" x="20254" y="9740" width="524.915" height="83.1994"/>
    </g>
    <rect class="fil3 str4" x="16934" y="10896" width="2471" height="169"/>
    <g>
     <rect class="fil3" x="19761" y="11173" width="1567.12" height="83.1994"/>
     <rect class="fil3" x="19761" y="10939" width="383.319" height="83.1994"/>
     <rect class="fil3" x="19761" y="10705" width="383.319" height="83.1994"/>
     <rect class="fil3" x="20253" y="10705" width="1145.85" height="83.1994"/>
     <rect class="fil3" x="20254" y="10939" width="524.915" height="83.1994"/>
    </g>
   </g>
  </g>
  <g id="_1021373472">
   <rect class="fil2" x="1208" y="1993" width="557" height="557"/>
   <rect class="fil2" x="427" y="1993" width="557" height="557"/>
  </g>
 </g>
</svg>
