<?xml version="1.0" encoding="UTF-8"?>
<!DOCTYPE svg PUBLIC "-//W3C//DTD SVG 1.1//EN" "http://www.w3.org/Graphics/SVG/1.1/DTD/svg11.dtd">
<!-- Creator: CorelDRAW X7 -->
<svg xmlns="http://www.w3.org/2000/svg" xml:space="preserve" width="6.40718in" height="3.18874in" version="1.1" style="shape-rendering:geometricPrecision; text-rendering:geometricPrecision; image-rendering:optimizeQuality; fill-rule:evenodd; clip-rule:evenodd"
viewBox="0 0 62353 31032"
 xmlns:xlink="http://www.w3.org/1999/xlink">
 <defs>
  <style type="text/css">
   <![CDATA[
    .str1 {stroke:#E6E6E6;stroke-width:32.4138}
    .str0 {stroke:#E6E6E6;stroke-width:67.5861}
    .fil1 {fill:none}
    .fil2 {fill:#37556E}
    .fil3 {fill:#E6E6E6}
    .fil0 {fill:white}
   ]]>
  </style>
 </defs>
 <g id="Layer_x0020_1">
  <metadata id="CorelCorpID_0Corel-Layer"/>
  <polygon class="fil0 str0" points="36,4147 62320,4147 62320,30998 36,30998 "/>
  <polygon class="fil1 str1" points="996,7794 61355,7794 61355,12368 996,12368 "/>
  <polygon class="fil2 str0" points="34,34 62317,34 62317,4147 34,4147 "/>
  <path class="fil0" d="M910 684l4434 0 0 2813 -4434 0 0 -2813zm38473 1121l1946 0 0 1946 -1946 0 0 -1946zm-3060 0l1946 0 0 1946 -1946 0 0 -1946zm-3060 0l1946 0 0 1946 -1946 0 0 -1946zm-3059 0l1946 0 0 1946 -1946 0 0 -1946zm-3062 0l1946 0 0 1946 -1946 0 0 -1946zm-3060 0l1946 0 0 1946 -1946 0 0 -1946zm-3059 0l1945 0 0 1946 -1945 0 0 -1946zm-1706 -1361l4383 0 0 557 -4383 0 0 -557zm4954 0l8147 0 0 557 -8147 0 0 -557zm9363 0l4383 0 0 557 -4383 0 0 -557zm5019 0l4384 0 0 557 -4384 0 0 -557zm17780 294l1298 0 0 1297 -1298 0 0 -1297zm1818 0l1298 0 0 1297 -1298 0 0 -1297zm1817 0l1298 0 0 1297 -1298 0 0 -1297zm-3623 2101l1489 0 0 557 -1489 0 0 -557zm1862 0l3048 0 0 557 -3048 0 0 -557z"/>
  <polygon class="fil2" points="996,6337 61355,6337 61355,7794 996,7794 "/>
  <polygon class="fil3" points="27102,5067 35249,5067 35249,5624 27102,5624 "/>
  <polygon class="fil2" points="60057,4645 61355,4645 61355,5943 60057,5943 "/>
  <path class="fil0" d="M4457 6787l4341 0 0 557 -4341 0 0 -557zm14452 0l4341 0 0 557 -4341 0 0 -557zm14452 0l4342 0 0 557 -4342 0 0 -557zm14453 0l4341 0 0 557 -4341 0 0 -557z"/>
  <path class="fil3" d="M996 11224l60359 0 0 1144 -60359 0 0 -1144zm0 -2286l60359 0 0 1144 -60359 0 0 -1144zm1944 -711l7377 0 0 280 -7377 0 0 -280z"/>
  <polygon class="fil0" points="3147,9350 10110,9350 10110,9630 3147,9630 "/>
  <path class="fil3" d="M17390 8227l4912 0 0 280 -4912 0 0 -280zm5480 0l2324 0 0 280 -2324 0 0 -280z"/>
  <path class="fil0" d="M20282 9341l4912 0 0 279 -4912 0 0 -279zm-2892 0l2323 0 0 279 -2323 0 0 -279z"/>
  <path class="fil2" d="M45593 8227l2323 0 0 280 -2323 0 0 -280zm3230 0l2323 0 0 280 -2323 0 0 -280zm3253 0l2323 0 0 280 -2323 0 0 -280zm-6483 1144l2323 0 0 280 -2323 0 0 -280zm3230 0l2323 0 0 280 -2323 0 0 -280zm3253 0l2323 0 0 280 -2323 0 0 -280z"/>
  <polygon class="fil3" points="31369,8227 39695,8227 39695,8507 31369,8507 "/>
  <polygon class="fil0" points="33114,9350 37947,9350 37947,9630 33114,9630 "/>
  <polygon class="fil3" points="4452,10506 8803,10506 8803,10786 4452,10786 "/>
  <polygon class="fil0" points="3629,11632 9628,11632 9628,11911 3629,11911 "/>
  <path class="fil3" d="M18317 10506l3985 0 0 280 -3985 0 0 -280zm4553 0l1590 0 0 280 -1590 0 0 -280z"/>
  <path class="fil0" d="M20107 11620l5758 0 0 279 -5758 0 0 -279zm-3388 0l2721 0 0 279 -2721 0 0 -279z"/>
  <path class="fil2" d="M45593 10506l2323 0 0 280 -2323 0 0 -280zm3230 0l2323 0 0 280 -2323 0 0 -280zm3253 0l2323 0 0 280 -2323 0 0 -280zm-6483 1144l2323 0 0 280 -2323 0 0 -280zm3230 0l2323 0 0 280 -2323 0 0 -280zm3253 0l2323 0 0 280 -2323 0 0 -280z"/>
  <polygon class="fil3" points="33979,10506 37085,10506 37085,10786 33979,10786 "/>
  <polygon class="fil0" points="32152,11632 38912,11632 38912,11911 32152,11911 "/>
  <path class="fil2" d="M58251 4645l1298 0 0 1298 -1298 0 0 -1298zm-1818 0l1298 0 0 1298 -1298 0 0 -1298z"/>
  <polygon class="fil2" points="996,4645 2294,4645 2294,5943 996,5943 "/>
  <polygon class="fil2" points="2816,4645 4114,4645 4114,5943 2816,5943 "/>
 </g>
 <g id="Layer_x0020_1_0">
  <metadata id="CorelCorpID_1Corel-Layer"/>
  <g id="_799460016">
   <polygon class="fil0 str0" points="16802,15772 45268,15772 45268,25639 16802,25639 "/>
   <circle class="fil2 str0" cx="45268" cy="15772" r="589"/>
   <polygon class="fil1 str1" points="17914,20006 44088,20006 44088,24581 17914,24581 "/>
   <polygon class="fil2" points="17914,18550 44088,18550 44088,20006 17914,20006 "/>
   <polygon class="fil2" points="42790,16858 44088,16858 44088,18156 42790,18156 "/>
   <polygon class="fil3" points="19734,20440 22934,20440 22934,20719 19734,20719 "/>
   <polygon class="fil3" points="17914,21150 44088,21150 44088,22295 17914,22295 "/>
   <polygon class="fil3" points="17914,23436 44088,23436 44088,24581 17914,24581 "/>
   <polygon class="fil0" points="19734,21563 26697,21563 26697,21843 19734,21843 "/>
   <polygon class="fil3" points="19734,22719 24085,22719 24085,22998 19734,22998 "/>
   <polygon class="fil0" points="19734,23844 25732,23844 25732,24124 19734,24124 "/>
   <g>
    <path class="fil2" d="M33476 20440l2324 0 0 279 -2324 0 0 -279zm3230 0l2323 0 0 279 -2323 0 0 -279zm3253 0l2323 0 0 279 -2323 0 0 -279zm-6483 1144l2324 0 0 280 -2324 0 0 -280zm3230 0l2323 0 0 280 -2323 0 0 -280zm3253 0l2323 0 0 280 -2323 0 0 -280z"/>
    <path class="fil2" d="M33476 22719l2324 0 0 279 -2324 0 0 -279zm3230 0l2323 0 0 279 -2323 0 0 -279zm3253 0l2323 0 0 279 -2323 0 0 -279zm-6483 1144l2324 0 0 280 -2324 0 0 -280zm3230 0l2323 0 0 280 -2323 0 0 -280zm3253 0l2323 0 0 280 -2323 0 0 -280z"/>
   </g>
   <path class="fil2" d="M40984 16858l1298 0 0 1298 -1298 0 0 -1298zm-1817 0l1298 0 0 1298 -1298 0 0 -1298z"/>
   <polygon class="fil2" points="17914,16858 19212,16858 19212,18156 17914,18156 "/>
   <polygon class="fil2" points="19734,16858 21032,16858 21032,18156 19734,18156 "/>
   <polygon class="fil2" points="22655,17198 30802,17198 30802,17755 22655,17755 "/>
   <polygon class="fil2" points="31804,17198 37015,17198 37015,17755 31804,17755 "/>
  </g>
 </g>
</svg>
