<svg xmlns="http://www.w3.org/2000/svg" width="615.066" height="306.112" viewBox="0 0 36714 18272" shape-rendering="geometricPrecision" text-rendering="geometricPrecision" image-rendering="optimizeQuality" fill-rule="evenodd" clip-rule="evenodd"><defs><style><![CDATA[
    .str4 {stroke:white;stroke-width:76.3903}
    .str1 {stroke:#E6E6E6;stroke-width:19.0863}
    .str0 {stroke:#E6E6E6;stroke-width:39.797}
    .str2 {stroke:#0096DC;stroke-width:17.1912}
    .str3 {stroke:#E6E6E6;stroke-width:17.1912}
    .fil0 {fill:none}
    .fil1 {fill:#0096DC}
    .fil2 {fill:#E6E6E6}
    .fil3 {fill:white}
   ]]></style></defs><g id="Layer_x0020_1"><g id="_782865872"><path class="fil0 str0" d="M20 2441h36675v15811H20z"/><path class="fil0 str1" d="M388 4575h35938v2650H388z"/><path class="fil0 str0" d="M20 20h36675v2421H20z"/><path class="fil1 str2" d="M33052 20h3642v1211h-3642zM33052 1231h3642v1211h-3642zM20 20h3642v2421H20zM3662 20h29390v809H3662zM3662 829h29390v1613H3662z"/><path class="fil2" d="M535 402h2612v1656H535zM23190 1062h1146v1146h-1146zM21388 1062h1146v1146h-1146zM19586 1062h1146v1146h-1146zM17784 1062h1146v1146h-1146zM15982 1062h1146v1146h-1146zM14180 1062h1146v1146h-1146zM12378 1062h1146v1146h-1146zM11373 260h2582v328h-2582zM14291 260h4798v328h-4798zM19805 260h2582v328h-2582zM22759 260h2582v328h-2582zM33420 243h764v764h-764zM34491 243h764v764h-764zM35562 243h764v764h-764zM33428 1672h876v328h-876zM34525 1672h1794v328h-1794z"/><path class="fil1" d="M388 3731h35938v844H388z"/><path class="fil2" d="M15958 2983h4798v328h-4798z"/><path class="fil1" d="M35562 2735h764v764h-764z"/><path class="fil3" d="M2621 3991h2556v323H2621zM11133 3991h2556v323h-2556zM19644 3991h2556v323h-2556zM28156 3991h2556v323h-2556z"/><path class="fil2" d="M388 4575h35938v663H388zM388 5900h35938v663H388z"/><path class="fil3" d="M1727 4825h4345v162H1727z"/><path class="fil2" d="M1849 5477h4100v162H1849z"/><path class="fil3" d="M10238 4825h2893v162h-2893zM13466 4825h1368v162h-1368z"/><path class="fil2" d="M11941 5471h2893v162h-2893zM10238 5471h1368v162h-1368z"/><path class="fil3" d="M18471 4825h4903v162h-4903z"/><path class="fil2" d="M19499 5477h2847v162h-2847z"/><path class="fil3" d="M2618 6146h2563v162H2618z"/><path class="fil2" d="M2133 6798h3532v162H2133z"/><path class="fil3" d="M10784 6146h2347v162h-2347zM13466 6146h936v162h-936z"/><path class="fil2" d="M11838 6792h3391v162h-3391zM9842 6792h1603v162H9842z"/><path class="fil3" d="M20008 6146h1830v162h-1830z"/><path class="fil2" d="M18932 6798h3981v162h-3981z"/><path class="fil1" d="M34491 2735h764v764h-764zM33420 2735h764v764h-764z"/><circle class="fil0 str0" cx="30877" cy="12739" r="3414"/><path class="fil1" d="M33214 10250c-611-574-1433-926-2337-926v3415l2337-2489z"/><path class="fil2" d="M30877 12739l2337-2489c364 341 648 758 833 1221l-3170 1268z"/><path class="fil3 str3" d="M30877 12739l3170-1268c148 370 230 762 242 1161l-3412 107z"/><path class="fil1" d="M20972 9709h4798v328h-4798z"/><path class="fil2" d="M20972 10544h3391v162h-3391zM20972 10998h744v162h-744zM20972 11452h744v162h-744zM20972 11905h875v162h-875zM20972 12359h2499v162h-2499zM20972 12813h1222v162h-1222zM22393 12813h1998v162h-1998zM23635 12359h2499v162h-2499zM21999 11905h3060v162h-3060zM21928 11452h1711v162h-1711zM21929 10998h2485v162h-2485z"/><path class="fil1" d="M20972 14049h400v394h-400z"/><path class="fil2" d="M20972 14712h400v394h-400z"/><path class="fil3 str3" d="M20972 15374h400v394h-400z"/><path class="fil2" d="M21629 14165h875v162h-875zM22657 14165h1906v162h-1906zM21629 14828h1353v162h-1353zM23103 14828h1723v162h-1723zM21629 15491h551v162h-551zM22308 15491h1827v162h-1827z"/><path class="fil1" d="M6877 9709h4798v328H6877z"/><path class="fil2" d="M7580 10544h3391v162H7580zM7567 12813h1222v162H7567zM8987 12813h1998v162H8987zM6695 12359h2499v162H6695zM9357 12359h2499v162H9357zM7232 11905h875v162h-875zM8259 11905h3060v162H8259zM7943 11452h744v162h-744zM8898 11452h1711v162H8898zM7555 10998h744v162h-744zM8512 10998h2485v162H8512z"/><path class="fil2 str4" d="M1323 14501h795v613h-795zM2118 13926h795v1188h-795zM2914 14299h795v815h-795zM3709 14807h795v307h-795zM4504 14337h795v778h-795zM5299 14598h795v516h-795zM6095 14971h795v143h-795zM6890 14598h795v516h-795zM7685 14419h795v695h-795zM8481 13844h795v1270h-795zM9276 14471h795v643h-795zM10071 14777h795v337h-795zM10866 13934h795v1180h-795zM11662 14143h795v972h-795zM12457 14202h795v912h-795zM13252 13971h795v1143h-795zM14047 14613h795v501h-795zM14843 13867h795v1248h-795zM15638 14934h795v181h-795zM16433 14857h795v257h-795z"/><path class="fil2" d="M2340.33 16038.9l-619.14-619.14-114.108 114.107 619.14 619.14zM3135.09 16038.9l-619.14-619.14-114.108 114.107 619.14 619.14zM3929.86 16038.9l-619.14-619.14-114.108 114.107 619.14 619.14zM4724.63 16038.9l-619.14-619.14-114.108 114.107 619.14 619.14zM5519.39 16038.9l-619.14-619.14-114.108 114.107 619.14 619.14zM6314.16 16038.9l-619.14-619.14-114.108 114.107 619.14 619.14zM7108.92 16038.9l-619.14-619.14-114.108 114.107 619.14 619.14zM7903.69 16038.9l-619.14-619.14-114.108 114.107 619.14 619.14zM8698.46 16038.9l-619.14-619.14-114.108 114.107 619.14 619.14zM9493.22 16038.9l-619.14-619.14-114.108 114.107 619.14 619.14zM10288 16038.9l-619.14-619.14-114.108 114.107 619.14 619.14zM11082.8 16038.9l-619.14-619.14-114.108 114.107 619.14 619.14zM11877.5 16038.9l-619.14-619.14-114.108 114.107 619.14 619.14zM12672.3 16038.9l-619.14-619.14-114.108 114.107 619.14 619.14zM13467.1 16038.9l-619.14-619.14-114.108 114.107 619.14 619.14zM14261.8 16038.9l-619.14-619.14-114.108 114.107 619.14 619.14zM15056.6 16038.9l-619.14-619.14-114.108 114.107 619.14 619.14zM15851.4 16038.9l-619.14-619.14-114.108 114.107 619.14 619.14zM16646.1 16038.9l-619.14-619.14-114.108 114.107 619.14 619.14zM17440.9 16038.9l-619.14-619.14-114.108 114.107 619.14 619.14z"/><path class="fil1" d="M26535 4825h805v162h-805zM27875 4825h1368v162h-1368zM29791 4825h1368v162h-1368zM26535 5489h805v162h-805zM27875 5489h1368v162h-1368zM29791 5489h1368v162h-1368zM26535 6146h805v162h-805zM27875 6146h1368v162h-1368zM29791 6146h1368v162h-1368zM26535 6809h805v162h-805zM27875 6809h1368v162h-1368zM29791 6809h1368v162h-1368zM31649 4825h684v162h-684zM31649 5489h684v162h-684zM31649 6146h684v162h-684zM31649 6809h684v162h-684z"/></g></g></svg>