<?xml version="1.0" encoding="UTF-8"?>
<!DOCTYPE svg PUBLIC "-//W3C//DTD SVG 1.1//EN" "http://www.w3.org/Graphics/SVG/1.1/DTD/svg11.dtd">
<!-- Creator: CorelDRAW X7 -->
<svg xmlns="http://www.w3.org/2000/svg" xml:space="preserve" width="0.25in" height="0.25in" version="1.1" style="shape-rendering:geometricPrecision; text-rendering:geometricPrecision; image-rendering:optimizeQuality; fill-rule:evenodd; clip-rule:evenodd"
viewBox="0 0 282 282"
 xmlns:xlink="http://www.w3.org/1999/xlink">
 <defs>
  <style type="text/css">
   <![CDATA[
    .fil1 {fill:white}
    .fil0 {fill:white;fill-rule:nonzero}
   ]]>
  </style>
 </defs>
 <g id="Layer_x0020_1">
  <metadata id="CorelCorpID_0Corel-Layer"/>
  <g id="_773989488">
   <path class="fil0" d="M141 0c39,0 74,16 100,41 25,26 41,61 41,100 0,39 -16,74 -41,100 -26,25 -61,41 -100,41 -39,0 -74,-16 -100,-41 -25,-26 -41,-61 -41,-100 0,-39 16,-74 41,-100 26,-25 61,-41 100,-41zm86 55c-22,-22 -52,-36 -86,-36 -34,0 -64,14 -86,36 -22,22 -36,52 -36,86 0,34 14,64 36,86 22,22 52,36 86,36 34,0 64,-14 86,-36 22,-22 36,-52 36,-86 0,-34 -14,-64 -36,-86z"/>
   <g>
    <path class="fil1" d="M208 91l-51 -51c-9,-9 -23,-9 -32,0l-51 51c-3,3 -3,8 0,11l15 15 11 10c3,2 7,2 11,0l20 -19c6,-6 14,-6 20,0l21 19c3,2 7,2 10,0l11 -10 15 -15c3,-3 3,-8 0,-11z"/>
    <path class="fil1" d="M45 152l80 80c4,4 9,6 14,6l0 -31 -8 0 0 -9 8 0 0 -23 0 -2 2 0 28 0 0 -8 9 0 0 8 36 0 2 0 21 -21c14,-14 4,-18 -6,-28l-13 -11c-3,-3 -8,-3 -11,0l-20 19c-6,5 -14,5 -20,0l-21 -19c-3,-3 -7,-3 -10,0l-21 19c-6,5 -14,5 -20,0l-20 -19c-3,-3 -8,-3 -11,0l-12 10c-10,10 -21,15 -7,29z"/>
    <path class="fil1" d="M152 213l-7 0 0 9 7 0 0 26c6,0 11,-2 15,-6l55 -56 -34 0 0 -7 -9 0 0 7 -27 0 0 27z"/>
   </g>
  </g>
 </g>
</svg>
