<svg xmlns="http://www.w3.org/2000/svg" width="24" height="24" viewBox="0 0 25001 25000" shape-rendering="geometricPrecision" text-rendering="geometricPrecision" image-rendering="optimizeQuality" fill-rule="evenodd" clip-rule="evenodd"><defs><style><![CDATA[
    .fil0 {fill:#ffffff;fill-rule:nonzero}
   ]]></style></defs><path class="fil0" d="M22442 4916c1705 2230 2558 4905 2558 7580 3 3203-1218 6403-3658 8843-2441 2441-5641 3661-8841 3661-2675 0-5351-854-7583-2560l-125-121c3974-4069 8045-8063 12067-12086l466-466-151 641-670 2847-1179 5009-43 184-182-43-1798-426 401-1703-5649 5648c1404 663 2925 994 4446 994 2666 0 5333-1018 7367-3052 2034-2035 3052-4702 3054-7367 0-2140-657-4280-1969-6094l1489-1489zM7855 15052l2043-8680 1980 467-400 1705 5470-5471c-1404-663-2926-995-4447-996-2665 2-5331 1020-7366 3055-2036 2035-3054 4702-3055 7367 2 2139 659 4280 1970 6094l-1489 1490C854 17851 0 15175 0 12499c3-3202 1222-6402 3661-8840C6099 1220 9299 1 12498 0h6c2675 1 5351 853 7581 2559l100 123c-3971 4247-8215 8260-12330 12370z" id="Layer_x0020_1"/></svg>
