<svg xmlns="http://www.w3.org/2000/svg" width="24" height="24" viewBox="0 0 25000 25000" shape-rendering="geometricPrecision" text-rendering="geometricPrecision" image-rendering="optimizeQuality" fill-rule="evenodd" clip-rule="evenodd"><defs><style><![CDATA[
    .fil0 {fill:#ffffff}
   ]]></style></defs><g id="Layer_x0020_1"><g id="_933405440"><path class="fil0" d="M12500 25000c6904 0 12500-5596 12500-12500S19404 0 12500 0 0 5596 0 12500s5596 12500 12500 12500zm0-23061c5833 0 10562 4728 10562 10561s-4729 10562-10562 10562S1938 18333 1938 12500 6667 1939 12500 1939z"/><path class="fil0" d="M12500 3385l9115 9115-9115 9115-9115-9115 9115-9115zM9422 9422c213-213 561-214 774 0l5382 5382c214 213 213 561 0 774s-561 213-774 0l-5382-5382c-213-213-213-561 0-774z"/></g></g></svg>
