<svg xmlns="http://www.w3.org/2000/svg" width="24" height="24" viewBox="0 0 282 282" shape-rendering="geometricPrecision" text-rendering="geometricPrecision" image-rendering="optimizeQuality" fill-rule="evenodd" clip-rule="evenodd"><defs><style><![CDATA[
    .fil1 {fill:white}
    .fil0 {fill:white;fill-rule:nonzero}
   ]]></style></defs><g id="Layer_x0020_1"><g id="_773989488"><path class="fil0" d="M141 0c39 0 74 16 100 41 25 26 41 61 41 100s-16 74-41 100c-26 25-61 41-100 41s-74-16-100-41C16 215 0 180 0 141S16 67 41 41C67 16 102 0 141 0zm86 55c-22-22-52-36-86-36S77 33 55 55s-36 52-36 86 14 64 36 86 52 36 86 36 64-14 86-36 36-52 36-86-14-64-36-86z"/><path class="fil1" d="M208 91l-51-51c-9-9-23-9-32 0L74 91c-3 3-3 8 0 11l15 15 11 10c3 2 7 2 11 0l20-19c6-6 14-6 20 0l21 19c3 2 7 2 10 0l11-10 15-15c3-3 3-8 0-11z"/><path class="fil1" d="M45 152l80 80c4 4 9 6 14 6v-31h-8v-9h8v-25h30v-8h9v8h38l21-21c14-14 4-18-6-28l-13-11c-3-3-8-3-11 0l-20 19c-6 5-14 5-20 0l-21-19c-3-3-7-3-10 0l-21 19c-6 5-14 5-20 0l-20-19c-3-3-8-3-11 0l-12 10c-10 10-21 15-7 29z"/><path class="fil1" d="M152 213h-7v9h7v26c6 0 11-2 15-6l55-56h-34v-7h-9v7h-27v27z"/></g></g></svg>