<svg xmlns="http://www.w3.org/2000/svg" width="24" height="24" viewBox="0 0 25000 25000" shape-rendering="geometricPrecision" text-rendering="geometricPrecision" image-rendering="optimizeQuality" fill-rule="evenodd" clip-rule="evenodd"><defs><style><![CDATA[
    .fil0 {fill:#ffffff}
    .fil1 {fill:#ffffff;fill-rule:nonzero}
   ]]></style></defs><g id="Layer_x0020_1"><g id="_937297216"><g id="_867285424"><path class="fil0" d="M12500 25000c6903 0 12500-5596 12500-12500C25000 5597 19403 0 12500 0S0 5597 0 12500c0 6904 5597 12500 12500 12500zm0-23062c5833 0 10562 4729 10562 10562s-4729 10562-10562 10562S1938 18333 1938 12500 6667 1938 12500 1938z"/><path class="fil1" d="M6744 6974h2220V5388c0-212 88-405 228-545l1-1c141-141 333-228 545-228h5524c212 0 405 87 545 228l1 1c141 140 228 333 228 545v1586h2220c675 0 1287 276 1730 720 445 443 720 1055 720 1730v6943c0 675-275 1287-720 1730-443 444-1055 720-1730 720H6744c-675 0-1287-276-1730-720-444-443-720-1055-720-1730V9424c0-675 276-1287 720-1730 443-444 1055-720 1730-720zm3266 0h4980V5660h-4980v1314zm5322 1045c-23 3-47 3-70 3H9738c-23 0-47 0-70-3H6744c-386 0-737 160-992 413-254 255-413 607-413 992v6943c0 386 159 737 413 992 255 254 606 413 992 413h11512c386 0 737-159 992-413 254-255 413-606 413-992V9424c0-385-159-737-413-992-255-253-606-413-992-413h-2924z"/><path class="fil1" d="M6827 9929h11385c119 0 215 96 215 215v166c0 119-96 215-215 215H6827c-119 0-215-96-215-215v-166c0-119 96-215 215-215zM6827 11732h11385c119 0 215 96 215 215v166c0 119-96 215-215 215H6827c-119 0-215-96-215-215v-166c0-119 96-215 215-215zM6827 13535h11385c119 0 215 96 215 215v166c0 119-96 215-215 215H6827c-119 0-215-96-215-215v-166c0-119 96-215 215-215zM6827 15338h11385c119 0 215 96 215 215v166c0 119-96 215-215 215H6827c-119 0-215-96-215-215v-166c0-119 96-215 215-215z"/></g></g></g></svg>