<svg xmlns="http://www.w3.org/2000/svg" width="210.929" height="42.287" viewBox="0 0 219718 44049" shape-rendering="geometricPrecision" text-rendering="geometricPrecision" image-rendering="optimizeQuality" fill-rule="evenodd" clip-rule="evenodd"><defs><style><![CDATA[
    .fil0 {fill:white}
   ]]></style></defs><g id="Layer_x0020_1"><g id="_943803024"><path class="fil0" d="M36482 12373L25528 1419c-1891-1892-4987-1892-6879 0L7717 12350c-631 632-631 1662 0 2293l3316 3316 2208 2043c654 606 1655 605 2310 0l4415-4085c1213-1122 3077-1122 4290 1l4415 4084c654 606 1656 605 2310 0l2208-2042 3293-3294c632-631 632-1661 0-2293z"/><path class="fil0" d="M1483 25465l17165 17165c1892 1892 4987 1892 6880 0l17165-17166c2976-2976 879-3857-1303-5925l-2694-2552c-647-613-1655-605-2310 0l-4414 4085c-1213 1123-3078 1123-4291 0l-4415-4085c-654-605-1656-605-2310 0l-4415 4085c-1213 1123-3078 1123-4291 0l-4414-4085c-655-605-1656-605-2310 0l-2473 2288c-2282 2111-4679 3081-1570 6190zM117908 27314c930 0 1685 754 1685 1684s-755 1684-1685 1684-1684-754-1684-1684 754-1684 1684-1684zm41237-11234h14626c3040 0 5737-969 8007-2873h-24906c-2854 0-5403 854-7582 2532-3971 3061-7973 7355-11668 10855-1435 1359-3668 1342-5118 0l-9779-9047c-2688-2486-6818-2486-9504 0l-9780 9047c-1449 1342-3667 1342-5117 0l-9779-9047c-2687-2486-6817-2486-9504 0l-9779 9047c-1451 1342-3668 1342-5118 0L49681 13213l-2350 2226 14620 13526c2687 2486 6816 2486 9504 0l9779-9047c1450-1342 3668-1342 5118 0l9778 9047c2688 2486 6818 2486 9505 0l9779-9047c1449-1342 3667-1342 5117 0l9780 9047c2687 2486 6846 2517 9504 0 3557-3370 6865-6738 10228-10073 173-172 350-336 529-492 1784-1550 3874-2320 6300-2320h2273zm7103 4205c930 0 1684 754 1684 1684 0 931-754 1685-1684 1685s-1684-754-1684-1685c0-930 754-1684 1684-1684zm-9376 10298h28638v-2874h-28638c-3040 0-5737 971-8007 2874h8007zm28638-2874h28820c1383 0 2515-1131 2515-2514v-62c0-1383-1132-2514-2515-2514h-24417c-2375 0-4310-1935-4310-4311v-617c0-2375 1935-4310 4310-4310h18716v2873h-18716c-789 0-1437 648-1437 1437v617c0 789 648 1437 1437 1437h24417c2970 0 5388 2420 5388 5388v62c0 2968-2420 5388-5388 5388h-28820v-2874z"/></g></g></svg>
