<svg xmlns="http://www.w3.org/2000/svg" width="81.92" height="55.421" viewBox="0 0 85334 57730" shape-rendering="geometricPrecision" text-rendering="geometricPrecision" image-rendering="optimizeQuality" fill-rule="evenodd" clip-rule="evenodd"><defs><style><![CDATA[
    .fil0 {fill:white}
   ]]></style></defs><g id="Layer_x0020_1"><g id="_942137728"><path class="fil0" d="M58887 13567L46876 1556c-2074-2075-5469-2075-7544 0L27347 13543c-693 692-693 1821-1 2514l3636 3636 2421 2239c718 665 1815 665 2533 0l4841-4478c1330-1231 3374-1231 4704 0l4841 4478c718 665 1816 665 2533 0l2421-2239 3611-3611c693-693 693-1822 0-2515z"/><path class="fil0" d="M20510 27922l18822 18822c2074 2074 5469 2074 7543 0l18823-18823c3262-3263 963-4229-1430-6496l-2953-2798c-710-672-1815-664-2533 0l-4841 4479c-1330 1231-3374 1231-4705 0l-4841-4479c-717-664-1815-664-2532 0l-4841 4479c-1330 1231-3375 1231-4705 0l-4840-4479c-719-664-1816-664-2534 0l-2711 2509c-2502 2315-5130 3377-1722 6786zM34936 55984c461 0 834 373 834 834 0 460-373 833-834 833-460 0-833-373-833-833 0-461 373-834 833-834zm20413-5561h7240c1505 0 2840-480 3964-1422H54224c-1413 0-2675 423-3753 1253-1966 1516-3947 3641-5776 5374-710 672-1816 664-2533 0l-4841-4479c-1331-1231-3375-1231-4705 0l-4841 4479c-717 664-1815 664-2533 0l-4841-4479c-1330-1231-3374-1231-4704 0l-4841 4479c-718 664-1816 664-2534 0l-7159-6624L0 50105l7237 6696c1330 1231 3374 1231 4704 0l4841-4478c718-665 1816-665 2533 0l4841 4478c1331 1231 3375 1231 4705 0l4841-4478c717-665 1815-665 2533 0l4841 4478c1330 1231 3389 1246 4705 0 1761-1668 3398-3335 5063-4986 85-85 173-167 262-244 882-767 1917-1148 3118-1148h1125zm3516 2082c461 0 834 373 834 833 0 461-373 834-834 834-460 0-834-373-834-834 0-460 374-833 834-833zm-4641 5097h14176v-1422H54224c-1505 0-2840 480-3963 1422h3963zm14176-1422h14267c685 0 1244-560 1244-1245v-31c0-684-560-1244-1244-1244H70580c-1176 0-2134-958-2134-2134v-305c0-1176 958-2134 2134-2134h9264v1422h-9264c-391 0-712 321-712 712v305c0 391 321 711 712 711h12087c1470 0 2667 1198 2667 2667v31c0 1469-1198 2667-2667 2667H68400v-1422z"/></g></g></svg>