<?xml version="1.0" encoding="UTF-8"?>
<!DOCTYPE svg PUBLIC "-//W3C//DTD SVG 1.1//EN" "http://www.w3.org/Graphics/SVG/1.1/DTD/svg11.dtd">
<!-- Creator: CorelDRAW X7 -->
<svg xmlns="http://www.w3.org/2000/svg" xml:space="preserve" width="0.853335in" height="0.577299in" version="1.1" style="shape-rendering:geometricPrecision; text-rendering:geometricPrecision; image-rendering:optimizeQuality; fill-rule:evenodd; clip-rule:evenodd"
viewBox="0 0 85334 57730"
 xmlns:xlink="http://www.w3.org/1999/xlink">
 <defs>
  <style type="text/css">
   <![CDATA[
    .fil0 {fill:white}
   ]]>
  </style>
 </defs>
 <g id="Layer_x0020_1">
  <metadata id="CorelCorpID_0Corel-Layer"/>
  <g id="_942137728">
   <path class="fil0" d="M58887 13567l-12011 -12011c-2074,-2075 -5469,-2075 -7544,0l-11985 11987c-693,692 -693,1821 -1,2514l3636 3636 2421 2239c718,665 1815,665 2533,0l4841 -4478c1330,-1231 3374,-1231 4704,0l4841 4478c718,665 1816,665 2533,0l2421 -2239 3611 -3611c693,-693 693,-1822 0,-2515z"/>
   <path class="fil0" d="M20510 27922l18822 18822c2074,2074 5469,2074 7543,0l18823 -18823c3262,-3263 963,-4229 -1430,-6496l-2953 -2798c-710,-672 -1815,-664 -2533,0l-4841 4479c-1330,1231 -3374,1231 -4705,0l-4841 -4479c-717,-664 -1815,-664 -2532,0l-4841 4479c-1330,1231 -3375,1231 -4705,0l-4840 -4479c-719,-664 -1816,-664 -2534,0l-2711 2509c-2502,2315 -5130,3377 -1722,6786z"/>
   <path class="fil0" d="M34936 55984c461,0 834,373 834,834 0,460 -373,833 -834,833 -460,0 -833,-373 -833,-833 0,-461 373,-834 833,-834zm20413 -5561l7240 0c1505,0 2840,-480 3964,-1422l-3964 0 -2262 0 -4978 0 -162 0 -963 0c-1413,0 -2675,423 -3753,1253 -1966,1516 -3947,3641 -5776,5374 -710,672 -1816,664 -2533,0l-4841 -4479c-1331,-1231 -3375,-1231 -4705,0l-4841 4479c-717,664 -1815,664 -2533,0l-4841 -4479c-1330,-1231 -3374,-1231 -4704,0l-4841 4479c-718,664 -1816,664 -2534,0l-7159 -6624 -1163 1101 0 0 7237 6696c1330,1231 3374,1231 4704,0l4841 -4478c718,-665 1816,-665 2533,0l4841 4478c1331,1231 3375,1231 4705,0l4841 -4478c717,-665 1815,-665 2533,0l4841 4478c1330,1231 3389,1246 4705,0 1761,-1668 3398,-3335 5063,-4986 85,-85 173,-167 262,-244 882,-767 1917,-1148 3118,-1148l963 0 162 0zm3516 2082c461,0 834,373 834,833 0,461 -373,834 -834,834 -460,0 -834,-373 -834,-834 0,-460 374,-833 834,-833zm-4641 5097l2262 0 11914 0 0 -1422 -14176 0c-1505,0 -2840,480 -3963,1422l3963 0zm14176 -1422l14267 0c685,0 1244,-560 1244,-1245l0 -31c0,-684 -560,-1244 -1244,-1244l-12087 0c-1176,0 -2134,-958 -2134,-2134l0 -305c0,-1176 958,-2134 2134,-2134l9264 0 0 1422 -9264 0c-391,0 -712,321 -712,712l0 305c0,391 321,711 712,711l12087 0c1470,0 2667,1198 2667,2667l0 31c0,1469 -1198,2667 -2667,2667l-14267 0 0 -1422z"/>
  </g>
 </g>
</svg>
