<svg xmlns="http://www.w3.org/2000/svg" width="113.918" height="113.918" viewBox="0 0 23986 23986" shape-rendering="geometricPrecision" text-rendering="geometricPrecision" image-rendering="optimizeQuality" fill-rule="evenodd" clip-rule="evenodd"><defs><style><![CDATA[
    .fil0 {fill:#AFAFAF}
   ]]></style></defs><path class="fil0" d="M874 9875L9875 874c1165-1165 3071-1165 4236 0l9002 9001c1165 1165 1165 3071 0 4236l-9002 9002c-1165 1165-3071 1165-4236 0L874 14111c-1165-1165-1165-3071 0-4236zm8493 7400h525c53-22 349-27 436-34 145-12 288-29 431-49 801-115 1467-325 2181-659 455-212 1081-611 1439-923 42-36 90-73 130-109l252-227c40-36 80-84 118-122l292-301c592-689 1065-1394 1413-2272 186-470 333-929 438-1456 123-615 142-1118 137-1765 6-28 401-327 454-382 37-38 53-50 89-82 60-55 119-108 173-168 28-31 48-53 76-85 163-192 216-238 388-468 42-56 103-155 146-197v-11c-73 15-255 101-346 135-332 121-814 244-1163 276 59-50 134-91 195-138 445-335 779-764 956-1328-58 22-125 69-187 100-70 36-127 70-196 101-292 135-1039 440-1312 435-51-65-104-104-165-157l-174-145c-318-239-706-413-1108-488-84-16-208-13-279-45h-399c-33 13-253 33-317 45-1004 194-1836 960-2080 1936-56 222-82 406-89 643-8 244 34 422 65 646-229 13-693-61-927-102-1469-260-2657-880-3751-1827-112-97-218-214-323-316l-252-261c-33-38-199-247-243-274-23 60-74 139-107 211-267 593-328 1242-145 1870 161 556 464 985 882 1331l157 119c16 16 5 3 18 23-203 0-471-53-653-108-308-95-328-142-529-220 0 1151 673 2103 1664 2506 138 56 418 125 452 144-406 119-763 96-1180 42 53 237 247 565 362 728 150 212 329 403 529 555 452 344 871 522 1587 571-88 84-255 195-369 268-716 458-1487 748-2357 839-529 55-694 25-1200-4l20 17c1 2 4 4 6 6l372 221c826 482 1920 812 2886 913 83 8 555 32 582 42z" id="Layer_x0020_1"/></svg>