<?xml version="1.0" encoding="UTF-8"?>
<!DOCTYPE svg PUBLIC "-//W3C//DTD SVG 1.1//EN" "http://www.w3.org/Graphics/SVG/1.1/DTD/svg11.dtd">
<!-- Creator: CorelDRAW X7 -->
<svg xmlns="http://www.w3.org/2000/svg" xml:space="preserve" width="0.816661in" height="0.868811in" version="1.1" style="shape-rendering:geometricPrecision; text-rendering:geometricPrecision; image-rendering:optimizeQuality; fill-rule:evenodd; clip-rule:evenodd"
viewBox="0 0 36382 38705"
 xmlns:xlink="http://www.w3.org/1999/xlink">
 <defs>
  <style type="text/css">
   <![CDATA[
    .fil0 {fill:white}
   ]]>
  </style>
 </defs>
 <g id="Layer_x0020_1">
  <metadata id="CorelCorpID_0Corel-Layer"/>
  <polygon class="fil0" points="16652,0 19730,0 19730,16815 16652,16815 "/>
  <path class="fil0" d="M18190 38705c10051,0 18192,-8141 18192,-18191 0,-7594 -4649,-14096 -11256,-16821 -144,-96 -289,-171 -434,-201l0 27 0 2114 0 948 0 8147 697 0 841 0 0 -5322c3448,2500 5684,6569 5684,11164 0,7604 -6119,13723 -13724,13723 -7603,0 -13767,-6119 -13767,-13723 0,-4733 2389,-8907 6026,-11384l0 5542 810 0 729 0 0 -8287 0 -935 0 -2014 0 -84c-6994,2535 -11988,9234 -11988,17106 0,10050 8140,18191 18190,18191z"/>
 </g>
</svg>
