<?xml version="1.0" encoding="UTF-8"?>
<!DOCTYPE svg PUBLIC "-//W3C//DTD SVG 1.1//EN" "http://www.w3.org/Graphics/SVG/1.1/DTD/svg11.dtd">
<!-- Creator: CorelDRAW X7 -->
<svg xmlns="http://www.w3.org/2000/svg" xml:space="preserve" width="0.166366in" height="0.166366in" version="1.1" style="shape-rendering:geometricPrecision; text-rendering:geometricPrecision; image-rendering:optimizeQuality; fill-rule:evenodd; clip-rule:evenodd"
viewBox="0 0 16637 16637"
 xmlns:xlink="http://www.w3.org/1999/xlink">
 <defs>
  <style type="text/css">
   <![CDATA[
    .fil0 {fill:white}
   ]]>
  </style>
 </defs>
 <g id="Layer_x0020_1">
  <metadata id="CorelCorpID_0Corel-Layer"/>
  <g id="_1107865264">
   <path class="fil0" d="M8319 16637c4594,0 8318,-3724 8318,-8319 0,-4594 -3724,-8318 -8318,-8318 -4595,0 -8319,3724 -8319,8318 0,4595 3724,8319 8319,8319zm0 -15347c3881,0 7028,3147 7028,7028 0,3883 -3147,7029 -7028,7029 -3883,0 -7030,-3146 -7030,-7029 0,-3881 3147,-7028 7030,-7028z"/>
   <circle class="fil0" cx="8313" cy="3406" r="2825"/>
   <path class="fil0" d="M9936 15719c1294,-690 4812,-8839 0,-8839l-1604 0 -1603 0c-4812,0 -1294,8149 0,8839 1029,250 2101,233 3207,0z"/>
  </g>
 </g>
</svg>
