<svg xmlns="http://www.w3.org/2000/svg" width="15.971" height="15.971" viewBox="0 0 16637 16637" shape-rendering="geometricPrecision" text-rendering="geometricPrecision" image-rendering="optimizeQuality" fill-rule="evenodd" clip-rule="evenodd"><defs><style><![CDATA[
    .fil0 {fill:white}
   ]]></style></defs><g id="Layer_x0020_1"><g id="_1107865264"><path class="fil0" d="M8319 16637c4594 0 8318-3724 8318-8319C16637 3724 12913 0 8319 0 3724 0 0 3724 0 8318c0 4595 3724 8319 8319 8319zm0-15347c3881 0 7028 3147 7028 7028 0 3883-3147 7029-7028 7029-3883 0-7030-3146-7030-7029 0-3881 3147-7028 7030-7028z"/><circle class="fil0" cx="8313" cy="3406" r="2825"/><path class="fil0" d="M9936 15719c1294-690 4812-8839 0-8839H6729c-4812 0-1294 8149 0 8839 1029 250 2101 233 3207 0z"/></g></g></svg>