<?xml version="1.0" encoding="UTF-8"?>
<!DOCTYPE svg PUBLIC "-//W3C//DTD SVG 1.1//EN" "http://www.w3.org/Graphics/SVG/1.1/DTD/svg11.dtd">
<!-- Creator: CorelDRAW X7 -->
<svg xmlns="http://www.w3.org/2000/svg" xml:space="preserve" width="0.16637in" height="0.166366in" version="1.1" style="shape-rendering:geometricPrecision; text-rendering:geometricPrecision; image-rendering:optimizeQuality; fill-rule:evenodd; clip-rule:evenodd"
viewBox="0 0 16637 16637"
 xmlns:xlink="http://www.w3.org/1999/xlink">
 <defs>
  <style type="text/css">
   <![CDATA[
    .fil0 {fill:white}
   ]]>
  </style>
 </defs>
 <g id="Layer_x0020_1">
  <metadata id="CorelCorpID_0Corel-Layer"/>
  <path class="fil0" d="M8318 16637c4594,0 8319,-3725 8319,-8319 0,-4594 -3725,-8318 -8319,-8318 -4593,0 -8318,3724 -8318,8318 0,4594 3725,8319 8318,8319zm776 -15305l-187 409 478 742 1531 -72 530 1852 -1340 747 -15 883 1270 842 -651 1811 -1517 -159 -551 688 554 1429 -1587 1090 -1135 -1033 -841 267 -395 1472 -1925 -44 -329 -1488 -829 -303 -411 341c1004,2654 3569,4541 6574,4541 960,0 1875,-193 2708,-541l68 -535 -351 -295 -749 272 -548 -836 541 -580 -114 -443 -767 -217 44 -999 778 -154 166 -428 -495 -623 620 -786 720 329 386 -249 -38 -796 961 -275 393 688 586 32 0 0 466 -640 925 381 -118 782 345 303 384 -131c78,-417 118,-848 118,-1288 0,-3619 -2735,-6599 -6253,-6986zm-4648 2123c1004,0 1818,814 1818,1818 0,1004 -814,1818 -1818,1818 -1004,0 -1817,-814 -1817,-1818 0,-1004 813,-1818 1817,-1818zm8071 7475c503,-145 1025,146 1169,646 144,501 -147,1025 -648,1168 -502,144 -1025,-146 -1168,-647 -144,-502 147,-1025 647,-1167z"/>
 </g>
</svg>
