<?xml version="1.0" encoding="UTF-8"?>
<!DOCTYPE svg PUBLIC "-//W3C//DTD SVG 1.1//EN" "http://www.w3.org/Graphics/SVG/1.1/DTD/svg11.dtd">
<!-- Creator: CorelDRAW X7 -->
<svg xmlns="http://www.w3.org/2000/svg" xml:space="preserve" width="0.626295in" height="0.895417in" version="1.1" style="shape-rendering:geometricPrecision; text-rendering:geometricPrecision; image-rendering:optimizeQuality; fill-rule:evenodd; clip-rule:evenodd"
viewBox="0 0 1995 2852"
 xmlns:xlink="http://www.w3.org/1999/xlink">
 <defs>
  <style type="text/css">
   <![CDATA[
    .fil0 {fill:whitesmoke}
   ]]>
  </style>
 </defs>
 <g id="Layer_x0020_1">
  <metadata id="CorelCorpID_0Corel-Layer"/>
  <g id="_1187974000">
   <path class="fil0" d="M410 0l279 0c31,15 60,35 85,61l718 717c41,42 41,109 0,150l-216 216 -145 134c-42,39 -108,39 -151,0l-289 -268c-79,-73 -201,-73 -281,0l-289 268c-33,31 -81,38 -121,20l0 -913 324 -324c26,-26 55,-46 86,-61z"/>
   <path class="fil0" d="M0 2435l0 -1037c64,14 134,-2 186,-50l289 -268c43,-39 109,-39 151,0l289 268c80,73 202,73 281,0l289 -268c43,-39 109,-40 152,0l176 167c143,136 280,193 85,388l-1124 1124c-123,124 -326,124 -450,0l-324 -324z"/>
  </g>
 </g>
</svg>
