<?xml version="1.0" encoding="UTF-8"?>
<!DOCTYPE svg PUBLIC "-//W3C//DTD SVG 1.1//EN" "http://www.w3.org/Graphics/SVG/1.1/DTD/svg11.dtd">
<!-- Creator: CorelDRAW X7 -->
<svg xmlns="http://www.w3.org/2000/svg" xml:space="preserve" width="0.658803in" height="0.836669in" version="1.1" style="shape-rendering:geometricPrecision; text-rendering:geometricPrecision; image-rendering:optimizeQuality; fill-rule:evenodd; clip-rule:evenodd"
viewBox="0 0 3433 4360"
 xmlns:xlink="http://www.w3.org/1999/xlink">
 <defs>
  <style type="text/css">
   <![CDATA[
    .fil0 {fill:whitesmoke}
   ]]>
  </style>
 </defs>
 <g id="Layer_x0020_1">
  <metadata id="CorelCorpID_0Corel-Layer"/>
  <path class="fil0" d="M0 280l0 -74c0,-103 76,-189 175,-206l691 1 783 1551 772 -1552 1012 0 -1089 2105 936 0 2 0 0 561 -1164 0 0 197 1164 -2 -6 587 -1158 0 -3 912 -942 -2 -1 -910 -1164 1 1 -586 1164 0 -4 -197 -1160 0 0 0 -1 0 1 -561 706 0 236 0 -951 -1825z"/>
 </g>
</svg>
