<?xml version="1.0" encoding="UTF-8"?>
<!DOCTYPE svg PUBLIC "-//W3C//DTD SVG 1.1//EN" "http://www.w3.org/Graphics/SVG/1.1/DTD/svg11.dtd">
<!-- Creator: CorelDRAW X7 -->
<svg xmlns="http://www.w3.org/2000/svg" xml:space="preserve" width="0.168213in" height="0.168268in" version="1.1" style="shape-rendering:geometricPrecision; text-rendering:geometricPrecision; image-rendering:optimizeQuality; fill-rule:evenodd; clip-rule:evenodd"
viewBox="0 0 246 246"
 xmlns:xlink="http://www.w3.org/1999/xlink">
 <defs>
  <style type="text/css">
   <![CDATA[
    .fil0 {fill:white;fill-rule:nonzero}
   ]]>
  </style>
 </defs>
 <g id="Layer_x0020_1">
  <metadata id="CorelCorpID_0Corel-Layer"/>
  <path class="fil0" d="M79 192l85 -23 -5 -19 -17 4 73 -77c7,13 10,28 11,43 1,26 -9,53 -28,73 -20,21 -46,32 -72,33 -54,1 -100,-39 -104,-93 -3,-29 7,-60 26,-80 20,-21 46,-32 72,-32 21,-1 42,5 61,17l14 -15c-23,-16 -49,-24 -75,-23 -32,1 -63,14 -86,39 -24,24 -35,56 -34,88 3,109 138,160 213,81 23,-25 34,-57 33,-89l0 0c-1,-26 -10,-52 -27,-73l-1 -1 -139 147z"/>
 </g>
</svg>
