<?xml version="1.0" encoding="UTF-8"?>
<!DOCTYPE svg PUBLIC "-//W3C//DTD SVG 1.1//EN" "http://www.w3.org/Graphics/SVG/1.1/DTD/svg11.dtd">
<!-- Creator: CorelDRAW X7 -->
<svg xmlns="http://www.w3.org/2000/svg" xml:space="preserve" width="0.168213in" height="0.168268in" version="1.1" style="shape-rendering:geometricPrecision; text-rendering:geometricPrecision; image-rendering:optimizeQuality; fill-rule:evenodd; clip-rule:evenodd"
viewBox="0 0 256 256"
 xmlns:xlink="http://www.w3.org/1999/xlink">
 <defs>
  <style type="text/css">
   <![CDATA[
    .fil0 {fill:white;fill-rule:nonzero}
   ]]>
  </style>
 </defs>
 <g id="Layer_x0020_1">
  <metadata id="CorelCorpID_0Corel-Layer"/>
  <path class="fil0" d="M174 57l-89 23 6 20 17 -4 -75 80c-7,-14 -11,-29 -12,-45 0,-27 9,-55 29,-76 21,-22 47,-33 75,-34 56,-1 103,41 108,97 3,30 -7,62 -28,83 -20,22 -47,33 -74,34 -22,0 -44,-6 -63,-19l-15 16c24,17 51,25 79,24 32,-1 65,-15 89,-40 24,-26 36,-59 35,-92 -4,-113 -143,-167 -221,-84 -24,26 -36,59 -35,92l0 0c1,27 10,54 29,77l1 1 144 -153z"/>
 </g>
</svg>
