<svg xmlns="http://www.w3.org/2000/svg" width="16.155" height="16.154" viewBox="0 0 237 237" shape-rendering="geometricPrecision" text-rendering="geometricPrecision" image-rendering="optimizeQuality" fill-rule="evenodd" clip-rule="evenodd"><defs><style><![CDATA[
    .fil0 {fill:white;fill-rule:nonzero}
   ]]></style></defs><path class="fil0" d="M213 47c16 21 24 46 24 72 0 30-11 60-35 83-23 24-53 35-83 35-26 0-51-8-72-24l-2-1c38-39 77-77 115-115l4-4-1 6-6 27-12 47v2h-2l-17-4 4-17-54 54c14 6 28 9 43 9 25 0 50-9 69-29 20-19 29-44 29-69 0-21-6-41-18-58l14-14zM75 143l19-83 19 5-4 16 52-52c-14-6-28-9-42-9-26 0-51 9-70 29-20 19-29 44-29 70 0 20 6 40 18 57l-14 14C8 169 0 144 0 119c0-31 12-61 35-84S88 0 119 0c25 0 50 8 72 24v1c-37 41-77 79-116 118z" id="Layer_x0020_1"/></svg>