<?xml version="1.0" encoding="UTF-8"?>
<!DOCTYPE svg PUBLIC "-//W3C//DTD SVG 1.1//EN" "http://www.w3.org/Graphics/SVG/1.1/DTD/svg11.dtd">
<!-- Creator: CorelDRAW X7 -->
<svg xmlns="http://www.w3.org/2000/svg" xml:space="preserve" width="0.660472in" height="0.92739in" version="1.1" style="shape-rendering:geometricPrecision; text-rendering:geometricPrecision; image-rendering:optimizeQuality; fill-rule:evenodd; clip-rule:evenodd"
viewBox="0 0 2711 3806"
 xmlns:xlink="http://www.w3.org/1999/xlink">
 <defs>
  <style type="text/css">
   <![CDATA[
    .fil0 {fill:whitesmoke}
   ]]>
  </style>
 </defs>
 <g id="Layer_x0020_1">
  <metadata id="CorelCorpID_0Corel-Layer"/>
  <path class="fil0" d="M511 0l1475 0c341,160 656,489 656,982l-685 0c-17,-208 -178,-412 -384,-427l0 722c524,54 1138,255 1138,961 0,616 -617,1066 -1138,1093l0 475 -658 0 0 -482c-261,-38 -673,-226 -915,-600l0 -604 499 0c44,200 101,443 416,533l0 -788c-305,-44 -706,-152 -915,-458l0 -985c129,-203 328,-339 511,-422zm408 562l0 599c-464,-8 -473,-516 0,-599zm662 1416c574,14 638,587 -1,679l1 -679z"/>
 </g>
</svg>
