<?xml version="1.0" encoding="UTF-8"?>
<!DOCTYPE svg PUBLIC "-//W3C//DTD SVG 1.1//EN" "http://www.w3.org/Graphics/SVG/1.1/DTD/svg11.dtd">
<!-- Creator: CorelDRAW X7 -->
<svg xmlns="http://www.w3.org/2000/svg" xml:space="preserve" width="0.108276in" height="0.109598in" version="1.1" style="shape-rendering:geometricPrecision; text-rendering:geometricPrecision; image-rendering:optimizeQuality; fill-rule:evenodd; clip-rule:evenodd"
viewBox="0 0 70 71"
 xmlns:xlink="http://www.w3.org/1999/xlink">
 <defs>
  <style type="text/css">
   <![CDATA[
    .fil0 {fill:#4C7699}
   ]]>
  </style>
 </defs>
 <g id="Layer_x0020_1">
  <metadata id="CorelCorpID_0Corel-Layer"/>
  <path id="wIcon_clip.svg" class="fil0" d="M2 31l29 -29c1,-1 2,-2 4,-2 1,0 3,1 4,2l29 29c3,2 3,6 0,9l-15 15 -16 -33 -2 -4 -2 4 -16 33 -15 -15c-3,-3 -3,-7 0,-9zm33 40c1,0 3,-1 4,-2l8 -8 -12 -24 -12 24 8 8c1,1 2,2 4,2z"/>
 </g>
</svg>
