<svg xmlns="http://www.w3.org/2000/svg" width="10.517" height="10.517" viewBox="0 0 576 576" shape-rendering="geometricPrecision" text-rendering="geometricPrecision" image-rendering="optimizeQuality" fill-rule="evenodd" clip-rule="evenodd"><defs><style><![CDATA[
    .fil0 {fill:white}
   ]]></style></defs><path class="fil0" d="M15 251L251 15c20-20 54-20 74 0l236 236c20 20 20 54 0 74L325 561c-20 20-54 20-74 0L15 325c-20-20-20-54 0-74zm318-104v41c0 9-7 17-17 17h-56c-10 0-17-8-17-17v-41c0-20 15-35 35-35h20c20 0 35 15 35 35zm-35 317h-20c-20 0-35-15-35-35V261c0-9 7-17 17-17h56c10 0 17 8 17 17v168c0 20-15 35-35 35z" id="Layer_x0020_1"/></svg>